%TF.GenerationSoftware,KiCad,Pcbnew,7.0.10*%
%TF.CreationDate,2024-03-26T16:58:00-05:00*%
%TF.ProjectId,shematic for power and light system,7368656d-6174-4696-9320-666f7220706f,rev?*%
%TF.SameCoordinates,Original*%
%TF.FileFunction,Copper,L1,Top*%
%TF.FilePolarity,Positive*%
%FSLAX46Y46*%
G04 Gerber Fmt 4.6, Leading zero omitted, Abs format (unit mm)*
G04 Created by KiCad (PCBNEW 7.0.10) date 2024-03-26 16:58:00*
%MOMM*%
%LPD*%
G01*
G04 APERTURE LIST*
G04 Aperture macros list*
%AMRoundRect*
0 Rectangle with rounded corners*
0 $1 Rounding radius*
0 $2 $3 $4 $5 $6 $7 $8 $9 X,Y pos of 4 corners*
0 Add a 4 corners polygon primitive as box body*
4,1,4,$2,$3,$4,$5,$6,$7,$8,$9,$2,$3,0*
0 Add four circle primitives for the rounded corners*
1,1,$1+$1,$2,$3*
1,1,$1+$1,$4,$5*
1,1,$1+$1,$6,$7*
1,1,$1+$1,$8,$9*
0 Add four rect primitives between the rounded corners*
20,1,$1+$1,$2,$3,$4,$5,0*
20,1,$1+$1,$4,$5,$6,$7,0*
20,1,$1+$1,$6,$7,$8,$9,0*
20,1,$1+$1,$8,$9,$2,$3,0*%
%AMFreePoly0*
4,1,6,1.000000,0.000000,0.500000,-0.750000,-0.500000,-0.750000,-0.500000,0.750000,0.500000,0.750000,1.000000,0.000000,1.000000,0.000000,$1*%
%AMFreePoly1*
4,1,7,0.700000,0.000000,1.200000,-0.750000,-1.200000,-0.750000,-0.700000,0.000000,-1.200000,0.750000,1.200000,0.750000,0.700000,0.000000,0.700000,0.000000,$1*%
G04 Aperture macros list end*
%TA.AperFunction,SMDPad,CuDef*%
%ADD10RoundRect,0.250000X0.450000X-0.262500X0.450000X0.262500X-0.450000X0.262500X-0.450000X-0.262500X0*%
%TD*%
%TA.AperFunction,ComponentPad*%
%ADD11RoundRect,0.250000X0.845000X-0.620000X0.845000X0.620000X-0.845000X0.620000X-0.845000X-0.620000X0*%
%TD*%
%TA.AperFunction,ComponentPad*%
%ADD12O,2.190000X1.740000*%
%TD*%
%TA.AperFunction,SMDPad,CuDef*%
%ADD13RoundRect,0.250000X-0.262500X-0.450000X0.262500X-0.450000X0.262500X0.450000X-0.262500X0.450000X0*%
%TD*%
%TA.AperFunction,SMDPad,CuDef*%
%ADD14R,0.400000X1.350000*%
%TD*%
%TA.AperFunction,ComponentPad*%
%ADD15O,0.890000X1.550000*%
%TD*%
%TA.AperFunction,SMDPad,CuDef*%
%ADD16R,1.200000X1.550000*%
%TD*%
%TA.AperFunction,ComponentPad*%
%ADD17O,1.250000X0.950000*%
%TD*%
%TA.AperFunction,SMDPad,CuDef*%
%ADD18R,1.500000X1.550000*%
%TD*%
%TA.AperFunction,SMDPad,CuDef*%
%ADD19RoundRect,0.250000X-0.350000X-0.450000X0.350000X-0.450000X0.350000X0.450000X-0.350000X0.450000X0*%
%TD*%
%TA.AperFunction,ComponentPad*%
%ADD20RoundRect,0.250000X-0.845000X0.620000X-0.845000X-0.620000X0.845000X-0.620000X0.845000X0.620000X0*%
%TD*%
%TA.AperFunction,ComponentPad*%
%ADD21R,1.625600X1.625600*%
%TD*%
%TA.AperFunction,ComponentPad*%
%ADD22C,1.625600*%
%TD*%
%TA.AperFunction,ComponentPad*%
%ADD23R,1.070000X1.500000*%
%TD*%
%TA.AperFunction,ComponentPad*%
%ADD24O,1.070000X1.500000*%
%TD*%
%TA.AperFunction,SMDPad,CuDef*%
%ADD25RoundRect,0.250000X-0.475000X0.250000X-0.475000X-0.250000X0.475000X-0.250000X0.475000X0.250000X0*%
%TD*%
%TA.AperFunction,SMDPad,CuDef*%
%ADD26R,1.498600X0.889000*%
%TD*%
%TA.AperFunction,SMDPad,CuDef*%
%ADD27R,0.889000X1.498600*%
%TD*%
%TA.AperFunction,SMDPad,CuDef*%
%ADD28R,0.889000X0.889000*%
%TD*%
%TA.AperFunction,ComponentPad*%
%ADD29R,1.600000X1.600000*%
%TD*%
%TA.AperFunction,ComponentPad*%
%ADD30O,1.600000X1.600000*%
%TD*%
%TA.AperFunction,SMDPad,CuDef*%
%ADD31RoundRect,0.250000X-0.250000X-0.475000X0.250000X-0.475000X0.250000X0.475000X-0.250000X0.475000X0*%
%TD*%
%TA.AperFunction,ComponentPad*%
%ADD32RoundRect,0.250000X-0.620000X-0.845000X0.620000X-0.845000X0.620000X0.845000X-0.620000X0.845000X0*%
%TD*%
%TA.AperFunction,ComponentPad*%
%ADD33O,1.740000X2.190000*%
%TD*%
%TA.AperFunction,SMDPad,CuDef*%
%ADD34R,1.550000X1.300000*%
%TD*%
%TA.AperFunction,SMDPad,CuDef*%
%ADD35FreePoly0,90.000000*%
%TD*%
%TA.AperFunction,SMDPad,CuDef*%
%ADD36FreePoly1,90.000000*%
%TD*%
%TA.AperFunction,SMDPad,CuDef*%
%ADD37FreePoly0,270.000000*%
%TD*%
%TA.AperFunction,SMDPad,CuDef*%
%ADD38RoundRect,0.150000X-0.587500X-0.150000X0.587500X-0.150000X0.587500X0.150000X-0.587500X0.150000X0*%
%TD*%
%TA.AperFunction,SMDPad,CuDef*%
%ADD39R,0.700000X1.000000*%
%TD*%
%TA.AperFunction,SMDPad,CuDef*%
%ADD40R,0.700000X0.600000*%
%TD*%
%TA.AperFunction,SMDPad,CuDef*%
%ADD41RoundRect,0.250000X-0.450000X0.262500X-0.450000X-0.262500X0.450000X-0.262500X0.450000X0.262500X0*%
%TD*%
%TA.AperFunction,ViaPad*%
%ADD42C,0.800000*%
%TD*%
%TA.AperFunction,Conductor*%
%ADD43C,0.254000*%
%TD*%
%TA.AperFunction,Conductor*%
%ADD44C,0.508000*%
%TD*%
G04 APERTURE END LIST*
D10*
%TO.P,R9,1*%
%TO.N,+3V3*%
X195389789Y-113187108D03*
%TO.P,R9,2*%
%TO.N,/CHIP_PU*%
X195389789Y-111362108D03*
%TD*%
D11*
%TO.P,BlueTooth1,1,Pin_1*%
%TO.N,Net-(BlueTooth1-Pin_1)*%
X142615398Y-100277915D03*
D12*
%TO.P,BlueTooth1,2,Pin_2*%
%TO.N,GND*%
X142615398Y-97737915D03*
%TD*%
D13*
%TO.P,R4,1*%
%TO.N,/DTR*%
X183805720Y-98968279D03*
%TO.P,R4,2*%
%TO.N,Net-(Q2-B)*%
X185630720Y-98968279D03*
%TD*%
D14*
%TO.P,J1,1,VBUS*%
%TO.N,+5V*%
X185629553Y-84103458D03*
%TO.P,J1,2,D-*%
%TO.N,/D-*%
X184979553Y-84103458D03*
%TO.P,J1,3,D+*%
%TO.N,/D+*%
X184329553Y-84103458D03*
%TO.P,J1,4,ID*%
%TO.N,unconnected-(J1-ID-Pad4)*%
X183679553Y-84103458D03*
%TO.P,J1,5,GND*%
%TO.N,GND*%
X183029553Y-84103458D03*
D15*
%TO.P,J1,6,Shield*%
%TO.N,unconnected-(J1-Shield-Pad6)*%
X187829553Y-81403458D03*
D16*
X187229553Y-81403458D03*
D17*
X186829553Y-84103458D03*
D18*
X185329553Y-81403458D03*
X183329553Y-81403458D03*
D17*
X181829553Y-84103458D03*
D16*
X181429553Y-81403458D03*
D15*
X180829553Y-81403458D03*
%TD*%
D19*
%TO.P,R2,1*%
%TO.N,/GPIO5*%
X147768279Y-97342535D03*
%TO.P,R2,2*%
%TO.N,Net-(BlueTooth1-Pin_1)*%
X149768279Y-97342535D03*
%TD*%
D20*
%TO.P,LED2,1,Pin_1*%
%TO.N,/+*%
X137014557Y-109228516D03*
D12*
%TO.P,LED2,2,Pin_2*%
%TO.N,Net-(LED2-Pin_2)*%
X137014557Y-111768516D03*
%TD*%
D21*
%TO.P,Q4,1,G*%
%TO.N,Net-(Q4-G)*%
X134990157Y-116761054D03*
D22*
%TO.P,Q4,2,D*%
%TO.N,Net-(LED2-Pin_2)*%
X134990157Y-119301054D03*
%TO.P,Q4,3,S*%
%TO.N,GND*%
X134990157Y-121841054D03*
%TD*%
D21*
%TO.P,Q1,1,G*%
%TO.N,Net-(Q1-G)*%
X121797815Y-116457394D03*
D22*
%TO.P,Q1,2,D*%
%TO.N,/-*%
X121797815Y-118997394D03*
%TO.P,Q1,3,S*%
%TO.N,GND*%
X121797815Y-121537394D03*
%TD*%
D23*
%TO.P,U2,1,VI*%
%TO.N,/out+*%
X124959876Y-99619985D03*
D24*
%TO.P,U2,2,GND*%
%TO.N,GND*%
X126229876Y-99619985D03*
%TO.P,U2,3,VO*%
%TO.N,+3V3*%
X127499876Y-99619985D03*
%TD*%
D20*
%TO.P,LED3,1,Pin_1*%
%TO.N,/+*%
X148452419Y-109286497D03*
D12*
%TO.P,LED3,2,Pin_2*%
%TO.N,Net-(LED3-Pin_2)*%
X148452419Y-111826497D03*
%TD*%
D25*
%TO.P,C4,1*%
%TO.N,+3V3*%
X147734090Y-77808016D03*
%TO.P,C4,2*%
%TO.N,GND*%
X147734090Y-79708016D03*
%TD*%
D19*
%TO.P,R11,1*%
%TO.N,/GPIO16*%
X127772904Y-116853758D03*
%TO.P,R11,2*%
%TO.N,Net-(Q4-G)*%
X129772904Y-116853758D03*
%TD*%
D25*
%TO.P,C5,1*%
%TO.N,+3V3*%
X153030094Y-77579309D03*
%TO.P,C5,2*%
%TO.N,GND*%
X153030094Y-79479309D03*
%TD*%
D26*
%TO.P,U1,1,GND*%
%TO.N,GND*%
X159312695Y-86720657D03*
%TO.P,U1,2,3V3*%
%TO.N,+3V3*%
X159312695Y-87990657D03*
%TO.P,U1,3,EN*%
%TO.N,/CHIP_PU*%
X159312695Y-89260657D03*
%TO.P,U1,4,IO4*%
%TO.N,/VBAT_SENSE*%
X159312695Y-90530657D03*
%TO.P,U1,5,IO5*%
%TO.N,/GPIO5*%
X159312695Y-91800657D03*
%TO.P,U1,6,IO6*%
%TO.N,/GPIO6*%
X159312695Y-93070657D03*
%TO.P,U1,7,IO7*%
%TO.N,/GPIO7*%
X159312695Y-94340657D03*
%TO.P,U1,8,IO15*%
%TO.N,/GPIO15*%
X159312695Y-95610657D03*
%TO.P,U1,9,IO16*%
%TO.N,/GPIO16*%
X159312695Y-96880657D03*
%TO.P,U1,10,IO17*%
%TO.N,/GPIO17*%
X159312695Y-98150657D03*
%TO.P,U1,11,IO18*%
%TO.N,/GPIO18*%
X159312695Y-99420657D03*
%TO.P,U1,12,IO8*%
%TO.N,/M1_FAULT*%
X159312695Y-100690657D03*
%TO.P,U1,13,IO19*%
%TO.N,/D-*%
X159312695Y-101960657D03*
%TO.P,U1,14,IO20*%
%TO.N,/D+*%
X159312695Y-103230657D03*
D27*
%TO.P,U1,15,IO3*%
%TO.N,/GPIO3_STRAPPING*%
X161077695Y-104480657D03*
%TO.P,U1,16,IO46*%
%TO.N,/GPIO46_STRAPPING*%
X162347695Y-104480657D03*
%TO.P,U1,17,IO9*%
%TO.N,/M1_EN*%
X163617695Y-104480657D03*
%TO.P,U1,18,IO10*%
%TO.N,/M1_PWM*%
X164887695Y-104480657D03*
%TO.P,U1,19,IO11*%
%TO.N,/M1_DIR*%
X166157695Y-104480657D03*
%TO.P,U1,20,IO12*%
%TO.N,/M2_FAULT*%
X167427695Y-104480657D03*
%TO.P,U1,21,IO13*%
%TO.N,/M2_EN*%
X168697695Y-104480657D03*
%TO.P,U1,22,IO14*%
%TO.N,/M2_PWM*%
X169967695Y-104480657D03*
%TO.P,U1,23,IO21*%
%TO.N,/M2_DIR*%
X171237695Y-104480657D03*
%TO.P,U1,24,IO47*%
%TO.N,/CAMERA_CS*%
X172507695Y-104480657D03*
%TO.P,U1,25,IO48*%
%TO.N,/CAMERA_MOSI*%
X173777695Y-104480657D03*
%TO.P,U1,26,IO45*%
%TO.N,/GPIO45_STRAPPING*%
X175047695Y-104480657D03*
D26*
%TO.P,U1,27,IO0*%
%TO.N,/GPIO0_STRAPPING*%
X176812695Y-103230657D03*
%TO.P,U1,28,IO35*%
%TO.N,/CAMERA_MISO*%
X176812695Y-101960657D03*
%TO.P,U1,29,IO36*%
%TO.N,/CAMERA_SCK*%
X176812695Y-100690657D03*
%TO.P,U1,30,IO37*%
%TO.N,/CAMERA_SDA*%
X176812695Y-99420657D03*
%TO.P,U1,31,IO38*%
%TO.N,/CAMERA_SCL*%
X176812695Y-98150657D03*
%TO.P,U1,32,IO39*%
%TO.N,/MTCK*%
X176812695Y-96880657D03*
%TO.P,U1,33,IO40*%
%TO.N,/MTDO*%
X176812695Y-95610657D03*
%TO.P,U1,34,IO41*%
%TO.N,/MTDI*%
X176812695Y-94340657D03*
%TO.P,U1,35,IO42*%
%TO.N,/MTMS*%
X176812695Y-93070657D03*
%TO.P,U1,36,RXD0*%
%TO.N,/RX*%
X176812695Y-91800657D03*
%TO.P,U1,37,TXD0*%
%TO.N,/TX*%
X176812695Y-90530657D03*
%TO.P,U1,38,IO2*%
%TO.N,/I_M_1*%
X176812695Y-89260657D03*
%TO.P,U1,39,IO1*%
%TO.N,/I_M_2*%
X176812695Y-87990657D03*
%TO.P,U1,40,GND*%
%TO.N,GND*%
X176812695Y-86720657D03*
D28*
%TO.P,U1,41,GND*%
X166812695Y-94440657D03*
%TO.P,U1,42,GND*%
X166812695Y-93040657D03*
%TO.P,U1,43,GND*%
X165412695Y-93040657D03*
%TO.P,U1,44,GND*%
X165412695Y-94440657D03*
%TO.P,U1,45,GND*%
X165412695Y-95840657D03*
%TO.P,U1,46,GND*%
X166812695Y-95840657D03*
%TO.P,U1,47,GND*%
X168212695Y-95840657D03*
%TO.P,U1,48,GND*%
X168212695Y-94440657D03*
%TO.P,U1,49,GND*%
X168212695Y-93040657D03*
%TD*%
D29*
%TO.P,SW1,1*%
%TO.N,/+*%
X121904276Y-91572994D03*
D30*
%TO.P,SW1,2*%
%TO.N,/in+*%
X129524276Y-91572994D03*
%TD*%
D31*
%TO.P,C2,1*%
%TO.N,/CHIP_PU*%
X196144003Y-117592762D03*
%TO.P,C2,2*%
%TO.N,GND*%
X198044003Y-117592762D03*
%TD*%
D32*
%TO.P,+12V1,1,Pin_1*%
%TO.N,/+*%
X118339464Y-83526003D03*
D33*
%TO.P,+12V1,2,Pin_2*%
%TO.N,GND*%
X120879464Y-83526003D03*
%TD*%
D21*
%TO.P,Q5,1,G*%
%TO.N,Net-(Q5-G)*%
X147501475Y-117303843D03*
D22*
%TO.P,Q5,2,D*%
%TO.N,Net-(LED3-Pin_2)*%
X147501475Y-119843843D03*
%TO.P,Q5,3,S*%
%TO.N,GND*%
X147501475Y-122383843D03*
%TD*%
D20*
%TO.P,LED1,1,Pin_1*%
%TO.N,/+*%
X123586035Y-108958596D03*
D12*
%TO.P,LED1,2,Pin_2*%
%TO.N,/-*%
X123586035Y-111498596D03*
%TD*%
D13*
%TO.P,R8,1*%
%TO.N,Net-(Q3-C)*%
X194650092Y-107369540D03*
%TO.P,R8,2*%
%TO.N,/GPIO0_STRAPPING*%
X196475092Y-107369540D03*
%TD*%
D31*
%TO.P,C3,1*%
%TO.N,/GPIO0_STRAPPING*%
X174983053Y-117277855D03*
%TO.P,C3,2*%
%TO.N,GND*%
X176883053Y-117277855D03*
%TD*%
D34*
%TO.P,SW3,1,1*%
%TO.N,GND*%
X164343961Y-116629239D03*
X172293961Y-116629239D03*
%TO.P,SW3,2,2*%
%TO.N,/GPIO0_STRAPPING*%
X164343961Y-121129239D03*
X172293961Y-121129239D03*
%TD*%
D35*
%TO.P,JP1,1,A*%
%TO.N,GND*%
X158315147Y-121489733D03*
D36*
%TO.P,JP1,2,C*%
%TO.N,Net-(JP1-C)*%
X158315147Y-119489733D03*
D37*
%TO.P,JP1,3,B*%
%TO.N,+3V3*%
X158315147Y-117489733D03*
%TD*%
D19*
%TO.P,R12,1*%
%TO.N,/GPIO17*%
X140256706Y-116415138D03*
%TO.P,R12,2*%
%TO.N,Net-(Q5-G)*%
X142256706Y-116415138D03*
%TD*%
D32*
%TO.P,Buck_Converter1,1,Pin_1*%
%TO.N,/in+*%
X134180397Y-82868073D03*
D33*
%TO.P,Buck_Converter1,2,Pin_2*%
%TO.N,GND*%
X136720397Y-82868073D03*
%TO.P,Buck_Converter1,3,Pin_3*%
%TO.N,/out+*%
X139260397Y-82868073D03*
%TO.P,Buck_Converter1,4,Pin_4*%
%TO.N,GND*%
X141800397Y-82868073D03*
%TD*%
D38*
%TO.P,Q3,1,B*%
%TO.N,Net-(Q3-B)*%
X188478711Y-106104290D03*
%TO.P,Q3,2,E*%
%TO.N,/DTR*%
X188478711Y-108004290D03*
%TO.P,Q3,3,C*%
%TO.N,Net-(Q3-C)*%
X190353711Y-107054290D03*
%TD*%
D13*
%TO.P,R5,1*%
%TO.N,/RTS*%
X183060401Y-106104290D03*
%TO.P,R5,2*%
%TO.N,Net-(Q3-B)*%
X184885401Y-106104290D03*
%TD*%
D39*
%TO.P,D1,1,A*%
%TO.N,GND*%
X183045970Y-87816055D03*
D40*
%TO.P,D1,2,K*%
%TO.N,/D+*%
X183045970Y-89516055D03*
%TO.P,D1,3,K*%
%TO.N,/D-*%
X185045970Y-89516055D03*
%TO.P,D1,4,K*%
%TO.N,+5V*%
X185045970Y-87616055D03*
%TD*%
D13*
%TO.P,R7,1*%
%TO.N,Net-(Q2-C)*%
X194346432Y-97298149D03*
%TO.P,R7,2*%
%TO.N,/CHIP_PU*%
X196171432Y-97298149D03*
%TD*%
D34*
%TO.P,SW2,1,1*%
%TO.N,GND*%
X185094064Y-116224359D03*
X193044064Y-116224359D03*
%TO.P,SW2,2,2*%
%TO.N,/CHIP_PU*%
X185094064Y-120724359D03*
X193044064Y-120724359D03*
%TD*%
D13*
%TO.P,R3,1*%
%TO.N,/GPIO46_STRAPPING*%
X163469196Y-111302125D03*
%TO.P,R3,2*%
%TO.N,+3V3*%
X165294196Y-111302125D03*
%TD*%
D38*
%TO.P,Q2,1,B*%
%TO.N,Net-(Q2-B)*%
X188696830Y-98473769D03*
%TO.P,Q2,2,E*%
%TO.N,/RTS*%
X188696830Y-100373769D03*
%TO.P,Q2,3,C*%
%TO.N,Net-(Q2-C)*%
X190571830Y-99423769D03*
%TD*%
D41*
%TO.P,R10,1*%
%TO.N,+3V3*%
X174066106Y-111272134D03*
%TO.P,R10,2*%
%TO.N,/GPIO0_STRAPPING*%
X174066106Y-113097134D03*
%TD*%
D19*
%TO.P,R1,1*%
%TO.N,/GPIO15*%
X114252501Y-116516358D03*
%TO.P,R1,2*%
%TO.N,Net-(Q1-G)*%
X116252501Y-116516358D03*
%TD*%
D13*
%TO.P,R6,1*%
%TO.N,/GPIO3_STRAPPING*%
X152402474Y-122428829D03*
%TO.P,R6,2*%
%TO.N,Net-(JP1-C)*%
X154227474Y-122428829D03*
%TD*%
D42*
%TO.N,GND*%
X203200000Y-101600000D03*
X184104798Y-91875356D03*
%TO.N,/CHIP_PU*%
X189429055Y-93254972D03*
X154834303Y-89206171D03*
%TO.N,/GPIO0_STRAPPING*%
X176535350Y-113723908D03*
X194592549Y-103651916D03*
X181306485Y-102182351D03*
X179144577Y-105131453D03*
%TO.N,/D+*%
X163299295Y-101105146D03*
X180364240Y-98076043D03*
%TO.N,/D-*%
X179599466Y-100445342D03*
X166373384Y-100475333D03*
%TO.N,+3V3*%
X130603956Y-102252306D03*
X155661533Y-104861533D03*
%TO.N,/GPIO15*%
X115780847Y-106953414D03*
X151837666Y-105041480D03*
%TO.N,/GPIO3_STRAPPING*%
X161249854Y-106533538D03*
X152342492Y-120479407D03*
%TO.N,/GPIO16*%
X153659626Y-105986200D03*
X130289049Y-113116588D03*
%TO.N,/GPIO17*%
X142547918Y-113099117D03*
X157775907Y-108195570D03*
%TD*%
D43*
%TO.N,unconnected-(J1-Shield-Pad6)*%
X180829553Y-81403458D02*
X181429553Y-81403458D01*
D44*
%TO.N,/+*%
X137014557Y-109228516D02*
X148394438Y-109228516D01*
X148394438Y-109228516D02*
X148452419Y-109286497D01*
X123586035Y-108958596D02*
X136744637Y-108958596D01*
X121904276Y-91572994D02*
X121904276Y-107276837D01*
X136744637Y-108958596D02*
X137014557Y-109228516D01*
X121904276Y-107276837D02*
X123586035Y-108958596D01*
X118339464Y-88008182D02*
X121904276Y-91572994D01*
X118339464Y-83526003D02*
X118339464Y-88008182D01*
D43*
%TO.N,GND*%
X183029553Y-84578458D02*
X180887354Y-86720657D01*
X183045970Y-87816055D02*
X183722970Y-88493055D01*
X183722970Y-91493528D02*
X184104798Y-91875356D01*
X180887354Y-86720657D02*
X176812695Y-86720657D01*
X203200000Y-101600000D02*
X203200000Y-113044085D01*
X183029553Y-84103458D02*
X183029553Y-84578458D01*
X203200000Y-113044085D02*
X199318625Y-116925460D01*
X198711305Y-116925460D02*
X198044003Y-117592762D01*
X199318625Y-116925460D02*
X198711305Y-116925460D01*
X183722970Y-88493055D02*
X183722970Y-91493528D01*
%TO.N,Net-(BlueTooth1-Pin_1)*%
X149768279Y-97342535D02*
X146832899Y-100277915D01*
X146832899Y-100277915D02*
X142615398Y-100277915D01*
D44*
%TO.N,/in+*%
X134180397Y-86916873D02*
X129524276Y-91572994D01*
X134180397Y-82868073D02*
X134180397Y-86916873D01*
%TO.N,/out+*%
X139260397Y-84471073D02*
X124959876Y-98771594D01*
X139260397Y-82868073D02*
X139260397Y-84471073D01*
X124959876Y-98771594D02*
X124959876Y-99619985D01*
D43*
%TO.N,/CHIP_PU*%
X157857909Y-89260657D02*
X159312695Y-89260657D01*
X193044064Y-120724359D02*
X193044064Y-120692701D01*
X192128255Y-93254972D02*
X189429055Y-93254972D01*
X196643941Y-112616260D02*
X195389789Y-111362108D01*
X185094064Y-120724359D02*
X193044064Y-120724359D01*
X193044064Y-120692701D02*
X196144003Y-117592762D01*
X197314592Y-98441309D02*
X197314592Y-109437305D01*
X156048943Y-87991531D02*
X156588783Y-87991531D01*
X196643941Y-117092824D02*
X196643941Y-112616260D01*
X156588783Y-87991531D02*
X157857909Y-89260657D01*
X196171432Y-97298149D02*
X197314592Y-98441309D01*
X197314592Y-109437305D02*
X195389789Y-111362108D01*
X196171432Y-97298149D02*
X192128255Y-93254972D01*
X154834303Y-89206171D02*
X156048943Y-87991531D01*
X196144003Y-117592762D02*
X196643941Y-117092824D01*
%TO.N,/GPIO0_STRAPPING*%
X196475092Y-107369540D02*
X196475092Y-105534459D01*
X164343961Y-121129239D02*
X172293961Y-121129239D01*
X174983053Y-117277855D02*
X174983053Y-114014081D01*
X179144577Y-105131453D02*
X178713491Y-105131453D01*
X175908576Y-113097134D02*
X176535350Y-113723908D01*
X178713491Y-105131453D02*
X176812695Y-103230657D01*
X174066106Y-113097134D02*
X175908576Y-113097134D01*
X174983053Y-114014081D02*
X174066106Y-113097134D01*
X172293961Y-121129239D02*
X172293961Y-119966947D01*
X181306485Y-102182351D02*
X180258179Y-103230657D01*
X180258179Y-103230657D02*
X176812695Y-103230657D01*
X172293961Y-119966947D02*
X174983053Y-117277855D01*
X196475092Y-105534459D02*
X194592549Y-103651916D01*
%TO.N,/D+*%
X182368970Y-88839055D02*
X182368970Y-86993041D01*
X183045970Y-95394313D02*
X180364240Y-98076043D01*
X161173784Y-103230657D02*
X159312695Y-103230657D01*
X183045970Y-89516055D02*
X182368970Y-88839055D01*
X184329553Y-85032458D02*
X184329553Y-84103458D01*
X182368970Y-86993041D02*
X184329553Y-85032458D01*
X163299295Y-101105146D02*
X161173784Y-103230657D01*
X183045970Y-89516055D02*
X183045970Y-95394313D01*
%TO.N,/D-*%
X185045970Y-94998838D02*
X179599466Y-100445342D01*
X184979553Y-85032458D02*
X184979553Y-84103458D01*
X166373384Y-100475333D02*
X166276197Y-100378146D01*
X185045970Y-89516055D02*
X184368970Y-88839055D01*
X166276197Y-100378146D02*
X161898506Y-100378146D01*
X161898506Y-100378146D02*
X160315995Y-101960657D01*
X160315995Y-101960657D02*
X159312695Y-101960657D01*
X185045970Y-89516055D02*
X185045970Y-94998838D01*
X184368970Y-88839055D02*
X184368970Y-85643041D01*
X184368970Y-85643041D02*
X184979553Y-85032458D01*
%TO.N,+5V*%
X185629553Y-84578458D02*
X185629553Y-84103458D01*
D44*
X185045970Y-87616055D02*
X185633553Y-87028472D01*
X185633553Y-87028472D02*
X185633553Y-84103458D01*
D43*
%TO.N,unconnected-(J1-Shield-Pad6)*%
X180829553Y-83103458D02*
X181829553Y-84103458D01*
X185329553Y-81403458D02*
X187229553Y-81403458D01*
X181429553Y-81403458D02*
X183329553Y-81403458D01*
X180829553Y-81403458D02*
X180829553Y-83103458D01*
X187829553Y-81403458D02*
X187229553Y-81403458D01*
X186829553Y-84103458D02*
X186829553Y-82403458D01*
X183329553Y-81403458D02*
X185329553Y-81403458D01*
X186829553Y-82403458D02*
X187829553Y-81403458D01*
%TO.N,Net-(JP1-C)*%
X156406288Y-120250015D02*
X156406288Y-119684642D01*
X156601197Y-119489733D02*
X158315147Y-119489733D01*
X154227474Y-122428829D02*
X156406288Y-120250015D01*
X156406288Y-119684642D02*
X156601197Y-119489733D01*
%TO.N,+3V3*%
X158759717Y-87990657D02*
X159312695Y-87990657D01*
X130603956Y-102252306D02*
X130132197Y-102252306D01*
X148786090Y-78860016D02*
X148786090Y-80203944D01*
X147734090Y-77808016D02*
X148786090Y-78860016D01*
X174036115Y-111302125D02*
X174066106Y-111272134D01*
X158315147Y-117489733D02*
X155661533Y-114836119D01*
X180741603Y-111272134D02*
X182656577Y-113187108D01*
X153030094Y-77579309D02*
X154082094Y-78631309D01*
X174066106Y-111272134D02*
X180741603Y-111272134D01*
X155661533Y-114836119D02*
X155661533Y-104861533D01*
X129370049Y-99619985D02*
X127499876Y-99619985D01*
X154082094Y-78631309D02*
X154082094Y-83313034D01*
X182656577Y-113187108D02*
X195389789Y-113187108D01*
X152801387Y-77808016D02*
X153030094Y-77579309D01*
X159106588Y-117489733D02*
X158315147Y-117489733D01*
X130132197Y-102252306D02*
X127499876Y-99619985D01*
X148786090Y-80203944D02*
X129370049Y-99619985D01*
X154082094Y-83313034D02*
X158759717Y-87990657D01*
X165294196Y-111302125D02*
X174036115Y-111302125D01*
X147734090Y-77808016D02*
X152801387Y-77808016D01*
X165294196Y-111302125D02*
X159106588Y-117489733D01*
%TO.N,/-*%
X123586035Y-117209174D02*
X121797815Y-118997394D01*
X123586035Y-111498596D02*
X123586035Y-117209174D01*
%TO.N,Net-(LED2-Pin_2)*%
X137014557Y-117276654D02*
X134990157Y-119301054D01*
X137014557Y-111768516D02*
X137014557Y-117276654D01*
%TO.N,Net-(LED3-Pin_2)*%
X148641275Y-118704043D02*
X147501475Y-119843843D01*
X148452419Y-111826497D02*
X148641275Y-112015353D01*
X148641275Y-112015353D02*
X148641275Y-118704043D01*
%TO.N,Net-(Q1-G)*%
X121738851Y-116516358D02*
X121797815Y-116457394D01*
X116252501Y-116516358D02*
X121738851Y-116516358D01*
%TO.N,Net-(Q2-B)*%
X188696830Y-98473769D02*
X186125230Y-98473769D01*
X186125230Y-98473769D02*
X185630720Y-98968279D01*
%TO.N,/RTS*%
X188696830Y-100373769D02*
X183060401Y-106010198D01*
X183060401Y-106010198D02*
X183060401Y-106104290D01*
%TO.N,Net-(Q2-C)*%
X190571830Y-99423769D02*
X192220812Y-99423769D01*
X192220812Y-99423769D02*
X194346432Y-97298149D01*
%TO.N,Net-(Q3-B)*%
X184885401Y-106104290D02*
X188478711Y-106104290D01*
%TO.N,/DTR*%
X183805720Y-98968279D02*
X181318648Y-101455351D01*
X181929772Y-101455351D02*
X182220901Y-101746480D01*
X183424973Y-108004290D02*
X188478711Y-108004290D01*
X181318648Y-101455351D02*
X181929772Y-101455351D01*
X182220901Y-106800218D02*
X183424973Y-108004290D01*
X182220901Y-101746480D02*
X182220901Y-106800218D01*
%TO.N,Net-(Q3-C)*%
X194334842Y-107054290D02*
X194650092Y-107369540D01*
X190353711Y-107054290D02*
X194334842Y-107054290D01*
%TO.N,Net-(Q4-G)*%
X134897453Y-116853758D02*
X134990157Y-116761054D01*
X129772904Y-116853758D02*
X134897453Y-116853758D01*
%TO.N,Net-(Q5-G)*%
X142256706Y-116415138D02*
X146612770Y-116415138D01*
X146612770Y-116415138D02*
X147501475Y-117303843D01*
%TO.N,/GPIO15*%
X151837666Y-105041480D02*
X151837666Y-102507886D01*
X114252501Y-116516358D02*
X114252501Y-108481760D01*
X114252501Y-108481760D02*
X115780847Y-106953414D01*
X151837666Y-102507886D02*
X158734895Y-95610657D01*
X158734895Y-95610657D02*
X159312695Y-95610657D01*
%TO.N,/GPIO5*%
X153310157Y-91800657D02*
X159312695Y-91800657D01*
X147768279Y-97342535D02*
X153310157Y-91800657D01*
%TO.N,/GPIO46_STRAPPING*%
X163469196Y-111302125D02*
X162347695Y-110180624D01*
X162347695Y-110180624D02*
X162347695Y-104480657D01*
%TO.N,/GPIO3_STRAPPING*%
X152402474Y-122428829D02*
X152402474Y-120539389D01*
X161249854Y-106533538D02*
X161249854Y-104652816D01*
X152402474Y-120539389D02*
X152342492Y-120479407D01*
X161249854Y-104652816D02*
X161077695Y-104480657D01*
%TO.N,/GPIO16*%
X127772904Y-115632733D02*
X130289049Y-113116588D01*
X127772904Y-116853758D02*
X127772904Y-115632733D01*
X158309395Y-96880657D02*
X159312695Y-96880657D01*
X153659626Y-101530426D02*
X158309395Y-96880657D01*
X153659626Y-105986200D02*
X153659626Y-101530426D01*
%TO.N,/GPIO17*%
X158309395Y-98150657D02*
X159312695Y-98150657D01*
X140256706Y-116415138D02*
X140256706Y-115390329D01*
X157775907Y-108195570D02*
X157775907Y-98684145D01*
X157775907Y-98684145D02*
X158309395Y-98150657D01*
X140256706Y-115390329D02*
X142547918Y-113099117D01*
%TD*%
%TA.AperFunction,Conductor*%
%TO.N,GND*%
G36*
X184101671Y-89459622D02*
G01*
X184108150Y-89465654D01*
X184159151Y-89516655D01*
X184192636Y-89577978D01*
X184195470Y-89604336D01*
X184195470Y-89863924D01*
X184195471Y-89863931D01*
X184201878Y-89923538D01*
X184252172Y-90058383D01*
X184252173Y-90058384D01*
X184252174Y-90058386D01*
X184338422Y-90173598D01*
X184338425Y-90173602D01*
X184368780Y-90196325D01*
X184410652Y-90252258D01*
X184418470Y-90295592D01*
X184418470Y-94687556D01*
X184398785Y-94754595D01*
X184382151Y-94775237D01*
X183885151Y-95272237D01*
X183823828Y-95305722D01*
X183754136Y-95300738D01*
X183698203Y-95258866D01*
X183673786Y-95193402D01*
X183673470Y-95184556D01*
X183673470Y-90295592D01*
X183693155Y-90228553D01*
X183723160Y-90196325D01*
X183753516Y-90173601D01*
X183839766Y-90058386D01*
X183890061Y-89923538D01*
X183896470Y-89863928D01*
X183896469Y-89553333D01*
X183916153Y-89486296D01*
X183968957Y-89440541D01*
X184038116Y-89430597D01*
X184101671Y-89459622D01*
G37*
%TD.AperFunction*%
%TA.AperFunction,Conductor*%
G36*
X183660804Y-86691140D02*
G01*
X183716737Y-86733012D01*
X183741154Y-86798476D01*
X183741470Y-86807322D01*
X183741470Y-88632145D01*
X183721785Y-88699184D01*
X183668981Y-88744939D01*
X183599823Y-88754883D01*
X183574137Y-88748327D01*
X183503452Y-88721963D01*
X183503453Y-88721963D01*
X183443853Y-88715556D01*
X183443851Y-88715555D01*
X183443843Y-88715555D01*
X183443835Y-88715555D01*
X183184251Y-88715555D01*
X183117212Y-88695870D01*
X183096570Y-88679236D01*
X183032789Y-88615455D01*
X182999304Y-88554132D01*
X182996470Y-88527774D01*
X182996470Y-87304322D01*
X183016155Y-87237283D01*
X183032789Y-87216641D01*
X183529789Y-86719641D01*
X183591112Y-86686156D01*
X183660804Y-86691140D01*
G37*
%TD.AperFunction*%
%TA.AperFunction,Conductor*%
G36*
X182347877Y-82626228D02*
G01*
X182420978Y-82653493D01*
X182472066Y-82672548D01*
X182472069Y-82672549D01*
X182478997Y-82673293D01*
X182531680Y-82678958D01*
X184127425Y-82678957D01*
X184187036Y-82672549D01*
X184286222Y-82635554D01*
X184355911Y-82630571D01*
X184372872Y-82635550D01*
X184472070Y-82672549D01*
X184531680Y-82678958D01*
X186078053Y-82678957D01*
X186145092Y-82698642D01*
X186190847Y-82751445D01*
X186202053Y-82802957D01*
X186202053Y-82854618D01*
X186182368Y-82921657D01*
X186129564Y-82967412D01*
X186060406Y-82977356D01*
X186034720Y-82970800D01*
X185937039Y-82934368D01*
X185937038Y-82934367D01*
X185937036Y-82934367D01*
X185877426Y-82927958D01*
X185877416Y-82927958D01*
X185381682Y-82927958D01*
X185381673Y-82927959D01*
X185317801Y-82934825D01*
X185291295Y-82934825D01*
X185287036Y-82934367D01*
X185227426Y-82927958D01*
X185227417Y-82927958D01*
X184731682Y-82927958D01*
X184731673Y-82927959D01*
X184667801Y-82934825D01*
X184641295Y-82934825D01*
X184637036Y-82934367D01*
X184577426Y-82927958D01*
X184577417Y-82927958D01*
X184081682Y-82927958D01*
X184081673Y-82927959D01*
X184017801Y-82934825D01*
X183991295Y-82934825D01*
X183987036Y-82934367D01*
X183927426Y-82927958D01*
X183927417Y-82927958D01*
X183431682Y-82927958D01*
X183431676Y-82927959D01*
X183372069Y-82934366D01*
X183237224Y-82984660D01*
X183237217Y-82984664D01*
X183122008Y-83070910D01*
X183122005Y-83070913D01*
X183035759Y-83186122D01*
X183035755Y-83186129D01*
X182985461Y-83320975D01*
X182979054Y-83380574D01*
X182979053Y-83380593D01*
X182979053Y-83430033D01*
X182959368Y-83497072D01*
X182906564Y-83542827D01*
X182837406Y-83552771D01*
X182773850Y-83523746D01*
X182757001Y-83505940D01*
X182754932Y-83503268D01*
X182618246Y-83359474D01*
X182618245Y-83359473D01*
X182618242Y-83359471D01*
X182510214Y-83284281D01*
X182455406Y-83246133D01*
X182273088Y-83167895D01*
X182078752Y-83127958D01*
X181792834Y-83127958D01*
X181725795Y-83108273D01*
X181705153Y-83091639D01*
X181504152Y-82890638D01*
X181470667Y-82829315D01*
X181475651Y-82759623D01*
X181517523Y-82703690D01*
X181582987Y-82679273D01*
X181591833Y-82678957D01*
X182077424Y-82678957D01*
X182077425Y-82678957D01*
X182137036Y-82672549D01*
X182261221Y-82626230D01*
X182330910Y-82621246D01*
X182347877Y-82626228D01*
G37*
%TD.AperFunction*%
%TA.AperFunction,Conductor*%
G36*
X204569503Y-75305544D02*
G01*
X204615258Y-75358348D01*
X204626464Y-75409859D01*
X204626464Y-127633887D01*
X204606779Y-127700926D01*
X204553975Y-127746681D01*
X204502464Y-127757887D01*
X110305869Y-127757887D01*
X110238830Y-127738202D01*
X110193075Y-127685398D01*
X110181869Y-127633887D01*
X110181869Y-117016359D01*
X113152001Y-117016359D01*
X113152002Y-117016377D01*
X113162501Y-117119154D01*
X113162502Y-117119157D01*
X113217686Y-117285689D01*
X113217688Y-117285694D01*
X113224366Y-117296521D01*
X113309789Y-117435014D01*
X113433845Y-117559070D01*
X113583167Y-117651172D01*
X113749704Y-117706357D01*
X113852492Y-117716858D01*
X114652509Y-117716857D01*
X114652517Y-117716856D01*
X114652520Y-117716856D01*
X114708803Y-117711106D01*
X114755298Y-117706357D01*
X114921835Y-117651172D01*
X115071157Y-117559070D01*
X115164820Y-117465407D01*
X115226143Y-117431922D01*
X115295835Y-117436906D01*
X115340182Y-117465407D01*
X115433845Y-117559070D01*
X115583167Y-117651172D01*
X115749704Y-117706357D01*
X115852492Y-117716858D01*
X116652509Y-117716857D01*
X116652517Y-117716856D01*
X116652520Y-117716856D01*
X116708803Y-117711106D01*
X116755298Y-117706357D01*
X116921835Y-117651172D01*
X117071157Y-117559070D01*
X117195213Y-117435014D01*
X117287315Y-117285692D01*
X117306149Y-117228853D01*
X117345922Y-117171409D01*
X117410438Y-117144586D01*
X117423855Y-117143858D01*
X120360516Y-117143858D01*
X120427555Y-117163543D01*
X120473310Y-117216347D01*
X120484516Y-117267858D01*
X120484516Y-117318070D01*
X120490923Y-117377677D01*
X120541217Y-117512522D01*
X120541221Y-117512529D01*
X120627467Y-117627738D01*
X120627470Y-117627741D01*
X120742679Y-117713987D01*
X120742686Y-117713991D01*
X120877529Y-117764284D01*
X120877532Y-117764285D01*
X120888511Y-117765465D01*
X120953060Y-117792199D01*
X120992911Y-117849590D01*
X120995408Y-117919415D01*
X120959758Y-117979505D01*
X120954416Y-117983839D01*
X120954569Y-117984021D01*
X120950415Y-117987506D01*
X120787927Y-118149994D01*
X120787922Y-118150000D01*
X120656119Y-118338234D01*
X120656118Y-118338236D01*
X120559003Y-118546501D01*
X120558999Y-118546510D01*
X120499527Y-118768465D01*
X120499525Y-118768476D01*
X120479498Y-118997392D01*
X120479498Y-118997395D01*
X120499525Y-119226311D01*
X120499527Y-119226322D01*
X120558999Y-119448277D01*
X120559001Y-119448281D01*
X120559002Y-119448285D01*
X120636705Y-119614920D01*
X120656119Y-119656553D01*
X120656123Y-119656559D01*
X120778990Y-119832030D01*
X120787926Y-119844792D01*
X120950417Y-120007283D01*
X121138656Y-120139090D01*
X121346924Y-120236207D01*
X121346930Y-120236208D01*
X121346931Y-120236209D01*
X121400354Y-120250523D01*
X121568892Y-120295683D01*
X121732408Y-120309988D01*
X121797813Y-120315711D01*
X121797815Y-120315711D01*
X121797817Y-120315711D01*
X121855045Y-120310704D01*
X122026738Y-120295683D01*
X122248706Y-120236207D01*
X122456974Y-120139090D01*
X122645213Y-120007283D01*
X122807704Y-119844792D01*
X122939511Y-119656553D01*
X123036628Y-119448285D01*
X123096104Y-119226317D01*
X123116132Y-118997394D01*
X123115482Y-118989970D01*
X123105609Y-118877117D01*
X123096104Y-118768471D01*
X123076182Y-118694121D01*
X123077845Y-118624276D01*
X123108274Y-118574352D01*
X123971078Y-117711548D01*
X123983360Y-117701711D01*
X123983179Y-117701492D01*
X123989192Y-117696516D01*
X123989197Y-117696514D01*
X124035419Y-117647290D01*
X124038068Y-117644558D01*
X124057658Y-117624970D01*
X124060131Y-117621780D01*
X124067717Y-117612896D01*
X124097728Y-117580941D01*
X124107424Y-117563302D01*
X124118108Y-117547035D01*
X124130443Y-117531136D01*
X124147854Y-117490899D01*
X124152977Y-117480439D01*
X124174107Y-117442008D01*
X124179113Y-117422508D01*
X124185411Y-117404110D01*
X124193409Y-117385632D01*
X124200267Y-117342325D01*
X124202631Y-117330910D01*
X124213535Y-117288446D01*
X124213535Y-117268315D01*
X124215062Y-117248915D01*
X124215355Y-117247067D01*
X124218210Y-117229041D01*
X124214085Y-117185404D01*
X124213535Y-117173735D01*
X124213535Y-112900696D01*
X124233220Y-112833657D01*
X124286024Y-112787902D01*
X124286460Y-112787704D01*
X124481835Y-112699389D01*
X124481835Y-112699388D01*
X124481837Y-112699388D01*
X124675123Y-112568749D01*
X124843551Y-112407324D01*
X124982275Y-112219757D01*
X125087305Y-112011443D01*
X125155618Y-111788376D01*
X125185251Y-111556972D01*
X125175349Y-111323889D01*
X125126199Y-111095831D01*
X125039214Y-110879361D01*
X124916897Y-110680705D01*
X124762766Y-110505578D01*
X124762764Y-110505576D01*
X124762761Y-110505573D01*
X124722743Y-110473261D01*
X124682950Y-110415831D01*
X124680523Y-110346003D01*
X124716234Y-110285949D01*
X124748250Y-110264397D01*
X124750361Y-110263412D01*
X124750369Y-110263410D01*
X124899691Y-110171308D01*
X125023747Y-110047252D01*
X125115849Y-109897930D01*
X125148932Y-109798091D01*
X125188705Y-109740647D01*
X125253221Y-109713824D01*
X125266638Y-109713096D01*
X135295058Y-109713096D01*
X135362097Y-109732781D01*
X135407852Y-109785585D01*
X135419058Y-109837096D01*
X135419058Y-109898534D01*
X135429557Y-110001312D01*
X135429558Y-110001315D01*
X135484742Y-110167847D01*
X135484744Y-110167852D01*
X135486876Y-110171308D01*
X135576845Y-110317172D01*
X135700901Y-110441228D01*
X135850223Y-110533330D01*
X135850231Y-110533332D01*
X135852486Y-110534384D01*
X135853781Y-110535524D01*
X135856370Y-110537121D01*
X135856097Y-110537563D01*
X135904929Y-110580552D01*
X135924087Y-110647744D01*
X135903877Y-110714627D01*
X135885892Y-110736293D01*
X135757040Y-110859788D01*
X135757039Y-110859789D01*
X135618319Y-111047350D01*
X135513290Y-111255663D01*
X135513287Y-111255669D01*
X135444973Y-111478739D01*
X135415341Y-111710140D01*
X135425242Y-111943216D01*
X135425243Y-111943225D01*
X135474393Y-112171282D01*
X135474394Y-112171285D01*
X135552629Y-112365979D01*
X135561378Y-112387751D01*
X135683695Y-112586407D01*
X135829390Y-112751949D01*
X135837827Y-112761535D01*
X135837830Y-112761538D01*
X136019330Y-112908089D01*
X136019336Y-112908094D01*
X136076014Y-112939756D01*
X136223005Y-113021870D01*
X136304366Y-113050616D01*
X136361018Y-113091508D01*
X136386569Y-113156538D01*
X136387057Y-113167532D01*
X136387057Y-115520788D01*
X136367372Y-115587827D01*
X136314568Y-115633582D01*
X136245410Y-115643526D01*
X136181854Y-115614501D01*
X136163793Y-115595102D01*
X136160504Y-115590709D01*
X136160501Y-115590706D01*
X136045292Y-115504460D01*
X136045285Y-115504456D01*
X135910439Y-115454162D01*
X135910440Y-115454162D01*
X135850840Y-115447755D01*
X135850838Y-115447754D01*
X135850830Y-115447754D01*
X135850821Y-115447754D01*
X134129486Y-115447754D01*
X134129480Y-115447755D01*
X134069873Y-115454162D01*
X133935028Y-115504456D01*
X133935021Y-115504460D01*
X133819812Y-115590706D01*
X133819809Y-115590709D01*
X133733563Y-115705918D01*
X133733559Y-115705925D01*
X133683265Y-115840771D01*
X133676858Y-115900370D01*
X133676857Y-115900389D01*
X133676857Y-116102258D01*
X133657172Y-116169297D01*
X133604368Y-116215052D01*
X133552857Y-116226258D01*
X130944258Y-116226258D01*
X130877219Y-116206573D01*
X130831464Y-116153769D01*
X130826552Y-116141262D01*
X130825570Y-116138299D01*
X130807718Y-116084424D01*
X130715616Y-115935102D01*
X130591560Y-115811046D01*
X130498792Y-115753827D01*
X130442240Y-115718945D01*
X130442235Y-115718943D01*
X130400402Y-115705081D01*
X130275701Y-115663759D01*
X130275699Y-115663758D01*
X130172914Y-115653258D01*
X129372902Y-115653258D01*
X129372884Y-115653259D01*
X129270107Y-115663758D01*
X129270104Y-115663759D01*
X129103572Y-115718943D01*
X129103567Y-115718945D01*
X128954246Y-115811047D01*
X128860585Y-115904709D01*
X128799262Y-115938194D01*
X128729570Y-115933210D01*
X128685223Y-115904709D01*
X128624465Y-115843951D01*
X128590980Y-115782628D01*
X128595964Y-115712936D01*
X128624463Y-115668591D01*
X130239649Y-114053407D01*
X130300972Y-114019922D01*
X130327330Y-114017088D01*
X130383693Y-114017088D01*
X130383695Y-114017088D01*
X130568852Y-113977732D01*
X130741779Y-113900739D01*
X130894920Y-113789476D01*
X131021582Y-113648804D01*
X131116228Y-113484872D01*
X131174723Y-113304844D01*
X131194509Y-113116588D01*
X131174723Y-112928332D01*
X131116228Y-112748304D01*
X131021582Y-112584372D01*
X130894920Y-112443700D01*
X130894919Y-112443699D01*
X130741783Y-112332439D01*
X130741778Y-112332436D01*
X130568856Y-112255445D01*
X130568851Y-112255443D01*
X130423050Y-112224453D01*
X130383695Y-112216088D01*
X130194403Y-112216088D01*
X130161946Y-112222986D01*
X130009246Y-112255443D01*
X130009241Y-112255445D01*
X129836319Y-112332436D01*
X129836314Y-112332439D01*
X129683178Y-112443699D01*
X129556515Y-112584373D01*
X129461870Y-112748303D01*
X129461867Y-112748310D01*
X129403376Y-112928328D01*
X129403375Y-112928332D01*
X129390480Y-113051020D01*
X129386060Y-113093077D01*
X129359475Y-113157691D01*
X129350420Y-113167796D01*
X127387857Y-115130359D01*
X127375573Y-115140202D01*
X127375753Y-115140420D01*
X127369741Y-115145393D01*
X127323550Y-115194580D01*
X127320845Y-115197371D01*
X127301283Y-115216933D01*
X127301279Y-115216938D01*
X127298799Y-115220136D01*
X127291221Y-115229007D01*
X127261212Y-115260963D01*
X127261209Y-115260967D01*
X127251510Y-115278610D01*
X127240832Y-115294866D01*
X127228498Y-115310767D01*
X127228493Y-115310775D01*
X127211089Y-115350995D01*
X127205950Y-115361485D01*
X127184831Y-115399900D01*
X127179824Y-115419401D01*
X127173525Y-115437797D01*
X127169217Y-115447754D01*
X127165529Y-115456277D01*
X127165528Y-115456279D01*
X127158673Y-115499564D01*
X127156305Y-115511000D01*
X127145404Y-115553456D01*
X127145404Y-115573591D01*
X127143877Y-115592990D01*
X127140729Y-115612864D01*
X127140728Y-115612873D01*
X127140902Y-115614708D01*
X127140626Y-115616130D01*
X127140484Y-115620663D01*
X127139752Y-115620640D01*
X127127610Y-115683301D01*
X127082549Y-115731908D01*
X126954251Y-115811043D01*
X126954247Y-115811046D01*
X126830193Y-115935100D01*
X126738091Y-116084421D01*
X126738089Y-116084426D01*
X126719256Y-116141262D01*
X126682905Y-116250961D01*
X126682905Y-116250962D01*
X126682904Y-116250962D01*
X126672404Y-116353741D01*
X126672404Y-117353759D01*
X126672405Y-117353777D01*
X126682904Y-117456554D01*
X126682905Y-117456557D01*
X126738089Y-117623089D01*
X126738091Y-117623094D01*
X126755410Y-117651172D01*
X126830192Y-117772414D01*
X126954248Y-117896470D01*
X127103570Y-117988572D01*
X127270107Y-118043757D01*
X127372895Y-118054258D01*
X128172912Y-118054257D01*
X128172920Y-118054256D01*
X128172923Y-118054256D01*
X128229206Y-118048506D01*
X128275701Y-118043757D01*
X128442238Y-117988572D01*
X128591560Y-117896470D01*
X128685223Y-117802807D01*
X128746546Y-117769322D01*
X128816238Y-117774306D01*
X128860585Y-117802807D01*
X128954248Y-117896470D01*
X129103570Y-117988572D01*
X129270107Y-118043757D01*
X129372895Y-118054258D01*
X130172912Y-118054257D01*
X130172920Y-118054256D01*
X130172923Y-118054256D01*
X130229206Y-118048506D01*
X130275701Y-118043757D01*
X130442238Y-117988572D01*
X130591560Y-117896470D01*
X130715616Y-117772414D01*
X130807718Y-117623092D01*
X130826552Y-117566253D01*
X130866325Y-117508809D01*
X130930841Y-117481986D01*
X130944258Y-117481258D01*
X133552858Y-117481258D01*
X133619897Y-117500943D01*
X133665652Y-117553747D01*
X133676858Y-117605258D01*
X133676858Y-117621730D01*
X133683265Y-117681337D01*
X133733559Y-117816182D01*
X133733563Y-117816189D01*
X133819809Y-117931398D01*
X133819812Y-117931401D01*
X133935021Y-118017647D01*
X133935028Y-118017651D01*
X134033177Y-118054258D01*
X134069874Y-118067945D01*
X134080853Y-118069125D01*
X134145402Y-118095859D01*
X134185253Y-118153250D01*
X134187750Y-118223075D01*
X134152100Y-118283165D01*
X134146758Y-118287499D01*
X134146911Y-118287681D01*
X134142757Y-118291166D01*
X133980269Y-118453654D01*
X133980264Y-118453660D01*
X133848461Y-118641894D01*
X133848460Y-118641896D01*
X133751345Y-118850161D01*
X133751341Y-118850170D01*
X133691869Y-119072125D01*
X133691867Y-119072136D01*
X133671840Y-119301052D01*
X133671840Y-119301055D01*
X133691867Y-119529971D01*
X133691869Y-119529982D01*
X133751341Y-119751937D01*
X133751343Y-119751941D01*
X133751344Y-119751945D01*
X133796747Y-119849312D01*
X133848461Y-119960213D01*
X133848465Y-119960219D01*
X133869385Y-119990096D01*
X133980268Y-120148452D01*
X134142759Y-120310943D01*
X134330998Y-120442750D01*
X134539266Y-120539867D01*
X134761234Y-120599343D01*
X134924750Y-120613648D01*
X134990155Y-120619371D01*
X134990157Y-120619371D01*
X134990159Y-120619371D01*
X135047387Y-120614364D01*
X135219080Y-120599343D01*
X135441048Y-120539867D01*
X135649316Y-120442750D01*
X135837555Y-120310943D01*
X136000046Y-120148452D01*
X136131853Y-119960213D01*
X136228970Y-119751945D01*
X136288446Y-119529977D01*
X136308474Y-119301054D01*
X136288446Y-119072131D01*
X136268524Y-118997781D01*
X136270187Y-118927936D01*
X136300616Y-118878012D01*
X137399600Y-117779028D01*
X137411882Y-117769191D01*
X137411701Y-117768972D01*
X137417714Y-117763996D01*
X137417719Y-117763994D01*
X137463941Y-117714770D01*
X137466590Y-117712038D01*
X137486180Y-117692450D01*
X137488653Y-117689260D01*
X137496239Y-117680376D01*
X137526250Y-117648421D01*
X137535946Y-117630782D01*
X137546630Y-117614515D01*
X137558965Y-117598616D01*
X137576376Y-117558379D01*
X137581499Y-117547919D01*
X137602629Y-117509488D01*
X137607635Y-117489988D01*
X137613933Y-117471590D01*
X137621931Y-117453112D01*
X137628789Y-117409805D01*
X137631153Y-117398390D01*
X137642057Y-117355926D01*
X137642057Y-117335795D01*
X137643584Y-117316395D01*
X137646732Y-117296521D01*
X137642607Y-117252884D01*
X137642057Y-117241215D01*
X137642057Y-113170616D01*
X137661742Y-113103577D01*
X137714546Y-113057822D01*
X137714982Y-113057624D01*
X137910357Y-112969309D01*
X137910357Y-112969308D01*
X137910359Y-112969308D01*
X138103645Y-112838669D01*
X138272073Y-112677244D01*
X138410797Y-112489677D01*
X138515827Y-112281363D01*
X138584140Y-112058296D01*
X138613773Y-111826892D01*
X138603871Y-111593809D01*
X138554721Y-111365751D01*
X138467736Y-111149281D01*
X138345419Y-110950625D01*
X138191288Y-110775498D01*
X138191286Y-110775496D01*
X138191283Y-110775493D01*
X138151265Y-110743181D01*
X138111472Y-110685751D01*
X138109045Y-110615923D01*
X138144756Y-110555869D01*
X138176772Y-110534317D01*
X138178883Y-110533332D01*
X138178891Y-110533330D01*
X138328213Y-110441228D01*
X138452269Y-110317172D01*
X138544371Y-110167850D01*
X138577454Y-110068011D01*
X138617227Y-110010567D01*
X138681743Y-109983744D01*
X138695160Y-109983016D01*
X146752603Y-109983016D01*
X146819642Y-110002701D01*
X146865397Y-110055505D01*
X146870308Y-110068009D01*
X146887900Y-110121099D01*
X146922604Y-110225828D01*
X146922606Y-110225833D01*
X146946434Y-110264464D01*
X147014707Y-110375153D01*
X147138763Y-110499209D01*
X147288085Y-110591311D01*
X147288093Y-110591313D01*
X147290348Y-110592365D01*
X147291643Y-110593505D01*
X147294232Y-110595102D01*
X147293959Y-110595544D01*
X147342791Y-110638533D01*
X147361949Y-110705725D01*
X147341739Y-110772608D01*
X147323754Y-110794274D01*
X147194902Y-110917769D01*
X147194901Y-110917770D01*
X147056181Y-111105331D01*
X146951152Y-111313644D01*
X146951149Y-111313650D01*
X146882835Y-111536720D01*
X146853203Y-111768121D01*
X146863104Y-112001197D01*
X146863105Y-112001206D01*
X146912255Y-112229263D01*
X146912256Y-112229266D01*
X146998423Y-112443699D01*
X146999240Y-112445732D01*
X147121557Y-112644388D01*
X147261789Y-112803723D01*
X147275689Y-112819516D01*
X147275692Y-112819519D01*
X147457192Y-112966070D01*
X147457198Y-112966075D01*
X147660864Y-113079850D01*
X147715396Y-113099117D01*
X147880835Y-113157570D01*
X147910733Y-113162696D01*
X147973478Y-113193426D01*
X148009652Y-113253202D01*
X148013775Y-113284912D01*
X148013775Y-115866543D01*
X147994090Y-115933582D01*
X147941286Y-115979337D01*
X147889775Y-115990543D01*
X147126956Y-115990543D01*
X147059917Y-115970858D01*
X147039272Y-115954221D01*
X147028566Y-115943514D01*
X147025377Y-115941041D01*
X147016486Y-115933448D01*
X146984538Y-115903446D01*
X146984533Y-115903442D01*
X146966892Y-115893744D01*
X146950627Y-115883060D01*
X146943655Y-115877652D01*
X146934732Y-115870730D01*
X146894505Y-115853322D01*
X146884017Y-115848183D01*
X146845608Y-115827067D01*
X146845598Y-115827064D01*
X146826104Y-115822058D01*
X146807703Y-115815758D01*
X146789229Y-115807764D01*
X146789222Y-115807762D01*
X146745943Y-115800908D01*
X146734503Y-115798539D01*
X146692049Y-115787638D01*
X146692042Y-115787638D01*
X146671912Y-115787638D01*
X146652513Y-115786111D01*
X146632638Y-115782963D01*
X146632637Y-115782963D01*
X146589000Y-115787088D01*
X146577331Y-115787638D01*
X143428060Y-115787638D01*
X143361021Y-115767953D01*
X143315266Y-115715149D01*
X143310354Y-115702642D01*
X143291520Y-115645804D01*
X143199418Y-115496482D01*
X143075362Y-115372426D01*
X142959153Y-115300748D01*
X142926042Y-115280325D01*
X142926037Y-115280323D01*
X142892114Y-115269082D01*
X142759503Y-115225139D01*
X142759501Y-115225138D01*
X142656716Y-115214638D01*
X141856704Y-115214638D01*
X141856686Y-115214639D01*
X141753909Y-115225138D01*
X141753906Y-115225139D01*
X141585621Y-115280904D01*
X141515793Y-115283306D01*
X141455751Y-115247574D01*
X141424558Y-115185054D01*
X141432119Y-115115594D01*
X141458933Y-115075520D01*
X142498518Y-114035936D01*
X142559841Y-114002451D01*
X142586199Y-113999617D01*
X142642562Y-113999617D01*
X142642564Y-113999617D01*
X142827721Y-113960261D01*
X143000648Y-113883268D01*
X143153789Y-113772005D01*
X143280451Y-113631333D01*
X143375097Y-113467401D01*
X143433592Y-113287373D01*
X143453378Y-113099117D01*
X143433592Y-112910861D01*
X143375097Y-112730833D01*
X143280451Y-112566901D01*
X143153789Y-112426229D01*
X143132458Y-112410731D01*
X143000652Y-112314968D01*
X143000647Y-112314965D01*
X142827725Y-112237974D01*
X142827720Y-112237972D01*
X142681919Y-112206982D01*
X142642564Y-112198617D01*
X142453272Y-112198617D01*
X142420815Y-112205515D01*
X142268115Y-112237972D01*
X142268110Y-112237974D01*
X142095188Y-112314965D01*
X142095183Y-112314968D01*
X141942047Y-112426228D01*
X141815384Y-112566902D01*
X141720739Y-112730832D01*
X141720736Y-112730839D01*
X141663143Y-112908094D01*
X141662244Y-112910861D01*
X141650007Y-113027289D01*
X141644929Y-113075606D01*
X141618344Y-113140220D01*
X141609289Y-113150325D01*
X139871659Y-114887955D01*
X139859375Y-114897798D01*
X139859555Y-114898016D01*
X139853543Y-114902989D01*
X139807352Y-114952176D01*
X139804647Y-114954967D01*
X139785085Y-114974529D01*
X139785081Y-114974534D01*
X139782601Y-114977732D01*
X139775023Y-114986603D01*
X139745014Y-115018559D01*
X139745011Y-115018563D01*
X139735312Y-115036206D01*
X139724634Y-115052462D01*
X139712300Y-115068363D01*
X139712295Y-115068371D01*
X139694891Y-115108591D01*
X139689752Y-115119081D01*
X139668633Y-115157496D01*
X139663626Y-115176997D01*
X139657326Y-115195396D01*
X139649332Y-115213871D01*
X139647675Y-115217700D01*
X139602983Y-115271407D01*
X139589415Y-115279064D01*
X139587372Y-115280323D01*
X139587372Y-115280324D01*
X139577306Y-115286533D01*
X139438048Y-115372427D01*
X139313995Y-115496480D01*
X139221893Y-115645801D01*
X139221891Y-115645806D01*
X139201972Y-115705918D01*
X139166707Y-115812341D01*
X139166707Y-115812342D01*
X139166706Y-115812342D01*
X139156206Y-115915121D01*
X139156206Y-116915139D01*
X139156207Y-116915157D01*
X139166706Y-117017934D01*
X139166707Y-117017937D01*
X139221891Y-117184469D01*
X139221893Y-117184474D01*
X139243936Y-117220212D01*
X139313994Y-117333794D01*
X139438050Y-117457850D01*
X139587372Y-117549952D01*
X139753909Y-117605137D01*
X139856697Y-117615638D01*
X140656714Y-117615637D01*
X140656722Y-117615636D01*
X140656725Y-117615636D01*
X140758318Y-117605258D01*
X140759503Y-117605137D01*
X140926040Y-117549952D01*
X141075362Y-117457850D01*
X141169025Y-117364187D01*
X141230348Y-117330702D01*
X141300040Y-117335686D01*
X141344387Y-117364187D01*
X141438050Y-117457850D01*
X141587372Y-117549952D01*
X141753909Y-117605137D01*
X141856697Y-117615638D01*
X142656714Y-117615637D01*
X142656722Y-117615636D01*
X142656725Y-117615636D01*
X142758318Y-117605258D01*
X142759503Y-117605137D01*
X142926040Y-117549952D01*
X143075362Y-117457850D01*
X143199418Y-117333794D01*
X143291520Y-117184472D01*
X143310354Y-117127633D01*
X143350127Y-117070189D01*
X143414643Y-117043366D01*
X143428060Y-117042638D01*
X146064175Y-117042638D01*
X146131214Y-117062323D01*
X146176969Y-117115127D01*
X146188175Y-117166638D01*
X146188175Y-118164513D01*
X146188176Y-118164519D01*
X146194583Y-118224126D01*
X146244877Y-118358971D01*
X146244881Y-118358978D01*
X146331127Y-118474187D01*
X146331130Y-118474190D01*
X146446339Y-118560436D01*
X146446346Y-118560440D01*
X146483641Y-118574350D01*
X146581192Y-118610734D01*
X146592171Y-118611914D01*
X146656720Y-118638648D01*
X146696571Y-118696039D01*
X146699068Y-118765864D01*
X146663418Y-118825954D01*
X146658076Y-118830288D01*
X146658229Y-118830470D01*
X146654075Y-118833955D01*
X146491587Y-118996443D01*
X146491582Y-118996449D01*
X146359779Y-119184683D01*
X146359778Y-119184685D01*
X146262663Y-119392950D01*
X146262659Y-119392959D01*
X146203187Y-119614914D01*
X146203185Y-119614925D01*
X146183158Y-119843841D01*
X146183158Y-119843844D01*
X146203185Y-120072760D01*
X146203187Y-120072771D01*
X146262659Y-120294726D01*
X146262661Y-120294730D01*
X146262662Y-120294734D01*
X146359779Y-120503002D01*
X146491586Y-120691241D01*
X146654077Y-120853732D01*
X146842316Y-120985539D01*
X147050584Y-121082656D01*
X147272552Y-121142132D01*
X147436068Y-121156437D01*
X147501473Y-121162160D01*
X147501475Y-121162160D01*
X147501477Y-121162160D01*
X147559026Y-121157125D01*
X147730398Y-121142132D01*
X147952366Y-121082656D01*
X148160634Y-120985539D01*
X148348873Y-120853732D01*
X148511364Y-120691241D01*
X148643171Y-120503002D01*
X148740288Y-120294734D01*
X148799764Y-120072766D01*
X148819792Y-119843843D01*
X148818911Y-119833778D01*
X148806831Y-119695699D01*
X148799764Y-119614920D01*
X148779842Y-119540570D01*
X148781505Y-119470725D01*
X148811934Y-119420801D01*
X149026318Y-119206417D01*
X149038600Y-119196580D01*
X149038419Y-119196361D01*
X149044432Y-119191385D01*
X149044437Y-119191383D01*
X149090658Y-119142160D01*
X149093307Y-119139428D01*
X149112899Y-119119838D01*
X149115376Y-119116643D01*
X149122954Y-119107770D01*
X149152968Y-119075810D01*
X149154991Y-119072131D01*
X149162661Y-119058177D01*
X149173347Y-119041906D01*
X149185683Y-119026005D01*
X149203086Y-118985785D01*
X149208226Y-118975294D01*
X149229346Y-118936878D01*
X149229347Y-118936877D01*
X149234353Y-118917377D01*
X149240651Y-118898979D01*
X149248649Y-118880501D01*
X149255507Y-118837194D01*
X149257871Y-118825779D01*
X149268775Y-118783315D01*
X149268775Y-118763184D01*
X149270302Y-118743784D01*
X149271181Y-118738233D01*
X149273450Y-118723910D01*
X149269325Y-118680273D01*
X149268775Y-118668604D01*
X149268775Y-113143229D01*
X149288460Y-113076190D01*
X149341264Y-113030435D01*
X149341632Y-113030267D01*
X149348221Y-113027289D01*
X149541507Y-112896650D01*
X149709935Y-112735225D01*
X149848659Y-112547658D01*
X149953689Y-112339344D01*
X150022002Y-112116277D01*
X150051635Y-111884873D01*
X150041733Y-111651790D01*
X149992583Y-111423732D01*
X149905598Y-111207262D01*
X149783281Y-111008606D01*
X149629150Y-110833479D01*
X149629148Y-110833477D01*
X149629145Y-110833474D01*
X149589127Y-110801162D01*
X149549334Y-110743732D01*
X149546907Y-110673904D01*
X149582618Y-110613850D01*
X149614634Y-110592298D01*
X149616745Y-110591313D01*
X149616753Y-110591311D01*
X149766075Y-110499209D01*
X149890131Y-110375153D01*
X149982233Y-110225831D01*
X150037418Y-110059294D01*
X150047919Y-109956506D01*
X150047918Y-108616489D01*
X150037418Y-108513700D01*
X149982233Y-108347163D01*
X149890131Y-108197841D01*
X149766075Y-108073785D01*
X149616753Y-107981683D01*
X149450216Y-107926498D01*
X149450214Y-107926497D01*
X149347429Y-107915997D01*
X147557417Y-107915997D01*
X147557400Y-107915998D01*
X147454622Y-107926497D01*
X147454619Y-107926498D01*
X147288087Y-107981682D01*
X147288082Y-107981684D01*
X147138761Y-108073786D01*
X147014708Y-108197839D01*
X146922606Y-108347160D01*
X146922605Y-108347163D01*
X146908735Y-108389021D01*
X146868962Y-108446465D01*
X146804446Y-108473288D01*
X146791029Y-108474016D01*
X138695160Y-108474016D01*
X138628121Y-108454331D01*
X138582366Y-108401527D01*
X138577454Y-108389020D01*
X138575733Y-108383826D01*
X138544371Y-108289182D01*
X138452269Y-108139860D01*
X138328213Y-108015804D01*
X138183424Y-107926498D01*
X138178893Y-107923703D01*
X138178888Y-107923701D01*
X138142825Y-107911751D01*
X138012354Y-107868517D01*
X138012352Y-107868516D01*
X137909567Y-107858016D01*
X136119555Y-107858016D01*
X136119538Y-107858017D01*
X136016760Y-107868516D01*
X136016757Y-107868517D01*
X135850225Y-107923701D01*
X135850220Y-107923703D01*
X135700899Y-108015805D01*
X135576845Y-108139859D01*
X135576842Y-108139863D01*
X135573555Y-108145193D01*
X135521607Y-108191918D01*
X135468017Y-108204096D01*
X125266638Y-108204096D01*
X125199599Y-108184411D01*
X125153844Y-108131607D01*
X125148932Y-108119100D01*
X125133916Y-108073785D01*
X125115849Y-108019262D01*
X125023747Y-107869940D01*
X124899691Y-107745884D01*
X124796574Y-107682281D01*
X124750371Y-107653783D01*
X124750366Y-107653781D01*
X124748897Y-107653294D01*
X124583832Y-107598597D01*
X124583830Y-107598596D01*
X124481051Y-107588096D01*
X124481044Y-107588096D01*
X123333921Y-107588096D01*
X123266882Y-107568411D01*
X123246240Y-107551777D01*
X122695095Y-107000632D01*
X122661610Y-106939309D01*
X122658776Y-106912951D01*
X122658776Y-100417855D01*
X123924376Y-100417855D01*
X123924377Y-100417861D01*
X123930784Y-100477468D01*
X123981078Y-100612313D01*
X123981082Y-100612320D01*
X124067328Y-100727529D01*
X124067331Y-100727532D01*
X124182540Y-100813778D01*
X124182547Y-100813782D01*
X124317393Y-100864076D01*
X124317392Y-100864076D01*
X124324320Y-100864820D01*
X124377003Y-100870485D01*
X125542748Y-100870484D01*
X125602359Y-100864076D01*
X125737207Y-100813781D01*
X125852422Y-100727531D01*
X125938672Y-100612316D01*
X125988967Y-100477468D01*
X125995376Y-100417858D01*
X125995376Y-99885853D01*
X126464376Y-99885853D01*
X126467053Y-99913029D01*
X126479358Y-100037976D01*
X126538571Y-100233175D01*
X126634720Y-100413055D01*
X126634722Y-100413057D01*
X126634724Y-100413061D01*
X126680509Y-100468851D01*
X126764123Y-100570737D01*
X126831380Y-100625932D01*
X126921800Y-100700137D01*
X126921803Y-100700139D01*
X126921805Y-100700140D01*
X127101685Y-100796289D01*
X127101687Y-100796289D01*
X127101690Y-100796291D01*
X127296883Y-100855502D01*
X127499876Y-100875495D01*
X127702869Y-100855502D01*
X127743079Y-100843303D01*
X127812943Y-100842679D01*
X127866755Y-100874283D01*
X129629821Y-102637349D01*
X129639668Y-102649639D01*
X129639886Y-102649460D01*
X129644854Y-102655465D01*
X129694043Y-102701657D01*
X129696840Y-102704368D01*
X129716404Y-102723932D01*
X129719582Y-102726396D01*
X129728476Y-102733991D01*
X129733047Y-102738284D01*
X129760432Y-102764001D01*
X129760434Y-102764002D01*
X129778065Y-102773694D01*
X129794334Y-102784380D01*
X129810234Y-102796713D01*
X129810235Y-102796714D01*
X129850459Y-102814121D01*
X129860951Y-102819261D01*
X129899358Y-102840376D01*
X129906615Y-102843249D01*
X129905363Y-102846410D01*
X129952110Y-102874158D01*
X129953489Y-102875665D01*
X129998085Y-102925194D01*
X130151221Y-103036454D01*
X130151226Y-103036457D01*
X130324148Y-103113448D01*
X130324153Y-103113450D01*
X130509310Y-103152806D01*
X130509311Y-103152806D01*
X130698600Y-103152806D01*
X130698602Y-103152806D01*
X130883759Y-103113450D01*
X131056686Y-103036457D01*
X131209827Y-102925194D01*
X131336489Y-102784522D01*
X131431135Y-102620590D01*
X131489630Y-102440562D01*
X131509416Y-102252306D01*
X131489630Y-102064050D01*
X131431135Y-101884022D01*
X131336489Y-101720090D01*
X131209827Y-101579418D01*
X131209826Y-101579417D01*
X131056690Y-101468157D01*
X131056685Y-101468154D01*
X130883763Y-101391163D01*
X130883758Y-101391161D01*
X130731610Y-101358822D01*
X130698602Y-101351806D01*
X130509310Y-101351806D01*
X130476853Y-101358704D01*
X130324153Y-101391161D01*
X130324151Y-101391162D01*
X130287367Y-101407540D01*
X130218117Y-101416824D01*
X130154841Y-101387196D01*
X130149251Y-101381941D01*
X129228538Y-100461228D01*
X129195053Y-100399905D01*
X129200037Y-100330213D01*
X129241909Y-100274280D01*
X129307373Y-100249863D01*
X129312303Y-100249609D01*
X129371861Y-100247737D01*
X129377969Y-100247546D01*
X129381862Y-100247485D01*
X129409521Y-100247485D01*
X129409525Y-100247485D01*
X129413523Y-100246979D01*
X129425163Y-100246062D01*
X129468992Y-100244686D01*
X129488321Y-100239069D01*
X129507377Y-100235122D01*
X129527342Y-100232601D01*
X129568104Y-100216461D01*
X129579141Y-100212683D01*
X129621240Y-100200453D01*
X129638564Y-100190206D01*
X129656032Y-100181648D01*
X129674752Y-100174238D01*
X129710226Y-100148463D01*
X129719964Y-100142066D01*
X129757705Y-100119748D01*
X129771946Y-100105505D01*
X129786727Y-100092882D01*
X129803016Y-100081048D01*
X129830953Y-100047275D01*
X129838805Y-100038646D01*
X149171133Y-80706318D01*
X149183415Y-80696481D01*
X149183234Y-80696262D01*
X149189247Y-80691286D01*
X149189252Y-80691284D01*
X149235473Y-80642061D01*
X149238122Y-80639329D01*
X149257714Y-80619739D01*
X149260191Y-80616544D01*
X149267769Y-80607671D01*
X149297783Y-80575711D01*
X149307478Y-80558074D01*
X149318162Y-80541807D01*
X149330498Y-80525906D01*
X149347901Y-80485686D01*
X149353041Y-80475195D01*
X149374161Y-80436779D01*
X149374162Y-80436778D01*
X149379168Y-80417278D01*
X149385466Y-80398880D01*
X149393464Y-80380402D01*
X149400322Y-80337095D01*
X149402686Y-80325680D01*
X149413590Y-80283216D01*
X149413590Y-80263085D01*
X149415117Y-80243685D01*
X149418265Y-80223811D01*
X149414140Y-80180174D01*
X149413590Y-80168505D01*
X149413590Y-78942980D01*
X149415318Y-78927329D01*
X149415036Y-78927303D01*
X149415770Y-78919540D01*
X149413651Y-78852097D01*
X149413590Y-78848203D01*
X149413590Y-78820546D01*
X149413590Y-78820540D01*
X149413083Y-78816535D01*
X149412167Y-78804887D01*
X149411951Y-78798014D01*
X149410791Y-78761074D01*
X149405172Y-78741734D01*
X149401229Y-78722701D01*
X149398706Y-78702723D01*
X149382571Y-78661971D01*
X149378788Y-78650923D01*
X149366558Y-78608825D01*
X149366553Y-78608817D01*
X149366532Y-78608767D01*
X149366525Y-78608714D01*
X149364381Y-78601333D01*
X149365571Y-78600987D01*
X149357971Y-78539424D01*
X149388258Y-78476460D01*
X149447778Y-78439866D01*
X149480332Y-78435516D01*
X152073151Y-78435516D01*
X152138247Y-78453977D01*
X152235753Y-78514119D01*
X152235754Y-78514119D01*
X152235760Y-78514123D01*
X152402297Y-78569308D01*
X152505085Y-78579809D01*
X153091812Y-78579808D01*
X153158851Y-78599492D01*
X153179493Y-78616127D01*
X153418275Y-78854909D01*
X153451760Y-78916232D01*
X153454594Y-78942590D01*
X153454594Y-83230066D01*
X153452866Y-83245715D01*
X153453148Y-83245742D01*
X153452413Y-83253509D01*
X153454533Y-83320951D01*
X153454594Y-83324845D01*
X153454594Y-83352510D01*
X153455100Y-83356519D01*
X153456015Y-83368150D01*
X153457392Y-83411976D01*
X153463010Y-83431309D01*
X153466956Y-83450363D01*
X153469477Y-83470321D01*
X153469480Y-83470333D01*
X153485613Y-83511082D01*
X153489396Y-83522132D01*
X153501624Y-83564221D01*
X153501624Y-83564222D01*
X153511871Y-83581549D01*
X153520429Y-83599019D01*
X153527839Y-83617735D01*
X153553605Y-83653198D01*
X153560019Y-83662963D01*
X153582328Y-83700686D01*
X153582334Y-83700694D01*
X153596563Y-83714922D01*
X153609200Y-83729718D01*
X153621031Y-83746001D01*
X153654811Y-83773946D01*
X153663440Y-83781799D01*
X158026576Y-88144935D01*
X158060061Y-88206258D01*
X158062895Y-88232616D01*
X158062895Y-88278862D01*
X158043210Y-88345901D01*
X157990406Y-88391656D01*
X157921248Y-88401600D01*
X157857692Y-88372575D01*
X157851214Y-88366543D01*
X157091159Y-87606488D01*
X157081314Y-87594199D01*
X157081096Y-87594380D01*
X157076123Y-87588369D01*
X157026936Y-87542179D01*
X157024137Y-87539466D01*
X157004580Y-87519908D01*
X157001390Y-87517434D01*
X156992499Y-87509841D01*
X156960551Y-87479839D01*
X156960546Y-87479835D01*
X156942905Y-87470137D01*
X156926640Y-87459453D01*
X156910746Y-87447124D01*
X156910745Y-87447123D01*
X156879052Y-87433408D01*
X156870518Y-87429715D01*
X156860030Y-87424576D01*
X156821621Y-87403460D01*
X156821611Y-87403457D01*
X156802117Y-87398451D01*
X156783716Y-87392151D01*
X156765242Y-87384157D01*
X156765235Y-87384155D01*
X156721956Y-87377301D01*
X156710516Y-87374932D01*
X156668062Y-87364031D01*
X156668055Y-87364031D01*
X156647925Y-87364031D01*
X156628526Y-87362504D01*
X156608651Y-87359356D01*
X156608650Y-87359356D01*
X156565013Y-87363481D01*
X156553344Y-87364031D01*
X156131908Y-87364031D01*
X156116257Y-87362303D01*
X156116231Y-87362585D01*
X156108468Y-87361850D01*
X156041038Y-87363970D01*
X156037143Y-87364031D01*
X156009462Y-87364031D01*
X156005444Y-87364538D01*
X155993817Y-87365453D01*
X155950001Y-87366830D01*
X155949997Y-87366831D01*
X155930665Y-87372447D01*
X155911625Y-87376390D01*
X155891655Y-87378913D01*
X155891651Y-87378914D01*
X155859303Y-87391721D01*
X155854930Y-87393453D01*
X155850896Y-87395050D01*
X155839848Y-87398832D01*
X155797755Y-87411061D01*
X155797748Y-87411064D01*
X155780423Y-87421310D01*
X155762953Y-87429868D01*
X155744241Y-87437276D01*
X155708769Y-87463047D01*
X155699009Y-87469458D01*
X155661289Y-87491765D01*
X155647049Y-87506005D01*
X155632263Y-87518633D01*
X155615976Y-87530467D01*
X155588033Y-87564243D01*
X155580172Y-87572881D01*
X154883703Y-88269352D01*
X154822380Y-88302837D01*
X154796022Y-88305671D01*
X154739657Y-88305671D01*
X154707200Y-88312569D01*
X154554500Y-88345026D01*
X154554495Y-88345028D01*
X154381573Y-88422019D01*
X154381568Y-88422022D01*
X154228432Y-88533282D01*
X154101769Y-88673956D01*
X154007124Y-88837886D01*
X154007121Y-88837893D01*
X153948630Y-89017911D01*
X153948629Y-89017915D01*
X153928843Y-89206171D01*
X153948629Y-89394427D01*
X153948630Y-89394430D01*
X154007121Y-89574448D01*
X154007124Y-89574455D01*
X154101770Y-89738387D01*
X154214800Y-89863919D01*
X154228432Y-89879059D01*
X154381568Y-89990319D01*
X154381573Y-89990322D01*
X154554495Y-90067313D01*
X154554500Y-90067315D01*
X154739657Y-90106671D01*
X154739658Y-90106671D01*
X154928947Y-90106671D01*
X154928949Y-90106671D01*
X155114106Y-90067315D01*
X155287033Y-89990322D01*
X155440174Y-89879059D01*
X155566836Y-89738387D01*
X155661482Y-89574455D01*
X155719977Y-89394427D01*
X155737292Y-89229676D01*
X155763875Y-89165065D01*
X155772921Y-89154970D01*
X156231185Y-88696707D01*
X156292504Y-88663225D01*
X156362196Y-88668209D01*
X156406543Y-88696710D01*
X157355533Y-89645700D01*
X157365380Y-89657990D01*
X157365598Y-89657811D01*
X157370566Y-89663816D01*
X157419755Y-89710008D01*
X157422552Y-89712719D01*
X157442116Y-89732283D01*
X157445294Y-89734747D01*
X157454190Y-89742344D01*
X157486144Y-89772352D01*
X157486146Y-89772353D01*
X157503776Y-89782044D01*
X157520044Y-89792729D01*
X157535947Y-89805065D01*
X157535949Y-89805066D01*
X157535951Y-89805067D01*
X157553443Y-89812636D01*
X157576169Y-89822470D01*
X157586658Y-89827608D01*
X157625075Y-89848729D01*
X157644576Y-89853736D01*
X157662970Y-89860033D01*
X157681450Y-89868030D01*
X157724750Y-89874887D01*
X157736157Y-89877249D01*
X157778637Y-89888157D01*
X157798768Y-89888157D01*
X157818165Y-89889683D01*
X157838042Y-89892832D01*
X157878117Y-89889043D01*
X157881679Y-89888707D01*
X157893348Y-89888157D01*
X157940990Y-89888157D01*
X158008029Y-89907842D01*
X158053784Y-89960646D01*
X158064279Y-90025414D01*
X158062895Y-90038278D01*
X158062895Y-91023027D01*
X158062896Y-91023031D01*
X158064280Y-91035903D01*
X158051874Y-91104662D01*
X158004263Y-91155799D01*
X157940990Y-91173157D01*
X153393124Y-91173157D01*
X153377475Y-91171429D01*
X153377449Y-91171711D01*
X153369681Y-91170976D01*
X153302238Y-91173096D01*
X153298344Y-91173157D01*
X153270680Y-91173157D01*
X153266671Y-91173663D01*
X153255041Y-91174578D01*
X153211213Y-91175955D01*
X153191870Y-91181575D01*
X153172826Y-91185519D01*
X153169866Y-91185892D01*
X153152864Y-91188041D01*
X153152860Y-91188042D01*
X153152857Y-91188043D01*
X153112107Y-91204176D01*
X153101063Y-91207957D01*
X153058966Y-91220188D01*
X153058963Y-91220190D01*
X153041637Y-91230436D01*
X153024167Y-91238994D01*
X153005455Y-91246402D01*
X152969983Y-91272173D01*
X152960223Y-91278584D01*
X152922503Y-91300891D01*
X152908263Y-91315131D01*
X152893477Y-91327759D01*
X152877190Y-91339593D01*
X152849247Y-91373369D01*
X152841386Y-91382007D01*
X148117677Y-96105716D01*
X148056354Y-96139201D01*
X148029996Y-96142035D01*
X147368277Y-96142035D01*
X147368259Y-96142036D01*
X147265482Y-96152535D01*
X147265479Y-96152536D01*
X147098947Y-96207720D01*
X147098942Y-96207722D01*
X146949621Y-96299824D01*
X146825568Y-96423877D01*
X146733466Y-96573198D01*
X146733465Y-96573201D01*
X146678280Y-96739738D01*
X146678280Y-96739739D01*
X146678279Y-96739739D01*
X146667779Y-96842518D01*
X146667779Y-97842536D01*
X146667780Y-97842554D01*
X146678279Y-97945331D01*
X146678280Y-97945334D01*
X146721593Y-98076043D01*
X146733465Y-98111869D01*
X146825567Y-98261191D01*
X146949623Y-98385247D01*
X147098945Y-98477349D01*
X147265482Y-98532534D01*
X147368270Y-98543035D01*
X147380992Y-98543034D01*
X147448030Y-98562714D01*
X147493788Y-98615515D01*
X147503736Y-98684673D01*
X147474715Y-98748231D01*
X147468678Y-98754715D01*
X146609299Y-99614096D01*
X146547976Y-99647581D01*
X146521618Y-99650415D01*
X144327218Y-99650415D01*
X144260179Y-99630730D01*
X144214424Y-99577926D01*
X144203860Y-99539017D01*
X144201540Y-99516308D01*
X144200397Y-99505118D01*
X144145212Y-99338581D01*
X144053110Y-99189259D01*
X143929054Y-99065203D01*
X143779732Y-98973101D01*
X143613195Y-98917916D01*
X143613193Y-98917915D01*
X143510408Y-98907415D01*
X141720396Y-98907415D01*
X141720379Y-98907416D01*
X141617601Y-98917915D01*
X141617598Y-98917916D01*
X141451066Y-98973100D01*
X141451061Y-98973102D01*
X141301740Y-99065204D01*
X141177687Y-99189257D01*
X141085585Y-99338578D01*
X141085584Y-99338581D01*
X141030399Y-99505118D01*
X141030399Y-99505119D01*
X141030398Y-99505119D01*
X141019898Y-99607898D01*
X141019898Y-100947916D01*
X141019899Y-100947933D01*
X141030398Y-101050711D01*
X141030399Y-101050714D01*
X141085583Y-101217246D01*
X141085585Y-101217251D01*
X141101245Y-101242640D01*
X141177686Y-101366571D01*
X141301742Y-101490627D01*
X141451064Y-101582729D01*
X141617601Y-101637914D01*
X141720389Y-101648415D01*
X143510406Y-101648414D01*
X143613195Y-101637914D01*
X143779732Y-101582729D01*
X143929054Y-101490627D01*
X144053110Y-101366571D01*
X144145212Y-101217249D01*
X144200397Y-101050712D01*
X144203860Y-101016812D01*
X144230256Y-100952121D01*
X144287436Y-100911970D01*
X144327218Y-100905415D01*
X146749932Y-100905415D01*
X146765580Y-100907142D01*
X146765607Y-100906861D01*
X146773374Y-100907595D01*
X146773375Y-100907594D01*
X146773376Y-100907595D01*
X146840818Y-100905476D01*
X146844712Y-100905415D01*
X146872371Y-100905415D01*
X146872375Y-100905415D01*
X146876373Y-100904909D01*
X146888013Y-100903992D01*
X146931842Y-100902616D01*
X146951171Y-100896999D01*
X146970227Y-100893052D01*
X146990192Y-100890531D01*
X147030954Y-100874391D01*
X147041991Y-100870613D01*
X147084090Y-100858383D01*
X147101414Y-100848136D01*
X147118882Y-100839578D01*
X147137602Y-100832168D01*
X147173076Y-100806393D01*
X147182814Y-100799996D01*
X147220555Y-100777678D01*
X147234796Y-100763435D01*
X147249577Y-100750812D01*
X147265866Y-100738978D01*
X147293803Y-100705205D01*
X147301655Y-100696576D01*
X149418879Y-98579353D01*
X149480202Y-98545868D01*
X149506560Y-98543034D01*
X150168281Y-98543034D01*
X150168287Y-98543034D01*
X150271076Y-98532534D01*
X150437613Y-98477349D01*
X150586935Y-98385247D01*
X150710991Y-98261191D01*
X150803093Y-98111869D01*
X150858278Y-97945332D01*
X150868779Y-97842544D01*
X150868778Y-96842527D01*
X150858278Y-96739738D01*
X150803093Y-96573201D01*
X150710991Y-96423879D01*
X150586935Y-96299823D01*
X150437613Y-96207721D01*
X150271076Y-96152536D01*
X150271074Y-96152535D01*
X150168295Y-96142035D01*
X150168288Y-96142035D01*
X150155559Y-96142035D01*
X150088520Y-96122350D01*
X150042765Y-96069546D01*
X150032821Y-96000388D01*
X150061846Y-95936832D01*
X150067878Y-95930354D01*
X153533757Y-92464476D01*
X153595080Y-92430991D01*
X153621438Y-92428157D01*
X157940990Y-92428157D01*
X158008029Y-92447842D01*
X158053784Y-92500646D01*
X158064279Y-92565414D01*
X158062895Y-92578278D01*
X158062895Y-93563027D01*
X158062896Y-93563033D01*
X158069303Y-93622639D01*
X158084105Y-93662326D01*
X158089088Y-93732018D01*
X158084105Y-93748988D01*
X158069303Y-93788674D01*
X158062896Y-93848273D01*
X158062896Y-93848280D01*
X158062895Y-93848292D01*
X158062895Y-94833027D01*
X158062896Y-94833033D01*
X158069303Y-94892639D01*
X158084105Y-94932326D01*
X158089088Y-95002018D01*
X158084105Y-95018988D01*
X158069303Y-95058674D01*
X158062896Y-95118273D01*
X158062896Y-95118280D01*
X158062895Y-95118292D01*
X158062895Y-95343875D01*
X158043210Y-95410914D01*
X158026576Y-95431556D01*
X151452619Y-102005512D01*
X151440335Y-102015355D01*
X151440515Y-102015573D01*
X151434503Y-102020546D01*
X151388312Y-102069733D01*
X151385607Y-102072524D01*
X151366045Y-102092086D01*
X151366041Y-102092091D01*
X151363561Y-102095289D01*
X151355983Y-102104160D01*
X151325974Y-102136116D01*
X151325971Y-102136120D01*
X151316272Y-102153763D01*
X151305594Y-102170019D01*
X151293260Y-102185920D01*
X151293255Y-102185928D01*
X151275851Y-102226148D01*
X151270712Y-102236638D01*
X151249593Y-102275053D01*
X151244586Y-102294554D01*
X151238287Y-102312950D01*
X151231559Y-102328498D01*
X151230291Y-102331430D01*
X151230290Y-102331432D01*
X151223435Y-102374717D01*
X151221067Y-102386153D01*
X151210166Y-102428609D01*
X151210166Y-102448744D01*
X151208639Y-102468141D01*
X151205491Y-102488019D01*
X151207819Y-102512640D01*
X151209616Y-102531653D01*
X151210166Y-102543323D01*
X151210166Y-104345014D01*
X151190481Y-104412053D01*
X151178316Y-104427986D01*
X151105132Y-104509265D01*
X151010487Y-104673195D01*
X151010484Y-104673202D01*
X150975852Y-104779790D01*
X150951992Y-104853224D01*
X150932206Y-105041480D01*
X150951992Y-105229736D01*
X150951993Y-105229739D01*
X151010484Y-105409757D01*
X151010487Y-105409764D01*
X151105133Y-105573696D01*
X151195225Y-105673753D01*
X151231795Y-105714368D01*
X151384931Y-105825628D01*
X151384936Y-105825631D01*
X151557858Y-105902622D01*
X151557863Y-105902624D01*
X151743020Y-105941980D01*
X151743021Y-105941980D01*
X151932310Y-105941980D01*
X151932312Y-105941980D01*
X152117469Y-105902624D01*
X152290396Y-105825631D01*
X152443537Y-105714368D01*
X152570199Y-105573696D01*
X152664845Y-105409764D01*
X152723340Y-105229736D01*
X152743126Y-105041480D01*
X152723340Y-104853224D01*
X152664845Y-104673196D01*
X152570199Y-104509264D01*
X152497016Y-104427986D01*
X152466786Y-104364995D01*
X152465166Y-104345014D01*
X152465166Y-102819167D01*
X152484851Y-102752128D01*
X152501485Y-102731486D01*
X152820445Y-102412526D01*
X152881768Y-102379041D01*
X152951460Y-102384025D01*
X153007393Y-102425897D01*
X153031810Y-102491361D01*
X153032126Y-102500207D01*
X153032126Y-105289734D01*
X153012441Y-105356773D01*
X153000276Y-105372706D01*
X152927092Y-105453985D01*
X152832447Y-105617915D01*
X152832444Y-105617922D01*
X152773953Y-105797940D01*
X152773952Y-105797944D01*
X152754166Y-105986200D01*
X152773952Y-106174456D01*
X152773953Y-106174459D01*
X152832444Y-106354477D01*
X152832447Y-106354484D01*
X152927093Y-106518416D01*
X153053755Y-106659088D01*
X153206891Y-106770348D01*
X153206896Y-106770351D01*
X153379818Y-106847342D01*
X153379823Y-106847344D01*
X153564980Y-106886700D01*
X153564981Y-106886700D01*
X153754270Y-106886700D01*
X153754272Y-106886700D01*
X153939429Y-106847344D01*
X154112356Y-106770351D01*
X154265497Y-106659088D01*
X154392159Y-106518416D01*
X154486805Y-106354484D01*
X154545300Y-106174456D01*
X154565086Y-105986200D01*
X154545300Y-105797944D01*
X154486805Y-105617916D01*
X154392159Y-105453984D01*
X154318976Y-105372706D01*
X154288746Y-105309715D01*
X154287126Y-105289734D01*
X154287126Y-101841707D01*
X154306811Y-101774668D01*
X154323445Y-101754026D01*
X156936726Y-99140745D01*
X156998049Y-99107260D01*
X157067741Y-99112244D01*
X157123674Y-99154116D01*
X157148091Y-99219580D01*
X157148407Y-99228426D01*
X157148407Y-107499104D01*
X157128722Y-107566143D01*
X157116557Y-107582076D01*
X157043373Y-107663355D01*
X156948728Y-107827285D01*
X156948725Y-107827292D01*
X156890234Y-108007310D01*
X156890233Y-108007314D01*
X156870447Y-108195570D01*
X156890233Y-108383826D01*
X156890234Y-108383829D01*
X156948725Y-108563847D01*
X156948728Y-108563854D01*
X157043374Y-108727786D01*
X157068809Y-108756034D01*
X157170036Y-108868458D01*
X157323172Y-108979718D01*
X157323177Y-108979721D01*
X157496099Y-109056712D01*
X157496104Y-109056714D01*
X157681261Y-109096070D01*
X157681262Y-109096070D01*
X157870551Y-109096070D01*
X157870553Y-109096070D01*
X158055710Y-109056714D01*
X158228637Y-108979721D01*
X158381778Y-108868458D01*
X158508440Y-108727786D01*
X158603086Y-108563854D01*
X158661581Y-108383826D01*
X158681367Y-108195570D01*
X158661581Y-108007314D01*
X158603086Y-107827286D01*
X158508440Y-107663354D01*
X158435257Y-107582076D01*
X158405027Y-107519085D01*
X158403407Y-107499104D01*
X158403407Y-104299656D01*
X158423092Y-104232617D01*
X158475896Y-104186862D01*
X158527402Y-104175656D01*
X160008695Y-104175656D01*
X160075734Y-104195341D01*
X160121489Y-104248145D01*
X160132695Y-104299656D01*
X160132695Y-105277827D01*
X160132696Y-105277833D01*
X160139103Y-105337440D01*
X160189397Y-105472285D01*
X160189401Y-105472292D01*
X160275647Y-105587501D01*
X160275650Y-105587504D01*
X160390859Y-105673750D01*
X160390866Y-105673754D01*
X160532980Y-105726759D01*
X160532054Y-105729240D01*
X160581677Y-105757479D01*
X160614079Y-105819381D01*
X160607872Y-105888974D01*
X160584620Y-105926578D01*
X160517321Y-106001322D01*
X160517319Y-106001323D01*
X160517318Y-106001326D01*
X160422675Y-106165253D01*
X160422672Y-106165260D01*
X160364181Y-106345278D01*
X160364180Y-106345282D01*
X160344394Y-106533538D01*
X160364180Y-106721794D01*
X160364181Y-106721797D01*
X160422672Y-106901815D01*
X160422675Y-106901822D01*
X160517321Y-107065754D01*
X160593309Y-107150147D01*
X160643983Y-107206426D01*
X160797119Y-107317686D01*
X160797124Y-107317689D01*
X160970046Y-107394680D01*
X160970051Y-107394682D01*
X161155208Y-107434038D01*
X161155209Y-107434038D01*
X161344498Y-107434038D01*
X161344500Y-107434038D01*
X161529657Y-107394682D01*
X161536881Y-107391465D01*
X161545757Y-107387514D01*
X161615007Y-107378227D01*
X161678284Y-107407854D01*
X161715499Y-107466989D01*
X161720195Y-107500792D01*
X161720195Y-110097656D01*
X161718467Y-110113305D01*
X161718749Y-110113332D01*
X161718014Y-110121099D01*
X161720134Y-110188541D01*
X161720195Y-110192435D01*
X161720195Y-110220100D01*
X161720701Y-110224109D01*
X161721616Y-110235740D01*
X161722993Y-110279566D01*
X161728611Y-110298899D01*
X161732557Y-110317953D01*
X161735078Y-110337911D01*
X161735081Y-110337923D01*
X161751214Y-110378672D01*
X161754997Y-110389722D01*
X161767225Y-110431811D01*
X161767225Y-110431812D01*
X161777472Y-110449139D01*
X161786030Y-110466609D01*
X161793440Y-110485325D01*
X161819206Y-110520788D01*
X161825620Y-110530553D01*
X161847929Y-110568276D01*
X161847935Y-110568284D01*
X161862164Y-110582512D01*
X161874801Y-110597308D01*
X161886632Y-110613591D01*
X161920412Y-110641536D01*
X161929041Y-110649389D01*
X162419877Y-111140225D01*
X162453362Y-111201548D01*
X162456196Y-111227906D01*
X162456196Y-111802126D01*
X162456197Y-111802144D01*
X162466696Y-111904921D01*
X162466697Y-111904924D01*
X162517519Y-112058292D01*
X162521882Y-112071459D01*
X162613984Y-112220781D01*
X162738040Y-112344837D01*
X162887362Y-112436939D01*
X162985408Y-112469428D01*
X163042853Y-112509201D01*
X163069676Y-112573717D01*
X163057361Y-112642492D01*
X163034085Y-112674815D01*
X159248634Y-116460266D01*
X159187311Y-116493751D01*
X159143307Y-116495323D01*
X159065147Y-116484086D01*
X158248281Y-116484086D01*
X158181242Y-116464401D01*
X158160600Y-116447767D01*
X156325352Y-114612519D01*
X156291867Y-114551196D01*
X156289033Y-114524838D01*
X156289033Y-105557998D01*
X156308718Y-105490959D01*
X156320876Y-105475033D01*
X156394066Y-105393749D01*
X156488712Y-105229817D01*
X156547207Y-105049789D01*
X156566993Y-104861533D01*
X156547207Y-104673277D01*
X156488712Y-104493249D01*
X156394066Y-104329317D01*
X156267404Y-104188645D01*
X156264950Y-104186862D01*
X156114267Y-104077384D01*
X156114262Y-104077381D01*
X155941340Y-104000390D01*
X155941335Y-104000388D01*
X155795534Y-103969398D01*
X155756179Y-103961033D01*
X155566887Y-103961033D01*
X155534430Y-103967931D01*
X155381730Y-104000388D01*
X155381725Y-104000390D01*
X155208803Y-104077381D01*
X155208798Y-104077384D01*
X155055662Y-104188644D01*
X154928999Y-104329318D01*
X154834354Y-104493248D01*
X154834351Y-104493255D01*
X154775885Y-104673196D01*
X154775859Y-104673277D01*
X154756073Y-104861533D01*
X154775859Y-105049789D01*
X154775860Y-105049792D01*
X154834351Y-105229810D01*
X154834354Y-105229817D01*
X154862072Y-105277827D01*
X154929000Y-105393749D01*
X155002184Y-105475027D01*
X155032413Y-105538017D01*
X155034033Y-105557998D01*
X155034033Y-114753151D01*
X155032305Y-114768800D01*
X155032587Y-114768827D01*
X155031852Y-114776594D01*
X155033972Y-114844036D01*
X155034033Y-114847930D01*
X155034033Y-114875595D01*
X155034539Y-114879604D01*
X155035454Y-114891235D01*
X155036831Y-114935061D01*
X155042449Y-114954394D01*
X155046394Y-114973446D01*
X155046532Y-114974533D01*
X155048916Y-114993406D01*
X155048919Y-114993418D01*
X155065052Y-115034167D01*
X155068835Y-115045217D01*
X155081063Y-115087306D01*
X155081063Y-115087307D01*
X155091310Y-115104634D01*
X155099868Y-115122104D01*
X155107278Y-115140820D01*
X155133044Y-115176283D01*
X155139458Y-115186048D01*
X155161767Y-115223771D01*
X155161773Y-115223779D01*
X155176002Y-115238007D01*
X155188639Y-115252803D01*
X155200470Y-115269086D01*
X155234250Y-115297031D01*
X155242879Y-115304884D01*
X157023181Y-117085186D01*
X157056666Y-117146509D01*
X157059500Y-117172867D01*
X157059500Y-117989717D01*
X157059501Y-117989750D01*
X157063507Y-118053269D01*
X157063508Y-118053274D01*
X157076338Y-118099850D01*
X157079528Y-118150426D01*
X157059500Y-118289731D01*
X157059500Y-118738233D01*
X157039815Y-118805272D01*
X156987011Y-118851027D01*
X156935500Y-118862233D01*
X156684164Y-118862233D01*
X156668515Y-118860505D01*
X156668489Y-118860787D01*
X156660721Y-118860052D01*
X156593278Y-118862172D01*
X156589384Y-118862233D01*
X156561720Y-118862233D01*
X156557711Y-118862739D01*
X156546081Y-118863654D01*
X156502253Y-118865031D01*
X156482910Y-118870651D01*
X156463866Y-118874595D01*
X156460906Y-118874968D01*
X156443904Y-118877117D01*
X156443900Y-118877118D01*
X156443897Y-118877119D01*
X156403147Y-118893252D01*
X156392103Y-118897033D01*
X156350006Y-118909264D01*
X156350003Y-118909266D01*
X156332677Y-118919512D01*
X156315207Y-118928070D01*
X156296495Y-118935478D01*
X156261023Y-118961249D01*
X156251263Y-118967660D01*
X156213543Y-118989967D01*
X156199303Y-119004207D01*
X156184517Y-119016835D01*
X156168230Y-119028669D01*
X156140287Y-119062445D01*
X156132426Y-119071083D01*
X156021241Y-119182268D01*
X156008957Y-119192111D01*
X156009137Y-119192329D01*
X156003125Y-119197302D01*
X155956934Y-119246489D01*
X155954229Y-119249280D01*
X155934667Y-119268842D01*
X155934663Y-119268847D01*
X155932183Y-119272045D01*
X155924605Y-119280916D01*
X155894596Y-119312872D01*
X155894593Y-119312876D01*
X155884894Y-119330519D01*
X155874216Y-119346775D01*
X155861882Y-119362676D01*
X155861877Y-119362684D01*
X155844473Y-119402904D01*
X155839334Y-119413394D01*
X155818215Y-119451809D01*
X155813208Y-119471310D01*
X155806909Y-119489706D01*
X155800181Y-119505254D01*
X155798913Y-119508186D01*
X155798912Y-119508188D01*
X155792057Y-119551473D01*
X155789689Y-119562909D01*
X155778788Y-119605365D01*
X155778788Y-119625500D01*
X155777261Y-119644897D01*
X155774113Y-119664775D01*
X155776995Y-119695258D01*
X155778238Y-119708409D01*
X155778788Y-119720079D01*
X155778788Y-119938733D01*
X155759103Y-120005772D01*
X155742469Y-120026414D01*
X154576872Y-121192010D01*
X154515549Y-121225495D01*
X154489191Y-121228329D01*
X153914972Y-121228329D01*
X153914954Y-121228330D01*
X153812177Y-121238829D01*
X153812174Y-121238830D01*
X153645642Y-121294014D01*
X153645637Y-121294016D01*
X153496316Y-121386118D01*
X153402655Y-121479780D01*
X153341332Y-121513265D01*
X153271640Y-121508281D01*
X153227293Y-121479780D01*
X153133629Y-121386116D01*
X153088876Y-121358512D01*
X153042152Y-121306564D01*
X153029974Y-121252974D01*
X153029974Y-121109256D01*
X153049659Y-121042217D01*
X153061818Y-121026290D01*
X153075025Y-121011623D01*
X153169671Y-120847691D01*
X153228166Y-120667663D01*
X153247952Y-120479407D01*
X153228166Y-120291151D01*
X153169671Y-120111123D01*
X153075025Y-119947191D01*
X152948363Y-119806519D01*
X152948362Y-119806518D01*
X152795226Y-119695258D01*
X152795221Y-119695255D01*
X152622299Y-119618264D01*
X152622294Y-119618262D01*
X152476493Y-119587272D01*
X152437138Y-119578907D01*
X152247846Y-119578907D01*
X152215389Y-119585805D01*
X152062689Y-119618262D01*
X152062684Y-119618264D01*
X151889762Y-119695255D01*
X151889757Y-119695258D01*
X151736621Y-119806518D01*
X151609958Y-119947192D01*
X151515313Y-120111122D01*
X151515310Y-120111129D01*
X151456819Y-120291147D01*
X151456818Y-120291151D01*
X151437032Y-120479407D01*
X151456818Y-120667663D01*
X151456819Y-120667666D01*
X151515310Y-120847684D01*
X151515313Y-120847691D01*
X151609959Y-121011623D01*
X151698949Y-121110456D01*
X151740970Y-121157125D01*
X151739318Y-121158611D01*
X151770591Y-121209358D01*
X151774974Y-121242036D01*
X151774974Y-121252974D01*
X151755289Y-121320013D01*
X151716072Y-121358512D01*
X151671318Y-121386116D01*
X151547263Y-121510171D01*
X151455161Y-121659492D01*
X151455160Y-121659495D01*
X151399975Y-121826032D01*
X151399975Y-121826033D01*
X151399974Y-121826033D01*
X151389474Y-121928812D01*
X151389474Y-122928830D01*
X151389475Y-122928848D01*
X151399974Y-123031625D01*
X151399975Y-123031628D01*
X151455159Y-123198160D01*
X151455160Y-123198163D01*
X151547262Y-123347485D01*
X151671318Y-123471541D01*
X151820640Y-123563643D01*
X151987177Y-123618828D01*
X152089965Y-123629329D01*
X152714982Y-123629328D01*
X152714990Y-123629327D01*
X152714993Y-123629327D01*
X152771276Y-123623577D01*
X152817771Y-123618828D01*
X152984308Y-123563643D01*
X153133630Y-123471541D01*
X153227293Y-123377878D01*
X153288616Y-123344393D01*
X153358308Y-123349377D01*
X153402655Y-123377878D01*
X153496318Y-123471541D01*
X153645640Y-123563643D01*
X153812177Y-123618828D01*
X153914965Y-123629329D01*
X154539982Y-123629328D01*
X154539990Y-123629327D01*
X154539993Y-123629327D01*
X154596276Y-123623577D01*
X154642771Y-123618828D01*
X154809308Y-123563643D01*
X154958630Y-123471541D01*
X155082686Y-123347485D01*
X155174788Y-123198163D01*
X155229973Y-123031626D01*
X155240474Y-122928838D01*
X155240473Y-122354608D01*
X155260157Y-122287570D01*
X155276787Y-122266933D01*
X156791331Y-120752389D01*
X156803613Y-120742552D01*
X156803432Y-120742333D01*
X156809445Y-120737357D01*
X156809450Y-120737355D01*
X156851710Y-120692351D01*
X156911949Y-120656958D01*
X156981763Y-120659750D01*
X157038984Y-120699843D01*
X157065446Y-120764508D01*
X157065705Y-120767339D01*
X157065924Y-120770083D01*
X157065927Y-120770096D01*
X157108788Y-120907482D01*
X157108789Y-120907485D01*
X157108790Y-120907486D01*
X157188623Y-121027238D01*
X157298958Y-121119643D01*
X157298957Y-121119643D01*
X157353688Y-121143534D01*
X157430862Y-121177223D01*
X157466557Y-121181744D01*
X157573640Y-121195309D01*
X157573641Y-121195308D01*
X157573643Y-121195309D01*
X157685998Y-121177223D01*
X157715731Y-121172437D01*
X157715733Y-121172436D01*
X157715736Y-121172436D01*
X157845629Y-121110457D01*
X158246365Y-120843299D01*
X158313062Y-120822492D01*
X158380423Y-120841047D01*
X158383929Y-120843300D01*
X158742967Y-121082658D01*
X158784665Y-121110457D01*
X158855094Y-121149686D01*
X158855101Y-121149688D01*
X158993185Y-121190233D01*
X158993186Y-121190233D01*
X159137109Y-121190233D01*
X159137109Y-121190232D01*
X159249865Y-121157125D01*
X159275197Y-121149687D01*
X159275197Y-121149686D01*
X159275200Y-121149686D01*
X159396275Y-121071876D01*
X159490524Y-120963106D01*
X159550312Y-120832190D01*
X159570794Y-120689733D01*
X159570794Y-118289733D01*
X159570793Y-118289730D01*
X159570793Y-118289713D01*
X159564368Y-118209382D01*
X159564367Y-118209380D01*
X159564367Y-118209372D01*
X159555508Y-118180978D01*
X159551144Y-118126403D01*
X159552385Y-118117771D01*
X159570794Y-117989733D01*
X159570794Y-117964307D01*
X159590479Y-117897268D01*
X159607113Y-117876626D01*
X162269868Y-115213871D01*
X164944797Y-112538941D01*
X165006118Y-112505458D01*
X165032467Y-112502624D01*
X165606704Y-112502624D01*
X165606712Y-112502623D01*
X165606715Y-112502623D01*
X165662998Y-112496873D01*
X165709493Y-112492124D01*
X165876030Y-112436939D01*
X166025352Y-112344837D01*
X166149408Y-112220781D01*
X166241510Y-112071459D01*
X166260344Y-112014620D01*
X166300117Y-111957176D01*
X166364633Y-111930353D01*
X166378050Y-111929625D01*
X172908750Y-111929625D01*
X172975789Y-111949310D01*
X173014288Y-111988527D01*
X173023393Y-112003289D01*
X173117057Y-112096953D01*
X173150542Y-112158276D01*
X173145558Y-112227968D01*
X173117057Y-112272315D01*
X173023395Y-112365976D01*
X172931293Y-112515297D01*
X172931291Y-112515302D01*
X172908049Y-112585442D01*
X172876107Y-112681837D01*
X172876107Y-112681838D01*
X172876106Y-112681838D01*
X172865606Y-112784617D01*
X172865606Y-113409635D01*
X172865607Y-113409653D01*
X172876106Y-113512430D01*
X172876107Y-113512433D01*
X172927921Y-113668795D01*
X172931292Y-113678968D01*
X173023394Y-113828290D01*
X173147450Y-113952346D01*
X173296772Y-114044448D01*
X173463309Y-114099633D01*
X173566097Y-114110134D01*
X174140324Y-114110133D01*
X174207363Y-114129817D01*
X174228005Y-114146452D01*
X174319234Y-114237681D01*
X174352719Y-114299004D01*
X174355553Y-114325362D01*
X174355553Y-116084710D01*
X174335868Y-116151749D01*
X174296651Y-116190248D01*
X174264397Y-116210142D01*
X174140342Y-116334197D01*
X174048240Y-116483518D01*
X174048238Y-116483523D01*
X174034477Y-116525051D01*
X173993054Y-116650058D01*
X173993054Y-116650059D01*
X173993053Y-116650059D01*
X173982553Y-116752838D01*
X173982553Y-117339573D01*
X173962868Y-117406612D01*
X173946234Y-117427254D01*
X171908914Y-119464573D01*
X171896630Y-119474416D01*
X171896810Y-119474634D01*
X171890798Y-119479607D01*
X171844607Y-119528794D01*
X171841902Y-119531585D01*
X171822340Y-119551147D01*
X171822336Y-119551152D01*
X171819856Y-119554350D01*
X171812278Y-119563221D01*
X171782269Y-119595177D01*
X171782266Y-119595181D01*
X171772567Y-119612824D01*
X171761889Y-119629080D01*
X171749555Y-119644981D01*
X171749550Y-119644989D01*
X171732146Y-119685209D01*
X171727007Y-119695699D01*
X171705888Y-119734114D01*
X171700881Y-119753615D01*
X171694582Y-119772011D01*
X171687854Y-119787559D01*
X171686586Y-119790491D01*
X171686585Y-119790493D01*
X171679730Y-119833778D01*
X171677361Y-119845217D01*
X171666998Y-119885577D01*
X171631259Y-119945615D01*
X171568735Y-119976800D01*
X171546896Y-119978739D01*
X171471091Y-119978739D01*
X171471084Y-119978740D01*
X171411477Y-119985147D01*
X171276632Y-120035441D01*
X171276625Y-120035445D01*
X171161416Y-120121691D01*
X171161413Y-120121694D01*
X171075167Y-120236903D01*
X171075163Y-120236910D01*
X171024869Y-120371755D01*
X171022801Y-120390996D01*
X170996062Y-120455547D01*
X170938669Y-120495394D01*
X170899512Y-120501739D01*
X165738410Y-120501739D01*
X165671371Y-120482054D01*
X165625616Y-120429250D01*
X165615120Y-120390993D01*
X165613660Y-120377413D01*
X165613052Y-120371756D01*
X165577259Y-120275791D01*
X165562758Y-120236910D01*
X165562754Y-120236903D01*
X165476508Y-120121694D01*
X165476505Y-120121691D01*
X165361296Y-120035445D01*
X165361289Y-120035441D01*
X165226443Y-119985147D01*
X165226444Y-119985147D01*
X165166844Y-119978740D01*
X165166842Y-119978739D01*
X165166834Y-119978739D01*
X165166825Y-119978739D01*
X163521090Y-119978739D01*
X163521084Y-119978740D01*
X163461477Y-119985147D01*
X163326632Y-120035441D01*
X163326625Y-120035445D01*
X163211416Y-120121691D01*
X163211413Y-120121694D01*
X163125167Y-120236903D01*
X163125163Y-120236910D01*
X163074869Y-120371756D01*
X163068462Y-120431355D01*
X163068462Y-120431362D01*
X163068461Y-120431374D01*
X163068461Y-121827109D01*
X163068462Y-121827115D01*
X163074869Y-121886722D01*
X163125163Y-122021567D01*
X163125167Y-122021574D01*
X163211413Y-122136783D01*
X163211416Y-122136786D01*
X163326625Y-122223032D01*
X163326632Y-122223036D01*
X163461478Y-122273330D01*
X163461477Y-122273330D01*
X163468405Y-122274074D01*
X163521088Y-122279739D01*
X165166833Y-122279738D01*
X165226444Y-122273330D01*
X165361292Y-122223035D01*
X165476507Y-122136785D01*
X165562757Y-122021570D01*
X165613052Y-121886722D01*
X165613052Y-121886721D01*
X165615121Y-121867482D01*
X165641860Y-121802931D01*
X165699253Y-121763084D01*
X165738410Y-121756739D01*
X170899512Y-121756739D01*
X170966551Y-121776424D01*
X171012306Y-121829228D01*
X171022802Y-121867485D01*
X171024870Y-121886722D01*
X171075163Y-122021567D01*
X171075167Y-122021574D01*
X171161413Y-122136783D01*
X171161416Y-122136786D01*
X171276625Y-122223032D01*
X171276632Y-122223036D01*
X171411478Y-122273330D01*
X171411477Y-122273330D01*
X171418405Y-122274074D01*
X171471088Y-122279739D01*
X173116833Y-122279738D01*
X173176444Y-122273330D01*
X173311292Y-122223035D01*
X173426507Y-122136785D01*
X173512757Y-122021570D01*
X173563052Y-121886722D01*
X173569461Y-121827112D01*
X173569460Y-120431367D01*
X173563052Y-120371756D01*
X173557168Y-120355981D01*
X173512758Y-120236910D01*
X173512754Y-120236903D01*
X173426508Y-120121694D01*
X173426505Y-120121691D01*
X173312383Y-120036259D01*
X173270512Y-119980326D01*
X173265528Y-119910634D01*
X173299011Y-119849314D01*
X174608654Y-118539671D01*
X174669975Y-118506188D01*
X174696323Y-118503354D01*
X175283061Y-118503354D01*
X175283069Y-118503353D01*
X175283072Y-118503353D01*
X175339355Y-118497603D01*
X175385850Y-118492854D01*
X175552387Y-118437669D01*
X175701709Y-118345567D01*
X175825765Y-118221511D01*
X175917867Y-118072189D01*
X175973052Y-117905652D01*
X175983553Y-117802864D01*
X175983552Y-116752847D01*
X175973052Y-116650058D01*
X175917867Y-116483521D01*
X175825765Y-116334199D01*
X175701709Y-116210143D01*
X175701708Y-116210142D01*
X175669455Y-116190248D01*
X175622731Y-116138299D01*
X175610553Y-116084710D01*
X175610553Y-114365623D01*
X175630238Y-114298584D01*
X175683042Y-114252829D01*
X175752200Y-114242885D01*
X175815756Y-114271910D01*
X175826695Y-114282643D01*
X175901411Y-114365623D01*
X175929479Y-114396796D01*
X176082615Y-114508056D01*
X176082620Y-114508059D01*
X176255542Y-114585050D01*
X176255547Y-114585052D01*
X176440704Y-114624408D01*
X176440705Y-114624408D01*
X176629994Y-114624408D01*
X176629996Y-114624408D01*
X176815153Y-114585052D01*
X176988080Y-114508059D01*
X177141221Y-114396796D01*
X177267883Y-114256124D01*
X177362529Y-114092192D01*
X177421024Y-113912164D01*
X177440810Y-113723908D01*
X177421024Y-113535652D01*
X177362529Y-113355624D01*
X177267883Y-113191692D01*
X177141221Y-113051020D01*
X177140664Y-113050615D01*
X176988084Y-112939759D01*
X176988079Y-112939756D01*
X176815157Y-112862765D01*
X176815152Y-112862763D01*
X176669351Y-112831773D01*
X176629996Y-112823408D01*
X176629995Y-112823408D01*
X176573631Y-112823408D01*
X176506592Y-112803723D01*
X176485950Y-112787089D01*
X176410952Y-112712091D01*
X176401107Y-112699802D01*
X176400889Y-112699983D01*
X176395916Y-112693972D01*
X176378102Y-112677243D01*
X176346727Y-112647780D01*
X176343930Y-112645069D01*
X176324373Y-112625511D01*
X176321183Y-112623037D01*
X176312292Y-112615444D01*
X176281372Y-112586407D01*
X176280343Y-112585441D01*
X176280342Y-112585440D01*
X176280339Y-112585438D01*
X176262698Y-112575740D01*
X176246433Y-112565056D01*
X176230539Y-112552727D01*
X176230538Y-112552726D01*
X176200952Y-112539923D01*
X176190311Y-112535318D01*
X176179823Y-112530179D01*
X176141414Y-112509063D01*
X176141404Y-112509060D01*
X176121910Y-112504054D01*
X176103509Y-112497754D01*
X176085035Y-112489760D01*
X176085028Y-112489758D01*
X176041749Y-112482904D01*
X176030309Y-112480535D01*
X175987855Y-112469634D01*
X175987848Y-112469634D01*
X175967718Y-112469634D01*
X175948319Y-112468107D01*
X175928444Y-112464959D01*
X175928443Y-112464959D01*
X175884806Y-112469084D01*
X175873137Y-112469634D01*
X175241960Y-112469634D01*
X175174921Y-112449949D01*
X175136422Y-112410731D01*
X175126273Y-112394278D01*
X175108818Y-112365978D01*
X175015155Y-112272315D01*
X174981670Y-112210992D01*
X174986654Y-112141300D01*
X175015155Y-112096953D01*
X175053816Y-112058292D01*
X175108818Y-112003290D01*
X175136422Y-111958537D01*
X175188370Y-111911812D01*
X175241960Y-111899634D01*
X180430322Y-111899634D01*
X180497361Y-111919319D01*
X180518003Y-111935953D01*
X182154201Y-113572151D01*
X182164048Y-113584441D01*
X182164266Y-113584262D01*
X182169234Y-113590267D01*
X182218423Y-113636459D01*
X182221220Y-113639170D01*
X182240784Y-113658734D01*
X182243962Y-113661198D01*
X182252856Y-113668793D01*
X182263691Y-113678968D01*
X182284812Y-113698803D01*
X182284814Y-113698804D01*
X182302444Y-113708495D01*
X182318712Y-113719180D01*
X182334615Y-113731516D01*
X182334617Y-113731517D01*
X182334619Y-113731518D01*
X182347672Y-113737166D01*
X182374837Y-113748921D01*
X182385326Y-113754059D01*
X182423743Y-113775180D01*
X182443244Y-113780187D01*
X182461638Y-113786484D01*
X182480118Y-113794481D01*
X182523418Y-113801338D01*
X182534825Y-113803700D01*
X182577305Y-113814608D01*
X182597436Y-113814608D01*
X182616833Y-113816134D01*
X182636710Y-113819283D01*
X182676785Y-113815494D01*
X182680347Y-113815158D01*
X182692016Y-113814608D01*
X194213935Y-113814608D01*
X194280974Y-113834293D01*
X194319473Y-113873511D01*
X194325491Y-113883268D01*
X194347077Y-113918264D01*
X194471133Y-114042320D01*
X194620455Y-114134422D01*
X194786992Y-114189607D01*
X194889780Y-114200108D01*
X195889797Y-114200107D01*
X195892441Y-114200107D01*
X195959480Y-114219791D01*
X196005235Y-114272595D01*
X196016441Y-114324107D01*
X196016441Y-116243262D01*
X195996756Y-116310301D01*
X195943952Y-116356056D01*
X195892443Y-116367262D01*
X195844003Y-116367262D01*
X195843983Y-116367263D01*
X195741206Y-116377762D01*
X195741203Y-116377763D01*
X195574671Y-116432947D01*
X195574666Y-116432949D01*
X195425345Y-116525051D01*
X195301292Y-116649104D01*
X195209190Y-116798425D01*
X195209189Y-116798428D01*
X195154004Y-116964965D01*
X195154004Y-116964966D01*
X195154003Y-116964966D01*
X195143503Y-117067745D01*
X195143503Y-117654480D01*
X195123818Y-117721519D01*
X195107184Y-117742161D01*
X193311804Y-119537540D01*
X193250481Y-119571025D01*
X193224123Y-119573859D01*
X192221193Y-119573859D01*
X192221187Y-119573860D01*
X192161580Y-119580267D01*
X192026735Y-119630561D01*
X192026728Y-119630565D01*
X191911519Y-119716811D01*
X191911516Y-119716814D01*
X191825270Y-119832023D01*
X191825266Y-119832030D01*
X191774972Y-119966875D01*
X191772904Y-119986116D01*
X191746165Y-120050667D01*
X191688772Y-120090514D01*
X191649615Y-120096859D01*
X186488513Y-120096859D01*
X186421474Y-120077174D01*
X186375719Y-120024370D01*
X186365223Y-119986113D01*
X186364430Y-119978739D01*
X186363155Y-119966876D01*
X186312860Y-119832028D01*
X186312859Y-119832027D01*
X186312857Y-119832023D01*
X186226611Y-119716814D01*
X186226608Y-119716811D01*
X186111399Y-119630565D01*
X186111392Y-119630561D01*
X185976546Y-119580267D01*
X185976547Y-119580267D01*
X185916947Y-119573860D01*
X185916945Y-119573859D01*
X185916937Y-119573859D01*
X185916928Y-119573859D01*
X184271193Y-119573859D01*
X184271187Y-119573860D01*
X184211580Y-119580267D01*
X184076735Y-119630561D01*
X184076728Y-119630565D01*
X183961519Y-119716811D01*
X183961516Y-119716814D01*
X183875270Y-119832023D01*
X183875266Y-119832030D01*
X183824972Y-119966876D01*
X183818565Y-120026475D01*
X183818564Y-120026494D01*
X183818564Y-121422229D01*
X183818565Y-121422235D01*
X183824972Y-121481842D01*
X183875266Y-121616687D01*
X183875270Y-121616694D01*
X183961516Y-121731903D01*
X183961519Y-121731906D01*
X184076728Y-121818152D01*
X184076735Y-121818156D01*
X184211581Y-121868450D01*
X184211580Y-121868450D01*
X184218508Y-121869194D01*
X184271191Y-121874859D01*
X185916936Y-121874858D01*
X185976547Y-121868450D01*
X186111395Y-121818155D01*
X186226610Y-121731905D01*
X186312860Y-121616690D01*
X186363155Y-121481842D01*
X186363377Y-121479780D01*
X186365224Y-121462602D01*
X186391963Y-121398051D01*
X186449356Y-121358204D01*
X186488513Y-121351859D01*
X191649615Y-121351859D01*
X191716654Y-121371544D01*
X191762409Y-121424348D01*
X191772905Y-121462605D01*
X191774973Y-121481842D01*
X191825266Y-121616687D01*
X191825270Y-121616694D01*
X191911516Y-121731903D01*
X191911519Y-121731906D01*
X192026728Y-121818152D01*
X192026735Y-121818156D01*
X192161581Y-121868450D01*
X192161580Y-121868450D01*
X192168508Y-121869194D01*
X192221191Y-121874859D01*
X193866936Y-121874858D01*
X193926547Y-121868450D01*
X194061395Y-121818155D01*
X194176610Y-121731905D01*
X194262860Y-121616690D01*
X194313155Y-121481842D01*
X194319564Y-121422232D01*
X194319563Y-120355980D01*
X194339247Y-120288942D01*
X194355877Y-120268305D01*
X195769604Y-118854578D01*
X195830925Y-118821095D01*
X195857273Y-118818261D01*
X196444011Y-118818261D01*
X196444019Y-118818260D01*
X196444022Y-118818260D01*
X196500305Y-118812510D01*
X196546800Y-118807761D01*
X196713337Y-118752576D01*
X196862659Y-118660474D01*
X196986715Y-118536418D01*
X197078817Y-118387096D01*
X197134002Y-118220559D01*
X197144503Y-118117771D01*
X197144502Y-117516676D01*
X197159833Y-117456953D01*
X197161946Y-117453109D01*
X197165328Y-117446954D01*
X197176014Y-117430685D01*
X197188349Y-117414786D01*
X197205763Y-117374542D01*
X197210885Y-117364086D01*
X197232013Y-117325658D01*
X197237017Y-117306162D01*
X197243319Y-117287757D01*
X197251315Y-117269283D01*
X197258172Y-117225978D01*
X197260535Y-117214568D01*
X197271441Y-117172096D01*
X197271441Y-117151965D01*
X197272968Y-117132565D01*
X197273749Y-117127634D01*
X197276116Y-117112691D01*
X197271991Y-117069054D01*
X197271441Y-117057385D01*
X197271441Y-112699224D01*
X197273169Y-112683573D01*
X197272887Y-112683547D01*
X197273621Y-112675784D01*
X197271502Y-112608341D01*
X197271441Y-112604447D01*
X197271441Y-112576790D01*
X197271441Y-112576784D01*
X197270934Y-112572779D01*
X197270018Y-112561131D01*
X197269595Y-112547658D01*
X197268642Y-112517318D01*
X197263023Y-112497978D01*
X197259080Y-112478945D01*
X197256557Y-112458967D01*
X197240422Y-112418215D01*
X197236639Y-112407167D01*
X197224409Y-112365069D01*
X197222765Y-112362289D01*
X197214166Y-112347749D01*
X197205603Y-112330271D01*
X197198194Y-112311557D01*
X197176256Y-112281363D01*
X197172426Y-112276092D01*
X197166014Y-112266329D01*
X197143706Y-112228607D01*
X197143700Y-112228599D01*
X197129472Y-112214372D01*
X197116837Y-112199580D01*
X197105004Y-112183293D01*
X197105001Y-112183291D01*
X197105001Y-112183290D01*
X197104999Y-112183288D01*
X197071228Y-112155350D01*
X197062588Y-112147488D01*
X196626607Y-111711507D01*
X196593122Y-111650184D01*
X196590288Y-111623834D01*
X196590288Y-111100387D01*
X196609973Y-111033349D01*
X196626602Y-111012712D01*
X197699635Y-109939679D01*
X197711917Y-109929842D01*
X197711736Y-109929623D01*
X197717749Y-109924647D01*
X197717754Y-109924645D01*
X197763975Y-109875422D01*
X197766624Y-109872690D01*
X197786216Y-109853100D01*
X197788693Y-109849905D01*
X197796271Y-109841032D01*
X197826285Y-109809072D01*
X197835980Y-109791435D01*
X197846664Y-109775168D01*
X197859000Y-109759267D01*
X197876403Y-109719047D01*
X197881543Y-109708556D01*
X197902663Y-109670140D01*
X197902664Y-109670139D01*
X197907670Y-109650639D01*
X197913968Y-109632241D01*
X197921966Y-109613763D01*
X197928824Y-109570456D01*
X197931188Y-109559041D01*
X197942092Y-109516577D01*
X197942092Y-109496446D01*
X197943619Y-109477046D01*
X197946767Y-109457172D01*
X197942642Y-109413535D01*
X197942092Y-109401866D01*
X197942092Y-98524273D01*
X197943820Y-98508623D01*
X197943538Y-98508597D01*
X197944272Y-98500834D01*
X197942153Y-98433404D01*
X197942092Y-98429509D01*
X197942092Y-98401837D01*
X197942092Y-98401833D01*
X197941584Y-98397818D01*
X197940668Y-98386172D01*
X197940639Y-98385245D01*
X197939292Y-98342366D01*
X197933674Y-98323029D01*
X197929730Y-98303983D01*
X197927208Y-98284016D01*
X197911072Y-98243262D01*
X197907289Y-98232212D01*
X197904088Y-98221195D01*
X197895060Y-98190118D01*
X197890928Y-98183131D01*
X197884817Y-98172798D01*
X197876254Y-98155320D01*
X197868845Y-98136606D01*
X197843077Y-98101141D01*
X197836665Y-98091378D01*
X197814357Y-98053656D01*
X197814351Y-98053648D01*
X197800123Y-98039421D01*
X197787488Y-98024629D01*
X197775655Y-98008342D01*
X197775652Y-98008340D01*
X197775652Y-98008339D01*
X197775650Y-98008337D01*
X197741879Y-97980399D01*
X197733239Y-97972537D01*
X197220750Y-97460048D01*
X197187265Y-97398725D01*
X197184431Y-97372367D01*
X197184431Y-96798147D01*
X197184430Y-96798130D01*
X197173931Y-96695352D01*
X197173930Y-96695349D01*
X197118746Y-96528815D01*
X197026644Y-96379493D01*
X196902588Y-96255437D01*
X196753266Y-96163335D01*
X196586729Y-96108150D01*
X196586727Y-96108149D01*
X196483948Y-96097649D01*
X195909713Y-96097649D01*
X195842674Y-96077964D01*
X195822032Y-96061330D01*
X192630631Y-92869929D01*
X192620786Y-92857640D01*
X192620568Y-92857821D01*
X192615595Y-92851810D01*
X192566408Y-92805620D01*
X192563609Y-92802907D01*
X192544052Y-92783349D01*
X192540862Y-92780875D01*
X192531971Y-92773282D01*
X192500023Y-92743280D01*
X192500018Y-92743276D01*
X192482377Y-92733578D01*
X192466112Y-92722894D01*
X192465935Y-92722757D01*
X192450217Y-92710564D01*
X192409990Y-92693156D01*
X192399502Y-92688017D01*
X192361093Y-92666901D01*
X192361083Y-92666898D01*
X192341589Y-92661892D01*
X192323188Y-92655592D01*
X192304714Y-92647598D01*
X192304707Y-92647596D01*
X192261428Y-92640742D01*
X192249988Y-92638373D01*
X192207534Y-92627472D01*
X192207527Y-92627472D01*
X192187397Y-92627472D01*
X192167998Y-92625945D01*
X192148123Y-92622797D01*
X192148122Y-92622797D01*
X192104485Y-92626922D01*
X192092816Y-92627472D01*
X190131002Y-92627472D01*
X190063963Y-92607787D01*
X190038855Y-92586448D01*
X190034926Y-92582084D01*
X190034924Y-92582083D01*
X190034922Y-92582080D01*
X190034919Y-92582078D01*
X189881789Y-92470823D01*
X189881784Y-92470820D01*
X189708862Y-92393829D01*
X189708857Y-92393827D01*
X189563056Y-92362837D01*
X189523701Y-92354472D01*
X189334409Y-92354472D01*
X189301952Y-92361370D01*
X189149252Y-92393827D01*
X189149247Y-92393829D01*
X188976325Y-92470820D01*
X188976320Y-92470823D01*
X188823184Y-92582083D01*
X188696521Y-92722757D01*
X188601876Y-92886687D01*
X188601873Y-92886694D01*
X188543382Y-93066712D01*
X188543381Y-93066716D01*
X188523595Y-93254972D01*
X188543381Y-93443228D01*
X188543382Y-93443231D01*
X188601873Y-93623249D01*
X188601876Y-93623256D01*
X188696522Y-93787188D01*
X188786259Y-93886851D01*
X188823184Y-93927860D01*
X188976320Y-94039120D01*
X188976325Y-94039123D01*
X189149247Y-94116114D01*
X189149252Y-94116116D01*
X189334409Y-94155472D01*
X189334410Y-94155472D01*
X189523699Y-94155472D01*
X189523701Y-94155472D01*
X189708858Y-94116116D01*
X189881785Y-94039123D01*
X190034926Y-93927860D01*
X190038854Y-93923497D01*
X190098341Y-93886851D01*
X190131002Y-93882472D01*
X191816974Y-93882472D01*
X191884013Y-93902157D01*
X191904655Y-93918791D01*
X193911322Y-95925458D01*
X193944807Y-95986781D01*
X193939823Y-96056473D01*
X193897951Y-96112406D01*
X193862646Y-96130845D01*
X193764598Y-96163335D01*
X193764595Y-96163336D01*
X193615274Y-96255438D01*
X193491221Y-96379491D01*
X193399119Y-96528812D01*
X193399118Y-96528815D01*
X193343933Y-96695352D01*
X193343933Y-96695353D01*
X193343932Y-96695353D01*
X193333432Y-96798132D01*
X193333432Y-97372367D01*
X193313747Y-97439406D01*
X193297113Y-97460048D01*
X191997212Y-98759950D01*
X191935889Y-98793435D01*
X191909531Y-98796269D01*
X191653139Y-98796269D01*
X191586100Y-98776584D01*
X191565458Y-98759950D01*
X191561200Y-98755692D01*
X191561192Y-98755686D01*
X191469108Y-98701228D01*
X191419728Y-98672025D01*
X191419727Y-98672024D01*
X191419726Y-98672024D01*
X191419723Y-98672023D01*
X191261903Y-98626171D01*
X191261897Y-98626170D01*
X191225031Y-98623269D01*
X191225024Y-98623269D01*
X190058830Y-98623269D01*
X189991791Y-98603584D01*
X189946036Y-98550780D01*
X189934830Y-98499269D01*
X189934830Y-98258082D01*
X189934829Y-98258067D01*
X189933664Y-98243267D01*
X189931928Y-98221200D01*
X189931304Y-98219053D01*
X189894211Y-98091378D01*
X189886074Y-98063371D01*
X189802411Y-97921904D01*
X189802409Y-97921902D01*
X189802406Y-97921898D01*
X189686200Y-97805692D01*
X189686192Y-97805686D01*
X189544726Y-97722024D01*
X189544723Y-97722023D01*
X189386903Y-97676171D01*
X189386897Y-97676170D01*
X189350031Y-97673269D01*
X189350024Y-97673269D01*
X188043636Y-97673269D01*
X188043628Y-97673269D01*
X188006762Y-97676170D01*
X188006756Y-97676171D01*
X187848936Y-97722023D01*
X187848933Y-97722024D01*
X187707467Y-97805686D01*
X187707459Y-97805692D01*
X187703202Y-97809950D01*
X187641879Y-97843435D01*
X187615521Y-97846269D01*
X186267501Y-97846269D01*
X186219449Y-97835615D01*
X186219409Y-97835737D01*
X186218220Y-97835343D01*
X186215094Y-97834650D01*
X186212557Y-97833466D01*
X186212554Y-97833465D01*
X186046017Y-97778280D01*
X186046015Y-97778279D01*
X185943230Y-97767779D01*
X185318218Y-97767779D01*
X185318200Y-97767780D01*
X185215423Y-97778279D01*
X185215420Y-97778280D01*
X185048888Y-97833464D01*
X185048883Y-97833466D01*
X184899562Y-97925568D01*
X184805901Y-98019230D01*
X184744578Y-98052715D01*
X184674886Y-98047731D01*
X184630539Y-98019230D01*
X184536877Y-97925568D01*
X184536876Y-97925567D01*
X184402285Y-97842551D01*
X184387556Y-97833466D01*
X184387551Y-97833464D01*
X184386082Y-97832977D01*
X184221017Y-97778280D01*
X184221015Y-97778279D01*
X184118230Y-97767779D01*
X183493218Y-97767779D01*
X183493192Y-97767781D01*
X183473779Y-97769764D01*
X183405087Y-97756993D01*
X183354204Y-97709111D01*
X183337285Y-97641320D01*
X183359703Y-97575145D01*
X183373494Y-97558731D01*
X185431013Y-95501212D01*
X185443295Y-95491375D01*
X185443114Y-95491156D01*
X185449127Y-95486180D01*
X185449132Y-95486178D01*
X185495354Y-95436954D01*
X185498003Y-95434222D01*
X185517593Y-95414634D01*
X185520066Y-95411444D01*
X185527652Y-95402560D01*
X185557663Y-95370605D01*
X185567359Y-95352966D01*
X185578043Y-95336699D01*
X185590378Y-95320800D01*
X185607789Y-95280563D01*
X185612912Y-95270103D01*
X185634042Y-95231672D01*
X185639048Y-95212172D01*
X185645346Y-95193774D01*
X185653344Y-95175296D01*
X185660202Y-95131989D01*
X185662566Y-95120574D01*
X185673470Y-95078110D01*
X185673470Y-95057979D01*
X185674997Y-95038579D01*
X185678145Y-95018705D01*
X185674020Y-94975068D01*
X185673470Y-94963399D01*
X185673470Y-90295592D01*
X185693155Y-90228553D01*
X185723160Y-90196325D01*
X185753516Y-90173601D01*
X185839766Y-90058386D01*
X185890061Y-89923538D01*
X185896470Y-89863928D01*
X185896469Y-89168183D01*
X185890061Y-89108572D01*
X185889687Y-89107570D01*
X185839767Y-88973726D01*
X185839763Y-88973719D01*
X185753517Y-88858510D01*
X185753514Y-88858507D01*
X185638305Y-88772261D01*
X185638298Y-88772257D01*
X185503452Y-88721963D01*
X185503453Y-88721963D01*
X185443853Y-88715556D01*
X185443851Y-88715555D01*
X185443843Y-88715555D01*
X185443835Y-88715555D01*
X185184251Y-88715555D01*
X185117212Y-88695870D01*
X185096570Y-88679236D01*
X185045569Y-88628235D01*
X185012084Y-88566912D01*
X185017068Y-88497220D01*
X185058940Y-88441287D01*
X185124404Y-88416870D01*
X185133250Y-88416554D01*
X185443841Y-88416554D01*
X185443842Y-88416554D01*
X185503453Y-88410146D01*
X185638301Y-88359851D01*
X185753516Y-88273601D01*
X185839766Y-88158386D01*
X185890061Y-88023538D01*
X185894087Y-87986090D01*
X185896469Y-87963941D01*
X185896469Y-87963937D01*
X185896470Y-87963928D01*
X185896469Y-87883939D01*
X185916153Y-87816902D01*
X185932783Y-87796264D01*
X186121817Y-87607230D01*
X186135436Y-87595460D01*
X186154847Y-87581011D01*
X186186887Y-87542826D01*
X186194176Y-87534871D01*
X186198136Y-87530913D01*
X186217480Y-87506446D01*
X186219714Y-87503704D01*
X186268220Y-87445899D01*
X186268224Y-87445890D01*
X186272190Y-87439862D01*
X186272236Y-87439892D01*
X186276348Y-87433437D01*
X186276301Y-87433408D01*
X186280085Y-87427271D01*
X186280092Y-87427263D01*
X186305653Y-87372447D01*
X186311970Y-87358900D01*
X186313525Y-87355686D01*
X186347377Y-87288283D01*
X186347379Y-87288270D01*
X186349846Y-87281496D01*
X186349899Y-87281515D01*
X186352411Y-87274287D01*
X186352360Y-87274270D01*
X186354630Y-87267417D01*
X186354630Y-87267415D01*
X186354632Y-87267412D01*
X186369898Y-87193473D01*
X186370650Y-87190082D01*
X186388053Y-87116660D01*
X186388053Y-87116653D01*
X186388891Y-87109487D01*
X186388945Y-87109493D01*
X186389723Y-87101877D01*
X186389670Y-87101873D01*
X186390299Y-87094682D01*
X186389877Y-87080195D01*
X186388300Y-87025972D01*
X186388105Y-87019276D01*
X186388053Y-87015670D01*
X186388053Y-85191513D01*
X186407738Y-85124474D01*
X186460542Y-85078719D01*
X186529700Y-85068775D01*
X186537015Y-85070052D01*
X186580350Y-85078958D01*
X186580354Y-85078958D01*
X187029027Y-85078958D01*
X187176933Y-85063917D01*
X187254950Y-85039439D01*
X187366231Y-85004525D01*
X187539699Y-84908242D01*
X187690235Y-84779011D01*
X187811675Y-84622124D01*
X187899048Y-84444002D01*
X187948777Y-84251938D01*
X187958825Y-84053795D01*
X187928783Y-83857685D01*
X187859878Y-83671638D01*
X187848384Y-83653198D01*
X187754936Y-83503273D01*
X187754931Y-83503266D01*
X187618246Y-83359474D01*
X187618243Y-83359471D01*
X187510215Y-83284281D01*
X187466437Y-83229827D01*
X187457053Y-83182507D01*
X187457053Y-82802957D01*
X187476738Y-82735918D01*
X187529542Y-82690163D01*
X187581053Y-82678957D01*
X187802431Y-82678957D01*
X187808710Y-82679116D01*
X187877689Y-82682614D01*
X188067767Y-82653495D01*
X188248093Y-82586710D01*
X188411284Y-82484992D01*
X188550659Y-82352507D01*
X188660511Y-82194677D01*
X188736344Y-82017966D01*
X188775053Y-81829606D01*
X188775053Y-81025508D01*
X188760475Y-80882149D01*
X188760475Y-80882147D01*
X188702911Y-80698680D01*
X188702909Y-80698676D01*
X188702908Y-80698672D01*
X188609587Y-80530538D01*
X188562077Y-80475195D01*
X188484332Y-80384632D01*
X188484331Y-80384631D01*
X188332271Y-80266929D01*
X188332269Y-80266928D01*
X188332268Y-80266927D01*
X188159624Y-80182241D01*
X188159622Y-80182240D01*
X188159619Y-80182239D01*
X188159621Y-80182239D01*
X187973474Y-80134042D01*
X187973468Y-80134041D01*
X187902271Y-80130430D01*
X187895301Y-80129879D01*
X187877433Y-80127958D01*
X187877426Y-80127958D01*
X187856656Y-80127958D01*
X187850377Y-80127799D01*
X187781417Y-80124302D01*
X187781410Y-80124302D01*
X187766884Y-80126528D01*
X187748109Y-80127958D01*
X186581682Y-80127958D01*
X186581676Y-80127959D01*
X186522069Y-80134366D01*
X186397886Y-80180684D01*
X186328194Y-80185668D01*
X186311220Y-80180684D01*
X186187035Y-80134366D01*
X186187036Y-80134366D01*
X186127436Y-80127959D01*
X186127434Y-80127958D01*
X186127426Y-80127958D01*
X186127417Y-80127958D01*
X184531682Y-80127958D01*
X184531676Y-80127959D01*
X184472068Y-80134367D01*
X184372885Y-80171359D01*
X184303193Y-80176343D01*
X184286221Y-80171359D01*
X184187038Y-80134367D01*
X184187036Y-80134366D01*
X184127436Y-80127959D01*
X184127434Y-80127958D01*
X184127426Y-80127958D01*
X184127417Y-80127958D01*
X182531682Y-80127958D01*
X182531676Y-80127959D01*
X182472069Y-80134366D01*
X182347886Y-80180684D01*
X182278194Y-80185668D01*
X182261220Y-80180684D01*
X182137035Y-80134366D01*
X182137036Y-80134366D01*
X182077436Y-80127959D01*
X182077434Y-80127958D01*
X182077426Y-80127958D01*
X182077418Y-80127958D01*
X180856672Y-80127958D01*
X180850394Y-80127799D01*
X180781417Y-80124302D01*
X180781413Y-80124302D01*
X180591346Y-80153419D01*
X180591334Y-80153422D01*
X180411017Y-80220204D01*
X180411013Y-80220206D01*
X180247820Y-80321925D01*
X180108448Y-80454407D01*
X179998594Y-80612239D01*
X179922762Y-80788949D01*
X179884053Y-80977309D01*
X179884053Y-81781409D01*
X179898630Y-81924768D01*
X179956194Y-82108235D01*
X179956197Y-82108242D01*
X179956198Y-82108244D01*
X180049519Y-82276378D01*
X180049522Y-82276381D01*
X180049523Y-82276383D01*
X180172139Y-82419214D01*
X180200871Y-82482903D01*
X180202053Y-82499984D01*
X180202053Y-83020490D01*
X180200325Y-83036139D01*
X180200607Y-83036166D01*
X180199872Y-83043933D01*
X180201992Y-83111375D01*
X180202053Y-83115269D01*
X180202053Y-83142934D01*
X180202559Y-83146943D01*
X180203474Y-83158574D01*
X180204851Y-83202400D01*
X180210469Y-83221733D01*
X180214415Y-83240787D01*
X180216936Y-83260745D01*
X180216939Y-83260757D01*
X180233072Y-83301506D01*
X180236855Y-83312556D01*
X180249083Y-83354645D01*
X180249083Y-83354646D01*
X180259330Y-83371973D01*
X180267888Y-83389443D01*
X180275298Y-83408159D01*
X180301064Y-83443622D01*
X180307478Y-83453387D01*
X180329787Y-83491110D01*
X180329793Y-83491118D01*
X180344022Y-83505346D01*
X180356659Y-83520142D01*
X180368490Y-83536425D01*
X180402270Y-83564370D01*
X180410899Y-83572223D01*
X180677335Y-83838659D01*
X180710820Y-83899982D01*
X180709874Y-83948541D01*
X180711282Y-83948757D01*
X180710329Y-83954975D01*
X180700281Y-84153120D01*
X180700281Y-84153121D01*
X180730321Y-84349222D01*
X180730324Y-84349235D01*
X180799226Y-84535273D01*
X180799230Y-84535282D01*
X180904169Y-84703642D01*
X180904174Y-84703649D01*
X181020795Y-84826334D01*
X181040862Y-84847444D01*
X181203699Y-84960782D01*
X181386018Y-85039021D01*
X181580354Y-85078958D01*
X182029027Y-85078958D01*
X182176933Y-85063917D01*
X182254950Y-85039439D01*
X182366231Y-85004525D01*
X182539699Y-84908242D01*
X182690235Y-84779011D01*
X182756999Y-84692758D01*
X182813597Y-84651796D01*
X182883360Y-84647935D01*
X182944135Y-84682404D01*
X182976628Y-84744258D01*
X182979053Y-84768659D01*
X182979053Y-84826327D01*
X182979054Y-84826334D01*
X182985461Y-84885941D01*
X183035755Y-85020786D01*
X183035759Y-85020793D01*
X183113376Y-85124474D01*
X183122007Y-85136004D01*
X183131308Y-85142966D01*
X183173178Y-85198898D01*
X183178162Y-85268589D01*
X183144678Y-85329913D01*
X183144677Y-85329913D01*
X181983923Y-86490667D01*
X181971639Y-86500510D01*
X181971819Y-86500728D01*
X181965807Y-86505701D01*
X181919616Y-86554888D01*
X181916911Y-86557679D01*
X181897349Y-86577241D01*
X181897345Y-86577246D01*
X181894865Y-86580444D01*
X181887287Y-86589315D01*
X181857278Y-86621271D01*
X181857275Y-86621275D01*
X181847576Y-86638918D01*
X181836898Y-86655174D01*
X181824564Y-86671075D01*
X181824559Y-86671083D01*
X181807155Y-86711303D01*
X181802016Y-86721793D01*
X181780897Y-86760208D01*
X181775890Y-86779709D01*
X181769591Y-86798105D01*
X181762863Y-86813653D01*
X181761595Y-86816585D01*
X181761594Y-86816587D01*
X181754739Y-86859872D01*
X181752371Y-86871308D01*
X181741470Y-86913764D01*
X181741470Y-86933899D01*
X181739943Y-86953296D01*
X181736795Y-86973174D01*
X181740214Y-87009338D01*
X181740920Y-87016808D01*
X181741470Y-87028478D01*
X181741470Y-88756087D01*
X181739742Y-88771736D01*
X181740024Y-88771763D01*
X181739289Y-88779530D01*
X181741409Y-88846972D01*
X181741470Y-88850866D01*
X181741470Y-88878531D01*
X181741976Y-88882540D01*
X181742891Y-88894171D01*
X181744268Y-88937997D01*
X181749886Y-88957330D01*
X181753832Y-88976384D01*
X181756353Y-88996342D01*
X181756356Y-88996354D01*
X181772489Y-89037103D01*
X181776272Y-89048153D01*
X181788500Y-89090242D01*
X181788500Y-89090243D01*
X181798747Y-89107570D01*
X181807305Y-89125040D01*
X181814715Y-89143756D01*
X181840481Y-89179219D01*
X181846895Y-89188984D01*
X181869204Y-89226707D01*
X181869210Y-89226715D01*
X181883439Y-89240943D01*
X181896076Y-89255739D01*
X181907907Y-89272022D01*
X181941687Y-89299967D01*
X181950316Y-89307820D01*
X182159151Y-89516655D01*
X182192636Y-89577978D01*
X182195470Y-89604336D01*
X182195470Y-89863924D01*
X182195471Y-89863931D01*
X182201878Y-89923538D01*
X182252172Y-90058383D01*
X182252173Y-90058384D01*
X182252174Y-90058386D01*
X182338422Y-90173598D01*
X182338425Y-90173602D01*
X182368780Y-90196325D01*
X182410652Y-90252258D01*
X182418470Y-90295592D01*
X182418470Y-95083032D01*
X182398785Y-95150071D01*
X182382151Y-95170713D01*
X180413640Y-97139224D01*
X180352317Y-97172709D01*
X180325959Y-97175543D01*
X180269594Y-97175543D01*
X180237137Y-97182441D01*
X180084437Y-97214898D01*
X180084432Y-97214900D01*
X179911510Y-97291891D01*
X179911505Y-97291894D01*
X179758369Y-97403154D01*
X179631706Y-97543828D01*
X179537061Y-97707758D01*
X179537058Y-97707765D01*
X179492056Y-97846269D01*
X179478566Y-97887787D01*
X179458780Y-98076043D01*
X179478566Y-98264299D01*
X179478567Y-98264302D01*
X179537058Y-98444320D01*
X179537061Y-98444327D01*
X179631707Y-98608259D01*
X179737931Y-98726232D01*
X179758369Y-98748931D01*
X179911505Y-98860191D01*
X179911510Y-98860194D01*
X180013554Y-98905628D01*
X180066791Y-98950878D01*
X180087112Y-99017728D01*
X180068066Y-99084951D01*
X180050799Y-99106588D01*
X179648866Y-99508523D01*
X179587543Y-99542008D01*
X179561185Y-99544842D01*
X179504820Y-99544842D01*
X179472363Y-99551740D01*
X179319663Y-99584197D01*
X179319658Y-99584199D01*
X179146736Y-99661190D01*
X179146731Y-99661193D01*
X178993595Y-99772453D01*
X178866932Y-99913127D01*
X178772287Y-100077057D01*
X178772284Y-100077064D01*
X178716203Y-100249665D01*
X178713792Y-100257086D01*
X178694006Y-100445342D01*
X178713792Y-100633598D01*
X178713793Y-100633601D01*
X178772284Y-100813619D01*
X178772287Y-100813626D01*
X178866933Y-100977558D01*
X178945184Y-101064464D01*
X178993595Y-101118230D01*
X179146731Y-101229490D01*
X179146736Y-101229493D01*
X179319658Y-101306484D01*
X179319663Y-101306486D01*
X179504820Y-101345842D01*
X179504821Y-101345842D01*
X179694110Y-101345842D01*
X179694112Y-101345842D01*
X179879269Y-101306486D01*
X180052196Y-101229493D01*
X180205337Y-101118230D01*
X180331999Y-100977558D01*
X180426645Y-100813626D01*
X180485140Y-100633598D01*
X180502455Y-100468847D01*
X180529038Y-100404236D01*
X180538085Y-100394140D01*
X182583667Y-98348558D01*
X182644988Y-98315075D01*
X182714680Y-98320059D01*
X182770613Y-98361931D01*
X182795030Y-98427395D01*
X182794704Y-98448841D01*
X182792721Y-98468255D01*
X182792720Y-98468275D01*
X182792720Y-99042497D01*
X182773035Y-99109536D01*
X182756401Y-99130178D01*
X180916757Y-100969821D01*
X180901966Y-100982455D01*
X180885680Y-100994288D01*
X180857739Y-101028062D01*
X180849894Y-101036685D01*
X180847019Y-101039560D01*
X180830056Y-101061429D01*
X180827624Y-101064464D01*
X180784624Y-101116444D01*
X180780444Y-101123031D01*
X180780208Y-101122881D01*
X180777971Y-101126530D01*
X180778212Y-101126673D01*
X180774239Y-101133390D01*
X180747438Y-101195320D01*
X180745837Y-101198865D01*
X180717117Y-101259899D01*
X180714708Y-101267315D01*
X180714441Y-101267228D01*
X180713180Y-101271325D01*
X180713450Y-101271404D01*
X180711273Y-101278896D01*
X180700718Y-101345533D01*
X180700049Y-101349365D01*
X180687409Y-101415634D01*
X180686919Y-101423423D01*
X180686640Y-101423405D01*
X180686438Y-101427684D01*
X180686718Y-101427693D01*
X180686473Y-101435487D01*
X180689022Y-101462458D01*
X180675732Y-101531052D01*
X180657723Y-101557096D01*
X180573953Y-101650133D01*
X180573949Y-101650138D01*
X180479306Y-101814066D01*
X180479303Y-101814073D01*
X180429846Y-101966288D01*
X180420811Y-101994095D01*
X180409691Y-102099901D01*
X180403496Y-102158840D01*
X180376911Y-102223454D01*
X180367856Y-102233559D01*
X180034577Y-102566839D01*
X179973256Y-102600323D01*
X179946898Y-102603157D01*
X178184400Y-102603157D01*
X178117361Y-102583472D01*
X178071606Y-102530668D01*
X178061111Y-102465900D01*
X178061700Y-102460420D01*
X178062495Y-102453030D01*
X178062494Y-101468285D01*
X178056086Y-101408674D01*
X178049554Y-101391162D01*
X178041285Y-101368991D01*
X178036300Y-101299299D01*
X178041284Y-101282326D01*
X178056086Y-101242640D01*
X178062495Y-101183030D01*
X178062494Y-100198285D01*
X178058171Y-100158067D01*
X178056086Y-100138673D01*
X178041285Y-100098991D01*
X178036300Y-100029299D01*
X178041284Y-100012326D01*
X178056086Y-99972640D01*
X178062495Y-99913030D01*
X178062494Y-98928285D01*
X178056086Y-98868674D01*
X178050791Y-98854479D01*
X178041285Y-98828991D01*
X178036300Y-98759299D01*
X178041284Y-98742326D01*
X178056086Y-98702640D01*
X178062495Y-98643030D01*
X178062494Y-97658285D01*
X178056086Y-97598674D01*
X178041285Y-97558991D01*
X178036300Y-97489299D01*
X178041284Y-97472326D01*
X178056086Y-97432640D01*
X178062495Y-97373030D01*
X178062494Y-96388285D01*
X178056086Y-96328674D01*
X178045325Y-96299824D01*
X178041285Y-96288991D01*
X178036300Y-96219299D01*
X178041284Y-96202326D01*
X178056086Y-96162640D01*
X178062495Y-96103030D01*
X178062494Y-95118285D01*
X178056086Y-95058674D01*
X178041285Y-95018991D01*
X178036300Y-94949299D01*
X178041284Y-94932326D01*
X178056086Y-94892640D01*
X178062495Y-94833030D01*
X178062494Y-93848285D01*
X178056086Y-93788674D01*
X178041285Y-93748991D01*
X178036300Y-93679299D01*
X178041284Y-93662326D01*
X178056086Y-93622640D01*
X178062495Y-93563030D01*
X178062494Y-92578285D01*
X178056086Y-92518674D01*
X178041285Y-92478991D01*
X178036300Y-92409299D01*
X178041284Y-92392326D01*
X178056086Y-92352640D01*
X178062495Y-92293030D01*
X178062494Y-91308285D01*
X178056086Y-91248674D01*
X178055239Y-91246404D01*
X178041285Y-91208991D01*
X178036300Y-91139299D01*
X178041284Y-91122326D01*
X178056086Y-91082640D01*
X178062495Y-91023030D01*
X178062494Y-90038285D01*
X178056086Y-89978674D01*
X178041285Y-89938991D01*
X178036300Y-89869299D01*
X178041284Y-89852326D01*
X178056086Y-89812640D01*
X178062495Y-89753030D01*
X178062494Y-88768285D01*
X178056086Y-88708674D01*
X178052546Y-88699184D01*
X178041285Y-88668991D01*
X178036300Y-88599299D01*
X178041284Y-88582326D01*
X178056086Y-88542640D01*
X178062495Y-88483030D01*
X178062494Y-87498285D01*
X178056086Y-87438674D01*
X178055565Y-87437278D01*
X178005792Y-87303828D01*
X178005788Y-87303821D01*
X177919542Y-87188612D01*
X177919539Y-87188609D01*
X177804330Y-87102363D01*
X177804323Y-87102359D01*
X177669477Y-87052065D01*
X177669478Y-87052065D01*
X177609878Y-87045658D01*
X177609876Y-87045657D01*
X177609868Y-87045657D01*
X177609859Y-87045657D01*
X176015524Y-87045657D01*
X176015518Y-87045658D01*
X175955911Y-87052065D01*
X175821066Y-87102359D01*
X175821059Y-87102363D01*
X175705850Y-87188609D01*
X175705847Y-87188612D01*
X175619601Y-87303821D01*
X175619597Y-87303828D01*
X175569303Y-87438674D01*
X175563179Y-87495638D01*
X175562896Y-87498280D01*
X175562895Y-87498292D01*
X175562895Y-88483027D01*
X175562896Y-88483033D01*
X175569303Y-88542639D01*
X175584105Y-88582326D01*
X175589088Y-88652018D01*
X175584105Y-88668988D01*
X175569303Y-88708674D01*
X175564206Y-88756087D01*
X175562896Y-88768280D01*
X175562895Y-88768292D01*
X175562895Y-89753027D01*
X175562896Y-89753033D01*
X175569303Y-89812639D01*
X175584105Y-89852326D01*
X175589088Y-89922018D01*
X175584105Y-89938988D01*
X175569303Y-89978674D01*
X175562896Y-90038273D01*
X175562896Y-90038280D01*
X175562895Y-90038292D01*
X175562895Y-91023027D01*
X175562896Y-91023033D01*
X175569303Y-91082639D01*
X175584105Y-91122326D01*
X175589088Y-91192018D01*
X175584105Y-91208988D01*
X175569303Y-91248674D01*
X175562896Y-91308273D01*
X175562896Y-91308280D01*
X175562895Y-91308292D01*
X175562895Y-92293027D01*
X175562896Y-92293033D01*
X175569303Y-92352639D01*
X175584105Y-92392326D01*
X175589088Y-92462018D01*
X175584105Y-92478988D01*
X175569303Y-92518674D01*
X175562896Y-92578273D01*
X175562896Y-92578280D01*
X175562895Y-92578292D01*
X175562895Y-93563027D01*
X175562896Y-93563033D01*
X175569303Y-93622639D01*
X175584105Y-93662326D01*
X175589088Y-93732018D01*
X175584105Y-93748988D01*
X175569303Y-93788674D01*
X175562896Y-93848273D01*
X175562896Y-93848280D01*
X175562895Y-93848292D01*
X175562895Y-94833027D01*
X175562896Y-94833033D01*
X175569303Y-94892639D01*
X175584105Y-94932326D01*
X175589088Y-95002018D01*
X175584105Y-95018988D01*
X175569303Y-95058674D01*
X175562896Y-95118273D01*
X175562896Y-95118280D01*
X175562895Y-95118292D01*
X175562895Y-96103027D01*
X175562896Y-96103033D01*
X175569303Y-96162639D01*
X175584105Y-96202326D01*
X175589088Y-96272018D01*
X175584105Y-96288988D01*
X175569303Y-96328674D01*
X175563840Y-96379491D01*
X175562896Y-96388280D01*
X175562895Y-96388292D01*
X175562895Y-97373027D01*
X175562896Y-97373033D01*
X175569303Y-97432639D01*
X175584105Y-97472326D01*
X175589088Y-97542018D01*
X175584105Y-97558988D01*
X175569303Y-97598674D01*
X175562896Y-97658273D01*
X175562896Y-97658280D01*
X175562895Y-97658292D01*
X175562895Y-98643027D01*
X175562896Y-98643033D01*
X175569303Y-98702639D01*
X175584105Y-98742326D01*
X175589088Y-98812018D01*
X175584105Y-98828988D01*
X175569303Y-98868674D01*
X175562896Y-98928273D01*
X175562896Y-98928280D01*
X175562895Y-98928292D01*
X175562895Y-99913027D01*
X175562896Y-99913033D01*
X175569303Y-99972639D01*
X175584105Y-100012326D01*
X175589088Y-100082018D01*
X175584105Y-100098988D01*
X175569303Y-100138674D01*
X175562896Y-100198273D01*
X175562895Y-100198292D01*
X175562895Y-101183027D01*
X175562896Y-101183033D01*
X175569303Y-101242639D01*
X175584105Y-101282326D01*
X175589088Y-101352018D01*
X175584105Y-101368988D01*
X175569303Y-101408674D01*
X175562896Y-101468273D01*
X175562896Y-101468280D01*
X175562895Y-101468292D01*
X175562895Y-102453027D01*
X175562896Y-102453033D01*
X175569303Y-102512639D01*
X175584105Y-102552326D01*
X175589088Y-102622018D01*
X175584105Y-102638988D01*
X175569303Y-102678674D01*
X175562896Y-102738273D01*
X175562895Y-102738292D01*
X175562895Y-103106857D01*
X175543210Y-103173896D01*
X175490406Y-103219651D01*
X175438895Y-103230857D01*
X174555324Y-103230857D01*
X174555318Y-103230858D01*
X174495712Y-103237265D01*
X174456026Y-103252067D01*
X174386334Y-103257050D01*
X174369364Y-103252067D01*
X174329676Y-103237265D01*
X174329678Y-103237265D01*
X174270078Y-103230858D01*
X174270076Y-103230857D01*
X174270068Y-103230857D01*
X174270059Y-103230857D01*
X173285324Y-103230857D01*
X173285318Y-103230858D01*
X173225712Y-103237265D01*
X173186026Y-103252067D01*
X173116334Y-103257050D01*
X173099364Y-103252067D01*
X173059676Y-103237265D01*
X173059678Y-103237265D01*
X173000078Y-103230858D01*
X173000076Y-103230857D01*
X173000068Y-103230857D01*
X173000059Y-103230857D01*
X172015324Y-103230857D01*
X172015318Y-103230858D01*
X171955712Y-103237265D01*
X171916026Y-103252067D01*
X171846334Y-103257050D01*
X171829364Y-103252067D01*
X171789676Y-103237265D01*
X171789678Y-103237265D01*
X171730078Y-103230858D01*
X171730076Y-103230857D01*
X171730068Y-103230857D01*
X171730059Y-103230857D01*
X170745324Y-103230857D01*
X170745318Y-103230858D01*
X170685712Y-103237265D01*
X170646026Y-103252067D01*
X170576334Y-103257050D01*
X170559364Y-103252067D01*
X170519676Y-103237265D01*
X170519678Y-103237265D01*
X170460078Y-103230858D01*
X170460076Y-103230857D01*
X170460068Y-103230857D01*
X170460059Y-103230857D01*
X169475324Y-103230857D01*
X169475318Y-103230858D01*
X169415712Y-103237265D01*
X169376026Y-103252067D01*
X169306334Y-103257050D01*
X169289364Y-103252067D01*
X169249676Y-103237265D01*
X169249678Y-103237265D01*
X169190078Y-103230858D01*
X169190076Y-103230857D01*
X169190068Y-103230857D01*
X169190059Y-103230857D01*
X168205324Y-103230857D01*
X168205318Y-103230858D01*
X168145712Y-103237265D01*
X168106026Y-103252067D01*
X168036334Y-103257050D01*
X168019364Y-103252067D01*
X167979676Y-103237265D01*
X167979678Y-103237265D01*
X167920078Y-103230858D01*
X167920076Y-103230857D01*
X167920068Y-103230857D01*
X167920059Y-103230857D01*
X166935324Y-103230857D01*
X166935318Y-103230858D01*
X166875712Y-103237265D01*
X166836026Y-103252067D01*
X166766334Y-103257050D01*
X166749364Y-103252067D01*
X166709676Y-103237265D01*
X166709678Y-103237265D01*
X166650078Y-103230858D01*
X166650076Y-103230857D01*
X166650068Y-103230857D01*
X166650059Y-103230857D01*
X165665324Y-103230857D01*
X165665318Y-103230858D01*
X165605712Y-103237265D01*
X165566026Y-103252067D01*
X165496334Y-103257050D01*
X165479364Y-103252067D01*
X165439676Y-103237265D01*
X165439678Y-103237265D01*
X165380078Y-103230858D01*
X165380076Y-103230857D01*
X165380068Y-103230857D01*
X165380059Y-103230857D01*
X164395324Y-103230857D01*
X164395318Y-103230858D01*
X164335712Y-103237265D01*
X164296026Y-103252067D01*
X164226334Y-103257050D01*
X164209364Y-103252067D01*
X164169676Y-103237265D01*
X164169678Y-103237265D01*
X164110078Y-103230858D01*
X164110076Y-103230857D01*
X164110068Y-103230857D01*
X164110059Y-103230857D01*
X163125324Y-103230857D01*
X163125318Y-103230858D01*
X163065712Y-103237265D01*
X163026026Y-103252067D01*
X162956334Y-103257050D01*
X162939364Y-103252067D01*
X162899676Y-103237265D01*
X162899678Y-103237265D01*
X162840078Y-103230858D01*
X162840076Y-103230857D01*
X162840068Y-103230857D01*
X162840060Y-103230857D01*
X162360364Y-103230857D01*
X162293325Y-103211172D01*
X162247570Y-103158368D01*
X162237626Y-103089210D01*
X162266651Y-103025654D01*
X162272683Y-103019176D01*
X162688703Y-102603157D01*
X163249895Y-102041965D01*
X163311218Y-102008480D01*
X163337576Y-102005646D01*
X163393939Y-102005646D01*
X163393941Y-102005646D01*
X163579098Y-101966290D01*
X163752025Y-101889297D01*
X163905166Y-101778034D01*
X164031828Y-101637362D01*
X164126474Y-101473430D01*
X164184969Y-101293402D01*
X164203542Y-101116682D01*
X164230127Y-101052070D01*
X164287424Y-101012085D01*
X164326863Y-101005646D01*
X165583929Y-101005646D01*
X165650968Y-101025331D01*
X165676076Y-101046671D01*
X165767513Y-101148221D01*
X165799371Y-101171367D01*
X165920649Y-101259481D01*
X165920654Y-101259484D01*
X166093576Y-101336475D01*
X166093581Y-101336477D01*
X166278738Y-101375833D01*
X166278739Y-101375833D01*
X166468028Y-101375833D01*
X166468030Y-101375833D01*
X166653187Y-101336477D01*
X166826114Y-101259484D01*
X166979255Y-101148221D01*
X167105917Y-101007549D01*
X167200563Y-100843617D01*
X167259058Y-100663589D01*
X167278844Y-100475333D01*
X167259058Y-100287077D01*
X167200563Y-100107049D01*
X167105917Y-99943117D01*
X166979255Y-99802445D01*
X166979254Y-99802444D01*
X166826118Y-99691184D01*
X166826113Y-99691181D01*
X166653191Y-99614190D01*
X166653186Y-99614188D01*
X166507385Y-99583198D01*
X166468030Y-99574833D01*
X166278738Y-99574833D01*
X166246281Y-99581731D01*
X166093581Y-99614188D01*
X166093576Y-99614190D01*
X165920654Y-99691181D01*
X165920649Y-99691184D01*
X165871403Y-99726964D01*
X165805596Y-99750444D01*
X165798518Y-99750646D01*
X161981473Y-99750646D01*
X161965824Y-99748918D01*
X161965798Y-99749200D01*
X161958030Y-99748465D01*
X161890588Y-99750585D01*
X161886694Y-99750646D01*
X161859029Y-99750646D01*
X161855020Y-99751152D01*
X161843390Y-99752067D01*
X161799563Y-99753444D01*
X161799562Y-99753445D01*
X161780221Y-99759063D01*
X161761184Y-99763005D01*
X161741218Y-99765528D01*
X161741212Y-99765530D01*
X161700469Y-99781660D01*
X161689424Y-99785441D01*
X161647321Y-99797674D01*
X161647315Y-99797676D01*
X161629977Y-99807929D01*
X161612520Y-99816481D01*
X161593803Y-99823893D01*
X161558347Y-99849653D01*
X161548586Y-99856064D01*
X161510852Y-99878380D01*
X161496612Y-99892620D01*
X161481826Y-99905248D01*
X161465539Y-99917082D01*
X161437596Y-99950858D01*
X161429735Y-99959496D01*
X160774175Y-100615057D01*
X160712852Y-100648542D01*
X160643161Y-100643558D01*
X160587227Y-100601687D01*
X160562810Y-100536222D01*
X160562494Y-100527376D01*
X160562494Y-100198286D01*
X160562493Y-100198276D01*
X160556086Y-100138673D01*
X160541285Y-100098991D01*
X160536300Y-100029299D01*
X160541284Y-100012326D01*
X160556086Y-99972640D01*
X160562495Y-99913030D01*
X160562494Y-98928285D01*
X160556086Y-98868674D01*
X160550791Y-98854479D01*
X160541285Y-98828991D01*
X160536300Y-98759299D01*
X160541284Y-98742326D01*
X160556086Y-98702640D01*
X160562495Y-98643030D01*
X160562494Y-97658285D01*
X160556086Y-97598674D01*
X160541285Y-97558991D01*
X160536300Y-97489299D01*
X160541284Y-97472326D01*
X160556086Y-97432640D01*
X160562495Y-97373030D01*
X160562494Y-96388285D01*
X160556086Y-96328674D01*
X160545325Y-96299824D01*
X160541285Y-96288991D01*
X160536300Y-96219299D01*
X160541284Y-96202326D01*
X160556086Y-96162640D01*
X160562495Y-96103030D01*
X160562494Y-95118285D01*
X160556086Y-95058674D01*
X160541285Y-95018991D01*
X160536300Y-94949299D01*
X160541284Y-94932326D01*
X160556086Y-94892640D01*
X160562495Y-94833030D01*
X160562494Y-93848285D01*
X160556086Y-93788674D01*
X160541285Y-93748991D01*
X160536300Y-93679299D01*
X160541284Y-93662326D01*
X160556086Y-93622640D01*
X160562495Y-93563030D01*
X160562494Y-92578285D01*
X160556086Y-92518674D01*
X160541285Y-92478991D01*
X160536300Y-92409299D01*
X160541284Y-92392326D01*
X160556086Y-92352640D01*
X160562495Y-92293030D01*
X160562494Y-91308285D01*
X160556086Y-91248674D01*
X160555239Y-91246404D01*
X160541285Y-91208991D01*
X160536300Y-91139299D01*
X160541284Y-91122326D01*
X160556086Y-91082640D01*
X160562495Y-91023030D01*
X160562494Y-90038285D01*
X160556086Y-89978674D01*
X160541285Y-89938991D01*
X160536300Y-89869299D01*
X160541284Y-89852326D01*
X160556086Y-89812640D01*
X160562495Y-89753030D01*
X160562494Y-88768285D01*
X160556086Y-88708674D01*
X160552546Y-88699184D01*
X160541285Y-88668991D01*
X160536300Y-88599299D01*
X160541284Y-88582326D01*
X160556086Y-88542640D01*
X160562495Y-88483030D01*
X160562494Y-87498285D01*
X160556086Y-87438674D01*
X160555565Y-87437278D01*
X160505792Y-87303828D01*
X160505788Y-87303821D01*
X160419542Y-87188612D01*
X160419539Y-87188609D01*
X160304330Y-87102363D01*
X160304323Y-87102359D01*
X160169477Y-87052065D01*
X160169478Y-87052065D01*
X160109878Y-87045658D01*
X160109876Y-87045657D01*
X160109868Y-87045657D01*
X160109860Y-87045657D01*
X158753498Y-87045657D01*
X158686459Y-87025972D01*
X158665817Y-87009338D01*
X154745913Y-83089434D01*
X154712428Y-83028111D01*
X154709594Y-83001753D01*
X154709594Y-78714273D01*
X154711322Y-78698622D01*
X154711040Y-78698596D01*
X154711774Y-78690833D01*
X154709655Y-78623390D01*
X154709594Y-78619496D01*
X154709594Y-78591839D01*
X154709594Y-78591833D01*
X154709087Y-78587828D01*
X154708171Y-78576180D01*
X154707955Y-78569307D01*
X154706795Y-78532367D01*
X154701176Y-78513027D01*
X154697233Y-78493994D01*
X154694710Y-78474016D01*
X154678575Y-78433264D01*
X154674792Y-78422216D01*
X154662562Y-78380118D01*
X154659494Y-78374931D01*
X154652314Y-78362789D01*
X154643753Y-78345313D01*
X154636347Y-78326606D01*
X154610583Y-78291146D01*
X154604175Y-78281390D01*
X154581858Y-78243653D01*
X154581855Y-78243650D01*
X154581854Y-78243648D01*
X154567621Y-78229416D01*
X154554985Y-78214623D01*
X154543157Y-78198342D01*
X154543155Y-78198339D01*
X154509387Y-78170404D01*
X154500747Y-78162542D01*
X154291912Y-77953707D01*
X154258427Y-77892384D01*
X154255593Y-77866035D01*
X154255593Y-77279301D01*
X154251443Y-77238679D01*
X154245093Y-77176512D01*
X154245092Y-77176509D01*
X154216214Y-77089361D01*
X154189908Y-77009975D01*
X154097806Y-76860653D01*
X153973750Y-76736597D01*
X153824428Y-76644495D01*
X153657891Y-76589310D01*
X153657889Y-76589309D01*
X153555104Y-76578809D01*
X152505092Y-76578809D01*
X152505074Y-76578810D01*
X152402297Y-76589309D01*
X152402294Y-76589310D01*
X152235762Y-76644494D01*
X152235757Y-76644496D01*
X152086436Y-76736598D01*
X151962383Y-76860651D01*
X151870281Y-77009972D01*
X151870280Y-77009975D01*
X151843975Y-77089360D01*
X151841933Y-77095521D01*
X151802160Y-77152965D01*
X151737644Y-77179788D01*
X151724227Y-77180516D01*
X148927234Y-77180516D01*
X148860195Y-77160831D01*
X148821696Y-77121613D01*
X148805602Y-77095521D01*
X148801802Y-77089360D01*
X148677746Y-76965304D01*
X148528424Y-76873202D01*
X148361887Y-76818017D01*
X148361885Y-76818016D01*
X148259100Y-76807516D01*
X147209088Y-76807516D01*
X147209070Y-76807517D01*
X147106293Y-76818016D01*
X147106290Y-76818017D01*
X146939758Y-76873201D01*
X146939753Y-76873203D01*
X146790432Y-76965305D01*
X146666379Y-77089358D01*
X146574277Y-77238679D01*
X146574276Y-77238682D01*
X146519091Y-77405219D01*
X146519091Y-77405220D01*
X146519090Y-77405220D01*
X146508590Y-77507999D01*
X146508590Y-78108017D01*
X146508591Y-78108035D01*
X146519090Y-78210812D01*
X146519091Y-78210815D01*
X146574275Y-78377347D01*
X146574277Y-78377352D01*
X146608768Y-78433270D01*
X146666378Y-78526672D01*
X146790434Y-78650728D01*
X146939756Y-78742830D01*
X147106293Y-78798015D01*
X147209081Y-78808516D01*
X147795808Y-78808515D01*
X147862847Y-78828199D01*
X147883489Y-78844834D01*
X148122271Y-79083616D01*
X148155756Y-79144939D01*
X148158590Y-79171297D01*
X148158590Y-79892663D01*
X148138905Y-79959702D01*
X148122271Y-79980344D01*
X129146449Y-98956166D01*
X129085126Y-98989651D01*
X129058768Y-98992485D01*
X128527854Y-98992485D01*
X128460815Y-98972800D01*
X128418496Y-98926939D01*
X128365030Y-98826912D01*
X128361097Y-98822120D01*
X128310077Y-98759950D01*
X128235628Y-98669232D01*
X128153673Y-98601975D01*
X128077952Y-98539833D01*
X128077948Y-98539831D01*
X128077946Y-98539829D01*
X127898066Y-98443680D01*
X127702867Y-98384467D01*
X127499876Y-98364475D01*
X127296884Y-98384467D01*
X127101685Y-98443680D01*
X126921805Y-98539829D01*
X126764123Y-98669232D01*
X126634720Y-98826914D01*
X126538571Y-99006794D01*
X126479358Y-99201993D01*
X126468074Y-99316567D01*
X126464376Y-99354117D01*
X126464376Y-99885853D01*
X125995376Y-99885853D01*
X125995375Y-98854478D01*
X126015060Y-98787440D01*
X126031689Y-98766803D01*
X139748661Y-85049831D01*
X139762280Y-85038061D01*
X139781691Y-85023612D01*
X139813731Y-84985427D01*
X139821020Y-84977472D01*
X139824980Y-84973514D01*
X139844324Y-84949047D01*
X139846558Y-84946305D01*
X139895064Y-84888500D01*
X139895068Y-84888491D01*
X139899034Y-84882463D01*
X139899080Y-84882493D01*
X139903192Y-84876038D01*
X139903145Y-84876009D01*
X139906929Y-84869872D01*
X139906936Y-84869864D01*
X139938814Y-84801501D01*
X139940369Y-84798287D01*
X139974221Y-84730884D01*
X139974223Y-84730871D01*
X139976690Y-84724097D01*
X139976743Y-84724116D01*
X139979255Y-84716888D01*
X139979204Y-84716871D01*
X139981474Y-84710018D01*
X139981474Y-84710016D01*
X139981476Y-84710013D01*
X139996742Y-84636074D01*
X139997494Y-84632683D01*
X140014897Y-84559261D01*
X140014897Y-84559254D01*
X140015735Y-84552088D01*
X140015789Y-84552094D01*
X140016567Y-84544478D01*
X140016514Y-84544474D01*
X140017143Y-84537283D01*
X140014949Y-84461877D01*
X140014897Y-84458271D01*
X140014897Y-84307236D01*
X140034582Y-84240197D01*
X140073887Y-84201644D01*
X140078288Y-84198935D01*
X140253415Y-84044804D01*
X140399975Y-83863293D01*
X140474593Y-83729721D01*
X140513750Y-83659627D01*
X140514351Y-83657927D01*
X140591470Y-83439657D01*
X140624653Y-83246133D01*
X140630896Y-83209728D01*
X140630897Y-83209719D01*
X140630897Y-82584857D01*
X140630896Y-82584838D01*
X140616068Y-82410626D01*
X140616067Y-82410624D01*
X140616067Y-82410620D01*
X140557282Y-82184854D01*
X140461189Y-81972271D01*
X140330550Y-81778985D01*
X140169125Y-81610557D01*
X140169124Y-81610556D01*
X140169123Y-81610555D01*
X139981562Y-81471835D01*
X139899303Y-81430361D01*
X139773244Y-81366803D01*
X139550177Y-81298490D01*
X139550175Y-81298489D01*
X139550173Y-81298489D01*
X139318767Y-81268856D01*
X139085696Y-81278758D01*
X139085687Y-81278759D01*
X138857630Y-81327909D01*
X138857627Y-81327910D01*
X138641165Y-81414892D01*
X138442507Y-81537210D01*
X138267377Y-81691343D01*
X138267374Y-81691346D01*
X138120823Y-81872846D01*
X138120818Y-81872852D01*
X138007043Y-82076518D01*
X137929326Y-82296481D01*
X137929323Y-82296493D01*
X137889897Y-82526417D01*
X137889897Y-83151307D01*
X137904725Y-83325519D01*
X137904726Y-83325521D01*
X137904726Y-83325524D01*
X137904727Y-83325526D01*
X137916821Y-83371973D01*
X137963511Y-83551291D01*
X138051524Y-83745997D01*
X138059605Y-83763875D01*
X138190244Y-83957161D01*
X138262361Y-84032407D01*
X138351674Y-84125594D01*
X138352026Y-84125904D01*
X138352132Y-84126072D01*
X138355314Y-84129392D01*
X138354638Y-84130039D01*
X138389343Y-84184973D01*
X138388800Y-84254841D01*
X138357779Y-84306664D01*
X131038831Y-91625613D01*
X130977508Y-91659098D01*
X130907816Y-91654114D01*
X130851883Y-91612242D01*
X130827622Y-91548740D01*
X130815600Y-91411332D01*
X130829366Y-91342834D01*
X130851444Y-91312848D01*
X134668661Y-87495631D01*
X134682280Y-87483861D01*
X134701691Y-87469412D01*
X134733731Y-87431227D01*
X134741020Y-87423272D01*
X134744980Y-87419314D01*
X134764331Y-87394839D01*
X134766572Y-87392088D01*
X134815064Y-87334300D01*
X134815065Y-87334297D01*
X134819034Y-87328263D01*
X134819081Y-87328294D01*
X134823187Y-87321849D01*
X134823140Y-87321820D01*
X134826931Y-87315672D01*
X134826931Y-87315670D01*
X134826936Y-87315665D01*
X134858833Y-87247259D01*
X134860373Y-87244079D01*
X134894221Y-87176684D01*
X134894223Y-87176671D01*
X134896690Y-87169897D01*
X134896743Y-87169916D01*
X134899255Y-87162688D01*
X134899204Y-87162671D01*
X134901477Y-87155811D01*
X134916730Y-87081938D01*
X134917511Y-87078414D01*
X134923756Y-87052065D01*
X134934897Y-87005061D01*
X134934897Y-87005058D01*
X134935736Y-86997888D01*
X134935788Y-86997894D01*
X134936566Y-86990279D01*
X134936513Y-86990275D01*
X134937142Y-86983084D01*
X134934949Y-86907712D01*
X134934897Y-86904106D01*
X134934897Y-84548676D01*
X134954582Y-84481637D01*
X135007386Y-84435882D01*
X135019893Y-84430970D01*
X135119731Y-84397887D01*
X135269053Y-84305785D01*
X135393109Y-84181729D01*
X135485211Y-84032407D01*
X135540396Y-83865870D01*
X135550897Y-83763082D01*
X135550896Y-81973065D01*
X135540396Y-81870276D01*
X135485211Y-81703739D01*
X135393109Y-81554417D01*
X135269053Y-81430361D01*
X135166013Y-81366806D01*
X135119733Y-81338260D01*
X135119728Y-81338258D01*
X135118259Y-81337771D01*
X134953194Y-81283074D01*
X134953192Y-81283073D01*
X134850407Y-81272573D01*
X133510395Y-81272573D01*
X133510378Y-81272574D01*
X133407600Y-81283073D01*
X133407597Y-81283074D01*
X133241065Y-81338258D01*
X133241060Y-81338260D01*
X133091739Y-81430362D01*
X132967686Y-81554415D01*
X132875584Y-81703736D01*
X132875583Y-81703739D01*
X132820398Y-81870276D01*
X132820398Y-81870277D01*
X132820397Y-81870277D01*
X132809897Y-81973056D01*
X132809897Y-83763074D01*
X132809898Y-83763091D01*
X132820397Y-83865869D01*
X132820398Y-83865872D01*
X132875582Y-84032404D01*
X132875583Y-84032407D01*
X132967685Y-84181729D01*
X133091741Y-84305785D01*
X133241063Y-84397887D01*
X133310850Y-84421012D01*
X133340901Y-84430970D01*
X133398346Y-84470743D01*
X133425169Y-84535259D01*
X133425897Y-84548676D01*
X133425897Y-86552986D01*
X133406212Y-86620025D01*
X133389578Y-86640667D01*
X129784423Y-90245821D01*
X129723100Y-90279306D01*
X129685936Y-90281668D01*
X129524279Y-90267526D01*
X129524274Y-90267526D01*
X129297589Y-90287358D01*
X129297578Y-90287360D01*
X129077787Y-90346252D01*
X129077778Y-90346255D01*
X128871543Y-90442425D01*
X128871541Y-90442426D01*
X128685134Y-90572948D01*
X128524230Y-90733852D01*
X128393708Y-90920259D01*
X128393707Y-90920261D01*
X128297537Y-91126496D01*
X128297534Y-91126505D01*
X128238642Y-91346296D01*
X128238640Y-91346307D01*
X128218808Y-91572992D01*
X128218808Y-91572995D01*
X128238640Y-91799680D01*
X128238642Y-91799691D01*
X128297534Y-92019482D01*
X128297537Y-92019491D01*
X128393707Y-92225726D01*
X128393708Y-92225728D01*
X128524230Y-92412135D01*
X128685134Y-92573039D01*
X128685137Y-92573041D01*
X128871542Y-92703562D01*
X129077780Y-92799733D01*
X129077785Y-92799734D01*
X129077787Y-92799735D01*
X129130691Y-92813910D01*
X129297584Y-92858629D01*
X129467492Y-92873494D01*
X129500021Y-92876340D01*
X129565090Y-92901792D01*
X129606069Y-92958383D01*
X129609947Y-93028145D01*
X129576895Y-93087549D01*
X124471618Y-98192826D01*
X124457989Y-98204605D01*
X124438583Y-98219053D01*
X124406550Y-98257227D01*
X124399263Y-98265180D01*
X124395296Y-98269148D01*
X124395294Y-98269150D01*
X124375965Y-98293595D01*
X124373690Y-98296388D01*
X124323253Y-98356497D01*
X124271597Y-98392974D01*
X124182545Y-98426188D01*
X124182540Y-98426191D01*
X124067331Y-98512437D01*
X124067328Y-98512440D01*
X123981082Y-98627649D01*
X123981078Y-98627656D01*
X123930784Y-98762502D01*
X123924377Y-98822101D01*
X123924376Y-98822120D01*
X123924376Y-100417855D01*
X122658776Y-100417855D01*
X122658776Y-92994915D01*
X122678461Y-92927876D01*
X122731265Y-92882121D01*
X122769523Y-92871625D01*
X122811759Y-92867085D01*
X122946607Y-92816790D01*
X123061822Y-92730540D01*
X123148072Y-92615325D01*
X123198367Y-92480477D01*
X123204776Y-92420867D01*
X123204775Y-90725122D01*
X123198367Y-90665511D01*
X123163843Y-90572948D01*
X123148073Y-90530665D01*
X123148069Y-90530658D01*
X123061823Y-90415449D01*
X123061820Y-90415446D01*
X122946611Y-90329200D01*
X122946604Y-90329196D01*
X122811758Y-90278902D01*
X122811759Y-90278902D01*
X122752159Y-90272495D01*
X122752157Y-90272494D01*
X122752149Y-90272494D01*
X122752141Y-90272494D01*
X121722162Y-90272494D01*
X121655123Y-90252809D01*
X121634481Y-90236175D01*
X119130283Y-87731977D01*
X119096798Y-87670654D01*
X119093964Y-87644296D01*
X119093964Y-85206606D01*
X119113649Y-85139567D01*
X119166453Y-85093812D01*
X119178960Y-85088900D01*
X119278798Y-85055817D01*
X119428120Y-84963715D01*
X119552176Y-84839659D01*
X119644278Y-84690337D01*
X119699463Y-84523800D01*
X119709964Y-84421012D01*
X119709963Y-82630995D01*
X119699463Y-82528206D01*
X119644278Y-82361669D01*
X119552176Y-82212347D01*
X119428120Y-82088291D01*
X119278798Y-81996189D01*
X119112261Y-81941004D01*
X119112259Y-81941003D01*
X119009474Y-81930503D01*
X117669462Y-81930503D01*
X117669445Y-81930504D01*
X117566667Y-81941003D01*
X117566664Y-81941004D01*
X117400132Y-81996188D01*
X117400127Y-81996190D01*
X117250806Y-82088292D01*
X117126753Y-82212345D01*
X117034651Y-82361666D01*
X117034650Y-82361669D01*
X116979465Y-82528206D01*
X116979465Y-82528207D01*
X116979464Y-82528207D01*
X116968964Y-82630986D01*
X116968964Y-84421004D01*
X116968965Y-84421021D01*
X116979464Y-84523799D01*
X116979465Y-84523802D01*
X117034649Y-84690334D01*
X117034651Y-84690339D01*
X117055473Y-84724097D01*
X117126752Y-84839659D01*
X117250808Y-84963715D01*
X117400130Y-85055817D01*
X117499968Y-85088900D01*
X117557413Y-85128673D01*
X117584236Y-85193189D01*
X117584964Y-85206606D01*
X117584964Y-87944182D01*
X117583655Y-87962151D01*
X117580148Y-87986090D01*
X117584492Y-88035727D01*
X117584964Y-88046536D01*
X117584964Y-88052128D01*
X117588580Y-88083067D01*
X117588946Y-88086652D01*
X117595520Y-88161792D01*
X117596980Y-88168859D01*
X117596928Y-88168869D01*
X117598587Y-88176349D01*
X117598638Y-88176337D01*
X117600304Y-88183367D01*
X117626085Y-88254202D01*
X117627268Y-88257605D01*
X117650997Y-88329211D01*
X117654050Y-88335757D01*
X117654000Y-88335780D01*
X117657340Y-88342679D01*
X117657389Y-88342655D01*
X117660631Y-88349112D01*
X117702077Y-88412128D01*
X117704014Y-88415168D01*
X117743595Y-88479338D01*
X117748075Y-88485004D01*
X117748033Y-88485037D01*
X117752865Y-88490968D01*
X117752907Y-88490934D01*
X117757552Y-88496470D01*
X117812402Y-88548218D01*
X117814989Y-88550731D01*
X120567457Y-91303199D01*
X120600942Y-91364522D01*
X120603776Y-91390880D01*
X120603776Y-92420864D01*
X120603777Y-92420870D01*
X120610184Y-92480477D01*
X120660478Y-92615322D01*
X120660482Y-92615329D01*
X120746728Y-92730538D01*
X120746731Y-92730541D01*
X120861940Y-92816787D01*
X120861947Y-92816791D01*
X120996792Y-92867085D01*
X121039033Y-92871627D01*
X121103584Y-92898366D01*
X121143431Y-92955759D01*
X121149776Y-92994916D01*
X121149776Y-107212837D01*
X121148467Y-107230806D01*
X121144960Y-107254745D01*
X121149304Y-107304382D01*
X121149776Y-107315191D01*
X121149776Y-107320783D01*
X121153392Y-107351722D01*
X121153758Y-107355307D01*
X121160332Y-107430447D01*
X121161792Y-107437514D01*
X121161740Y-107437524D01*
X121163399Y-107445004D01*
X121163450Y-107444992D01*
X121165116Y-107452022D01*
X121190897Y-107522857D01*
X121192080Y-107526260D01*
X121215809Y-107597866D01*
X121218862Y-107604412D01*
X121218812Y-107604435D01*
X121222152Y-107611334D01*
X121222201Y-107611310D01*
X121225443Y-107617767D01*
X121266889Y-107680783D01*
X121268826Y-107683823D01*
X121308407Y-107747993D01*
X121312887Y-107753659D01*
X121312845Y-107753692D01*
X121317677Y-107759623D01*
X121317719Y-107759589D01*
X121322364Y-107765125D01*
X121377214Y-107816873D01*
X121379801Y-107819386D01*
X121954216Y-108393801D01*
X121987701Y-108455124D01*
X121990535Y-108481482D01*
X121990535Y-109628597D01*
X121990536Y-109628614D01*
X122001035Y-109731392D01*
X122001036Y-109731395D01*
X122056220Y-109897927D01*
X122056222Y-109897932D01*
X122070269Y-109920705D01*
X122148323Y-110047252D01*
X122272379Y-110171308D01*
X122421701Y-110263410D01*
X122421709Y-110263412D01*
X122423964Y-110264464D01*
X122425259Y-110265604D01*
X122427848Y-110267201D01*
X122427575Y-110267643D01*
X122476407Y-110310632D01*
X122495565Y-110377824D01*
X122475355Y-110444707D01*
X122457370Y-110466373D01*
X122328518Y-110589868D01*
X122328517Y-110589869D01*
X122189797Y-110777430D01*
X122084768Y-110985743D01*
X122084765Y-110985749D01*
X122016451Y-111208819D01*
X121986819Y-111440220D01*
X121996720Y-111673296D01*
X121996721Y-111673305D01*
X122045871Y-111901362D01*
X122045872Y-111901365D01*
X122132854Y-112117827D01*
X122132856Y-112117831D01*
X122255173Y-112316487D01*
X122380568Y-112458963D01*
X122409305Y-112491615D01*
X122409308Y-112491618D01*
X122590808Y-112638169D01*
X122590814Y-112638174D01*
X122656405Y-112674815D01*
X122794483Y-112751950D01*
X122875844Y-112780696D01*
X122932496Y-112821588D01*
X122958047Y-112886618D01*
X122958535Y-112897612D01*
X122958535Y-115061586D01*
X122938850Y-115128625D01*
X122886046Y-115174380D01*
X122816888Y-115184324D01*
X122791203Y-115177768D01*
X122718100Y-115150503D01*
X122718098Y-115150502D01*
X122658498Y-115144095D01*
X122658496Y-115144094D01*
X122658488Y-115144094D01*
X122658479Y-115144094D01*
X120937144Y-115144094D01*
X120937138Y-115144095D01*
X120877531Y-115150502D01*
X120742686Y-115200796D01*
X120742679Y-115200800D01*
X120627470Y-115287046D01*
X120627467Y-115287049D01*
X120541221Y-115402258D01*
X120541217Y-115402265D01*
X120490923Y-115537111D01*
X120484516Y-115596710D01*
X120484515Y-115596729D01*
X120484515Y-115764858D01*
X120464830Y-115831897D01*
X120412026Y-115877652D01*
X120360515Y-115888858D01*
X117423855Y-115888858D01*
X117356816Y-115869173D01*
X117311061Y-115816369D01*
X117306149Y-115803862D01*
X117299113Y-115782628D01*
X117287315Y-115747024D01*
X117195213Y-115597702D01*
X117071157Y-115473646D01*
X116951595Y-115399900D01*
X116921837Y-115381545D01*
X116921832Y-115381543D01*
X116920363Y-115381056D01*
X116755298Y-115326359D01*
X116755296Y-115326358D01*
X116652511Y-115315858D01*
X115852499Y-115315858D01*
X115852481Y-115315859D01*
X115749704Y-115326358D01*
X115749701Y-115326359D01*
X115583169Y-115381543D01*
X115583164Y-115381545D01*
X115433843Y-115473647D01*
X115340182Y-115567309D01*
X115278859Y-115600794D01*
X115209167Y-115595810D01*
X115164820Y-115567309D01*
X115071158Y-115473647D01*
X115071157Y-115473646D01*
X114951595Y-115399900D01*
X114938904Y-115392072D01*
X114892180Y-115340124D01*
X114880001Y-115286533D01*
X114880001Y-108793041D01*
X114899686Y-108726002D01*
X114916320Y-108705360D01*
X115731448Y-107890233D01*
X115792771Y-107856748D01*
X115819129Y-107853914D01*
X115875491Y-107853914D01*
X115875493Y-107853914D01*
X116060650Y-107814558D01*
X116233577Y-107737565D01*
X116386718Y-107626302D01*
X116513380Y-107485630D01*
X116608026Y-107321698D01*
X116666521Y-107141670D01*
X116686307Y-106953414D01*
X116666521Y-106765158D01*
X116608026Y-106585130D01*
X116513380Y-106421198D01*
X116386718Y-106280526D01*
X116359463Y-106260724D01*
X116233581Y-106169265D01*
X116233576Y-106169262D01*
X116060654Y-106092271D01*
X116060649Y-106092269D01*
X115914848Y-106061279D01*
X115875493Y-106052914D01*
X115686201Y-106052914D01*
X115653744Y-106059812D01*
X115501044Y-106092269D01*
X115501039Y-106092271D01*
X115328117Y-106169262D01*
X115328112Y-106169265D01*
X115174976Y-106280525D01*
X115048313Y-106421199D01*
X114953668Y-106585129D01*
X114953665Y-106585136D01*
X114899619Y-106751475D01*
X114895173Y-106765158D01*
X114879640Y-106912951D01*
X114877858Y-106929903D01*
X114851273Y-106994517D01*
X114842218Y-107004622D01*
X113867454Y-107979386D01*
X113855170Y-107989229D01*
X113855350Y-107989447D01*
X113849338Y-107994420D01*
X113803147Y-108043607D01*
X113800442Y-108046398D01*
X113780880Y-108065960D01*
X113780876Y-108065965D01*
X113778396Y-108069163D01*
X113770818Y-108078034D01*
X113740809Y-108109990D01*
X113740806Y-108109994D01*
X113731107Y-108127637D01*
X113720429Y-108143893D01*
X113708095Y-108159794D01*
X113708090Y-108159802D01*
X113690686Y-108200022D01*
X113685547Y-108210512D01*
X113664428Y-108248927D01*
X113659421Y-108268428D01*
X113653122Y-108286824D01*
X113646394Y-108302372D01*
X113645126Y-108305304D01*
X113645125Y-108305306D01*
X113638270Y-108348591D01*
X113635902Y-108360027D01*
X113625001Y-108402483D01*
X113625001Y-108422618D01*
X113623474Y-108442017D01*
X113621204Y-108456352D01*
X113620326Y-108461893D01*
X113621652Y-108475916D01*
X113624451Y-108505527D01*
X113625001Y-108517197D01*
X113625001Y-115286533D01*
X113605316Y-115353572D01*
X113566098Y-115392072D01*
X113433843Y-115473647D01*
X113309790Y-115597700D01*
X113217688Y-115747021D01*
X113217686Y-115747026D01*
X113198853Y-115803862D01*
X113162502Y-115913561D01*
X113162502Y-115913562D01*
X113162501Y-115913562D01*
X113152001Y-116016341D01*
X113152001Y-117016359D01*
X110181869Y-117016359D01*
X110181869Y-75409859D01*
X110201554Y-75342820D01*
X110254358Y-75297065D01*
X110305869Y-75285859D01*
X204502464Y-75285859D01*
X204569503Y-75305544D01*
G37*
%TD.AperFunction*%
%TD*%
M02*
