M48
; DRILL file {KiCad 7.0.10} date Tue Mar  5 16:09:26 2024
; FORMAT={-:-/ absolute / inch / decimal}
; #@! TF.CreationDate,2024-03-05T16:09:26-06:00
; #@! TF.GenerationSoftware,Kicad,Pcbnew,7.0.10
; #@! TF.FileFunction,Plated,1,2,PTH
FMAT,2
INCH
; #@! TA.AperFunction,Plated,PTH,ComponentDrill
T1C0.0118
; #@! TA.AperFunction,Plated,PTH,ViaDrill
T2C0.0230
; #@! TA.AperFunction,Plated,PTH,ComponentDrill
T3C0.0315
; #@! TA.AperFunction,Plated,PTH,ComponentDrill
T4C0.0433
; #@! TA.AperFunction,Plated,PTH,ComponentDrill
T5C0.0469
; #@! TA.AperFunction,Plated,PTH,ComponentDrill
T6C0.0550
; #@! TA.AperFunction,Plated,PTH,ComponentDrill
T7C0.1560
%
G90
G05
T1
X5.2469Y-3.259
X5.2469Y-3.319
X5.277Y-3.2289
X5.277Y-3.289
X5.277Y-3.349
X5.307Y-3.259
X5.307Y-3.319
X5.337Y-3.2289
X5.337Y-3.289
X5.337Y-3.349
X5.367Y-3.259
X5.367Y-3.319
T2
X4.694Y-3.5968
X5.2548Y-4.1222
X5.7989Y-3.7696
X6.3231Y-3.5835
X6.5174Y-3.4587
X6.6033Y-3.789
T3
X5.7162Y-4.9413
X6.0162Y-4.9413
T4
X6.7411Y-3.4997
X6.7411Y-3.5997
X6.7411Y-3.6997
T5
X6.7285Y-3.1059
X6.7285Y-3.2059
X6.7804Y-3.9803
X6.7804Y-4.0803
X6.7804Y-4.3189
X6.7804Y-4.4189
T6
X4.5Y-4.6
X4.5Y-5.035
T7
X3.977Y-4.8175
X5.165Y-4.8175
M30
