%TF.GenerationSoftware,KiCad,Pcbnew,7.0.10*%
%TF.CreationDate,2024-03-05T16:09:12-06:00*%
%TF.ProjectId,shematic for power and light system,7368656d-6174-4696-9320-666f7220706f,rev?*%
%TF.SameCoordinates,Original*%
%TF.FileFunction,Copper,L2,Bot*%
%TF.FilePolarity,Positive*%
%FSLAX46Y46*%
G04 Gerber Fmt 4.6, Leading zero omitted, Abs format (unit mm)*
G04 Created by KiCad (PCBNEW 7.0.10) date 2024-03-05 16:09:12*
%MOMM*%
%LPD*%
G01*
G04 APERTURE LIST*
G04 Aperture macros list*
%AMRoundRect*
0 Rectangle with rounded corners*
0 $1 Rounding radius*
0 $2 $3 $4 $5 $6 $7 $8 $9 X,Y pos of 4 corners*
0 Add a 4 corners polygon primitive as box body*
4,1,4,$2,$3,$4,$5,$6,$7,$8,$9,$2,$3,0*
0 Add four circle primitives for the rounded corners*
1,1,$1+$1,$2,$3*
1,1,$1+$1,$4,$5*
1,1,$1+$1,$6,$7*
1,1,$1+$1,$8,$9*
0 Add four rect primitives between the rounded corners*
20,1,$1+$1,$2,$3,$4,$5,0*
20,1,$1+$1,$4,$5,$6,$7,0*
20,1,$1+$1,$6,$7,$8,$9,0*
20,1,$1+$1,$8,$9,$2,$3,0*%
G04 Aperture macros list end*
%TA.AperFunction,ComponentPad*%
%ADD10C,1.905000*%
%TD*%
%TA.AperFunction,ComponentPad*%
%ADD11C,5.080000*%
%TD*%
%TA.AperFunction,ComponentPad*%
%ADD12R,2.000000X1.905000*%
%TD*%
%TA.AperFunction,ComponentPad*%
%ADD13O,2.000000X1.905000*%
%TD*%
%TA.AperFunction,ComponentPad*%
%ADD14RoundRect,0.250000X-0.845000X0.620000X-0.845000X-0.620000X0.845000X-0.620000X0.845000X0.620000X0*%
%TD*%
%TA.AperFunction,ComponentPad*%
%ADD15O,2.190000X1.740000*%
%TD*%
%TA.AperFunction,HeatsinkPad*%
%ADD16C,0.600000*%
%TD*%
%TA.AperFunction,ComponentPad*%
%ADD17R,1.600000X1.600000*%
%TD*%
%TA.AperFunction,ComponentPad*%
%ADD18O,1.600000X1.600000*%
%TD*%
%TA.AperFunction,ViaPad*%
%ADD19C,1.193800*%
%TD*%
%TA.AperFunction,Conductor*%
%ADD20C,0.254000*%
%TD*%
G04 APERTURE END LIST*
D10*
%TO.P,U1,1,IN*%
%TO.N,Net-(U1-IN)*%
X114300000Y-127889000D03*
%TO.P,U1,2,OUT*%
%TO.N,Net-(U1-OUT)*%
X114300000Y-116840000D03*
D11*
%TO.P,U1,3,GND*%
%TO.N,GND*%
X131191000Y-122364500D03*
%TO.P,U1,4,4*%
%TO.N,unconnected-(U1-Pad4)*%
X101015800Y-122364500D03*
%TD*%
D12*
%TO.P,Q1,1,G*%
%TO.N,Net-(Q1-G)*%
X171223388Y-88891149D03*
D13*
%TO.P,Q1,2,D*%
%TO.N,Net-(LED1-Pin_2)*%
X171223388Y-91431149D03*
%TO.P,Q1,3,S*%
%TO.N,GND*%
X171223388Y-93971149D03*
%TD*%
D14*
%TO.P,+12V1,1,Pin_1*%
%TO.N,Net-(+12V1-Pin_1)*%
X172221597Y-101099857D03*
D15*
%TO.P,+12V1,2,Pin_2*%
%TO.N,GND*%
X172221597Y-103639857D03*
%TD*%
D14*
%TO.P,BlueTooth1,1,Pin_1*%
%TO.N,Net-(BlueTooth1-Pin_1)*%
X170904782Y-78889055D03*
D15*
%TO.P,BlueTooth1,2,Pin_2*%
%TO.N,GND*%
X170904782Y-81429055D03*
%TD*%
D14*
%TO.P,LED1,1,Pin_1*%
%TO.N,Net-(+12V1-Pin_1)*%
X172221597Y-109699267D03*
D15*
%TO.P,LED1,2,Pin_2*%
%TO.N,Net-(LED1-Pin_2)*%
X172221597Y-112239267D03*
%TD*%
D16*
%TO.P,U3,39,GND*%
%TO.N,GND*%
X133272234Y-82777499D03*
X133272234Y-84302499D03*
X134034734Y-82014999D03*
X134034734Y-83539999D03*
X134034734Y-85064999D03*
X134797234Y-82777499D03*
X134797234Y-84302499D03*
X135559734Y-82014999D03*
X135559734Y-83539999D03*
X135559734Y-85064999D03*
X136322234Y-82777499D03*
X136322234Y-84302499D03*
%TD*%
D17*
%TO.P,SW1,1*%
%TO.N,Net-(+12V1-Pin_1)*%
X145192146Y-125508270D03*
D18*
%TO.P,SW1,2*%
%TO.N,Net-(U1-IN)*%
X152812146Y-125508270D03*
%TD*%
D19*
%TO.N,Net-(U3-IO0)*%
X147291326Y-95749098D03*
X160607381Y-91020499D03*
%TO.N,GND*%
X165541131Y-87851548D03*
X167722985Y-96241563D03*
%TO.N,Net-(U3-IO26)*%
X119227351Y-91358034D03*
X133473131Y-104704080D03*
%TD*%
D20*
%TO.N,Net-(U3-IO0)*%
X147241341Y-95799083D02*
X147291326Y-95749098D01*
X147241341Y-100127801D02*
X147241341Y-95799083D01*
X157518296Y-100127801D02*
X147241341Y-100127801D01*
X160607381Y-97038716D02*
X157518296Y-100127801D01*
X160607381Y-91020499D02*
X160607381Y-97038716D01*
%TO.N,GND*%
X165541131Y-94059709D02*
X167722985Y-96241563D01*
X165541131Y-87851548D02*
X165541131Y-94059709D01*
%TO.N,Net-(U3-IO26)*%
X132573397Y-104704080D02*
X119227351Y-91358034D01*
X133473131Y-104704080D02*
X132573397Y-104704080D01*
%TD*%
%TA.AperFunction,Conductor*%
%TO.N,GND*%
G36*
X179264499Y-51721281D02*
G01*
X179310254Y-51774085D01*
X179321460Y-51825596D01*
X179321460Y-137367879D01*
X179301775Y-137434918D01*
X179248971Y-137480673D01*
X179197460Y-137491879D01*
X93553957Y-137491879D01*
X93486918Y-137472194D01*
X93441163Y-137419390D01*
X93429957Y-137367879D01*
X93429957Y-127889005D01*
X112842020Y-127889005D01*
X112861904Y-128128972D01*
X112861904Y-128128975D01*
X112861905Y-128128976D01*
X112921017Y-128362405D01*
X113017745Y-128582922D01*
X113149449Y-128784510D01*
X113312537Y-128961671D01*
X113502561Y-129109572D01*
X113714336Y-129224179D01*
X113832598Y-129264778D01*
X113942083Y-129302365D01*
X113942085Y-129302365D01*
X113942087Y-129302366D01*
X114179601Y-129342000D01*
X114179602Y-129342000D01*
X114420398Y-129342000D01*
X114420399Y-129342000D01*
X114657913Y-129302366D01*
X114885664Y-129224179D01*
X115097439Y-129109572D01*
X115287463Y-128961671D01*
X115450551Y-128784510D01*
X115582255Y-128582922D01*
X115678983Y-128362405D01*
X115738095Y-128128976D01*
X115757980Y-127889000D01*
X115738095Y-127649024D01*
X115678983Y-127415595D01*
X115582255Y-127195078D01*
X115450551Y-126993490D01*
X115287463Y-126816329D01*
X115153358Y-126711951D01*
X115097441Y-126668429D01*
X114885665Y-126553821D01*
X114885656Y-126553818D01*
X114657916Y-126475634D01*
X114479777Y-126445908D01*
X114420399Y-126436000D01*
X114179601Y-126436000D01*
X114132098Y-126443926D01*
X113942083Y-126475634D01*
X113714343Y-126553818D01*
X113714334Y-126553821D01*
X113502558Y-126668429D01*
X113395106Y-126752063D01*
X113312537Y-126816329D01*
X113312534Y-126816331D01*
X113312534Y-126816332D01*
X113149449Y-126993490D01*
X113017743Y-127195081D01*
X112921017Y-127415594D01*
X112861904Y-127649027D01*
X112842020Y-127888994D01*
X112842020Y-127889005D01*
X93429957Y-127889005D01*
X93429957Y-126356140D01*
X143891646Y-126356140D01*
X143891647Y-126356146D01*
X143898054Y-126415753D01*
X143948348Y-126550598D01*
X143948352Y-126550605D01*
X144034598Y-126665814D01*
X144034601Y-126665817D01*
X144149810Y-126752063D01*
X144149817Y-126752067D01*
X144284663Y-126802361D01*
X144284662Y-126802361D01*
X144291590Y-126803105D01*
X144344273Y-126808770D01*
X146040018Y-126808769D01*
X146099629Y-126802361D01*
X146234477Y-126752066D01*
X146349692Y-126665816D01*
X146435942Y-126550601D01*
X146486237Y-126415753D01*
X146492646Y-126356143D01*
X146492646Y-125508271D01*
X151506678Y-125508271D01*
X151526510Y-125734956D01*
X151526512Y-125734967D01*
X151585404Y-125954758D01*
X151585407Y-125954767D01*
X151681577Y-126161002D01*
X151681578Y-126161004D01*
X151812100Y-126347411D01*
X151973004Y-126508315D01*
X151973007Y-126508317D01*
X152159412Y-126638838D01*
X152365650Y-126735009D01*
X152585454Y-126793905D01*
X152747376Y-126808071D01*
X152812144Y-126813738D01*
X152812146Y-126813738D01*
X152812148Y-126813738D01*
X152868953Y-126808768D01*
X153038838Y-126793905D01*
X153258642Y-126735009D01*
X153464880Y-126638838D01*
X153651285Y-126508317D01*
X153812193Y-126347409D01*
X153942714Y-126161004D01*
X154038885Y-125954766D01*
X154097781Y-125734962D01*
X154117614Y-125508270D01*
X154097781Y-125281578D01*
X154038885Y-125061774D01*
X153942714Y-124855536D01*
X153812193Y-124669131D01*
X153812191Y-124669128D01*
X153651287Y-124508224D01*
X153464880Y-124377702D01*
X153464878Y-124377701D01*
X153258643Y-124281531D01*
X153258634Y-124281528D01*
X153038843Y-124222636D01*
X153038839Y-124222635D01*
X153038838Y-124222635D01*
X153038837Y-124222634D01*
X153038832Y-124222634D01*
X152812148Y-124202802D01*
X152812144Y-124202802D01*
X152585459Y-124222634D01*
X152585448Y-124222636D01*
X152365657Y-124281528D01*
X152365648Y-124281531D01*
X152159413Y-124377701D01*
X152159411Y-124377702D01*
X151973004Y-124508224D01*
X151812100Y-124669128D01*
X151681578Y-124855535D01*
X151681577Y-124855537D01*
X151585407Y-125061772D01*
X151585404Y-125061781D01*
X151526512Y-125281572D01*
X151526510Y-125281583D01*
X151506678Y-125508268D01*
X151506678Y-125508271D01*
X146492646Y-125508271D01*
X146492645Y-124660398D01*
X146486237Y-124600787D01*
X146451713Y-124508224D01*
X146435943Y-124465941D01*
X146435939Y-124465934D01*
X146349693Y-124350725D01*
X146349690Y-124350722D01*
X146234481Y-124264476D01*
X146234474Y-124264472D01*
X146099628Y-124214178D01*
X146099629Y-124214178D01*
X146040029Y-124207771D01*
X146040027Y-124207770D01*
X146040019Y-124207770D01*
X146040010Y-124207770D01*
X144344275Y-124207770D01*
X144344269Y-124207771D01*
X144284662Y-124214178D01*
X144149817Y-124264472D01*
X144149810Y-124264476D01*
X144034601Y-124350722D01*
X144034598Y-124350725D01*
X143948352Y-124465934D01*
X143948348Y-124465941D01*
X143898054Y-124600787D01*
X143891647Y-124660386D01*
X143891647Y-124660393D01*
X143891646Y-124660405D01*
X143891646Y-126356140D01*
X93429957Y-126356140D01*
X93429957Y-122364500D01*
X97970509Y-122364500D01*
X97989656Y-122705459D01*
X97989657Y-122705464D01*
X98046861Y-123042141D01*
X98141401Y-123370296D01*
X98169592Y-123438354D01*
X98272087Y-123685800D01*
X98437280Y-123984696D01*
X98437283Y-123984701D01*
X98634675Y-124262897D01*
X98634896Y-124263208D01*
X98862454Y-124517846D01*
X99117092Y-124745404D01*
X99117095Y-124745406D01*
X99117096Y-124745407D01*
X99395598Y-124943016D01*
X99395603Y-124943019D01*
X99395606Y-124943020D01*
X99395608Y-124943022D01*
X99694498Y-125108212D01*
X100010004Y-125238899D01*
X100338159Y-125333439D01*
X100674836Y-125390643D01*
X101015800Y-125409791D01*
X101356764Y-125390643D01*
X101693441Y-125333439D01*
X102021596Y-125238899D01*
X102337102Y-125108212D01*
X102635992Y-124943022D01*
X102635997Y-124943018D01*
X102636001Y-124943016D01*
X102759293Y-124855535D01*
X102914508Y-124745404D01*
X103169146Y-124517846D01*
X103396704Y-124263208D01*
X103594322Y-123984692D01*
X103759512Y-123685802D01*
X103890199Y-123370296D01*
X103984739Y-123042141D01*
X104041943Y-122705464D01*
X104061091Y-122364500D01*
X128146210Y-122364500D01*
X128165354Y-122705403D01*
X128165356Y-122705415D01*
X128222548Y-123042026D01*
X128222550Y-123042035D01*
X128317071Y-123370124D01*
X128447738Y-123685583D01*
X128612903Y-123984426D01*
X128810488Y-124262897D01*
X128871159Y-124330786D01*
X129624313Y-123577632D01*
X129689884Y-123665224D01*
X129890276Y-123865616D01*
X129977866Y-123931185D01*
X129224712Y-124684339D01*
X129292605Y-124745013D01*
X129292610Y-124745017D01*
X129571073Y-124942596D01*
X129869916Y-125107761D01*
X130185375Y-125238428D01*
X130513464Y-125332949D01*
X130513473Y-125332951D01*
X130850084Y-125390143D01*
X130850096Y-125390145D01*
X131191000Y-125409289D01*
X131531903Y-125390145D01*
X131531915Y-125390143D01*
X131868526Y-125332951D01*
X131868535Y-125332949D01*
X132196624Y-125238428D01*
X132512083Y-125107761D01*
X132810926Y-124942596D01*
X133089396Y-124745012D01*
X133089407Y-124745003D01*
X133157287Y-124684340D01*
X133157287Y-124684339D01*
X132404133Y-123931185D01*
X132491724Y-123865616D01*
X132692116Y-123665224D01*
X132757685Y-123577633D01*
X133510839Y-124330787D01*
X133510840Y-124330787D01*
X133571503Y-124262907D01*
X133571512Y-124262896D01*
X133769096Y-123984426D01*
X133934261Y-123685583D01*
X134064928Y-123370124D01*
X134159449Y-123042035D01*
X134159451Y-123042026D01*
X134216643Y-122705415D01*
X134216645Y-122705403D01*
X134235789Y-122364500D01*
X134216645Y-122023596D01*
X134216643Y-122023584D01*
X134159451Y-121686973D01*
X134159449Y-121686964D01*
X134064928Y-121358875D01*
X133934261Y-121043416D01*
X133769096Y-120744573D01*
X133571517Y-120466110D01*
X133571513Y-120466105D01*
X133510839Y-120398212D01*
X132757685Y-121151366D01*
X132692116Y-121063776D01*
X132491724Y-120863384D01*
X132404132Y-120797813D01*
X133157286Y-120044659D01*
X133089397Y-119983988D01*
X132810926Y-119786403D01*
X132512083Y-119621238D01*
X132196624Y-119490571D01*
X131868535Y-119396050D01*
X131868526Y-119396048D01*
X131531915Y-119338856D01*
X131531903Y-119338854D01*
X131191000Y-119319710D01*
X130850096Y-119338854D01*
X130850084Y-119338856D01*
X130513473Y-119396048D01*
X130513464Y-119396050D01*
X130185375Y-119490571D01*
X129869916Y-119621238D01*
X129571073Y-119786403D01*
X129292599Y-119983991D01*
X129224712Y-120044659D01*
X129977867Y-120797814D01*
X129890276Y-120863384D01*
X129689884Y-121063776D01*
X129624314Y-121151367D01*
X128871159Y-120398212D01*
X128810491Y-120466099D01*
X128612903Y-120744573D01*
X128447738Y-121043416D01*
X128317071Y-121358875D01*
X128222550Y-121686964D01*
X128222548Y-121686973D01*
X128165356Y-122023584D01*
X128165354Y-122023596D01*
X128146210Y-122364500D01*
X104061091Y-122364500D01*
X104041943Y-122023536D01*
X103984739Y-121686859D01*
X103890199Y-121358704D01*
X103759512Y-121043198D01*
X103594322Y-120744308D01*
X103594320Y-120744306D01*
X103594319Y-120744303D01*
X103594316Y-120744298D01*
X103396707Y-120465796D01*
X103396706Y-120465795D01*
X103396704Y-120465792D01*
X103169146Y-120211154D01*
X102914508Y-119983596D01*
X102914505Y-119983594D01*
X102914503Y-119983592D01*
X102636001Y-119785983D01*
X102635996Y-119785980D01*
X102337100Y-119620787D01*
X102271756Y-119593721D01*
X102021596Y-119490101D01*
X101937248Y-119465800D01*
X101693446Y-119395562D01*
X101693437Y-119395560D01*
X101356771Y-119338358D01*
X101356759Y-119338356D01*
X101015800Y-119319209D01*
X100674840Y-119338356D01*
X100674828Y-119338358D01*
X100338162Y-119395560D01*
X100338153Y-119395562D01*
X100010007Y-119490100D01*
X100010004Y-119490101D01*
X99917596Y-119528377D01*
X99694499Y-119620787D01*
X99395603Y-119785980D01*
X99395598Y-119785983D01*
X99117096Y-119983592D01*
X98862454Y-120211154D01*
X98634892Y-120465796D01*
X98437283Y-120744298D01*
X98437280Y-120744303D01*
X98272087Y-121043199D01*
X98141400Y-121358707D01*
X98046862Y-121686853D01*
X98046860Y-121686862D01*
X97989658Y-122023528D01*
X97989656Y-122023540D01*
X97970509Y-122364500D01*
X93429957Y-122364500D01*
X93429957Y-116840005D01*
X112842020Y-116840005D01*
X112861904Y-117079972D01*
X112861904Y-117079975D01*
X112861905Y-117079976D01*
X112921017Y-117313405D01*
X113017745Y-117533922D01*
X113149449Y-117735510D01*
X113312537Y-117912671D01*
X113502561Y-118060572D01*
X113714336Y-118175179D01*
X113832598Y-118215778D01*
X113942083Y-118253365D01*
X113942085Y-118253365D01*
X113942087Y-118253366D01*
X114179601Y-118293000D01*
X114179602Y-118293000D01*
X114420398Y-118293000D01*
X114420399Y-118293000D01*
X114657913Y-118253366D01*
X114885664Y-118175179D01*
X115097439Y-118060572D01*
X115287463Y-117912671D01*
X115450551Y-117735510D01*
X115582255Y-117533922D01*
X115678983Y-117313405D01*
X115738095Y-117079976D01*
X115757980Y-116840000D01*
X115738095Y-116600024D01*
X115678983Y-116366595D01*
X115582255Y-116146078D01*
X115450551Y-115944490D01*
X115287463Y-115767329D01*
X115153358Y-115662951D01*
X115097441Y-115619429D01*
X114885665Y-115504821D01*
X114885656Y-115504818D01*
X114657916Y-115426634D01*
X114479777Y-115396908D01*
X114420399Y-115387000D01*
X114179601Y-115387000D01*
X114132098Y-115394926D01*
X113942083Y-115426634D01*
X113714343Y-115504818D01*
X113714334Y-115504821D01*
X113502558Y-115619429D01*
X113368456Y-115723805D01*
X113312537Y-115767329D01*
X113312534Y-115767331D01*
X113312534Y-115767332D01*
X113149449Y-115944490D01*
X113017743Y-116146081D01*
X112921017Y-116366594D01*
X112861904Y-116600027D01*
X112842020Y-116839994D01*
X112842020Y-116840005D01*
X93429957Y-116840005D01*
X93429957Y-112180891D01*
X170622381Y-112180891D01*
X170632282Y-112413967D01*
X170632283Y-112413976D01*
X170681433Y-112642033D01*
X170681434Y-112642036D01*
X170768416Y-112858498D01*
X170768418Y-112858502D01*
X170890735Y-113057158D01*
X170970680Y-113147993D01*
X171044867Y-113232286D01*
X171044870Y-113232289D01*
X171226370Y-113378840D01*
X171226376Y-113378845D01*
X171430042Y-113492620D01*
X171430045Y-113492621D01*
X171650013Y-113570340D01*
X171778322Y-113592341D01*
X171879941Y-113609766D01*
X171879950Y-113609767D01*
X172504812Y-113609767D01*
X172504813Y-113609767D01*
X172504814Y-113609766D01*
X172504831Y-113609766D01*
X172679043Y-113594938D01*
X172679043Y-113594937D01*
X172679050Y-113594937D01*
X172904816Y-113536152D01*
X173117399Y-113440059D01*
X173310685Y-113309420D01*
X173479113Y-113147995D01*
X173617837Y-112960428D01*
X173722867Y-112752114D01*
X173791180Y-112529047D01*
X173820813Y-112297643D01*
X173810911Y-112064560D01*
X173761761Y-111836502D01*
X173674776Y-111620032D01*
X173552459Y-111421376D01*
X173398328Y-111246249D01*
X173398326Y-111246247D01*
X173398323Y-111246244D01*
X173358305Y-111213932D01*
X173318512Y-111156502D01*
X173316085Y-111086674D01*
X173351796Y-111026620D01*
X173383812Y-111005068D01*
X173385923Y-111004083D01*
X173385931Y-111004081D01*
X173535253Y-110911979D01*
X173659309Y-110787923D01*
X173751411Y-110638601D01*
X173806596Y-110472064D01*
X173817097Y-110369276D01*
X173817096Y-109029259D01*
X173806596Y-108926470D01*
X173751411Y-108759933D01*
X173659309Y-108610611D01*
X173535253Y-108486555D01*
X173385931Y-108394453D01*
X173219394Y-108339268D01*
X173219392Y-108339267D01*
X173116607Y-108328767D01*
X171326595Y-108328767D01*
X171326578Y-108328768D01*
X171223800Y-108339267D01*
X171223797Y-108339268D01*
X171057265Y-108394452D01*
X171057260Y-108394454D01*
X170907939Y-108486556D01*
X170783886Y-108610609D01*
X170691784Y-108759930D01*
X170691783Y-108759933D01*
X170636598Y-108926470D01*
X170636598Y-108926471D01*
X170636597Y-108926471D01*
X170626097Y-109029250D01*
X170626097Y-110369268D01*
X170626098Y-110369285D01*
X170636597Y-110472063D01*
X170636598Y-110472066D01*
X170691782Y-110638598D01*
X170691783Y-110638601D01*
X170783885Y-110787923D01*
X170907941Y-110911979D01*
X171057263Y-111004081D01*
X171057271Y-111004083D01*
X171059526Y-111005135D01*
X171060821Y-111006275D01*
X171063410Y-111007872D01*
X171063137Y-111008314D01*
X171111969Y-111051303D01*
X171131127Y-111118495D01*
X171110917Y-111185378D01*
X171092932Y-111207044D01*
X170964080Y-111330539D01*
X170964079Y-111330540D01*
X170825359Y-111518101D01*
X170720330Y-111726414D01*
X170720327Y-111726420D01*
X170652013Y-111949490D01*
X170622381Y-112180891D01*
X93429957Y-112180891D01*
X93429957Y-91358034D01*
X118125250Y-91358034D01*
X118144014Y-91560544D01*
X118144015Y-91560546D01*
X118199670Y-91756154D01*
X118199671Y-91756156D01*
X118199672Y-91756159D01*
X118229725Y-91816513D01*
X118290322Y-91938209D01*
X118290327Y-91938217D01*
X118412890Y-92100517D01*
X118563186Y-92237529D01*
X118563188Y-92237531D01*
X118736098Y-92344592D01*
X118736100Y-92344593D01*
X118736102Y-92344594D01*
X118925747Y-92418063D01*
X119125662Y-92455434D01*
X119125664Y-92455434D01*
X119329040Y-92455434D01*
X119356026Y-92450389D01*
X119425540Y-92457418D01*
X119466494Y-92484596D01*
X132071021Y-105089123D01*
X132080868Y-105101413D01*
X132081086Y-105101234D01*
X132086054Y-105107239D01*
X132135243Y-105153431D01*
X132138040Y-105156142D01*
X132157604Y-105175706D01*
X132160782Y-105178170D01*
X132169678Y-105185767D01*
X132201632Y-105215775D01*
X132201634Y-105215776D01*
X132219264Y-105225467D01*
X132235532Y-105236152D01*
X132251435Y-105248488D01*
X132251437Y-105248489D01*
X132251439Y-105248490D01*
X132271339Y-105257101D01*
X132291657Y-105265893D01*
X132302146Y-105271031D01*
X132340563Y-105292152D01*
X132360064Y-105297159D01*
X132378462Y-105303458D01*
X132396938Y-105311453D01*
X132440246Y-105318312D01*
X132451640Y-105320671D01*
X132494125Y-105331580D01*
X132510095Y-105331580D01*
X132577134Y-105351265D01*
X132609049Y-105380854D01*
X132658667Y-105446559D01*
X132658669Y-105446562D01*
X132808966Y-105583575D01*
X132808968Y-105583577D01*
X132981878Y-105690638D01*
X132981880Y-105690639D01*
X132981882Y-105690640D01*
X133171527Y-105764109D01*
X133371442Y-105801480D01*
X133371444Y-105801480D01*
X133574818Y-105801480D01*
X133574820Y-105801480D01*
X133774735Y-105764109D01*
X133964380Y-105690640D01*
X134137295Y-105583576D01*
X134287593Y-105446561D01*
X134410156Y-105284261D01*
X134500810Y-105102205D01*
X134556467Y-104906591D01*
X134575232Y-104704080D01*
X134568600Y-104632513D01*
X134556467Y-104501569D01*
X134556466Y-104501567D01*
X134543913Y-104457449D01*
X134500810Y-104305955D01*
X134424407Y-104152518D01*
X134410159Y-104123904D01*
X134410154Y-104123896D01*
X134287591Y-103961596D01*
X134137295Y-103824584D01*
X134137293Y-103824582D01*
X133964383Y-103717521D01*
X133964374Y-103717517D01*
X133822146Y-103662418D01*
X133774735Y-103644051D01*
X133574820Y-103606680D01*
X133371442Y-103606680D01*
X133171527Y-103644051D01*
X133171524Y-103644051D01*
X133171524Y-103644052D01*
X132981887Y-103717517D01*
X132981878Y-103717521D01*
X132808968Y-103824582D01*
X132808965Y-103824584D01*
X132777376Y-103853381D01*
X132714571Y-103883997D01*
X132645184Y-103875797D01*
X132606159Y-103849423D01*
X130526594Y-101769858D01*
X170626097Y-101769858D01*
X170626098Y-101769875D01*
X170636597Y-101872653D01*
X170636598Y-101872656D01*
X170691782Y-102039188D01*
X170691783Y-102039191D01*
X170783885Y-102188513D01*
X170907941Y-102312569D01*
X171057263Y-102404671D01*
X171057266Y-102404672D01*
X171060016Y-102405954D01*
X171061588Y-102407338D01*
X171063410Y-102408462D01*
X171063218Y-102408773D01*
X171112458Y-102452124D01*
X171131613Y-102519317D01*
X171111400Y-102586199D01*
X171093418Y-102607861D01*
X170964457Y-102731460D01*
X170964456Y-102731461D01*
X170825786Y-102918954D01*
X170720793Y-103127195D01*
X170652503Y-103350186D01*
X170647423Y-103389856D01*
X170647424Y-103389857D01*
X171681127Y-103389857D01*
X171641912Y-103484531D01*
X171621463Y-103639857D01*
X171641912Y-103795183D01*
X171681127Y-103889857D01*
X170649021Y-103889857D01*
X170681913Y-104042476D01*
X170681913Y-104042477D01*
X170768864Y-104258862D01*
X170891138Y-104457449D01*
X171045214Y-104632513D01*
X171045218Y-104632517D01*
X171226651Y-104779014D01*
X171226657Y-104779018D01*
X171430250Y-104892752D01*
X171650135Y-104970442D01*
X171650143Y-104970444D01*
X171879984Y-105009856D01*
X171879993Y-105009857D01*
X171971597Y-105009857D01*
X171971597Y-104180326D01*
X172066271Y-104219542D01*
X172182600Y-104234857D01*
X172260594Y-104234857D01*
X172376923Y-104219542D01*
X172471597Y-104180326D01*
X172471597Y-105009857D01*
X172504792Y-105009857D01*
X172504809Y-105009856D01*
X172678960Y-104995034D01*
X172904648Y-104936269D01*
X173117149Y-104840213D01*
X173117157Y-104840208D01*
X173310368Y-104709621D01*
X173478736Y-104548253D01*
X173478737Y-104548252D01*
X173617407Y-104360759D01*
X173722400Y-104152518D01*
X173790690Y-103929527D01*
X173795770Y-103889857D01*
X172762067Y-103889857D01*
X172801282Y-103795183D01*
X172821731Y-103639857D01*
X172801282Y-103484531D01*
X172762067Y-103389857D01*
X173794173Y-103389857D01*
X173794172Y-103389856D01*
X173761280Y-103237237D01*
X173761280Y-103237236D01*
X173674329Y-103020851D01*
X173552055Y-102822264D01*
X173397980Y-102647201D01*
X173357799Y-102614757D01*
X173318007Y-102557326D01*
X173315581Y-102487499D01*
X173351291Y-102427444D01*
X173383311Y-102405891D01*
X173385918Y-102404675D01*
X173385931Y-102404671D01*
X173535253Y-102312569D01*
X173659309Y-102188513D01*
X173751411Y-102039191D01*
X173806596Y-101872654D01*
X173817097Y-101769866D01*
X173817096Y-100429849D01*
X173806596Y-100327060D01*
X173751411Y-100160523D01*
X173659309Y-100011201D01*
X173535253Y-99887145D01*
X173385931Y-99795043D01*
X173219394Y-99739858D01*
X173219392Y-99739857D01*
X173116607Y-99729357D01*
X171326595Y-99729357D01*
X171326578Y-99729358D01*
X171223800Y-99739857D01*
X171223797Y-99739858D01*
X171057265Y-99795042D01*
X171057260Y-99795044D01*
X170907939Y-99887146D01*
X170783886Y-100011199D01*
X170691784Y-100160520D01*
X170691783Y-100160523D01*
X170636598Y-100327060D01*
X170636598Y-100327061D01*
X170636597Y-100327061D01*
X170626097Y-100429840D01*
X170626097Y-101769858D01*
X130526594Y-101769858D01*
X124505834Y-95749098D01*
X146189225Y-95749098D01*
X146207989Y-95951608D01*
X146207990Y-95951610D01*
X146263645Y-96147218D01*
X146263646Y-96147220D01*
X146263647Y-96147223D01*
X146293700Y-96207577D01*
X146354297Y-96329273D01*
X146354302Y-96329281D01*
X146476865Y-96491580D01*
X146573379Y-96579564D01*
X146609661Y-96639275D01*
X146613841Y-96671201D01*
X146613841Y-100056762D01*
X146611645Y-100079997D01*
X146610102Y-100088084D01*
X146610102Y-100088087D01*
X146613596Y-100143622D01*
X146613841Y-100151408D01*
X146613841Y-100167286D01*
X146615830Y-100183030D01*
X146616562Y-100190777D01*
X146620057Y-100246318D01*
X146622602Y-100254151D01*
X146627692Y-100276920D01*
X146628725Y-100285094D01*
X146628726Y-100285098D01*
X146628727Y-100285100D01*
X146649216Y-100336852D01*
X146651854Y-100344178D01*
X146669050Y-100397101D01*
X146673462Y-100404053D01*
X146684054Y-100424842D01*
X146687088Y-100432505D01*
X146719804Y-100477535D01*
X146724182Y-100483977D01*
X146753999Y-100530961D01*
X146754000Y-100530962D01*
X146760002Y-100536598D01*
X146775439Y-100554108D01*
X146780278Y-100560769D01*
X146823157Y-100596242D01*
X146828999Y-100601392D01*
X146869574Y-100639494D01*
X146876792Y-100643462D01*
X146896099Y-100656583D01*
X146902435Y-100661825D01*
X146902436Y-100661825D01*
X146902438Y-100661827D01*
X146952791Y-100685521D01*
X146959714Y-100689048D01*
X147008507Y-100715873D01*
X147016478Y-100717919D01*
X147038446Y-100725828D01*
X147045892Y-100729332D01*
X147100571Y-100739762D01*
X147108134Y-100741452D01*
X147162069Y-100755301D01*
X147170303Y-100755301D01*
X147193539Y-100757498D01*
X147201618Y-100759039D01*
X147201625Y-100759039D01*
X147201627Y-100759040D01*
X147201628Y-100759039D01*
X147201629Y-100759040D01*
X147257163Y-100755546D01*
X147264949Y-100755301D01*
X157435329Y-100755301D01*
X157450977Y-100757028D01*
X157451004Y-100756747D01*
X157458771Y-100757481D01*
X157458772Y-100757480D01*
X157458773Y-100757481D01*
X157513806Y-100755751D01*
X157526215Y-100755362D01*
X157530109Y-100755301D01*
X157557768Y-100755301D01*
X157557772Y-100755301D01*
X157561770Y-100754795D01*
X157573410Y-100753878D01*
X157617239Y-100752502D01*
X157636568Y-100746885D01*
X157655624Y-100742938D01*
X157675589Y-100740417D01*
X157716351Y-100724277D01*
X157727388Y-100720499D01*
X157769487Y-100708269D01*
X157786811Y-100698022D01*
X157804279Y-100689464D01*
X157822999Y-100682054D01*
X157858473Y-100656279D01*
X157868211Y-100649882D01*
X157905952Y-100627564D01*
X157920193Y-100613321D01*
X157934974Y-100600698D01*
X157951263Y-100588864D01*
X157979200Y-100555091D01*
X157987052Y-100546462D01*
X160992424Y-97541090D01*
X161004706Y-97531253D01*
X161004525Y-97531034D01*
X161010538Y-97526058D01*
X161010543Y-97526056D01*
X161056765Y-97476832D01*
X161059414Y-97474100D01*
X161079004Y-97454512D01*
X161081477Y-97451322D01*
X161089063Y-97442438D01*
X161119074Y-97410483D01*
X161128770Y-97392844D01*
X161139454Y-97376577D01*
X161151789Y-97360678D01*
X161169200Y-97320441D01*
X161174323Y-97309981D01*
X161195453Y-97271550D01*
X161200459Y-97252050D01*
X161206757Y-97233652D01*
X161214755Y-97215174D01*
X161221613Y-97171867D01*
X161223977Y-97160452D01*
X161234881Y-97117988D01*
X161234881Y-97097857D01*
X161236408Y-97078457D01*
X161239556Y-97058583D01*
X161235431Y-97014946D01*
X161234881Y-97003277D01*
X161234881Y-91988170D01*
X161254566Y-91921131D01*
X161275343Y-91896533D01*
X161421841Y-91762982D01*
X161426994Y-91756159D01*
X161544406Y-91600680D01*
X161568871Y-91551548D01*
X169722888Y-91551548D01*
X169730251Y-91595670D01*
X169762522Y-91789065D01*
X169840706Y-92016805D01*
X169840709Y-92016814D01*
X169955317Y-92228590D01*
X169998839Y-92284507D01*
X170103217Y-92418612D01*
X170145372Y-92457418D01*
X170280382Y-92581704D01*
X170304772Y-92597638D01*
X170350130Y-92650783D01*
X170359554Y-92720015D01*
X170330053Y-92783351D01*
X170304778Y-92805253D01*
X170280685Y-92820995D01*
X170280677Y-92821000D01*
X170103590Y-92984022D01*
X170103581Y-92984032D01*
X169955738Y-93173980D01*
X169955732Y-93173989D01*
X169841172Y-93385680D01*
X169841166Y-93385694D01*
X169763007Y-93613357D01*
X169745021Y-93721148D01*
X169745022Y-93721149D01*
X170728536Y-93721149D01*
X170679829Y-93858196D01*
X170669511Y-94009035D01*
X170700272Y-94157064D01*
X170733478Y-94221149D01*
X169745021Y-94221149D01*
X169763007Y-94328940D01*
X169841166Y-94556603D01*
X169841172Y-94556617D01*
X169955732Y-94768308D01*
X169955738Y-94768317D01*
X170103581Y-94958265D01*
X170103590Y-94958275D01*
X170280677Y-95121297D01*
X170280688Y-95121305D01*
X170482203Y-95252962D01*
X170702648Y-95349657D01*
X170702647Y-95349657D01*
X170935992Y-95408748D01*
X170973388Y-95411846D01*
X170973388Y-94462832D01*
X171002207Y-94480358D01*
X171147792Y-94521149D01*
X171261010Y-94521149D01*
X171373171Y-94505733D01*
X171473388Y-94462202D01*
X171473388Y-95411845D01*
X171510782Y-95408748D01*
X171510783Y-95408748D01*
X171744128Y-95349657D01*
X171964572Y-95252962D01*
X172166087Y-95121305D01*
X172166098Y-95121297D01*
X172343185Y-94958275D01*
X172343194Y-94958265D01*
X172491037Y-94768317D01*
X172491043Y-94768308D01*
X172605603Y-94556617D01*
X172605609Y-94556603D01*
X172683768Y-94328940D01*
X172701755Y-94221149D01*
X171718240Y-94221149D01*
X171766947Y-94084102D01*
X171777265Y-93933263D01*
X171746504Y-93785234D01*
X171713298Y-93721149D01*
X172701754Y-93721149D01*
X172701754Y-93721148D01*
X172683768Y-93613357D01*
X172605609Y-93385694D01*
X172605603Y-93385680D01*
X172491043Y-93173989D01*
X172491037Y-93173980D01*
X172343194Y-92984032D01*
X172343185Y-92984022D01*
X172166098Y-92821000D01*
X172166092Y-92820996D01*
X172141999Y-92805255D01*
X172096643Y-92752108D01*
X172087220Y-92682877D01*
X172116723Y-92619541D01*
X172141996Y-92597642D01*
X172166398Y-92581700D01*
X172343559Y-92418612D01*
X172491460Y-92228588D01*
X172606067Y-92016813D01*
X172684254Y-91789062D01*
X172723888Y-91551548D01*
X172723888Y-91310750D01*
X172684254Y-91073236D01*
X172666149Y-91020499D01*
X172606069Y-90845492D01*
X172606066Y-90845483D01*
X172491458Y-90633707D01*
X172491454Y-90633701D01*
X172380555Y-90491218D01*
X172354912Y-90426224D01*
X172368478Y-90357684D01*
X172416947Y-90307360D01*
X172435069Y-90298876D01*
X172465719Y-90287445D01*
X172580934Y-90201195D01*
X172667184Y-90085980D01*
X172717479Y-89951132D01*
X172723888Y-89891522D01*
X172723887Y-87890777D01*
X172717479Y-87831166D01*
X172667184Y-87696318D01*
X172667183Y-87696317D01*
X172667181Y-87696313D01*
X172580935Y-87581104D01*
X172580932Y-87581101D01*
X172465723Y-87494855D01*
X172465716Y-87494851D01*
X172330870Y-87444557D01*
X172330871Y-87444557D01*
X172271271Y-87438150D01*
X172271269Y-87438149D01*
X172271261Y-87438149D01*
X172271252Y-87438149D01*
X170175517Y-87438149D01*
X170175511Y-87438150D01*
X170115904Y-87444557D01*
X169981059Y-87494851D01*
X169981052Y-87494855D01*
X169865843Y-87581101D01*
X169865840Y-87581104D01*
X169779594Y-87696313D01*
X169779590Y-87696320D01*
X169729296Y-87831166D01*
X169722889Y-87890765D01*
X169722889Y-87890772D01*
X169722888Y-87890784D01*
X169722888Y-89891519D01*
X169722889Y-89891525D01*
X169729296Y-89951132D01*
X169779590Y-90085977D01*
X169779594Y-90085984D01*
X169865840Y-90201193D01*
X169865843Y-90201196D01*
X169981052Y-90287442D01*
X169981061Y-90287447D01*
X170011699Y-90298874D01*
X170067633Y-90340744D01*
X170092051Y-90406208D01*
X170077200Y-90474481D01*
X170066221Y-90491218D01*
X169955317Y-90633708D01*
X169840709Y-90845483D01*
X169840706Y-90845492D01*
X169762522Y-91073232D01*
X169737529Y-91223009D01*
X169722888Y-91310750D01*
X169722888Y-91551548D01*
X161568871Y-91551548D01*
X161635060Y-91418624D01*
X161690717Y-91223010D01*
X161709482Y-91020499D01*
X161703867Y-90959907D01*
X161690717Y-90817988D01*
X161690716Y-90817986D01*
X161679297Y-90777853D01*
X161635060Y-90622374D01*
X161574953Y-90501664D01*
X161544409Y-90440323D01*
X161544404Y-90440315D01*
X161421841Y-90278015D01*
X161271545Y-90141003D01*
X161271543Y-90141001D01*
X161098633Y-90033940D01*
X161098624Y-90033936D01*
X160956396Y-89978837D01*
X160908985Y-89960470D01*
X160709070Y-89923099D01*
X160505692Y-89923099D01*
X160305777Y-89960470D01*
X160305774Y-89960470D01*
X160305774Y-89960471D01*
X160116137Y-90033936D01*
X160116128Y-90033940D01*
X159943218Y-90141001D01*
X159943216Y-90141003D01*
X159792920Y-90278015D01*
X159670357Y-90440315D01*
X159670352Y-90440323D01*
X159579703Y-90622372D01*
X159579700Y-90622378D01*
X159524045Y-90817986D01*
X159524044Y-90817988D01*
X159505280Y-91020498D01*
X159505280Y-91020499D01*
X159524044Y-91223009D01*
X159524045Y-91223011D01*
X159579700Y-91418619D01*
X159579701Y-91418621D01*
X159579702Y-91418624D01*
X159609755Y-91478978D01*
X159670352Y-91600674D01*
X159670357Y-91600682D01*
X159792920Y-91762982D01*
X159939419Y-91896533D01*
X159975701Y-91956244D01*
X159979881Y-91988170D01*
X159979881Y-96727435D01*
X159960196Y-96794474D01*
X159943562Y-96815116D01*
X157294696Y-99463982D01*
X157233373Y-99497467D01*
X157207015Y-99500301D01*
X147992841Y-99500301D01*
X147925802Y-99480616D01*
X147880047Y-99427812D01*
X147868841Y-99376301D01*
X147868841Y-96751311D01*
X147888526Y-96684272D01*
X147927564Y-96645884D01*
X147955490Y-96628594D01*
X148105788Y-96491579D01*
X148228351Y-96329279D01*
X148319005Y-96147223D01*
X148374662Y-95951609D01*
X148393427Y-95749098D01*
X148374662Y-95546587D01*
X148319005Y-95350973D01*
X148258898Y-95230263D01*
X148228354Y-95168922D01*
X148228349Y-95168914D01*
X148105786Y-95006614D01*
X147955490Y-94869602D01*
X147955488Y-94869600D01*
X147782578Y-94762539D01*
X147782569Y-94762535D01*
X147640341Y-94707436D01*
X147592930Y-94689069D01*
X147393015Y-94651698D01*
X147189637Y-94651698D01*
X146989722Y-94689069D01*
X146989719Y-94689069D01*
X146989719Y-94689070D01*
X146800082Y-94762535D01*
X146800073Y-94762539D01*
X146627163Y-94869600D01*
X146627161Y-94869602D01*
X146476865Y-95006614D01*
X146354302Y-95168914D01*
X146354297Y-95168922D01*
X146263648Y-95350971D01*
X146263645Y-95350977D01*
X146207990Y-95546585D01*
X146207989Y-95546587D01*
X146189225Y-95749097D01*
X146189225Y-95749098D01*
X124505834Y-95749098D01*
X120352406Y-91595670D01*
X120318921Y-91534347D01*
X120316616Y-91496553D01*
X120329452Y-91358034D01*
X120310687Y-91155523D01*
X120255030Y-90959909D01*
X120184360Y-90817986D01*
X120164379Y-90777858D01*
X120164374Y-90777850D01*
X120041811Y-90615550D01*
X119891515Y-90478538D01*
X119891513Y-90478536D01*
X119718603Y-90371475D01*
X119718594Y-90371471D01*
X119531198Y-90298874D01*
X119528955Y-90298005D01*
X119329040Y-90260634D01*
X119125662Y-90260634D01*
X118925747Y-90298005D01*
X118925744Y-90298005D01*
X118925744Y-90298006D01*
X118736107Y-90371471D01*
X118736098Y-90371475D01*
X118563188Y-90478536D01*
X118563186Y-90478538D01*
X118412890Y-90615550D01*
X118290327Y-90777850D01*
X118290322Y-90777858D01*
X118199673Y-90959907D01*
X118199670Y-90959913D01*
X118144015Y-91155521D01*
X118144014Y-91155523D01*
X118125250Y-91358033D01*
X118125250Y-91358034D01*
X93429957Y-91358034D01*
X93429957Y-85781660D01*
X133671626Y-85781660D01*
X133685426Y-85790332D01*
X133685425Y-85790332D01*
X133855595Y-85849877D01*
X134034731Y-85870061D01*
X134034737Y-85870061D01*
X134213872Y-85849877D01*
X134213875Y-85849876D01*
X134384039Y-85790333D01*
X134384040Y-85790333D01*
X134397840Y-85781660D01*
X135196626Y-85781660D01*
X135210426Y-85790332D01*
X135210425Y-85790332D01*
X135380595Y-85849877D01*
X135559731Y-85870061D01*
X135559737Y-85870061D01*
X135738872Y-85849877D01*
X135738875Y-85849876D01*
X135909039Y-85790333D01*
X135909040Y-85790333D01*
X135922840Y-85781660D01*
X135922840Y-85781659D01*
X135559735Y-85418552D01*
X135559734Y-85418552D01*
X135196626Y-85781659D01*
X135196626Y-85781660D01*
X134397840Y-85781660D01*
X134397840Y-85781659D01*
X134034735Y-85418552D01*
X134034734Y-85418552D01*
X133671626Y-85781659D01*
X133671626Y-85781660D01*
X93429957Y-85781660D01*
X93429957Y-85019160D01*
X132909126Y-85019160D01*
X132922926Y-85027832D01*
X132922925Y-85027832D01*
X133093095Y-85087377D01*
X133135716Y-85092179D01*
X133200130Y-85119245D01*
X133239685Y-85176839D01*
X133245053Y-85201514D01*
X133249855Y-85244137D01*
X133309399Y-85414303D01*
X133318072Y-85428106D01*
X133681180Y-85064999D01*
X133879443Y-85064999D01*
X133900248Y-85142644D01*
X133957089Y-85199485D01*
X134014988Y-85214999D01*
X134054480Y-85214999D01*
X134112379Y-85199485D01*
X134169220Y-85142645D01*
X134190025Y-85064999D01*
X134388287Y-85064999D01*
X134751394Y-85428105D01*
X134783356Y-85424505D01*
X134811119Y-85424506D01*
X134843072Y-85428106D01*
X135206180Y-85064999D01*
X135404443Y-85064999D01*
X135425248Y-85142644D01*
X135482089Y-85199485D01*
X135539988Y-85214999D01*
X135579480Y-85214999D01*
X135637379Y-85199485D01*
X135694220Y-85142645D01*
X135715025Y-85064999D01*
X135913287Y-85064999D01*
X136276394Y-85428105D01*
X136276395Y-85428105D01*
X136285068Y-85414305D01*
X136285068Y-85414304D01*
X136344612Y-85244138D01*
X136349414Y-85201517D01*
X136376480Y-85137102D01*
X136434074Y-85097547D01*
X136458752Y-85092179D01*
X136501373Y-85087377D01*
X136671539Y-85027833D01*
X136671540Y-85027833D01*
X136685340Y-85019160D01*
X136685340Y-85019159D01*
X136322234Y-84656052D01*
X136266842Y-84711445D01*
X136266841Y-84711446D01*
X135913287Y-85064998D01*
X135913287Y-85064999D01*
X135715025Y-85064999D01*
X135694220Y-84987354D01*
X135637379Y-84930513D01*
X135579480Y-84914999D01*
X135539988Y-84914999D01*
X135482089Y-84930513D01*
X135425248Y-84987353D01*
X135404443Y-85064999D01*
X135206180Y-85064999D01*
X134852626Y-84711445D01*
X134797234Y-84656052D01*
X134741842Y-84711445D01*
X134741841Y-84711446D01*
X134388287Y-85064999D01*
X134190025Y-85064999D01*
X134169220Y-84987354D01*
X134112379Y-84930513D01*
X134054480Y-84914999D01*
X134014988Y-84914999D01*
X133957089Y-84930513D01*
X133900248Y-84987353D01*
X133879443Y-85064999D01*
X133681180Y-85064999D01*
X133272233Y-84656052D01*
X133272232Y-84656052D01*
X132909126Y-85019159D01*
X132909126Y-85019160D01*
X93429957Y-85019160D01*
X93429957Y-84302501D01*
X132467172Y-84302501D01*
X132487355Y-84481637D01*
X132546899Y-84651803D01*
X132555572Y-84665606D01*
X132918680Y-84302499D01*
X133116943Y-84302499D01*
X133137748Y-84380144D01*
X133194589Y-84436985D01*
X133252488Y-84452499D01*
X133291980Y-84452499D01*
X133349879Y-84436985D01*
X133406720Y-84380145D01*
X133427525Y-84302499D01*
X133625787Y-84302499D01*
X133792182Y-84468894D01*
X133792197Y-84468908D01*
X134034734Y-84711445D01*
X134443680Y-84302499D01*
X134641943Y-84302499D01*
X134662748Y-84380144D01*
X134719589Y-84436985D01*
X134777488Y-84452499D01*
X134816980Y-84452499D01*
X134874879Y-84436985D01*
X134931720Y-84380145D01*
X134952525Y-84302499D01*
X135150787Y-84302499D01*
X135317182Y-84468894D01*
X135317197Y-84468908D01*
X135559734Y-84711445D01*
X135968680Y-84302499D01*
X136166943Y-84302499D01*
X136187748Y-84380144D01*
X136244589Y-84436985D01*
X136302488Y-84452499D01*
X136341980Y-84452499D01*
X136399879Y-84436985D01*
X136456720Y-84380145D01*
X136477525Y-84302499D01*
X136675787Y-84302499D01*
X137038894Y-84665605D01*
X137038895Y-84665605D01*
X137047568Y-84651805D01*
X137047568Y-84651804D01*
X137107111Y-84481640D01*
X137107112Y-84481637D01*
X137127296Y-84302501D01*
X137127296Y-84302496D01*
X137107112Y-84123360D01*
X137047567Y-83953191D01*
X137038895Y-83939391D01*
X137038894Y-83939391D01*
X136675787Y-84302499D01*
X136477525Y-84302499D01*
X136456720Y-84224854D01*
X136399879Y-84168013D01*
X136341980Y-84152499D01*
X136302488Y-84152499D01*
X136244589Y-84168013D01*
X136187748Y-84224853D01*
X136166943Y-84302499D01*
X135968680Y-84302499D01*
X135615126Y-83948945D01*
X135559734Y-83893552D01*
X135504342Y-83948945D01*
X135504341Y-83948946D01*
X135150787Y-84302498D01*
X135150787Y-84302499D01*
X134952525Y-84302499D01*
X134931720Y-84224854D01*
X134874879Y-84168013D01*
X134816980Y-84152499D01*
X134777488Y-84152499D01*
X134719589Y-84168013D01*
X134662748Y-84224853D01*
X134641943Y-84302499D01*
X134443680Y-84302499D01*
X134090126Y-83948945D01*
X134034734Y-83893552D01*
X133979342Y-83948945D01*
X133979341Y-83948946D01*
X133625787Y-84302498D01*
X133625787Y-84302499D01*
X133427525Y-84302499D01*
X133406720Y-84224854D01*
X133349879Y-84168013D01*
X133291980Y-84152499D01*
X133252488Y-84152499D01*
X133194589Y-84168013D01*
X133137748Y-84224853D01*
X133116943Y-84302499D01*
X132918680Y-84302499D01*
X132918680Y-84302498D01*
X132555572Y-83939390D01*
X132555571Y-83939390D01*
X132546901Y-83953190D01*
X132546896Y-83953200D01*
X132487356Y-84123357D01*
X132487355Y-84123360D01*
X132467172Y-84302496D01*
X132467172Y-84302501D01*
X93429957Y-84302501D01*
X93429957Y-83585837D01*
X132909125Y-83585837D01*
X133272232Y-83948945D01*
X133272233Y-83948945D01*
X133644016Y-83577163D01*
X133681180Y-83539999D01*
X133879443Y-83539999D01*
X133900248Y-83617644D01*
X133957089Y-83674485D01*
X134014988Y-83689999D01*
X134054480Y-83689999D01*
X134112379Y-83674485D01*
X134169220Y-83617645D01*
X134190025Y-83539999D01*
X134388287Y-83539999D01*
X134425451Y-83577162D01*
X134797234Y-83948945D01*
X135206180Y-83539999D01*
X135404443Y-83539999D01*
X135425248Y-83617644D01*
X135482089Y-83674485D01*
X135539988Y-83689999D01*
X135579480Y-83689999D01*
X135637379Y-83674485D01*
X135694220Y-83617645D01*
X135715025Y-83539999D01*
X135913287Y-83539999D01*
X135950451Y-83577162D01*
X136322234Y-83948945D01*
X136322235Y-83948945D01*
X136685341Y-83585837D01*
X136681741Y-83553884D01*
X136681740Y-83526121D01*
X136685340Y-83494159D01*
X136322234Y-83131052D01*
X136266842Y-83186445D01*
X136266841Y-83186446D01*
X135913287Y-83539999D01*
X135715025Y-83539999D01*
X135694220Y-83462354D01*
X135637379Y-83405513D01*
X135579480Y-83389999D01*
X135539988Y-83389999D01*
X135482089Y-83405513D01*
X135425248Y-83462353D01*
X135404443Y-83539999D01*
X135206180Y-83539999D01*
X134852626Y-83186445D01*
X134797234Y-83131052D01*
X134741842Y-83186445D01*
X134741841Y-83186446D01*
X134388287Y-83539999D01*
X134190025Y-83539999D01*
X134169220Y-83462354D01*
X134112379Y-83405513D01*
X134054480Y-83389999D01*
X134014988Y-83389999D01*
X133957089Y-83405513D01*
X133900248Y-83462353D01*
X133879443Y-83539999D01*
X133681180Y-83539999D01*
X133272233Y-83131052D01*
X133272232Y-83131052D01*
X132909126Y-83494159D01*
X132912727Y-83526118D01*
X132912726Y-83553883D01*
X132909125Y-83585837D01*
X93429957Y-83585837D01*
X93429957Y-82777501D01*
X132467172Y-82777501D01*
X132487355Y-82956637D01*
X132546899Y-83126803D01*
X132555572Y-83140606D01*
X132918680Y-82777499D01*
X133116943Y-82777499D01*
X133137748Y-82855144D01*
X133194589Y-82911985D01*
X133252488Y-82927499D01*
X133291980Y-82927499D01*
X133349879Y-82911985D01*
X133406720Y-82855145D01*
X133427525Y-82777499D01*
X133427525Y-82777498D01*
X133625787Y-82777498D01*
X134034734Y-83186445D01*
X134443680Y-82777499D01*
X134641943Y-82777499D01*
X134662748Y-82855144D01*
X134719589Y-82911985D01*
X134777488Y-82927499D01*
X134816980Y-82927499D01*
X134874879Y-82911985D01*
X134931720Y-82855145D01*
X134952525Y-82777499D01*
X134952525Y-82777498D01*
X135150787Y-82777498D01*
X135559734Y-83186445D01*
X135968680Y-82777499D01*
X136166943Y-82777499D01*
X136187748Y-82855144D01*
X136244589Y-82911985D01*
X136302488Y-82927499D01*
X136341980Y-82927499D01*
X136399879Y-82911985D01*
X136456720Y-82855145D01*
X136477525Y-82777499D01*
X136675787Y-82777499D01*
X137038894Y-83140605D01*
X137038895Y-83140605D01*
X137047568Y-83126805D01*
X137047568Y-83126804D01*
X137107111Y-82956640D01*
X137107112Y-82956637D01*
X137127296Y-82777501D01*
X137127296Y-82777496D01*
X137107112Y-82598360D01*
X137047567Y-82428191D01*
X137038895Y-82414391D01*
X137038894Y-82414391D01*
X136675787Y-82777499D01*
X136477525Y-82777499D01*
X136456720Y-82699854D01*
X136399879Y-82643013D01*
X136341980Y-82627499D01*
X136302488Y-82627499D01*
X136244589Y-82643013D01*
X136187748Y-82699853D01*
X136166943Y-82777499D01*
X135968680Y-82777499D01*
X135612891Y-82421710D01*
X135559734Y-82368552D01*
X135506577Y-82421710D01*
X135506576Y-82421711D01*
X135150787Y-82777498D01*
X134952525Y-82777498D01*
X134931720Y-82699854D01*
X134874879Y-82643013D01*
X134816980Y-82627499D01*
X134777488Y-82627499D01*
X134719589Y-82643013D01*
X134662748Y-82699853D01*
X134641943Y-82777499D01*
X134443680Y-82777499D01*
X134087891Y-82421710D01*
X134034734Y-82368552D01*
X133981577Y-82421710D01*
X133981576Y-82421711D01*
X133625787Y-82777498D01*
X133427525Y-82777498D01*
X133406720Y-82699854D01*
X133349879Y-82643013D01*
X133291980Y-82627499D01*
X133252488Y-82627499D01*
X133194589Y-82643013D01*
X133137748Y-82699853D01*
X133116943Y-82777499D01*
X132918680Y-82777499D01*
X132918680Y-82777498D01*
X132555572Y-82414390D01*
X132555571Y-82414390D01*
X132546901Y-82428190D01*
X132546896Y-82428200D01*
X132487356Y-82598357D01*
X132487355Y-82598360D01*
X132467172Y-82777496D01*
X132467172Y-82777501D01*
X93429957Y-82777501D01*
X93429957Y-82060837D01*
X132909125Y-82060837D01*
X133272232Y-82423945D01*
X133272233Y-82423945D01*
X133648116Y-82048064D01*
X133681179Y-82014999D01*
X133879443Y-82014999D01*
X133900248Y-82092644D01*
X133957089Y-82149485D01*
X134014988Y-82164999D01*
X134054480Y-82164999D01*
X134112379Y-82149485D01*
X134169220Y-82092645D01*
X134190025Y-82014999D01*
X134190025Y-82014998D01*
X134388287Y-82014998D01*
X134797234Y-82423945D01*
X135173116Y-82048064D01*
X135206179Y-82014999D01*
X135404443Y-82014999D01*
X135425248Y-82092644D01*
X135482089Y-82149485D01*
X135539988Y-82164999D01*
X135579480Y-82164999D01*
X135637379Y-82149485D01*
X135694220Y-82092645D01*
X135715025Y-82014999D01*
X135715025Y-82014998D01*
X135913287Y-82014998D01*
X136322234Y-82423945D01*
X136322235Y-82423945D01*
X136685341Y-82060837D01*
X136671538Y-82052164D01*
X136501372Y-81992620D01*
X136458749Y-81987818D01*
X136394336Y-81960751D01*
X136354781Y-81903156D01*
X136349414Y-81878481D01*
X136344612Y-81835860D01*
X136285067Y-81665691D01*
X136276395Y-81651891D01*
X136276394Y-81651891D01*
X135913287Y-82014997D01*
X135913287Y-82014998D01*
X135715025Y-82014998D01*
X135694220Y-81937354D01*
X135637379Y-81880513D01*
X135579480Y-81864999D01*
X135539988Y-81864999D01*
X135482089Y-81880513D01*
X135425248Y-81937353D01*
X135404443Y-82014999D01*
X135206179Y-82014999D01*
X135206180Y-82014998D01*
X135206180Y-82014997D01*
X134843071Y-81651889D01*
X134811119Y-81655490D01*
X134783356Y-81655491D01*
X134751394Y-81651890D01*
X134388287Y-82014997D01*
X134388287Y-82014998D01*
X134190025Y-82014998D01*
X134169220Y-81937354D01*
X134112379Y-81880513D01*
X134054480Y-81864999D01*
X134014988Y-81864999D01*
X133957089Y-81880513D01*
X133900248Y-81937353D01*
X133879443Y-82014999D01*
X133681179Y-82014999D01*
X133681180Y-82014998D01*
X133681180Y-82014997D01*
X133318072Y-81651890D01*
X133318071Y-81651890D01*
X133309401Y-81665690D01*
X133309396Y-81665700D01*
X133249856Y-81835857D01*
X133245053Y-81878483D01*
X133217986Y-81942897D01*
X133160390Y-81982451D01*
X133135718Y-81987818D01*
X133093092Y-81992621D01*
X132922935Y-82052161D01*
X132922925Y-82052166D01*
X132909125Y-82060836D01*
X132909125Y-82060837D01*
X93429957Y-82060837D01*
X93429957Y-81298337D01*
X133671625Y-81298337D01*
X134034734Y-81661445D01*
X134034735Y-81661445D01*
X134397841Y-81298337D01*
X135196625Y-81298337D01*
X135559734Y-81661445D01*
X135559735Y-81661445D01*
X135922841Y-81298337D01*
X135909038Y-81289664D01*
X135738872Y-81230120D01*
X135559737Y-81209937D01*
X135559731Y-81209937D01*
X135380595Y-81230120D01*
X135380592Y-81230121D01*
X135210435Y-81289661D01*
X135210425Y-81289666D01*
X135196625Y-81298336D01*
X135196625Y-81298337D01*
X134397841Y-81298337D01*
X134384038Y-81289664D01*
X134213872Y-81230120D01*
X134034737Y-81209937D01*
X134034731Y-81209937D01*
X133855595Y-81230120D01*
X133855592Y-81230121D01*
X133685435Y-81289661D01*
X133685425Y-81289666D01*
X133671625Y-81298336D01*
X133671625Y-81298337D01*
X93429957Y-81298337D01*
X93429957Y-79559056D01*
X169309282Y-79559056D01*
X169309283Y-79559073D01*
X169319782Y-79661851D01*
X169319783Y-79661854D01*
X169374967Y-79828386D01*
X169374968Y-79828389D01*
X169467070Y-79977711D01*
X169591126Y-80101767D01*
X169740448Y-80193869D01*
X169740451Y-80193870D01*
X169743201Y-80195152D01*
X169744773Y-80196536D01*
X169746595Y-80197660D01*
X169746403Y-80197971D01*
X169795643Y-80241322D01*
X169814798Y-80308515D01*
X169794585Y-80375397D01*
X169776603Y-80397059D01*
X169647642Y-80520658D01*
X169647641Y-80520659D01*
X169508971Y-80708152D01*
X169403978Y-80916393D01*
X169335688Y-81139384D01*
X169330608Y-81179054D01*
X169330609Y-81179055D01*
X170364312Y-81179055D01*
X170325097Y-81273729D01*
X170304648Y-81429055D01*
X170325097Y-81584381D01*
X170364312Y-81679055D01*
X169332206Y-81679055D01*
X169365098Y-81831674D01*
X169365098Y-81831675D01*
X169452049Y-82048060D01*
X169574323Y-82246647D01*
X169728398Y-82421710D01*
X169728403Y-82421715D01*
X169909836Y-82568212D01*
X169909842Y-82568216D01*
X170113435Y-82681950D01*
X170333320Y-82759640D01*
X170333328Y-82759642D01*
X170563169Y-82799054D01*
X170563178Y-82799055D01*
X170654782Y-82799055D01*
X170654782Y-81969524D01*
X170749456Y-82008740D01*
X170865785Y-82024055D01*
X170943779Y-82024055D01*
X171060108Y-82008740D01*
X171154782Y-81969524D01*
X171154782Y-82799055D01*
X171187977Y-82799055D01*
X171187994Y-82799054D01*
X171362145Y-82784232D01*
X171587833Y-82725467D01*
X171800334Y-82629411D01*
X171800342Y-82629406D01*
X171993553Y-82498819D01*
X172161921Y-82337451D01*
X172161922Y-82337450D01*
X172300592Y-82149957D01*
X172405585Y-81941716D01*
X172473875Y-81718725D01*
X172478955Y-81679055D01*
X171445252Y-81679055D01*
X171484467Y-81584381D01*
X171504916Y-81429055D01*
X171484467Y-81273729D01*
X171445252Y-81179055D01*
X172477358Y-81179055D01*
X172477357Y-81179054D01*
X172444465Y-81026435D01*
X172444465Y-81026434D01*
X172357514Y-80810049D01*
X172235240Y-80611462D01*
X172081165Y-80436399D01*
X172040984Y-80403955D01*
X172001192Y-80346524D01*
X171998766Y-80276697D01*
X172034476Y-80216642D01*
X172066496Y-80195089D01*
X172069103Y-80193873D01*
X172069116Y-80193869D01*
X172218438Y-80101767D01*
X172342494Y-79977711D01*
X172434596Y-79828389D01*
X172489781Y-79661852D01*
X172500282Y-79559064D01*
X172500281Y-78219047D01*
X172489781Y-78116258D01*
X172434596Y-77949721D01*
X172342494Y-77800399D01*
X172218438Y-77676343D01*
X172069116Y-77584241D01*
X171902579Y-77529056D01*
X171902577Y-77529055D01*
X171799792Y-77518555D01*
X170009780Y-77518555D01*
X170009763Y-77518556D01*
X169906985Y-77529055D01*
X169906982Y-77529056D01*
X169740450Y-77584240D01*
X169740445Y-77584242D01*
X169591124Y-77676344D01*
X169467071Y-77800397D01*
X169374969Y-77949718D01*
X169374968Y-77949721D01*
X169319783Y-78116258D01*
X169319783Y-78116259D01*
X169319782Y-78116259D01*
X169309282Y-78219038D01*
X169309282Y-79559056D01*
X93429957Y-79559056D01*
X93429957Y-53709999D01*
X111477234Y-53709999D01*
X111477234Y-74649999D01*
X159477234Y-74649999D01*
X159477234Y-53709999D01*
X111477234Y-53709999D01*
X93429957Y-53709999D01*
X93429957Y-51825596D01*
X93449642Y-51758557D01*
X93502446Y-51712802D01*
X93553957Y-51701596D01*
X179197460Y-51701596D01*
X179264499Y-51721281D01*
G37*
%TD.AperFunction*%
%TD*%
M02*
