%TF.GenerationSoftware,KiCad,Pcbnew,7.0.10*%
%TF.CreationDate,2024-03-26T17:38:47-05:00*%
%TF.ProjectId,smart_helmet,736d6172-745f-4686-956c-6d65742e6b69,rev?*%
%TF.SameCoordinates,Original*%
%TF.FileFunction,Paste,Top*%
%TF.FilePolarity,Positive*%
%FSLAX46Y46*%
G04 Gerber Fmt 4.6, Leading zero omitted, Abs format (unit mm)*
G04 Created by KiCad (PCBNEW 7.0.10) date 2024-03-26 17:38:47*
%MOMM*%
%LPD*%
G01*
G04 APERTURE LIST*
G04 Aperture macros list*
%AMRoundRect*
0 Rectangle with rounded corners*
0 $1 Rounding radius*
0 $2 $3 $4 $5 $6 $7 $8 $9 X,Y pos of 4 corners*
0 Add a 4 corners polygon primitive as box body*
4,1,4,$2,$3,$4,$5,$6,$7,$8,$9,$2,$3,0*
0 Add four circle primitives for the rounded corners*
1,1,$1+$1,$2,$3*
1,1,$1+$1,$4,$5*
1,1,$1+$1,$6,$7*
1,1,$1+$1,$8,$9*
0 Add four rect primitives between the rounded corners*
20,1,$1+$1,$2,$3,$4,$5,0*
20,1,$1+$1,$4,$5,$6,$7,0*
20,1,$1+$1,$6,$7,$8,$9,0*
20,1,$1+$1,$8,$9,$2,$3,0*%
G04 Aperture macros list end*
%ADD10RoundRect,0.250000X-0.337500X-0.475000X0.337500X-0.475000X0.337500X0.475000X-0.337500X0.475000X0*%
%ADD11RoundRect,0.250000X-0.262500X-0.450000X0.262500X-0.450000X0.262500X0.450000X-0.262500X0.450000X0*%
%ADD12R,1.498600X0.889000*%
%ADD13R,0.889000X1.498600*%
%ADD14R,0.889000X0.889000*%
%ADD15RoundRect,0.250000X-0.250000X-0.475000X0.250000X-0.475000X0.250000X0.475000X-0.250000X0.475000X0*%
%ADD16RoundRect,0.250000X0.450000X-0.262500X0.450000X0.262500X-0.450000X0.262500X-0.450000X-0.262500X0*%
%ADD17RoundRect,0.250000X0.450000X-0.350000X0.450000X0.350000X-0.450000X0.350000X-0.450000X-0.350000X0*%
%ADD18R,1.550000X1.300000*%
%ADD19R,0.700000X1.000000*%
%ADD20R,0.700000X0.600000*%
%ADD21O,0.890000X1.550000*%
%ADD22O,1.250000X0.950000*%
%ADD23R,0.400000X1.350000*%
%ADD24R,1.200000X1.550000*%
%ADD25R,1.500000X1.550000*%
%ADD26RoundRect,0.150000X0.587500X0.150000X-0.587500X0.150000X-0.587500X-0.150000X0.587500X-0.150000X0*%
G04 APERTURE END LIST*
D10*
%TO.C,C1*%
X130510772Y-87283591D03*
X132585772Y-87283591D03*
%TD*%
D11*
%TO.C,R3*%
X180681730Y-98791144D03*
X182506730Y-98791144D03*
%TD*%
D10*
%TO.C,C8*%
X165704218Y-93299958D03*
X167779218Y-93299958D03*
%TD*%
D11*
%TO.C,R8*%
X203450483Y-99824586D03*
X205275483Y-99824586D03*
%TD*%
D12*
%TO.C,U1*%
X188103565Y-69000685D03*
X188103565Y-70270685D03*
X188103565Y-71540685D03*
X188103565Y-72810685D03*
X188103565Y-74080685D03*
X188103565Y-75350685D03*
X188103565Y-76620685D03*
X188103565Y-77890685D03*
X188103565Y-79160685D03*
X188103565Y-80430685D03*
X188103565Y-81700685D03*
X188103565Y-82970685D03*
X188103565Y-84240685D03*
X188103565Y-85510685D03*
D13*
X189868565Y-86760685D03*
X191138565Y-86760685D03*
X192408565Y-86760685D03*
X193678565Y-86760685D03*
X194948565Y-86760685D03*
X196218565Y-86760685D03*
X197488565Y-86760685D03*
X198758565Y-86760685D03*
X200028565Y-86760685D03*
X201298565Y-86760685D03*
X202568565Y-86760685D03*
X203838565Y-86760685D03*
D12*
X205603565Y-85510685D03*
X205603565Y-84240685D03*
X205603565Y-82970685D03*
X205603565Y-81700685D03*
X205603565Y-80430685D03*
X205603565Y-79160685D03*
X205603565Y-77890685D03*
X205603565Y-76620685D03*
X205603565Y-75350685D03*
X205603565Y-74080685D03*
X205603565Y-72810685D03*
X205603565Y-71540685D03*
X205603565Y-70270685D03*
X205603565Y-69000685D03*
D14*
X195603565Y-76720685D03*
X195603565Y-75320685D03*
X194203565Y-75320685D03*
X194203565Y-76720685D03*
X194203565Y-78120685D03*
X195603565Y-78120685D03*
X197003565Y-78120685D03*
X197003565Y-76720685D03*
X197003565Y-75320685D03*
%TD*%
D11*
%TO.C,R6*%
X166106048Y-118756792D03*
X167931048Y-118756792D03*
%TD*%
D15*
%TO.C,C4*%
X221413378Y-118396298D03*
X223313378Y-118396298D03*
%TD*%
D10*
%TO.C,C7*%
X151889487Y-92840046D03*
X153964487Y-92840046D03*
%TD*%
D16*
%TO.C,R10*%
X219792338Y-111666687D03*
X219792338Y-109841687D03*
%TD*%
D17*
%TO.C,R2*%
X137444333Y-93407402D03*
X137444333Y-91407402D03*
%TD*%
D15*
%TO.C,C6*%
X178261713Y-75693899D03*
X180161713Y-75693899D03*
%TD*%
D11*
%TO.C,R7*%
X203838848Y-91427388D03*
X205663848Y-91427388D03*
%TD*%
D15*
%TO.C,C3*%
X198642564Y-117548376D03*
X200542564Y-117548376D03*
%TD*%
D18*
%TO.C,SW1*%
X185157122Y-117350226D03*
X193107122Y-117350226D03*
X185157122Y-121850226D03*
X193107122Y-121850226D03*
%TD*%
D10*
%TO.C,C2*%
X163900929Y-67798738D03*
X165975929Y-67798738D03*
%TD*%
D18*
%TO.C,SW2*%
X207242576Y-117489609D03*
X215192576Y-117489609D03*
X207242576Y-121989609D03*
X215192576Y-121989609D03*
%TD*%
D17*
%TO.C,R1*%
X142345478Y-93344945D03*
X142345478Y-91344945D03*
%TD*%
D19*
%TO.C,D1*%
X216458507Y-65339588D03*
D20*
X216458507Y-67039588D03*
X218458507Y-67039588D03*
X218458507Y-65139588D03*
%TD*%
D21*
%TO.C,J1*%
X220685347Y-55734667D03*
D22*
X219685347Y-58434667D03*
X214685347Y-58434667D03*
D21*
X213685347Y-55734667D03*
D23*
X218485347Y-58434667D03*
X217835347Y-58434667D03*
X217185347Y-58434667D03*
X216535347Y-58434667D03*
X215885347Y-58434667D03*
D24*
X220085347Y-55734667D03*
D25*
X218185347Y-55734667D03*
X216185347Y-55734667D03*
D24*
X214285347Y-55734667D03*
%TD*%
D11*
%TO.C,R5*%
X220879121Y-99999626D03*
X222704121Y-99999626D03*
%TD*%
D15*
%TO.C,C5*%
X172390953Y-75744509D03*
X174290953Y-75744509D03*
%TD*%
D11*
%TO.C,R4*%
X221299301Y-92034708D03*
X223124301Y-92034708D03*
%TD*%
D16*
%TO.C,R9*%
X192949543Y-110666935D03*
X192949543Y-108841935D03*
%TD*%
D26*
%TO.C,Q1*%
X214479807Y-93636414D03*
X214479807Y-91736414D03*
X212604807Y-92686414D03*
%TD*%
%TO.C,Q2*%
X214682247Y-101126695D03*
X214682247Y-99226695D03*
X212807247Y-100176695D03*
%TD*%
M02*
