%TF.GenerationSoftware,KiCad,Pcbnew,7.0.10*%
%TF.CreationDate,2024-03-26T17:38:47-05:00*%
%TF.ProjectId,smart_helmet,736d6172-745f-4686-956c-6d65742e6b69,rev?*%
%TF.SameCoordinates,Original*%
%TF.FileFunction,Copper,L1,Top*%
%TF.FilePolarity,Positive*%
%FSLAX46Y46*%
G04 Gerber Fmt 4.6, Leading zero omitted, Abs format (unit mm)*
G04 Created by KiCad (PCBNEW 7.0.10) date 2024-03-26 17:38:47*
%MOMM*%
%LPD*%
G01*
G04 APERTURE LIST*
G04 Aperture macros list*
%AMRoundRect*
0 Rectangle with rounded corners*
0 $1 Rounding radius*
0 $2 $3 $4 $5 $6 $7 $8 $9 X,Y pos of 4 corners*
0 Add a 4 corners polygon primitive as box body*
4,1,4,$2,$3,$4,$5,$6,$7,$8,$9,$2,$3,0*
0 Add four circle primitives for the rounded corners*
1,1,$1+$1,$2,$3*
1,1,$1+$1,$4,$5*
1,1,$1+$1,$6,$7*
1,1,$1+$1,$8,$9*
0 Add four rect primitives between the rounded corners*
20,1,$1+$1,$2,$3,$4,$5,0*
20,1,$1+$1,$4,$5,$6,$7,0*
20,1,$1+$1,$6,$7,$8,$9,0*
20,1,$1+$1,$8,$9,$2,$3,0*%
%AMFreePoly0*
4,1,6,1.000000,0.000000,0.500000,-0.750000,-0.500000,-0.750000,-0.500000,0.750000,0.500000,0.750000,1.000000,0.000000,1.000000,0.000000,$1*%
%AMFreePoly1*
4,1,7,0.700000,0.000000,1.200000,-0.750000,-1.200000,-0.750000,-0.700000,0.000000,-1.200000,0.750000,1.200000,0.750000,0.700000,0.000000,0.700000,0.000000,$1*%
G04 Aperture macros list end*
%TA.AperFunction,SMDPad,CuDef*%
%ADD10RoundRect,0.250000X-0.337500X-0.475000X0.337500X-0.475000X0.337500X0.475000X-0.337500X0.475000X0*%
%TD*%
%TA.AperFunction,SMDPad,CuDef*%
%ADD11RoundRect,0.250000X-0.262500X-0.450000X0.262500X-0.450000X0.262500X0.450000X-0.262500X0.450000X0*%
%TD*%
%TA.AperFunction,ComponentPad*%
%ADD12RoundRect,0.250000X0.845000X-0.620000X0.845000X0.620000X-0.845000X0.620000X-0.845000X-0.620000X0*%
%TD*%
%TA.AperFunction,ComponentPad*%
%ADD13O,2.190000X1.740000*%
%TD*%
%TA.AperFunction,SMDPad,CuDef*%
%ADD14FreePoly0,90.000000*%
%TD*%
%TA.AperFunction,SMDPad,CuDef*%
%ADD15FreePoly1,90.000000*%
%TD*%
%TA.AperFunction,SMDPad,CuDef*%
%ADD16FreePoly0,270.000000*%
%TD*%
%TA.AperFunction,SMDPad,CuDef*%
%ADD17R,1.498600X0.889000*%
%TD*%
%TA.AperFunction,SMDPad,CuDef*%
%ADD18R,0.889000X1.498600*%
%TD*%
%TA.AperFunction,SMDPad,CuDef*%
%ADD19R,0.889000X0.889000*%
%TD*%
%TA.AperFunction,SMDPad,CuDef*%
%ADD20RoundRect,0.250000X-0.250000X-0.475000X0.250000X-0.475000X0.250000X0.475000X-0.250000X0.475000X0*%
%TD*%
%TA.AperFunction,SMDPad,CuDef*%
%ADD21RoundRect,0.250000X0.450000X-0.262500X0.450000X0.262500X-0.450000X0.262500X-0.450000X-0.262500X0*%
%TD*%
%TA.AperFunction,SMDPad,CuDef*%
%ADD22RoundRect,0.250000X0.450000X-0.350000X0.450000X0.350000X-0.450000X0.350000X-0.450000X-0.350000X0*%
%TD*%
%TA.AperFunction,SMDPad,CuDef*%
%ADD23R,1.550000X1.300000*%
%TD*%
%TA.AperFunction,ComponentPad*%
%ADD24RoundRect,0.250000X-0.620000X-0.845000X0.620000X-0.845000X0.620000X0.845000X-0.620000X0.845000X0*%
%TD*%
%TA.AperFunction,ComponentPad*%
%ADD25O,1.740000X2.190000*%
%TD*%
%TA.AperFunction,SMDPad,CuDef*%
%ADD26R,0.700000X1.000000*%
%TD*%
%TA.AperFunction,SMDPad,CuDef*%
%ADD27R,0.700000X0.600000*%
%TD*%
%TA.AperFunction,ComponentPad*%
%ADD28R,1.070000X1.500000*%
%TD*%
%TA.AperFunction,ComponentPad*%
%ADD29O,1.070000X1.500000*%
%TD*%
%TA.AperFunction,SMDPad,CuDef*%
%ADD30R,0.400000X1.350000*%
%TD*%
%TA.AperFunction,ComponentPad*%
%ADD31O,1.016000X1.778000*%
%TD*%
%TA.AperFunction,SMDPad,CuDef*%
%ADD32R,1.200000X1.550000*%
%TD*%
%TA.AperFunction,ComponentPad*%
%ADD33O,1.250000X0.950000*%
%TD*%
%TA.AperFunction,SMDPad,CuDef*%
%ADD34R,1.500000X1.550000*%
%TD*%
%TA.AperFunction,SMDPad,CuDef*%
%ADD35RoundRect,0.150000X0.587500X0.150000X-0.587500X0.150000X-0.587500X-0.150000X0.587500X-0.150000X0*%
%TD*%
%TA.AperFunction,ViaPad*%
%ADD36C,1.041400*%
%TD*%
%TA.AperFunction,Conductor*%
%ADD37C,0.508000*%
%TD*%
%TA.AperFunction,Conductor*%
%ADD38C,0.254000*%
%TD*%
G04 APERTURE END LIST*
D10*
%TO.P,C1,1*%
%TO.N,+3V3*%
X130510772Y-87283591D03*
%TO.P,C1,2*%
%TO.N,GND*%
X132585772Y-87283591D03*
%TD*%
D11*
%TO.P,R3,1*%
%TO.N,/GPIO46_STRAPPING*%
X180681730Y-98791144D03*
%TO.P,R3,2*%
%TO.N,+3V3*%
X182506730Y-98791144D03*
%TD*%
D10*
%TO.P,C8,1*%
%TO.N,+3V3*%
X165704218Y-93299958D03*
%TO.P,C8,2*%
%TO.N,GND*%
X167779218Y-93299958D03*
%TD*%
D12*
%TO.P,SensorConn3,1,Pin_1*%
%TO.N,GND*%
X162635669Y-113132694D03*
D13*
%TO.P,SensorConn3,2,Pin_2*%
X162635669Y-110592694D03*
%TO.P,SensorConn3,3,Pin_3*%
%TO.N,/GPIO7*%
X162635669Y-108052694D03*
%TO.P,SensorConn3,4,Pin_4*%
%TO.N,/CAMERA_SCL*%
X162635669Y-105512694D03*
%TO.P,SensorConn3,5,Pin_5*%
%TO.N,/CAMERA_SDA*%
X162635669Y-102972694D03*
%TO.P,SensorConn3,6,Pin_6*%
%TO.N,+3V3*%
X162635669Y-100432694D03*
%TD*%
D14*
%TO.P,JP1,1,A*%
%TO.N,GND*%
X175307661Y-118446908D03*
D15*
%TO.P,JP1,2,C*%
%TO.N,Net-(JP1-C)*%
X175307661Y-116446908D03*
D16*
%TO.P,JP1,3,B*%
%TO.N,+3V3*%
X175307661Y-114446908D03*
%TD*%
D11*
%TO.P,R8,1*%
%TO.N,Net-(Q2-C)*%
X203450483Y-99824586D03*
%TO.P,R8,2*%
%TO.N,/GPIO0_STRAPPING*%
X205275483Y-99824586D03*
%TD*%
D17*
%TO.P,U1,1,GND*%
%TO.N,GND*%
X188103565Y-69000685D03*
%TO.P,U1,2,3V3*%
%TO.N,+3V3*%
X188103565Y-70270685D03*
%TO.P,U1,3,EN*%
%TO.N,/CHIP_PU*%
X188103565Y-71540685D03*
%TO.P,U1,4,IO4*%
%TO.N,/VBAT_SENSE*%
X188103565Y-72810685D03*
%TO.P,U1,5,IO5*%
%TO.N,/GPIO5*%
X188103565Y-74080685D03*
%TO.P,U1,6,IO6*%
%TO.N,/GPIO6*%
X188103565Y-75350685D03*
%TO.P,U1,7,IO7*%
%TO.N,/GPIO7*%
X188103565Y-76620685D03*
%TO.P,U1,8,IO15*%
%TO.N,/GPIO15*%
X188103565Y-77890685D03*
%TO.P,U1,9,IO16*%
%TO.N,/GPIO16*%
X188103565Y-79160685D03*
%TO.P,U1,10,IO17*%
%TO.N,/GPIO17*%
X188103565Y-80430685D03*
%TO.P,U1,11,IO18*%
%TO.N,/GPIO18*%
X188103565Y-81700685D03*
%TO.P,U1,12,IO8*%
%TO.N,/M1_FAULT*%
X188103565Y-82970685D03*
%TO.P,U1,13,IO19*%
%TO.N,/D-*%
X188103565Y-84240685D03*
%TO.P,U1,14,IO20*%
%TO.N,/D+*%
X188103565Y-85510685D03*
D18*
%TO.P,U1,15,IO3*%
%TO.N,/GPIO3_STRAPPING*%
X189868565Y-86760685D03*
%TO.P,U1,16,IO46*%
%TO.N,/GPIO46_STRAPPING*%
X191138565Y-86760685D03*
%TO.P,U1,17,IO9*%
%TO.N,/M1_EN*%
X192408565Y-86760685D03*
%TO.P,U1,18,IO10*%
%TO.N,/M1_PWM*%
X193678565Y-86760685D03*
%TO.P,U1,19,IO11*%
%TO.N,/M1_DIR*%
X194948565Y-86760685D03*
%TO.P,U1,20,IO12*%
%TO.N,/M2_FAULT*%
X196218565Y-86760685D03*
%TO.P,U1,21,IO13*%
%TO.N,/M2_EN*%
X197488565Y-86760685D03*
%TO.P,U1,22,IO14*%
%TO.N,/M2_PWM*%
X198758565Y-86760685D03*
%TO.P,U1,23,IO21*%
%TO.N,/M2_DIR*%
X200028565Y-86760685D03*
%TO.P,U1,24,IO47*%
%TO.N,/CAMERA_CS*%
X201298565Y-86760685D03*
%TO.P,U1,25,IO48*%
%TO.N,/CAMERA_MOSI*%
X202568565Y-86760685D03*
%TO.P,U1,26,IO45*%
%TO.N,/GPIO45_STRAPPING*%
X203838565Y-86760685D03*
D17*
%TO.P,U1,27,IO0*%
%TO.N,/GPIO0_STRAPPING*%
X205603565Y-85510685D03*
%TO.P,U1,28,IO35*%
%TO.N,/CAMERA_MISO*%
X205603565Y-84240685D03*
%TO.P,U1,29,IO36*%
%TO.N,/CAMERA_SCK*%
X205603565Y-82970685D03*
%TO.P,U1,30,IO37*%
%TO.N,/CAMERA_SDA*%
X205603565Y-81700685D03*
%TO.P,U1,31,IO38*%
%TO.N,/CAMERA_SCL*%
X205603565Y-80430685D03*
%TO.P,U1,32,IO39*%
%TO.N,/MTCK*%
X205603565Y-79160685D03*
%TO.P,U1,33,IO40*%
%TO.N,/MTDO*%
X205603565Y-77890685D03*
%TO.P,U1,34,IO41*%
%TO.N,/MTDI*%
X205603565Y-76620685D03*
%TO.P,U1,35,IO42*%
%TO.N,/MTMS*%
X205603565Y-75350685D03*
%TO.P,U1,36,RXD0*%
%TO.N,/RX*%
X205603565Y-74080685D03*
%TO.P,U1,37,TXD0*%
%TO.N,/TX*%
X205603565Y-72810685D03*
%TO.P,U1,38,IO2*%
%TO.N,/I_M_1*%
X205603565Y-71540685D03*
%TO.P,U1,39,IO1*%
%TO.N,/I_M_2*%
X205603565Y-70270685D03*
%TO.P,U1,40,GND*%
%TO.N,GND*%
X205603565Y-69000685D03*
D19*
%TO.P,U1,41,GND*%
X195603565Y-76720685D03*
%TO.P,U1,42,GND*%
X195603565Y-75320685D03*
%TO.P,U1,43,GND*%
X194203565Y-75320685D03*
%TO.P,U1,44,GND*%
X194203565Y-76720685D03*
%TO.P,U1,45,GND*%
X194203565Y-78120685D03*
%TO.P,U1,46,GND*%
X195603565Y-78120685D03*
%TO.P,U1,47,GND*%
X197003565Y-78120685D03*
%TO.P,U1,48,GND*%
X197003565Y-76720685D03*
%TO.P,U1,49,GND*%
X197003565Y-75320685D03*
%TD*%
D11*
%TO.P,R6,1*%
%TO.N,/GPIO3_STRAPPING*%
X166106048Y-118756792D03*
%TO.P,R6,2*%
%TO.N,Net-(JP1-C)*%
X167931048Y-118756792D03*
%TD*%
D20*
%TO.P,C4,1*%
%TO.N,/GPIO0_STRAPPING*%
X221413378Y-118396298D03*
%TO.P,C4,2*%
%TO.N,GND*%
X223313378Y-118396298D03*
%TD*%
D10*
%TO.P,C7,1*%
%TO.N,+3V3*%
X151889487Y-92840046D03*
%TO.P,C7,2*%
%TO.N,GND*%
X153964487Y-92840046D03*
%TD*%
D12*
%TO.P,Injector1,1,Pin_1*%
%TO.N,GND*%
X135243207Y-61213213D03*
D13*
%TO.P,Injector1,2,Pin_2*%
%TO.N,Net-(BuckConv1-Pin_1)*%
X135243207Y-58673213D03*
%TD*%
D21*
%TO.P,R10,1*%
%TO.N,+3V3*%
X219792338Y-111666687D03*
%TO.P,R10,2*%
%TO.N,/GPIO0_STRAPPING*%
X219792338Y-109841687D03*
%TD*%
D22*
%TO.P,R2,1*%
%TO.N,+3V3*%
X137444333Y-93407402D03*
%TO.P,R2,2*%
%TO.N,/CAMERA_SDA*%
X137444333Y-91407402D03*
%TD*%
D20*
%TO.P,C6,1*%
%TO.N,+3V3*%
X178261713Y-75693899D03*
%TO.P,C6,2*%
%TO.N,GND*%
X180161713Y-75693899D03*
%TD*%
D11*
%TO.P,R7,1*%
%TO.N,Net-(Q1-C)*%
X203838848Y-91427388D03*
%TO.P,R7,2*%
%TO.N,/CHIP_PU*%
X205663848Y-91427388D03*
%TD*%
D20*
%TO.P,C3,1*%
%TO.N,/CHIP_PU*%
X198642564Y-117548376D03*
%TO.P,C3,2*%
%TO.N,GND*%
X200542564Y-117548376D03*
%TD*%
D23*
%TO.P,SW1,1,1*%
%TO.N,GND*%
X185157122Y-117350226D03*
X193107122Y-117350226D03*
%TO.P,SW1,2,2*%
%TO.N,/CHIP_PU*%
X185157122Y-121850226D03*
X193107122Y-121850226D03*
%TD*%
D10*
%TO.P,C2,1*%
%TO.N,+3V3*%
X163900929Y-67798738D03*
%TO.P,C2,2*%
%TO.N,GND*%
X165975929Y-67798738D03*
%TD*%
D12*
%TO.P,SensorConn1,1,Pin_1*%
%TO.N,GND*%
X135293817Y-113581960D03*
D13*
%TO.P,SensorConn1,2,Pin_2*%
X135293817Y-111041960D03*
%TO.P,SensorConn1,3,Pin_3*%
%TO.N,/GPIO5*%
X135293817Y-108501960D03*
%TO.P,SensorConn1,4,Pin_4*%
%TO.N,/CAMERA_SCL*%
X135293817Y-105961960D03*
%TO.P,SensorConn1,5,Pin_5*%
%TO.N,/CAMERA_SDA*%
X135293817Y-103421960D03*
%TO.P,SensorConn1,6,Pin_6*%
%TO.N,+3V3*%
X135293817Y-100881960D03*
%TD*%
D23*
%TO.P,SW2,1,1*%
%TO.N,GND*%
X207242576Y-117489609D03*
X215192576Y-117489609D03*
%TO.P,SW2,2,2*%
%TO.N,/GPIO0_STRAPPING*%
X207242576Y-121989609D03*
X215192576Y-121989609D03*
%TD*%
D12*
%TO.P,SensorConn2,1,Pin_1*%
%TO.N,GND*%
X148566087Y-113294023D03*
D13*
%TO.P,SensorConn2,2,Pin_2*%
X148566087Y-110754023D03*
%TO.P,SensorConn2,3,Pin_3*%
%TO.N,/GPIO6*%
X148566087Y-108214023D03*
%TO.P,SensorConn2,4,Pin_4*%
%TO.N,/CAMERA_SCL*%
X148566087Y-105674023D03*
%TO.P,SensorConn2,5,Pin_5*%
%TO.N,/CAMERA_SDA*%
X148566087Y-103134023D03*
%TO.P,SensorConn2,6,Pin_6*%
%TO.N,+3V3*%
X148566087Y-100594023D03*
%TD*%
D22*
%TO.P,R1,1*%
%TO.N,+3V3*%
X142345478Y-93344945D03*
%TO.P,R1,2*%
%TO.N,/CAMERA_SCL*%
X142345478Y-91344945D03*
%TD*%
D24*
%TO.P,BuckConv1,1,Pin_1*%
%TO.N,Net-(BuckConv1-Pin_1)*%
X155436600Y-59745523D03*
D25*
%TO.P,BuckConv1,2,Pin_2*%
%TO.N,GND*%
X157976600Y-59745523D03*
%TO.P,BuckConv1,3,Pin_3*%
%TO.N,Net-(BuckConv1-Pin_3)*%
X160516600Y-59745523D03*
%TO.P,BuckConv1,4,Pin_4*%
%TO.N,GND*%
X163056600Y-59745523D03*
%TD*%
D26*
%TO.P,D1,1,A*%
%TO.N,GND*%
X216458507Y-65339588D03*
D27*
%TO.P,D1,2,K*%
%TO.N,/D+*%
X216458507Y-67039588D03*
%TO.P,D1,3,K*%
%TO.N,/D-*%
X218458507Y-67039588D03*
%TO.P,D1,4,K*%
%TO.N,+5V*%
X218458507Y-65139588D03*
%TD*%
D28*
%TO.P,U4,1,VI*%
%TO.N,Net-(BuckConv1-Pin_3)*%
X155072830Y-75637066D03*
D29*
%TO.P,U4,2,GND*%
%TO.N,GND*%
X156342830Y-75637066D03*
%TO.P,U4,3,VO*%
%TO.N,+3V3*%
X157612830Y-75637066D03*
%TD*%
D30*
%TO.P,J1,1,VBUS*%
%TO.N,+5V*%
X218485347Y-58434667D03*
%TO.P,J1,2,D-*%
%TO.N,/D-*%
X217835347Y-58434667D03*
%TO.P,J1,3,D+*%
%TO.N,/D+*%
X217185347Y-58434667D03*
%TO.P,J1,4,ID*%
%TO.N,unconnected-(J1-ID-Pad4)*%
X216535347Y-58434667D03*
%TO.P,J1,5,GND*%
%TO.N,GND*%
X215885347Y-58434667D03*
D31*
%TO.P,J1,6,Shield*%
%TO.N,unconnected-(J1-Shield-Pad6)*%
X220685347Y-55734667D03*
D32*
X220085347Y-55734667D03*
D33*
X219685347Y-58434667D03*
D34*
X218185347Y-55734667D03*
X216185347Y-55734667D03*
D33*
X214685347Y-58434667D03*
D32*
X214285347Y-55734667D03*
D31*
X213685347Y-55734667D03*
%TD*%
D11*
%TO.P,R5,1*%
%TO.N,/RTS*%
X220879121Y-99999626D03*
%TO.P,R5,2*%
%TO.N,Net-(Q2-B)*%
X222704121Y-99999626D03*
%TD*%
D20*
%TO.P,C5,1*%
%TO.N,+3V3*%
X172390953Y-75744509D03*
%TO.P,C5,2*%
%TO.N,GND*%
X174290953Y-75744509D03*
%TD*%
D11*
%TO.P,R4,1*%
%TO.N,/DTR*%
X221299301Y-92034708D03*
%TO.P,R4,2*%
%TO.N,Net-(Q1-B)*%
X223124301Y-92034708D03*
%TD*%
D21*
%TO.P,R9,1*%
%TO.N,+3V3*%
X192949543Y-110666935D03*
%TO.P,R9,2*%
%TO.N,/CHIP_PU*%
X192949543Y-108841935D03*
%TD*%
D35*
%TO.P,Q1,1,B*%
%TO.N,Net-(Q1-B)*%
X214479807Y-93636414D03*
%TO.P,Q1,2,E*%
%TO.N,/RTS*%
X214479807Y-91736414D03*
%TO.P,Q1,3,C*%
%TO.N,Net-(Q1-C)*%
X212604807Y-92686414D03*
%TD*%
%TO.P,Q2,1,B*%
%TO.N,Net-(Q2-B)*%
X214682247Y-101126695D03*
%TO.P,Q2,2,E*%
%TO.N,/DTR*%
X214682247Y-99226695D03*
%TO.P,Q2,3,C*%
%TO.N,Net-(Q2-C)*%
X212807247Y-100176695D03*
%TD*%
D36*
%TO.N,GND*%
X169164000Y-77724000D03*
X194818000Y-114046000D03*
X155956000Y-98044000D03*
%TO.N,/CHIP_PU*%
X206603408Y-93486600D03*
X192175044Y-71856558D03*
%TO.N,/D+*%
X215221881Y-88627896D03*
X184639752Y-88577885D03*
%TO.N,/D-*%
X218572662Y-89753159D03*
X181964129Y-89228036D03*
%TO.N,/RTS*%
X210295733Y-91170156D03*
X221481674Y-95904593D03*
%TO.N,Net-(Q1-C)*%
X204861133Y-95171088D03*
X208728701Y-99188692D03*
%TO.N,/CAMERA_SCL*%
X140785020Y-104777894D03*
X209607414Y-78888785D03*
X172273711Y-105620016D03*
X140735008Y-98343061D03*
%TO.N,/CAMERA_SDA*%
X172148682Y-103019410D03*
X210807694Y-80364129D03*
%TO.N,/GPIO46_STRAPPING*%
X181900955Y-93698158D03*
X191878281Y-92647913D03*
%TO.N,/GPIO3_STRAPPING*%
X188377465Y-109076742D03*
X171898624Y-109376812D03*
%TO.N,/GPIO5*%
X141664478Y-108639122D03*
X183174154Y-79407308D03*
%TO.N,/GPIO6*%
X154975600Y-108201538D03*
X181781848Y-83320739D03*
%TO.N,/GPIO7*%
X185696779Y-82212085D03*
X168526110Y-108084782D03*
%TD*%
D37*
%TO.N,Net-(BuckConv1-Pin_1)*%
X154364290Y-58673213D02*
X155436600Y-59745523D01*
X135243207Y-58673213D02*
X154364290Y-58673213D01*
D38*
%TO.N,GND*%
X215885347Y-58434667D02*
X215885347Y-58718903D01*
X215885347Y-58718903D02*
X205603565Y-69000685D01*
%TO.N,Net-(BuckConv1-Pin_3)*%
X160516600Y-59745523D02*
X155072830Y-65189293D01*
X155072830Y-65189293D02*
X155072830Y-75637066D01*
%TO.N,/CHIP_PU*%
X205663848Y-91427388D02*
X204636848Y-90400388D01*
X203330420Y-90400388D02*
X192949543Y-100781265D01*
X192949543Y-100781265D02*
X192949543Y-108841935D01*
X188103565Y-71540685D02*
X191859171Y-71540685D01*
X204636848Y-90400388D02*
X203330420Y-90400388D01*
X185157122Y-121850226D02*
X193107122Y-121850226D01*
X198642564Y-117548376D02*
X198642564Y-114534956D01*
X193107122Y-121850226D02*
X194340714Y-121850226D01*
X198642564Y-114534956D02*
X192949543Y-108841935D01*
X206603408Y-93486600D02*
X206603408Y-92366948D01*
X191859171Y-71540685D02*
X192175044Y-71856558D01*
X194340714Y-121850226D02*
X198642564Y-117548376D01*
X206603408Y-92366948D02*
X205663848Y-91427388D01*
%TO.N,/GPIO0_STRAPPING*%
X207861832Y-97238237D02*
X207861832Y-87768952D01*
X202610983Y-100520514D02*
X202610983Y-99128658D01*
X202610983Y-99128658D02*
X202942055Y-98797586D01*
X205275483Y-99824586D02*
X207861832Y-97238237D01*
X215192576Y-121989609D02*
X217820067Y-121989609D01*
X204248483Y-98797586D02*
X205275483Y-99824586D01*
X202942055Y-98797586D02*
X204248483Y-98797586D01*
X211932156Y-109841687D02*
X202610983Y-100520514D01*
X219792338Y-109841687D02*
X211932156Y-109841687D01*
X221413378Y-118396298D02*
X221413378Y-111462727D01*
X221413378Y-111462727D02*
X219792338Y-109841687D01*
X207861832Y-87768952D02*
X205603565Y-85510685D01*
X217820067Y-121989609D02*
X221413378Y-118396298D01*
X207242576Y-121989609D02*
X215192576Y-121989609D01*
%TO.N,/D+*%
X184639752Y-86877489D02*
X186006556Y-85510685D01*
X184639752Y-88577885D02*
X184639752Y-86877489D01*
X217185347Y-58434667D02*
X217185347Y-66312748D01*
X217185347Y-66312748D02*
X216458507Y-67039588D01*
X186006556Y-85510685D02*
X188103565Y-85510685D01*
X216458507Y-87391270D02*
X215221881Y-88627896D01*
X216458507Y-67039588D02*
X216458507Y-87391270D01*
%TO.N,/D-*%
X217835347Y-58434667D02*
X217781507Y-58488507D01*
X181964129Y-88052762D02*
X185776206Y-84240685D01*
X217781507Y-58488507D02*
X217781507Y-66362588D01*
X218458507Y-67039588D02*
X218458507Y-89639004D01*
X217781507Y-66362588D02*
X218458507Y-67039588D01*
X218458507Y-89639004D02*
X218572662Y-89753159D01*
X185776206Y-84240685D02*
X188103565Y-84240685D01*
X181964129Y-89228036D02*
X181964129Y-88052762D01*
D37*
%TO.N,+5V*%
X218489347Y-65108748D02*
X218489347Y-58434667D01*
X218458507Y-65139588D02*
X218489347Y-65108748D01*
D38*
%TO.N,unconnected-(J1-Shield-Pad6)*%
X216185347Y-55734667D02*
X214285347Y-55734667D01*
X218185347Y-55734667D02*
X216185347Y-55734667D01*
X213685347Y-57434667D02*
X214685347Y-58434667D01*
X220685347Y-55734667D02*
X220685347Y-57434667D01*
X213685347Y-55734667D02*
X213685347Y-57434667D01*
X220085347Y-55734667D02*
X218185347Y-55734667D01*
X220685347Y-57434667D02*
X219685347Y-58434667D01*
%TO.N,Net-(JP1-C)*%
X169156479Y-118756792D02*
X171466363Y-116446908D01*
X167931048Y-118756792D02*
X169156479Y-118756792D01*
X171466363Y-116446908D02*
X175307661Y-116446908D01*
%TO.N,+3V3*%
X183684927Y-70270685D02*
X188103565Y-70270685D01*
X182506730Y-98791144D02*
X181479730Y-99818144D01*
X181479730Y-99818144D02*
X172222404Y-99818144D01*
X173442953Y-74692509D02*
X177260323Y-74692509D01*
X182506730Y-98791144D02*
X182506730Y-107247839D01*
X192949543Y-111850457D02*
X190353092Y-114446908D01*
X157612830Y-87116703D02*
X151889487Y-92840046D01*
X157612830Y-74086837D02*
X163900929Y-67798738D01*
X157612830Y-75637066D02*
X157612830Y-75852066D01*
X157612830Y-75852066D02*
X145129305Y-88335591D01*
X157612830Y-75852066D02*
X165704218Y-83943454D01*
X143046951Y-90417945D02*
X140433790Y-90417945D01*
X182506730Y-107247839D02*
X175307661Y-114446908D01*
X165704218Y-83943454D02*
X165704218Y-93299958D01*
X157612830Y-75637066D02*
X157612830Y-74086837D01*
X192949543Y-111849883D02*
X192949543Y-110666935D01*
X140433790Y-90417945D02*
X137444333Y-93407402D01*
X163900929Y-67798738D02*
X171846700Y-75744509D01*
X137444333Y-98731444D02*
X135293817Y-100881960D01*
X171846700Y-75744509D02*
X172390953Y-75744509D01*
X172390953Y-75744509D02*
X173442953Y-74692509D01*
X137444333Y-93407402D02*
X137444333Y-98731444D01*
X131562772Y-88335591D02*
X130510772Y-87283591D01*
X157612830Y-78077593D02*
X142345478Y-93344945D01*
X192949543Y-110666935D02*
X192949543Y-111850457D01*
X142345478Y-94373414D02*
X148566087Y-100594023D01*
X190353092Y-114446908D02*
X175307661Y-114446908D01*
X177260323Y-74692509D02*
X178261713Y-75693899D01*
X194911642Y-122827226D02*
X184055122Y-122827226D01*
X157612830Y-75637066D02*
X157612830Y-87116703D01*
X199469564Y-118269304D02*
X194911642Y-122827226D01*
X142345478Y-93344945D02*
X142345478Y-94373414D01*
X157612830Y-75852066D02*
X143046951Y-90417945D01*
X204630325Y-111666687D02*
X199469564Y-116827448D01*
X145129305Y-88335591D02*
X131562772Y-88335591D01*
X184055122Y-122827226D02*
X184055122Y-120744304D01*
X157612830Y-75637066D02*
X157612830Y-78077593D01*
X162635669Y-96368507D02*
X165704218Y-93299958D01*
X199469564Y-116827448D02*
X199469564Y-118269304D01*
X162635669Y-100432694D02*
X162635669Y-96368507D01*
X219792338Y-111666687D02*
X204630325Y-111666687D01*
X172222404Y-99818144D02*
X165704218Y-93299958D01*
X184055122Y-120744304D02*
X192949543Y-111849883D01*
X178261713Y-75693899D02*
X183684927Y-70270685D01*
%TO.N,Net-(Q1-B)*%
X217108513Y-91007708D02*
X214479807Y-93636414D01*
X223124301Y-92034708D02*
X222097301Y-91007708D01*
X222097301Y-91007708D02*
X217108513Y-91007708D01*
%TO.N,/RTS*%
X210861991Y-91736414D02*
X214479807Y-91736414D01*
X210295733Y-91170156D02*
X210861991Y-91736414D01*
X221906121Y-96329040D02*
X221481674Y-95904593D01*
X220879121Y-99999626D02*
X221906121Y-98972626D01*
X221906121Y-98972626D02*
X221906121Y-96329040D01*
%TO.N,Net-(Q1-C)*%
X208728701Y-96562520D02*
X208728701Y-99188692D01*
X204861133Y-95171088D02*
X203838848Y-94148803D01*
X212604807Y-92686414D02*
X208728701Y-96562520D01*
X203838848Y-94148803D02*
X203838848Y-91427388D01*
%TO.N,Net-(Q2-B)*%
X222704121Y-99999626D02*
X221577052Y-101126695D01*
X221577052Y-101126695D02*
X214682247Y-101126695D01*
%TO.N,/DTR*%
X221299301Y-92034708D02*
X221299301Y-92609641D01*
X221299301Y-92609641D02*
X214682247Y-99226695D01*
%TO.N,Net-(Q2-C)*%
X212807247Y-100176695D02*
X212132356Y-100851586D01*
X204477483Y-100851586D02*
X203450483Y-99824586D01*
X212132356Y-100851586D02*
X204477483Y-100851586D01*
%TO.N,/CAMERA_SCL*%
X162635669Y-105512694D02*
X172166389Y-105512694D01*
X148278150Y-105961960D02*
X148566087Y-105674023D01*
X172166389Y-105512694D02*
X172273711Y-105620016D01*
X135293817Y-105961960D02*
X148278150Y-105961960D01*
X209607414Y-78888785D02*
X208065514Y-80430685D01*
X141681149Y-105674023D02*
X148566087Y-105674023D01*
X148566087Y-105674023D02*
X162474340Y-105674023D01*
X140735008Y-92955415D02*
X140735008Y-98343061D01*
X142345478Y-91344945D02*
X140735008Y-92955415D01*
X140785020Y-104777894D02*
X141681149Y-105674023D01*
X162474340Y-105674023D02*
X162635669Y-105512694D01*
X208065514Y-80430685D02*
X205603565Y-80430685D01*
%TO.N,/CAMERA_SDA*%
X133871817Y-101999960D02*
X135293817Y-103421960D01*
X133871817Y-94979918D02*
X133871817Y-101999960D01*
X162474340Y-103134023D02*
X162635669Y-102972694D01*
X162635669Y-102972694D02*
X172101966Y-102972694D01*
X137444333Y-91407402D02*
X133871817Y-94979918D01*
X148278150Y-103421960D02*
X148566087Y-103134023D01*
X148566087Y-103134023D02*
X162474340Y-103134023D01*
X172148682Y-103019410D02*
X172101966Y-102972694D01*
X210807694Y-80364129D02*
X209471138Y-81700685D01*
X135293817Y-103421960D02*
X148278150Y-103421960D01*
X209471138Y-81700685D02*
X205603565Y-81700685D01*
%TO.N,/GPIO46_STRAPPING*%
X180681730Y-98791144D02*
X180681730Y-94917383D01*
X180681730Y-94917383D02*
X181900955Y-93698158D01*
X191138565Y-91908197D02*
X191138565Y-86760685D01*
X191878281Y-92647913D02*
X191138565Y-91908197D01*
%TO.N,/GPIO3_STRAPPING*%
X166106048Y-118756792D02*
X166106048Y-115169388D01*
X189868565Y-107585642D02*
X189868565Y-86760685D01*
X166106048Y-115169388D02*
X171898624Y-109376812D01*
X188377465Y-109076742D02*
X189868565Y-107585642D01*
%TO.N,/GPIO5*%
X187100265Y-74080685D02*
X188103565Y-74080685D01*
X183174154Y-78006796D02*
X187100265Y-74080685D01*
X135293817Y-108501960D02*
X135430979Y-108639122D01*
X135430979Y-108639122D02*
X141664478Y-108639122D01*
X183174154Y-79407308D02*
X183174154Y-78006796D01*
%TO.N,/GPIO6*%
X187100265Y-75350685D02*
X188103565Y-75350685D01*
X185257659Y-77193291D02*
X187100265Y-75350685D01*
X185257659Y-79844928D02*
X185257659Y-77193291D01*
X181781848Y-83320739D02*
X185257659Y-79844928D01*
X154963115Y-108214023D02*
X154975600Y-108201538D01*
X148566087Y-108214023D02*
X154963115Y-108214023D01*
%TO.N,/GPIO7*%
X162635669Y-108052694D02*
X168494022Y-108052694D01*
X186130213Y-77590737D02*
X187100265Y-76620685D01*
X186130213Y-81778651D02*
X186130213Y-77590737D01*
X185696779Y-82212085D02*
X186130213Y-81778651D01*
X187100265Y-76620685D02*
X188103565Y-76620685D01*
X168494022Y-108052694D02*
X168526110Y-108084782D01*
%TD*%
%TA.AperFunction,Conductor*%
%TO.N,GND*%
G36*
X227607540Y-51120184D02*
G01*
X227653295Y-51172988D01*
X227664501Y-51224499D01*
X227664501Y-125940501D01*
X227644816Y-126007540D01*
X227592012Y-126053295D01*
X227540501Y-126064501D01*
X129964499Y-126064501D01*
X129897460Y-126044816D01*
X129851705Y-125992012D01*
X129840499Y-125940501D01*
X129840499Y-88610671D01*
X129860184Y-88543632D01*
X129912988Y-88497877D01*
X129982146Y-88487933D01*
X130003495Y-88492963D01*
X130020475Y-88498590D01*
X130123263Y-88509091D01*
X130797490Y-88509090D01*
X130864529Y-88528774D01*
X130885171Y-88545409D01*
X131060396Y-88720634D01*
X131070243Y-88732924D01*
X131070461Y-88732745D01*
X131075429Y-88738750D01*
X131075431Y-88738752D01*
X131075432Y-88738753D01*
X131101130Y-88762885D01*
X131124618Y-88784942D01*
X131127415Y-88787653D01*
X131146979Y-88807217D01*
X131150157Y-88809681D01*
X131159053Y-88817278D01*
X131191007Y-88847286D01*
X131191009Y-88847287D01*
X131208639Y-88856978D01*
X131224907Y-88867663D01*
X131240810Y-88879999D01*
X131281034Y-88897405D01*
X131291526Y-88902545D01*
X131329930Y-88923659D01*
X131329932Y-88923660D01*
X131329938Y-88923663D01*
X131349012Y-88928560D01*
X131349432Y-88928668D01*
X131367836Y-88934968D01*
X131386314Y-88942965D01*
X131429623Y-88949824D01*
X131441030Y-88952186D01*
X131483500Y-88963091D01*
X131503630Y-88963091D01*
X131523029Y-88964618D01*
X131542905Y-88967766D01*
X131582700Y-88964004D01*
X131586542Y-88963641D01*
X131598211Y-88963091D01*
X143315024Y-88963091D01*
X143382063Y-88982776D01*
X143427818Y-89035580D01*
X143437762Y-89104738D01*
X143408737Y-89168294D01*
X143402705Y-89174772D01*
X142823351Y-89754126D01*
X142762028Y-89787611D01*
X142735670Y-89790445D01*
X140516757Y-89790445D01*
X140501108Y-89788717D01*
X140501082Y-89788999D01*
X140493314Y-89788264D01*
X140425872Y-89790384D01*
X140421978Y-89790445D01*
X140394313Y-89790445D01*
X140390304Y-89790951D01*
X140378674Y-89791866D01*
X140334850Y-89793243D01*
X140334844Y-89793244D01*
X140315509Y-89798861D01*
X140296470Y-89802804D01*
X140276505Y-89805327D01*
X140276491Y-89805330D01*
X140235740Y-89821464D01*
X140224695Y-89825246D01*
X140182597Y-89837477D01*
X140165274Y-89847722D01*
X140147805Y-89856280D01*
X140129090Y-89863690D01*
X140093628Y-89889454D01*
X140083867Y-89895865D01*
X140046137Y-89918178D01*
X140031896Y-89932419D01*
X140017110Y-89945047D01*
X140000823Y-89956881D01*
X139972880Y-89990657D01*
X139965019Y-89999295D01*
X138856513Y-91107802D01*
X138795190Y-91141287D01*
X138725498Y-91136303D01*
X138669565Y-91094431D01*
X138645148Y-91028967D01*
X138644832Y-91020121D01*
X138644832Y-91007400D01*
X138644831Y-91007383D01*
X138634332Y-90904605D01*
X138634331Y-90904602D01*
X138613636Y-90842148D01*
X138579147Y-90738068D01*
X138487045Y-90588746D01*
X138362989Y-90464690D01*
X138258651Y-90400334D01*
X138213669Y-90372589D01*
X138213664Y-90372587D01*
X138177257Y-90360523D01*
X138047130Y-90317403D01*
X138047128Y-90317402D01*
X137944343Y-90306902D01*
X136944331Y-90306902D01*
X136944313Y-90306903D01*
X136841536Y-90317402D01*
X136841533Y-90317403D01*
X136675001Y-90372587D01*
X136674996Y-90372589D01*
X136525675Y-90464691D01*
X136401622Y-90588744D01*
X136309520Y-90738065D01*
X136309519Y-90738068D01*
X136254334Y-90904605D01*
X136254334Y-90904606D01*
X136254333Y-90904606D01*
X136243833Y-91007385D01*
X136243833Y-91669120D01*
X136224148Y-91736159D01*
X136207514Y-91756801D01*
X133486770Y-94477544D01*
X133474486Y-94487387D01*
X133474666Y-94487605D01*
X133468654Y-94492578D01*
X133422463Y-94541765D01*
X133419758Y-94544556D01*
X133400196Y-94564118D01*
X133400192Y-94564123D01*
X133397712Y-94567321D01*
X133390134Y-94576192D01*
X133360125Y-94608148D01*
X133360122Y-94608152D01*
X133350423Y-94625795D01*
X133339745Y-94642051D01*
X133327411Y-94657952D01*
X133327406Y-94657960D01*
X133310002Y-94698180D01*
X133304863Y-94708670D01*
X133283744Y-94747085D01*
X133278737Y-94766586D01*
X133272438Y-94784982D01*
X133270224Y-94790101D01*
X133264442Y-94803462D01*
X133264441Y-94803464D01*
X133257586Y-94846749D01*
X133255218Y-94858185D01*
X133244317Y-94900641D01*
X133244317Y-94920776D01*
X133242790Y-94940175D01*
X133240195Y-94956562D01*
X133239642Y-94960051D01*
X133240668Y-94970899D01*
X133243767Y-95003685D01*
X133244317Y-95015355D01*
X133244317Y-101916992D01*
X133242589Y-101932641D01*
X133242871Y-101932668D01*
X133242136Y-101940435D01*
X133244256Y-102007877D01*
X133244317Y-102011771D01*
X133244317Y-102039436D01*
X133244823Y-102043445D01*
X133245738Y-102055076D01*
X133247115Y-102098902D01*
X133252733Y-102118235D01*
X133256679Y-102137289D01*
X133259200Y-102157247D01*
X133259203Y-102157259D01*
X133275336Y-102198008D01*
X133279119Y-102209058D01*
X133291347Y-102251147D01*
X133291347Y-102251148D01*
X133301594Y-102268475D01*
X133310152Y-102285945D01*
X133317562Y-102304661D01*
X133343328Y-102340124D01*
X133349742Y-102349889D01*
X133372051Y-102387612D01*
X133372057Y-102387620D01*
X133386286Y-102401848D01*
X133398923Y-102416644D01*
X133410754Y-102432927D01*
X133444534Y-102460872D01*
X133453163Y-102468725D01*
X133763583Y-102779145D01*
X133797068Y-102840468D01*
X133792552Y-102903606D01*
X133794090Y-102904077D01*
X133792548Y-102909109D01*
X133792547Y-102909113D01*
X133731032Y-103109980D01*
X133724233Y-103132183D01*
X133694601Y-103363584D01*
X133704502Y-103596660D01*
X133704503Y-103596669D01*
X133753653Y-103824726D01*
X133753654Y-103824729D01*
X133810306Y-103965712D01*
X133840638Y-104041195D01*
X133962955Y-104239851D01*
X134090882Y-104385204D01*
X134117087Y-104414979D01*
X134117090Y-104414982D01*
X134298590Y-104561533D01*
X134298592Y-104561534D01*
X134298597Y-104561538D01*
X134338919Y-104584063D01*
X134387845Y-104633943D01*
X134402037Y-104702356D01*
X134376989Y-104767582D01*
X134347882Y-104795052D01*
X134204724Y-104891810D01*
X134036300Y-105053232D01*
X134036299Y-105053233D01*
X133897579Y-105240794D01*
X133792550Y-105449107D01*
X133792547Y-105449113D01*
X133724233Y-105672183D01*
X133694601Y-105903584D01*
X133704502Y-106136660D01*
X133704503Y-106136669D01*
X133753653Y-106364726D01*
X133753654Y-106364729D01*
X133840636Y-106581191D01*
X133840638Y-106581195D01*
X133962955Y-106779851D01*
X134107140Y-106943677D01*
X134117087Y-106954979D01*
X134117090Y-106954982D01*
X134298590Y-107101533D01*
X134298592Y-107101534D01*
X134298597Y-107101538D01*
X134338919Y-107124063D01*
X134387845Y-107173943D01*
X134402037Y-107242356D01*
X134376989Y-107307582D01*
X134347882Y-107335052D01*
X134204724Y-107431810D01*
X134036300Y-107593232D01*
X134036299Y-107593233D01*
X133897579Y-107780794D01*
X133792550Y-107989107D01*
X133792547Y-107989113D01*
X133724233Y-108212183D01*
X133694601Y-108443584D01*
X133704502Y-108676660D01*
X133704503Y-108676669D01*
X133753653Y-108904726D01*
X133753654Y-108904729D01*
X133836353Y-109110532D01*
X133840638Y-109121195D01*
X133962955Y-109319851D01*
X134114750Y-109492324D01*
X134117087Y-109494979D01*
X134117090Y-109494982D01*
X134298590Y-109641533D01*
X134298596Y-109641538D01*
X134339407Y-109664336D01*
X134388334Y-109714216D01*
X134402526Y-109782629D01*
X134377478Y-109847855D01*
X134348370Y-109875325D01*
X134205045Y-109972195D01*
X134036677Y-110133563D01*
X134036676Y-110133564D01*
X133898006Y-110321057D01*
X133793013Y-110529298D01*
X133724723Y-110752289D01*
X133719643Y-110791959D01*
X133719644Y-110791960D01*
X134803104Y-110791960D01*
X134754113Y-110929808D01*
X134743868Y-111079578D01*
X134774411Y-111226557D01*
X134808300Y-111291960D01*
X133721241Y-111291960D01*
X133754133Y-111444579D01*
X133754133Y-111444580D01*
X133841084Y-111660965D01*
X133963358Y-111859552D01*
X134117433Y-112034615D01*
X134158048Y-112067409D01*
X134197841Y-112124840D01*
X134200268Y-112194668D01*
X134164557Y-112254722D01*
X134132562Y-112276264D01*
X134129703Y-112277596D01*
X133980471Y-112369644D01*
X133856501Y-112493614D01*
X133764460Y-112642835D01*
X133764458Y-112642840D01*
X133709311Y-112809262D01*
X133709310Y-112809269D01*
X133698817Y-112911973D01*
X133698817Y-113331960D01*
X134803104Y-113331960D01*
X134754113Y-113469808D01*
X134743868Y-113619578D01*
X134774411Y-113766557D01*
X134808300Y-113831960D01*
X133698818Y-113831960D01*
X133698818Y-114251946D01*
X133709311Y-114354657D01*
X133764458Y-114521079D01*
X133764460Y-114521084D01*
X133856501Y-114670305D01*
X133980471Y-114794275D01*
X134129692Y-114886316D01*
X134129697Y-114886318D01*
X134296119Y-114941465D01*
X134296126Y-114941466D01*
X134398836Y-114951959D01*
X135043816Y-114951959D01*
X135043817Y-114951958D01*
X135043817Y-114069078D01*
X135074205Y-114087558D01*
X135218757Y-114128060D01*
X135331170Y-114128060D01*
X135442538Y-114112753D01*
X135543817Y-114068761D01*
X135543817Y-114951959D01*
X136188789Y-114951959D01*
X136188803Y-114951958D01*
X136291514Y-114941465D01*
X136457936Y-114886318D01*
X136457941Y-114886316D01*
X136607162Y-114794275D01*
X136731132Y-114670305D01*
X136823173Y-114521084D01*
X136823175Y-114521079D01*
X136878322Y-114354657D01*
X136878323Y-114354650D01*
X136888816Y-114251946D01*
X136888817Y-114251933D01*
X136888817Y-113831960D01*
X135784530Y-113831960D01*
X135833521Y-113694112D01*
X135843766Y-113544342D01*
X135813223Y-113397363D01*
X135779334Y-113331960D01*
X136888816Y-113331960D01*
X136888816Y-112911988D01*
X136888815Y-112911973D01*
X136878322Y-112809262D01*
X136823175Y-112642840D01*
X136823173Y-112642835D01*
X136731132Y-112493614D01*
X136607162Y-112369644D01*
X136457935Y-112277600D01*
X136455001Y-112276232D01*
X136453326Y-112274757D01*
X136451792Y-112273811D01*
X136451953Y-112273548D01*
X136402562Y-112230060D01*
X136383410Y-112162866D01*
X136403626Y-112095985D01*
X136421606Y-112074327D01*
X136550956Y-111950355D01*
X136550957Y-111950355D01*
X136689627Y-111762862D01*
X136794620Y-111554621D01*
X136862910Y-111331630D01*
X136867990Y-111291960D01*
X135784530Y-111291960D01*
X135833521Y-111154112D01*
X135843766Y-111004342D01*
X135813223Y-110857363D01*
X135779334Y-110791960D01*
X136866393Y-110791960D01*
X136866392Y-110791959D01*
X136833500Y-110639340D01*
X136833500Y-110639339D01*
X136746549Y-110422954D01*
X136624275Y-110224367D01*
X136470199Y-110049303D01*
X136470195Y-110049299D01*
X136288762Y-109902802D01*
X136288752Y-109902795D01*
X136248250Y-109880169D01*
X136199324Y-109830289D01*
X136185132Y-109761876D01*
X136210180Y-109696651D01*
X136239286Y-109669182D01*
X136382905Y-109572113D01*
X136551333Y-109410688D01*
X136585336Y-109364713D01*
X136620709Y-109316887D01*
X136676399Y-109274693D01*
X136720404Y-109266622D01*
X140799738Y-109266622D01*
X140866777Y-109286307D01*
X140895592Y-109311958D01*
X140938887Y-109364713D01*
X141066483Y-109469429D01*
X141094385Y-109492327D01*
X141271791Y-109587153D01*
X141464288Y-109645546D01*
X141664478Y-109665263D01*
X141864668Y-109645546D01*
X142057165Y-109587153D01*
X142234571Y-109492327D01*
X142390069Y-109364713D01*
X142517683Y-109209215D01*
X142612509Y-109031809D01*
X142670902Y-108839312D01*
X142690619Y-108639122D01*
X142670902Y-108438932D01*
X142612509Y-108246435D01*
X142517683Y-108069029D01*
X142517680Y-108069025D01*
X142390069Y-107913530D01*
X142234574Y-107785919D01*
X142234572Y-107785918D01*
X142234571Y-107785917D01*
X142057165Y-107691091D01*
X141956188Y-107660460D01*
X141864666Y-107632697D01*
X141664478Y-107612981D01*
X141464289Y-107632697D01*
X141271788Y-107691092D01*
X141094381Y-107785919D01*
X140938887Y-107913530D01*
X140895592Y-107966286D01*
X140837846Y-108005621D01*
X140799738Y-108011622D01*
X136882600Y-108011622D01*
X136815561Y-107991937D01*
X136769806Y-107939133D01*
X136767542Y-107933856D01*
X136751775Y-107894618D01*
X136746996Y-107882725D01*
X136624679Y-107684069D01*
X136470548Y-107508942D01*
X136470546Y-107508940D01*
X136470543Y-107508937D01*
X136289043Y-107362386D01*
X136289032Y-107362379D01*
X136248714Y-107339855D01*
X136199788Y-107289975D01*
X136185596Y-107221562D01*
X136210644Y-107156336D01*
X136239748Y-107128870D01*
X136382905Y-107032113D01*
X136551333Y-106870688D01*
X136690057Y-106683121D01*
X136702908Y-106657633D01*
X136750667Y-106606635D01*
X136813630Y-106589460D01*
X147265025Y-106589460D01*
X147332064Y-106609145D01*
X147358106Y-106631535D01*
X147376354Y-106652268D01*
X147389357Y-106667042D01*
X147389360Y-106667045D01*
X147570860Y-106813596D01*
X147570862Y-106813597D01*
X147570867Y-106813601D01*
X147611189Y-106836126D01*
X147660115Y-106886006D01*
X147674307Y-106954419D01*
X147649259Y-107019645D01*
X147620152Y-107047115D01*
X147476994Y-107143873D01*
X147308570Y-107305295D01*
X147308569Y-107305296D01*
X147169849Y-107492857D01*
X147064820Y-107701170D01*
X147064817Y-107701176D01*
X146996503Y-107924246D01*
X146966871Y-108155647D01*
X146976772Y-108388723D01*
X146976773Y-108388732D01*
X147025923Y-108616789D01*
X147025924Y-108616792D01*
X147112906Y-108833254D01*
X147112908Y-108833258D01*
X147235225Y-109031914D01*
X147343058Y-109154436D01*
X147389357Y-109207042D01*
X147389360Y-109207045D01*
X147570860Y-109353596D01*
X147570866Y-109353601D01*
X147611677Y-109376399D01*
X147660604Y-109426279D01*
X147674796Y-109494692D01*
X147649748Y-109559918D01*
X147620640Y-109587388D01*
X147477315Y-109684258D01*
X147308947Y-109845626D01*
X147308946Y-109845627D01*
X147170276Y-110033120D01*
X147065283Y-110241361D01*
X146996993Y-110464352D01*
X146991913Y-110504022D01*
X146991914Y-110504023D01*
X148075374Y-110504023D01*
X148026383Y-110641871D01*
X148016138Y-110791641D01*
X148046681Y-110938620D01*
X148080570Y-111004023D01*
X146993511Y-111004023D01*
X147026403Y-111156642D01*
X147026403Y-111156643D01*
X147113354Y-111373028D01*
X147235628Y-111571615D01*
X147389703Y-111746678D01*
X147430318Y-111779472D01*
X147470111Y-111836903D01*
X147472538Y-111906731D01*
X147436827Y-111966785D01*
X147404832Y-111988327D01*
X147401973Y-111989659D01*
X147252741Y-112081707D01*
X147128771Y-112205677D01*
X147036730Y-112354898D01*
X147036728Y-112354903D01*
X146981581Y-112521325D01*
X146981580Y-112521332D01*
X146971087Y-112624036D01*
X146971087Y-113044023D01*
X148075374Y-113044023D01*
X148026383Y-113181871D01*
X148016138Y-113331641D01*
X148046681Y-113478620D01*
X148080570Y-113544023D01*
X146971088Y-113544023D01*
X146971088Y-113964009D01*
X146981581Y-114066720D01*
X147036728Y-114233142D01*
X147036730Y-114233147D01*
X147128771Y-114382368D01*
X147252741Y-114506338D01*
X147401962Y-114598379D01*
X147401967Y-114598381D01*
X147568389Y-114653528D01*
X147568396Y-114653529D01*
X147671106Y-114664022D01*
X148316086Y-114664022D01*
X148316087Y-114664021D01*
X148316087Y-113781141D01*
X148346475Y-113799621D01*
X148491027Y-113840123D01*
X148603440Y-113840123D01*
X148714808Y-113824816D01*
X148816087Y-113780824D01*
X148816087Y-114664022D01*
X149461059Y-114664022D01*
X149461073Y-114664021D01*
X149563784Y-114653528D01*
X149730206Y-114598381D01*
X149730211Y-114598379D01*
X149879432Y-114506338D01*
X150003402Y-114382368D01*
X150095443Y-114233147D01*
X150095445Y-114233142D01*
X150150592Y-114066720D01*
X150150593Y-114066713D01*
X150161086Y-113964009D01*
X150161087Y-113963996D01*
X150161087Y-113544023D01*
X149056800Y-113544023D01*
X149105791Y-113406175D01*
X149116036Y-113256405D01*
X149085493Y-113109426D01*
X149051604Y-113044023D01*
X150161086Y-113044023D01*
X150161086Y-112624051D01*
X150161085Y-112624036D01*
X150150592Y-112521325D01*
X150095445Y-112354903D01*
X150095443Y-112354898D01*
X150003402Y-112205677D01*
X149879432Y-112081707D01*
X149730205Y-111989663D01*
X149727271Y-111988295D01*
X149725596Y-111986820D01*
X149724062Y-111985874D01*
X149724223Y-111985611D01*
X149674832Y-111942123D01*
X149655680Y-111874929D01*
X149675896Y-111808048D01*
X149693876Y-111786390D01*
X149823226Y-111662418D01*
X149823227Y-111662418D01*
X149961897Y-111474925D01*
X150066890Y-111266684D01*
X150135180Y-111043693D01*
X150140260Y-111004023D01*
X149056800Y-111004023D01*
X149105791Y-110866175D01*
X149116036Y-110716405D01*
X149085493Y-110569426D01*
X149051604Y-110504023D01*
X150138663Y-110504023D01*
X150138662Y-110504022D01*
X150105770Y-110351403D01*
X150105770Y-110351402D01*
X150018819Y-110135017D01*
X149896545Y-109936430D01*
X149742469Y-109761366D01*
X149742465Y-109761362D01*
X149561032Y-109614865D01*
X149561022Y-109614858D01*
X149520520Y-109592232D01*
X149471594Y-109542352D01*
X149457402Y-109473939D01*
X149482450Y-109408714D01*
X149511556Y-109381245D01*
X149655175Y-109284176D01*
X149823603Y-109122751D01*
X149962327Y-108935184D01*
X149975178Y-108909696D01*
X150022937Y-108858698D01*
X150085900Y-108841523D01*
X154121106Y-108841523D01*
X154188145Y-108861208D01*
X154216959Y-108886858D01*
X154250008Y-108927129D01*
X154405503Y-109054740D01*
X154405507Y-109054743D01*
X154582913Y-109149569D01*
X154775410Y-109207962D01*
X154975600Y-109227679D01*
X155175790Y-109207962D01*
X155368287Y-109149569D01*
X155545693Y-109054743D01*
X155701191Y-108927129D01*
X155828805Y-108771631D01*
X155923631Y-108594225D01*
X155982024Y-108401728D01*
X156001741Y-108201538D01*
X155982024Y-108001348D01*
X155923631Y-107808851D01*
X155828805Y-107631445D01*
X155807520Y-107605509D01*
X155701191Y-107475946D01*
X155545696Y-107348335D01*
X155545694Y-107348334D01*
X155545693Y-107348333D01*
X155368287Y-107253507D01*
X155232775Y-107212400D01*
X155175788Y-107195113D01*
X154975600Y-107175397D01*
X154775411Y-107195113D01*
X154582910Y-107253508D01*
X154405503Y-107348335D01*
X154250009Y-107475946D01*
X154196468Y-107541187D01*
X154138722Y-107580522D01*
X154100614Y-107586523D01*
X150083448Y-107586523D01*
X150016409Y-107566838D01*
X149977858Y-107527537D01*
X149966407Y-107508940D01*
X149896949Y-107396132D01*
X149742818Y-107221005D01*
X149742816Y-107221003D01*
X149742813Y-107221000D01*
X149561313Y-107074449D01*
X149561302Y-107074442D01*
X149520984Y-107051918D01*
X149472058Y-107002038D01*
X149457866Y-106933625D01*
X149482914Y-106868399D01*
X149512018Y-106840933D01*
X149655175Y-106744176D01*
X149823603Y-106582751D01*
X149962327Y-106395184D01*
X149975178Y-106369696D01*
X150022937Y-106318698D01*
X150085900Y-106301523D01*
X161223178Y-106301523D01*
X161290217Y-106321208D01*
X161316259Y-106343598D01*
X161339229Y-106369696D01*
X161458938Y-106505712D01*
X161458942Y-106505716D01*
X161640442Y-106652267D01*
X161640444Y-106652268D01*
X161640449Y-106652272D01*
X161680771Y-106674797D01*
X161729697Y-106724677D01*
X161743889Y-106793090D01*
X161718841Y-106858316D01*
X161689734Y-106885786D01*
X161546576Y-106982544D01*
X161378152Y-107143966D01*
X161378151Y-107143967D01*
X161239431Y-107331528D01*
X161134402Y-107539841D01*
X161134399Y-107539847D01*
X161066085Y-107762917D01*
X161036453Y-107994318D01*
X161046354Y-108227394D01*
X161046355Y-108227403D01*
X161095505Y-108455460D01*
X161095506Y-108455463D01*
X161175637Y-108654875D01*
X161182490Y-108671929D01*
X161304807Y-108870585D01*
X161458938Y-109045712D01*
X161458939Y-109045713D01*
X161458942Y-109045716D01*
X161640442Y-109192267D01*
X161640448Y-109192272D01*
X161681259Y-109215070D01*
X161730186Y-109264950D01*
X161744378Y-109333363D01*
X161719330Y-109398589D01*
X161690222Y-109426059D01*
X161546897Y-109522929D01*
X161378529Y-109684297D01*
X161378528Y-109684298D01*
X161239858Y-109871791D01*
X161134865Y-110080032D01*
X161066575Y-110303023D01*
X161061495Y-110342693D01*
X161061496Y-110342694D01*
X162144956Y-110342694D01*
X162095965Y-110480542D01*
X162085720Y-110630312D01*
X162116263Y-110777291D01*
X162150152Y-110842694D01*
X161063093Y-110842694D01*
X161095985Y-110995313D01*
X161095985Y-110995314D01*
X161182936Y-111211699D01*
X161305210Y-111410286D01*
X161459285Y-111585349D01*
X161499900Y-111618143D01*
X161539693Y-111675574D01*
X161542120Y-111745402D01*
X161506409Y-111805456D01*
X161474414Y-111826998D01*
X161471555Y-111828330D01*
X161322323Y-111920378D01*
X161198353Y-112044348D01*
X161106312Y-112193569D01*
X161106310Y-112193574D01*
X161051163Y-112359996D01*
X161051162Y-112360003D01*
X161040669Y-112462707D01*
X161040669Y-112882694D01*
X162144956Y-112882694D01*
X162095965Y-113020542D01*
X162085720Y-113170312D01*
X162116263Y-113317291D01*
X162150152Y-113382694D01*
X161040670Y-113382694D01*
X161040670Y-113802680D01*
X161051163Y-113905391D01*
X161106310Y-114071813D01*
X161106312Y-114071818D01*
X161198353Y-114221039D01*
X161322323Y-114345009D01*
X161471544Y-114437050D01*
X161471549Y-114437052D01*
X161637971Y-114492199D01*
X161637978Y-114492200D01*
X161740688Y-114502693D01*
X162385668Y-114502693D01*
X162385669Y-114502692D01*
X162385669Y-113619812D01*
X162416057Y-113638292D01*
X162560609Y-113678794D01*
X162673022Y-113678794D01*
X162784390Y-113663487D01*
X162885669Y-113619495D01*
X162885669Y-114502693D01*
X163530641Y-114502693D01*
X163530655Y-114502692D01*
X163633366Y-114492199D01*
X163799788Y-114437052D01*
X163799793Y-114437050D01*
X163949014Y-114345009D01*
X164072984Y-114221039D01*
X164165025Y-114071818D01*
X164165027Y-114071813D01*
X164220174Y-113905391D01*
X164220175Y-113905384D01*
X164230668Y-113802680D01*
X164230669Y-113802667D01*
X164230669Y-113382694D01*
X163126382Y-113382694D01*
X163175373Y-113244846D01*
X163185618Y-113095076D01*
X163155075Y-112948097D01*
X163121186Y-112882694D01*
X164230668Y-112882694D01*
X164230668Y-112462722D01*
X164230667Y-112462707D01*
X164220174Y-112359996D01*
X164165027Y-112193574D01*
X164165025Y-112193569D01*
X164072984Y-112044348D01*
X163949014Y-111920378D01*
X163799787Y-111828334D01*
X163796853Y-111826966D01*
X163795178Y-111825491D01*
X163793644Y-111824545D01*
X163793805Y-111824282D01*
X163744414Y-111780794D01*
X163725262Y-111713600D01*
X163745478Y-111646719D01*
X163763458Y-111625061D01*
X163892808Y-111501089D01*
X163892809Y-111501089D01*
X164031479Y-111313596D01*
X164136472Y-111105355D01*
X164204762Y-110882364D01*
X164209842Y-110842694D01*
X163126382Y-110842694D01*
X163175373Y-110704846D01*
X163185618Y-110555076D01*
X163155075Y-110408097D01*
X163121186Y-110342694D01*
X164208245Y-110342694D01*
X164208244Y-110342693D01*
X164175352Y-110190074D01*
X164175352Y-110190073D01*
X164088401Y-109973688D01*
X163966127Y-109775101D01*
X163812051Y-109600037D01*
X163812047Y-109600033D01*
X163630614Y-109453536D01*
X163630604Y-109453529D01*
X163590102Y-109430903D01*
X163541176Y-109381023D01*
X163526984Y-109312610D01*
X163552032Y-109247385D01*
X163581138Y-109219916D01*
X163724757Y-109122847D01*
X163893185Y-108961422D01*
X164031909Y-108773855D01*
X164044760Y-108748367D01*
X164092519Y-108697369D01*
X164155482Y-108680194D01*
X167635036Y-108680194D01*
X167702075Y-108699879D01*
X167730889Y-108725529D01*
X167800518Y-108810373D01*
X167952606Y-108935188D01*
X167956017Y-108937987D01*
X168133423Y-109032813D01*
X168325920Y-109091206D01*
X168526110Y-109110923D01*
X168726300Y-109091206D01*
X168918797Y-109032813D01*
X169096203Y-108937987D01*
X169251701Y-108810373D01*
X169379315Y-108654875D01*
X169474141Y-108477469D01*
X169532534Y-108284972D01*
X169552251Y-108084782D01*
X169532534Y-107884592D01*
X169474141Y-107692095D01*
X169379315Y-107514689D01*
X169374597Y-107508940D01*
X169251701Y-107359190D01*
X169096206Y-107231579D01*
X169096204Y-107231578D01*
X169096203Y-107231577D01*
X168918797Y-107136751D01*
X168802715Y-107101538D01*
X168726298Y-107078357D01*
X168526110Y-107058641D01*
X168325921Y-107078357D01*
X168133420Y-107136752D01*
X167956013Y-107231579D01*
X167800519Y-107359190D01*
X167783558Y-107379858D01*
X167725813Y-107419193D01*
X167687704Y-107425194D01*
X164153030Y-107425194D01*
X164085991Y-107405509D01*
X164047440Y-107366208D01*
X164036434Y-107348333D01*
X163966531Y-107234803D01*
X163812400Y-107059676D01*
X163812398Y-107059674D01*
X163812395Y-107059671D01*
X163630895Y-106913120D01*
X163630884Y-106913113D01*
X163590566Y-106890589D01*
X163541640Y-106840709D01*
X163527448Y-106772296D01*
X163552496Y-106707070D01*
X163581600Y-106679604D01*
X163724757Y-106582847D01*
X163893185Y-106421422D01*
X164031909Y-106233855D01*
X164044760Y-106208367D01*
X164092519Y-106157369D01*
X164155482Y-106140194D01*
X171320894Y-106140194D01*
X171387933Y-106159879D01*
X171416747Y-106185529D01*
X171548119Y-106345607D01*
X171703614Y-106473218D01*
X171703618Y-106473221D01*
X171881024Y-106568047D01*
X172073521Y-106626440D01*
X172273711Y-106646157D01*
X172473901Y-106626440D01*
X172666398Y-106568047D01*
X172843804Y-106473221D01*
X172999302Y-106345607D01*
X173126916Y-106190109D01*
X173221742Y-106012703D01*
X173280135Y-105820206D01*
X173299852Y-105620016D01*
X173280135Y-105419826D01*
X173221742Y-105227329D01*
X173126916Y-105049923D01*
X173107971Y-105026838D01*
X172999302Y-104894424D01*
X172843807Y-104766813D01*
X172843805Y-104766812D01*
X172843804Y-104766811D01*
X172666398Y-104671985D01*
X172540990Y-104633943D01*
X172473899Y-104613591D01*
X172273711Y-104593875D01*
X172073522Y-104613591D01*
X171881021Y-104671986D01*
X171703614Y-104766813D01*
X171593665Y-104857047D01*
X171529355Y-104884360D01*
X171515000Y-104885194D01*
X164153030Y-104885194D01*
X164085991Y-104865509D01*
X164047440Y-104826208D01*
X164031214Y-104799855D01*
X163966531Y-104694803D01*
X163812400Y-104519676D01*
X163812398Y-104519674D01*
X163812395Y-104519671D01*
X163630895Y-104373120D01*
X163630884Y-104373113D01*
X163590566Y-104350589D01*
X163541640Y-104300709D01*
X163527448Y-104232296D01*
X163552496Y-104167070D01*
X163581600Y-104139604D01*
X163724757Y-104042847D01*
X163893185Y-103881422D01*
X164031909Y-103693855D01*
X164044760Y-103668367D01*
X164092519Y-103617369D01*
X164155482Y-103600194D01*
X171245603Y-103600194D01*
X171312642Y-103619879D01*
X171341456Y-103645529D01*
X171423090Y-103745001D01*
X171526292Y-103829696D01*
X171578589Y-103872615D01*
X171755995Y-103967441D01*
X171948492Y-104025834D01*
X172148682Y-104045551D01*
X172348872Y-104025834D01*
X172541369Y-103967441D01*
X172718775Y-103872615D01*
X172874273Y-103745001D01*
X173001887Y-103589503D01*
X173096713Y-103412097D01*
X173155106Y-103219600D01*
X173174823Y-103019410D01*
X173155106Y-102819220D01*
X173096713Y-102626723D01*
X173001887Y-102449317D01*
X172985162Y-102428937D01*
X172874273Y-102293818D01*
X172718778Y-102166207D01*
X172718776Y-102166206D01*
X172718775Y-102166205D01*
X172541369Y-102071379D01*
X172445120Y-102042182D01*
X172348870Y-102012985D01*
X172148682Y-101993269D01*
X171948493Y-102012985D01*
X171755992Y-102071380D01*
X171578585Y-102166207D01*
X171423094Y-102293815D01*
X171418133Y-102299861D01*
X171360386Y-102339194D01*
X171322281Y-102345194D01*
X164153030Y-102345194D01*
X164085991Y-102325509D01*
X164047440Y-102286208D01*
X164026087Y-102251528D01*
X163966531Y-102154803D01*
X163812400Y-101979676D01*
X163812398Y-101979674D01*
X163812395Y-101979671D01*
X163630895Y-101833120D01*
X163630884Y-101833113D01*
X163590566Y-101810589D01*
X163541640Y-101760709D01*
X163527448Y-101692296D01*
X163552496Y-101627070D01*
X163581600Y-101599604D01*
X163724757Y-101502847D01*
X163893185Y-101341422D01*
X164031909Y-101153855D01*
X164136939Y-100945541D01*
X164205252Y-100722474D01*
X164234885Y-100491070D01*
X164234380Y-100479193D01*
X164228447Y-100339532D01*
X164224983Y-100257987D01*
X164175833Y-100029929D01*
X164088848Y-99813459D01*
X163966531Y-99614803D01*
X163812400Y-99439676D01*
X163812398Y-99439674D01*
X163812395Y-99439671D01*
X163630895Y-99293120D01*
X163630889Y-99293115D01*
X163427224Y-99179341D01*
X163345859Y-99150593D01*
X163289207Y-99109699D01*
X163263657Y-99044668D01*
X163263169Y-99033676D01*
X163263169Y-96679787D01*
X163282854Y-96612748D01*
X163299483Y-96592111D01*
X165329818Y-94561775D01*
X165391141Y-94528291D01*
X165417499Y-94525457D01*
X165990936Y-94525457D01*
X166057975Y-94545142D01*
X166078617Y-94561776D01*
X171720028Y-100203187D01*
X171729875Y-100215477D01*
X171730093Y-100215298D01*
X171735061Y-100221303D01*
X171735063Y-100221305D01*
X171735064Y-100221306D01*
X171758117Y-100242954D01*
X171784250Y-100267495D01*
X171787047Y-100270206D01*
X171806611Y-100289770D01*
X171809789Y-100292234D01*
X171818685Y-100299831D01*
X171850639Y-100329839D01*
X171850641Y-100329840D01*
X171868272Y-100339532D01*
X171884541Y-100350218D01*
X171900441Y-100362551D01*
X171900442Y-100362552D01*
X171940666Y-100379959D01*
X171951158Y-100385099D01*
X171989565Y-100406214D01*
X171989568Y-100406215D01*
X171989570Y-100406216D01*
X172009063Y-100411220D01*
X172027471Y-100417523D01*
X172045945Y-100425518D01*
X172089248Y-100432375D01*
X172100675Y-100434742D01*
X172143132Y-100445644D01*
X172163262Y-100445644D01*
X172182659Y-100447170D01*
X172202537Y-100450319D01*
X172242332Y-100446557D01*
X172246174Y-100446194D01*
X172257843Y-100445644D01*
X181396763Y-100445644D01*
X181412411Y-100447371D01*
X181412438Y-100447090D01*
X181420205Y-100447824D01*
X181420206Y-100447823D01*
X181420207Y-100447824D01*
X181487649Y-100445705D01*
X181491543Y-100445644D01*
X181519202Y-100445644D01*
X181519206Y-100445644D01*
X181523204Y-100445138D01*
X181534844Y-100444221D01*
X181578673Y-100442845D01*
X181598002Y-100437228D01*
X181617058Y-100433281D01*
X181637023Y-100430760D01*
X181677785Y-100414620D01*
X181688809Y-100410845D01*
X181720639Y-100401599D01*
X181790506Y-100401800D01*
X181849175Y-100439742D01*
X181878018Y-100503381D01*
X181879230Y-100520676D01*
X181879230Y-106936558D01*
X181859545Y-107003597D01*
X181842911Y-107024239D01*
X175462208Y-113404942D01*
X175400885Y-113438427D01*
X175374527Y-113441261D01*
X174557658Y-113441261D01*
X174485700Y-113446407D01*
X174485695Y-113446408D01*
X174347610Y-113486953D01*
X174226534Y-113564764D01*
X174132284Y-113673534D01*
X174132283Y-113673536D01*
X174072495Y-113804451D01*
X174052014Y-113946909D01*
X174052014Y-114946892D01*
X174052015Y-114946925D01*
X174056021Y-115010444D01*
X174056022Y-115010449D01*
X174068852Y-115057025D01*
X174072042Y-115107601D01*
X174052014Y-115246906D01*
X174052014Y-115695408D01*
X174032329Y-115762447D01*
X173979525Y-115808202D01*
X173928014Y-115819408D01*
X171549330Y-115819408D01*
X171533682Y-115817680D01*
X171533656Y-115817962D01*
X171525888Y-115817227D01*
X171458458Y-115819347D01*
X171454563Y-115819408D01*
X171426882Y-115819408D01*
X171422864Y-115819915D01*
X171411237Y-115820830D01*
X171367421Y-115822207D01*
X171367417Y-115822208D01*
X171348085Y-115827824D01*
X171329045Y-115831767D01*
X171309075Y-115834290D01*
X171309071Y-115834291D01*
X171268316Y-115850427D01*
X171257268Y-115854209D01*
X171215175Y-115866438D01*
X171215168Y-115866441D01*
X171197843Y-115876687D01*
X171180373Y-115885245D01*
X171161661Y-115892653D01*
X171126189Y-115918424D01*
X171116429Y-115924835D01*
X171078709Y-115947142D01*
X171064469Y-115961382D01*
X171049683Y-115974010D01*
X171033396Y-115985844D01*
X171005453Y-116019620D01*
X170997592Y-116028258D01*
X169050304Y-117975546D01*
X168988981Y-118009031D01*
X168919289Y-118004047D01*
X168863356Y-117962175D01*
X168857084Y-117952961D01*
X168786260Y-117838136D01*
X168662205Y-117714081D01*
X168662204Y-117714080D01*
X168553295Y-117646905D01*
X168512884Y-117621979D01*
X168512879Y-117621977D01*
X168511410Y-117621490D01*
X168346345Y-117566793D01*
X168346343Y-117566792D01*
X168243558Y-117556292D01*
X167618546Y-117556292D01*
X167618528Y-117556293D01*
X167515751Y-117566792D01*
X167515748Y-117566793D01*
X167349216Y-117621977D01*
X167349211Y-117621979D01*
X167199890Y-117714081D01*
X167106229Y-117807743D01*
X167044906Y-117841228D01*
X166975214Y-117836244D01*
X166930867Y-117807743D01*
X166837203Y-117714079D01*
X166792450Y-117686475D01*
X166745726Y-117634527D01*
X166733548Y-117580937D01*
X166733548Y-115480668D01*
X166753233Y-115413629D01*
X166769862Y-115392992D01*
X171730870Y-110431983D01*
X171792191Y-110398500D01*
X171830701Y-110396263D01*
X171898624Y-110402953D01*
X172098814Y-110383236D01*
X172291311Y-110324843D01*
X172468717Y-110230017D01*
X172624215Y-110102403D01*
X172751829Y-109946905D01*
X172846655Y-109769499D01*
X172905048Y-109577002D01*
X172924765Y-109376812D01*
X172905048Y-109176622D01*
X172846655Y-108984125D01*
X172751829Y-108806719D01*
X172751826Y-108806715D01*
X172624215Y-108651220D01*
X172468720Y-108523609D01*
X172468718Y-108523608D01*
X172468717Y-108523607D01*
X172291311Y-108428781D01*
X172195062Y-108399584D01*
X172098812Y-108370387D01*
X171898624Y-108350671D01*
X171698435Y-108370387D01*
X171527950Y-108422103D01*
X171513012Y-108426635D01*
X171505934Y-108428782D01*
X171328527Y-108523609D01*
X171173032Y-108651220D01*
X171045421Y-108806715D01*
X170950594Y-108984122D01*
X170892199Y-109176623D01*
X170872483Y-109376812D01*
X170879172Y-109444731D01*
X170866153Y-109513377D01*
X170843450Y-109544565D01*
X165721001Y-114667014D01*
X165708717Y-114676857D01*
X165708897Y-114677075D01*
X165702885Y-114682048D01*
X165656694Y-114731235D01*
X165653989Y-114734026D01*
X165634427Y-114753588D01*
X165634423Y-114753593D01*
X165631943Y-114756791D01*
X165624365Y-114765662D01*
X165594356Y-114797618D01*
X165594353Y-114797622D01*
X165584654Y-114815265D01*
X165573976Y-114831521D01*
X165561642Y-114847422D01*
X165561637Y-114847430D01*
X165544233Y-114887650D01*
X165539094Y-114898140D01*
X165517975Y-114936555D01*
X165512968Y-114956056D01*
X165506669Y-114974452D01*
X165499941Y-114990000D01*
X165498673Y-114992932D01*
X165498672Y-114992934D01*
X165491817Y-115036219D01*
X165489449Y-115047655D01*
X165478548Y-115090111D01*
X165478548Y-115110246D01*
X165477021Y-115129645D01*
X165473873Y-115149519D01*
X165477998Y-115193155D01*
X165478548Y-115204825D01*
X165478548Y-117580937D01*
X165458863Y-117647976D01*
X165419646Y-117686475D01*
X165374892Y-117714079D01*
X165250837Y-117838134D01*
X165158735Y-117987455D01*
X165158734Y-117987458D01*
X165103549Y-118153995D01*
X165103549Y-118153996D01*
X165103548Y-118153996D01*
X165093048Y-118256775D01*
X165093048Y-119256793D01*
X165093049Y-119256811D01*
X165103548Y-119359588D01*
X165103549Y-119359591D01*
X165158733Y-119526123D01*
X165158734Y-119526126D01*
X165250836Y-119675448D01*
X165374892Y-119799504D01*
X165524214Y-119891606D01*
X165690751Y-119946791D01*
X165793539Y-119957292D01*
X166418556Y-119957291D01*
X166418564Y-119957290D01*
X166418567Y-119957290D01*
X166474850Y-119951540D01*
X166521345Y-119946791D01*
X166687882Y-119891606D01*
X166837204Y-119799504D01*
X166930867Y-119705841D01*
X166992190Y-119672356D01*
X167061882Y-119677340D01*
X167106229Y-119705841D01*
X167199892Y-119799504D01*
X167349214Y-119891606D01*
X167515751Y-119946791D01*
X167618539Y-119957292D01*
X168243556Y-119957291D01*
X168243564Y-119957290D01*
X168243567Y-119957290D01*
X168299850Y-119951540D01*
X168346345Y-119946791D01*
X168512882Y-119891606D01*
X168662204Y-119799504D01*
X168786260Y-119675448D01*
X168878362Y-119526126D01*
X168897196Y-119469287D01*
X168936969Y-119411843D01*
X169001485Y-119385020D01*
X169014902Y-119384292D01*
X169073512Y-119384292D01*
X169089160Y-119386019D01*
X169089187Y-119385738D01*
X169096954Y-119386472D01*
X169096955Y-119386471D01*
X169096956Y-119386472D01*
X169164398Y-119384353D01*
X169168292Y-119384292D01*
X169195951Y-119384292D01*
X169195955Y-119384292D01*
X169199953Y-119383786D01*
X169211593Y-119382869D01*
X169255422Y-119381493D01*
X169274751Y-119375876D01*
X169293807Y-119371929D01*
X169313772Y-119369408D01*
X169354534Y-119353268D01*
X169365571Y-119349490D01*
X169407670Y-119337260D01*
X169424994Y-119327013D01*
X169442462Y-119318455D01*
X169461182Y-119311045D01*
X169496656Y-119285270D01*
X169506394Y-119278873D01*
X169544135Y-119256555D01*
X169558376Y-119242312D01*
X169573157Y-119229689D01*
X169589446Y-119217855D01*
X169617383Y-119184082D01*
X169625235Y-119175453D01*
X171689963Y-117110727D01*
X171751286Y-117077242D01*
X171777644Y-117074408D01*
X173928014Y-117074408D01*
X173995053Y-117094093D01*
X174040808Y-117146897D01*
X174052014Y-117198408D01*
X174052014Y-117646927D01*
X174058440Y-117727265D01*
X174058441Y-117727271D01*
X174093028Y-117838136D01*
X174101303Y-117864660D01*
X174105723Y-117871290D01*
X174181137Y-117984413D01*
X174291472Y-118076818D01*
X174291471Y-118076818D01*
X174346202Y-118100709D01*
X174423376Y-118134398D01*
X174459071Y-118138919D01*
X174566154Y-118152484D01*
X174566155Y-118152483D01*
X174566157Y-118152484D01*
X174678512Y-118134398D01*
X174708245Y-118129612D01*
X174708247Y-118129611D01*
X174708250Y-118129611D01*
X174838143Y-118067632D01*
X175238879Y-117800474D01*
X175305576Y-117779667D01*
X175372937Y-117798222D01*
X175376443Y-117800475D01*
X175747836Y-118048070D01*
X175777179Y-118067632D01*
X175847608Y-118106861D01*
X175847615Y-118106863D01*
X175985699Y-118147408D01*
X175985700Y-118147408D01*
X176129623Y-118147408D01*
X176129623Y-118147407D01*
X176236782Y-118115943D01*
X176267711Y-118106862D01*
X176267711Y-118106861D01*
X176267714Y-118106861D01*
X176388789Y-118029051D01*
X176483038Y-117920281D01*
X176542826Y-117789365D01*
X176563308Y-117646908D01*
X176563308Y-117600226D01*
X183882122Y-117600226D01*
X183882122Y-118048070D01*
X183888523Y-118107598D01*
X183888525Y-118107605D01*
X183938767Y-118242312D01*
X183938771Y-118242319D01*
X184024931Y-118357413D01*
X184024934Y-118357416D01*
X184140028Y-118443576D01*
X184140035Y-118443580D01*
X184274742Y-118493822D01*
X184274749Y-118493824D01*
X184334277Y-118500225D01*
X184334294Y-118500226D01*
X184907122Y-118500226D01*
X184907122Y-117600226D01*
X183882122Y-117600226D01*
X176563308Y-117600226D01*
X176563308Y-117100226D01*
X183882122Y-117100226D01*
X184907122Y-117100226D01*
X184907122Y-116200226D01*
X184334277Y-116200226D01*
X184274749Y-116206627D01*
X184274742Y-116206629D01*
X184140035Y-116256871D01*
X184140028Y-116256875D01*
X184024934Y-116343035D01*
X184024931Y-116343038D01*
X183938771Y-116458132D01*
X183938767Y-116458139D01*
X183888525Y-116592846D01*
X183888523Y-116592853D01*
X183882122Y-116652381D01*
X183882122Y-117100226D01*
X176563308Y-117100226D01*
X176563308Y-115246908D01*
X176560840Y-115216055D01*
X176560220Y-115208295D01*
X176574496Y-115139899D01*
X176623484Y-115090080D01*
X176683825Y-115074408D01*
X188538237Y-115074408D01*
X188605276Y-115094093D01*
X188651031Y-115146897D01*
X188660975Y-115216055D01*
X188631950Y-115279611D01*
X188625918Y-115286089D01*
X186643803Y-117268203D01*
X186582480Y-117301688D01*
X186512788Y-117296704D01*
X186456855Y-117254832D01*
X186432438Y-117189368D01*
X186432122Y-117180522D01*
X186432122Y-116652398D01*
X186432121Y-116652381D01*
X186425720Y-116592853D01*
X186425718Y-116592846D01*
X186375476Y-116458139D01*
X186375472Y-116458132D01*
X186289312Y-116343038D01*
X186289309Y-116343035D01*
X186174215Y-116256875D01*
X186174208Y-116256871D01*
X186039501Y-116206629D01*
X186039494Y-116206627D01*
X185979966Y-116200226D01*
X185407122Y-116200226D01*
X185407122Y-118453522D01*
X185387437Y-118520561D01*
X185370803Y-118541203D01*
X183670075Y-120241930D01*
X183657791Y-120251773D01*
X183657971Y-120251991D01*
X183651959Y-120256964D01*
X183605768Y-120306151D01*
X183603063Y-120308942D01*
X183583501Y-120328504D01*
X183583497Y-120328509D01*
X183581017Y-120331707D01*
X183573439Y-120340578D01*
X183543430Y-120372534D01*
X183543427Y-120372538D01*
X183533728Y-120390181D01*
X183523050Y-120406437D01*
X183510716Y-120422338D01*
X183510711Y-120422346D01*
X183493307Y-120462566D01*
X183488168Y-120473056D01*
X183467049Y-120511471D01*
X183462042Y-120530972D01*
X183455743Y-120549368D01*
X183449015Y-120564916D01*
X183447747Y-120567848D01*
X183447746Y-120567850D01*
X183440891Y-120611135D01*
X183438523Y-120622571D01*
X183427622Y-120665027D01*
X183427622Y-120685162D01*
X183426095Y-120704559D01*
X183422947Y-120724437D01*
X183425972Y-120756432D01*
X183427072Y-120768071D01*
X183427622Y-120779741D01*
X183427622Y-122756187D01*
X183425426Y-122779422D01*
X183423883Y-122787509D01*
X183423883Y-122787512D01*
X183427377Y-122843047D01*
X183427622Y-122850833D01*
X183427622Y-122866711D01*
X183429611Y-122882455D01*
X183430343Y-122890202D01*
X183433838Y-122945743D01*
X183436383Y-122953576D01*
X183441473Y-122976345D01*
X183442506Y-122984519D01*
X183442507Y-122984523D01*
X183442508Y-122984525D01*
X183462997Y-123036277D01*
X183465635Y-123043603D01*
X183478567Y-123083405D01*
X183482831Y-123096526D01*
X183487243Y-123103478D01*
X183497835Y-123124267D01*
X183500869Y-123131930D01*
X183533585Y-123176960D01*
X183537963Y-123183402D01*
X183567780Y-123230386D01*
X183567781Y-123230387D01*
X183573783Y-123236023D01*
X183589220Y-123253533D01*
X183594059Y-123260194D01*
X183636938Y-123295667D01*
X183642780Y-123300817D01*
X183683355Y-123338919D01*
X183690573Y-123342887D01*
X183709880Y-123356008D01*
X183716216Y-123361250D01*
X183716217Y-123361250D01*
X183716219Y-123361252D01*
X183766572Y-123384946D01*
X183773495Y-123388473D01*
X183822288Y-123415298D01*
X183830259Y-123417344D01*
X183852227Y-123425253D01*
X183859673Y-123428757D01*
X183914352Y-123439187D01*
X183921915Y-123440877D01*
X183975850Y-123454726D01*
X183984084Y-123454726D01*
X184007320Y-123456923D01*
X184015399Y-123458464D01*
X184015406Y-123458464D01*
X184015408Y-123458465D01*
X184015409Y-123458464D01*
X184015410Y-123458465D01*
X184070944Y-123454971D01*
X184078730Y-123454726D01*
X194828675Y-123454726D01*
X194844323Y-123456453D01*
X194844350Y-123456172D01*
X194852117Y-123456906D01*
X194852118Y-123456905D01*
X194852119Y-123456906D01*
X194907152Y-123455176D01*
X194919561Y-123454787D01*
X194923455Y-123454726D01*
X194951114Y-123454726D01*
X194951118Y-123454726D01*
X194955116Y-123454220D01*
X194966756Y-123453303D01*
X195010585Y-123451927D01*
X195029914Y-123446310D01*
X195048970Y-123442363D01*
X195068935Y-123439842D01*
X195109697Y-123423702D01*
X195120734Y-123419924D01*
X195162833Y-123407694D01*
X195180157Y-123397447D01*
X195197625Y-123388889D01*
X195216345Y-123381479D01*
X195251819Y-123355704D01*
X195261557Y-123349307D01*
X195299298Y-123326989D01*
X195313539Y-123312746D01*
X195328320Y-123300123D01*
X195344609Y-123288289D01*
X195372546Y-123254516D01*
X195380398Y-123245887D01*
X199854607Y-118771678D01*
X199866889Y-118761841D01*
X199866708Y-118761622D01*
X199872721Y-118756647D01*
X199872720Y-118756647D01*
X199872726Y-118756644D01*
X199877439Y-118751624D01*
X199937674Y-118716228D01*
X200006837Y-118718799D01*
X200139866Y-118762881D01*
X200139873Y-118762882D01*
X200242583Y-118773375D01*
X200292563Y-118773374D01*
X200292564Y-118773374D01*
X200292564Y-117798376D01*
X200792564Y-117798376D01*
X200792564Y-118773375D01*
X200842536Y-118773375D01*
X200842550Y-118773374D01*
X200945261Y-118762881D01*
X201111683Y-118707734D01*
X201111688Y-118707732D01*
X201260909Y-118615691D01*
X201384879Y-118491721D01*
X201476920Y-118342500D01*
X201476922Y-118342495D01*
X201532069Y-118176073D01*
X201532070Y-118176066D01*
X201542563Y-118073362D01*
X201542564Y-118073349D01*
X201542564Y-117798376D01*
X200792564Y-117798376D01*
X200292564Y-117798376D01*
X200292564Y-117739609D01*
X205967576Y-117739609D01*
X205967576Y-118187453D01*
X205973977Y-118246981D01*
X205973979Y-118246988D01*
X206024221Y-118381695D01*
X206024225Y-118381702D01*
X206110385Y-118496796D01*
X206110388Y-118496799D01*
X206225482Y-118582959D01*
X206225489Y-118582963D01*
X206360196Y-118633205D01*
X206360203Y-118633207D01*
X206419731Y-118639608D01*
X206419748Y-118639609D01*
X206992576Y-118639609D01*
X206992576Y-117739609D01*
X207492576Y-117739609D01*
X207492576Y-118639609D01*
X208065404Y-118639609D01*
X208065420Y-118639608D01*
X208124948Y-118633207D01*
X208124955Y-118633205D01*
X208259662Y-118582963D01*
X208259669Y-118582959D01*
X208374763Y-118496799D01*
X208374766Y-118496796D01*
X208460926Y-118381702D01*
X208460930Y-118381695D01*
X208511172Y-118246988D01*
X208511174Y-118246981D01*
X208517575Y-118187453D01*
X208517576Y-118187436D01*
X208517576Y-117739609D01*
X213917576Y-117739609D01*
X213917576Y-118187453D01*
X213923977Y-118246981D01*
X213923979Y-118246988D01*
X213974221Y-118381695D01*
X213974225Y-118381702D01*
X214060385Y-118496796D01*
X214060388Y-118496799D01*
X214175482Y-118582959D01*
X214175489Y-118582963D01*
X214310196Y-118633205D01*
X214310203Y-118633207D01*
X214369731Y-118639608D01*
X214369748Y-118639609D01*
X214942576Y-118639609D01*
X214942576Y-117739609D01*
X215442576Y-117739609D01*
X215442576Y-118639609D01*
X216015404Y-118639609D01*
X216015420Y-118639608D01*
X216074948Y-118633207D01*
X216074955Y-118633205D01*
X216209662Y-118582963D01*
X216209669Y-118582959D01*
X216324763Y-118496799D01*
X216324766Y-118496796D01*
X216410926Y-118381702D01*
X216410930Y-118381695D01*
X216461172Y-118246988D01*
X216461174Y-118246981D01*
X216467575Y-118187453D01*
X216467576Y-118187436D01*
X216467576Y-117739609D01*
X215442576Y-117739609D01*
X214942576Y-117739609D01*
X213917576Y-117739609D01*
X208517576Y-117739609D01*
X207492576Y-117739609D01*
X206992576Y-117739609D01*
X205967576Y-117739609D01*
X200292564Y-117739609D01*
X200292564Y-117422376D01*
X200312249Y-117355337D01*
X200365053Y-117309582D01*
X200416564Y-117298376D01*
X201542563Y-117298376D01*
X201542563Y-117239609D01*
X205967576Y-117239609D01*
X206992576Y-117239609D01*
X206992576Y-116339609D01*
X207492576Y-116339609D01*
X207492576Y-117239609D01*
X208517576Y-117239609D01*
X213917576Y-117239609D01*
X214942576Y-117239609D01*
X214942576Y-116339609D01*
X215442576Y-116339609D01*
X215442576Y-117239609D01*
X216467576Y-117239609D01*
X216467576Y-116791781D01*
X216467575Y-116791764D01*
X216461174Y-116732236D01*
X216461172Y-116732229D01*
X216410930Y-116597522D01*
X216410926Y-116597515D01*
X216324766Y-116482421D01*
X216324763Y-116482418D01*
X216209669Y-116396258D01*
X216209662Y-116396254D01*
X216074955Y-116346012D01*
X216074948Y-116346010D01*
X216015420Y-116339609D01*
X215442576Y-116339609D01*
X214942576Y-116339609D01*
X214369731Y-116339609D01*
X214310203Y-116346010D01*
X214310196Y-116346012D01*
X214175489Y-116396254D01*
X214175482Y-116396258D01*
X214060388Y-116482418D01*
X214060385Y-116482421D01*
X213974225Y-116597515D01*
X213974221Y-116597522D01*
X213923979Y-116732229D01*
X213923977Y-116732236D01*
X213917576Y-116791764D01*
X213917576Y-117239609D01*
X208517576Y-117239609D01*
X208517576Y-116791781D01*
X208517575Y-116791764D01*
X208511174Y-116732236D01*
X208511172Y-116732229D01*
X208460930Y-116597522D01*
X208460926Y-116597515D01*
X208374766Y-116482421D01*
X208374763Y-116482418D01*
X208259669Y-116396258D01*
X208259662Y-116396254D01*
X208124955Y-116346012D01*
X208124948Y-116346010D01*
X208065420Y-116339609D01*
X207492576Y-116339609D01*
X206992576Y-116339609D01*
X206419731Y-116339609D01*
X206360203Y-116346010D01*
X206360196Y-116346012D01*
X206225489Y-116396254D01*
X206225482Y-116396258D01*
X206110388Y-116482418D01*
X206110385Y-116482421D01*
X206024225Y-116597515D01*
X206024221Y-116597522D01*
X205973979Y-116732229D01*
X205973977Y-116732236D01*
X205967576Y-116791764D01*
X205967576Y-117239609D01*
X201542563Y-117239609D01*
X201542563Y-117023404D01*
X201542562Y-117023389D01*
X201532069Y-116920678D01*
X201476922Y-116754256D01*
X201476920Y-116754251D01*
X201384879Y-116605030D01*
X201260909Y-116481060D01*
X201111688Y-116389019D01*
X201111685Y-116389018D01*
X201064958Y-116373534D01*
X201007513Y-116333760D01*
X200980691Y-116269244D01*
X200993007Y-116200469D01*
X201016276Y-116168154D01*
X204853925Y-112330506D01*
X204915248Y-112297021D01*
X204941606Y-112294187D01*
X218616484Y-112294187D01*
X218683523Y-112313872D01*
X218722022Y-112353090D01*
X218726282Y-112359996D01*
X218749626Y-112397843D01*
X218873682Y-112521899D01*
X219023004Y-112614001D01*
X219189541Y-112669186D01*
X219292329Y-112679687D01*
X220292346Y-112679686D01*
X220292354Y-112679685D01*
X220292357Y-112679685D01*
X220348640Y-112673935D01*
X220395135Y-112669186D01*
X220561672Y-112614001D01*
X220596783Y-112592344D01*
X220664173Y-112573905D01*
X220730837Y-112594827D01*
X220775607Y-112648469D01*
X220785878Y-112697884D01*
X220785878Y-117203153D01*
X220766193Y-117270192D01*
X220726976Y-117308691D01*
X220694722Y-117328585D01*
X220570667Y-117452640D01*
X220478565Y-117601961D01*
X220478563Y-117601966D01*
X220463672Y-117646905D01*
X220423379Y-117768501D01*
X220423379Y-117768502D01*
X220423378Y-117768502D01*
X220412878Y-117871281D01*
X220412878Y-118458016D01*
X220393193Y-118525055D01*
X220376559Y-118545697D01*
X217596467Y-121325790D01*
X217535144Y-121359275D01*
X217508786Y-121362109D01*
X216587025Y-121362109D01*
X216519986Y-121342424D01*
X216474231Y-121289620D01*
X216463735Y-121251363D01*
X216463562Y-121249755D01*
X216461667Y-121232126D01*
X216416857Y-121111983D01*
X216411373Y-121097280D01*
X216411369Y-121097273D01*
X216325123Y-120982064D01*
X216325120Y-120982061D01*
X216209911Y-120895815D01*
X216209904Y-120895811D01*
X216075058Y-120845517D01*
X216075059Y-120845517D01*
X216015459Y-120839110D01*
X216015457Y-120839109D01*
X216015449Y-120839109D01*
X216015440Y-120839109D01*
X214369705Y-120839109D01*
X214369699Y-120839110D01*
X214310092Y-120845517D01*
X214175247Y-120895811D01*
X214175240Y-120895815D01*
X214060031Y-120982061D01*
X214060028Y-120982064D01*
X213973782Y-121097273D01*
X213973778Y-121097280D01*
X213923484Y-121232125D01*
X213921416Y-121251366D01*
X213894677Y-121315917D01*
X213837284Y-121355764D01*
X213798127Y-121362109D01*
X208637025Y-121362109D01*
X208569986Y-121342424D01*
X208524231Y-121289620D01*
X208513735Y-121251363D01*
X208513562Y-121249755D01*
X208511667Y-121232126D01*
X208466857Y-121111983D01*
X208461373Y-121097280D01*
X208461369Y-121097273D01*
X208375123Y-120982064D01*
X208375120Y-120982061D01*
X208259911Y-120895815D01*
X208259904Y-120895811D01*
X208125058Y-120845517D01*
X208125059Y-120845517D01*
X208065459Y-120839110D01*
X208065457Y-120839109D01*
X208065449Y-120839109D01*
X208065440Y-120839109D01*
X206419705Y-120839109D01*
X206419699Y-120839110D01*
X206360092Y-120845517D01*
X206225247Y-120895811D01*
X206225240Y-120895815D01*
X206110031Y-120982061D01*
X206110028Y-120982064D01*
X206023782Y-121097273D01*
X206023778Y-121097280D01*
X205973484Y-121232126D01*
X205967077Y-121291725D01*
X205967076Y-121291744D01*
X205967076Y-122687479D01*
X205967077Y-122687485D01*
X205973484Y-122747092D01*
X206023778Y-122881937D01*
X206023782Y-122881944D01*
X206110028Y-122997153D01*
X206110031Y-122997156D01*
X206225240Y-123083402D01*
X206225247Y-123083406D01*
X206360093Y-123133700D01*
X206360092Y-123133700D01*
X206367020Y-123134444D01*
X206419703Y-123140109D01*
X208065448Y-123140108D01*
X208125059Y-123133700D01*
X208259907Y-123083405D01*
X208375122Y-122997155D01*
X208461372Y-122881940D01*
X208511667Y-122747092D01*
X208513736Y-122727852D01*
X208540475Y-122663301D01*
X208597868Y-122623454D01*
X208637025Y-122617109D01*
X213798127Y-122617109D01*
X213865166Y-122636794D01*
X213910921Y-122689598D01*
X213921417Y-122727855D01*
X213923485Y-122747092D01*
X213973778Y-122881937D01*
X213973782Y-122881944D01*
X214060028Y-122997153D01*
X214060031Y-122997156D01*
X214175240Y-123083402D01*
X214175247Y-123083406D01*
X214310093Y-123133700D01*
X214310092Y-123133700D01*
X214317020Y-123134444D01*
X214369703Y-123140109D01*
X216015448Y-123140108D01*
X216075059Y-123133700D01*
X216209907Y-123083405D01*
X216325122Y-122997155D01*
X216411372Y-122881940D01*
X216461667Y-122747092D01*
X216463736Y-122727852D01*
X216490475Y-122663301D01*
X216547868Y-122623454D01*
X216587025Y-122617109D01*
X217737100Y-122617109D01*
X217752748Y-122618836D01*
X217752775Y-122618555D01*
X217760542Y-122619289D01*
X217760543Y-122619288D01*
X217760544Y-122619289D01*
X217827986Y-122617170D01*
X217831880Y-122617109D01*
X217859539Y-122617109D01*
X217859543Y-122617109D01*
X217863541Y-122616603D01*
X217875181Y-122615686D01*
X217919010Y-122614310D01*
X217938339Y-122608693D01*
X217957395Y-122604746D01*
X217977360Y-122602225D01*
X218018122Y-122586085D01*
X218029159Y-122582307D01*
X218071258Y-122570077D01*
X218088582Y-122559830D01*
X218106050Y-122551272D01*
X218124770Y-122543862D01*
X218160244Y-122518087D01*
X218169982Y-122511690D01*
X218207723Y-122489372D01*
X218221964Y-122475129D01*
X218236745Y-122462506D01*
X218253034Y-122450672D01*
X218280971Y-122416899D01*
X218288823Y-122408270D01*
X221038979Y-119658114D01*
X221100300Y-119624631D01*
X221126648Y-119621797D01*
X221713386Y-119621797D01*
X221713394Y-119621796D01*
X221713397Y-119621796D01*
X221769680Y-119616046D01*
X221816175Y-119611297D01*
X221982712Y-119556112D01*
X222132034Y-119464010D01*
X222256090Y-119339954D01*
X222258130Y-119336645D01*
X222260123Y-119334853D01*
X222260571Y-119334287D01*
X222260667Y-119334363D01*
X222310072Y-119289921D01*
X222379034Y-119278693D01*
X222443118Y-119306532D01*
X222469207Y-119336637D01*
X222471059Y-119339639D01*
X222471061Y-119339642D01*
X222595032Y-119463613D01*
X222744253Y-119555654D01*
X222744258Y-119555656D01*
X222910680Y-119610803D01*
X222910687Y-119610804D01*
X223013397Y-119621297D01*
X223063377Y-119621296D01*
X223063378Y-119621296D01*
X223063378Y-118646298D01*
X223563378Y-118646298D01*
X223563378Y-119621297D01*
X223613350Y-119621297D01*
X223613364Y-119621296D01*
X223716075Y-119610803D01*
X223882497Y-119555656D01*
X223882502Y-119555654D01*
X224031723Y-119463613D01*
X224155693Y-119339643D01*
X224247734Y-119190422D01*
X224247736Y-119190417D01*
X224302883Y-119023995D01*
X224302884Y-119023988D01*
X224313377Y-118921284D01*
X224313378Y-118921271D01*
X224313378Y-118646298D01*
X223563378Y-118646298D01*
X223063378Y-118646298D01*
X223063378Y-117171298D01*
X223563378Y-117171298D01*
X223563378Y-118146298D01*
X224313377Y-118146298D01*
X224313377Y-117871326D01*
X224313376Y-117871311D01*
X224302883Y-117768600D01*
X224247736Y-117602178D01*
X224247734Y-117602173D01*
X224155693Y-117452952D01*
X224031723Y-117328982D01*
X223882502Y-117236941D01*
X223882497Y-117236939D01*
X223716075Y-117181792D01*
X223716068Y-117181791D01*
X223613364Y-117171298D01*
X223563378Y-117171298D01*
X223063378Y-117171298D01*
X223063377Y-117171297D01*
X223013407Y-117171298D01*
X223013389Y-117171299D01*
X222910680Y-117181792D01*
X222744258Y-117236939D01*
X222744253Y-117236941D01*
X222595032Y-117328982D01*
X222471061Y-117452953D01*
X222471057Y-117452958D01*
X222469204Y-117455963D01*
X222467396Y-117457588D01*
X222466580Y-117458621D01*
X222466403Y-117458481D01*
X222417252Y-117502683D01*
X222348289Y-117513899D01*
X222284209Y-117486050D01*
X222258131Y-117455951D01*
X222258115Y-117455926D01*
X222256090Y-117452642D01*
X222132034Y-117328586D01*
X222132033Y-117328585D01*
X222099780Y-117308691D01*
X222053056Y-117256742D01*
X222040878Y-117203153D01*
X222040878Y-111545691D01*
X222042606Y-111530040D01*
X222042324Y-111530014D01*
X222043058Y-111522251D01*
X222040939Y-111454808D01*
X222040878Y-111450914D01*
X222040878Y-111423257D01*
X222040878Y-111423251D01*
X222040371Y-111419246D01*
X222039455Y-111407598D01*
X222038079Y-111363785D01*
X222032460Y-111344445D01*
X222028517Y-111325412D01*
X222025994Y-111305434D01*
X222009859Y-111264682D01*
X222006076Y-111253634D01*
X221993846Y-111211536D01*
X221993845Y-111211534D01*
X221983603Y-111194216D01*
X221975040Y-111176738D01*
X221967631Y-111158024D01*
X221941867Y-111122564D01*
X221935451Y-111112796D01*
X221929092Y-111102044D01*
X221923907Y-111093276D01*
X221913143Y-111075074D01*
X221913137Y-111075066D01*
X221898909Y-111060839D01*
X221886274Y-111046047D01*
X221874441Y-111029760D01*
X221874438Y-111029758D01*
X221874438Y-111029757D01*
X221874436Y-111029755D01*
X221840665Y-111001817D01*
X221832025Y-110993955D01*
X221029156Y-110191086D01*
X220995671Y-110129763D01*
X220992837Y-110103413D01*
X220992837Y-109529179D01*
X220989343Y-109494979D01*
X220982337Y-109426390D01*
X220982336Y-109426387D01*
X220977134Y-109410688D01*
X220927152Y-109259853D01*
X220835050Y-109110531D01*
X220710994Y-108986475D01*
X220578457Y-108904726D01*
X220561674Y-108894374D01*
X220561669Y-108894372D01*
X220538993Y-108886858D01*
X220395135Y-108839188D01*
X220395133Y-108839187D01*
X220292348Y-108828687D01*
X219292336Y-108828687D01*
X219292318Y-108828688D01*
X219189541Y-108839187D01*
X219189538Y-108839188D01*
X219023006Y-108894372D01*
X219023001Y-108894374D01*
X218873680Y-108986476D01*
X218749627Y-109110529D01*
X218749625Y-109110532D01*
X218722022Y-109155284D01*
X218670074Y-109202009D01*
X218616484Y-109214187D01*
X212243437Y-109214187D01*
X212176398Y-109194502D01*
X212155756Y-109177868D01*
X204668655Y-101690767D01*
X204635170Y-101629444D01*
X204640154Y-101559752D01*
X204682026Y-101503819D01*
X204747490Y-101479402D01*
X204756336Y-101479086D01*
X212049389Y-101479086D01*
X212065037Y-101480813D01*
X212065064Y-101480532D01*
X212072831Y-101481266D01*
X212072832Y-101481265D01*
X212072833Y-101481266D01*
X212140275Y-101479147D01*
X212144169Y-101479086D01*
X212171828Y-101479086D01*
X212171832Y-101479086D01*
X212175830Y-101478580D01*
X212187470Y-101477663D01*
X212231299Y-101476287D01*
X212250628Y-101470670D01*
X212269684Y-101466723D01*
X212289649Y-101464202D01*
X212330411Y-101448062D01*
X212341448Y-101444284D01*
X212383547Y-101432054D01*
X212400871Y-101421807D01*
X212418339Y-101413249D01*
X212437059Y-101405839D01*
X212472533Y-101380064D01*
X212482271Y-101373667D01*
X212520012Y-101351349D01*
X212534253Y-101337106D01*
X212549034Y-101324483D01*
X212565323Y-101312649D01*
X212593260Y-101278876D01*
X212601102Y-101270257D01*
X212857848Y-101013511D01*
X212919170Y-100980029D01*
X212945528Y-100977195D01*
X213320247Y-100977195D01*
X213387286Y-100996880D01*
X213433041Y-101049684D01*
X213444247Y-101101195D01*
X213444247Y-101342396D01*
X213447148Y-101379262D01*
X213447149Y-101379268D01*
X213493001Y-101537088D01*
X213493002Y-101537091D01*
X213493003Y-101537093D01*
X213513805Y-101572267D01*
X213576664Y-101678557D01*
X213576670Y-101678565D01*
X213692876Y-101794771D01*
X213692880Y-101794774D01*
X213692882Y-101794776D01*
X213834349Y-101878439D01*
X213842025Y-101880669D01*
X213992173Y-101924292D01*
X213992176Y-101924292D01*
X213992178Y-101924293D01*
X214029053Y-101927195D01*
X214029061Y-101927195D01*
X215335433Y-101927195D01*
X215335441Y-101927195D01*
X215372316Y-101924293D01*
X215372318Y-101924292D01*
X215372320Y-101924292D01*
X215413938Y-101912200D01*
X215530145Y-101878439D01*
X215671612Y-101794776D01*
X215671617Y-101794771D01*
X215675875Y-101790514D01*
X215737198Y-101757029D01*
X215763556Y-101754195D01*
X221494085Y-101754195D01*
X221509733Y-101755922D01*
X221509760Y-101755641D01*
X221517527Y-101756375D01*
X221517528Y-101756374D01*
X221517529Y-101756375D01*
X221584971Y-101754256D01*
X221588865Y-101754195D01*
X221616524Y-101754195D01*
X221616528Y-101754195D01*
X221620526Y-101753689D01*
X221632166Y-101752772D01*
X221675995Y-101751396D01*
X221695324Y-101745779D01*
X221714380Y-101741832D01*
X221734345Y-101739311D01*
X221775107Y-101723171D01*
X221786144Y-101719393D01*
X221828243Y-101707163D01*
X221845567Y-101696916D01*
X221863035Y-101688358D01*
X221881755Y-101680948D01*
X221917229Y-101655173D01*
X221926967Y-101648776D01*
X221964708Y-101626458D01*
X221978949Y-101612215D01*
X221993730Y-101599592D01*
X222010019Y-101587758D01*
X222037956Y-101553985D01*
X222045808Y-101545356D01*
X222354722Y-101236442D01*
X222416043Y-101202959D01*
X222442392Y-101200125D01*
X223016629Y-101200125D01*
X223016637Y-101200124D01*
X223016640Y-101200124D01*
X223072923Y-101194374D01*
X223119418Y-101189625D01*
X223285955Y-101134440D01*
X223435277Y-101042338D01*
X223559333Y-100918282D01*
X223651435Y-100768960D01*
X223706620Y-100602423D01*
X223717121Y-100499635D01*
X223717120Y-99499618D01*
X223715808Y-99486779D01*
X223706620Y-99396829D01*
X223706619Y-99396826D01*
X223700744Y-99379096D01*
X223651435Y-99230292D01*
X223559333Y-99080970D01*
X223435277Y-98956914D01*
X223285955Y-98864812D01*
X223119418Y-98809627D01*
X223119416Y-98809626D01*
X223016637Y-98799126D01*
X223016630Y-98799126D01*
X222657621Y-98799126D01*
X222590582Y-98779441D01*
X222544827Y-98726637D01*
X222533621Y-98675126D01*
X222533621Y-96412004D01*
X222535349Y-96396353D01*
X222535067Y-96396327D01*
X222535801Y-96388564D01*
X222533682Y-96321121D01*
X222533621Y-96317227D01*
X222533621Y-96289570D01*
X222533621Y-96289564D01*
X222533114Y-96285559D01*
X222532198Y-96273911D01*
X222530822Y-96230098D01*
X222525203Y-96210758D01*
X222521260Y-96191725D01*
X222518737Y-96171747D01*
X222502602Y-96130995D01*
X222498819Y-96119945D01*
X222496366Y-96111501D01*
X222492040Y-96064755D01*
X222493833Y-96046549D01*
X222507815Y-95904593D01*
X222488098Y-95704403D01*
X222429705Y-95511906D01*
X222334879Y-95334500D01*
X222299342Y-95291198D01*
X222207265Y-95179001D01*
X222051770Y-95051390D01*
X222051768Y-95051389D01*
X222051767Y-95051388D01*
X221900671Y-94970625D01*
X221874363Y-94956563D01*
X221874362Y-94956562D01*
X221874361Y-94956562D01*
X221756390Y-94920776D01*
X221681862Y-94898168D01*
X221481674Y-94878452D01*
X221281485Y-94898168D01*
X221088984Y-94956563D01*
X220911577Y-95051390D01*
X220756082Y-95179001D01*
X220628471Y-95334496D01*
X220533644Y-95511903D01*
X220475249Y-95704404D01*
X220455533Y-95904593D01*
X220475249Y-96104781D01*
X220490536Y-96155175D01*
X220533643Y-96297280D01*
X220590656Y-96403944D01*
X220628471Y-96474689D01*
X220756082Y-96630184D01*
X220816524Y-96679787D01*
X220911581Y-96757798D01*
X221088987Y-96852624D01*
X221190618Y-96883452D01*
X221249054Y-96921748D01*
X221277511Y-96985560D01*
X221278621Y-97002112D01*
X221278621Y-98661343D01*
X221258936Y-98728382D01*
X221242302Y-98749024D01*
X221228519Y-98762807D01*
X221167196Y-98796292D01*
X221140838Y-98799126D01*
X220566619Y-98799126D01*
X220566601Y-98799127D01*
X220463824Y-98809626D01*
X220463821Y-98809627D01*
X220297289Y-98864811D01*
X220297284Y-98864813D01*
X220147963Y-98956915D01*
X220023910Y-99080968D01*
X219931808Y-99230289D01*
X219931806Y-99230294D01*
X219911660Y-99291092D01*
X219876622Y-99396829D01*
X219876622Y-99396830D01*
X219876621Y-99396830D01*
X219866121Y-99499609D01*
X219866121Y-99499617D01*
X219866121Y-99978440D01*
X219866122Y-100375195D01*
X219846438Y-100442234D01*
X219793634Y-100487989D01*
X219742122Y-100499195D01*
X215763556Y-100499195D01*
X215696517Y-100479510D01*
X215675875Y-100462876D01*
X215671617Y-100458618D01*
X215671609Y-100458612D01*
X215533388Y-100376869D01*
X215530145Y-100374951D01*
X215530144Y-100374950D01*
X215530143Y-100374950D01*
X215530140Y-100374949D01*
X215372320Y-100329097D01*
X215372314Y-100329096D01*
X215335448Y-100326195D01*
X215335441Y-100326195D01*
X214169247Y-100326195D01*
X214102208Y-100306510D01*
X214056453Y-100253706D01*
X214045247Y-100202195D01*
X214045247Y-100151195D01*
X214064932Y-100084156D01*
X214117736Y-100038401D01*
X214169247Y-100027195D01*
X215335433Y-100027195D01*
X215335441Y-100027195D01*
X215372316Y-100024293D01*
X215372318Y-100024292D01*
X215372320Y-100024292D01*
X215441362Y-100004233D01*
X215530145Y-99978439D01*
X215671612Y-99894776D01*
X215787828Y-99778560D01*
X215871491Y-99637093D01*
X215917345Y-99479264D01*
X215920247Y-99442389D01*
X215920247Y-99011001D01*
X215917345Y-98974126D01*
X215916392Y-98970845D01*
X215916397Y-98968938D01*
X215916207Y-98967896D01*
X215916400Y-98967860D01*
X215916593Y-98900975D01*
X215947786Y-98848573D01*
X221524834Y-93271526D01*
X221586157Y-93238041D01*
X221608672Y-93235620D01*
X221608660Y-93235367D01*
X221611799Y-93235207D01*
X221611809Y-93235207D01*
X221714598Y-93224707D01*
X221881135Y-93169522D01*
X222030457Y-93077420D01*
X222124120Y-92983757D01*
X222185443Y-92950272D01*
X222255135Y-92955256D01*
X222299482Y-92983757D01*
X222393145Y-93077420D01*
X222542467Y-93169522D01*
X222709004Y-93224707D01*
X222811792Y-93235208D01*
X223436809Y-93235207D01*
X223436817Y-93235206D01*
X223436820Y-93235206D01*
X223493103Y-93229456D01*
X223539598Y-93224707D01*
X223706135Y-93169522D01*
X223855457Y-93077420D01*
X223979513Y-92953364D01*
X224071615Y-92804042D01*
X224126800Y-92637505D01*
X224137301Y-92534717D01*
X224137300Y-91534700D01*
X224133919Y-91501606D01*
X224126800Y-91431911D01*
X224126799Y-91431908D01*
X224106399Y-91370346D01*
X224071615Y-91265374D01*
X223979513Y-91116052D01*
X223855457Y-90991996D01*
X223750679Y-90927369D01*
X223706137Y-90899895D01*
X223706132Y-90899893D01*
X223704663Y-90899406D01*
X223539598Y-90844709D01*
X223539596Y-90844708D01*
X223436817Y-90834208D01*
X222862582Y-90834208D01*
X222795543Y-90814523D01*
X222774901Y-90797889D01*
X222599677Y-90622665D01*
X222589832Y-90610376D01*
X222589614Y-90610557D01*
X222584641Y-90604546D01*
X222535454Y-90558356D01*
X222532655Y-90555643D01*
X222513098Y-90536085D01*
X222509908Y-90533611D01*
X222501017Y-90526018D01*
X222481771Y-90507944D01*
X222469068Y-90496015D01*
X222469067Y-90496014D01*
X222469064Y-90496012D01*
X222451423Y-90486314D01*
X222435158Y-90475630D01*
X222419264Y-90463301D01*
X222419263Y-90463300D01*
X222389963Y-90450620D01*
X222379036Y-90445892D01*
X222368548Y-90440753D01*
X222330139Y-90419637D01*
X222330129Y-90419634D01*
X222310635Y-90414628D01*
X222292234Y-90408328D01*
X222273760Y-90400334D01*
X222273753Y-90400332D01*
X222230474Y-90393478D01*
X222219034Y-90391109D01*
X222176580Y-90380208D01*
X222176573Y-90380208D01*
X222156443Y-90380208D01*
X222137044Y-90378681D01*
X222117169Y-90375533D01*
X222117168Y-90375533D01*
X222073531Y-90379658D01*
X222061862Y-90380208D01*
X219602305Y-90380208D01*
X219535266Y-90360523D01*
X219489511Y-90307719D01*
X219479567Y-90238561D01*
X219492947Y-90197754D01*
X219520693Y-90145846D01*
X219579086Y-89953349D01*
X219598803Y-89753159D01*
X219579086Y-89552969D01*
X219520693Y-89360472D01*
X219425867Y-89183066D01*
X219425864Y-89183062D01*
X219298253Y-89027567D01*
X219142748Y-88899948D01*
X219141111Y-88898854D01*
X219140447Y-88898059D01*
X219138046Y-88896089D01*
X219138419Y-88895633D01*
X219096308Y-88845240D01*
X219086007Y-88795756D01*
X219086007Y-67819125D01*
X219105692Y-67752086D01*
X219135697Y-67719858D01*
X219166053Y-67697134D01*
X219252303Y-67581919D01*
X219302598Y-67447071D01*
X219309007Y-67387461D01*
X219309006Y-66691716D01*
X219302598Y-66632105D01*
X219284742Y-66584231D01*
X219252304Y-66497259D01*
X219252300Y-66497252D01*
X219166054Y-66382043D01*
X219166051Y-66382040D01*
X219050842Y-66295794D01*
X219050835Y-66295790D01*
X218915989Y-66245496D01*
X218915990Y-66245496D01*
X218856390Y-66239089D01*
X218856388Y-66239088D01*
X218856380Y-66239088D01*
X218856372Y-66239088D01*
X218596788Y-66239088D01*
X218529749Y-66219403D01*
X218509107Y-66202769D01*
X218458106Y-66151768D01*
X218424621Y-66090445D01*
X218429605Y-66020753D01*
X218471477Y-65964820D01*
X218536941Y-65940403D01*
X218545787Y-65940087D01*
X218856378Y-65940087D01*
X218856379Y-65940087D01*
X218915990Y-65933679D01*
X219050838Y-65883384D01*
X219166053Y-65797134D01*
X219252303Y-65681919D01*
X219302598Y-65547071D01*
X219309007Y-65487461D01*
X219309006Y-64791716D01*
X219302598Y-64732105D01*
X219291352Y-64701953D01*
X219251665Y-64595545D01*
X219243847Y-64552212D01*
X219243847Y-59522722D01*
X219263532Y-59455683D01*
X219316336Y-59409928D01*
X219385494Y-59399984D01*
X219392809Y-59401261D01*
X219436144Y-59410167D01*
X219436148Y-59410167D01*
X219884821Y-59410167D01*
X220032727Y-59395126D01*
X220110744Y-59370648D01*
X220222025Y-59335734D01*
X220395493Y-59239451D01*
X220546029Y-59110220D01*
X220667469Y-58953333D01*
X220754842Y-58775211D01*
X220804571Y-58583147D01*
X220814619Y-58385004D01*
X220798595Y-58280404D01*
X220807901Y-58211158D01*
X220833481Y-58173950D01*
X221070390Y-57937041D01*
X221082672Y-57927204D01*
X221082491Y-57926985D01*
X221088504Y-57922009D01*
X221088509Y-57922007D01*
X221134730Y-57872784D01*
X221137379Y-57870052D01*
X221156971Y-57850462D01*
X221159448Y-57847267D01*
X221167026Y-57838394D01*
X221197040Y-57806434D01*
X221206735Y-57788797D01*
X221217419Y-57772530D01*
X221229755Y-57756629D01*
X221247158Y-57716409D01*
X221252298Y-57705918D01*
X221260675Y-57690681D01*
X221273419Y-57667501D01*
X221278425Y-57648001D01*
X221284723Y-57629603D01*
X221292721Y-57611125D01*
X221299579Y-57567818D01*
X221301943Y-57556403D01*
X221312847Y-57513939D01*
X221312847Y-57493808D01*
X221314374Y-57474408D01*
X221314416Y-57474143D01*
X221317522Y-57454534D01*
X221313397Y-57410897D01*
X221312847Y-57399228D01*
X221312847Y-56963978D01*
X221332532Y-56896939D01*
X221358180Y-56868126D01*
X221401915Y-56832235D01*
X221527942Y-56678671D01*
X221621588Y-56503471D01*
X221679255Y-56313368D01*
X221693847Y-56165214D01*
X221693847Y-55304120D01*
X221679255Y-55155966D01*
X221621588Y-54965863D01*
X221621586Y-54965860D01*
X221621586Y-54965858D01*
X221527945Y-54790668D01*
X221527941Y-54790661D01*
X221401915Y-54637098D01*
X221248352Y-54511072D01*
X221248345Y-54511068D01*
X221073155Y-54417427D01*
X220978099Y-54388592D01*
X220883048Y-54359759D01*
X220883046Y-54359758D01*
X220883048Y-54359758D01*
X220685347Y-54340287D01*
X220487647Y-54359758D01*
X220297540Y-54417427D01*
X220297539Y-54417427D01*
X220246840Y-54444526D01*
X220188389Y-54459167D01*
X219437476Y-54459167D01*
X219437470Y-54459168D01*
X219377863Y-54465575D01*
X219253680Y-54511893D01*
X219183988Y-54516877D01*
X219167014Y-54511893D01*
X219042829Y-54465575D01*
X219042830Y-54465575D01*
X218983230Y-54459168D01*
X218983228Y-54459167D01*
X218983220Y-54459167D01*
X218983211Y-54459167D01*
X217387476Y-54459167D01*
X217387470Y-54459168D01*
X217327862Y-54465576D01*
X217228679Y-54502568D01*
X217158987Y-54507552D01*
X217142015Y-54502568D01*
X217042832Y-54465576D01*
X217042830Y-54465575D01*
X216983230Y-54459168D01*
X216983228Y-54459167D01*
X216983220Y-54459167D01*
X216983211Y-54459167D01*
X215387476Y-54459167D01*
X215387470Y-54459168D01*
X215327863Y-54465575D01*
X215203680Y-54511893D01*
X215133988Y-54516877D01*
X215117014Y-54511893D01*
X214992829Y-54465575D01*
X214992830Y-54465575D01*
X214933230Y-54459168D01*
X214933228Y-54459167D01*
X214933220Y-54459167D01*
X214933212Y-54459167D01*
X214182305Y-54459167D01*
X214123854Y-54444526D01*
X214073154Y-54417427D01*
X214073151Y-54417426D01*
X213883048Y-54359759D01*
X213883046Y-54359758D01*
X213883048Y-54359758D01*
X213685347Y-54340287D01*
X213487647Y-54359758D01*
X213297538Y-54417427D01*
X213122348Y-54511068D01*
X213122341Y-54511072D01*
X212968778Y-54637098D01*
X212842752Y-54790661D01*
X212842748Y-54790668D01*
X212749107Y-54965858D01*
X212691438Y-55155967D01*
X212676847Y-55304123D01*
X212676847Y-56165210D01*
X212691438Y-56313366D01*
X212749107Y-56503475D01*
X212842748Y-56678665D01*
X212842752Y-56678672D01*
X212968777Y-56832233D01*
X212968779Y-56832235D01*
X213012511Y-56868125D01*
X213051846Y-56925869D01*
X213057847Y-56963978D01*
X213057847Y-57351699D01*
X213056119Y-57367348D01*
X213056401Y-57367375D01*
X213055666Y-57375142D01*
X213057786Y-57442584D01*
X213057847Y-57446478D01*
X213057847Y-57474143D01*
X213058353Y-57478152D01*
X213059268Y-57489783D01*
X213060645Y-57533609D01*
X213066263Y-57552942D01*
X213070209Y-57571996D01*
X213072730Y-57591954D01*
X213072733Y-57591966D01*
X213088866Y-57632715D01*
X213092649Y-57643765D01*
X213104877Y-57685854D01*
X213104877Y-57685855D01*
X213115124Y-57703182D01*
X213123682Y-57720652D01*
X213131092Y-57739368D01*
X213156858Y-57774831D01*
X213163272Y-57784596D01*
X213185581Y-57822319D01*
X213185587Y-57822327D01*
X213199816Y-57836555D01*
X213212453Y-57851351D01*
X213224284Y-57867634D01*
X213258064Y-57895579D01*
X213266693Y-57903432D01*
X213533129Y-58169868D01*
X213566614Y-58231191D01*
X213565668Y-58279750D01*
X213567076Y-58279966D01*
X213566123Y-58286184D01*
X213556075Y-58484329D01*
X213556075Y-58484330D01*
X213586115Y-58680431D01*
X213586118Y-58680444D01*
X213655020Y-58866482D01*
X213655024Y-58866491D01*
X213759963Y-59034851D01*
X213759968Y-59034858D01*
X213892175Y-59173939D01*
X213896656Y-59178653D01*
X214059493Y-59291991D01*
X214241812Y-59370230D01*
X214436148Y-59410167D01*
X214884821Y-59410167D01*
X215032727Y-59395126D01*
X215144711Y-59359991D01*
X215214569Y-59358703D01*
X215274033Y-59395388D01*
X215281098Y-59403993D01*
X215328156Y-59466854D01*
X215328159Y-59466857D01*
X215443253Y-59553017D01*
X215443260Y-59553021D01*
X215577967Y-59603263D01*
X215577974Y-59603265D01*
X215637502Y-59609666D01*
X215637519Y-59609667D01*
X215685347Y-59609667D01*
X215685347Y-59449102D01*
X215705032Y-59382063D01*
X215757836Y-59336308D01*
X215826994Y-59326364D01*
X215890550Y-59355389D01*
X215908613Y-59374790D01*
X215977801Y-59467213D01*
X216035658Y-59510525D01*
X216077529Y-59566456D01*
X216085319Y-59609639D01*
X216085347Y-59609667D01*
X216133175Y-59609667D01*
X216133186Y-59609666D01*
X216194742Y-59603047D01*
X216221256Y-59603047D01*
X216227861Y-59603757D01*
X216227864Y-59603758D01*
X216287474Y-59610167D01*
X216433847Y-59610166D01*
X216500886Y-59629850D01*
X216546641Y-59682654D01*
X216557847Y-59734166D01*
X216557847Y-65465588D01*
X216538162Y-65532627D01*
X216485358Y-65578382D01*
X216433847Y-65589588D01*
X215608507Y-65589588D01*
X215608507Y-65887432D01*
X215614908Y-65946960D01*
X215614910Y-65946967D01*
X215665152Y-66081674D01*
X215665156Y-66081681D01*
X215751316Y-66196775D01*
X215756091Y-66201550D01*
X215789576Y-66262873D01*
X215784592Y-66332565D01*
X215756091Y-66376912D01*
X215750959Y-66382043D01*
X215664713Y-66497252D01*
X215664709Y-66497259D01*
X215632271Y-66584232D01*
X215614416Y-66632105D01*
X215608007Y-66691715D01*
X215608007Y-66691722D01*
X215608007Y-66691723D01*
X215608007Y-67387458D01*
X215608008Y-67387464D01*
X215614415Y-67447071D01*
X215664709Y-67581916D01*
X215664710Y-67581917D01*
X215664711Y-67581919D01*
X215750959Y-67697131D01*
X215750962Y-67697135D01*
X215781317Y-67719858D01*
X215823189Y-67775791D01*
X215831007Y-67819125D01*
X215831007Y-87079988D01*
X215811322Y-87147027D01*
X215794688Y-87167669D01*
X215389635Y-87572722D01*
X215328312Y-87606207D01*
X215289801Y-87608444D01*
X215221881Y-87601755D01*
X215021692Y-87621471D01*
X214829191Y-87679866D01*
X214651784Y-87774693D01*
X214496289Y-87902304D01*
X214368678Y-88057799D01*
X214273851Y-88235206D01*
X214215456Y-88427707D01*
X214195740Y-88627896D01*
X214215456Y-88828084D01*
X214231205Y-88880000D01*
X214273850Y-89020583D01*
X214360699Y-89183066D01*
X214368678Y-89197992D01*
X214496289Y-89353487D01*
X214590849Y-89431090D01*
X214651788Y-89481101D01*
X214829194Y-89575927D01*
X215021691Y-89634320D01*
X215221881Y-89654037D01*
X215422071Y-89634320D01*
X215614568Y-89575927D01*
X215791974Y-89481101D01*
X215947472Y-89353487D01*
X216075086Y-89197989D01*
X216169912Y-89020583D01*
X216228305Y-88828086D01*
X216248022Y-88627896D01*
X216241332Y-88559973D01*
X216254351Y-88491329D01*
X216277051Y-88460143D01*
X216843550Y-87893644D01*
X216855832Y-87883807D01*
X216855651Y-87883588D01*
X216861664Y-87878612D01*
X216861669Y-87878610D01*
X216907891Y-87829386D01*
X216910540Y-87826654D01*
X216930130Y-87807066D01*
X216932603Y-87803876D01*
X216940189Y-87794992D01*
X216970200Y-87763037D01*
X216979896Y-87745398D01*
X216990580Y-87729131D01*
X217002915Y-87713232D01*
X217020324Y-87672998D01*
X217025462Y-87662513D01*
X217031969Y-87650679D01*
X217040258Y-87635602D01*
X217046576Y-87624110D01*
X217046576Y-87624108D01*
X217046579Y-87624104D01*
X217051585Y-87604604D01*
X217057889Y-87586194D01*
X217065877Y-87567735D01*
X217065880Y-87567729D01*
X217071458Y-87532508D01*
X217072737Y-87524436D01*
X217075103Y-87513007D01*
X217086007Y-87470542D01*
X217086007Y-87450405D01*
X217087534Y-87431005D01*
X217087885Y-87428789D01*
X217090681Y-87411137D01*
X217086557Y-87367508D01*
X217086007Y-87355839D01*
X217086007Y-67819125D01*
X217105692Y-67752086D01*
X217135697Y-67719858D01*
X217166053Y-67697134D01*
X217252303Y-67581919D01*
X217302598Y-67447071D01*
X217309007Y-67387461D01*
X217309006Y-67127869D01*
X217328690Y-67060831D01*
X217345325Y-67040189D01*
X217370826Y-67014688D01*
X217432149Y-66981203D01*
X217501841Y-66986187D01*
X217546188Y-67014688D01*
X217571688Y-67040188D01*
X217605173Y-67101511D01*
X217608007Y-67127869D01*
X217608007Y-67387457D01*
X217608008Y-67387464D01*
X217614415Y-67447071D01*
X217664709Y-67581916D01*
X217664710Y-67581917D01*
X217664711Y-67581919D01*
X217750959Y-67697131D01*
X217750962Y-67697135D01*
X217781317Y-67719858D01*
X217823189Y-67775791D01*
X217831007Y-67819125D01*
X217831007Y-89002774D01*
X217811322Y-89069813D01*
X217802860Y-89081439D01*
X217719457Y-89183064D01*
X217719452Y-89183071D01*
X217624632Y-89360467D01*
X217566237Y-89552970D01*
X217546521Y-89753159D01*
X217566237Y-89953347D01*
X217579548Y-89997226D01*
X217624631Y-90145846D01*
X217640783Y-90176065D01*
X217652377Y-90197754D01*
X217666619Y-90266156D01*
X217641620Y-90331401D01*
X217585315Y-90372772D01*
X217543019Y-90380208D01*
X217191480Y-90380208D01*
X217175831Y-90378480D01*
X217175805Y-90378762D01*
X217168037Y-90378027D01*
X217100595Y-90380147D01*
X217096701Y-90380208D01*
X217069036Y-90380208D01*
X217065027Y-90380714D01*
X217053397Y-90381629D01*
X217009573Y-90383006D01*
X217009567Y-90383007D01*
X216990232Y-90388624D01*
X216971193Y-90392567D01*
X216951228Y-90395090D01*
X216951214Y-90395093D01*
X216910463Y-90411227D01*
X216899418Y-90415009D01*
X216857320Y-90427240D01*
X216839997Y-90437485D01*
X216822528Y-90446043D01*
X216803812Y-90453453D01*
X216768350Y-90479217D01*
X216758589Y-90485628D01*
X216720859Y-90507941D01*
X216706614Y-90522186D01*
X216691829Y-90534814D01*
X216675543Y-90546647D01*
X216647608Y-90580414D01*
X216639747Y-90589052D01*
X215868665Y-91360134D01*
X215807342Y-91393619D01*
X215737650Y-91388635D01*
X215681717Y-91346763D01*
X215673437Y-91332485D01*
X215673022Y-91332731D01*
X215633187Y-91265374D01*
X215585388Y-91184549D01*
X215585386Y-91184547D01*
X215585383Y-91184543D01*
X215469177Y-91068337D01*
X215469169Y-91068331D01*
X215340094Y-90991997D01*
X215327705Y-90984670D01*
X215327704Y-90984669D01*
X215327703Y-90984669D01*
X215327700Y-90984668D01*
X215169880Y-90938816D01*
X215169874Y-90938815D01*
X215133008Y-90935914D01*
X215133001Y-90935914D01*
X213826613Y-90935914D01*
X213826605Y-90935914D01*
X213789739Y-90938815D01*
X213789733Y-90938816D01*
X213631913Y-90984668D01*
X213631910Y-90984669D01*
X213490444Y-91068331D01*
X213490436Y-91068337D01*
X213486179Y-91072595D01*
X213424856Y-91106080D01*
X213398498Y-91108914D01*
X211428229Y-91108914D01*
X211361190Y-91089229D01*
X211315435Y-91036425D01*
X211304826Y-90997067D01*
X211302157Y-90969967D01*
X211302157Y-90969966D01*
X211243764Y-90777469D01*
X211148938Y-90600063D01*
X211148935Y-90600059D01*
X211021324Y-90444564D01*
X210865829Y-90316953D01*
X210865827Y-90316952D01*
X210865826Y-90316951D01*
X210688420Y-90222125D01*
X210584393Y-90190569D01*
X210495921Y-90163731D01*
X210295733Y-90144015D01*
X210095544Y-90163731D01*
X209903043Y-90222126D01*
X209725636Y-90316953D01*
X209570141Y-90444564D01*
X209442530Y-90600059D01*
X209347703Y-90777466D01*
X209347702Y-90777468D01*
X209347702Y-90777469D01*
X209341508Y-90797889D01*
X209289308Y-90969967D01*
X209269592Y-91170156D01*
X209289308Y-91370344D01*
X209307984Y-91431911D01*
X209347702Y-91562843D01*
X209431962Y-91720482D01*
X209442530Y-91740252D01*
X209570141Y-91895747D01*
X209725636Y-92023358D01*
X209725640Y-92023361D01*
X209903046Y-92118187D01*
X210095543Y-92176580D01*
X210295733Y-92196297D01*
X210365818Y-92189393D01*
X210434461Y-92202411D01*
X210462853Y-92222403D01*
X210490224Y-92248107D01*
X210490226Y-92248108D01*
X210490227Y-92248109D01*
X210490228Y-92248110D01*
X210507858Y-92257801D01*
X210524126Y-92268486D01*
X210540029Y-92280822D01*
X210580253Y-92298228D01*
X210590745Y-92303368D01*
X210629149Y-92324482D01*
X210629151Y-92324483D01*
X210629157Y-92324486D01*
X210648231Y-92329383D01*
X210648651Y-92329491D01*
X210667055Y-92335791D01*
X210685533Y-92343788D01*
X210728842Y-92350647D01*
X210740249Y-92353009D01*
X210782719Y-92363914D01*
X210802849Y-92363914D01*
X210822248Y-92365441D01*
X210842124Y-92368589D01*
X210881919Y-92364827D01*
X210885761Y-92364464D01*
X210897430Y-92363914D01*
X211242807Y-92363914D01*
X211309846Y-92383599D01*
X211355601Y-92436403D01*
X211366807Y-92487914D01*
X211366807Y-92902115D01*
X211369708Y-92938981D01*
X211370661Y-92942259D01*
X211370655Y-92944164D01*
X211370847Y-92945213D01*
X211370652Y-92945248D01*
X211370461Y-93012128D01*
X211339265Y-93064534D01*
X208701013Y-95702787D01*
X208639690Y-95736272D01*
X208569998Y-95731288D01*
X208514065Y-95689416D01*
X208489648Y-95623952D01*
X208489332Y-95615106D01*
X208489332Y-87851916D01*
X208491060Y-87836265D01*
X208490778Y-87836239D01*
X208491512Y-87828476D01*
X208489393Y-87761033D01*
X208489332Y-87757139D01*
X208489332Y-87729482D01*
X208489332Y-87729476D01*
X208488825Y-87725471D01*
X208487909Y-87713823D01*
X208486533Y-87670010D01*
X208480914Y-87650670D01*
X208476971Y-87631637D01*
X208474448Y-87611659D01*
X208458313Y-87570907D01*
X208454530Y-87559859D01*
X208453949Y-87557858D01*
X208442300Y-87517761D01*
X208440020Y-87513906D01*
X208432057Y-87500441D01*
X208423494Y-87482963D01*
X208416085Y-87464249D01*
X208390317Y-87428784D01*
X208383905Y-87419021D01*
X208361597Y-87381299D01*
X208361591Y-87381291D01*
X208347363Y-87367064D01*
X208334728Y-87352272D01*
X208322895Y-87335985D01*
X208322892Y-87335983D01*
X208322892Y-87335982D01*
X208322890Y-87335980D01*
X208289119Y-87308042D01*
X208280479Y-87300180D01*
X206889683Y-85909384D01*
X206856198Y-85848061D01*
X206853364Y-85821703D01*
X206853364Y-85018314D01*
X206853363Y-85018308D01*
X206853362Y-85018301D01*
X206846956Y-84958702D01*
X206832155Y-84919019D01*
X206827170Y-84849327D01*
X206832154Y-84832354D01*
X206846956Y-84792668D01*
X206853365Y-84733058D01*
X206853364Y-83748313D01*
X206846956Y-83688702D01*
X206846109Y-83686432D01*
X206832155Y-83649019D01*
X206827170Y-83579327D01*
X206832154Y-83562354D01*
X206846956Y-83522668D01*
X206853365Y-83463058D01*
X206853364Y-82478313D01*
X206851980Y-82465438D01*
X206864386Y-82396680D01*
X206911997Y-82345543D01*
X206975270Y-82328185D01*
X209388171Y-82328185D01*
X209403819Y-82329912D01*
X209403846Y-82329631D01*
X209411613Y-82330365D01*
X209411614Y-82330364D01*
X209411615Y-82330365D01*
X209479057Y-82328246D01*
X209482951Y-82328185D01*
X209510610Y-82328185D01*
X209510614Y-82328185D01*
X209514612Y-82327679D01*
X209526252Y-82326762D01*
X209570081Y-82325386D01*
X209589410Y-82319769D01*
X209608466Y-82315822D01*
X209628431Y-82313301D01*
X209669193Y-82297161D01*
X209680230Y-82293383D01*
X209722329Y-82281153D01*
X209739653Y-82270906D01*
X209757121Y-82262348D01*
X209775841Y-82254938D01*
X209811315Y-82229163D01*
X209821053Y-82222766D01*
X209858794Y-82200448D01*
X209873035Y-82186205D01*
X209887816Y-82173582D01*
X209904105Y-82161748D01*
X209932042Y-82127975D01*
X209939894Y-82119346D01*
X210639940Y-81419300D01*
X210701261Y-81385817D01*
X210739771Y-81383580D01*
X210807694Y-81390270D01*
X211007884Y-81370553D01*
X211200381Y-81312160D01*
X211377787Y-81217334D01*
X211533285Y-81089720D01*
X211660899Y-80934222D01*
X211755725Y-80756816D01*
X211814118Y-80564319D01*
X211833835Y-80364129D01*
X211814118Y-80163939D01*
X211755725Y-79971442D01*
X211660899Y-79794036D01*
X211658967Y-79791682D01*
X211533285Y-79638537D01*
X211377790Y-79510926D01*
X211377788Y-79510925D01*
X211377787Y-79510924D01*
X211200381Y-79416098D01*
X211104132Y-79386901D01*
X211007882Y-79357704D01*
X210829564Y-79340142D01*
X210807694Y-79337988D01*
X210807693Y-79337988D01*
X210714689Y-79347148D01*
X210646043Y-79334129D01*
X210595333Y-79286064D01*
X210578658Y-79218213D01*
X210583875Y-79187749D01*
X210613838Y-79088975D01*
X210633555Y-78888785D01*
X210613838Y-78688595D01*
X210555445Y-78496098D01*
X210460619Y-78318692D01*
X210460616Y-78318688D01*
X210333005Y-78163193D01*
X210177510Y-78035582D01*
X210177508Y-78035581D01*
X210177507Y-78035580D01*
X210000101Y-77940754D01*
X209903852Y-77911557D01*
X209807602Y-77882360D01*
X209607414Y-77862644D01*
X209407225Y-77882360D01*
X209214724Y-77940755D01*
X209037317Y-78035582D01*
X208881822Y-78163193D01*
X208754211Y-78318688D01*
X208659384Y-78496095D01*
X208659383Y-78496097D01*
X208659383Y-78496098D01*
X208652705Y-78518111D01*
X208600989Y-78688596D01*
X208581273Y-78888785D01*
X208587962Y-78956704D01*
X208574943Y-79025350D01*
X208552240Y-79056538D01*
X207841914Y-79766866D01*
X207780591Y-79800351D01*
X207754233Y-79803185D01*
X206975270Y-79803185D01*
X206908231Y-79783500D01*
X206862476Y-79730696D01*
X206851981Y-79665928D01*
X206853365Y-79653058D01*
X206853364Y-78668313D01*
X206846956Y-78608702D01*
X206844163Y-78601215D01*
X206832155Y-78569019D01*
X206827170Y-78499327D01*
X206832154Y-78482354D01*
X206846956Y-78442668D01*
X206853365Y-78383058D01*
X206853364Y-77398313D01*
X206846956Y-77338702D01*
X206832155Y-77299019D01*
X206827170Y-77229327D01*
X206832154Y-77212354D01*
X206846956Y-77172668D01*
X206853365Y-77113058D01*
X206853364Y-76128313D01*
X206846956Y-76068702D01*
X206845209Y-76064019D01*
X206832155Y-76029019D01*
X206827170Y-75959327D01*
X206832154Y-75942354D01*
X206846956Y-75902668D01*
X206853365Y-75843058D01*
X206853364Y-74858313D01*
X206846956Y-74798702D01*
X206832155Y-74759019D01*
X206827170Y-74689327D01*
X206832154Y-74672354D01*
X206846956Y-74632668D01*
X206853365Y-74573058D01*
X206853364Y-73588313D01*
X206846956Y-73528702D01*
X206846109Y-73526432D01*
X206832155Y-73489019D01*
X206827170Y-73419327D01*
X206832154Y-73402354D01*
X206846956Y-73362668D01*
X206853365Y-73303058D01*
X206853364Y-72318313D01*
X206846956Y-72258702D01*
X206843429Y-72249247D01*
X206832155Y-72219019D01*
X206827170Y-72149327D01*
X206832154Y-72132354D01*
X206846956Y-72092668D01*
X206853365Y-72033058D01*
X206853364Y-71048313D01*
X206846956Y-70988702D01*
X206832155Y-70949019D01*
X206827170Y-70879327D01*
X206832154Y-70862354D01*
X206846956Y-70822668D01*
X206853365Y-70763058D01*
X206853364Y-69778313D01*
X206846956Y-69718702D01*
X206831887Y-69678302D01*
X206826904Y-69608612D01*
X206831889Y-69591634D01*
X206846463Y-69552561D01*
X206852864Y-69493029D01*
X206852865Y-69493012D01*
X206852865Y-69250685D01*
X204354265Y-69250685D01*
X204354265Y-69493029D01*
X204360666Y-69552557D01*
X204360668Y-69552565D01*
X204375241Y-69591637D01*
X204380225Y-69661329D01*
X204375242Y-69678301D01*
X204360173Y-69718703D01*
X204353766Y-69778301D01*
X204353766Y-69778308D01*
X204353765Y-69778320D01*
X204353765Y-70763055D01*
X204353766Y-70763061D01*
X204360173Y-70822667D01*
X204374975Y-70862354D01*
X204379958Y-70932046D01*
X204374975Y-70949016D01*
X204360173Y-70988702D01*
X204353766Y-71048301D01*
X204353766Y-71048308D01*
X204353765Y-71048320D01*
X204353765Y-72033055D01*
X204353766Y-72033061D01*
X204360173Y-72092667D01*
X204374975Y-72132354D01*
X204379958Y-72202046D01*
X204374975Y-72219016D01*
X204360173Y-72258702D01*
X204355149Y-72305439D01*
X204353766Y-72318310D01*
X204353765Y-72318320D01*
X204353765Y-73303055D01*
X204353766Y-73303061D01*
X204360173Y-73362667D01*
X204374975Y-73402354D01*
X204379958Y-73472046D01*
X204374975Y-73489016D01*
X204360173Y-73528702D01*
X204354179Y-73584463D01*
X204353766Y-73588308D01*
X204353765Y-73588320D01*
X204353765Y-74573055D01*
X204353766Y-74573061D01*
X204360173Y-74632667D01*
X204374975Y-74672354D01*
X204379958Y-74742046D01*
X204374975Y-74759016D01*
X204360173Y-74798702D01*
X204355304Y-74843995D01*
X204353766Y-74858308D01*
X204353765Y-74858320D01*
X204353765Y-75843055D01*
X204353766Y-75843061D01*
X204360173Y-75902667D01*
X204374975Y-75942354D01*
X204379958Y-76012046D01*
X204374975Y-76029016D01*
X204360173Y-76068702D01*
X204353766Y-76128301D01*
X204353766Y-76128308D01*
X204353765Y-76128320D01*
X204353765Y-77113055D01*
X204353766Y-77113061D01*
X204360173Y-77172667D01*
X204374975Y-77212354D01*
X204379958Y-77282046D01*
X204374975Y-77299016D01*
X204360173Y-77338702D01*
X204354193Y-77394327D01*
X204353766Y-77398308D01*
X204353765Y-77398320D01*
X204353765Y-78383055D01*
X204353766Y-78383061D01*
X204360173Y-78442667D01*
X204374975Y-78482354D01*
X204379958Y-78552046D01*
X204374975Y-78569016D01*
X204360173Y-78608702D01*
X204353766Y-78668301D01*
X204353766Y-78668308D01*
X204353765Y-78668320D01*
X204353765Y-79653055D01*
X204353766Y-79653061D01*
X204360173Y-79712667D01*
X204374975Y-79752354D01*
X204379958Y-79822046D01*
X204374975Y-79839016D01*
X204360173Y-79878702D01*
X204353766Y-79938301D01*
X204353766Y-79938308D01*
X204353765Y-79938320D01*
X204353765Y-80923055D01*
X204353766Y-80923061D01*
X204360173Y-80982667D01*
X204374975Y-81022354D01*
X204379958Y-81092046D01*
X204374975Y-81109016D01*
X204360173Y-81148702D01*
X204354115Y-81205057D01*
X204353766Y-81208308D01*
X204353765Y-81208320D01*
X204353765Y-82193055D01*
X204353766Y-82193061D01*
X204360173Y-82252667D01*
X204374975Y-82292354D01*
X204379958Y-82362046D01*
X204374975Y-82379016D01*
X204360173Y-82418702D01*
X204353766Y-82478301D01*
X204353766Y-82478310D01*
X204353765Y-82478320D01*
X204353765Y-83463055D01*
X204353766Y-83463061D01*
X204360173Y-83522667D01*
X204374975Y-83562354D01*
X204379958Y-83632046D01*
X204374975Y-83649016D01*
X204360173Y-83688702D01*
X204354076Y-83745415D01*
X204353766Y-83748308D01*
X204353765Y-83748320D01*
X204353765Y-84733055D01*
X204353766Y-84733061D01*
X204360173Y-84792667D01*
X204374975Y-84832354D01*
X204379958Y-84902046D01*
X204374975Y-84919016D01*
X204360173Y-84958702D01*
X204353766Y-85018301D01*
X204353766Y-85018308D01*
X204353765Y-85018320D01*
X204353765Y-85386885D01*
X204334080Y-85453924D01*
X204281276Y-85499679D01*
X204229765Y-85510885D01*
X203346194Y-85510885D01*
X203346188Y-85510886D01*
X203286582Y-85517293D01*
X203246896Y-85532095D01*
X203177204Y-85537078D01*
X203160234Y-85532095D01*
X203120546Y-85517293D01*
X203120548Y-85517293D01*
X203060948Y-85510886D01*
X203060946Y-85510885D01*
X203060938Y-85510885D01*
X203060929Y-85510885D01*
X202076194Y-85510885D01*
X202076188Y-85510886D01*
X202016582Y-85517293D01*
X201976896Y-85532095D01*
X201907204Y-85537078D01*
X201890234Y-85532095D01*
X201850546Y-85517293D01*
X201850548Y-85517293D01*
X201790948Y-85510886D01*
X201790946Y-85510885D01*
X201790938Y-85510885D01*
X201790929Y-85510885D01*
X200806194Y-85510885D01*
X200806188Y-85510886D01*
X200746582Y-85517293D01*
X200706896Y-85532095D01*
X200637204Y-85537078D01*
X200620234Y-85532095D01*
X200580546Y-85517293D01*
X200580548Y-85517293D01*
X200520948Y-85510886D01*
X200520946Y-85510885D01*
X200520938Y-85510885D01*
X200520929Y-85510885D01*
X199536194Y-85510885D01*
X199536188Y-85510886D01*
X199476582Y-85517293D01*
X199436896Y-85532095D01*
X199367204Y-85537078D01*
X199350234Y-85532095D01*
X199310546Y-85517293D01*
X199310548Y-85517293D01*
X199250948Y-85510886D01*
X199250946Y-85510885D01*
X199250938Y-85510885D01*
X199250929Y-85510885D01*
X198266194Y-85510885D01*
X198266188Y-85510886D01*
X198206582Y-85517293D01*
X198166896Y-85532095D01*
X198097204Y-85537078D01*
X198080234Y-85532095D01*
X198040546Y-85517293D01*
X198040548Y-85517293D01*
X197980948Y-85510886D01*
X197980946Y-85510885D01*
X197980938Y-85510885D01*
X197980929Y-85510885D01*
X196996194Y-85510885D01*
X196996188Y-85510886D01*
X196936582Y-85517293D01*
X196896896Y-85532095D01*
X196827204Y-85537078D01*
X196810234Y-85532095D01*
X196770546Y-85517293D01*
X196770548Y-85517293D01*
X196710948Y-85510886D01*
X196710946Y-85510885D01*
X196710938Y-85510885D01*
X196710929Y-85510885D01*
X195726194Y-85510885D01*
X195726188Y-85510886D01*
X195666582Y-85517293D01*
X195626896Y-85532095D01*
X195557204Y-85537078D01*
X195540234Y-85532095D01*
X195500546Y-85517293D01*
X195500548Y-85517293D01*
X195440948Y-85510886D01*
X195440946Y-85510885D01*
X195440938Y-85510885D01*
X195440929Y-85510885D01*
X194456194Y-85510885D01*
X194456188Y-85510886D01*
X194396582Y-85517293D01*
X194356896Y-85532095D01*
X194287204Y-85537078D01*
X194270234Y-85532095D01*
X194230546Y-85517293D01*
X194230548Y-85517293D01*
X194170948Y-85510886D01*
X194170946Y-85510885D01*
X194170938Y-85510885D01*
X194170929Y-85510885D01*
X193186194Y-85510885D01*
X193186188Y-85510886D01*
X193126582Y-85517293D01*
X193086896Y-85532095D01*
X193017204Y-85537078D01*
X193000234Y-85532095D01*
X192960546Y-85517293D01*
X192960548Y-85517293D01*
X192900948Y-85510886D01*
X192900946Y-85510885D01*
X192900938Y-85510885D01*
X192900929Y-85510885D01*
X191916194Y-85510885D01*
X191916188Y-85510886D01*
X191856582Y-85517293D01*
X191816896Y-85532095D01*
X191747204Y-85537078D01*
X191730234Y-85532095D01*
X191690546Y-85517293D01*
X191690548Y-85517293D01*
X191630948Y-85510886D01*
X191630946Y-85510885D01*
X191630938Y-85510885D01*
X191630929Y-85510885D01*
X190646194Y-85510885D01*
X190646188Y-85510886D01*
X190586582Y-85517293D01*
X190546896Y-85532095D01*
X190477204Y-85537078D01*
X190460234Y-85532095D01*
X190420546Y-85517293D01*
X190420548Y-85517293D01*
X190360948Y-85510886D01*
X190360946Y-85510885D01*
X190360938Y-85510885D01*
X190360930Y-85510885D01*
X189477364Y-85510885D01*
X189410325Y-85491200D01*
X189364570Y-85438396D01*
X189353364Y-85386885D01*
X189353364Y-85018314D01*
X189353363Y-85018308D01*
X189353362Y-85018301D01*
X189346956Y-84958702D01*
X189332155Y-84919019D01*
X189327170Y-84849327D01*
X189332154Y-84832354D01*
X189346956Y-84792668D01*
X189353365Y-84733058D01*
X189353364Y-83748313D01*
X189346956Y-83688702D01*
X189346109Y-83686432D01*
X189332155Y-83649019D01*
X189327170Y-83579327D01*
X189332154Y-83562354D01*
X189346956Y-83522668D01*
X189353365Y-83463058D01*
X189353364Y-82478313D01*
X189346956Y-82418702D01*
X189332155Y-82379019D01*
X189327170Y-82309327D01*
X189332154Y-82292354D01*
X189346956Y-82252668D01*
X189353365Y-82193058D01*
X189353364Y-81208313D01*
X189346956Y-81148702D01*
X189332155Y-81109019D01*
X189327170Y-81039327D01*
X189332154Y-81022354D01*
X189346956Y-80982668D01*
X189353365Y-80923058D01*
X189353364Y-79938313D01*
X189346956Y-79878702D01*
X189332155Y-79839019D01*
X189327170Y-79769327D01*
X189332154Y-79752354D01*
X189346956Y-79712668D01*
X189353365Y-79653058D01*
X189353364Y-78668313D01*
X189346956Y-78608702D01*
X189344163Y-78601215D01*
X189332155Y-78569019D01*
X189327170Y-78499327D01*
X189332154Y-78482354D01*
X189346956Y-78442668D01*
X189353365Y-78383058D01*
X189353365Y-78370685D01*
X193259065Y-78370685D01*
X193259065Y-78613029D01*
X193265466Y-78672557D01*
X193265468Y-78672564D01*
X193315710Y-78807271D01*
X193315714Y-78807278D01*
X193401874Y-78922372D01*
X193401877Y-78922375D01*
X193516971Y-79008535D01*
X193516978Y-79008539D01*
X193651685Y-79058781D01*
X193651692Y-79058783D01*
X193711220Y-79065184D01*
X193711237Y-79065185D01*
X193953565Y-79065185D01*
X193953565Y-78370685D01*
X194453565Y-78370685D01*
X194453565Y-79065185D01*
X194695893Y-79065185D01*
X194695909Y-79065184D01*
X194755437Y-79058783D01*
X194755441Y-79058782D01*
X194860231Y-79019698D01*
X194929923Y-79014714D01*
X194946899Y-79019698D01*
X195051688Y-79058782D01*
X195051692Y-79058783D01*
X195111220Y-79065184D01*
X195111237Y-79065185D01*
X195353565Y-79065185D01*
X195353565Y-78370685D01*
X195853565Y-78370685D01*
X195853565Y-79065185D01*
X196095893Y-79065185D01*
X196095909Y-79065184D01*
X196155437Y-79058783D01*
X196155441Y-79058782D01*
X196260231Y-79019698D01*
X196329923Y-79014714D01*
X196346899Y-79019698D01*
X196451688Y-79058782D01*
X196451692Y-79058783D01*
X196511220Y-79065184D01*
X196511237Y-79065185D01*
X196753565Y-79065185D01*
X196753565Y-78370685D01*
X197253565Y-78370685D01*
X197253565Y-79065185D01*
X197495893Y-79065185D01*
X197495909Y-79065184D01*
X197555437Y-79058783D01*
X197555444Y-79058781D01*
X197690151Y-79008539D01*
X197690158Y-79008535D01*
X197805252Y-78922375D01*
X197805255Y-78922372D01*
X197891415Y-78807278D01*
X197891419Y-78807271D01*
X197941661Y-78672564D01*
X197941663Y-78672557D01*
X197948064Y-78613029D01*
X197948065Y-78613012D01*
X197948065Y-78370685D01*
X197253565Y-78370685D01*
X196753565Y-78370685D01*
X195853565Y-78370685D01*
X195353565Y-78370685D01*
X194453565Y-78370685D01*
X193953565Y-78370685D01*
X193259065Y-78370685D01*
X189353365Y-78370685D01*
X189353364Y-77398313D01*
X189346956Y-77338702D01*
X189332155Y-77299019D01*
X189327170Y-77229327D01*
X189332154Y-77212354D01*
X189346956Y-77172668D01*
X189353365Y-77113058D01*
X189353365Y-76970685D01*
X193259065Y-76970685D01*
X193259065Y-77213029D01*
X193265466Y-77272557D01*
X193265468Y-77272565D01*
X193304551Y-77377352D01*
X193309535Y-77447044D01*
X193304551Y-77464018D01*
X193265468Y-77568804D01*
X193265466Y-77568812D01*
X193259065Y-77628340D01*
X193259065Y-77870685D01*
X193953565Y-77870685D01*
X193953565Y-76970685D01*
X194453565Y-76970685D01*
X194453565Y-77870685D01*
X195353565Y-77870685D01*
X195353565Y-76970685D01*
X195853565Y-76970685D01*
X195853565Y-77870685D01*
X196753565Y-77870685D01*
X196753565Y-76970685D01*
X197253565Y-76970685D01*
X197253565Y-77870685D01*
X197948065Y-77870685D01*
X197948065Y-77628357D01*
X197948064Y-77628340D01*
X197941663Y-77568812D01*
X197941662Y-77568808D01*
X197902578Y-77464019D01*
X197897594Y-77394327D01*
X197902578Y-77377351D01*
X197941662Y-77272561D01*
X197941663Y-77272557D01*
X197948064Y-77213029D01*
X197948065Y-77213012D01*
X197948065Y-76970685D01*
X197253565Y-76970685D01*
X196753565Y-76970685D01*
X195853565Y-76970685D01*
X195353565Y-76970685D01*
X194453565Y-76970685D01*
X193953565Y-76970685D01*
X193259065Y-76970685D01*
X189353365Y-76970685D01*
X189353364Y-76128313D01*
X189346956Y-76068702D01*
X189345209Y-76064019D01*
X189332155Y-76029019D01*
X189327170Y-75959327D01*
X189332154Y-75942354D01*
X189346956Y-75902668D01*
X189353365Y-75843058D01*
X189353365Y-75570685D01*
X193259065Y-75570685D01*
X193259065Y-75813029D01*
X193265466Y-75872557D01*
X193265468Y-75872565D01*
X193304551Y-75977352D01*
X193309535Y-76047044D01*
X193304551Y-76064018D01*
X193265468Y-76168804D01*
X193265466Y-76168812D01*
X193259065Y-76228340D01*
X193259065Y-76470685D01*
X193953565Y-76470685D01*
X193953565Y-75570685D01*
X194453565Y-75570685D01*
X194453565Y-76470685D01*
X195353565Y-76470685D01*
X195353565Y-75570685D01*
X195853565Y-75570685D01*
X195853565Y-76470685D01*
X196753565Y-76470685D01*
X196753565Y-75570685D01*
X197253565Y-75570685D01*
X197253565Y-76470685D01*
X197948065Y-76470685D01*
X197948065Y-76228357D01*
X197948064Y-76228340D01*
X197941663Y-76168812D01*
X197941662Y-76168808D01*
X197902578Y-76064019D01*
X197897594Y-75994327D01*
X197902578Y-75977351D01*
X197941662Y-75872561D01*
X197941663Y-75872557D01*
X197948064Y-75813029D01*
X197948065Y-75813012D01*
X197948065Y-75570685D01*
X197253565Y-75570685D01*
X196753565Y-75570685D01*
X195853565Y-75570685D01*
X195353565Y-75570685D01*
X194453565Y-75570685D01*
X193953565Y-75570685D01*
X193259065Y-75570685D01*
X189353365Y-75570685D01*
X189353364Y-75070685D01*
X193259065Y-75070685D01*
X193953565Y-75070685D01*
X193953565Y-74376185D01*
X194453565Y-74376185D01*
X194453565Y-75070685D01*
X195353565Y-75070685D01*
X195353565Y-74376185D01*
X195853565Y-74376185D01*
X195853565Y-75070685D01*
X196753565Y-75070685D01*
X196753565Y-74376185D01*
X197253565Y-74376185D01*
X197253565Y-75070685D01*
X197948065Y-75070685D01*
X197948065Y-74828357D01*
X197948064Y-74828340D01*
X197941663Y-74768812D01*
X197941661Y-74768805D01*
X197891419Y-74634098D01*
X197891415Y-74634091D01*
X197805255Y-74518997D01*
X197805252Y-74518994D01*
X197690158Y-74432834D01*
X197690151Y-74432830D01*
X197555444Y-74382588D01*
X197555437Y-74382586D01*
X197495909Y-74376185D01*
X197253565Y-74376185D01*
X196753565Y-74376185D01*
X196511220Y-74376185D01*
X196451692Y-74382586D01*
X196451684Y-74382588D01*
X196346898Y-74421671D01*
X196277206Y-74426655D01*
X196260232Y-74421671D01*
X196155445Y-74382588D01*
X196155437Y-74382586D01*
X196095909Y-74376185D01*
X195853565Y-74376185D01*
X195353565Y-74376185D01*
X195111220Y-74376185D01*
X195051692Y-74382586D01*
X195051684Y-74382588D01*
X194946898Y-74421671D01*
X194877206Y-74426655D01*
X194860232Y-74421671D01*
X194755445Y-74382588D01*
X194755437Y-74382586D01*
X194695909Y-74376185D01*
X194453565Y-74376185D01*
X193953565Y-74376185D01*
X193711220Y-74376185D01*
X193651692Y-74382586D01*
X193651685Y-74382588D01*
X193516978Y-74432830D01*
X193516971Y-74432834D01*
X193401877Y-74518994D01*
X193401874Y-74518997D01*
X193315714Y-74634091D01*
X193315710Y-74634098D01*
X193265468Y-74768805D01*
X193265466Y-74768812D01*
X193259065Y-74828340D01*
X193259065Y-75070685D01*
X189353364Y-75070685D01*
X189353364Y-74858313D01*
X189346956Y-74798702D01*
X189332155Y-74759019D01*
X189327170Y-74689327D01*
X189332154Y-74672354D01*
X189346956Y-74632668D01*
X189353365Y-74573058D01*
X189353364Y-73588313D01*
X189346956Y-73528702D01*
X189346109Y-73526432D01*
X189332155Y-73489019D01*
X189327170Y-73419327D01*
X189332154Y-73402354D01*
X189346956Y-73362668D01*
X189353365Y-73303058D01*
X189353364Y-72318313D01*
X189351980Y-72305438D01*
X189364386Y-72236680D01*
X189411997Y-72185543D01*
X189475270Y-72168185D01*
X191110583Y-72168185D01*
X191177622Y-72187870D01*
X191223377Y-72240674D01*
X191225146Y-72244737D01*
X191227013Y-72249245D01*
X191263931Y-72318314D01*
X191321841Y-72426654D01*
X191449452Y-72582149D01*
X191604947Y-72709760D01*
X191604951Y-72709763D01*
X191782357Y-72804589D01*
X191974854Y-72862982D01*
X192175044Y-72882699D01*
X192375234Y-72862982D01*
X192567731Y-72804589D01*
X192745137Y-72709763D01*
X192900635Y-72582149D01*
X193028249Y-72426651D01*
X193123075Y-72249245D01*
X193181468Y-72056748D01*
X193201185Y-71856558D01*
X193181468Y-71656368D01*
X193123075Y-71463871D01*
X193028249Y-71286465D01*
X193028246Y-71286461D01*
X192900635Y-71130966D01*
X192745140Y-71003355D01*
X192745138Y-71003354D01*
X192745137Y-71003353D01*
X192585210Y-70917870D01*
X192567733Y-70908528D01*
X192567732Y-70908527D01*
X192567731Y-70908527D01*
X192471471Y-70879327D01*
X192375232Y-70850133D01*
X192175044Y-70830417D01*
X191974855Y-70850133D01*
X191878617Y-70879327D01*
X191784600Y-70907846D01*
X191748609Y-70913185D01*
X189475270Y-70913185D01*
X189408231Y-70893500D01*
X189362476Y-70840696D01*
X189351981Y-70775928D01*
X189353365Y-70763058D01*
X189353364Y-69778313D01*
X189346956Y-69718702D01*
X189331887Y-69678302D01*
X189326904Y-69608612D01*
X189331889Y-69591634D01*
X189346463Y-69552561D01*
X189352864Y-69493029D01*
X189352865Y-69493012D01*
X189352865Y-69250685D01*
X186854265Y-69250685D01*
X186854265Y-69493026D01*
X186855653Y-69505928D01*
X186843249Y-69574688D01*
X186795639Y-69625826D01*
X186732364Y-69643185D01*
X183767894Y-69643185D01*
X183752245Y-69641457D01*
X183752219Y-69641739D01*
X183744451Y-69641004D01*
X183677009Y-69643124D01*
X183673115Y-69643185D01*
X183645450Y-69643185D01*
X183641441Y-69643691D01*
X183629811Y-69644606D01*
X183585987Y-69645983D01*
X183585981Y-69645984D01*
X183566646Y-69651601D01*
X183547607Y-69655544D01*
X183527642Y-69658067D01*
X183527628Y-69658070D01*
X183486877Y-69674204D01*
X183475833Y-69677985D01*
X183433736Y-69690216D01*
X183433733Y-69690218D01*
X183416407Y-69700464D01*
X183398937Y-69709022D01*
X183380225Y-69716430D01*
X183344753Y-69742201D01*
X183334993Y-69748612D01*
X183297273Y-69770919D01*
X183283033Y-69785159D01*
X183268247Y-69797787D01*
X183251960Y-69809621D01*
X183224017Y-69843397D01*
X183216156Y-69852035D01*
X178636111Y-74432080D01*
X178574788Y-74465565D01*
X178548430Y-74468399D01*
X177974994Y-74468399D01*
X177907955Y-74448714D01*
X177887313Y-74432080D01*
X177762699Y-74307466D01*
X177752854Y-74295177D01*
X177752636Y-74295358D01*
X177747663Y-74289347D01*
X177698476Y-74243157D01*
X177695677Y-74240444D01*
X177676120Y-74220886D01*
X177672930Y-74218412D01*
X177664039Y-74210819D01*
X177644793Y-74192745D01*
X177632090Y-74180816D01*
X177632089Y-74180815D01*
X177632086Y-74180813D01*
X177614445Y-74171115D01*
X177598180Y-74160431D01*
X177582286Y-74148102D01*
X177582285Y-74148101D01*
X177552985Y-74135421D01*
X177542058Y-74130693D01*
X177531570Y-74125554D01*
X177493161Y-74104438D01*
X177493151Y-74104435D01*
X177473657Y-74099429D01*
X177455256Y-74093129D01*
X177436782Y-74085135D01*
X177436775Y-74085133D01*
X177393496Y-74078279D01*
X177382056Y-74075910D01*
X177339602Y-74065009D01*
X177339595Y-74065009D01*
X177319465Y-74065009D01*
X177300066Y-74063482D01*
X177280191Y-74060334D01*
X177280190Y-74060334D01*
X177236553Y-74064459D01*
X177224884Y-74065009D01*
X173525920Y-74065009D01*
X173510271Y-74063281D01*
X173510245Y-74063563D01*
X173502477Y-74062828D01*
X173435035Y-74064948D01*
X173431141Y-74065009D01*
X173403476Y-74065009D01*
X173399467Y-74065515D01*
X173387837Y-74066430D01*
X173344013Y-74067807D01*
X173344007Y-74067808D01*
X173324672Y-74073425D01*
X173305633Y-74077368D01*
X173285668Y-74079891D01*
X173285654Y-74079894D01*
X173244903Y-74096028D01*
X173233858Y-74099810D01*
X173191760Y-74112041D01*
X173174437Y-74122286D01*
X173156968Y-74130844D01*
X173138252Y-74138254D01*
X173102790Y-74164018D01*
X173093029Y-74170429D01*
X173055299Y-74192742D01*
X173041054Y-74206987D01*
X173026269Y-74219615D01*
X173009983Y-74231448D01*
X172982048Y-74265215D01*
X172974187Y-74273853D01*
X172765350Y-74482690D01*
X172704027Y-74516175D01*
X172677669Y-74519009D01*
X172090951Y-74519009D01*
X172090933Y-74519010D01*
X171988156Y-74529509D01*
X171988153Y-74529510D01*
X171821621Y-74584694D01*
X171821612Y-74584698D01*
X171752102Y-74627573D01*
X171684710Y-74646013D01*
X171618047Y-74625090D01*
X171599325Y-74609715D01*
X166225028Y-69235418D01*
X166191543Y-69174095D01*
X166196527Y-69104403D01*
X166238399Y-69048470D01*
X166303863Y-69024053D01*
X166312709Y-69023737D01*
X166363401Y-69023737D01*
X166363415Y-69023736D01*
X166466126Y-69013243D01*
X166632548Y-68958096D01*
X166632553Y-68958094D01*
X166781774Y-68866053D01*
X166897142Y-68750685D01*
X186854265Y-68750685D01*
X187853565Y-68750685D01*
X187853565Y-68056185D01*
X188353565Y-68056185D01*
X188353565Y-68750685D01*
X189352865Y-68750685D01*
X204354265Y-68750685D01*
X205353565Y-68750685D01*
X205353565Y-68056185D01*
X205853565Y-68056185D01*
X205853565Y-68750685D01*
X206852865Y-68750685D01*
X206852865Y-68508357D01*
X206852864Y-68508340D01*
X206846463Y-68448812D01*
X206846461Y-68448805D01*
X206796219Y-68314098D01*
X206796215Y-68314091D01*
X206710055Y-68198997D01*
X206710052Y-68198994D01*
X206594958Y-68112834D01*
X206594951Y-68112830D01*
X206460244Y-68062588D01*
X206460237Y-68062586D01*
X206400709Y-68056185D01*
X205853565Y-68056185D01*
X205353565Y-68056185D01*
X204806420Y-68056185D01*
X204746892Y-68062586D01*
X204746885Y-68062588D01*
X204612178Y-68112830D01*
X204612171Y-68112834D01*
X204497077Y-68198994D01*
X204497074Y-68198997D01*
X204410914Y-68314091D01*
X204410910Y-68314098D01*
X204360668Y-68448805D01*
X204360666Y-68448812D01*
X204354265Y-68508340D01*
X204354265Y-68750685D01*
X189352865Y-68750685D01*
X189352865Y-68508357D01*
X189352864Y-68508340D01*
X189346463Y-68448812D01*
X189346461Y-68448805D01*
X189296219Y-68314098D01*
X189296215Y-68314091D01*
X189210055Y-68198997D01*
X189210052Y-68198994D01*
X189094958Y-68112834D01*
X189094951Y-68112830D01*
X188960244Y-68062588D01*
X188960237Y-68062586D01*
X188900709Y-68056185D01*
X188353565Y-68056185D01*
X187853565Y-68056185D01*
X187306420Y-68056185D01*
X187246892Y-68062586D01*
X187246885Y-68062588D01*
X187112178Y-68112830D01*
X187112171Y-68112834D01*
X186997077Y-68198994D01*
X186997074Y-68198997D01*
X186910914Y-68314091D01*
X186910910Y-68314098D01*
X186860668Y-68448805D01*
X186860666Y-68448812D01*
X186854265Y-68508340D01*
X186854265Y-68750685D01*
X166897142Y-68750685D01*
X166905744Y-68742083D01*
X166997785Y-68592862D01*
X166997787Y-68592857D01*
X167052934Y-68426435D01*
X167052935Y-68426428D01*
X167063428Y-68323724D01*
X167063429Y-68323711D01*
X167063429Y-68048738D01*
X165849929Y-68048738D01*
X165782890Y-68029053D01*
X165737135Y-67976249D01*
X165725929Y-67924738D01*
X165725929Y-66573738D01*
X166225929Y-66573738D01*
X166225929Y-67548738D01*
X167063428Y-67548738D01*
X167063428Y-67273766D01*
X167063427Y-67273751D01*
X167052934Y-67171040D01*
X166997787Y-67004618D01*
X166997785Y-67004613D01*
X166905744Y-66855392D01*
X166781774Y-66731422D01*
X166632553Y-66639381D01*
X166632548Y-66639379D01*
X166466126Y-66584232D01*
X166466119Y-66584231D01*
X166363415Y-66573738D01*
X166225929Y-66573738D01*
X165725929Y-66573738D01*
X165588456Y-66573738D01*
X165588441Y-66573739D01*
X165485731Y-66584232D01*
X165319309Y-66639379D01*
X165319304Y-66639381D01*
X165170083Y-66731422D01*
X165046112Y-66855393D01*
X165046108Y-66855398D01*
X165044255Y-66858403D01*
X165042447Y-66860028D01*
X165041631Y-66861061D01*
X165041454Y-66860921D01*
X164992303Y-66905123D01*
X164923340Y-66916339D01*
X164859260Y-66888490D01*
X164833182Y-66858391D01*
X164833166Y-66858366D01*
X164831141Y-66855082D01*
X164707085Y-66731026D01*
X164557763Y-66638924D01*
X164391226Y-66583739D01*
X164391224Y-66583738D01*
X164288439Y-66573238D01*
X163513427Y-66573238D01*
X163513409Y-66573239D01*
X163410632Y-66583738D01*
X163410629Y-66583739D01*
X163244097Y-66638923D01*
X163244092Y-66638925D01*
X163094771Y-66731027D01*
X162970718Y-66855080D01*
X162878616Y-67004401D01*
X162878614Y-67004406D01*
X162878544Y-67004618D01*
X162823430Y-67170941D01*
X162823430Y-67170942D01*
X162823429Y-67170942D01*
X162812929Y-67273721D01*
X162812929Y-67947956D01*
X162793244Y-68014995D01*
X162776610Y-68035637D01*
X157227783Y-73584463D01*
X157215499Y-73594306D01*
X157215679Y-73594524D01*
X157209667Y-73599497D01*
X157163476Y-73648684D01*
X157160771Y-73651475D01*
X157141209Y-73671037D01*
X157141205Y-73671042D01*
X157138725Y-73674240D01*
X157131147Y-73683111D01*
X157101138Y-73715067D01*
X157101135Y-73715071D01*
X157091436Y-73732714D01*
X157080758Y-73748970D01*
X157068424Y-73764871D01*
X157068419Y-73764879D01*
X157051015Y-73805099D01*
X157045876Y-73815589D01*
X157024757Y-73854004D01*
X157019750Y-73873505D01*
X157013451Y-73891901D01*
X157006723Y-73907449D01*
X157005455Y-73910381D01*
X157005454Y-73910383D01*
X156998599Y-73953668D01*
X156996231Y-73965104D01*
X156985330Y-74007560D01*
X156985330Y-74027695D01*
X156983803Y-74047094D01*
X156980741Y-74066430D01*
X156980655Y-74066970D01*
X156983760Y-74099810D01*
X156984780Y-74110604D01*
X156985330Y-74122274D01*
X156985330Y-74385033D01*
X156965645Y-74452072D01*
X156912841Y-74497827D01*
X156843683Y-74507771D01*
X156802877Y-74494392D01*
X156740821Y-74461223D01*
X156592831Y-74416330D01*
X156592830Y-74416330D01*
X156592830Y-75207733D01*
X156592233Y-75219887D01*
X156577330Y-75371201D01*
X156577330Y-75598468D01*
X156550848Y-75516967D01*
X156484015Y-75442741D01*
X156392770Y-75402116D01*
X156318135Y-75402116D01*
X156245132Y-75417633D01*
X156164327Y-75476341D01*
X156114387Y-75562840D01*
X156108329Y-75620472D01*
X156108329Y-74839195D01*
X156108328Y-74839189D01*
X156108327Y-74839182D01*
X156101921Y-74779583D01*
X156100648Y-74776169D01*
X156092830Y-74732837D01*
X156092830Y-74416330D01*
X156092829Y-74416330D01*
X155954590Y-74458265D01*
X155884723Y-74458888D01*
X155858754Y-74446031D01*
X155857942Y-74447519D01*
X155850158Y-74443268D01*
X155780997Y-74417473D01*
X155725063Y-74375602D01*
X155700646Y-74310137D01*
X155700330Y-74301291D01*
X155700330Y-65500573D01*
X155720015Y-65433534D01*
X155736644Y-65412897D01*
X156059953Y-65089588D01*
X215608507Y-65089588D01*
X216208507Y-65089588D01*
X216208507Y-64339588D01*
X216060662Y-64339588D01*
X216001134Y-64345989D01*
X216001127Y-64345991D01*
X215866420Y-64396233D01*
X215866413Y-64396237D01*
X215751319Y-64482397D01*
X215751316Y-64482400D01*
X215665156Y-64597494D01*
X215665152Y-64597501D01*
X215614910Y-64732208D01*
X215614908Y-64732215D01*
X215608507Y-64791743D01*
X215608507Y-65089588D01*
X156059953Y-65089588D01*
X159873787Y-61275753D01*
X159935108Y-61242270D01*
X159998246Y-61246785D01*
X159998717Y-61245250D01*
X160003749Y-61246791D01*
X160003753Y-61246793D01*
X160226820Y-61315106D01*
X160458224Y-61344739D01*
X160691307Y-61334837D01*
X160919365Y-61285687D01*
X161135835Y-61198702D01*
X161334491Y-61076385D01*
X161509618Y-60922254D01*
X161656178Y-60740743D01*
X161678976Y-60699933D01*
X161728855Y-60651006D01*
X161797268Y-60636813D01*
X161862494Y-60661860D01*
X161889965Y-60690969D01*
X161986835Y-60834294D01*
X162148203Y-61002662D01*
X162148204Y-61002663D01*
X162335697Y-61141333D01*
X162543938Y-61246326D01*
X162766930Y-61314616D01*
X162766928Y-61314616D01*
X162806599Y-61319696D01*
X162806600Y-61319696D01*
X162806600Y-60232641D01*
X162836988Y-60251121D01*
X162981540Y-60291623D01*
X163093953Y-60291623D01*
X163205321Y-60276316D01*
X163306600Y-60232324D01*
X163306600Y-61318097D01*
X163459218Y-61285206D01*
X163459219Y-61285206D01*
X163675605Y-61198255D01*
X163874192Y-61075981D01*
X164049256Y-60921905D01*
X164049260Y-60921901D01*
X164195757Y-60740468D01*
X164195761Y-60740462D01*
X164309495Y-60536869D01*
X164387185Y-60316984D01*
X164387187Y-60316976D01*
X164426599Y-60087135D01*
X164426600Y-60087126D01*
X164426600Y-59995523D01*
X163547313Y-59995523D01*
X163596304Y-59857675D01*
X163606549Y-59707905D01*
X163576006Y-59560926D01*
X163542117Y-59495523D01*
X164426600Y-59495523D01*
X164426600Y-59462328D01*
X164426599Y-59462310D01*
X164411777Y-59288159D01*
X164353012Y-59062471D01*
X164256956Y-58849970D01*
X164256951Y-58849962D01*
X164126364Y-58656751D01*
X163964996Y-58488383D01*
X163964995Y-58488382D01*
X163777502Y-58349712D01*
X163569261Y-58244719D01*
X163346275Y-58176430D01*
X163346269Y-58176429D01*
X163306600Y-58171348D01*
X163306600Y-59258404D01*
X163276212Y-59239925D01*
X163131660Y-59199423D01*
X163019247Y-59199423D01*
X162907879Y-59214730D01*
X162806600Y-59258721D01*
X162806600Y-58172947D01*
X162806599Y-58172947D01*
X162653980Y-58205839D01*
X162653979Y-58205839D01*
X162437594Y-58292790D01*
X162239007Y-58415064D01*
X162063943Y-58569140D01*
X162063939Y-58569144D01*
X161917442Y-58750577D01*
X161917438Y-58750583D01*
X161894809Y-58791090D01*
X161844928Y-58840015D01*
X161776515Y-58854207D01*
X161711290Y-58829158D01*
X161683821Y-58800051D01*
X161602980Y-58680444D01*
X161586753Y-58656435D01*
X161425328Y-58488007D01*
X161425327Y-58488006D01*
X161425326Y-58488005D01*
X161237765Y-58349285D01*
X161125714Y-58292790D01*
X161029447Y-58244253D01*
X160806380Y-58175940D01*
X160806378Y-58175939D01*
X160806376Y-58175939D01*
X160574970Y-58146306D01*
X160341899Y-58156208D01*
X160341890Y-58156209D01*
X160113833Y-58205359D01*
X160113830Y-58205360D01*
X159897368Y-58292342D01*
X159698710Y-58414660D01*
X159523580Y-58568793D01*
X159523577Y-58568796D01*
X159377026Y-58750296D01*
X159377022Y-58750302D01*
X159354222Y-58791115D01*
X159304341Y-58840040D01*
X159235928Y-58854232D01*
X159170703Y-58829183D01*
X159143233Y-58800075D01*
X159046363Y-58656750D01*
X158884996Y-58488383D01*
X158884995Y-58488382D01*
X158697502Y-58349712D01*
X158489261Y-58244719D01*
X158266275Y-58176430D01*
X158266269Y-58176429D01*
X158226600Y-58171348D01*
X158226600Y-59258404D01*
X158196212Y-59239925D01*
X158051660Y-59199423D01*
X157939247Y-59199423D01*
X157827879Y-59214730D01*
X157726600Y-59258721D01*
X157726600Y-58172947D01*
X157726599Y-58172947D01*
X157573980Y-58205839D01*
X157573979Y-58205839D01*
X157357594Y-58292790D01*
X157159007Y-58415064D01*
X156983943Y-58569140D01*
X156951499Y-58609321D01*
X156894068Y-58649113D01*
X156824240Y-58651538D01*
X156764186Y-58615827D01*
X156742636Y-58583813D01*
X156741416Y-58581197D01*
X156741414Y-58581189D01*
X156649312Y-58431867D01*
X156525256Y-58307811D01*
X156422216Y-58244256D01*
X156375936Y-58215710D01*
X156375931Y-58215708D01*
X156346148Y-58205839D01*
X156209397Y-58160524D01*
X156209395Y-58160523D01*
X156106616Y-58150023D01*
X156106609Y-58150023D01*
X154959702Y-58150023D01*
X154892663Y-58130338D01*
X154880010Y-58121024D01*
X154878655Y-58119887D01*
X154870673Y-58112572D01*
X154866734Y-58108632D01*
X154842277Y-58089294D01*
X154839481Y-58087016D01*
X154781717Y-58038546D01*
X154775684Y-58034578D01*
X154775712Y-58034534D01*
X154769251Y-58030417D01*
X154769224Y-58030463D01*
X154763080Y-58026673D01*
X154694732Y-57994802D01*
X154691486Y-57993230D01*
X154624105Y-57959390D01*
X154617321Y-57956921D01*
X154617339Y-57956871D01*
X154610097Y-57954354D01*
X154610081Y-57954404D01*
X154603228Y-57952133D01*
X154529378Y-57936884D01*
X154525857Y-57936104D01*
X154452471Y-57918711D01*
X154445304Y-57917874D01*
X154445310Y-57917820D01*
X154437695Y-57917042D01*
X154437691Y-57917096D01*
X154430500Y-57916466D01*
X154355094Y-57918661D01*
X154351488Y-57918713D01*
X136682371Y-57918713D01*
X136615332Y-57899028D01*
X136576783Y-57859729D01*
X136574073Y-57855329D01*
X136574069Y-57855322D01*
X136419938Y-57680195D01*
X136419937Y-57680194D01*
X136419933Y-57680190D01*
X136238433Y-57533639D01*
X136238427Y-57533634D01*
X136034761Y-57419859D01*
X135814798Y-57342142D01*
X135814793Y-57342140D01*
X135814791Y-57342140D01*
X135814787Y-57342139D01*
X135814786Y-57342139D01*
X135584862Y-57302713D01*
X135584854Y-57302713D01*
X134959991Y-57302713D01*
X134959972Y-57302713D01*
X134785760Y-57317541D01*
X134785758Y-57317542D01*
X134559988Y-57376327D01*
X134347404Y-57472421D01*
X134154118Y-57603060D01*
X134154116Y-57603062D01*
X133985690Y-57764485D01*
X133985689Y-57764486D01*
X133846969Y-57952047D01*
X133741940Y-58160360D01*
X133741937Y-58160366D01*
X133673623Y-58383436D01*
X133643991Y-58614837D01*
X133653892Y-58847913D01*
X133653893Y-58847922D01*
X133703043Y-59075979D01*
X133703044Y-59075982D01*
X133789844Y-59291991D01*
X133790028Y-59292448D01*
X133912345Y-59491104D01*
X134017133Y-59610166D01*
X134066476Y-59666231D01*
X134106934Y-59698899D01*
X134146726Y-59756330D01*
X134149152Y-59826158D01*
X134113442Y-59886212D01*
X134081442Y-59907756D01*
X134079087Y-59908854D01*
X133929861Y-60000897D01*
X133805891Y-60124867D01*
X133713850Y-60274088D01*
X133713848Y-60274093D01*
X133658701Y-60440515D01*
X133658700Y-60440522D01*
X133648207Y-60543226D01*
X133648207Y-60963213D01*
X134752494Y-60963213D01*
X134703503Y-61101061D01*
X134693258Y-61250831D01*
X134723801Y-61397810D01*
X134757690Y-61463213D01*
X133648208Y-61463213D01*
X133648208Y-61883199D01*
X133658701Y-61985910D01*
X133713848Y-62152332D01*
X133713850Y-62152337D01*
X133805891Y-62301558D01*
X133929861Y-62425528D01*
X134079082Y-62517569D01*
X134079087Y-62517571D01*
X134245509Y-62572718D01*
X134245516Y-62572719D01*
X134348226Y-62583212D01*
X134993206Y-62583212D01*
X134993207Y-62583211D01*
X134993207Y-61700331D01*
X135023595Y-61718811D01*
X135168147Y-61759313D01*
X135280560Y-61759313D01*
X135391928Y-61744006D01*
X135493207Y-61700014D01*
X135493207Y-62583212D01*
X136138179Y-62583212D01*
X136138193Y-62583211D01*
X136240904Y-62572718D01*
X136407326Y-62517571D01*
X136407331Y-62517569D01*
X136556552Y-62425528D01*
X136680522Y-62301558D01*
X136772563Y-62152337D01*
X136772565Y-62152332D01*
X136827712Y-61985910D01*
X136827713Y-61985903D01*
X136838206Y-61883199D01*
X136838207Y-61883186D01*
X136838207Y-61463213D01*
X135733920Y-61463213D01*
X135782911Y-61325365D01*
X135793156Y-61175595D01*
X135762613Y-61028616D01*
X135728724Y-60963213D01*
X136838206Y-60963213D01*
X136838206Y-60543241D01*
X136838205Y-60543226D01*
X136827712Y-60440515D01*
X136772565Y-60274093D01*
X136772563Y-60274088D01*
X136680522Y-60124867D01*
X136556552Y-60000897D01*
X136407328Y-59908855D01*
X136404881Y-59907714D01*
X136403483Y-59906483D01*
X136401182Y-59905064D01*
X136401424Y-59904670D01*
X136352440Y-59861543D01*
X136333286Y-59794350D01*
X136353499Y-59727469D01*
X136371476Y-59705813D01*
X136500723Y-59581941D01*
X136577615Y-59477976D01*
X136633304Y-59435784D01*
X136677309Y-59427713D01*
X153942100Y-59427713D01*
X154009139Y-59447398D01*
X154054894Y-59500202D01*
X154066100Y-59551713D01*
X154066100Y-60640524D01*
X154066101Y-60640541D01*
X154076600Y-60743319D01*
X154076601Y-60743322D01*
X154113497Y-60854664D01*
X154131786Y-60909857D01*
X154223888Y-61059179D01*
X154347944Y-61183235D01*
X154497266Y-61275337D01*
X154663803Y-61330522D01*
X154766591Y-61341023D01*
X156106608Y-61341022D01*
X156209397Y-61330522D01*
X156375934Y-61275337D01*
X156525256Y-61183235D01*
X156649312Y-61059179D01*
X156741414Y-60909857D01*
X156741417Y-60909845D01*
X156742695Y-60907107D01*
X156744080Y-60905533D01*
X156745205Y-60903710D01*
X156745516Y-60903902D01*
X156788863Y-60854664D01*
X156856055Y-60835506D01*
X156922938Y-60855716D01*
X156944605Y-60873702D01*
X157068203Y-61002662D01*
X157068204Y-61002663D01*
X157255697Y-61141333D01*
X157463938Y-61246326D01*
X157686929Y-61314616D01*
X157686926Y-61314616D01*
X157767198Y-61324895D01*
X157831194Y-61352935D01*
X157869872Y-61411123D01*
X157870950Y-61480985D01*
X157839129Y-61535572D01*
X154687783Y-64686919D01*
X154675499Y-64696762D01*
X154675679Y-64696980D01*
X154669667Y-64701953D01*
X154623476Y-64751140D01*
X154620771Y-64753931D01*
X154601209Y-64773493D01*
X154601205Y-64773498D01*
X154598725Y-64776696D01*
X154591147Y-64785567D01*
X154561138Y-64817523D01*
X154561135Y-64817527D01*
X154551436Y-64835170D01*
X154540758Y-64851426D01*
X154528424Y-64867327D01*
X154528419Y-64867335D01*
X154511015Y-64907555D01*
X154505876Y-64918045D01*
X154484757Y-64956460D01*
X154479750Y-64975961D01*
X154473451Y-64994357D01*
X154466723Y-65009905D01*
X154465455Y-65012837D01*
X154465454Y-65012839D01*
X154458599Y-65056124D01*
X154456231Y-65067560D01*
X154445330Y-65110016D01*
X154445330Y-65130151D01*
X154443803Y-65149550D01*
X154440655Y-65169424D01*
X154444780Y-65213060D01*
X154445330Y-65224730D01*
X154445330Y-74301291D01*
X154425645Y-74368330D01*
X154372841Y-74414085D01*
X154364663Y-74417473D01*
X154295501Y-74443268D01*
X154295494Y-74443272D01*
X154180285Y-74529518D01*
X154180282Y-74529521D01*
X154094036Y-74644730D01*
X154094032Y-74644737D01*
X154043738Y-74779583D01*
X154041683Y-74798702D01*
X154037331Y-74839189D01*
X154037330Y-74839201D01*
X154037330Y-76434936D01*
X154037331Y-76434942D01*
X154043738Y-76494549D01*
X154094032Y-76629394D01*
X154094036Y-76629401D01*
X154180282Y-76744610D01*
X154180285Y-76744613D01*
X154295494Y-76830859D01*
X154295501Y-76830863D01*
X154430347Y-76881157D01*
X154430346Y-76881157D01*
X154437274Y-76881901D01*
X154489957Y-76887566D01*
X155390548Y-76887565D01*
X155457587Y-76907249D01*
X155503342Y-76960053D01*
X155513286Y-77029212D01*
X155484261Y-77092768D01*
X155478229Y-77099246D01*
X144905705Y-87671772D01*
X144844382Y-87705257D01*
X144818024Y-87708091D01*
X133797272Y-87708091D01*
X133730233Y-87688406D01*
X133684478Y-87635602D01*
X133673272Y-87584091D01*
X133673272Y-87533591D01*
X132459772Y-87533591D01*
X132392733Y-87513906D01*
X132346978Y-87461102D01*
X132335772Y-87409591D01*
X132335772Y-86058591D01*
X132835772Y-86058591D01*
X132835772Y-87033591D01*
X133673271Y-87033591D01*
X133673271Y-86758619D01*
X133673270Y-86758604D01*
X133662777Y-86655893D01*
X133607630Y-86489471D01*
X133607628Y-86489466D01*
X133515587Y-86340245D01*
X133391617Y-86216275D01*
X133242396Y-86124234D01*
X133242391Y-86124232D01*
X133075969Y-86069085D01*
X133075962Y-86069084D01*
X132973258Y-86058591D01*
X132835772Y-86058591D01*
X132335772Y-86058591D01*
X132198299Y-86058591D01*
X132198284Y-86058592D01*
X132095574Y-86069085D01*
X131929152Y-86124232D01*
X131929147Y-86124234D01*
X131779926Y-86216275D01*
X131655955Y-86340246D01*
X131655951Y-86340251D01*
X131654098Y-86343256D01*
X131652290Y-86344881D01*
X131651474Y-86345914D01*
X131651297Y-86345774D01*
X131602146Y-86389976D01*
X131533183Y-86401192D01*
X131469103Y-86373343D01*
X131443025Y-86343244D01*
X131443009Y-86343219D01*
X131440984Y-86339935D01*
X131316928Y-86215879D01*
X131167606Y-86123777D01*
X131001069Y-86068592D01*
X131001067Y-86068591D01*
X130898282Y-86058091D01*
X130123270Y-86058091D01*
X130123252Y-86058092D01*
X130020475Y-86068591D01*
X130020470Y-86068592D01*
X130003500Y-86074216D01*
X129933671Y-86076616D01*
X129873631Y-86040883D01*
X129842440Y-85978361D01*
X129840499Y-85956509D01*
X129840499Y-51224499D01*
X129860184Y-51157460D01*
X129912988Y-51111705D01*
X129964499Y-51100499D01*
X227540501Y-51100499D01*
X227607540Y-51120184D01*
G37*
%TD.AperFunction*%
%TA.AperFunction,Conductor*%
G36*
X194289910Y-111078768D02*
G01*
X194322233Y-111102044D01*
X197978745Y-114758556D01*
X198012230Y-114819879D01*
X198015064Y-114846237D01*
X198015064Y-116355231D01*
X197995379Y-116422270D01*
X197956162Y-116460769D01*
X197923908Y-116480663D01*
X197799853Y-116604718D01*
X197707751Y-116754039D01*
X197707749Y-116754044D01*
X197679913Y-116838046D01*
X197652565Y-116920579D01*
X197652565Y-116920580D01*
X197652564Y-116920580D01*
X197642064Y-117023359D01*
X197642064Y-117610094D01*
X197622379Y-117677133D01*
X197605745Y-117697775D01*
X194435543Y-120867976D01*
X194374220Y-120901461D01*
X194304528Y-120896477D01*
X194248596Y-120854607D01*
X194239668Y-120842680D01*
X194239666Y-120842678D01*
X194239665Y-120842677D01*
X194124457Y-120756432D01*
X194124450Y-120756428D01*
X193989604Y-120706134D01*
X193989605Y-120706134D01*
X193930005Y-120699727D01*
X193930003Y-120699726D01*
X193929995Y-120699726D01*
X193929986Y-120699726D01*
X192284251Y-120699726D01*
X192284245Y-120699727D01*
X192224638Y-120706134D01*
X192089793Y-120756428D01*
X192089786Y-120756432D01*
X191974577Y-120842678D01*
X191974574Y-120842681D01*
X191888328Y-120957890D01*
X191888324Y-120957897D01*
X191838030Y-121092742D01*
X191835962Y-121111983D01*
X191809223Y-121176534D01*
X191751830Y-121216381D01*
X191712673Y-121222726D01*
X186551571Y-121222726D01*
X186484532Y-121203041D01*
X186438777Y-121150237D01*
X186428281Y-121111980D01*
X186428108Y-121110372D01*
X186426213Y-121092743D01*
X186390420Y-120996778D01*
X186375919Y-120957897D01*
X186375915Y-120957890D01*
X186289669Y-120842681D01*
X186289666Y-120842678D01*
X186174457Y-120756432D01*
X186174450Y-120756428D01*
X186039604Y-120706134D01*
X186039605Y-120706134D01*
X185980005Y-120699727D01*
X185980003Y-120699726D01*
X185979995Y-120699726D01*
X185979987Y-120699726D01*
X185286480Y-120699726D01*
X185219441Y-120680041D01*
X185173686Y-120627237D01*
X185163742Y-120558079D01*
X185192767Y-120494523D01*
X185198799Y-120488045D01*
X187959579Y-117727265D01*
X188086618Y-117600226D01*
X191832122Y-117600226D01*
X191832122Y-118048070D01*
X191838523Y-118107598D01*
X191838525Y-118107605D01*
X191888767Y-118242312D01*
X191888771Y-118242319D01*
X191974931Y-118357413D01*
X191974934Y-118357416D01*
X192090028Y-118443576D01*
X192090035Y-118443580D01*
X192224742Y-118493822D01*
X192224749Y-118493824D01*
X192284277Y-118500225D01*
X192284294Y-118500226D01*
X192857122Y-118500226D01*
X192857122Y-117600226D01*
X193357122Y-117600226D01*
X193357122Y-118500226D01*
X193929950Y-118500226D01*
X193929966Y-118500225D01*
X193989494Y-118493824D01*
X193989501Y-118493822D01*
X194124208Y-118443580D01*
X194124215Y-118443576D01*
X194239309Y-118357416D01*
X194239312Y-118357413D01*
X194325472Y-118242319D01*
X194325476Y-118242312D01*
X194375718Y-118107605D01*
X194375720Y-118107598D01*
X194382121Y-118048070D01*
X194382122Y-118048053D01*
X194382122Y-117600226D01*
X193357122Y-117600226D01*
X192857122Y-117600226D01*
X191832122Y-117600226D01*
X188086618Y-117600226D01*
X188586618Y-117100226D01*
X191832122Y-117100226D01*
X192857122Y-117100226D01*
X192857122Y-116200226D01*
X193357122Y-116200226D01*
X193357122Y-117100226D01*
X194382122Y-117100226D01*
X194382122Y-116652398D01*
X194382121Y-116652381D01*
X194375720Y-116592853D01*
X194375718Y-116592846D01*
X194325476Y-116458139D01*
X194325472Y-116458132D01*
X194239312Y-116343038D01*
X194239309Y-116343035D01*
X194124215Y-116256875D01*
X194124208Y-116256871D01*
X193989501Y-116206629D01*
X193989494Y-116206627D01*
X193929966Y-116200226D01*
X193357122Y-116200226D01*
X192857122Y-116200226D01*
X192284277Y-116200226D01*
X192224749Y-116206627D01*
X192224742Y-116206629D01*
X192090035Y-116256871D01*
X192090028Y-116256875D01*
X191974934Y-116343035D01*
X191974931Y-116343038D01*
X191888771Y-116458132D01*
X191888767Y-116458139D01*
X191838525Y-116592846D01*
X191838523Y-116592853D01*
X191832122Y-116652381D01*
X191832122Y-117100226D01*
X188586618Y-117100226D01*
X190732668Y-114954175D01*
X190737503Y-114949914D01*
X190740742Y-114946674D01*
X190740748Y-114946671D01*
X190754989Y-114932428D01*
X190769770Y-114919805D01*
X190786059Y-114907971D01*
X190813996Y-114874198D01*
X190821848Y-114865569D01*
X193334586Y-112352831D01*
X193346868Y-112342994D01*
X193346687Y-112342775D01*
X193352700Y-112337799D01*
X193352705Y-112337797D01*
X193398927Y-112288573D01*
X193401576Y-112285841D01*
X193421166Y-112266253D01*
X193423639Y-112263063D01*
X193431225Y-112254179D01*
X193461236Y-112222224D01*
X193470932Y-112204585D01*
X193481616Y-112188318D01*
X193493951Y-112172419D01*
X193511360Y-112132185D01*
X193516498Y-112121700D01*
X193537612Y-112083297D01*
X193537613Y-112083294D01*
X193537615Y-112083291D01*
X193542624Y-112063779D01*
X193548921Y-112045389D01*
X193556916Y-112026916D01*
X193563773Y-111983614D01*
X193566138Y-111972196D01*
X193577043Y-111929729D01*
X193577043Y-111909597D01*
X193578570Y-111890199D01*
X193581718Y-111870324D01*
X193581717Y-111870317D01*
X193581731Y-111869891D01*
X193577593Y-111826112D01*
X193577043Y-111814444D01*
X193577043Y-111750788D01*
X193596728Y-111683749D01*
X193649532Y-111637994D01*
X193662025Y-111633087D01*
X193718877Y-111614249D01*
X193868199Y-111522147D01*
X193992255Y-111398091D01*
X194084357Y-111248769D01*
X194116847Y-111150720D01*
X194156618Y-111093276D01*
X194221134Y-111066453D01*
X194289910Y-111078768D01*
G37*
%TD.AperFunction*%
%TA.AperFunction,Conductor*%
G36*
X164254686Y-69043922D02*
G01*
X164275328Y-69060556D01*
X171344324Y-76129552D01*
X171354171Y-76141842D01*
X171354389Y-76141662D01*
X171361998Y-76150860D01*
X171363281Y-76153848D01*
X171363539Y-76154255D01*
X171363473Y-76154296D01*
X171389562Y-76215063D01*
X171390453Y-76229896D01*
X171390453Y-76269508D01*
X171390454Y-76269528D01*
X171400953Y-76372305D01*
X171400954Y-76372308D01*
X171434409Y-76473267D01*
X171456139Y-76538843D01*
X171548241Y-76688165D01*
X171672297Y-76812221D01*
X171821619Y-76904323D01*
X171988156Y-76959508D01*
X172090944Y-76970009D01*
X172690961Y-76970008D01*
X172690969Y-76970007D01*
X172690972Y-76970007D01*
X172747255Y-76964257D01*
X172793750Y-76959508D01*
X172960287Y-76904323D01*
X173109609Y-76812221D01*
X173233665Y-76688165D01*
X173235705Y-76684856D01*
X173237698Y-76683064D01*
X173238146Y-76682498D01*
X173238242Y-76682574D01*
X173287647Y-76638132D01*
X173356609Y-76626904D01*
X173420693Y-76654743D01*
X173446782Y-76684848D01*
X173448634Y-76687850D01*
X173448636Y-76687853D01*
X173572607Y-76811824D01*
X173721828Y-76903865D01*
X173721833Y-76903867D01*
X173888255Y-76959014D01*
X173888262Y-76959015D01*
X173990972Y-76969508D01*
X174040952Y-76969507D01*
X174040953Y-76969507D01*
X174040953Y-75994509D01*
X174540953Y-75994509D01*
X174540953Y-76969508D01*
X174590925Y-76969508D01*
X174590939Y-76969507D01*
X174693650Y-76959014D01*
X174860072Y-76903867D01*
X174860077Y-76903865D01*
X175009298Y-76811824D01*
X175133268Y-76687854D01*
X175225309Y-76538633D01*
X175225311Y-76538628D01*
X175280458Y-76372206D01*
X175280459Y-76372199D01*
X175290952Y-76269495D01*
X175290953Y-76269482D01*
X175290953Y-75994509D01*
X174540953Y-75994509D01*
X174040953Y-75994509D01*
X174040953Y-75618509D01*
X174060638Y-75551470D01*
X174113442Y-75505715D01*
X174164953Y-75494509D01*
X175290952Y-75494509D01*
X175290952Y-75444009D01*
X175310637Y-75376970D01*
X175363441Y-75331215D01*
X175414952Y-75320009D01*
X176949042Y-75320009D01*
X177016081Y-75339694D01*
X177036723Y-75356328D01*
X177224894Y-75544499D01*
X177258379Y-75605822D01*
X177261213Y-75632180D01*
X177261213Y-76218900D01*
X177261214Y-76218918D01*
X177271713Y-76321695D01*
X177271714Y-76321698D01*
X177288485Y-76372308D01*
X177326899Y-76488233D01*
X177419001Y-76637555D01*
X177543057Y-76761611D01*
X177692379Y-76853713D01*
X177858916Y-76908898D01*
X177961704Y-76919399D01*
X178561721Y-76919398D01*
X178561729Y-76919397D01*
X178561732Y-76919397D01*
X178618015Y-76913647D01*
X178664510Y-76908898D01*
X178831047Y-76853713D01*
X178980369Y-76761611D01*
X179104425Y-76637555D01*
X179106465Y-76634246D01*
X179108458Y-76632454D01*
X179108906Y-76631888D01*
X179109002Y-76631964D01*
X179158407Y-76587522D01*
X179227369Y-76576294D01*
X179291453Y-76604133D01*
X179317542Y-76634238D01*
X179319394Y-76637240D01*
X179319396Y-76637243D01*
X179443367Y-76761214D01*
X179592588Y-76853255D01*
X179592593Y-76853257D01*
X179759015Y-76908404D01*
X179759022Y-76908405D01*
X179861732Y-76918898D01*
X179911712Y-76918897D01*
X179911713Y-76918897D01*
X179911713Y-75943899D01*
X180411713Y-75943899D01*
X180411713Y-76918898D01*
X180461685Y-76918898D01*
X180461699Y-76918897D01*
X180564410Y-76908404D01*
X180730832Y-76853257D01*
X180730837Y-76853255D01*
X180880058Y-76761214D01*
X181004028Y-76637244D01*
X181096069Y-76488023D01*
X181096071Y-76488018D01*
X181151218Y-76321596D01*
X181151219Y-76321589D01*
X181161712Y-76218885D01*
X181161713Y-76218872D01*
X181161713Y-75943899D01*
X180411713Y-75943899D01*
X179911713Y-75943899D01*
X179911713Y-75567899D01*
X179931398Y-75500860D01*
X179984202Y-75455105D01*
X180035713Y-75443899D01*
X181161712Y-75443899D01*
X181161712Y-75168927D01*
X181161711Y-75168912D01*
X181151218Y-75066201D01*
X181096071Y-74899779D01*
X181096069Y-74899774D01*
X181004028Y-74750553D01*
X180880058Y-74626583D01*
X180730837Y-74534542D01*
X180730832Y-74534540D01*
X180604436Y-74492657D01*
X180546991Y-74452884D01*
X180520168Y-74388369D01*
X180532483Y-74319593D01*
X180555755Y-74287274D01*
X183908527Y-70934504D01*
X183969850Y-70901019D01*
X183996208Y-70898185D01*
X186731860Y-70898185D01*
X186798899Y-70917870D01*
X186844654Y-70970674D01*
X186855149Y-71035442D01*
X186853765Y-71048306D01*
X186853765Y-72033055D01*
X186853766Y-72033061D01*
X186860173Y-72092667D01*
X186874975Y-72132354D01*
X186879958Y-72202046D01*
X186874975Y-72219016D01*
X186860173Y-72258702D01*
X186855149Y-72305439D01*
X186853766Y-72318310D01*
X186853765Y-72318320D01*
X186853765Y-73303055D01*
X186853766Y-73303061D01*
X186860173Y-73362667D01*
X186862607Y-73369192D01*
X186867588Y-73438884D01*
X186834101Y-73500206D01*
X186801740Y-73521464D01*
X186802403Y-73522670D01*
X186795563Y-73526430D01*
X186760091Y-73552201D01*
X186750331Y-73558612D01*
X186712611Y-73580919D01*
X186698371Y-73595159D01*
X186683585Y-73607787D01*
X186667298Y-73619621D01*
X186639355Y-73653397D01*
X186631494Y-73662035D01*
X182789107Y-77504422D01*
X182776823Y-77514265D01*
X182777003Y-77514483D01*
X182770991Y-77519456D01*
X182724800Y-77568643D01*
X182722095Y-77571434D01*
X182702533Y-77590996D01*
X182702529Y-77591001D01*
X182700049Y-77594199D01*
X182692471Y-77603070D01*
X182662462Y-77635026D01*
X182662459Y-77635030D01*
X182652760Y-77652673D01*
X182642082Y-77668929D01*
X182629748Y-77684830D01*
X182629743Y-77684838D01*
X182612339Y-77725058D01*
X182607200Y-77735548D01*
X182586081Y-77773963D01*
X182581074Y-77793464D01*
X182574775Y-77811860D01*
X182572260Y-77817674D01*
X182566779Y-77830340D01*
X182566778Y-77830342D01*
X182559923Y-77873627D01*
X182557555Y-77885063D01*
X182546654Y-77927519D01*
X182546654Y-77947654D01*
X182545127Y-77967053D01*
X182541979Y-77986927D01*
X182546104Y-78030563D01*
X182546654Y-78042233D01*
X182546654Y-78542568D01*
X182526969Y-78609607D01*
X182501319Y-78638421D01*
X182448560Y-78681719D01*
X182320951Y-78837211D01*
X182226124Y-79014618D01*
X182167729Y-79207119D01*
X182148013Y-79407308D01*
X182167729Y-79607496D01*
X182181549Y-79653055D01*
X182226123Y-79799995D01*
X182317762Y-79971439D01*
X182320951Y-79977404D01*
X182448562Y-80132899D01*
X182604057Y-80260510D01*
X182604061Y-80260513D01*
X182781467Y-80355339D01*
X182973964Y-80413732D01*
X183174154Y-80433449D01*
X183374344Y-80413732D01*
X183513687Y-80371462D01*
X183583553Y-80370839D01*
X183642666Y-80408087D01*
X183672257Y-80471381D01*
X183662932Y-80540625D01*
X183637363Y-80577804D01*
X181949601Y-82265565D01*
X181888278Y-82299050D01*
X181849767Y-82301287D01*
X181781848Y-82294598D01*
X181581659Y-82314314D01*
X181389158Y-82372709D01*
X181211751Y-82467536D01*
X181056256Y-82595147D01*
X180928645Y-82750642D01*
X180833818Y-82928049D01*
X180775423Y-83120550D01*
X180755707Y-83320739D01*
X180775423Y-83520927D01*
X180787990Y-83562354D01*
X180833817Y-83713426D01*
X180903884Y-83844512D01*
X180928645Y-83890835D01*
X181056256Y-84046330D01*
X181211751Y-84173941D01*
X181211755Y-84173944D01*
X181389161Y-84268770D01*
X181581658Y-84327163D01*
X181781848Y-84346880D01*
X181982038Y-84327163D01*
X182174535Y-84268770D01*
X182351941Y-84173944D01*
X182507439Y-84046330D01*
X182635053Y-83890832D01*
X182729879Y-83713426D01*
X182788272Y-83520929D01*
X182807989Y-83320739D01*
X182801299Y-83252817D01*
X182814318Y-83184173D01*
X182837018Y-83152986D01*
X185291034Y-80698971D01*
X185352355Y-80665488D01*
X185422047Y-80670472D01*
X185477980Y-80712344D01*
X185502397Y-80777808D01*
X185502713Y-80786654D01*
X185502713Y-81111838D01*
X185483028Y-81178877D01*
X185430224Y-81224632D01*
X185414709Y-81230498D01*
X185304092Y-81264053D01*
X185126682Y-81358882D01*
X184971187Y-81486493D01*
X184843576Y-81641988D01*
X184748749Y-81819395D01*
X184690354Y-82011896D01*
X184670638Y-82212085D01*
X184690354Y-82412273D01*
X184710389Y-82478320D01*
X184745828Y-82595147D01*
X184748749Y-82604774D01*
X184843576Y-82782181D01*
X184971187Y-82937676D01*
X185126682Y-83065287D01*
X185126686Y-83065290D01*
X185304092Y-83160116D01*
X185496589Y-83218509D01*
X185696779Y-83238226D01*
X185896969Y-83218509D01*
X186089466Y-83160116D01*
X186266872Y-83065290D01*
X186422370Y-82937676D01*
X186549984Y-82782178D01*
X186620407Y-82650425D01*
X186669369Y-82600581D01*
X186737507Y-82585121D01*
X186803187Y-82608953D01*
X186845555Y-82664510D01*
X186853765Y-82708879D01*
X186853765Y-83463055D01*
X186853766Y-83463059D01*
X186855150Y-83475931D01*
X186842744Y-83544690D01*
X186795133Y-83595827D01*
X186731860Y-83613185D01*
X185859173Y-83613185D01*
X185843524Y-83611457D01*
X185843498Y-83611739D01*
X185835730Y-83611004D01*
X185768287Y-83613124D01*
X185764393Y-83613185D01*
X185736729Y-83613185D01*
X185732720Y-83613691D01*
X185721090Y-83614606D01*
X185677262Y-83615983D01*
X185657919Y-83621603D01*
X185638875Y-83625547D01*
X185635915Y-83625920D01*
X185618913Y-83628069D01*
X185618909Y-83628070D01*
X185618906Y-83628071D01*
X185578156Y-83644204D01*
X185567112Y-83647985D01*
X185525015Y-83660216D01*
X185525012Y-83660218D01*
X185507686Y-83670464D01*
X185490216Y-83679022D01*
X185471504Y-83686430D01*
X185436032Y-83712201D01*
X185426272Y-83718612D01*
X185388552Y-83740919D01*
X185374312Y-83755159D01*
X185359526Y-83767787D01*
X185343239Y-83779621D01*
X185315296Y-83813397D01*
X185307435Y-83822035D01*
X181579082Y-87550388D01*
X181566798Y-87560231D01*
X181566978Y-87560449D01*
X181560966Y-87565422D01*
X181514775Y-87614609D01*
X181512070Y-87617400D01*
X181492508Y-87636962D01*
X181492504Y-87636967D01*
X181490024Y-87640165D01*
X181482446Y-87649036D01*
X181452437Y-87680992D01*
X181452434Y-87680996D01*
X181442735Y-87698639D01*
X181432057Y-87714895D01*
X181419723Y-87730796D01*
X181419718Y-87730804D01*
X181402314Y-87771024D01*
X181397175Y-87781514D01*
X181376056Y-87819929D01*
X181371049Y-87839430D01*
X181364750Y-87857826D01*
X181360552Y-87867529D01*
X181356754Y-87876306D01*
X181356753Y-87876308D01*
X181349898Y-87919593D01*
X181347530Y-87931029D01*
X181336629Y-87973485D01*
X181336629Y-87993620D01*
X181335102Y-88013019D01*
X181331954Y-88032893D01*
X181336079Y-88076529D01*
X181336629Y-88088199D01*
X181336629Y-88363296D01*
X181316944Y-88430335D01*
X181291294Y-88459149D01*
X181238535Y-88502447D01*
X181110926Y-88657939D01*
X181016099Y-88835346D01*
X180957704Y-89027847D01*
X180937988Y-89228036D01*
X180957704Y-89428224D01*
X180973743Y-89481098D01*
X181016098Y-89620723D01*
X181108312Y-89793243D01*
X181110926Y-89798132D01*
X181238537Y-89953627D01*
X181394032Y-90081238D01*
X181394036Y-90081241D01*
X181571442Y-90176067D01*
X181763939Y-90234460D01*
X181964129Y-90254177D01*
X182164319Y-90234460D01*
X182356816Y-90176067D01*
X182534222Y-90081241D01*
X182689720Y-89953627D01*
X182817334Y-89798129D01*
X182912160Y-89620723D01*
X182970553Y-89428226D01*
X182990270Y-89228036D01*
X182970553Y-89027846D01*
X182912160Y-88835349D01*
X182817334Y-88657943D01*
X182817331Y-88657939D01*
X182689722Y-88502446D01*
X182637373Y-88459484D01*
X182598039Y-88401738D01*
X182596170Y-88331893D01*
X182628356Y-88275953D01*
X183800571Y-87103737D01*
X183861894Y-87070253D01*
X183931586Y-87075237D01*
X183987519Y-87117109D01*
X184011936Y-87182573D01*
X184012252Y-87191419D01*
X184012252Y-87713145D01*
X183992567Y-87780184D01*
X183966917Y-87808998D01*
X183914158Y-87852296D01*
X183786549Y-88007788D01*
X183691722Y-88185195D01*
X183633327Y-88377696D01*
X183613611Y-88577885D01*
X183633327Y-88778073D01*
X183650701Y-88835346D01*
X183689451Y-88963090D01*
X183691722Y-88970574D01*
X183786549Y-89147981D01*
X183914160Y-89303476D01*
X184066169Y-89428226D01*
X184069659Y-89431090D01*
X184247065Y-89525916D01*
X184439562Y-89584309D01*
X184639752Y-89604026D01*
X184839942Y-89584309D01*
X185032439Y-89525916D01*
X185209845Y-89431090D01*
X185365343Y-89303476D01*
X185492957Y-89147978D01*
X185587783Y-88970572D01*
X185646176Y-88778075D01*
X185665893Y-88577885D01*
X185646176Y-88377695D01*
X185587783Y-88185198D01*
X185492957Y-88007792D01*
X185492954Y-88007788D01*
X185365345Y-87852296D01*
X185345811Y-87836265D01*
X185312586Y-87808997D01*
X185273253Y-87751252D01*
X185267252Y-87713145D01*
X185267252Y-87188770D01*
X185286937Y-87121731D01*
X185303571Y-87101089D01*
X186230156Y-86174504D01*
X186291479Y-86141019D01*
X186317837Y-86138185D01*
X186804499Y-86138185D01*
X186871538Y-86157870D01*
X186903200Y-86191877D01*
X186905153Y-86190416D01*
X186996717Y-86312729D01*
X186996720Y-86312732D01*
X187111929Y-86398978D01*
X187111936Y-86398982D01*
X187246782Y-86449276D01*
X187246781Y-86449276D01*
X187253709Y-86450020D01*
X187306392Y-86455685D01*
X188799565Y-86455684D01*
X188866604Y-86475369D01*
X188912359Y-86528172D01*
X188923565Y-86579684D01*
X188923565Y-87557855D01*
X188923566Y-87557861D01*
X188929973Y-87617468D01*
X188980267Y-87752313D01*
X188980271Y-87752320D01*
X189066517Y-87867529D01*
X189066520Y-87867532D01*
X189188834Y-87959097D01*
X189187051Y-87961478D01*
X189225897Y-88000323D01*
X189241065Y-88059751D01*
X189241065Y-107274360D01*
X189221380Y-107341399D01*
X189204746Y-107362041D01*
X188545218Y-108021568D01*
X188483895Y-108055053D01*
X188445384Y-108057290D01*
X188377465Y-108050601D01*
X188177276Y-108070317D01*
X187984775Y-108128712D01*
X187807368Y-108223539D01*
X187651873Y-108351150D01*
X187524262Y-108506645D01*
X187429435Y-108684052D01*
X187371040Y-108876553D01*
X187351324Y-109076742D01*
X187371040Y-109276930D01*
X187384060Y-109319851D01*
X187429434Y-109469429D01*
X187490953Y-109584523D01*
X187524262Y-109646838D01*
X187651873Y-109802333D01*
X187807368Y-109929944D01*
X187807372Y-109929947D01*
X187984778Y-110024773D01*
X188177275Y-110083166D01*
X188377465Y-110102883D01*
X188577655Y-110083166D01*
X188770152Y-110024773D01*
X188947558Y-109929947D01*
X189103056Y-109802333D01*
X189230670Y-109646835D01*
X189325496Y-109469429D01*
X189383889Y-109276932D01*
X189403606Y-109076742D01*
X189396916Y-109008820D01*
X189409935Y-108940176D01*
X189432635Y-108908989D01*
X190253608Y-108088016D01*
X190265890Y-108078179D01*
X190265709Y-108077960D01*
X190271722Y-108072984D01*
X190271727Y-108072982D01*
X190317949Y-108023758D01*
X190320598Y-108021026D01*
X190340188Y-108001438D01*
X190342661Y-107998248D01*
X190350247Y-107989364D01*
X190380258Y-107957409D01*
X190389954Y-107939770D01*
X190400638Y-107923503D01*
X190412973Y-107907604D01*
X190430384Y-107867367D01*
X190435507Y-107856907D01*
X190456637Y-107818476D01*
X190461643Y-107798976D01*
X190467941Y-107780578D01*
X190475939Y-107762100D01*
X190482797Y-107718793D01*
X190485161Y-107707378D01*
X190496065Y-107664914D01*
X190496065Y-107644783D01*
X190497592Y-107625383D01*
X190498507Y-107619605D01*
X190500740Y-107605509D01*
X190496615Y-107561872D01*
X190496065Y-107550203D01*
X190496065Y-92454579D01*
X190515750Y-92387540D01*
X190568554Y-92341785D01*
X190637712Y-92331841D01*
X190699104Y-92359034D01*
X190711281Y-92369108D01*
X190719911Y-92376962D01*
X190823107Y-92480158D01*
X190856592Y-92541481D01*
X190858829Y-92579992D01*
X190852140Y-92647913D01*
X190854294Y-92669783D01*
X190871856Y-92848101D01*
X190880361Y-92876138D01*
X190916582Y-92995544D01*
X190930251Y-93040602D01*
X191025078Y-93218009D01*
X191152689Y-93373504D01*
X191304351Y-93497969D01*
X191308188Y-93501118D01*
X191485594Y-93595944D01*
X191678091Y-93654337D01*
X191878281Y-93674054D01*
X192078471Y-93654337D01*
X192270968Y-93595944D01*
X192448374Y-93501118D01*
X192603872Y-93373504D01*
X192731486Y-93218006D01*
X192826312Y-93040600D01*
X192884705Y-92848103D01*
X192904422Y-92647913D01*
X192884705Y-92447723D01*
X192826312Y-92255226D01*
X192731486Y-92077820D01*
X192729138Y-92074959D01*
X192603872Y-91922321D01*
X192448377Y-91794710D01*
X192448375Y-91794709D01*
X192448374Y-91794708D01*
X192270968Y-91699882D01*
X192169559Y-91669120D01*
X192078469Y-91641488D01*
X191877911Y-91621735D01*
X191813123Y-91595574D01*
X191772765Y-91538539D01*
X191766065Y-91498332D01*
X191766065Y-88132390D01*
X191785750Y-88065351D01*
X191838554Y-88019596D01*
X191903320Y-88009101D01*
X191916192Y-88010485D01*
X192900937Y-88010484D01*
X192960548Y-88004076D01*
X193000230Y-87989274D01*
X193069921Y-87984289D01*
X193086887Y-87989270D01*
X193126582Y-88004076D01*
X193186192Y-88010485D01*
X194170937Y-88010484D01*
X194230548Y-88004076D01*
X194270230Y-87989274D01*
X194339921Y-87984289D01*
X194356887Y-87989270D01*
X194396582Y-88004076D01*
X194456192Y-88010485D01*
X195440937Y-88010484D01*
X195500548Y-88004076D01*
X195540230Y-87989274D01*
X195609921Y-87984289D01*
X195626887Y-87989270D01*
X195666582Y-88004076D01*
X195726192Y-88010485D01*
X196710937Y-88010484D01*
X196770548Y-88004076D01*
X196810230Y-87989274D01*
X196879921Y-87984289D01*
X196896887Y-87989270D01*
X196936582Y-88004076D01*
X196996192Y-88010485D01*
X197980937Y-88010484D01*
X198040548Y-88004076D01*
X198080230Y-87989274D01*
X198149921Y-87984289D01*
X198166887Y-87989270D01*
X198206582Y-88004076D01*
X198266192Y-88010485D01*
X199250937Y-88010484D01*
X199310548Y-88004076D01*
X199350230Y-87989274D01*
X199419921Y-87984289D01*
X199436887Y-87989270D01*
X199476582Y-88004076D01*
X199536192Y-88010485D01*
X200520937Y-88010484D01*
X200580548Y-88004076D01*
X200620230Y-87989274D01*
X200689921Y-87984289D01*
X200706887Y-87989270D01*
X200746582Y-88004076D01*
X200806192Y-88010485D01*
X201790937Y-88010484D01*
X201850548Y-88004076D01*
X201890230Y-87989274D01*
X201959921Y-87984289D01*
X201976887Y-87989270D01*
X202016582Y-88004076D01*
X202076192Y-88010485D01*
X203060937Y-88010484D01*
X203120548Y-88004076D01*
X203160230Y-87989274D01*
X203229921Y-87984289D01*
X203246887Y-87989270D01*
X203286582Y-88004076D01*
X203346192Y-88010485D01*
X204330937Y-88010484D01*
X204390548Y-88004076D01*
X204525396Y-87953781D01*
X204640611Y-87867531D01*
X204726861Y-87752316D01*
X204777156Y-87617468D01*
X204783565Y-87557858D01*
X204783564Y-86579683D01*
X204803248Y-86512645D01*
X204856052Y-86466890D01*
X204907559Y-86455684D01*
X205609783Y-86455684D01*
X205676822Y-86475369D01*
X205697464Y-86492003D01*
X207198013Y-87992552D01*
X207231498Y-88053875D01*
X207234332Y-88080233D01*
X207234332Y-91810988D01*
X207214647Y-91878027D01*
X207161843Y-91923782D01*
X207092685Y-91933726D01*
X207031297Y-91906536D01*
X207030701Y-91906043D01*
X207022055Y-91898176D01*
X206713166Y-91589287D01*
X206679681Y-91527964D01*
X206676847Y-91501606D01*
X206676847Y-90927386D01*
X206676846Y-90927369D01*
X206666347Y-90824591D01*
X206666346Y-90824588D01*
X206650731Y-90777466D01*
X206611162Y-90658054D01*
X206519060Y-90508732D01*
X206395004Y-90384676D01*
X206295419Y-90323252D01*
X206245684Y-90292575D01*
X206245679Y-90292573D01*
X206244210Y-90292086D01*
X206079145Y-90237389D01*
X206079143Y-90237388D01*
X205976364Y-90226888D01*
X205402129Y-90226888D01*
X205335090Y-90207203D01*
X205314448Y-90190569D01*
X205139224Y-90015345D01*
X205129379Y-90003056D01*
X205129161Y-90003237D01*
X205124188Y-89997226D01*
X205075001Y-89951036D01*
X205072202Y-89948323D01*
X205052645Y-89928765D01*
X205049455Y-89926291D01*
X205040564Y-89918698D01*
X205008615Y-89888695D01*
X205008614Y-89888694D01*
X205008611Y-89888692D01*
X204990970Y-89878994D01*
X204974705Y-89868310D01*
X204959196Y-89856280D01*
X204958810Y-89855980D01*
X204929510Y-89843300D01*
X204918583Y-89838572D01*
X204908095Y-89833433D01*
X204869686Y-89812317D01*
X204869676Y-89812314D01*
X204850182Y-89807308D01*
X204831781Y-89801008D01*
X204813307Y-89793014D01*
X204813300Y-89793012D01*
X204770021Y-89786158D01*
X204758581Y-89783789D01*
X204716127Y-89772888D01*
X204716120Y-89772888D01*
X204695990Y-89772888D01*
X204676591Y-89771361D01*
X204656716Y-89768213D01*
X204656715Y-89768213D01*
X204613078Y-89772338D01*
X204601409Y-89772888D01*
X203413387Y-89772888D01*
X203397738Y-89771160D01*
X203397712Y-89771442D01*
X203389944Y-89770707D01*
X203322501Y-89772827D01*
X203318607Y-89772888D01*
X203290943Y-89772888D01*
X203286934Y-89773394D01*
X203275304Y-89774309D01*
X203231476Y-89775686D01*
X203212133Y-89781306D01*
X203193089Y-89785250D01*
X203190129Y-89785623D01*
X203173127Y-89787772D01*
X203173123Y-89787773D01*
X203173120Y-89787774D01*
X203132370Y-89803907D01*
X203121326Y-89807688D01*
X203079229Y-89819919D01*
X203079226Y-89819921D01*
X203061900Y-89830167D01*
X203044430Y-89838725D01*
X203025718Y-89846133D01*
X202990246Y-89871904D01*
X202980486Y-89878315D01*
X202942766Y-89900622D01*
X202928526Y-89914862D01*
X202913740Y-89927490D01*
X202897453Y-89939324D01*
X202869510Y-89973100D01*
X202861649Y-89981738D01*
X192564496Y-100278891D01*
X192552212Y-100288734D01*
X192552392Y-100288952D01*
X192546380Y-100293925D01*
X192500189Y-100343112D01*
X192497484Y-100345903D01*
X192477922Y-100365465D01*
X192477918Y-100365470D01*
X192475438Y-100368668D01*
X192467860Y-100377539D01*
X192437851Y-100409495D01*
X192437848Y-100409499D01*
X192428149Y-100427142D01*
X192417471Y-100443398D01*
X192405137Y-100459299D01*
X192405132Y-100459307D01*
X192387728Y-100499527D01*
X192382589Y-100510017D01*
X192361470Y-100548432D01*
X192356463Y-100567933D01*
X192350164Y-100586329D01*
X192343436Y-100601877D01*
X192342168Y-100604809D01*
X192342167Y-100604811D01*
X192335312Y-100648096D01*
X192332944Y-100659532D01*
X192322043Y-100701988D01*
X192322043Y-100722123D01*
X192320516Y-100741520D01*
X192317368Y-100761398D01*
X192319980Y-100789029D01*
X192321493Y-100805032D01*
X192322043Y-100816702D01*
X192322043Y-107758080D01*
X192302358Y-107825119D01*
X192249554Y-107870874D01*
X192237048Y-107875785D01*
X192180213Y-107894618D01*
X192180212Y-107894619D01*
X192030885Y-107986724D01*
X191906832Y-108110777D01*
X191814730Y-108260098D01*
X191814728Y-108260103D01*
X191786892Y-108344105D01*
X191759544Y-108426638D01*
X191759544Y-108426639D01*
X191759543Y-108426639D01*
X191749043Y-108529418D01*
X191749043Y-109154436D01*
X191749044Y-109154454D01*
X191759543Y-109257231D01*
X191759544Y-109257234D01*
X191814728Y-109423766D01*
X191814730Y-109423771D01*
X191819129Y-109430903D01*
X191906227Y-109572112D01*
X191906832Y-109573092D01*
X192000494Y-109666754D01*
X192033979Y-109728077D01*
X192028995Y-109797769D01*
X192000494Y-109842116D01*
X191906832Y-109935777D01*
X191814730Y-110085098D01*
X191814728Y-110085103D01*
X191802598Y-110121709D01*
X191759544Y-110251638D01*
X191759544Y-110251639D01*
X191759543Y-110251639D01*
X191749043Y-110354418D01*
X191749043Y-110979436D01*
X191749044Y-110979454D01*
X191759543Y-111082231D01*
X191759544Y-111082234D01*
X191814728Y-111248766D01*
X191814730Y-111248771D01*
X191824548Y-111264688D01*
X191885670Y-111363784D01*
X191906832Y-111398092D01*
X192030887Y-111522147D01*
X192119436Y-111576764D01*
X192166161Y-111628712D01*
X192177384Y-111697674D01*
X192149541Y-111761756D01*
X192142021Y-111769984D01*
X190128918Y-113783089D01*
X190067595Y-113816574D01*
X190041237Y-113819408D01*
X177121942Y-113819408D01*
X177054903Y-113799723D01*
X177009148Y-113746919D01*
X176999204Y-113677761D01*
X177028229Y-113614205D01*
X177034261Y-113607727D01*
X178479122Y-112162866D01*
X182891773Y-107750213D01*
X182904055Y-107740376D01*
X182903874Y-107740157D01*
X182909887Y-107735181D01*
X182909892Y-107735179D01*
X182956114Y-107685955D01*
X182958763Y-107683223D01*
X182978353Y-107663635D01*
X182980826Y-107660445D01*
X182988412Y-107651561D01*
X183018423Y-107619606D01*
X183028119Y-107601967D01*
X183038803Y-107585700D01*
X183051138Y-107569801D01*
X183068552Y-107529557D01*
X183073674Y-107519101D01*
X183094802Y-107480673D01*
X183099806Y-107461177D01*
X183106108Y-107442772D01*
X183114104Y-107424298D01*
X183120961Y-107380993D01*
X183123324Y-107369583D01*
X183134230Y-107327111D01*
X183134230Y-107306980D01*
X183135757Y-107287580D01*
X183138905Y-107267706D01*
X183134780Y-107224069D01*
X183134230Y-107212400D01*
X183134230Y-99966997D01*
X183153915Y-99899958D01*
X183193131Y-99861460D01*
X183237886Y-99833856D01*
X183361942Y-99709800D01*
X183454044Y-99560478D01*
X183509229Y-99393941D01*
X183519730Y-99291153D01*
X183519729Y-98291136D01*
X183519193Y-98285893D01*
X183509229Y-98188347D01*
X183509228Y-98188344D01*
X183503588Y-98171324D01*
X183454044Y-98021810D01*
X183361942Y-97872488D01*
X183237886Y-97748432D01*
X183130714Y-97682328D01*
X183088566Y-97656331D01*
X183088561Y-97656329D01*
X183087092Y-97655842D01*
X182922027Y-97601145D01*
X182922025Y-97601144D01*
X182819240Y-97590644D01*
X182194228Y-97590644D01*
X182194210Y-97590645D01*
X182091433Y-97601144D01*
X182091430Y-97601145D01*
X181924898Y-97656329D01*
X181924893Y-97656331D01*
X181775572Y-97748433D01*
X181681911Y-97842095D01*
X181620588Y-97875580D01*
X181550896Y-97870596D01*
X181506549Y-97842095D01*
X181412885Y-97748431D01*
X181368132Y-97720827D01*
X181321408Y-97668879D01*
X181309230Y-97615289D01*
X181309230Y-95228663D01*
X181328915Y-95161624D01*
X181345545Y-95140986D01*
X181733201Y-94753329D01*
X181794522Y-94719846D01*
X181833032Y-94717609D01*
X181900955Y-94724299D01*
X182101145Y-94704582D01*
X182293642Y-94646189D01*
X182471048Y-94551363D01*
X182626546Y-94423749D01*
X182754160Y-94268251D01*
X182848986Y-94090845D01*
X182907379Y-93898348D01*
X182927096Y-93698158D01*
X182907379Y-93497968D01*
X182848986Y-93305471D01*
X182754160Y-93128065D01*
X182726467Y-93094321D01*
X182626546Y-92972566D01*
X182471051Y-92844955D01*
X182471049Y-92844954D01*
X182471048Y-92844953D01*
X182293642Y-92750127D01*
X182197393Y-92720930D01*
X182101143Y-92691733D01*
X181900955Y-92672017D01*
X181700766Y-92691733D01*
X181534786Y-92742083D01*
X181513319Y-92748595D01*
X181508265Y-92750128D01*
X181330858Y-92844955D01*
X181175363Y-92972566D01*
X181047752Y-93128061D01*
X180952925Y-93305468D01*
X180894530Y-93497969D01*
X180881095Y-93634382D01*
X180874814Y-93698158D01*
X180877205Y-93722441D01*
X180881503Y-93766077D01*
X180868484Y-93834723D01*
X180845781Y-93865911D01*
X180296683Y-94415009D01*
X180284399Y-94424852D01*
X180284579Y-94425070D01*
X180278567Y-94430043D01*
X180232376Y-94479230D01*
X180229671Y-94482021D01*
X180210109Y-94501583D01*
X180210105Y-94501588D01*
X180207625Y-94504786D01*
X180200047Y-94513657D01*
X180170038Y-94545613D01*
X180170035Y-94545617D01*
X180160336Y-94563260D01*
X180149658Y-94579516D01*
X180137324Y-94595417D01*
X180137319Y-94595425D01*
X180119915Y-94635645D01*
X180114776Y-94646135D01*
X180093657Y-94684550D01*
X180088650Y-94704051D01*
X180082351Y-94722447D01*
X180076211Y-94736638D01*
X180074355Y-94740927D01*
X180074354Y-94740929D01*
X180067499Y-94784214D01*
X180065131Y-94795650D01*
X180054230Y-94838106D01*
X180054230Y-94858241D01*
X180052703Y-94877638D01*
X180049555Y-94897516D01*
X180049851Y-94900646D01*
X180053680Y-94941150D01*
X180054230Y-94952820D01*
X180054230Y-97615289D01*
X180034545Y-97682328D01*
X179995328Y-97720827D01*
X179950574Y-97748431D01*
X179826519Y-97872486D01*
X179734417Y-98021807D01*
X179734416Y-98021810D01*
X179679231Y-98188347D01*
X179679231Y-98188348D01*
X179679230Y-98188348D01*
X179668730Y-98291127D01*
X179668730Y-98291135D01*
X179668730Y-98735750D01*
X179668731Y-99066644D01*
X179649047Y-99133683D01*
X179596243Y-99179438D01*
X179544731Y-99190644D01*
X172533685Y-99190644D01*
X172466646Y-99170959D01*
X172446004Y-99154325D01*
X168028317Y-94736638D01*
X167994832Y-94675315D01*
X167999816Y-94605623D01*
X168041688Y-94549690D01*
X168107152Y-94525273D01*
X168115998Y-94524957D01*
X168166690Y-94524957D01*
X168166704Y-94524956D01*
X168269415Y-94514463D01*
X168435837Y-94459316D01*
X168435842Y-94459314D01*
X168585063Y-94367273D01*
X168709033Y-94243303D01*
X168801074Y-94094082D01*
X168801076Y-94094077D01*
X168856223Y-93927655D01*
X168856224Y-93927648D01*
X168866717Y-93824944D01*
X168866718Y-93824931D01*
X168866718Y-93549958D01*
X167653218Y-93549958D01*
X167586179Y-93530273D01*
X167540424Y-93477469D01*
X167529218Y-93425958D01*
X167529218Y-92074958D01*
X168029218Y-92074958D01*
X168029218Y-93049958D01*
X168866717Y-93049958D01*
X168866717Y-92774986D01*
X168866716Y-92774971D01*
X168856223Y-92672260D01*
X168801076Y-92505838D01*
X168801074Y-92505833D01*
X168709033Y-92356612D01*
X168585063Y-92232642D01*
X168435842Y-92140601D01*
X168435837Y-92140599D01*
X168269415Y-92085452D01*
X168269408Y-92085451D01*
X168166704Y-92074958D01*
X168029218Y-92074958D01*
X167529218Y-92074958D01*
X167391745Y-92074958D01*
X167391730Y-92074959D01*
X167289020Y-92085452D01*
X167122598Y-92140599D01*
X167122593Y-92140601D01*
X166973372Y-92232642D01*
X166849401Y-92356613D01*
X166849397Y-92356618D01*
X166847544Y-92359623D01*
X166845736Y-92361248D01*
X166844920Y-92362281D01*
X166844743Y-92362141D01*
X166795592Y-92406343D01*
X166726629Y-92417559D01*
X166662549Y-92389710D01*
X166636471Y-92359611D01*
X166636116Y-92359036D01*
X166634430Y-92356302D01*
X166510374Y-92232246D01*
X166390621Y-92158382D01*
X166343897Y-92106434D01*
X166331718Y-92052843D01*
X166331718Y-84026418D01*
X166333446Y-84010767D01*
X166333164Y-84010741D01*
X166333898Y-84002978D01*
X166331779Y-83935535D01*
X166331718Y-83931641D01*
X166331718Y-83903984D01*
X166331718Y-83903978D01*
X166331211Y-83899973D01*
X166330295Y-83888325D01*
X166328919Y-83844512D01*
X166323300Y-83825172D01*
X166319357Y-83806139D01*
X166316834Y-83786161D01*
X166300699Y-83745409D01*
X166296916Y-83734361D01*
X166291475Y-83715632D01*
X166284686Y-83692263D01*
X166281237Y-83686432D01*
X166274439Y-83674937D01*
X166265882Y-83657470D01*
X166258471Y-83638751D01*
X166258467Y-83638745D01*
X166232708Y-83603291D01*
X166226292Y-83593524D01*
X166203986Y-83555805D01*
X166203984Y-83555802D01*
X166203982Y-83555799D01*
X166189748Y-83541565D01*
X166177112Y-83526771D01*
X166174128Y-83522664D01*
X166165281Y-83510487D01*
X166165280Y-83510486D01*
X166165276Y-83510482D01*
X166131505Y-83482544D01*
X166122865Y-83474682D01*
X158681083Y-76032900D01*
X158647598Y-75971577D01*
X158645362Y-75933061D01*
X158648330Y-75902936D01*
X158648330Y-75371201D01*
X158633347Y-75219074D01*
X158588334Y-75070685D01*
X158574136Y-75023880D01*
X158574134Y-75023877D01*
X158574134Y-75023875D01*
X158477985Y-74843995D01*
X158477984Y-74843993D01*
X158477982Y-74843990D01*
X158348582Y-74686314D01*
X158348580Y-74686312D01*
X158348579Y-74686311D01*
X158285665Y-74634679D01*
X158246331Y-74576934D01*
X158240330Y-74538826D01*
X158240330Y-74398117D01*
X158260015Y-74331078D01*
X158276644Y-74310441D01*
X163526529Y-69060555D01*
X163587852Y-69027071D01*
X163614210Y-69024237D01*
X164187647Y-69024237D01*
X164254686Y-69043922D01*
G37*
%TD.AperFunction*%
%TA.AperFunction,Conductor*%
G36*
X135543817Y-113094841D02*
G01*
X135513429Y-113076362D01*
X135368877Y-113035860D01*
X135256464Y-113035860D01*
X135145096Y-113051167D01*
X135043817Y-113095158D01*
X135043817Y-111529078D01*
X135074205Y-111547558D01*
X135218757Y-111588060D01*
X135331170Y-111588060D01*
X135442538Y-111572753D01*
X135543817Y-111528761D01*
X135543817Y-113094841D01*
G37*
%TD.AperFunction*%
%TA.AperFunction,Conductor*%
G36*
X148816087Y-112806904D02*
G01*
X148785699Y-112788425D01*
X148641147Y-112747923D01*
X148528734Y-112747923D01*
X148417366Y-112763230D01*
X148316087Y-112807221D01*
X148316087Y-111241141D01*
X148346475Y-111259621D01*
X148491027Y-111300123D01*
X148603440Y-111300123D01*
X148714808Y-111284816D01*
X148816087Y-111240824D01*
X148816087Y-112806904D01*
G37*
%TD.AperFunction*%
%TA.AperFunction,Conductor*%
G36*
X162885669Y-112645575D02*
G01*
X162855281Y-112627096D01*
X162710729Y-112586594D01*
X162598316Y-112586594D01*
X162486948Y-112601901D01*
X162385669Y-112645892D01*
X162385669Y-111079812D01*
X162416057Y-111098292D01*
X162560609Y-111138794D01*
X162673022Y-111138794D01*
X162784390Y-111123487D01*
X162885669Y-111079495D01*
X162885669Y-112645575D01*
G37*
%TD.AperFunction*%
%TA.AperFunction,Conductor*%
G36*
X158445533Y-77572634D02*
G01*
X158452011Y-77578666D01*
X165040399Y-84167054D01*
X165073884Y-84228377D01*
X165076718Y-84254735D01*
X165076718Y-92052843D01*
X165057033Y-92119882D01*
X165017815Y-92158382D01*
X164898060Y-92232247D01*
X164774007Y-92356300D01*
X164681905Y-92505621D01*
X164681903Y-92505626D01*
X164663156Y-92562202D01*
X164626719Y-92672161D01*
X164626719Y-92672162D01*
X164626718Y-92672162D01*
X164616218Y-92774941D01*
X164616218Y-93449176D01*
X164596533Y-93516215D01*
X164579899Y-93536857D01*
X162250622Y-95866133D01*
X162238338Y-95875976D01*
X162238518Y-95876194D01*
X162232506Y-95881167D01*
X162186315Y-95930354D01*
X162183610Y-95933145D01*
X162164048Y-95952707D01*
X162164044Y-95952712D01*
X162161564Y-95955910D01*
X162153986Y-95964781D01*
X162123977Y-95996737D01*
X162123974Y-95996741D01*
X162114275Y-96014384D01*
X162103597Y-96030640D01*
X162091263Y-96046541D01*
X162091258Y-96046549D01*
X162073854Y-96086769D01*
X162068715Y-96097259D01*
X162047596Y-96135674D01*
X162042589Y-96155175D01*
X162036290Y-96173571D01*
X162029562Y-96189119D01*
X162028294Y-96192051D01*
X162028293Y-96192053D01*
X162021438Y-96235338D01*
X162019070Y-96246774D01*
X162008169Y-96289230D01*
X162008169Y-96309365D01*
X162006642Y-96328764D01*
X162003494Y-96348638D01*
X162007619Y-96392274D01*
X162008169Y-96403944D01*
X162008169Y-99030593D01*
X161988484Y-99097632D01*
X161935680Y-99143387D01*
X161935245Y-99143585D01*
X161739866Y-99231901D01*
X161546580Y-99362541D01*
X161546578Y-99362543D01*
X161378152Y-99523966D01*
X161378151Y-99523967D01*
X161239431Y-99711528D01*
X161134402Y-99919841D01*
X161134399Y-99919847D01*
X161066085Y-100142917D01*
X161036453Y-100374318D01*
X161046354Y-100607394D01*
X161046355Y-100607403D01*
X161095505Y-100835460D01*
X161095506Y-100835463D01*
X161182488Y-101051925D01*
X161182490Y-101051929D01*
X161304807Y-101250585D01*
X161446794Y-101411914D01*
X161458939Y-101425713D01*
X161458942Y-101425716D01*
X161640442Y-101572267D01*
X161640444Y-101572268D01*
X161640449Y-101572272D01*
X161680771Y-101594797D01*
X161729697Y-101644677D01*
X161743889Y-101713090D01*
X161718841Y-101778316D01*
X161689734Y-101805786D01*
X161546576Y-101902544D01*
X161378152Y-102063966D01*
X161378151Y-102063967D01*
X161239431Y-102251528D01*
X161215062Y-102299861D01*
X161158089Y-102412862D01*
X161145239Y-102438348D01*
X161097480Y-102489348D01*
X161034516Y-102506523D01*
X150083448Y-102506523D01*
X150016409Y-102486838D01*
X149977858Y-102447537D01*
X149966407Y-102428940D01*
X149896949Y-102316132D01*
X149742818Y-102141005D01*
X149742816Y-102141003D01*
X149742813Y-102141000D01*
X149561313Y-101994449D01*
X149561302Y-101994442D01*
X149520984Y-101971918D01*
X149472058Y-101922038D01*
X149457866Y-101853625D01*
X149482914Y-101788399D01*
X149512018Y-101760933D01*
X149655175Y-101664176D01*
X149823603Y-101502751D01*
X149962327Y-101315184D01*
X150067357Y-101106870D01*
X150135670Y-100883803D01*
X150165303Y-100652399D01*
X150163903Y-100619456D01*
X150160119Y-100530373D01*
X150155401Y-100419316D01*
X150106251Y-100191258D01*
X150019266Y-99974788D01*
X149896949Y-99776132D01*
X149742818Y-99601005D01*
X149742816Y-99601003D01*
X149742813Y-99601000D01*
X149561313Y-99454449D01*
X149561307Y-99454444D01*
X149357641Y-99340669D01*
X149137678Y-99262952D01*
X149137673Y-99262950D01*
X149137671Y-99262950D01*
X149137667Y-99262949D01*
X149137666Y-99262949D01*
X148907742Y-99223523D01*
X148907734Y-99223523D01*
X148282871Y-99223523D01*
X148282850Y-99223523D01*
X148156117Y-99234310D01*
X148087650Y-99220382D01*
X148057921Y-99198438D01*
X143293318Y-94433835D01*
X143259833Y-94372512D01*
X143264817Y-94302820D01*
X143293318Y-94258473D01*
X143339600Y-94212191D01*
X143388190Y-94163601D01*
X143480292Y-94014279D01*
X143535477Y-93847742D01*
X143545978Y-93744954D01*
X143545977Y-93083224D01*
X143565661Y-93016186D01*
X143582291Y-92995549D01*
X156773651Y-79804190D01*
X156834972Y-79770707D01*
X156904664Y-79775691D01*
X156960597Y-79817563D01*
X156985014Y-79883027D01*
X156985330Y-79891873D01*
X156985330Y-86805421D01*
X156965645Y-86872460D01*
X156949011Y-86893102D01*
X152263885Y-91578227D01*
X152202562Y-91611712D01*
X152176204Y-91614546D01*
X151501985Y-91614546D01*
X151501967Y-91614547D01*
X151399190Y-91625046D01*
X151399187Y-91625047D01*
X151232655Y-91680231D01*
X151232650Y-91680233D01*
X151083329Y-91772335D01*
X150959276Y-91896388D01*
X150867174Y-92045709D01*
X150867172Y-92045714D01*
X150867102Y-92045926D01*
X150811988Y-92212249D01*
X150811988Y-92212250D01*
X150811987Y-92212250D01*
X150801487Y-92315029D01*
X150801487Y-93365047D01*
X150801488Y-93365065D01*
X150811987Y-93467842D01*
X150811988Y-93467845D01*
X150867172Y-93634377D01*
X150867174Y-93634382D01*
X150891643Y-93674053D01*
X150959275Y-93783702D01*
X151083331Y-93907758D01*
X151232653Y-93999860D01*
X151399190Y-94055045D01*
X151501978Y-94065546D01*
X152276995Y-94065545D01*
X152277003Y-94065544D01*
X152277006Y-94065544D01*
X152333289Y-94059794D01*
X152379784Y-94055045D01*
X152546321Y-93999860D01*
X152695643Y-93907758D01*
X152819699Y-93783702D01*
X152821739Y-93780393D01*
X152823732Y-93778601D01*
X152824180Y-93778035D01*
X152824276Y-93778111D01*
X152873681Y-93733669D01*
X152942643Y-93722441D01*
X153006727Y-93750280D01*
X153032816Y-93780385D01*
X153034668Y-93783387D01*
X153034670Y-93783390D01*
X153158641Y-93907361D01*
X153307862Y-93999402D01*
X153307867Y-93999404D01*
X153474289Y-94054551D01*
X153474296Y-94054552D01*
X153577006Y-94065045D01*
X153714486Y-94065045D01*
X153714487Y-94065044D01*
X153714487Y-93090046D01*
X154214487Y-93090046D01*
X154214487Y-94065045D01*
X154351959Y-94065045D01*
X154351973Y-94065044D01*
X154454684Y-94054551D01*
X154621106Y-93999404D01*
X154621111Y-93999402D01*
X154770332Y-93907361D01*
X154894302Y-93783391D01*
X154986343Y-93634170D01*
X154986345Y-93634165D01*
X155041492Y-93467743D01*
X155041493Y-93467736D01*
X155051986Y-93365032D01*
X155051987Y-93365019D01*
X155051987Y-93090046D01*
X154214487Y-93090046D01*
X153714487Y-93090046D01*
X153714487Y-92714046D01*
X153734172Y-92647007D01*
X153786976Y-92601252D01*
X153838487Y-92590046D01*
X155051986Y-92590046D01*
X155051986Y-92315074D01*
X155051985Y-92315059D01*
X155041492Y-92212348D01*
X154986345Y-92045926D01*
X154986343Y-92045921D01*
X154894302Y-91896700D01*
X154770332Y-91772730D01*
X154621111Y-91680689D01*
X154621106Y-91680687D01*
X154454684Y-91625540D01*
X154454677Y-91625539D01*
X154351973Y-91615046D01*
X154301266Y-91615046D01*
X154234227Y-91595361D01*
X154188472Y-91542557D01*
X154178528Y-91473399D01*
X154207553Y-91409843D01*
X154213571Y-91403379D01*
X157997873Y-87619077D01*
X158010155Y-87609240D01*
X158009974Y-87609021D01*
X158015987Y-87604045D01*
X158015992Y-87604043D01*
X158062214Y-87554819D01*
X158064863Y-87552087D01*
X158084453Y-87532499D01*
X158086926Y-87529309D01*
X158094512Y-87520425D01*
X158124523Y-87488470D01*
X158134219Y-87470831D01*
X158144903Y-87454564D01*
X158157238Y-87438665D01*
X158174647Y-87398431D01*
X158179785Y-87387946D01*
X158200899Y-87349543D01*
X158200899Y-87349541D01*
X158200902Y-87349537D01*
X158205908Y-87330037D01*
X158212212Y-87311627D01*
X158220203Y-87293162D01*
X158224397Y-87266680D01*
X158227060Y-87249869D01*
X158229426Y-87238440D01*
X158240330Y-87195975D01*
X158240330Y-87175838D01*
X158241857Y-87156438D01*
X158245004Y-87136570D01*
X158240880Y-87092941D01*
X158240330Y-87081272D01*
X158240330Y-78136728D01*
X158241857Y-78117328D01*
X158245004Y-78097460D01*
X158240880Y-78053831D01*
X158240330Y-78042162D01*
X158240330Y-77666347D01*
X158260015Y-77599308D01*
X158312819Y-77553553D01*
X158381977Y-77543609D01*
X158445533Y-77572634D01*
G37*
%TD.AperFunction*%
%TA.AperFunction,Conductor*%
G36*
X156577330Y-75763066D02*
G01*
X156557645Y-75830105D01*
X156504841Y-75875860D01*
X156453330Y-75887066D01*
X156232330Y-75887066D01*
X156165291Y-75867381D01*
X156119536Y-75814577D01*
X156108330Y-75763066D01*
X156108329Y-75675662D01*
X156134812Y-75757165D01*
X156201645Y-75831391D01*
X156292890Y-75872016D01*
X156367525Y-75872016D01*
X156440528Y-75856499D01*
X156521333Y-75797791D01*
X156571273Y-75711292D01*
X156577330Y-75653661D01*
X156577330Y-75763066D01*
G37*
%TD.AperFunction*%
%TD*%
M02*
