%TF.GenerationSoftware,KiCad,Pcbnew,7.0.10*%
%TF.CreationDate,2024-03-26T17:38:47-05:00*%
%TF.ProjectId,smart_helmet,736d6172-745f-4686-956c-6d65742e6b69,rev?*%
%TF.SameCoordinates,Original*%
%TF.FileFunction,Copper,L2,Bot*%
%TF.FilePolarity,Positive*%
%FSLAX46Y46*%
G04 Gerber Fmt 4.6, Leading zero omitted, Abs format (unit mm)*
G04 Created by KiCad (PCBNEW 7.0.10) date 2024-03-26 17:38:47*
%MOMM*%
%LPD*%
G01*
G04 APERTURE LIST*
G04 Aperture macros list*
%AMRoundRect*
0 Rectangle with rounded corners*
0 $1 Rounding radius*
0 $2 $3 $4 $5 $6 $7 $8 $9 X,Y pos of 4 corners*
0 Add a 4 corners polygon primitive as box body*
4,1,4,$2,$3,$4,$5,$6,$7,$8,$9,$2,$3,0*
0 Add four circle primitives for the rounded corners*
1,1,$1+$1,$2,$3*
1,1,$1+$1,$4,$5*
1,1,$1+$1,$6,$7*
1,1,$1+$1,$8,$9*
0 Add four rect primitives between the rounded corners*
20,1,$1+$1,$2,$3,$4,$5,0*
20,1,$1+$1,$4,$5,$6,$7,0*
20,1,$1+$1,$6,$7,$8,$9,0*
20,1,$1+$1,$8,$9,$2,$3,0*%
G04 Aperture macros list end*
%TA.AperFunction,ComponentPad*%
%ADD10RoundRect,0.250000X0.845000X-0.620000X0.845000X0.620000X-0.845000X0.620000X-0.845000X-0.620000X0*%
%TD*%
%TA.AperFunction,ComponentPad*%
%ADD11O,2.190000X1.740000*%
%TD*%
%TA.AperFunction,ComponentPad*%
%ADD12RoundRect,0.250000X-0.620000X-0.845000X0.620000X-0.845000X0.620000X0.845000X-0.620000X0.845000X0*%
%TD*%
%TA.AperFunction,ComponentPad*%
%ADD13O,1.740000X2.190000*%
%TD*%
%TA.AperFunction,ComponentPad*%
%ADD14R,1.070000X1.500000*%
%TD*%
%TA.AperFunction,ComponentPad*%
%ADD15O,1.070000X1.500000*%
%TD*%
%TA.AperFunction,ComponentPad*%
%ADD16O,1.016000X1.778000*%
%TD*%
%TA.AperFunction,ComponentPad*%
%ADD17O,1.250000X0.950000*%
%TD*%
%TA.AperFunction,ViaPad*%
%ADD18C,1.041400*%
%TD*%
%TA.AperFunction,Conductor*%
%ADD19C,0.254000*%
%TD*%
G04 APERTURE END LIST*
D10*
%TO.P,SensorConn3,1,Pin_1*%
%TO.N,GND*%
X162635669Y-113132694D03*
D11*
%TO.P,SensorConn3,2,Pin_2*%
X162635669Y-110592694D03*
%TO.P,SensorConn3,3,Pin_3*%
%TO.N,/GPIO7*%
X162635669Y-108052694D03*
%TO.P,SensorConn3,4,Pin_4*%
%TO.N,/CAMERA_SCL*%
X162635669Y-105512694D03*
%TO.P,SensorConn3,5,Pin_5*%
%TO.N,/CAMERA_SDA*%
X162635669Y-102972694D03*
%TO.P,SensorConn3,6,Pin_6*%
%TO.N,+3V3*%
X162635669Y-100432694D03*
%TD*%
D10*
%TO.P,Injector1,1,Pin_1*%
%TO.N,GND*%
X135243207Y-61213213D03*
D11*
%TO.P,Injector1,2,Pin_2*%
%TO.N,Net-(BuckConv1-Pin_1)*%
X135243207Y-58673213D03*
%TD*%
D10*
%TO.P,SensorConn1,1,Pin_1*%
%TO.N,GND*%
X135293817Y-113581960D03*
D11*
%TO.P,SensorConn1,2,Pin_2*%
X135293817Y-111041960D03*
%TO.P,SensorConn1,3,Pin_3*%
%TO.N,/GPIO5*%
X135293817Y-108501960D03*
%TO.P,SensorConn1,4,Pin_4*%
%TO.N,/CAMERA_SCL*%
X135293817Y-105961960D03*
%TO.P,SensorConn1,5,Pin_5*%
%TO.N,/CAMERA_SDA*%
X135293817Y-103421960D03*
%TO.P,SensorConn1,6,Pin_6*%
%TO.N,+3V3*%
X135293817Y-100881960D03*
%TD*%
D10*
%TO.P,SensorConn2,1,Pin_1*%
%TO.N,GND*%
X148566087Y-113294023D03*
D11*
%TO.P,SensorConn2,2,Pin_2*%
X148566087Y-110754023D03*
%TO.P,SensorConn2,3,Pin_3*%
%TO.N,/GPIO6*%
X148566087Y-108214023D03*
%TO.P,SensorConn2,4,Pin_4*%
%TO.N,/CAMERA_SCL*%
X148566087Y-105674023D03*
%TO.P,SensorConn2,5,Pin_5*%
%TO.N,/CAMERA_SDA*%
X148566087Y-103134023D03*
%TO.P,SensorConn2,6,Pin_6*%
%TO.N,+3V3*%
X148566087Y-100594023D03*
%TD*%
D12*
%TO.P,BuckConv1,1,Pin_1*%
%TO.N,Net-(BuckConv1-Pin_1)*%
X155436600Y-59745523D03*
D13*
%TO.P,BuckConv1,2,Pin_2*%
%TO.N,GND*%
X157976600Y-59745523D03*
%TO.P,BuckConv1,3,Pin_3*%
%TO.N,Net-(BuckConv1-Pin_3)*%
X160516600Y-59745523D03*
%TO.P,BuckConv1,4,Pin_4*%
%TO.N,GND*%
X163056600Y-59745523D03*
%TD*%
D14*
%TO.P,U4,1,VI*%
%TO.N,Net-(BuckConv1-Pin_3)*%
X155072830Y-75637066D03*
D15*
%TO.P,U4,2,GND*%
%TO.N,GND*%
X156342830Y-75637066D03*
%TO.P,U4,3,VO*%
%TO.N,+3V3*%
X157612830Y-75637066D03*
%TD*%
D16*
%TO.P,J1,6,Shield*%
%TO.N,unconnected-(J1-Shield-Pad6)*%
X220685347Y-55734667D03*
D17*
X219685347Y-58434667D03*
X214685347Y-58434667D03*
D16*
X213685347Y-55734667D03*
%TD*%
D18*
%TO.N,GND*%
X169164000Y-77724000D03*
X194818000Y-114046000D03*
X155956000Y-98044000D03*
%TO.N,/CHIP_PU*%
X206603408Y-93486600D03*
X192175044Y-71856558D03*
%TO.N,/D+*%
X215221881Y-88627896D03*
X184639752Y-88577885D03*
%TO.N,/D-*%
X218572662Y-89753159D03*
X181964129Y-89228036D03*
%TO.N,/RTS*%
X210295733Y-91170156D03*
X221481674Y-95904593D03*
%TO.N,Net-(Q1-C)*%
X204861133Y-95171088D03*
X208728701Y-99188692D03*
%TO.N,/CAMERA_SCL*%
X140785020Y-104777894D03*
X209607414Y-78888785D03*
X172273711Y-105620016D03*
X140735008Y-98343061D03*
%TO.N,/CAMERA_SDA*%
X172148682Y-103019410D03*
X210807694Y-80364129D03*
%TO.N,/GPIO46_STRAPPING*%
X181900955Y-93698158D03*
X191878281Y-92647913D03*
%TO.N,/GPIO3_STRAPPING*%
X188377465Y-109076742D03*
X171898624Y-109376812D03*
%TO.N,/GPIO5*%
X141664478Y-108639122D03*
X183174154Y-79407308D03*
%TO.N,/GPIO6*%
X154975600Y-108201538D03*
X181781848Y-83320739D03*
%TO.N,/GPIO7*%
X185696779Y-82212085D03*
X168526110Y-108084782D03*
%TD*%
D19*
%TO.N,/CAMERA_SCL*%
X225961227Y-78588715D02*
X209907484Y-78588715D01*
X226695000Y-104786219D02*
X226695000Y-79322488D01*
X209907484Y-78588715D02*
X209607414Y-78888785D01*
X225861203Y-105620016D02*
X226695000Y-104786219D01*
X226695000Y-79322488D02*
X225961227Y-78588715D01*
X172273711Y-105620016D02*
X225861203Y-105620016D01*
%TO.N,/CAMERA_SDA*%
X210882711Y-80439146D02*
X210807694Y-80364129D01*
X224535894Y-80439146D02*
X210882711Y-80439146D01*
X226060000Y-81963252D02*
X224535894Y-80439146D01*
X226060000Y-102235000D02*
X226060000Y-81963252D01*
X225275590Y-103019410D02*
X226060000Y-102235000D01*
X172148682Y-103019410D02*
X225275590Y-103019410D01*
%TO.N,/CHIP_PU*%
X192175044Y-76932649D02*
X181053255Y-88054438D01*
X206578402Y-93511606D02*
X206603408Y-93486600D01*
X181053255Y-88054438D02*
X181053255Y-94049287D01*
X181549826Y-94545858D02*
X190622389Y-94545858D01*
X181053255Y-94049287D02*
X181549826Y-94545858D01*
X191656641Y-93511606D02*
X206578402Y-93511606D01*
X190622389Y-94545858D02*
X191656641Y-93511606D01*
X192175044Y-71856558D02*
X192175044Y-76932649D01*
%TO.N,/D+*%
X184689763Y-88627896D02*
X184639752Y-88577885D01*
X215221881Y-88627896D02*
X184689763Y-88627896D01*
%TO.N,/D-*%
X218572662Y-89753159D02*
X182489252Y-89753159D01*
X182489252Y-89753159D02*
X181964129Y-89228036D01*
%TO.N,/RTS*%
X209478875Y-91170156D02*
X210295733Y-91170156D01*
X210262392Y-95904593D02*
X209145465Y-94787666D01*
X209145465Y-91503566D02*
X209228817Y-91420214D01*
X221481674Y-95904593D02*
X210262392Y-95904593D01*
X209228817Y-91420214D02*
X209478875Y-91170156D01*
X209145465Y-94787666D02*
X209145465Y-91503566D01*
%TO.N,Net-(Q1-C)*%
X204861133Y-95321124D02*
X204861133Y-95171088D01*
X208728701Y-99188692D02*
X204861133Y-95321124D01*
%TO.N,/CAMERA_SCL*%
X140735008Y-98343061D02*
X140735008Y-104727882D01*
X140735008Y-104727882D02*
X140785020Y-104777894D01*
%TO.N,/GPIO46_STRAPPING*%
X181900955Y-93698158D02*
X190828036Y-93698158D01*
X190828036Y-93698158D02*
X191878281Y-92647913D01*
%TO.N,/GPIO3_STRAPPING*%
X188077395Y-109376812D02*
X188377465Y-109076742D01*
X171898624Y-109376812D02*
X188077395Y-109376812D01*
%TO.N,/GPIO5*%
X145826577Y-104477023D02*
X153512314Y-104477023D01*
X141664478Y-108639122D02*
X145826577Y-104477023D01*
X153512314Y-104477023D02*
X178582029Y-79407308D01*
X178582029Y-79407308D02*
X183174154Y-79407308D01*
%TO.N,/GPIO6*%
X154975600Y-108201538D02*
X154975600Y-106174949D01*
X154975600Y-106174949D02*
X177829810Y-83320739D01*
X177829810Y-83320739D02*
X181781848Y-83320739D01*
%TO.N,/GPIO7*%
X168526110Y-108084782D02*
X168526110Y-99382754D01*
X168526110Y-99382754D02*
X185696779Y-82212085D01*
%TD*%
%TA.AperFunction,Conductor*%
%TO.N,GND*%
G36*
X135543817Y-113094841D02*
G01*
X135513429Y-113076362D01*
X135368877Y-113035860D01*
X135256464Y-113035860D01*
X135145096Y-113051167D01*
X135043817Y-113095158D01*
X135043817Y-111529078D01*
X135074205Y-111547558D01*
X135218757Y-111588060D01*
X135331170Y-111588060D01*
X135442538Y-111572753D01*
X135543817Y-111528761D01*
X135543817Y-113094841D01*
G37*
%TD.AperFunction*%
%TA.AperFunction,Conductor*%
G36*
X148816087Y-112806904D02*
G01*
X148785699Y-112788425D01*
X148641147Y-112747923D01*
X148528734Y-112747923D01*
X148417366Y-112763230D01*
X148316087Y-112807221D01*
X148316087Y-111241141D01*
X148346475Y-111259621D01*
X148491027Y-111300123D01*
X148603440Y-111300123D01*
X148714808Y-111284816D01*
X148816087Y-111240824D01*
X148816087Y-112806904D01*
G37*
%TD.AperFunction*%
%TA.AperFunction,Conductor*%
G36*
X162885669Y-112645575D02*
G01*
X162855281Y-112627096D01*
X162710729Y-112586594D01*
X162598316Y-112586594D01*
X162486948Y-112601901D01*
X162385669Y-112645892D01*
X162385669Y-111079812D01*
X162416057Y-111098292D01*
X162560609Y-111138794D01*
X162673022Y-111138794D01*
X162784390Y-111123487D01*
X162885669Y-111079495D01*
X162885669Y-112645575D01*
G37*
%TD.AperFunction*%
%TA.AperFunction,Conductor*%
G36*
X227607540Y-51120184D02*
G01*
X227653295Y-51172988D01*
X227664501Y-51224499D01*
X227664501Y-125940501D01*
X227644816Y-126007540D01*
X227592012Y-126053295D01*
X227540501Y-126064501D01*
X129964499Y-126064501D01*
X129897460Y-126044816D01*
X129851705Y-125992012D01*
X129840499Y-125940501D01*
X129840499Y-108443584D01*
X133694601Y-108443584D01*
X133704502Y-108676660D01*
X133704503Y-108676669D01*
X133753653Y-108904726D01*
X133753654Y-108904729D01*
X133810308Y-109045716D01*
X133840638Y-109121195D01*
X133962955Y-109319851D01*
X134114750Y-109492324D01*
X134117087Y-109494979D01*
X134117090Y-109494982D01*
X134298590Y-109641533D01*
X134298596Y-109641538D01*
X134339407Y-109664336D01*
X134388334Y-109714216D01*
X134402526Y-109782629D01*
X134377478Y-109847855D01*
X134348370Y-109875325D01*
X134205045Y-109972195D01*
X134036677Y-110133563D01*
X134036676Y-110133564D01*
X133898006Y-110321057D01*
X133793013Y-110529298D01*
X133724723Y-110752289D01*
X133719643Y-110791959D01*
X133719644Y-110791960D01*
X134803104Y-110791960D01*
X134754113Y-110929808D01*
X134743868Y-111079578D01*
X134774411Y-111226557D01*
X134808300Y-111291960D01*
X133721241Y-111291960D01*
X133754133Y-111444579D01*
X133754133Y-111444580D01*
X133841084Y-111660965D01*
X133963358Y-111859552D01*
X134117433Y-112034615D01*
X134158048Y-112067409D01*
X134197841Y-112124840D01*
X134200268Y-112194668D01*
X134164557Y-112254722D01*
X134132562Y-112276264D01*
X134129703Y-112277596D01*
X133980471Y-112369644D01*
X133856501Y-112493614D01*
X133764460Y-112642835D01*
X133764458Y-112642840D01*
X133709311Y-112809262D01*
X133709310Y-112809269D01*
X133698817Y-112911973D01*
X133698817Y-113331960D01*
X134803104Y-113331960D01*
X134754113Y-113469808D01*
X134743868Y-113619578D01*
X134774411Y-113766557D01*
X134808300Y-113831960D01*
X133698818Y-113831960D01*
X133698818Y-114251946D01*
X133709311Y-114354657D01*
X133764458Y-114521079D01*
X133764460Y-114521084D01*
X133856501Y-114670305D01*
X133980471Y-114794275D01*
X134129692Y-114886316D01*
X134129697Y-114886318D01*
X134296119Y-114941465D01*
X134296126Y-114941466D01*
X134398836Y-114951959D01*
X135043816Y-114951959D01*
X135043817Y-114951958D01*
X135043817Y-114069078D01*
X135074205Y-114087558D01*
X135218757Y-114128060D01*
X135331170Y-114128060D01*
X135442538Y-114112753D01*
X135543817Y-114068761D01*
X135543817Y-114951959D01*
X136188789Y-114951959D01*
X136188803Y-114951958D01*
X136291514Y-114941465D01*
X136457936Y-114886318D01*
X136457941Y-114886316D01*
X136607162Y-114794275D01*
X136731132Y-114670305D01*
X136823173Y-114521084D01*
X136823175Y-114521079D01*
X136878322Y-114354657D01*
X136878323Y-114354650D01*
X136888816Y-114251946D01*
X136888817Y-114251933D01*
X136888817Y-113831960D01*
X135784530Y-113831960D01*
X135833521Y-113694112D01*
X135843766Y-113544342D01*
X135813223Y-113397363D01*
X135779334Y-113331960D01*
X136888816Y-113331960D01*
X136888816Y-112911988D01*
X136888815Y-112911973D01*
X136878322Y-112809262D01*
X136823175Y-112642840D01*
X136823173Y-112642835D01*
X136731132Y-112493614D01*
X136607162Y-112369644D01*
X136457935Y-112277600D01*
X136455001Y-112276232D01*
X136453326Y-112274757D01*
X136451792Y-112273811D01*
X136451953Y-112273548D01*
X136402562Y-112230060D01*
X136383410Y-112162866D01*
X136403626Y-112095985D01*
X136421606Y-112074327D01*
X136550956Y-111950355D01*
X136550957Y-111950355D01*
X136689627Y-111762862D01*
X136794620Y-111554621D01*
X136862910Y-111331630D01*
X136867990Y-111291960D01*
X135784530Y-111291960D01*
X135833521Y-111154112D01*
X135843766Y-111004342D01*
X135813223Y-110857363D01*
X135779334Y-110791960D01*
X136866393Y-110791960D01*
X136866392Y-110791959D01*
X136833500Y-110639340D01*
X136833500Y-110639339D01*
X136746549Y-110422954D01*
X136624275Y-110224367D01*
X136470199Y-110049303D01*
X136470195Y-110049299D01*
X136288762Y-109902802D01*
X136288752Y-109902795D01*
X136248250Y-109880169D01*
X136199324Y-109830289D01*
X136185132Y-109761876D01*
X136210180Y-109696651D01*
X136239286Y-109669182D01*
X136382905Y-109572113D01*
X136551333Y-109410688D01*
X136690057Y-109223121D01*
X136795087Y-109014807D01*
X136863400Y-108791740D01*
X136882944Y-108639122D01*
X140638337Y-108639122D01*
X140658053Y-108839310D01*
X140669351Y-108876553D01*
X140716447Y-109031809D01*
X140810603Y-109207962D01*
X140811275Y-109209218D01*
X140938886Y-109364713D01*
X141066486Y-109469431D01*
X141094385Y-109492327D01*
X141271791Y-109587153D01*
X141464288Y-109645546D01*
X141664478Y-109665263D01*
X141864668Y-109645546D01*
X142057165Y-109587153D01*
X142234571Y-109492327D01*
X142390069Y-109364713D01*
X142517683Y-109209215D01*
X142612509Y-109031809D01*
X142670902Y-108839312D01*
X142690619Y-108639122D01*
X142683929Y-108571200D01*
X142696948Y-108502556D01*
X142719648Y-108471369D01*
X146050177Y-105140842D01*
X146111500Y-105107357D01*
X146137858Y-105104523D01*
X146914508Y-105104523D01*
X146981547Y-105124208D01*
X147027302Y-105177012D01*
X147037246Y-105246170D01*
X147033073Y-105264828D01*
X147028876Y-105278537D01*
X146996503Y-105384246D01*
X146966871Y-105615647D01*
X146976772Y-105848723D01*
X146976773Y-105848732D01*
X147025923Y-106076789D01*
X147025924Y-106076792D01*
X147112906Y-106293254D01*
X147112908Y-106293258D01*
X147235225Y-106491914D01*
X147315256Y-106582847D01*
X147389357Y-106667042D01*
X147389360Y-106667045D01*
X147570860Y-106813596D01*
X147570862Y-106813597D01*
X147570867Y-106813601D01*
X147611189Y-106836126D01*
X147660115Y-106886006D01*
X147674307Y-106954419D01*
X147649259Y-107019645D01*
X147620152Y-107047115D01*
X147476994Y-107143873D01*
X147308570Y-107305295D01*
X147308569Y-107305296D01*
X147169849Y-107492857D01*
X147064820Y-107701170D01*
X147064817Y-107701176D01*
X146996503Y-107924246D01*
X146966871Y-108155647D01*
X146976772Y-108388723D01*
X146976773Y-108388732D01*
X147025923Y-108616789D01*
X147025924Y-108616792D01*
X147103712Y-108810373D01*
X147112908Y-108833258D01*
X147235225Y-109031914D01*
X147362584Y-109176622D01*
X147389357Y-109207042D01*
X147389360Y-109207045D01*
X147570860Y-109353596D01*
X147570866Y-109353601D01*
X147611677Y-109376399D01*
X147660604Y-109426279D01*
X147674796Y-109494692D01*
X147649748Y-109559918D01*
X147620640Y-109587388D01*
X147477315Y-109684258D01*
X147308947Y-109845626D01*
X147308946Y-109845627D01*
X147170276Y-110033120D01*
X147065283Y-110241361D01*
X146996993Y-110464352D01*
X146991913Y-110504022D01*
X146991914Y-110504023D01*
X148075374Y-110504023D01*
X148026383Y-110641871D01*
X148016138Y-110791641D01*
X148046681Y-110938620D01*
X148080570Y-111004023D01*
X146993511Y-111004023D01*
X147026403Y-111156642D01*
X147026403Y-111156643D01*
X147113354Y-111373028D01*
X147235628Y-111571615D01*
X147389703Y-111746678D01*
X147430318Y-111779472D01*
X147470111Y-111836903D01*
X147472538Y-111906731D01*
X147436827Y-111966785D01*
X147404832Y-111988327D01*
X147401973Y-111989659D01*
X147252741Y-112081707D01*
X147128771Y-112205677D01*
X147036730Y-112354898D01*
X147036728Y-112354903D01*
X146981581Y-112521325D01*
X146981580Y-112521332D01*
X146971087Y-112624036D01*
X146971087Y-113044023D01*
X148075374Y-113044023D01*
X148026383Y-113181871D01*
X148016138Y-113331641D01*
X148046681Y-113478620D01*
X148080570Y-113544023D01*
X146971088Y-113544023D01*
X146971088Y-113964009D01*
X146981581Y-114066720D01*
X147036728Y-114233142D01*
X147036730Y-114233147D01*
X147128771Y-114382368D01*
X147252741Y-114506338D01*
X147401962Y-114598379D01*
X147401967Y-114598381D01*
X147568389Y-114653528D01*
X147568396Y-114653529D01*
X147671106Y-114664022D01*
X148316086Y-114664022D01*
X148316087Y-114664021D01*
X148316087Y-113781141D01*
X148346475Y-113799621D01*
X148491027Y-113840123D01*
X148603440Y-113840123D01*
X148714808Y-113824816D01*
X148816087Y-113780824D01*
X148816087Y-114664022D01*
X149461059Y-114664022D01*
X149461073Y-114664021D01*
X149563784Y-114653528D01*
X149730206Y-114598381D01*
X149730211Y-114598379D01*
X149879432Y-114506338D01*
X150003402Y-114382368D01*
X150095443Y-114233147D01*
X150095445Y-114233142D01*
X150150592Y-114066720D01*
X150150593Y-114066713D01*
X150161086Y-113964009D01*
X150161087Y-113963996D01*
X150161087Y-113544023D01*
X149056800Y-113544023D01*
X149105791Y-113406175D01*
X149116036Y-113256405D01*
X149085493Y-113109426D01*
X149051604Y-113044023D01*
X150161086Y-113044023D01*
X150161086Y-112624051D01*
X150161085Y-112624036D01*
X150150592Y-112521325D01*
X150095445Y-112354903D01*
X150095443Y-112354898D01*
X150003402Y-112205677D01*
X149879432Y-112081707D01*
X149730205Y-111989663D01*
X149727271Y-111988295D01*
X149725596Y-111986820D01*
X149724062Y-111985874D01*
X149724223Y-111985611D01*
X149674832Y-111942123D01*
X149655680Y-111874929D01*
X149675896Y-111808048D01*
X149693876Y-111786390D01*
X149823226Y-111662418D01*
X149823227Y-111662418D01*
X149961897Y-111474925D01*
X150066890Y-111266684D01*
X150135180Y-111043693D01*
X150140260Y-111004023D01*
X149056800Y-111004023D01*
X149105791Y-110866175D01*
X149116036Y-110716405D01*
X149085493Y-110569426D01*
X149051604Y-110504023D01*
X150138663Y-110504023D01*
X150138662Y-110504022D01*
X150105770Y-110351403D01*
X150105770Y-110351402D01*
X150018819Y-110135017D01*
X149896545Y-109936430D01*
X149742469Y-109761366D01*
X149742465Y-109761362D01*
X149561032Y-109614865D01*
X149561022Y-109614858D01*
X149520520Y-109592232D01*
X149471594Y-109542352D01*
X149457402Y-109473939D01*
X149482450Y-109408714D01*
X149511556Y-109381245D01*
X149655175Y-109284176D01*
X149823603Y-109122751D01*
X149962327Y-108935184D01*
X150067357Y-108726870D01*
X150135670Y-108503803D01*
X150165303Y-108272399D01*
X150163391Y-108227403D01*
X150162292Y-108201538D01*
X153949459Y-108201538D01*
X153969175Y-108401726D01*
X153980462Y-108438933D01*
X154027569Y-108594225D01*
X154110465Y-108749312D01*
X154122397Y-108771634D01*
X154250008Y-108927129D01*
X154405503Y-109054740D01*
X154405507Y-109054743D01*
X154582913Y-109149569D01*
X154775410Y-109207962D01*
X154975600Y-109227679D01*
X155175790Y-109207962D01*
X155368287Y-109149569D01*
X155545693Y-109054743D01*
X155701191Y-108927129D01*
X155828805Y-108771631D01*
X155923631Y-108594225D01*
X155982024Y-108401728D01*
X156001741Y-108201538D01*
X155982024Y-108001348D01*
X155923631Y-107808851D01*
X155828805Y-107631445D01*
X155798724Y-107594791D01*
X155701193Y-107475949D01*
X155648435Y-107432651D01*
X155609101Y-107374905D01*
X155603100Y-107336798D01*
X155603100Y-106486229D01*
X155622785Y-106419190D01*
X155639414Y-106398553D01*
X160996647Y-101041319D01*
X161057968Y-101007836D01*
X161127660Y-101012820D01*
X161183593Y-101054692D01*
X161189905Y-101063972D01*
X161304807Y-101250585D01*
X161446794Y-101411914D01*
X161458939Y-101425713D01*
X161458942Y-101425716D01*
X161640442Y-101572267D01*
X161640444Y-101572268D01*
X161640449Y-101572272D01*
X161680771Y-101594797D01*
X161729697Y-101644677D01*
X161743889Y-101713090D01*
X161718841Y-101778316D01*
X161689734Y-101805786D01*
X161546576Y-101902544D01*
X161378152Y-102063966D01*
X161378151Y-102063967D01*
X161239431Y-102251528D01*
X161134402Y-102459841D01*
X161134399Y-102459847D01*
X161066085Y-102682917D01*
X161036453Y-102914318D01*
X161046354Y-103147394D01*
X161046355Y-103147403D01*
X161095505Y-103375460D01*
X161095506Y-103375463D01*
X161181515Y-103589503D01*
X161182490Y-103591929D01*
X161304807Y-103790585D01*
X161449466Y-103954950D01*
X161458939Y-103965713D01*
X161458942Y-103965716D01*
X161640442Y-104112267D01*
X161640444Y-104112268D01*
X161640449Y-104112272D01*
X161680771Y-104134797D01*
X161729697Y-104184677D01*
X161743889Y-104253090D01*
X161718841Y-104318316D01*
X161689734Y-104345786D01*
X161546576Y-104442544D01*
X161378152Y-104603966D01*
X161378151Y-104603967D01*
X161239431Y-104791528D01*
X161134402Y-104999841D01*
X161134399Y-104999847D01*
X161066085Y-105222917D01*
X161036453Y-105454318D01*
X161046354Y-105687394D01*
X161046355Y-105687403D01*
X161095505Y-105915460D01*
X161095506Y-105915463D01*
X161179932Y-106125564D01*
X161182490Y-106131929D01*
X161304807Y-106330585D01*
X161446794Y-106491914D01*
X161458939Y-106505713D01*
X161458942Y-106505716D01*
X161640442Y-106652267D01*
X161640444Y-106652268D01*
X161640449Y-106652272D01*
X161680771Y-106674797D01*
X161729697Y-106724677D01*
X161743889Y-106793090D01*
X161718841Y-106858316D01*
X161689734Y-106885786D01*
X161546576Y-106982544D01*
X161378152Y-107143966D01*
X161378151Y-107143967D01*
X161239431Y-107331528D01*
X161134402Y-107539841D01*
X161134399Y-107539847D01*
X161066085Y-107762917D01*
X161036453Y-107994318D01*
X161046354Y-108227394D01*
X161046355Y-108227403D01*
X161095505Y-108455460D01*
X161095506Y-108455463D01*
X161175637Y-108654875D01*
X161182490Y-108671929D01*
X161304807Y-108870585D01*
X161458938Y-109045712D01*
X161458939Y-109045713D01*
X161458942Y-109045716D01*
X161640442Y-109192267D01*
X161640448Y-109192272D01*
X161681259Y-109215070D01*
X161730186Y-109264950D01*
X161744378Y-109333363D01*
X161719330Y-109398589D01*
X161690222Y-109426059D01*
X161546897Y-109522929D01*
X161378529Y-109684297D01*
X161378528Y-109684298D01*
X161239858Y-109871791D01*
X161134865Y-110080032D01*
X161066575Y-110303023D01*
X161061495Y-110342693D01*
X161061496Y-110342694D01*
X162144956Y-110342694D01*
X162095965Y-110480542D01*
X162085720Y-110630312D01*
X162116263Y-110777291D01*
X162150152Y-110842694D01*
X161063093Y-110842694D01*
X161095985Y-110995313D01*
X161095985Y-110995314D01*
X161182936Y-111211699D01*
X161305210Y-111410286D01*
X161459285Y-111585349D01*
X161499900Y-111618143D01*
X161539693Y-111675574D01*
X161542120Y-111745402D01*
X161506409Y-111805456D01*
X161474414Y-111826998D01*
X161471555Y-111828330D01*
X161322323Y-111920378D01*
X161198353Y-112044348D01*
X161106312Y-112193569D01*
X161106310Y-112193574D01*
X161051163Y-112359996D01*
X161051162Y-112360003D01*
X161040669Y-112462707D01*
X161040669Y-112882694D01*
X162144956Y-112882694D01*
X162095965Y-113020542D01*
X162085720Y-113170312D01*
X162116263Y-113317291D01*
X162150152Y-113382694D01*
X161040670Y-113382694D01*
X161040670Y-113802680D01*
X161051163Y-113905391D01*
X161106310Y-114071813D01*
X161106312Y-114071818D01*
X161198353Y-114221039D01*
X161322323Y-114345009D01*
X161471544Y-114437050D01*
X161471549Y-114437052D01*
X161637971Y-114492199D01*
X161637978Y-114492200D01*
X161740688Y-114502693D01*
X162385668Y-114502693D01*
X162385669Y-114502692D01*
X162385669Y-113619812D01*
X162416057Y-113638292D01*
X162560609Y-113678794D01*
X162673022Y-113678794D01*
X162784390Y-113663487D01*
X162885669Y-113619495D01*
X162885669Y-114502693D01*
X163530641Y-114502693D01*
X163530655Y-114502692D01*
X163633366Y-114492199D01*
X163799788Y-114437052D01*
X163799793Y-114437050D01*
X163949014Y-114345009D01*
X164072984Y-114221039D01*
X164165025Y-114071818D01*
X164165027Y-114071813D01*
X164220174Y-113905391D01*
X164220175Y-113905384D01*
X164230668Y-113802680D01*
X164230669Y-113802667D01*
X164230669Y-113382694D01*
X163126382Y-113382694D01*
X163175373Y-113244846D01*
X163185618Y-113095076D01*
X163155075Y-112948097D01*
X163121186Y-112882694D01*
X164230668Y-112882694D01*
X164230668Y-112462722D01*
X164230667Y-112462707D01*
X164220174Y-112359996D01*
X164165027Y-112193574D01*
X164165025Y-112193569D01*
X164072984Y-112044348D01*
X163949014Y-111920378D01*
X163799787Y-111828334D01*
X163796853Y-111826966D01*
X163795178Y-111825491D01*
X163793644Y-111824545D01*
X163793805Y-111824282D01*
X163744414Y-111780794D01*
X163725262Y-111713600D01*
X163745478Y-111646719D01*
X163763458Y-111625061D01*
X163892808Y-111501089D01*
X163892809Y-111501089D01*
X164031479Y-111313596D01*
X164136472Y-111105355D01*
X164204762Y-110882364D01*
X164209842Y-110842694D01*
X163126382Y-110842694D01*
X163175373Y-110704846D01*
X163185618Y-110555076D01*
X163155075Y-110408097D01*
X163121186Y-110342694D01*
X164208245Y-110342694D01*
X164208244Y-110342693D01*
X164175352Y-110190074D01*
X164175352Y-110190073D01*
X164088401Y-109973688D01*
X163966127Y-109775101D01*
X163812051Y-109600037D01*
X163812047Y-109600033D01*
X163630614Y-109453536D01*
X163630604Y-109453529D01*
X163590102Y-109430903D01*
X163541176Y-109381023D01*
X163540302Y-109376812D01*
X170872483Y-109376812D01*
X170892199Y-109577000D01*
X170920162Y-109669181D01*
X170950593Y-109769499D01*
X171021845Y-109902802D01*
X171045421Y-109946908D01*
X171173032Y-110102403D01*
X171279859Y-110190073D01*
X171328531Y-110230017D01*
X171505937Y-110324843D01*
X171698434Y-110383236D01*
X171898624Y-110402953D01*
X172098814Y-110383236D01*
X172291311Y-110324843D01*
X172468717Y-110230017D01*
X172624215Y-110102403D01*
X172667510Y-110049648D01*
X172725256Y-110010313D01*
X172763364Y-110004312D01*
X187915438Y-110004312D01*
X187973893Y-110018955D01*
X187984778Y-110024773D01*
X188177275Y-110083166D01*
X188377465Y-110102883D01*
X188577655Y-110083166D01*
X188770152Y-110024773D01*
X188947558Y-109929947D01*
X189103056Y-109802333D01*
X189230670Y-109646835D01*
X189325496Y-109469429D01*
X189383889Y-109276932D01*
X189403606Y-109076742D01*
X189383889Y-108876552D01*
X189325496Y-108684055D01*
X189230670Y-108506649D01*
X189230667Y-108506645D01*
X189103056Y-108351150D01*
X188947561Y-108223539D01*
X188947559Y-108223538D01*
X188947558Y-108223537D01*
X188770152Y-108128711D01*
X188625337Y-108084782D01*
X188577653Y-108070317D01*
X188377465Y-108050601D01*
X188177276Y-108070317D01*
X187984775Y-108128712D01*
X187807368Y-108223539D01*
X187651873Y-108351150D01*
X187524262Y-108506645D01*
X187429588Y-108683766D01*
X187380625Y-108733610D01*
X187320230Y-108749312D01*
X172763364Y-108749312D01*
X172696325Y-108729627D01*
X172667510Y-108703976D01*
X172624214Y-108651220D01*
X172468720Y-108523609D01*
X172468718Y-108523608D01*
X172468717Y-108523607D01*
X172291311Y-108428781D01*
X172195062Y-108399584D01*
X172098812Y-108370387D01*
X171898624Y-108350671D01*
X171698435Y-108370387D01*
X171505934Y-108428782D01*
X171328527Y-108523609D01*
X171173032Y-108651220D01*
X171045421Y-108806715D01*
X170950594Y-108984122D01*
X170892199Y-109176623D01*
X170872483Y-109376812D01*
X163540302Y-109376812D01*
X163526984Y-109312610D01*
X163552032Y-109247385D01*
X163581138Y-109219916D01*
X163724757Y-109122847D01*
X163893185Y-108961422D01*
X164031909Y-108773855D01*
X164136939Y-108565541D01*
X164205252Y-108342474D01*
X164234885Y-108111070D01*
X164234380Y-108099193D01*
X164233768Y-108084782D01*
X167499969Y-108084782D01*
X167519685Y-108284970D01*
X167548882Y-108381220D01*
X167578079Y-108477469D01*
X167670951Y-108651220D01*
X167672907Y-108654878D01*
X167800518Y-108810373D01*
X167952606Y-108935188D01*
X167956017Y-108937987D01*
X168133423Y-109032813D01*
X168325920Y-109091206D01*
X168526110Y-109110923D01*
X168726300Y-109091206D01*
X168918797Y-109032813D01*
X169096203Y-108937987D01*
X169251701Y-108810373D01*
X169379315Y-108654875D01*
X169474141Y-108477469D01*
X169532534Y-108284972D01*
X169552251Y-108084782D01*
X169532534Y-107884592D01*
X169474141Y-107692095D01*
X169379315Y-107514689D01*
X169374597Y-107508940D01*
X169251703Y-107359193D01*
X169198945Y-107315895D01*
X169159611Y-107258149D01*
X169153610Y-107220042D01*
X169153610Y-103019410D01*
X171122541Y-103019410D01*
X171142257Y-103219598D01*
X171164558Y-103293114D01*
X171200651Y-103412097D01*
X171292890Y-103584664D01*
X171295479Y-103589506D01*
X171423090Y-103745001D01*
X171568590Y-103864409D01*
X171578589Y-103872615D01*
X171755995Y-103967441D01*
X171948492Y-104025834D01*
X172148682Y-104045551D01*
X172348872Y-104025834D01*
X172541369Y-103967441D01*
X172718775Y-103872615D01*
X172874273Y-103745001D01*
X172917568Y-103692246D01*
X172975314Y-103652911D01*
X173013422Y-103646910D01*
X225192623Y-103646910D01*
X225208271Y-103648637D01*
X225208298Y-103648356D01*
X225216065Y-103649090D01*
X225216066Y-103649089D01*
X225216067Y-103649090D01*
X225283509Y-103646971D01*
X225287403Y-103646910D01*
X225315062Y-103646910D01*
X225315066Y-103646910D01*
X225319064Y-103646404D01*
X225330704Y-103645487D01*
X225374533Y-103644111D01*
X225393862Y-103638494D01*
X225412918Y-103634547D01*
X225432883Y-103632026D01*
X225473645Y-103615886D01*
X225484682Y-103612108D01*
X225526781Y-103599878D01*
X225544105Y-103589631D01*
X225561573Y-103581073D01*
X225580293Y-103573663D01*
X225615767Y-103547888D01*
X225625505Y-103541491D01*
X225663246Y-103519173D01*
X225677487Y-103504930D01*
X225692268Y-103492307D01*
X225708557Y-103480473D01*
X225736494Y-103446700D01*
X225744336Y-103438081D01*
X225855821Y-103326596D01*
X225917142Y-103293114D01*
X225986834Y-103298098D01*
X226042767Y-103339970D01*
X226067184Y-103405434D01*
X226067500Y-103414280D01*
X226067500Y-104474938D01*
X226047815Y-104541977D01*
X226031181Y-104562619D01*
X225637603Y-104956197D01*
X225576280Y-104989682D01*
X225549922Y-104992516D01*
X173138451Y-104992516D01*
X173071412Y-104972831D01*
X173042597Y-104947180D01*
X172999301Y-104894424D01*
X172843807Y-104766813D01*
X172843805Y-104766812D01*
X172843804Y-104766811D01*
X172666398Y-104671985D01*
X172540990Y-104633943D01*
X172473899Y-104613591D01*
X172273711Y-104593875D01*
X172073522Y-104613591D01*
X171881021Y-104671986D01*
X171703614Y-104766813D01*
X171548119Y-104894424D01*
X171420508Y-105049919D01*
X171325681Y-105227326D01*
X171267286Y-105419827D01*
X171247570Y-105620016D01*
X171267286Y-105820204D01*
X171277231Y-105852987D01*
X171325680Y-106012703D01*
X171418777Y-106186875D01*
X171420508Y-106190112D01*
X171548119Y-106345607D01*
X171703614Y-106473218D01*
X171703618Y-106473221D01*
X171881024Y-106568047D01*
X172073521Y-106626440D01*
X172273711Y-106646157D01*
X172473901Y-106626440D01*
X172666398Y-106568047D01*
X172843804Y-106473221D01*
X172999302Y-106345607D01*
X173042597Y-106292852D01*
X173100343Y-106253517D01*
X173138451Y-106247516D01*
X225778236Y-106247516D01*
X225793884Y-106249243D01*
X225793911Y-106248962D01*
X225801678Y-106249696D01*
X225801679Y-106249695D01*
X225801680Y-106249696D01*
X225869122Y-106247577D01*
X225873016Y-106247516D01*
X225900675Y-106247516D01*
X225900679Y-106247516D01*
X225904677Y-106247010D01*
X225916317Y-106246093D01*
X225960146Y-106244717D01*
X225979475Y-106239100D01*
X225998531Y-106235153D01*
X226018496Y-106232632D01*
X226059258Y-106216492D01*
X226070295Y-106212714D01*
X226112394Y-106200484D01*
X226129718Y-106190237D01*
X226147186Y-106181679D01*
X226165906Y-106174269D01*
X226201380Y-106148494D01*
X226211118Y-106142097D01*
X226248859Y-106119779D01*
X226263100Y-106105536D01*
X226277881Y-106092913D01*
X226294170Y-106081079D01*
X226322107Y-106047306D01*
X226329959Y-106038677D01*
X227080043Y-105288593D01*
X227092325Y-105278756D01*
X227092144Y-105278537D01*
X227098157Y-105273561D01*
X227098162Y-105273559D01*
X227144384Y-105224335D01*
X227147033Y-105221603D01*
X227166623Y-105202015D01*
X227169096Y-105198825D01*
X227176682Y-105189941D01*
X227206693Y-105157986D01*
X227216389Y-105140347D01*
X227227073Y-105124080D01*
X227239408Y-105108181D01*
X227256822Y-105067937D01*
X227261944Y-105057481D01*
X227283072Y-105019053D01*
X227288076Y-104999557D01*
X227294378Y-104981152D01*
X227302374Y-104962678D01*
X227309231Y-104919373D01*
X227311594Y-104907963D01*
X227322500Y-104865491D01*
X227322500Y-104845360D01*
X227324027Y-104825960D01*
X227324594Y-104822379D01*
X227327175Y-104806086D01*
X227323050Y-104762449D01*
X227322500Y-104750780D01*
X227322500Y-79405452D01*
X227324228Y-79389801D01*
X227323946Y-79389775D01*
X227324680Y-79382012D01*
X227322561Y-79314569D01*
X227322500Y-79310675D01*
X227322500Y-79283018D01*
X227322500Y-79283012D01*
X227321993Y-79279007D01*
X227321077Y-79267359D01*
X227319701Y-79223546D01*
X227314082Y-79204206D01*
X227310139Y-79185173D01*
X227307616Y-79165195D01*
X227291481Y-79124443D01*
X227287698Y-79113395D01*
X227275468Y-79071297D01*
X227275467Y-79071295D01*
X227265225Y-79053977D01*
X227256662Y-79036499D01*
X227249253Y-79017785D01*
X227246952Y-79014618D01*
X227223485Y-78982320D01*
X227217073Y-78972557D01*
X227194765Y-78934835D01*
X227194759Y-78934827D01*
X227180531Y-78920600D01*
X227167896Y-78905808D01*
X227156063Y-78889521D01*
X227156060Y-78889519D01*
X227156060Y-78889518D01*
X227156058Y-78889516D01*
X227122287Y-78861578D01*
X227113647Y-78853716D01*
X226463603Y-78203672D01*
X226453758Y-78191383D01*
X226453540Y-78191564D01*
X226448567Y-78185553D01*
X226399380Y-78139363D01*
X226396581Y-78136650D01*
X226377024Y-78117092D01*
X226373834Y-78114618D01*
X226364943Y-78107025D01*
X226332995Y-78077023D01*
X226332990Y-78077019D01*
X226315349Y-78067321D01*
X226299084Y-78056637D01*
X226283190Y-78044308D01*
X226283189Y-78044307D01*
X226242962Y-78026899D01*
X226232474Y-78021760D01*
X226194065Y-78000644D01*
X226194055Y-78000641D01*
X226174561Y-77995635D01*
X226156160Y-77989335D01*
X226137686Y-77981341D01*
X226137679Y-77981339D01*
X226094400Y-77974485D01*
X226082960Y-77972116D01*
X226040506Y-77961215D01*
X226040499Y-77961215D01*
X226020369Y-77961215D01*
X226000970Y-77959688D01*
X225981095Y-77956540D01*
X225981094Y-77956540D01*
X225937457Y-77960665D01*
X225925788Y-77961215D01*
X210069441Y-77961215D01*
X210010986Y-77946572D01*
X210000104Y-77940755D01*
X209807602Y-77882360D01*
X209607414Y-77862644D01*
X209407225Y-77882360D01*
X209214724Y-77940755D01*
X209037317Y-78035582D01*
X208881822Y-78163193D01*
X208754211Y-78318688D01*
X208659384Y-78496095D01*
X208600989Y-78688596D01*
X208581273Y-78888785D01*
X208600989Y-79088973D01*
X208610100Y-79119008D01*
X208659383Y-79281472D01*
X208749235Y-79449573D01*
X208754211Y-79458881D01*
X208881822Y-79614376D01*
X208911264Y-79638538D01*
X209037321Y-79741990D01*
X209214727Y-79836816D01*
X209407224Y-79895209D01*
X209607414Y-79914926D01*
X209700420Y-79905765D01*
X209769063Y-79918783D01*
X209819774Y-79966848D01*
X209836449Y-80034699D01*
X209831233Y-80065163D01*
X209801269Y-80163940D01*
X209781553Y-80364129D01*
X209801269Y-80564317D01*
X209801270Y-80564319D01*
X209859663Y-80756816D01*
X209921044Y-80871652D01*
X209954491Y-80934225D01*
X210082102Y-81089720D01*
X210199352Y-81185944D01*
X210237601Y-81217334D01*
X210415007Y-81312160D01*
X210607504Y-81370553D01*
X210807694Y-81390270D01*
X211007884Y-81370553D01*
X211200381Y-81312160D01*
X211377787Y-81217334D01*
X211527104Y-81094793D01*
X211591414Y-81067480D01*
X211605769Y-81066646D01*
X224224613Y-81066646D01*
X224291652Y-81086331D01*
X224312294Y-81102965D01*
X225396181Y-82186852D01*
X225429666Y-82248175D01*
X225432500Y-82274533D01*
X225432500Y-101923719D01*
X225412815Y-101990758D01*
X225396181Y-102011400D01*
X225051990Y-102355591D01*
X224990667Y-102389076D01*
X224964309Y-102391910D01*
X173013422Y-102391910D01*
X172946383Y-102372225D01*
X172917568Y-102346574D01*
X172874272Y-102293818D01*
X172718778Y-102166207D01*
X172718776Y-102166206D01*
X172718775Y-102166205D01*
X172541369Y-102071379D01*
X172445120Y-102042182D01*
X172348870Y-102012985D01*
X172148682Y-101993269D01*
X171948493Y-102012985D01*
X171755992Y-102071380D01*
X171578585Y-102166207D01*
X171423090Y-102293818D01*
X171295479Y-102449313D01*
X171200652Y-102626720D01*
X171142257Y-102819221D01*
X171122541Y-103019410D01*
X169153610Y-103019410D01*
X169153610Y-99694035D01*
X169173295Y-99626996D01*
X169189929Y-99606354D01*
X180214074Y-88582209D01*
X180275397Y-88548724D01*
X180345089Y-88553708D01*
X180401022Y-88595580D01*
X180425439Y-88661044D01*
X180425755Y-88669890D01*
X180425755Y-93966319D01*
X180424027Y-93981968D01*
X180424309Y-93981995D01*
X180423574Y-93989762D01*
X180425694Y-94057204D01*
X180425755Y-94061098D01*
X180425755Y-94088763D01*
X180426261Y-94092772D01*
X180427176Y-94104403D01*
X180428553Y-94148229D01*
X180434171Y-94167562D01*
X180438117Y-94186616D01*
X180440638Y-94206574D01*
X180440641Y-94206586D01*
X180456774Y-94247335D01*
X180460557Y-94258385D01*
X180472785Y-94300474D01*
X180472785Y-94300475D01*
X180483032Y-94317802D01*
X180491590Y-94335272D01*
X180499000Y-94353988D01*
X180524766Y-94389451D01*
X180531180Y-94399216D01*
X180553489Y-94436939D01*
X180553495Y-94436947D01*
X180567724Y-94451175D01*
X180580361Y-94465971D01*
X180592192Y-94482254D01*
X180625972Y-94510199D01*
X180634601Y-94518052D01*
X181047450Y-94930901D01*
X181057297Y-94943191D01*
X181057515Y-94943012D01*
X181062483Y-94949017D01*
X181062485Y-94949019D01*
X181062486Y-94949020D01*
X181085784Y-94970898D01*
X181111672Y-94995209D01*
X181114469Y-94997920D01*
X181134033Y-95017484D01*
X181137211Y-95019948D01*
X181146107Y-95027545D01*
X181178061Y-95057553D01*
X181178063Y-95057554D01*
X181195693Y-95067245D01*
X181211961Y-95077930D01*
X181227864Y-95090266D01*
X181227866Y-95090267D01*
X181227868Y-95090268D01*
X181247768Y-95098879D01*
X181268086Y-95107671D01*
X181278575Y-95112809D01*
X181316992Y-95133930D01*
X181336493Y-95138937D01*
X181354891Y-95145236D01*
X181373367Y-95153231D01*
X181416675Y-95160090D01*
X181428069Y-95162449D01*
X181470554Y-95173358D01*
X181490690Y-95173358D01*
X181510089Y-95174885D01*
X181529959Y-95178032D01*
X181573587Y-95173907D01*
X181585255Y-95173358D01*
X190539422Y-95173358D01*
X190555070Y-95175085D01*
X190555097Y-95174804D01*
X190562864Y-95175538D01*
X190562865Y-95175537D01*
X190562866Y-95175538D01*
X190630308Y-95173419D01*
X190634202Y-95173358D01*
X190661861Y-95173358D01*
X190661865Y-95173358D01*
X190665863Y-95172852D01*
X190677503Y-95171935D01*
X190721332Y-95170559D01*
X190740661Y-95164942D01*
X190759717Y-95160995D01*
X190779682Y-95158474D01*
X190820444Y-95142334D01*
X190831481Y-95138556D01*
X190873580Y-95126326D01*
X190890904Y-95116079D01*
X190908372Y-95107521D01*
X190927092Y-95100111D01*
X190962566Y-95074336D01*
X190972304Y-95067939D01*
X191010045Y-95045621D01*
X191024286Y-95031378D01*
X191039067Y-95018755D01*
X191055356Y-95006921D01*
X191083293Y-94973148D01*
X191091145Y-94964519D01*
X191880241Y-94175425D01*
X191941564Y-94141940D01*
X191967922Y-94139106D01*
X204162323Y-94139106D01*
X204229362Y-94158791D01*
X204275117Y-94211595D01*
X204285061Y-94280753D01*
X204256036Y-94344309D01*
X204240988Y-94358959D01*
X204135541Y-94445496D01*
X204007930Y-94600991D01*
X203913103Y-94778398D01*
X203854708Y-94970899D01*
X203834992Y-95171088D01*
X203854708Y-95371276D01*
X203913103Y-95563777D01*
X204007930Y-95741184D01*
X204135541Y-95896679D01*
X204291036Y-96024290D01*
X204291040Y-96024293D01*
X204468446Y-96119119D01*
X204660943Y-96177512D01*
X204804428Y-96191643D01*
X204869215Y-96217803D01*
X204879955Y-96227365D01*
X207673527Y-99020937D01*
X207707012Y-99082260D01*
X207709249Y-99120771D01*
X207702560Y-99188691D01*
X207722276Y-99388880D01*
X207737684Y-99439674D01*
X207780670Y-99581379D01*
X207866728Y-99742382D01*
X207875498Y-99758788D01*
X208003109Y-99914283D01*
X208144025Y-100029929D01*
X208158608Y-100041897D01*
X208336014Y-100136723D01*
X208528511Y-100195116D01*
X208728701Y-100214833D01*
X208928891Y-100195116D01*
X209121388Y-100136723D01*
X209298794Y-100041897D01*
X209454292Y-99914283D01*
X209581906Y-99758785D01*
X209676732Y-99581379D01*
X209735125Y-99388882D01*
X209754842Y-99188692D01*
X209735125Y-98988502D01*
X209676732Y-98796005D01*
X209581906Y-98618599D01*
X209581903Y-98618595D01*
X209454292Y-98463100D01*
X209298797Y-98335489D01*
X209298795Y-98335488D01*
X209298794Y-98335487D01*
X209121388Y-98240661D01*
X209025139Y-98211464D01*
X208928889Y-98182267D01*
X208750571Y-98164705D01*
X208728701Y-98162551D01*
X208728700Y-98162551D01*
X208660780Y-98169240D01*
X208592134Y-98156221D01*
X208560946Y-98133518D01*
X205902854Y-95475426D01*
X205869369Y-95414103D01*
X205867132Y-95375591D01*
X205871179Y-95334500D01*
X205887274Y-95171088D01*
X205867557Y-94970898D01*
X205809164Y-94778401D01*
X205714338Y-94600995D01*
X205714335Y-94600991D01*
X205586724Y-94445496D01*
X205481278Y-94358959D01*
X205441944Y-94301213D01*
X205440073Y-94231369D01*
X205476261Y-94171601D01*
X205539016Y-94140885D01*
X205559943Y-94139106D01*
X205759190Y-94139106D01*
X205826229Y-94158791D01*
X205855044Y-94184442D01*
X205877817Y-94212191D01*
X206027791Y-94335272D01*
X206033315Y-94339805D01*
X206210721Y-94434631D01*
X206403218Y-94493024D01*
X206603408Y-94512741D01*
X206803598Y-94493024D01*
X206996095Y-94434631D01*
X207173501Y-94339805D01*
X207328999Y-94212191D01*
X207456613Y-94056693D01*
X207551439Y-93879287D01*
X207609832Y-93686790D01*
X207629549Y-93486600D01*
X207609832Y-93286410D01*
X207551439Y-93093913D01*
X207456613Y-92916507D01*
X207456610Y-92916503D01*
X207328999Y-92761008D01*
X207173504Y-92633397D01*
X207173502Y-92633396D01*
X207173501Y-92633395D01*
X206996095Y-92538569D01*
X206899846Y-92509372D01*
X206803596Y-92480175D01*
X206603408Y-92460459D01*
X206403219Y-92480175D01*
X206210718Y-92538570D01*
X206033311Y-92633397D01*
X205877816Y-92761008D01*
X205813999Y-92838771D01*
X205756254Y-92878105D01*
X205718146Y-92884106D01*
X193017972Y-92884106D01*
X192950933Y-92864421D01*
X192905178Y-92811617D01*
X192894569Y-92747952D01*
X192899508Y-92697803D01*
X192904422Y-92647913D01*
X192884705Y-92447723D01*
X192826312Y-92255226D01*
X192731486Y-92077820D01*
X192686793Y-92023361D01*
X192603872Y-91922321D01*
X192448377Y-91794710D01*
X192448375Y-91794709D01*
X192448374Y-91794708D01*
X192270968Y-91699882D01*
X192174719Y-91670685D01*
X192078469Y-91641488D01*
X191878281Y-91621772D01*
X191678092Y-91641488D01*
X191485591Y-91699883D01*
X191308184Y-91794710D01*
X191152689Y-91922321D01*
X191025078Y-92077816D01*
X190930251Y-92255223D01*
X190871856Y-92447724D01*
X190852140Y-92647913D01*
X190858829Y-92715833D01*
X190845810Y-92784479D01*
X190823107Y-92815667D01*
X190604436Y-93034339D01*
X190543113Y-93067824D01*
X190516755Y-93070658D01*
X182765695Y-93070658D01*
X182698656Y-93050973D01*
X182669841Y-93025322D01*
X182626545Y-92972566D01*
X182471051Y-92844955D01*
X182471049Y-92844954D01*
X182471048Y-92844953D01*
X182293642Y-92750127D01*
X182180589Y-92715833D01*
X182101143Y-92691733D01*
X181922825Y-92674171D01*
X181900955Y-92672017D01*
X181900954Y-92672017D01*
X181816908Y-92680294D01*
X181748262Y-92667275D01*
X181697552Y-92619209D01*
X181680755Y-92556891D01*
X181680755Y-90363080D01*
X181700440Y-90296041D01*
X181753244Y-90250286D01*
X181816908Y-90239677D01*
X181964129Y-90254177D01*
X182039487Y-90246754D01*
X182108132Y-90259772D01*
X182111373Y-90261492D01*
X182117484Y-90264851D01*
X182117485Y-90264852D01*
X182135127Y-90274550D01*
X182151385Y-90285229D01*
X182163829Y-90294882D01*
X182167291Y-90297568D01*
X182207514Y-90314974D01*
X182218006Y-90320114D01*
X182256413Y-90341229D01*
X182256416Y-90341230D01*
X182256418Y-90341231D01*
X182275911Y-90346235D01*
X182294319Y-90352538D01*
X182312793Y-90360533D01*
X182356096Y-90367390D01*
X182367523Y-90369757D01*
X182409980Y-90380659D01*
X182430110Y-90380659D01*
X182449507Y-90382185D01*
X182469385Y-90385334D01*
X182509180Y-90381572D01*
X182513022Y-90381209D01*
X182524691Y-90380659D01*
X209119130Y-90380659D01*
X209186169Y-90400344D01*
X209231924Y-90453148D01*
X209241868Y-90522306D01*
X209212843Y-90585862D01*
X209178873Y-90613318D01*
X209174170Y-90615903D01*
X209138701Y-90641672D01*
X209128941Y-90648083D01*
X209091221Y-90670390D01*
X209076981Y-90684630D01*
X209062195Y-90697258D01*
X209045908Y-90709092D01*
X209017965Y-90742868D01*
X209010105Y-90751506D01*
X208841163Y-90920449D01*
X208841161Y-90920450D01*
X208760415Y-91001194D01*
X208748134Y-91011035D01*
X208748314Y-91011253D01*
X208742302Y-91016226D01*
X208696111Y-91065413D01*
X208693406Y-91068204D01*
X208673844Y-91087766D01*
X208673840Y-91087771D01*
X208671360Y-91090969D01*
X208663782Y-91099840D01*
X208633773Y-91131796D01*
X208633770Y-91131800D01*
X208624071Y-91149443D01*
X208613393Y-91165699D01*
X208601059Y-91181600D01*
X208601054Y-91181608D01*
X208583650Y-91221828D01*
X208578511Y-91232318D01*
X208557392Y-91270733D01*
X208552385Y-91290234D01*
X208546086Y-91308630D01*
X208539358Y-91324178D01*
X208538090Y-91327110D01*
X208538089Y-91327112D01*
X208531234Y-91370397D01*
X208528866Y-91381833D01*
X208517965Y-91424289D01*
X208517965Y-91444424D01*
X208516438Y-91463823D01*
X208513290Y-91483697D01*
X208517415Y-91527333D01*
X208517965Y-91539003D01*
X208517965Y-94704698D01*
X208516237Y-94720347D01*
X208516519Y-94720374D01*
X208515784Y-94728141D01*
X208517904Y-94795583D01*
X208517965Y-94799477D01*
X208517965Y-94827142D01*
X208518471Y-94831151D01*
X208519386Y-94842782D01*
X208520763Y-94886608D01*
X208526381Y-94905941D01*
X208530327Y-94924995D01*
X208532848Y-94944953D01*
X208532851Y-94944965D01*
X208548984Y-94985714D01*
X208552767Y-94996764D01*
X208564995Y-95038853D01*
X208564995Y-95038854D01*
X208575242Y-95056181D01*
X208583800Y-95073651D01*
X208591210Y-95092367D01*
X208616976Y-95127830D01*
X208623390Y-95137595D01*
X208645699Y-95175318D01*
X208645705Y-95175326D01*
X208659934Y-95189554D01*
X208672571Y-95204350D01*
X208684402Y-95220633D01*
X208718182Y-95248578D01*
X208726811Y-95256431D01*
X209760016Y-96289636D01*
X209769863Y-96301926D01*
X209770081Y-96301747D01*
X209775049Y-96307752D01*
X209824238Y-96353944D01*
X209827035Y-96356655D01*
X209846599Y-96376219D01*
X209849777Y-96378683D01*
X209858673Y-96386280D01*
X209890627Y-96416288D01*
X209890629Y-96416289D01*
X209908259Y-96425980D01*
X209924527Y-96436665D01*
X209940430Y-96449001D01*
X209940432Y-96449002D01*
X209940434Y-96449003D01*
X209960334Y-96457614D01*
X209980652Y-96466406D01*
X209991141Y-96471544D01*
X210029558Y-96492665D01*
X210049059Y-96497672D01*
X210067457Y-96503971D01*
X210085933Y-96511966D01*
X210129241Y-96518825D01*
X210140635Y-96521184D01*
X210183120Y-96532093D01*
X210203256Y-96532093D01*
X210222655Y-96533620D01*
X210242525Y-96536767D01*
X210286153Y-96532642D01*
X210297822Y-96532093D01*
X220616934Y-96532093D01*
X220683973Y-96551778D01*
X220712788Y-96577429D01*
X220756083Y-96630184D01*
X220911581Y-96757798D01*
X221088987Y-96852624D01*
X221281484Y-96911017D01*
X221481674Y-96930734D01*
X221681864Y-96911017D01*
X221874361Y-96852624D01*
X222051767Y-96757798D01*
X222207265Y-96630184D01*
X222334879Y-96474686D01*
X222429705Y-96297280D01*
X222488098Y-96104783D01*
X222507815Y-95904593D01*
X222488098Y-95704403D01*
X222429705Y-95511906D01*
X222334879Y-95334500D01*
X222334876Y-95334496D01*
X222207265Y-95179001D01*
X222051770Y-95051390D01*
X222051768Y-95051389D01*
X222051767Y-95051388D01*
X221874361Y-94956562D01*
X221770298Y-94924995D01*
X221681862Y-94898168D01*
X221481674Y-94878452D01*
X221281485Y-94898168D01*
X221088984Y-94956563D01*
X220911577Y-95051390D01*
X220756083Y-95179001D01*
X220712788Y-95231757D01*
X220655042Y-95271092D01*
X220616934Y-95277093D01*
X210573673Y-95277093D01*
X210506634Y-95257408D01*
X210485992Y-95240774D01*
X209809284Y-94564066D01*
X209775799Y-94502743D01*
X209772965Y-94476385D01*
X209772965Y-92245921D01*
X209792650Y-92178882D01*
X209845454Y-92133127D01*
X209914612Y-92123183D01*
X209932954Y-92127259D01*
X210095543Y-92176580D01*
X210295733Y-92196297D01*
X210495923Y-92176580D01*
X210688420Y-92118187D01*
X210865826Y-92023361D01*
X211021324Y-91895747D01*
X211148938Y-91740249D01*
X211243764Y-91562843D01*
X211302157Y-91370346D01*
X211321874Y-91170156D01*
X211302157Y-90969966D01*
X211243764Y-90777469D01*
X211148938Y-90600063D01*
X211148935Y-90600059D01*
X211135201Y-90583324D01*
X211107888Y-90519014D01*
X211119679Y-90450147D01*
X211166831Y-90398586D01*
X211231054Y-90380659D01*
X217707922Y-90380659D01*
X217774961Y-90400344D01*
X217803776Y-90425995D01*
X217847071Y-90478750D01*
X217974494Y-90583324D01*
X218002569Y-90606364D01*
X218179975Y-90701190D01*
X218372472Y-90759583D01*
X218572662Y-90779300D01*
X218772852Y-90759583D01*
X218965349Y-90701190D01*
X219142755Y-90606364D01*
X219298253Y-90478750D01*
X219425867Y-90323252D01*
X219520693Y-90145846D01*
X219579086Y-89953349D01*
X219598803Y-89753159D01*
X219579086Y-89552969D01*
X219520693Y-89360472D01*
X219425867Y-89183066D01*
X219425864Y-89183062D01*
X219298253Y-89027567D01*
X219142758Y-88899956D01*
X219142756Y-88899955D01*
X219142755Y-88899954D01*
X218965349Y-88805128D01*
X218869100Y-88775931D01*
X218772850Y-88746734D01*
X218572662Y-88727018D01*
X218372473Y-88746734D01*
X218179972Y-88805129D01*
X218002565Y-88899956D01*
X217847071Y-89027567D01*
X217803776Y-89080323D01*
X217746030Y-89119658D01*
X217707922Y-89125659D01*
X216305232Y-89125659D01*
X216238193Y-89105974D01*
X216192438Y-89053170D01*
X216182494Y-88984012D01*
X216186571Y-88965664D01*
X216228305Y-88828086D01*
X216248022Y-88627896D01*
X216228305Y-88427706D01*
X216169912Y-88235209D01*
X216075086Y-88057803D01*
X216028620Y-88001184D01*
X215947472Y-87902304D01*
X215791977Y-87774693D01*
X215791975Y-87774692D01*
X215791974Y-87774691D01*
X215614568Y-87679865D01*
X215518319Y-87650668D01*
X215422069Y-87621471D01*
X215221881Y-87601755D01*
X215021692Y-87621471D01*
X214829191Y-87679866D01*
X214651784Y-87774693D01*
X214496290Y-87902304D01*
X214452995Y-87955060D01*
X214395249Y-87994395D01*
X214357141Y-88000396D01*
X185545535Y-88000396D01*
X185478496Y-87980711D01*
X185449682Y-87955061D01*
X185365343Y-87852293D01*
X185209848Y-87724682D01*
X185209846Y-87724681D01*
X185209845Y-87724680D01*
X185032439Y-87629854D01*
X184936190Y-87600657D01*
X184839940Y-87571460D01*
X184639752Y-87551744D01*
X184439563Y-87571460D01*
X184247062Y-87629855D01*
X184069655Y-87724682D01*
X183914160Y-87852293D01*
X183786549Y-88007788D01*
X183691722Y-88185195D01*
X183633327Y-88377696D01*
X183613611Y-88577885D01*
X183633327Y-88778073D01*
X183648498Y-88828084D01*
X183690233Y-88965666D01*
X183690856Y-89035530D01*
X183653608Y-89094643D01*
X183590314Y-89124234D01*
X183571572Y-89125659D01*
X183091774Y-89125659D01*
X183024735Y-89105974D01*
X182978980Y-89053170D01*
X182972650Y-89033575D01*
X182972321Y-89033675D01*
X182970553Y-89027846D01*
X182912160Y-88835349D01*
X182817334Y-88657943D01*
X182755181Y-88582209D01*
X182689720Y-88502444D01*
X182534225Y-88374833D01*
X182534223Y-88374832D01*
X182534222Y-88374831D01*
X182356816Y-88280005D01*
X182287355Y-88258934D01*
X182164318Y-88221611D01*
X182069452Y-88212268D01*
X182004665Y-88186107D01*
X181964307Y-88129072D01*
X181961190Y-88059272D01*
X181993924Y-88001186D01*
X192560087Y-77435023D01*
X192572369Y-77425186D01*
X192572188Y-77424967D01*
X192578201Y-77419991D01*
X192578206Y-77419989D01*
X192624428Y-77370765D01*
X192627077Y-77368033D01*
X192646667Y-77348445D01*
X192649140Y-77345255D01*
X192656726Y-77336371D01*
X192686737Y-77304416D01*
X192696433Y-77286777D01*
X192707117Y-77270510D01*
X192719452Y-77254611D01*
X192736863Y-77214374D01*
X192741986Y-77203914D01*
X192763116Y-77165483D01*
X192768122Y-77145983D01*
X192774420Y-77127585D01*
X192782418Y-77109107D01*
X192789276Y-77065800D01*
X192791640Y-77054385D01*
X192802544Y-77011921D01*
X192802544Y-76991790D01*
X192804071Y-76972390D01*
X192807219Y-76952516D01*
X192803094Y-76908879D01*
X192802544Y-76897210D01*
X192802544Y-72721297D01*
X192822229Y-72654258D01*
X192847881Y-72625443D01*
X192849506Y-72624109D01*
X192900635Y-72582149D01*
X193028249Y-72426651D01*
X193123075Y-72249245D01*
X193181468Y-72056748D01*
X193201185Y-71856558D01*
X193181468Y-71656368D01*
X193123075Y-71463871D01*
X193028249Y-71286465D01*
X193028246Y-71286461D01*
X192900635Y-71130966D01*
X192745140Y-71003355D01*
X192745138Y-71003354D01*
X192745137Y-71003353D01*
X192567731Y-70908527D01*
X192471482Y-70879330D01*
X192375232Y-70850133D01*
X192175044Y-70830417D01*
X191974855Y-70850133D01*
X191782354Y-70908528D01*
X191604947Y-71003355D01*
X191449452Y-71130966D01*
X191321841Y-71286461D01*
X191227014Y-71463868D01*
X191168619Y-71656369D01*
X191148903Y-71856558D01*
X191168619Y-72056746D01*
X191227014Y-72249247D01*
X191321841Y-72426654D01*
X191449454Y-72582150D01*
X191502207Y-72625443D01*
X191541543Y-72683188D01*
X191547544Y-72721297D01*
X191547544Y-76621367D01*
X191527859Y-76688406D01*
X191511225Y-76709048D01*
X186659480Y-81560792D01*
X186598157Y-81594277D01*
X186528465Y-81589293D01*
X186475946Y-81551776D01*
X186422370Y-81486493D01*
X186266875Y-81358882D01*
X186266873Y-81358881D01*
X186266872Y-81358880D01*
X186089466Y-81264054D01*
X185993217Y-81234857D01*
X185896967Y-81205660D01*
X185696779Y-81185944D01*
X185496590Y-81205660D01*
X185304089Y-81264055D01*
X185126682Y-81358882D01*
X184971187Y-81486493D01*
X184843576Y-81641988D01*
X184748749Y-81819395D01*
X184690354Y-82011896D01*
X184670638Y-82212085D01*
X184677327Y-82280004D01*
X184664308Y-82348650D01*
X184641605Y-82379838D01*
X168141063Y-98880380D01*
X168128779Y-98890223D01*
X168128959Y-98890441D01*
X168122947Y-98895414D01*
X168076756Y-98944601D01*
X168074051Y-98947392D01*
X168054489Y-98966954D01*
X168054485Y-98966959D01*
X168052005Y-98970157D01*
X168044427Y-98979028D01*
X168014418Y-99010984D01*
X168014415Y-99010988D01*
X168004716Y-99028631D01*
X167994038Y-99044887D01*
X167981704Y-99060788D01*
X167981699Y-99060796D01*
X167964295Y-99101016D01*
X167959156Y-99111506D01*
X167938037Y-99149921D01*
X167933030Y-99169422D01*
X167926731Y-99187818D01*
X167926354Y-99188692D01*
X167918735Y-99206298D01*
X167918734Y-99206300D01*
X167911879Y-99249585D01*
X167909511Y-99261021D01*
X167898610Y-99303477D01*
X167898610Y-99323612D01*
X167897083Y-99343009D01*
X167893935Y-99362887D01*
X167896804Y-99393231D01*
X167898060Y-99406521D01*
X167898610Y-99418191D01*
X167898610Y-107220042D01*
X167878925Y-107287081D01*
X167853275Y-107315895D01*
X167800516Y-107359193D01*
X167672907Y-107514685D01*
X167578080Y-107692092D01*
X167519685Y-107884593D01*
X167499969Y-108084782D01*
X164233768Y-108084782D01*
X164226493Y-107913530D01*
X164224983Y-107877987D01*
X164175833Y-107649929D01*
X164088848Y-107433459D01*
X163966531Y-107234803D01*
X163812400Y-107059676D01*
X163812398Y-107059674D01*
X163812395Y-107059671D01*
X163630895Y-106913120D01*
X163630884Y-106913113D01*
X163590566Y-106890589D01*
X163541640Y-106840709D01*
X163527448Y-106772296D01*
X163552496Y-106707070D01*
X163581600Y-106679604D01*
X163724757Y-106582847D01*
X163893185Y-106421422D01*
X164031909Y-106233855D01*
X164136939Y-106025541D01*
X164205252Y-105802474D01*
X164234885Y-105571070D01*
X164234380Y-105559193D01*
X164224983Y-105337993D01*
X164224983Y-105337987D01*
X164175833Y-105109929D01*
X164088848Y-104893459D01*
X163966531Y-104694803D01*
X163812400Y-104519676D01*
X163812398Y-104519674D01*
X163812395Y-104519671D01*
X163630895Y-104373120D01*
X163630884Y-104373113D01*
X163590566Y-104350589D01*
X163541640Y-104300709D01*
X163527448Y-104232296D01*
X163552496Y-104167070D01*
X163581600Y-104139604D01*
X163724757Y-104042847D01*
X163893185Y-103881422D01*
X164031909Y-103693855D01*
X164136939Y-103485541D01*
X164205252Y-103262474D01*
X164234885Y-103031070D01*
X164234380Y-103019193D01*
X164224983Y-102797993D01*
X164224983Y-102797987D01*
X164175833Y-102569929D01*
X164088848Y-102353459D01*
X163966531Y-102154803D01*
X163812400Y-101979676D01*
X163812398Y-101979674D01*
X163812395Y-101979671D01*
X163630895Y-101833120D01*
X163630884Y-101833113D01*
X163590566Y-101810589D01*
X163541640Y-101760709D01*
X163527448Y-101692296D01*
X163552496Y-101627070D01*
X163581600Y-101599604D01*
X163724757Y-101502847D01*
X163893185Y-101341422D01*
X164031909Y-101153855D01*
X164136939Y-100945541D01*
X164205252Y-100722474D01*
X164234885Y-100491070D01*
X164234380Y-100479193D01*
X164224983Y-100257993D01*
X164224983Y-100257987D01*
X164175833Y-100029929D01*
X164088848Y-99813459D01*
X163966531Y-99614803D01*
X163812400Y-99439676D01*
X163812398Y-99439674D01*
X163812395Y-99439671D01*
X163630895Y-99293120D01*
X163630889Y-99293115D01*
X163427223Y-99179340D01*
X163207260Y-99101623D01*
X163207254Y-99101621D01*
X163207253Y-99101621D01*
X163207250Y-99101620D01*
X163202162Y-99100296D01*
X163202783Y-99097907D01*
X163149290Y-99071640D01*
X163113178Y-99011826D01*
X163115137Y-98941984D01*
X163145405Y-98892562D01*
X178053410Y-83984558D01*
X178114733Y-83951073D01*
X178141091Y-83948239D01*
X180917108Y-83948239D01*
X180984147Y-83967924D01*
X181012962Y-83993575D01*
X181056257Y-84046330D01*
X181211755Y-84173944D01*
X181389161Y-84268770D01*
X181581658Y-84327163D01*
X181781848Y-84346880D01*
X181982038Y-84327163D01*
X182174535Y-84268770D01*
X182351941Y-84173944D01*
X182507439Y-84046330D01*
X182635053Y-83890832D01*
X182729879Y-83713426D01*
X182788272Y-83520929D01*
X182807989Y-83320739D01*
X182788272Y-83120549D01*
X182729879Y-82928052D01*
X182635053Y-82750646D01*
X182634948Y-82750518D01*
X182507439Y-82595147D01*
X182351944Y-82467536D01*
X182351942Y-82467535D01*
X182351941Y-82467534D01*
X182174535Y-82372708D01*
X182061334Y-82338369D01*
X181982036Y-82314314D01*
X181781848Y-82294598D01*
X181581659Y-82314314D01*
X181389158Y-82372709D01*
X181211751Y-82467536D01*
X181056257Y-82595147D01*
X181012962Y-82647903D01*
X180955216Y-82687238D01*
X180917108Y-82693239D01*
X177912777Y-82693239D01*
X177897128Y-82691511D01*
X177897102Y-82691793D01*
X177889334Y-82691058D01*
X177821892Y-82693178D01*
X177817998Y-82693239D01*
X177790333Y-82693239D01*
X177786324Y-82693745D01*
X177774694Y-82694660D01*
X177730870Y-82696037D01*
X177730864Y-82696038D01*
X177711529Y-82701655D01*
X177692490Y-82705598D01*
X177672525Y-82708121D01*
X177672511Y-82708124D01*
X177631760Y-82724258D01*
X177620716Y-82728039D01*
X177578619Y-82740270D01*
X177578616Y-82740272D01*
X177561290Y-82750518D01*
X177543820Y-82759076D01*
X177525108Y-82766484D01*
X177489636Y-82792255D01*
X177479876Y-82798666D01*
X177442156Y-82820973D01*
X177427916Y-82835213D01*
X177413130Y-82847841D01*
X177396843Y-82859675D01*
X177368900Y-82893451D01*
X177361039Y-82902089D01*
X154590553Y-105672575D01*
X154578269Y-105682418D01*
X154578449Y-105682636D01*
X154572437Y-105687609D01*
X154526246Y-105736796D01*
X154523541Y-105739587D01*
X154503979Y-105759149D01*
X154503975Y-105759154D01*
X154501495Y-105762352D01*
X154493917Y-105771223D01*
X154463908Y-105803179D01*
X154463905Y-105803183D01*
X154454206Y-105820826D01*
X154443528Y-105837082D01*
X154431194Y-105852983D01*
X154431189Y-105852991D01*
X154413785Y-105893211D01*
X154408646Y-105903701D01*
X154387527Y-105942116D01*
X154382520Y-105961617D01*
X154376221Y-105980013D01*
X154369493Y-105995561D01*
X154368225Y-105998493D01*
X154368224Y-105998495D01*
X154361369Y-106041780D01*
X154359001Y-106053216D01*
X154348100Y-106095672D01*
X154348100Y-106115807D01*
X154346573Y-106135206D01*
X154343425Y-106155080D01*
X154347550Y-106198716D01*
X154348100Y-106210386D01*
X154348100Y-107336798D01*
X154328415Y-107403837D01*
X154302765Y-107432651D01*
X154250006Y-107475949D01*
X154122397Y-107631441D01*
X154027570Y-107808848D01*
X154027569Y-107808850D01*
X154027569Y-107808851D01*
X154026839Y-107811258D01*
X153969175Y-108001349D01*
X153949459Y-108201538D01*
X150162292Y-108201538D01*
X150157945Y-108099193D01*
X150155401Y-108039316D01*
X150106251Y-107811258D01*
X150019266Y-107594788D01*
X149896949Y-107396132D01*
X149742818Y-107221005D01*
X149742816Y-107221003D01*
X149742813Y-107221000D01*
X149561313Y-107074449D01*
X149561302Y-107074442D01*
X149520984Y-107051918D01*
X149472058Y-107002038D01*
X149457866Y-106933625D01*
X149482914Y-106868399D01*
X149512018Y-106840933D01*
X149655175Y-106744176D01*
X149823603Y-106582751D01*
X149962327Y-106395184D01*
X150067357Y-106186870D01*
X150135670Y-105963803D01*
X150165303Y-105732399D01*
X150163391Y-105687403D01*
X150162002Y-105654704D01*
X150155401Y-105499316D01*
X150106251Y-105271258D01*
X150106249Y-105271253D01*
X150104708Y-105266220D01*
X150106773Y-105265587D01*
X150100922Y-105205232D01*
X150132848Y-105143083D01*
X150193307Y-105108061D01*
X150222715Y-105104523D01*
X153429347Y-105104523D01*
X153444995Y-105106250D01*
X153445022Y-105105969D01*
X153452789Y-105106703D01*
X153452790Y-105106702D01*
X153452791Y-105106703D01*
X153520233Y-105104584D01*
X153524127Y-105104523D01*
X153551786Y-105104523D01*
X153551790Y-105104523D01*
X153555788Y-105104017D01*
X153567428Y-105103100D01*
X153611257Y-105101724D01*
X153630586Y-105096107D01*
X153649642Y-105092160D01*
X153669607Y-105089639D01*
X153710369Y-105073499D01*
X153721406Y-105069721D01*
X153763505Y-105057491D01*
X153780829Y-105047244D01*
X153798297Y-105038686D01*
X153817017Y-105031276D01*
X153852491Y-105005501D01*
X153862229Y-104999104D01*
X153899970Y-104976786D01*
X153914211Y-104962543D01*
X153928992Y-104949920D01*
X153945281Y-104938086D01*
X153973218Y-104904313D01*
X153981070Y-104895684D01*
X178805629Y-80071127D01*
X178866952Y-80037642D01*
X178893310Y-80034808D01*
X182309414Y-80034808D01*
X182376453Y-80054493D01*
X182405268Y-80080144D01*
X182448563Y-80132899D01*
X182486386Y-80163940D01*
X182604061Y-80260513D01*
X182781467Y-80355339D01*
X182973964Y-80413732D01*
X183174154Y-80433449D01*
X183374344Y-80413732D01*
X183566841Y-80355339D01*
X183744247Y-80260513D01*
X183899745Y-80132899D01*
X184027359Y-79977401D01*
X184122185Y-79799995D01*
X184180578Y-79607498D01*
X184200295Y-79407308D01*
X184180578Y-79207118D01*
X184122185Y-79014621D01*
X184027359Y-78837215D01*
X184027254Y-78837087D01*
X183899745Y-78681716D01*
X183744250Y-78554105D01*
X183744248Y-78554104D01*
X183744247Y-78554103D01*
X183566841Y-78459277D01*
X183470592Y-78430080D01*
X183374342Y-78400883D01*
X183174154Y-78381167D01*
X182973965Y-78400883D01*
X182781464Y-78459278D01*
X182604057Y-78554105D01*
X182448563Y-78681716D01*
X182405268Y-78734472D01*
X182347522Y-78773807D01*
X182309414Y-78779808D01*
X178664996Y-78779808D01*
X178649347Y-78778080D01*
X178649321Y-78778362D01*
X178641553Y-78777627D01*
X178574110Y-78779747D01*
X178570216Y-78779808D01*
X178542552Y-78779808D01*
X178538543Y-78780314D01*
X178526913Y-78781229D01*
X178483085Y-78782606D01*
X178463742Y-78788226D01*
X178444698Y-78792170D01*
X178441738Y-78792543D01*
X178424736Y-78794692D01*
X178424732Y-78794693D01*
X178424729Y-78794694D01*
X178383979Y-78810827D01*
X178372935Y-78814608D01*
X178330838Y-78826839D01*
X178330835Y-78826841D01*
X178313509Y-78837087D01*
X178296039Y-78845645D01*
X178277327Y-78853053D01*
X178241855Y-78878824D01*
X178232095Y-78885235D01*
X178194375Y-78907542D01*
X178180135Y-78921782D01*
X178165349Y-78934410D01*
X178149062Y-78946244D01*
X178121119Y-78980020D01*
X178113258Y-78988658D01*
X153288714Y-103813204D01*
X153227391Y-103846689D01*
X153201033Y-103849523D01*
X150166570Y-103849523D01*
X150099531Y-103829838D01*
X150053776Y-103777034D01*
X150043832Y-103707876D01*
X150055845Y-103669701D01*
X150067357Y-103646870D01*
X150135670Y-103423803D01*
X150165303Y-103192399D01*
X150163391Y-103147403D01*
X150157945Y-103019193D01*
X150155401Y-102959316D01*
X150106251Y-102731258D01*
X150019266Y-102514788D01*
X149896949Y-102316132D01*
X149742818Y-102141005D01*
X149742816Y-102141003D01*
X149742813Y-102141000D01*
X149561313Y-101994449D01*
X149561302Y-101994442D01*
X149520984Y-101971918D01*
X149472058Y-101922038D01*
X149457866Y-101853625D01*
X149482914Y-101788399D01*
X149512018Y-101760933D01*
X149655175Y-101664176D01*
X149823603Y-101502751D01*
X149962327Y-101315184D01*
X150067357Y-101106870D01*
X150135670Y-100883803D01*
X150165303Y-100652399D01*
X150155401Y-100419316D01*
X150106251Y-100191258D01*
X150019266Y-99974788D01*
X149896949Y-99776132D01*
X149742818Y-99601005D01*
X149742816Y-99601003D01*
X149742813Y-99601000D01*
X149561313Y-99454449D01*
X149561307Y-99454444D01*
X149357641Y-99340669D01*
X149137678Y-99262952D01*
X149137673Y-99262950D01*
X149137671Y-99262950D01*
X149137667Y-99262949D01*
X149137666Y-99262949D01*
X148907742Y-99223523D01*
X148907734Y-99223523D01*
X148282871Y-99223523D01*
X148282852Y-99223523D01*
X148108640Y-99238351D01*
X148108638Y-99238352D01*
X147882868Y-99297137D01*
X147670284Y-99393231D01*
X147476998Y-99523870D01*
X147476996Y-99523872D01*
X147308570Y-99685295D01*
X147308569Y-99685296D01*
X147169849Y-99872857D01*
X147064820Y-100081170D01*
X147064817Y-100081176D01*
X146996503Y-100304246D01*
X146966871Y-100535647D01*
X146976772Y-100768723D01*
X146976773Y-100768732D01*
X147025923Y-100996789D01*
X147025924Y-100996792D01*
X147112906Y-101213254D01*
X147112908Y-101213258D01*
X147235225Y-101411914D01*
X147315256Y-101502847D01*
X147389357Y-101587042D01*
X147389360Y-101587045D01*
X147570860Y-101733596D01*
X147570862Y-101733597D01*
X147570867Y-101733601D01*
X147611189Y-101756126D01*
X147660115Y-101806006D01*
X147674307Y-101874419D01*
X147649259Y-101939645D01*
X147620152Y-101967115D01*
X147476994Y-102063873D01*
X147308570Y-102225295D01*
X147308569Y-102225296D01*
X147169849Y-102412857D01*
X147064820Y-102621170D01*
X147064817Y-102621176D01*
X146996503Y-102844246D01*
X146966871Y-103075647D01*
X146976772Y-103308723D01*
X146976773Y-103308732D01*
X147017572Y-103498038D01*
X147025923Y-103536788D01*
X147083185Y-103679290D01*
X147089916Y-103748833D01*
X147057980Y-103810977D01*
X146997517Y-103845990D01*
X146968127Y-103849523D01*
X145909544Y-103849523D01*
X145893895Y-103847795D01*
X145893869Y-103848077D01*
X145886101Y-103847342D01*
X145818658Y-103849462D01*
X145814764Y-103849523D01*
X145787100Y-103849523D01*
X145783091Y-103850029D01*
X145771461Y-103850944D01*
X145727633Y-103852321D01*
X145708290Y-103857941D01*
X145689246Y-103861885D01*
X145686286Y-103862258D01*
X145669284Y-103864407D01*
X145669280Y-103864408D01*
X145669277Y-103864409D01*
X145628527Y-103880542D01*
X145617483Y-103884323D01*
X145575386Y-103896554D01*
X145575383Y-103896556D01*
X145558057Y-103906802D01*
X145540587Y-103915360D01*
X145521875Y-103922768D01*
X145486403Y-103948539D01*
X145476643Y-103954950D01*
X145438923Y-103977257D01*
X145424683Y-103991497D01*
X145409897Y-104004125D01*
X145393610Y-104015959D01*
X145365667Y-104049735D01*
X145357806Y-104058373D01*
X141832231Y-107583948D01*
X141770908Y-107617433D01*
X141732397Y-107619670D01*
X141664478Y-107612981D01*
X141464289Y-107632697D01*
X141271788Y-107691092D01*
X141094381Y-107785919D01*
X140938886Y-107913530D01*
X140811275Y-108069025D01*
X140716448Y-108246432D01*
X140658053Y-108438933D01*
X140638337Y-108639122D01*
X136882944Y-108639122D01*
X136893033Y-108560336D01*
X136883131Y-108327253D01*
X136833981Y-108099195D01*
X136746996Y-107882725D01*
X136624679Y-107684069D01*
X136470548Y-107508942D01*
X136470546Y-107508940D01*
X136470543Y-107508937D01*
X136289043Y-107362386D01*
X136289032Y-107362379D01*
X136248714Y-107339855D01*
X136199788Y-107289975D01*
X136185596Y-107221562D01*
X136210644Y-107156336D01*
X136239748Y-107128870D01*
X136382905Y-107032113D01*
X136551333Y-106870688D01*
X136690057Y-106683121D01*
X136795087Y-106474807D01*
X136863400Y-106251740D01*
X136893033Y-106020336D01*
X136883131Y-105787253D01*
X136833981Y-105559195D01*
X136746996Y-105342725D01*
X136624679Y-105144069D01*
X136470548Y-104968942D01*
X136470546Y-104968940D01*
X136470543Y-104968937D01*
X136289043Y-104822386D01*
X136289032Y-104822379D01*
X136248714Y-104799855D01*
X136199788Y-104749975D01*
X136185596Y-104681562D01*
X136210644Y-104616336D01*
X136239748Y-104588870D01*
X136382905Y-104492113D01*
X136551333Y-104330688D01*
X136690057Y-104143121D01*
X136795087Y-103934807D01*
X136863400Y-103711740D01*
X136893033Y-103480336D01*
X136883131Y-103247253D01*
X136833981Y-103019195D01*
X136746996Y-102802725D01*
X136624679Y-102604069D01*
X136470548Y-102428942D01*
X136470546Y-102428940D01*
X136470543Y-102428937D01*
X136289043Y-102282386D01*
X136289032Y-102282379D01*
X136248714Y-102259855D01*
X136199788Y-102209975D01*
X136185596Y-102141562D01*
X136210644Y-102076336D01*
X136239748Y-102048870D01*
X136382905Y-101952113D01*
X136551333Y-101790688D01*
X136690057Y-101603121D01*
X136795087Y-101394807D01*
X136863400Y-101171740D01*
X136893033Y-100940336D01*
X136883131Y-100707253D01*
X136833981Y-100479195D01*
X136746996Y-100262725D01*
X136624679Y-100064069D01*
X136470548Y-99888942D01*
X136470546Y-99888940D01*
X136470543Y-99888937D01*
X136289043Y-99742386D01*
X136289037Y-99742381D01*
X136085371Y-99628606D01*
X135865408Y-99550889D01*
X135865403Y-99550887D01*
X135865401Y-99550887D01*
X135865397Y-99550886D01*
X135865396Y-99550886D01*
X135635472Y-99511460D01*
X135635464Y-99511460D01*
X135010601Y-99511460D01*
X135010582Y-99511460D01*
X134836370Y-99526288D01*
X134836368Y-99526289D01*
X134610598Y-99585074D01*
X134398014Y-99681168D01*
X134204728Y-99811807D01*
X134204726Y-99811809D01*
X134036300Y-99973232D01*
X134036299Y-99973233D01*
X133897579Y-100160794D01*
X133792550Y-100369107D01*
X133792547Y-100369113D01*
X133724233Y-100592183D01*
X133694601Y-100823584D01*
X133704502Y-101056660D01*
X133704503Y-101056669D01*
X133753653Y-101284726D01*
X133753654Y-101284729D01*
X133810308Y-101425716D01*
X133840638Y-101501195D01*
X133962955Y-101699851D01*
X134092794Y-101847377D01*
X134117087Y-101874979D01*
X134117090Y-101874982D01*
X134298590Y-102021533D01*
X134298592Y-102021534D01*
X134298597Y-102021538D01*
X134338919Y-102044063D01*
X134387845Y-102093943D01*
X134402037Y-102162356D01*
X134376989Y-102227582D01*
X134347882Y-102255052D01*
X134204724Y-102351810D01*
X134036300Y-102513232D01*
X134036299Y-102513233D01*
X133897579Y-102700794D01*
X133792550Y-102909107D01*
X133792547Y-102909113D01*
X133724233Y-103132183D01*
X133694601Y-103363584D01*
X133704502Y-103596660D01*
X133704503Y-103596669D01*
X133753653Y-103824726D01*
X133753654Y-103824729D01*
X133832618Y-104021237D01*
X133840638Y-104041195D01*
X133962955Y-104239851D01*
X134090882Y-104385204D01*
X134117087Y-104414979D01*
X134117090Y-104414982D01*
X134298590Y-104561533D01*
X134298592Y-104561534D01*
X134298597Y-104561538D01*
X134338919Y-104584063D01*
X134387845Y-104633943D01*
X134402037Y-104702356D01*
X134376989Y-104767582D01*
X134347882Y-104795052D01*
X134204724Y-104891810D01*
X134036300Y-105053232D01*
X134036299Y-105053233D01*
X133897579Y-105240794D01*
X133792550Y-105449107D01*
X133792547Y-105449113D01*
X133724233Y-105672183D01*
X133694601Y-105903584D01*
X133704502Y-106136660D01*
X133704503Y-106136669D01*
X133753653Y-106364726D01*
X133753654Y-106364729D01*
X133840636Y-106581191D01*
X133840638Y-106581195D01*
X133962955Y-106779851D01*
X134092794Y-106927377D01*
X134117087Y-106954979D01*
X134117090Y-106954982D01*
X134298590Y-107101533D01*
X134298592Y-107101534D01*
X134298597Y-107101538D01*
X134338919Y-107124063D01*
X134387845Y-107173943D01*
X134402037Y-107242356D01*
X134376989Y-107307582D01*
X134347882Y-107335052D01*
X134204724Y-107431810D01*
X134036300Y-107593232D01*
X134036299Y-107593233D01*
X133897579Y-107780794D01*
X133792550Y-107989107D01*
X133792547Y-107989113D01*
X133724233Y-108212183D01*
X133694601Y-108443584D01*
X129840499Y-108443584D01*
X129840499Y-98343061D01*
X139708867Y-98343061D01*
X139728583Y-98543249D01*
X139728584Y-98543251D01*
X139786977Y-98735748D01*
X139870795Y-98892560D01*
X139881805Y-98913157D01*
X139962093Y-99010988D01*
X140002966Y-99060792D01*
X140009418Y-99068653D01*
X140062171Y-99111946D01*
X140101507Y-99169691D01*
X140107508Y-99207800D01*
X140107508Y-103954198D01*
X140087823Y-104021237D01*
X140062176Y-104050048D01*
X140059428Y-104052302D01*
X140059428Y-104052303D01*
X139931817Y-104207797D01*
X139836990Y-104385204D01*
X139778595Y-104577705D01*
X139758879Y-104777894D01*
X139778595Y-104978082D01*
X139806393Y-105069719D01*
X139836989Y-105170581D01*
X139929002Y-105342725D01*
X139931817Y-105347990D01*
X140059428Y-105503485D01*
X140201422Y-105620016D01*
X140214927Y-105631099D01*
X140392333Y-105725925D01*
X140584830Y-105784318D01*
X140785020Y-105804035D01*
X140985210Y-105784318D01*
X141177707Y-105725925D01*
X141355113Y-105631099D01*
X141510611Y-105503485D01*
X141638225Y-105347987D01*
X141733051Y-105170581D01*
X141791444Y-104978084D01*
X141811161Y-104777894D01*
X141791444Y-104577704D01*
X141733051Y-104385207D01*
X141638225Y-104207801D01*
X141619248Y-104184677D01*
X141510613Y-104052304D01*
X141407842Y-103967961D01*
X141368508Y-103910215D01*
X141362508Y-103872109D01*
X141362508Y-99207800D01*
X141382193Y-99140761D01*
X141407845Y-99111946D01*
X141414625Y-99106382D01*
X141460599Y-99068652D01*
X141588213Y-98913154D01*
X141683039Y-98735748D01*
X141741432Y-98543251D01*
X141761149Y-98343061D01*
X141741432Y-98142871D01*
X141683039Y-97950374D01*
X141588213Y-97772968D01*
X141588210Y-97772964D01*
X141460599Y-97617469D01*
X141305104Y-97489858D01*
X141305102Y-97489857D01*
X141305101Y-97489856D01*
X141127695Y-97395030D01*
X141031446Y-97365833D01*
X140935196Y-97336636D01*
X140735008Y-97316920D01*
X140534819Y-97336636D01*
X140342318Y-97395031D01*
X140164911Y-97489858D01*
X140009416Y-97617469D01*
X139881805Y-97772964D01*
X139786978Y-97950371D01*
X139728583Y-98142872D01*
X139708867Y-98343061D01*
X129840499Y-98343061D01*
X129840499Y-76434936D01*
X154037330Y-76434936D01*
X154037331Y-76434942D01*
X154043738Y-76494549D01*
X154094032Y-76629394D01*
X154094036Y-76629401D01*
X154180282Y-76744610D01*
X154180285Y-76744613D01*
X154295494Y-76830859D01*
X154295501Y-76830863D01*
X154430347Y-76881157D01*
X154430346Y-76881157D01*
X154437274Y-76881901D01*
X154489957Y-76887566D01*
X155655702Y-76887565D01*
X155715313Y-76881157D01*
X155850161Y-76830862D01*
X155850167Y-76830856D01*
X155857952Y-76826608D01*
X155859570Y-76829572D01*
X155909671Y-76810849D01*
X155954591Y-76815866D01*
X156092830Y-76857800D01*
X156092830Y-76541296D01*
X156100649Y-76497961D01*
X156101919Y-76494554D01*
X156101921Y-76494549D01*
X156108330Y-76434939D01*
X156108329Y-75675661D01*
X156134812Y-75757165D01*
X156201645Y-75831391D01*
X156292890Y-75872016D01*
X156367525Y-75872016D01*
X156440528Y-75856499D01*
X156521333Y-75797791D01*
X156571273Y-75711292D01*
X156577330Y-75653661D01*
X156577330Y-75902930D01*
X156592233Y-76054249D01*
X156592830Y-76066403D01*
X156592830Y-76857800D01*
X156740828Y-76812905D01*
X156740831Y-76812904D01*
X156918847Y-76717753D01*
X156987249Y-76703511D01*
X157035753Y-76717753D01*
X157214639Y-76813370D01*
X157214641Y-76813370D01*
X157214644Y-76813372D01*
X157409837Y-76872583D01*
X157612830Y-76892576D01*
X157815823Y-76872583D01*
X158011016Y-76813372D01*
X158190906Y-76717218D01*
X158348582Y-76587818D01*
X158477982Y-76430142D01*
X158574136Y-76250252D01*
X158633347Y-76055059D01*
X158648330Y-75902934D01*
X158648330Y-75371198D01*
X158633347Y-75219073D01*
X158574136Y-75023880D01*
X158574134Y-75023877D01*
X158574134Y-75023875D01*
X158477985Y-74843995D01*
X158477984Y-74843993D01*
X158477982Y-74843990D01*
X158386762Y-74732837D01*
X158348582Y-74686313D01*
X158266627Y-74619056D01*
X158190906Y-74556914D01*
X158190902Y-74556912D01*
X158190900Y-74556910D01*
X158011020Y-74460761D01*
X157815821Y-74401548D01*
X157612830Y-74381556D01*
X157409838Y-74401548D01*
X157214639Y-74460761D01*
X157035753Y-74556379D01*
X156967351Y-74570621D01*
X156918847Y-74556379D01*
X156740825Y-74461224D01*
X156592831Y-74416330D01*
X156592830Y-74416330D01*
X156592830Y-75207733D01*
X156592233Y-75219887D01*
X156577330Y-75371201D01*
X156577330Y-75598468D01*
X156550848Y-75516967D01*
X156484015Y-75442741D01*
X156392770Y-75402116D01*
X156318135Y-75402116D01*
X156245132Y-75417633D01*
X156164327Y-75476341D01*
X156114387Y-75562840D01*
X156108329Y-75620475D01*
X156108329Y-74839194D01*
X156101921Y-74779583D01*
X156100648Y-74776169D01*
X156092830Y-74732837D01*
X156092830Y-74416330D01*
X156092829Y-74416330D01*
X155954590Y-74458265D01*
X155884723Y-74458888D01*
X155858754Y-74446031D01*
X155857942Y-74447519D01*
X155850159Y-74443268D01*
X155715312Y-74392974D01*
X155715313Y-74392974D01*
X155655713Y-74386567D01*
X155655711Y-74386566D01*
X155655703Y-74386566D01*
X155655694Y-74386566D01*
X154489959Y-74386566D01*
X154489953Y-74386567D01*
X154430346Y-74392974D01*
X154295501Y-74443268D01*
X154295494Y-74443272D01*
X154180285Y-74529518D01*
X154180282Y-74529521D01*
X154094036Y-74644730D01*
X154094032Y-74644737D01*
X154043738Y-74779583D01*
X154037331Y-74839182D01*
X154037331Y-74839189D01*
X154037330Y-74839201D01*
X154037330Y-76434936D01*
X129840499Y-76434936D01*
X129840499Y-58614837D01*
X133643991Y-58614837D01*
X133653892Y-58847913D01*
X133653893Y-58847922D01*
X133703043Y-59075979D01*
X133703044Y-59075982D01*
X133789844Y-59291991D01*
X133790028Y-59292448D01*
X133912345Y-59491104D01*
X133973796Y-59560926D01*
X134066476Y-59666231D01*
X134106934Y-59698899D01*
X134146726Y-59756330D01*
X134149152Y-59826158D01*
X134113442Y-59886212D01*
X134081442Y-59907756D01*
X134079087Y-59908854D01*
X133929861Y-60000897D01*
X133805891Y-60124867D01*
X133713850Y-60274088D01*
X133713848Y-60274093D01*
X133658701Y-60440515D01*
X133658700Y-60440522D01*
X133648207Y-60543226D01*
X133648207Y-60963213D01*
X134752494Y-60963213D01*
X134703503Y-61101061D01*
X134693258Y-61250831D01*
X134723801Y-61397810D01*
X134757690Y-61463213D01*
X133648208Y-61463213D01*
X133648208Y-61883199D01*
X133658701Y-61985910D01*
X133713848Y-62152332D01*
X133713850Y-62152337D01*
X133805891Y-62301558D01*
X133929861Y-62425528D01*
X134079082Y-62517569D01*
X134079087Y-62517571D01*
X134245509Y-62572718D01*
X134245516Y-62572719D01*
X134348226Y-62583212D01*
X134993206Y-62583212D01*
X134993207Y-62583211D01*
X134993207Y-61700331D01*
X135023595Y-61718811D01*
X135168147Y-61759313D01*
X135280560Y-61759313D01*
X135391928Y-61744006D01*
X135493207Y-61700014D01*
X135493207Y-62583212D01*
X136138179Y-62583212D01*
X136138193Y-62583211D01*
X136240904Y-62572718D01*
X136407326Y-62517571D01*
X136407331Y-62517569D01*
X136556552Y-62425528D01*
X136680522Y-62301558D01*
X136772563Y-62152337D01*
X136772565Y-62152332D01*
X136827712Y-61985910D01*
X136827713Y-61985903D01*
X136838206Y-61883199D01*
X136838207Y-61883186D01*
X136838207Y-61463213D01*
X135733920Y-61463213D01*
X135782911Y-61325365D01*
X135793156Y-61175595D01*
X135762613Y-61028616D01*
X135728724Y-60963213D01*
X136838206Y-60963213D01*
X136838206Y-60640524D01*
X154066100Y-60640524D01*
X154066101Y-60640541D01*
X154076600Y-60743319D01*
X154076601Y-60743322D01*
X154113497Y-60854664D01*
X154131786Y-60909857D01*
X154223888Y-61059179D01*
X154347944Y-61183235D01*
X154497266Y-61275337D01*
X154663803Y-61330522D01*
X154766591Y-61341023D01*
X156106608Y-61341022D01*
X156209397Y-61330522D01*
X156375934Y-61275337D01*
X156525256Y-61183235D01*
X156649312Y-61059179D01*
X156741414Y-60909857D01*
X156741417Y-60909845D01*
X156742695Y-60907107D01*
X156744080Y-60905533D01*
X156745205Y-60903710D01*
X156745516Y-60903902D01*
X156788863Y-60854664D01*
X156856055Y-60835506D01*
X156922938Y-60855716D01*
X156944605Y-60873702D01*
X157068203Y-61002662D01*
X157068204Y-61002663D01*
X157255697Y-61141333D01*
X157463938Y-61246326D01*
X157686930Y-61314616D01*
X157686928Y-61314616D01*
X157726599Y-61319696D01*
X157726600Y-61319696D01*
X157726600Y-60232641D01*
X157756988Y-60251121D01*
X157901540Y-60291623D01*
X158013953Y-60291623D01*
X158125321Y-60276316D01*
X158226600Y-60232324D01*
X158226600Y-61318097D01*
X158379218Y-61285206D01*
X158379219Y-61285206D01*
X158595605Y-61198255D01*
X158794192Y-61075981D01*
X158969256Y-60921905D01*
X158969260Y-60921901D01*
X159115757Y-60740468D01*
X159115764Y-60740457D01*
X159138389Y-60699958D01*
X159188268Y-60651031D01*
X159256681Y-60636838D01*
X159321907Y-60661885D01*
X159349378Y-60690994D01*
X159384744Y-60743319D01*
X159446447Y-60834611D01*
X159483913Y-60873702D01*
X159607872Y-61003039D01*
X159607873Y-61003040D01*
X159795434Y-61141760D01*
X159795436Y-61141761D01*
X159795439Y-61141763D01*
X160003753Y-61246793D01*
X160226820Y-61315106D01*
X160458224Y-61344739D01*
X160691307Y-61334837D01*
X160919365Y-61285687D01*
X161135835Y-61198702D01*
X161334491Y-61076385D01*
X161509618Y-60922254D01*
X161656178Y-60740743D01*
X161678976Y-60699933D01*
X161728855Y-60651006D01*
X161797268Y-60636813D01*
X161862494Y-60661860D01*
X161889965Y-60690969D01*
X161986835Y-60834294D01*
X162148203Y-61002662D01*
X162148204Y-61002663D01*
X162335697Y-61141333D01*
X162543938Y-61246326D01*
X162766930Y-61314616D01*
X162766928Y-61314616D01*
X162806599Y-61319696D01*
X162806600Y-61319696D01*
X162806600Y-60232641D01*
X162836988Y-60251121D01*
X162981540Y-60291623D01*
X163093953Y-60291623D01*
X163205321Y-60276316D01*
X163306600Y-60232324D01*
X163306600Y-61318097D01*
X163459218Y-61285206D01*
X163459219Y-61285206D01*
X163675605Y-61198255D01*
X163874192Y-61075981D01*
X164049256Y-60921905D01*
X164049260Y-60921901D01*
X164195757Y-60740468D01*
X164195761Y-60740462D01*
X164309495Y-60536869D01*
X164387185Y-60316984D01*
X164387187Y-60316976D01*
X164426599Y-60087135D01*
X164426600Y-60087126D01*
X164426600Y-59995523D01*
X163547313Y-59995523D01*
X163596304Y-59857675D01*
X163606549Y-59707905D01*
X163576006Y-59560926D01*
X163542117Y-59495523D01*
X164426600Y-59495523D01*
X164426600Y-59462328D01*
X164426599Y-59462310D01*
X164411777Y-59288159D01*
X164353012Y-59062471D01*
X164256956Y-58849970D01*
X164256951Y-58849962D01*
X164126364Y-58656751D01*
X163964996Y-58488383D01*
X163964995Y-58488382D01*
X163959516Y-58484330D01*
X213556075Y-58484330D01*
X213586115Y-58680431D01*
X213586118Y-58680444D01*
X213655020Y-58866482D01*
X213655024Y-58866491D01*
X213759963Y-59034851D01*
X213759968Y-59034858D01*
X213892175Y-59173939D01*
X213896656Y-59178653D01*
X214059493Y-59291991D01*
X214241812Y-59370230D01*
X214436148Y-59410167D01*
X214884821Y-59410167D01*
X215032727Y-59395126D01*
X215104825Y-59372505D01*
X215222025Y-59335734D01*
X215395493Y-59239451D01*
X215546029Y-59110220D01*
X215667469Y-58953333D01*
X215754842Y-58775211D01*
X215804571Y-58583147D01*
X215809582Y-58484330D01*
X218556075Y-58484330D01*
X218586115Y-58680431D01*
X218586118Y-58680444D01*
X218655020Y-58866482D01*
X218655024Y-58866491D01*
X218759963Y-59034851D01*
X218759968Y-59034858D01*
X218892175Y-59173939D01*
X218896656Y-59178653D01*
X219059493Y-59291991D01*
X219241812Y-59370230D01*
X219436148Y-59410167D01*
X219884821Y-59410167D01*
X220032727Y-59395126D01*
X220104825Y-59372505D01*
X220222025Y-59335734D01*
X220395493Y-59239451D01*
X220546029Y-59110220D01*
X220667469Y-58953333D01*
X220754842Y-58775211D01*
X220804571Y-58583147D01*
X220814619Y-58385004D01*
X220784577Y-58188894D01*
X220715672Y-58002847D01*
X220715669Y-58002842D01*
X220610730Y-57834482D01*
X220610725Y-57834475D01*
X220474040Y-57690683D01*
X220474039Y-57690682D01*
X220311200Y-57577342D01*
X220128882Y-57499104D01*
X219934546Y-57459167D01*
X219485874Y-57459167D01*
X219485873Y-57459167D01*
X219337966Y-57474207D01*
X219148676Y-57533597D01*
X219148667Y-57533601D01*
X218975199Y-57629884D01*
X218975198Y-57629884D01*
X218824666Y-57759112D01*
X218824664Y-57759113D01*
X218703226Y-57915998D01*
X218703224Y-57916002D01*
X218615850Y-58094126D01*
X218566124Y-58286178D01*
X218566123Y-58286184D01*
X218556075Y-58484329D01*
X218556075Y-58484330D01*
X215809582Y-58484330D01*
X215814619Y-58385004D01*
X215784577Y-58188894D01*
X215715672Y-58002847D01*
X215715669Y-58002842D01*
X215610730Y-57834482D01*
X215610725Y-57834475D01*
X215474040Y-57690683D01*
X215474039Y-57690682D01*
X215311200Y-57577342D01*
X215128882Y-57499104D01*
X214934546Y-57459167D01*
X214485874Y-57459167D01*
X214485873Y-57459167D01*
X214337966Y-57474207D01*
X214148676Y-57533597D01*
X214148667Y-57533601D01*
X213975199Y-57629884D01*
X213975198Y-57629884D01*
X213824666Y-57759112D01*
X213824664Y-57759113D01*
X213703226Y-57915998D01*
X213703224Y-57916002D01*
X213615850Y-58094126D01*
X213566124Y-58286178D01*
X213566123Y-58286184D01*
X213556075Y-58484329D01*
X213556075Y-58484330D01*
X163959516Y-58484330D01*
X163777502Y-58349712D01*
X163569261Y-58244719D01*
X163346275Y-58176430D01*
X163346269Y-58176429D01*
X163306600Y-58171348D01*
X163306600Y-59258404D01*
X163276212Y-59239925D01*
X163131660Y-59199423D01*
X163019247Y-59199423D01*
X162907879Y-59214730D01*
X162806600Y-59258721D01*
X162806600Y-58172947D01*
X162806599Y-58172947D01*
X162653980Y-58205839D01*
X162653979Y-58205839D01*
X162437594Y-58292790D01*
X162239007Y-58415064D01*
X162063943Y-58569140D01*
X162063939Y-58569144D01*
X161917442Y-58750577D01*
X161917438Y-58750583D01*
X161894809Y-58791090D01*
X161844928Y-58840015D01*
X161776515Y-58854207D01*
X161711290Y-58829158D01*
X161683821Y-58800051D01*
X161602980Y-58680444D01*
X161586753Y-58656435D01*
X161425328Y-58488007D01*
X161425327Y-58488006D01*
X161425326Y-58488005D01*
X161237765Y-58349285D01*
X161125714Y-58292790D01*
X161029447Y-58244253D01*
X160806380Y-58175940D01*
X160806378Y-58175939D01*
X160806376Y-58175939D01*
X160574970Y-58146306D01*
X160341899Y-58156208D01*
X160341890Y-58156209D01*
X160113833Y-58205359D01*
X160113830Y-58205360D01*
X159897368Y-58292342D01*
X159698710Y-58414660D01*
X159523580Y-58568793D01*
X159523577Y-58568796D01*
X159377026Y-58750296D01*
X159377022Y-58750302D01*
X159354222Y-58791115D01*
X159304341Y-58840040D01*
X159235928Y-58854232D01*
X159170703Y-58829183D01*
X159143233Y-58800075D01*
X159046363Y-58656750D01*
X158884996Y-58488383D01*
X158884995Y-58488382D01*
X158697502Y-58349712D01*
X158489261Y-58244719D01*
X158266275Y-58176430D01*
X158266269Y-58176429D01*
X158226600Y-58171348D01*
X158226600Y-59258404D01*
X158196212Y-59239925D01*
X158051660Y-59199423D01*
X157939247Y-59199423D01*
X157827879Y-59214730D01*
X157726600Y-59258721D01*
X157726600Y-58172947D01*
X157726599Y-58172947D01*
X157573980Y-58205839D01*
X157573979Y-58205839D01*
X157357594Y-58292790D01*
X157159007Y-58415064D01*
X156983943Y-58569140D01*
X156951499Y-58609321D01*
X156894068Y-58649113D01*
X156824240Y-58651538D01*
X156764186Y-58615827D01*
X156742636Y-58583813D01*
X156741416Y-58581197D01*
X156741414Y-58581189D01*
X156649312Y-58431867D01*
X156525256Y-58307811D01*
X156422216Y-58244256D01*
X156375936Y-58215710D01*
X156375931Y-58215708D01*
X156346148Y-58205839D01*
X156209397Y-58160524D01*
X156209395Y-58160523D01*
X156106610Y-58150023D01*
X154766598Y-58150023D01*
X154766581Y-58150024D01*
X154663803Y-58160523D01*
X154663800Y-58160524D01*
X154497268Y-58215708D01*
X154497263Y-58215710D01*
X154347942Y-58307812D01*
X154223889Y-58431865D01*
X154131787Y-58581186D01*
X154131785Y-58581191D01*
X154106747Y-58656751D01*
X154076601Y-58747726D01*
X154076601Y-58747727D01*
X154076600Y-58747727D01*
X154066100Y-58850506D01*
X154066100Y-60640524D01*
X136838206Y-60640524D01*
X136838206Y-60543241D01*
X136838205Y-60543226D01*
X136827712Y-60440515D01*
X136772565Y-60274093D01*
X136772563Y-60274088D01*
X136680522Y-60124867D01*
X136556552Y-60000897D01*
X136407328Y-59908855D01*
X136404881Y-59907714D01*
X136403483Y-59906483D01*
X136401182Y-59905064D01*
X136401424Y-59904670D01*
X136352440Y-59861543D01*
X136333286Y-59794350D01*
X136353499Y-59727469D01*
X136371476Y-59705813D01*
X136500723Y-59581941D01*
X136639447Y-59394374D01*
X136744477Y-59186060D01*
X136812790Y-58962993D01*
X136842423Y-58731589D01*
X136832521Y-58498506D01*
X136783371Y-58270448D01*
X136696386Y-58053978D01*
X136574069Y-57855322D01*
X136419938Y-57680195D01*
X136419936Y-57680193D01*
X136419933Y-57680190D01*
X136238433Y-57533639D01*
X136238427Y-57533634D01*
X136034761Y-57419859D01*
X135814798Y-57342142D01*
X135814793Y-57342140D01*
X135814791Y-57342140D01*
X135814787Y-57342139D01*
X135814786Y-57342139D01*
X135584862Y-57302713D01*
X135584854Y-57302713D01*
X134959991Y-57302713D01*
X134959972Y-57302713D01*
X134785760Y-57317541D01*
X134785758Y-57317542D01*
X134559988Y-57376327D01*
X134347404Y-57472421D01*
X134154118Y-57603060D01*
X134154116Y-57603062D01*
X133985690Y-57764485D01*
X133985689Y-57764486D01*
X133846969Y-57952047D01*
X133741940Y-58160360D01*
X133741937Y-58160366D01*
X133673623Y-58383436D01*
X133643991Y-58614837D01*
X129840499Y-58614837D01*
X129840499Y-56165210D01*
X212676847Y-56165210D01*
X212691438Y-56313366D01*
X212749107Y-56503475D01*
X212842748Y-56678665D01*
X212842752Y-56678672D01*
X212968778Y-56832235D01*
X213122341Y-56958261D01*
X213122348Y-56958265D01*
X213297538Y-57051906D01*
X213297540Y-57051906D01*
X213297543Y-57051908D01*
X213487646Y-57109575D01*
X213487645Y-57109575D01*
X213505371Y-57111320D01*
X213685347Y-57129047D01*
X213883048Y-57109575D01*
X214073151Y-57051908D01*
X214248351Y-56958262D01*
X214401915Y-56832235D01*
X214527942Y-56678671D01*
X214621588Y-56503471D01*
X214679255Y-56313368D01*
X214693847Y-56165214D01*
X214693847Y-56165210D01*
X219676847Y-56165210D01*
X219691438Y-56313366D01*
X219749107Y-56503475D01*
X219842748Y-56678665D01*
X219842752Y-56678672D01*
X219968778Y-56832235D01*
X220122341Y-56958261D01*
X220122348Y-56958265D01*
X220297538Y-57051906D01*
X220297540Y-57051906D01*
X220297543Y-57051908D01*
X220487646Y-57109575D01*
X220487645Y-57109575D01*
X220505371Y-57111320D01*
X220685347Y-57129047D01*
X220883048Y-57109575D01*
X221073151Y-57051908D01*
X221248351Y-56958262D01*
X221401915Y-56832235D01*
X221527942Y-56678671D01*
X221621588Y-56503471D01*
X221679255Y-56313368D01*
X221693847Y-56165214D01*
X221693847Y-55304120D01*
X221679255Y-55155966D01*
X221621588Y-54965863D01*
X221621586Y-54965860D01*
X221621586Y-54965858D01*
X221527945Y-54790668D01*
X221527941Y-54790661D01*
X221401915Y-54637098D01*
X221248352Y-54511072D01*
X221248345Y-54511068D01*
X221073155Y-54417427D01*
X220978099Y-54388592D01*
X220883048Y-54359759D01*
X220883046Y-54359758D01*
X220883048Y-54359758D01*
X220685347Y-54340287D01*
X220487647Y-54359758D01*
X220297538Y-54417427D01*
X220122348Y-54511068D01*
X220122341Y-54511072D01*
X219968778Y-54637098D01*
X219842752Y-54790661D01*
X219842748Y-54790668D01*
X219749107Y-54965858D01*
X219691438Y-55155967D01*
X219676847Y-55304123D01*
X219676847Y-56165210D01*
X214693847Y-56165210D01*
X214693847Y-55304120D01*
X214679255Y-55155966D01*
X214621588Y-54965863D01*
X214621586Y-54965860D01*
X214621586Y-54965858D01*
X214527945Y-54790668D01*
X214527941Y-54790661D01*
X214401915Y-54637098D01*
X214248352Y-54511072D01*
X214248345Y-54511068D01*
X214073155Y-54417427D01*
X213978099Y-54388592D01*
X213883048Y-54359759D01*
X213883046Y-54359758D01*
X213883048Y-54359758D01*
X213685347Y-54340287D01*
X213487647Y-54359758D01*
X213297538Y-54417427D01*
X213122348Y-54511068D01*
X213122341Y-54511072D01*
X212968778Y-54637098D01*
X212842752Y-54790661D01*
X212842748Y-54790668D01*
X212749107Y-54965858D01*
X212691438Y-55155967D01*
X212676847Y-55304123D01*
X212676847Y-56165210D01*
X129840499Y-56165210D01*
X129840499Y-51224499D01*
X129860184Y-51157460D01*
X129912988Y-51111705D01*
X129964499Y-51100499D01*
X227540501Y-51100499D01*
X227607540Y-51120184D01*
G37*
%TD.AperFunction*%
%TD*%
M02*
