%TF.GenerationSoftware,KiCad,Pcbnew,7.0.10*%
%TF.CreationDate,2024-03-05T16:05:14-06:00*%
%TF.ProjectId,smart_helmet,736d6172-745f-4686-956c-6d65742e6b69,rev?*%
%TF.SameCoordinates,Original*%
%TF.FileFunction,Copper,L1,Top*%
%TF.FilePolarity,Positive*%
%FSLAX46Y46*%
G04 Gerber Fmt 4.6, Leading zero omitted, Abs format (unit mm)*
G04 Created by KiCad (PCBNEW 7.0.10) date 2024-03-05 16:05:14*
%MOMM*%
%LPD*%
G01*
G04 APERTURE LIST*
G04 Aperture macros list*
%AMRoundRect*
0 Rectangle with rounded corners*
0 $1 Rounding radius*
0 $2 $3 $4 $5 $6 $7 $8 $9 X,Y pos of 4 corners*
0 Add a 4 corners polygon primitive as box body*
4,1,4,$2,$3,$4,$5,$6,$7,$8,$9,$2,$3,0*
0 Add four circle primitives for the rounded corners*
1,1,$1+$1,$2,$3*
1,1,$1+$1,$4,$5*
1,1,$1+$1,$6,$7*
1,1,$1+$1,$8,$9*
0 Add four rect primitives between the rounded corners*
20,1,$1+$1,$2,$3,$4,$5,0*
20,1,$1+$1,$4,$5,$6,$7,0*
20,1,$1+$1,$6,$7,$8,$9,0*
20,1,$1+$1,$8,$9,$2,$3,0*%
G04 Aperture macros list end*
%TA.AperFunction,HeatsinkPad*%
%ADD10C,0.939800*%
%TD*%
%TA.AperFunction,SMDPad,CuDef*%
%ADD11R,1.050000X1.050000*%
%TD*%
%TA.AperFunction,SMDPad,CuDef*%
%ADD12R,4.200000X4.200000*%
%TD*%
%TA.AperFunction,SMDPad,CuDef*%
%ADD13R,1.500000X0.900000*%
%TD*%
%TA.AperFunction,SMDPad,CuDef*%
%ADD14R,0.900000X1.500000*%
%TD*%
%TA.AperFunction,SMDPad,CuDef*%
%ADD15RoundRect,0.250000X-1.275000X-1.125000X1.275000X-1.125000X1.275000X1.125000X-1.275000X1.125000X0*%
%TD*%
%TA.AperFunction,SMDPad,CuDef*%
%ADD16RoundRect,0.249997X-2.950003X-2.650003X2.950003X-2.650003X2.950003X2.650003X-2.950003X2.650003X0*%
%TD*%
%TA.AperFunction,SMDPad,CuDef*%
%ADD17RoundRect,0.250000X-0.850000X-0.350000X0.850000X-0.350000X0.850000X0.350000X-0.850000X0.350000X0*%
%TD*%
%TA.AperFunction,ComponentPad*%
%ADD18C,2.032000*%
%TD*%
%TA.AperFunction,ComponentPad*%
%ADD19C,5.080000*%
%TD*%
%TA.AperFunction,SMDPad,CuDef*%
%ADD20R,1.750000X0.450000*%
%TD*%
%TA.AperFunction,ComponentPad*%
%ADD21O,2.336800X1.828800*%
%TD*%
%TA.AperFunction,ComponentPad*%
%ADD22RoundRect,0.262758X0.905642X-0.651642X0.905642X0.651642X-0.905642X0.651642X-0.905642X-0.651642X0*%
%TD*%
%TA.AperFunction,SMDPad,CuDef*%
%ADD23RoundRect,0.250000X-0.350000X-0.450000X0.350000X-0.450000X0.350000X0.450000X-0.350000X0.450000X0*%
%TD*%
%TA.AperFunction,SMDPad,CuDef*%
%ADD24RoundRect,0.250000X-0.337500X-0.475000X0.337500X-0.475000X0.337500X0.475000X-0.337500X0.475000X0*%
%TD*%
%TA.AperFunction,ComponentPad*%
%ADD25O,1.828800X2.336800*%
%TD*%
%TA.AperFunction,ComponentPad*%
%ADD26RoundRect,0.262758X-0.651642X-0.905642X0.651642X-0.905642X0.651642X0.905642X-0.651642X0.905642X0*%
%TD*%
%TA.AperFunction,ViaPad*%
%ADD27C,1.193800*%
%TD*%
%TA.AperFunction,Conductor*%
%ADD28C,0.254000*%
%TD*%
%TA.AperFunction,Conductor*%
%ADD29C,0.508000*%
%TD*%
%TA.AperFunction,Conductor*%
%ADD30C,0.444500*%
%TD*%
G04 APERTURE END LIST*
D10*
%TO.P,U5,39,GND*%
%TO.N,GND*%
X151490000Y-88142500D03*
D11*
X151490000Y-88905000D03*
D10*
X153015000Y-89667500D03*
D12*
X151490000Y-88905000D03*
D10*
X150727500Y-88905000D03*
D11*
X151490000Y-87380000D03*
D10*
X152252500Y-88905000D03*
D11*
X153015000Y-87380000D03*
X149965000Y-90430000D03*
X149965000Y-88905000D03*
X153015000Y-88905000D03*
D10*
X151490000Y-89667500D03*
X153015000Y-88142500D03*
X150727500Y-87380000D03*
X150727500Y-90430000D03*
D11*
X151490000Y-90430000D03*
X153015000Y-90430000D03*
D10*
X149965000Y-89667500D03*
X152252500Y-87380000D03*
D11*
X149965000Y-87380000D03*
D10*
X152252500Y-90430000D03*
X149965000Y-88142500D03*
D13*
%TO.P,U5,38,GND*%
X160920000Y-81565000D03*
%TO.P,U5,37,IO23*%
%TO.N,/INT*%
X160920000Y-82835000D03*
%TO.P,U5,36,IO22*%
%TO.N,unconnected-(U5-IO22-Pad36)*%
X160920000Y-84105000D03*
%TO.P,U5,35,TXD0/IO1*%
%TO.N,Net-(U1-RXD)*%
X160920000Y-85375000D03*
%TO.P,U5,34,RXD0/IO3*%
%TO.N,Net-(U1-TXD)*%
X160920000Y-86645000D03*
%TO.P,U5,33,IO21*%
%TO.N,unconnected-(U5-IO21-Pad33)*%
X160920000Y-87915000D03*
%TO.P,U5,32,NC*%
%TO.N,unconnected-(U5-NC-Pad32)*%
X160920000Y-89185000D03*
%TO.P,U5,31,IO19*%
%TO.N,unconnected-(U5-IO19-Pad31)*%
X160920000Y-90455000D03*
%TO.P,U5,30,IO18*%
%TO.N,unconnected-(U5-IO18-Pad30)*%
X160920000Y-91725000D03*
%TO.P,U5,29,IO5*%
%TO.N,unconnected-(U5-IO5-Pad29)*%
X160920000Y-92995000D03*
%TO.P,U5,28,IO17*%
%TO.N,unconnected-(U5-IO17-Pad28)*%
X160920000Y-94265000D03*
%TO.P,U5,27,IO16*%
%TO.N,unconnected-(U5-IO16-Pad27)*%
X160920000Y-95535000D03*
%TO.P,U5,26,IO4*%
%TO.N,unconnected-(U5-IO4-Pad26)*%
X160920000Y-96805000D03*
%TO.P,U5,25,IO0*%
%TO.N,Net-(U5-IO0)*%
X160920000Y-98075000D03*
D14*
%TO.P,U5,24,IO2*%
%TO.N,unconnected-(U5-IO2-Pad24)*%
X157890000Y-99325000D03*
%TO.P,U5,23,IO15*%
%TO.N,unconnected-(U5-IO15-Pad23)*%
X156620000Y-99325000D03*
%TO.P,U5,22,SDI/SD1*%
%TO.N,/SCL*%
X155350000Y-99325000D03*
%TO.P,U5,21,SDO/SD0*%
%TO.N,/SDA*%
X154080000Y-99325000D03*
%TO.P,U5,20,SCK/CLK*%
%TO.N,unconnected-(U5-SCK{slash}CLK-Pad20)*%
X152810000Y-99325000D03*
%TO.P,U5,19,SCS/CMD*%
%TO.N,unconnected-(U5-SCS{slash}CMD-Pad19)*%
X151540000Y-99325000D03*
%TO.P,U5,18,SWP/SD3*%
%TO.N,unconnected-(U5-SWP{slash}SD3-Pad18)*%
X150270000Y-99325000D03*
%TO.P,U5,17,SHD/SD2*%
%TO.N,unconnected-(U5-SHD{slash}SD2-Pad17)*%
X149000000Y-99325000D03*
%TO.P,U5,16,IO13*%
%TO.N,unconnected-(U5-IO13-Pad16)*%
X147730000Y-99325000D03*
%TO.P,U5,15,GND*%
%TO.N,GND*%
X146460000Y-99325000D03*
D13*
%TO.P,U5,14,IO12*%
%TO.N,unconnected-(U5-IO12-Pad14)*%
X143420000Y-98075000D03*
%TO.P,U5,13,IO14*%
%TO.N,unconnected-(U5-IO14-Pad13)*%
X143420000Y-96805000D03*
%TO.P,U5,12,IO27*%
%TO.N,unconnected-(U5-IO27-Pad12)*%
X143420000Y-95535000D03*
%TO.P,U5,11,IO26*%
%TO.N,unconnected-(U5-IO26-Pad11)*%
X143420000Y-94265000D03*
%TO.P,U5,10,IO25*%
%TO.N,unconnected-(U5-IO25-Pad10)*%
X143420000Y-92995000D03*
%TO.P,U5,9,IO33*%
%TO.N,unconnected-(U5-IO33-Pad9)*%
X143420000Y-91725000D03*
%TO.P,U5,8,IO32*%
%TO.N,unconnected-(U5-IO32-Pad8)*%
X143420000Y-90455000D03*
%TO.P,U5,7,IO35*%
%TO.N,unconnected-(U5-IO35-Pad7)*%
X143420000Y-89185000D03*
%TO.P,U5,6,IO34*%
%TO.N,unconnected-(U5-IO34-Pad6)*%
X143420000Y-87915000D03*
%TO.P,U5,5,SENSOR_VN*%
%TO.N,unconnected-(U5-SENSOR_VN-Pad5)*%
X143420000Y-86645000D03*
%TO.P,U5,4,SENSOR_VP*%
%TO.N,unconnected-(U5-SENSOR_VP-Pad4)*%
X143420000Y-85375000D03*
%TO.P,U5,3,EN*%
%TO.N,unconnected-(U5-EN-Pad3)*%
X143420000Y-84105000D03*
%TO.P,U5,2,VDD*%
%TO.N,/VDD*%
X143420000Y-82835000D03*
%TO.P,U5,1,GND*%
%TO.N,GND*%
X143420000Y-81565000D03*
%TD*%
D15*
%TO.P,U4,2,GND*%
%TO.N,GND*%
X171109739Y-86666577D03*
X174459739Y-83616577D03*
X171109739Y-83616577D03*
X174459739Y-86666577D03*
D16*
X172784739Y-85141577D03*
D17*
%TO.P,U4,3,VO*%
%TO.N,/VDD*%
X166484739Y-87421577D03*
%TO.P,U4,1,VI*%
%TO.N,Net-(U3-OUT)*%
X166484739Y-82861577D03*
%TD*%
D18*
%TO.P,U3,1,IN*%
%TO.N,Net-(+12V_Battery1-Pin_2)*%
X146483800Y-120565100D03*
%TO.P,U3,2,OUT*%
%TO.N,Net-(U3-OUT)*%
X146483800Y-109516100D03*
D19*
%TO.P,U3,3,GND*%
%TO.N,GND*%
X163374800Y-115040600D03*
%TO.P,U3,4,4*%
%TO.N,unconnected-(U3-Pad4)*%
X133199600Y-115040600D03*
%TD*%
D20*
%TO.P,U1,28,OSCO*%
%TO.N,unconnected-(U1-OSCO-Pad28)*%
X138796554Y-83432878D03*
%TO.P,U1,27,OSCI*%
%TO.N,unconnected-(U1-OSCI-Pad27)*%
X138796554Y-84082878D03*
%TO.P,U1,26,TEST*%
%TO.N,unconnected-(U1-TEST-Pad26)*%
X138796554Y-84732878D03*
%TO.P,U1,25,AGND*%
%TO.N,unconnected-(U1-AGND-Pad25)*%
X138796554Y-85382878D03*
%TO.P,U1,24*%
%TO.N,N/C*%
X138796554Y-86032878D03*
%TO.P,U1,23,CBUS0*%
%TO.N,unconnected-(U1-CBUS0-Pad23)*%
X138796554Y-86682878D03*
%TO.P,U1,22,CBUS1*%
%TO.N,unconnected-(U1-CBUS1-Pad22)*%
X138796554Y-87332878D03*
%TO.P,U1,21,GND*%
%TO.N,GND*%
X138796554Y-87982878D03*
%TO.P,U1,20,VCC*%
%TO.N,unconnected-(U1-VCC-Pad20)*%
X138796554Y-88632878D03*
%TO.P,U1,19,~{RESET}*%
%TO.N,unconnected-(U1-~{RESET}-Pad19)*%
X138796554Y-89282878D03*
%TO.P,U1,18,GND*%
%TO.N,Net-(U5-IO0)*%
X138796554Y-89932878D03*
%TO.P,U1,17,3V3OUT*%
%TO.N,/VDD*%
X138796554Y-90582878D03*
%TO.P,U1,16,USBD-*%
%TO.N,unconnected-(U1-USBD--Pad16)*%
X138796554Y-91232878D03*
%TO.P,U1,15,USBD+*%
%TO.N,unconnected-(U1-USBD+-Pad15)*%
X138796554Y-91882878D03*
%TO.P,U1,14,CBUS3*%
%TO.N,unconnected-(U1-CBUS3-Pad14)*%
X131596554Y-91882878D03*
%TO.P,U1,13,CBUS2*%
%TO.N,unconnected-(U1-CBUS2-Pad13)*%
X131596554Y-91232878D03*
%TO.P,U1,12,CBUS4*%
%TO.N,unconnected-(U1-CBUS4-Pad12)*%
X131596554Y-90582878D03*
%TO.P,U1,11,CTS*%
%TO.N,unconnected-(U1-CTS-Pad11)*%
X131596554Y-89932878D03*
%TO.P,U1,10,DCD*%
%TO.N,unconnected-(U1-DCD-Pad10)*%
X131596554Y-89282878D03*
%TO.P,U1,9,DCR*%
%TO.N,unconnected-(U1-DCR-Pad9)*%
X131596554Y-88632878D03*
%TO.P,U1,8*%
%TO.N,N/C*%
X131596554Y-87982878D03*
%TO.P,U1,7,GND*%
%TO.N,unconnected-(U1-GND-Pad7)*%
X131596554Y-87332878D03*
%TO.P,U1,6,RI*%
%TO.N,unconnected-(U1-RI-Pad6)*%
X131596554Y-86682878D03*
%TO.P,U1,5,RXD*%
%TO.N,Net-(U1-RXD)*%
X131596554Y-86032878D03*
%TO.P,U1,4,VCCIO*%
%TO.N,unconnected-(U1-VCCIO-Pad4)*%
X131596554Y-85382878D03*
%TO.P,U1,3,RTS*%
%TO.N,unconnected-(U1-RTS-Pad3)*%
X131596554Y-84732878D03*
%TO.P,U1,2,DTR*%
%TO.N,unconnected-(U1-DTR-Pad2)*%
X131596554Y-84082878D03*
%TO.P,U1,1,TXD*%
%TO.N,Net-(U1-TXD)*%
X131596554Y-83432878D03*
%TD*%
D21*
%TO.P,SensorConn1,6,Pin_6*%
%TO.N,/VDD*%
X182118720Y-103957541D03*
%TO.P,SensorConn1,5,Pin_5*%
%TO.N,/SDA*%
X182118720Y-106497541D03*
%TO.P,SensorConn1,4,Pin_4*%
%TO.N,/SCL*%
X182118720Y-109037541D03*
%TO.P,SensorConn1,3,Pin_3*%
%TO.N,/INT*%
X182118720Y-111577541D03*
%TO.P,SensorConn1,2,Pin_2*%
%TO.N,GND*%
X182118720Y-114117541D03*
D22*
%TO.P,SensorConn1,1,Pin_1*%
X182118720Y-116657541D03*
%TD*%
D23*
%TO.P,R2,1*%
%TO.N,/VDD*%
X171895499Y-102679680D03*
%TO.P,R2,2*%
%TO.N,/SDA*%
X173895499Y-102679680D03*
%TD*%
%TO.P,R1,1*%
%TO.N,/VDD*%
X171996719Y-107841900D03*
%TO.P,R1,2*%
%TO.N,/SCL*%
X173996719Y-107841900D03*
%TD*%
D24*
%TO.P,C2,1*%
%TO.N,/VDD*%
X171828019Y-96977619D03*
%TO.P,C2,2*%
%TO.N,GND*%
X173903019Y-96977619D03*
%TD*%
%TO.P,C1,2*%
%TO.N,GND*%
X174071719Y-91815398D03*
%TO.P,C1,1*%
%TO.N,/VDD*%
X171996719Y-91815398D03*
%TD*%
D25*
%TO.P,+12V_Battery1,2,Pin_2*%
%TO.N,Net-(+12V_Battery1-Pin_2)*%
X183612780Y-98259739D03*
D26*
%TO.P,+12V_Battery1,1,Pin_1*%
%TO.N,GND*%
X181072780Y-98259739D03*
%TD*%
D27*
%TO.N,/SCL*%
X163901668Y-80911116D03*
X163949588Y-97107922D03*
%TO.N,/VDD*%
X166140769Y-99922815D03*
X145263821Y-96472608D03*
%TO.N,Net-(U1-RXD)*%
X124942101Y-84844132D03*
X159172628Y-85706684D03*
%TO.N,Net-(U1-TXD)*%
X128783651Y-84282428D03*
X157175981Y-86678406D03*
%TO.N,Net-(U5-IO0)*%
X141250719Y-90448077D03*
X156968329Y-94728890D03*
%TO.N,/INT*%
X158258550Y-84331109D03*
X158130765Y-97381198D03*
%TO.N,/SDA*%
X156907078Y-102861881D03*
X175979057Y-105225912D03*
%TD*%
D28*
%TO.N,GND*%
X145927511Y-108173100D02*
X156507300Y-108173100D01*
X142174619Y-90065385D02*
X142174619Y-104420208D01*
X142174619Y-104420208D02*
X145927511Y-108173100D01*
X156507300Y-108173100D02*
X163374800Y-115040600D01*
X138796554Y-87982878D02*
X140092112Y-87982878D01*
X140092112Y-87982878D02*
X142174619Y-90065385D01*
X166741811Y-85141577D02*
X172784739Y-85141577D01*
X160920000Y-81565000D02*
X163165234Y-81565000D01*
X163165234Y-81565000D02*
X166741811Y-85141577D01*
%TO.N,/SCL*%
X162120116Y-80911116D02*
X161997000Y-80788000D01*
X163901668Y-80911116D02*
X162120116Y-80911116D01*
X163949588Y-102043635D02*
X163949588Y-97107922D01*
X172431347Y-110525394D02*
X163949588Y-102043635D01*
X172447320Y-110541367D02*
X172431347Y-110525394D01*
X173757121Y-110541367D02*
X172447320Y-110541367D01*
X173996719Y-110301769D02*
X173757121Y-110541367D01*
X173996719Y-107841900D02*
X173996719Y-110301769D01*
D29*
%TO.N,/VDD*%
X144678000Y-82835000D02*
X143420000Y-82835000D01*
X145263821Y-83420821D02*
X144678000Y-82835000D01*
X145263821Y-96472608D02*
X145263821Y-83420821D01*
X166484739Y-99578845D02*
X166140769Y-99922815D01*
X166484739Y-87421577D02*
X166484739Y-99578845D01*
D28*
%TO.N,GND*%
X146460000Y-94697500D02*
X146460000Y-99325000D01*
X150727500Y-90430000D02*
X146460000Y-94697500D01*
D30*
%TO.N,/VDD*%
X137847682Y-82437250D02*
X137499304Y-82785628D01*
X137502054Y-90582878D02*
X138796554Y-90582878D01*
X142247750Y-82437250D02*
X137847682Y-82437250D01*
X137499304Y-82785628D02*
X137499304Y-90580128D01*
X142645500Y-82835000D02*
X142247750Y-82437250D01*
X143420000Y-82835000D02*
X142645500Y-82835000D01*
X137499304Y-90580128D02*
X137502054Y-90582878D01*
D28*
%TO.N,Net-(U1-RXD)*%
X126130847Y-86032878D02*
X131596554Y-86032878D01*
X124942101Y-84844132D02*
X126130847Y-86032878D01*
X159504312Y-85375000D02*
X159172628Y-85706684D01*
X160920000Y-85375000D02*
X159504312Y-85375000D01*
%TO.N,Net-(U1-TXD)*%
X129633201Y-83432878D02*
X131596554Y-83432878D01*
X128783651Y-84282428D02*
X129633201Y-83432878D01*
X157209387Y-86645000D02*
X157175981Y-86678406D01*
X160920000Y-86645000D02*
X157209387Y-86645000D01*
%TO.N,Net-(U5-IO0)*%
X140735520Y-89932878D02*
X138796554Y-89932878D01*
X141250719Y-90448077D02*
X140735520Y-89932878D01*
X160314439Y-98075000D02*
X156968329Y-94728890D01*
X160920000Y-98075000D02*
X160314439Y-98075000D01*
%TO.N,/INT*%
X158419891Y-84331109D02*
X159916000Y-82835000D01*
X158258550Y-84331109D02*
X158419891Y-84331109D01*
X159601567Y-98852000D02*
X158130765Y-97381198D01*
X159843000Y-98852000D02*
X159601567Y-98852000D01*
D29*
%TO.N,/VDD*%
X179686859Y-101525680D02*
X173049499Y-101525680D01*
X173049499Y-101525680D02*
X171895499Y-102679680D01*
X182118720Y-103957541D02*
X179686859Y-101525680D01*
D28*
%TO.N,/SDA*%
X154080000Y-100034803D02*
X154080000Y-99325000D01*
X156907078Y-102861881D02*
X154080000Y-100034803D01*
X177250686Y-106497541D02*
X175979057Y-105225912D01*
X182118720Y-106497541D02*
X177250686Y-106497541D01*
%TO.N,/SCL*%
X159843000Y-80788000D02*
X155350000Y-85281000D01*
X161997000Y-80788000D02*
X159843000Y-80788000D01*
X155350000Y-85281000D02*
X155350000Y-99325000D01*
%TO.N,Net-(U3-OUT)*%
X145140800Y-110859100D02*
X146483800Y-109516100D01*
X145140800Y-121149143D02*
X145140800Y-110859100D01*
X180186368Y-121989765D02*
X145981422Y-121989765D01*
X185203569Y-116972564D02*
X180186368Y-121989765D01*
X185203569Y-91137475D02*
X185203569Y-116972564D01*
X145981422Y-121989765D02*
X145140800Y-121149143D01*
X175980671Y-81914577D02*
X185203569Y-91137475D01*
X167431739Y-81914577D02*
X175980671Y-81914577D01*
X166484739Y-82861577D02*
X167431739Y-81914577D01*
%TO.N,GND*%
X172784739Y-90528418D02*
X174071719Y-91815398D01*
X172784739Y-85141577D02*
X172784739Y-90528418D01*
X143420000Y-81565000D02*
X144912500Y-81565000D01*
X144912500Y-81565000D02*
X150727500Y-87380000D01*
D29*
%TO.N,Net-(+12V_Battery1-Pin_2)*%
X183741120Y-117613355D02*
X180789375Y-120565100D01*
X180789375Y-120565100D02*
X146483800Y-120565100D01*
X183741120Y-98388079D02*
X183741120Y-117613355D01*
X183612780Y-98259739D02*
X183741120Y-98388079D01*
%TO.N,/VDD*%
X170878560Y-91815398D02*
X166484739Y-87421577D01*
X171996719Y-91815398D02*
X170878560Y-91815398D01*
X171828019Y-91984098D02*
X171996719Y-91815398D01*
X171828019Y-96977619D02*
X171828019Y-91984098D01*
X171895499Y-97045099D02*
X171828019Y-96977619D01*
X171895499Y-102679680D02*
X171895499Y-97045099D01*
X171900473Y-102679680D02*
X171895499Y-102679680D01*
X171996719Y-102775926D02*
X171900473Y-102679680D01*
X171996719Y-107841900D02*
X171996719Y-102775926D01*
D28*
%TO.N,/INT*%
X159916000Y-82835000D02*
X160920000Y-82835000D01*
X172568541Y-111577541D02*
X159843000Y-98852000D01*
X182118720Y-111577541D02*
X172568541Y-111577541D01*
%TO.N,/SCL*%
X175192360Y-109037541D02*
X173996719Y-107841900D01*
X182118720Y-109037541D02*
X175192360Y-109037541D01*
%TO.N,/SDA*%
X178300859Y-102679680D02*
X182118720Y-106497541D01*
X173895499Y-102679680D02*
X178300859Y-102679680D01*
%TO.N,GND*%
X174071719Y-91815398D02*
X174071719Y-96808919D01*
X174071719Y-96808919D02*
X173903019Y-96977619D01*
X175185139Y-98259739D02*
X173903019Y-96977619D01*
X181072780Y-98259739D02*
X175185139Y-98259739D01*
X182118720Y-114117541D02*
X182118720Y-116657541D01*
X182118720Y-116657541D02*
X164991741Y-116657541D01*
X164991741Y-116657541D02*
X163374800Y-115040600D01*
%TD*%
%TA.AperFunction,Conductor*%
%TO.N,GND*%
G36*
X182368720Y-116117071D02*
G01*
X182274046Y-116077856D01*
X182157717Y-116062541D01*
X182079723Y-116062541D01*
X181963394Y-116077856D01*
X181868720Y-116117071D01*
X181868720Y-114658010D01*
X181963394Y-114697226D01*
X182079723Y-114712541D01*
X182157717Y-114712541D01*
X182274046Y-114697226D01*
X182368720Y-114658010D01*
X182368720Y-116117071D01*
G37*
%TD.AperFunction*%
%TA.AperFunction,Conductor*%
G36*
X141964054Y-83179685D02*
G01*
X141984696Y-83196319D01*
X142090818Y-83302441D01*
X142102598Y-83316071D01*
X142115100Y-83332864D01*
X142116213Y-83334358D01*
X142146499Y-83359772D01*
X142182973Y-83411425D01*
X142188657Y-83426664D01*
X142193642Y-83496356D01*
X142188659Y-83513329D01*
X142175909Y-83547516D01*
X142175908Y-83547517D01*
X142169501Y-83607116D01*
X142169501Y-83607123D01*
X142169500Y-83607135D01*
X142169500Y-84602870D01*
X142169501Y-84602876D01*
X142175908Y-84662481D01*
X142188659Y-84696669D01*
X142193642Y-84766361D01*
X142188659Y-84783331D01*
X142175908Y-84817518D01*
X142170438Y-84868403D01*
X142169501Y-84877123D01*
X142169500Y-84877135D01*
X142169500Y-85872870D01*
X142169501Y-85872876D01*
X142175908Y-85932481D01*
X142188659Y-85966669D01*
X142193642Y-86036361D01*
X142188659Y-86053331D01*
X142175908Y-86087518D01*
X142169860Y-86143774D01*
X142169501Y-86147123D01*
X142169500Y-86147135D01*
X142169500Y-87142870D01*
X142169501Y-87142876D01*
X142175908Y-87202481D01*
X142188659Y-87236669D01*
X142193642Y-87306361D01*
X142188659Y-87323331D01*
X142175908Y-87357518D01*
X142170292Y-87409761D01*
X142169501Y-87417123D01*
X142169500Y-87417135D01*
X142169500Y-88412870D01*
X142169501Y-88412876D01*
X142175908Y-88472481D01*
X142188659Y-88506669D01*
X142193642Y-88576361D01*
X142188659Y-88593331D01*
X142175908Y-88627518D01*
X142172954Y-88655000D01*
X142169501Y-88687123D01*
X142169500Y-88687135D01*
X142169500Y-89519862D01*
X142149815Y-89586901D01*
X142097011Y-89632656D01*
X142027853Y-89642600D01*
X141964297Y-89613575D01*
X141961962Y-89611499D01*
X141914883Y-89568581D01*
X141914881Y-89568579D01*
X141741971Y-89461518D01*
X141741962Y-89461514D01*
X141599734Y-89406415D01*
X141552323Y-89388048D01*
X141352408Y-89350677D01*
X141149030Y-89350677D01*
X141149028Y-89350677D01*
X141065795Y-89366235D01*
X140996280Y-89359203D01*
X140983276Y-89353009D01*
X140968356Y-89344807D01*
X140968355Y-89344806D01*
X140968354Y-89344806D01*
X140968351Y-89344805D01*
X140968348Y-89344804D01*
X140948854Y-89339798D01*
X140930453Y-89333498D01*
X140911979Y-89325504D01*
X140911972Y-89325502D01*
X140868693Y-89318648D01*
X140857253Y-89316279D01*
X140814799Y-89305378D01*
X140814792Y-89305378D01*
X140794662Y-89305378D01*
X140775263Y-89303851D01*
X140755388Y-89300703D01*
X140755387Y-89300703D01*
X140711750Y-89304828D01*
X140700081Y-89305378D01*
X140296054Y-89305378D01*
X140229015Y-89285693D01*
X140183260Y-89232889D01*
X140172054Y-89181379D01*
X140172053Y-89010006D01*
X140172052Y-89009989D01*
X140167874Y-88971131D01*
X140167874Y-88944623D01*
X140172054Y-88905751D01*
X140172053Y-88360006D01*
X140167621Y-88318776D01*
X140167622Y-88292271D01*
X140171553Y-88255711D01*
X140171554Y-88255697D01*
X140171554Y-88207878D01*
X140155942Y-88192266D01*
X140142070Y-88188193D01*
X140109843Y-88158190D01*
X140039041Y-88063612D01*
X140034232Y-88057187D01*
X140009815Y-87991726D01*
X140024666Y-87923453D01*
X140034227Y-87908574D01*
X140109843Y-87807566D01*
X140157659Y-87771772D01*
X140171554Y-87757878D01*
X140171554Y-87710060D01*
X140171553Y-87710042D01*
X140167622Y-87673480D01*
X140167622Y-87646972D01*
X140172054Y-87605751D01*
X140172053Y-87060006D01*
X140172053Y-87060005D01*
X140172052Y-87059989D01*
X140167874Y-87021131D01*
X140167874Y-86994623D01*
X140172054Y-86955751D01*
X140172053Y-86410006D01*
X140172052Y-86409989D01*
X140167874Y-86371131D01*
X140167874Y-86344625D01*
X140172054Y-86305751D01*
X140172053Y-85760006D01*
X140172052Y-85759989D01*
X140167874Y-85721131D01*
X140167874Y-85694625D01*
X140172054Y-85655751D01*
X140172053Y-85110006D01*
X140172053Y-85110005D01*
X140172052Y-85109989D01*
X140167874Y-85071131D01*
X140167874Y-85044623D01*
X140172054Y-85005751D01*
X140172053Y-84460006D01*
X140172053Y-84460005D01*
X140172052Y-84459989D01*
X140167874Y-84421131D01*
X140167874Y-84394623D01*
X140172054Y-84355751D01*
X140172053Y-83810006D01*
X140172052Y-83809989D01*
X140167874Y-83771131D01*
X140167874Y-83744625D01*
X140172054Y-83705751D01*
X140172053Y-83283999D01*
X140191737Y-83216961D01*
X140244541Y-83171206D01*
X140296053Y-83160000D01*
X141897015Y-83160000D01*
X141964054Y-83179685D01*
G37*
%TD.AperFunction*%
%TA.AperFunction,Conductor*%
G36*
X186704171Y-57022883D02*
G01*
X186749926Y-57075687D01*
X186761132Y-57127198D01*
X186761132Y-130320641D01*
X186741447Y-130387680D01*
X186688643Y-130433435D01*
X186637132Y-130444641D01*
X123515080Y-130444641D01*
X123448041Y-130424956D01*
X123402286Y-130372152D01*
X123391080Y-130320641D01*
X123391080Y-115040600D01*
X130154309Y-115040600D01*
X130173456Y-115381559D01*
X130173458Y-115381571D01*
X130230660Y-115718237D01*
X130230662Y-115718246D01*
X130300900Y-115962048D01*
X130325201Y-116046396D01*
X130428821Y-116296556D01*
X130455887Y-116361900D01*
X130621080Y-116660796D01*
X130621083Y-116660801D01*
X130818475Y-116938997D01*
X130818696Y-116939308D01*
X131046254Y-117193946D01*
X131300892Y-117421504D01*
X131300895Y-117421506D01*
X131300896Y-117421507D01*
X131579398Y-117619116D01*
X131579403Y-117619119D01*
X131579406Y-117619120D01*
X131579408Y-117619122D01*
X131878298Y-117784312D01*
X132193804Y-117914999D01*
X132521959Y-118009539D01*
X132858636Y-118066743D01*
X133199600Y-118085891D01*
X133540564Y-118066743D01*
X133877241Y-118009539D01*
X134205396Y-117914999D01*
X134520902Y-117784312D01*
X134819792Y-117619122D01*
X134819797Y-117619118D01*
X134819801Y-117619116D01*
X134934910Y-117537440D01*
X135098308Y-117421504D01*
X135352946Y-117193946D01*
X135580504Y-116939308D01*
X135778122Y-116660792D01*
X135943312Y-116361902D01*
X136073999Y-116046396D01*
X136168539Y-115718241D01*
X136225743Y-115381564D01*
X136244891Y-115040600D01*
X136225743Y-114699636D01*
X136168539Y-114362959D01*
X136073999Y-114034804D01*
X135943312Y-113719298D01*
X135778122Y-113420408D01*
X135778120Y-113420406D01*
X135778119Y-113420403D01*
X135778116Y-113420398D01*
X135580507Y-113141896D01*
X135580506Y-113141895D01*
X135580504Y-113141892D01*
X135352946Y-112887254D01*
X135098308Y-112659696D01*
X135098305Y-112659694D01*
X135098303Y-112659692D01*
X134819801Y-112462083D01*
X134819796Y-112462080D01*
X134520900Y-112296887D01*
X134441569Y-112264027D01*
X134205396Y-112166201D01*
X134051798Y-112121950D01*
X133877246Y-112071662D01*
X133877237Y-112071660D01*
X133540571Y-112014458D01*
X133540559Y-112014456D01*
X133199600Y-111995309D01*
X132858640Y-112014456D01*
X132858628Y-112014458D01*
X132521962Y-112071660D01*
X132521953Y-112071662D01*
X132195845Y-112165613D01*
X132193804Y-112166201D01*
X132132073Y-112191771D01*
X131878299Y-112296887D01*
X131579403Y-112462080D01*
X131579398Y-112462083D01*
X131300896Y-112659692D01*
X131046254Y-112887254D01*
X130818692Y-113141896D01*
X130621083Y-113420398D01*
X130621080Y-113420403D01*
X130455887Y-113719299D01*
X130325200Y-114034807D01*
X130230662Y-114362953D01*
X130230660Y-114362962D01*
X130173458Y-114699628D01*
X130173456Y-114699640D01*
X130154309Y-115040600D01*
X123391080Y-115040600D01*
X123391080Y-99575000D01*
X145510000Y-99575000D01*
X145510000Y-100122844D01*
X145516401Y-100182372D01*
X145516403Y-100182379D01*
X145566645Y-100317086D01*
X145566649Y-100317093D01*
X145652809Y-100432187D01*
X145652812Y-100432190D01*
X145767906Y-100518350D01*
X145767913Y-100518354D01*
X145902620Y-100568596D01*
X145902627Y-100568598D01*
X145962155Y-100574999D01*
X145962172Y-100575000D01*
X146210000Y-100575000D01*
X146210000Y-99575000D01*
X145510000Y-99575000D01*
X123391080Y-99575000D01*
X123391080Y-99075000D01*
X145510000Y-99075000D01*
X146210000Y-99075000D01*
X146210000Y-98075000D01*
X145962155Y-98075000D01*
X145902627Y-98081401D01*
X145902620Y-98081403D01*
X145767913Y-98131645D01*
X145767906Y-98131649D01*
X145652812Y-98217809D01*
X145652809Y-98217812D01*
X145566649Y-98332906D01*
X145566645Y-98332913D01*
X145516403Y-98467620D01*
X145516401Y-98467627D01*
X145510000Y-98527155D01*
X145510000Y-99075000D01*
X123391080Y-99075000D01*
X123391080Y-84844132D01*
X123840000Y-84844132D01*
X123858764Y-85046642D01*
X123858765Y-85046644D01*
X123914420Y-85242252D01*
X123914421Y-85242254D01*
X123914422Y-85242257D01*
X123925115Y-85263731D01*
X124005072Y-85424307D01*
X124005077Y-85424315D01*
X124127640Y-85586615D01*
X124277936Y-85723627D01*
X124277938Y-85723629D01*
X124450848Y-85830690D01*
X124450850Y-85830691D01*
X124450852Y-85830692D01*
X124640497Y-85904161D01*
X124840412Y-85941532D01*
X124840414Y-85941532D01*
X125043790Y-85941532D01*
X125070776Y-85936487D01*
X125140290Y-85943516D01*
X125181244Y-85970694D01*
X125628471Y-86417921D01*
X125638318Y-86430211D01*
X125638536Y-86430032D01*
X125643504Y-86436037D01*
X125692693Y-86482229D01*
X125695490Y-86484940D01*
X125715054Y-86504504D01*
X125718232Y-86506968D01*
X125727128Y-86514565D01*
X125759082Y-86544573D01*
X125759084Y-86544574D01*
X125776714Y-86554265D01*
X125792982Y-86564950D01*
X125808885Y-86577286D01*
X125849109Y-86594692D01*
X125859598Y-86599830D01*
X125869293Y-86605160D01*
X125898005Y-86620946D01*
X125898007Y-86620947D01*
X125898013Y-86620950D01*
X125917087Y-86625847D01*
X125917507Y-86625955D01*
X125935911Y-86632255D01*
X125954389Y-86640252D01*
X125997698Y-86647111D01*
X126009105Y-86649473D01*
X126051575Y-86660378D01*
X126071705Y-86660378D01*
X126091104Y-86661905D01*
X126110980Y-86665053D01*
X126150775Y-86661291D01*
X126154617Y-86660928D01*
X126166286Y-86660378D01*
X130097054Y-86660378D01*
X130164093Y-86680063D01*
X130209848Y-86732867D01*
X130221054Y-86784377D01*
X130221054Y-86955746D01*
X130221055Y-86955756D01*
X130225233Y-86994623D01*
X130225233Y-87021128D01*
X130221054Y-87060000D01*
X130221054Y-87605747D01*
X130221055Y-87605756D01*
X130225233Y-87644623D01*
X130225233Y-87671128D01*
X130221054Y-87710000D01*
X130221054Y-88255747D01*
X130221055Y-88255756D01*
X130225233Y-88294623D01*
X130225233Y-88321128D01*
X130221054Y-88360000D01*
X130221054Y-88905747D01*
X130221055Y-88905756D01*
X130225233Y-88944623D01*
X130225233Y-88971128D01*
X130221054Y-89010000D01*
X130221054Y-89555747D01*
X130221055Y-89555756D01*
X130225233Y-89594623D01*
X130225233Y-89621128D01*
X130221054Y-89660000D01*
X130221054Y-90205747D01*
X130221055Y-90205756D01*
X130225233Y-90244623D01*
X130225233Y-90271128D01*
X130221054Y-90310000D01*
X130221054Y-90855747D01*
X130221055Y-90855756D01*
X130225233Y-90894623D01*
X130225233Y-90921128D01*
X130221054Y-90960000D01*
X130221054Y-91505747D01*
X130221055Y-91505756D01*
X130225233Y-91544623D01*
X130225233Y-91571128D01*
X130221054Y-91610000D01*
X130221054Y-92155748D01*
X130221055Y-92155754D01*
X130227462Y-92215361D01*
X130277756Y-92350206D01*
X130277760Y-92350213D01*
X130364006Y-92465422D01*
X130364009Y-92465425D01*
X130479218Y-92551671D01*
X130479225Y-92551675D01*
X130614071Y-92601969D01*
X130614070Y-92601969D01*
X130620998Y-92602713D01*
X130673681Y-92608378D01*
X132519426Y-92608377D01*
X132579037Y-92601969D01*
X132713885Y-92551674D01*
X132829100Y-92465424D01*
X132915350Y-92350209D01*
X132965645Y-92215361D01*
X132972054Y-92155751D01*
X132972053Y-91610006D01*
X132972053Y-91610005D01*
X132972052Y-91609989D01*
X132967874Y-91571131D01*
X132967874Y-91544623D01*
X132972054Y-91505751D01*
X132972053Y-90960006D01*
X132972053Y-90960005D01*
X132972052Y-90959989D01*
X132967874Y-90921131D01*
X132967874Y-90894623D01*
X132972054Y-90855751D01*
X132972053Y-90558967D01*
X136771941Y-90558967D01*
X136775674Y-90601634D01*
X136775937Y-90619633D01*
X136775614Y-90625180D01*
X136775615Y-90625190D01*
X136778801Y-90643259D01*
X136779844Y-90650377D01*
X136780011Y-90651804D01*
X136780380Y-90655409D01*
X136786667Y-90727272D01*
X136788128Y-90734347D01*
X136788028Y-90734367D01*
X136789486Y-90740943D01*
X136789584Y-90740920D01*
X136791247Y-90747940D01*
X136799199Y-90769787D01*
X136804792Y-90790660D01*
X136804952Y-90791572D01*
X136804953Y-90791575D01*
X136815838Y-90816811D01*
X136819682Y-90826914D01*
X136839809Y-90887651D01*
X136842862Y-90894197D01*
X136842770Y-90894239D01*
X136845704Y-90900300D01*
X136845795Y-90900255D01*
X136849038Y-90906713D01*
X136859291Y-90922302D01*
X136869545Y-90941317D01*
X136871873Y-90946713D01*
X136871874Y-90946715D01*
X136894101Y-90976571D01*
X136900168Y-90985510D01*
X136916805Y-91012481D01*
X136928509Y-91031457D01*
X136932986Y-91037118D01*
X136932906Y-91037180D01*
X136937160Y-91042403D01*
X136937238Y-91042338D01*
X136941875Y-91047864D01*
X136951797Y-91057225D01*
X136966168Y-91073373D01*
X136972760Y-91082228D01*
X136972763Y-91082231D01*
X136972766Y-91082235D01*
X136972771Y-91082239D01*
X137009161Y-91112775D01*
X137017135Y-91120082D01*
X137020757Y-91123704D01*
X137025811Y-91127700D01*
X137033980Y-91134761D01*
X137064770Y-91163809D01*
X137064771Y-91163810D01*
X137064773Y-91163811D01*
X137072081Y-91168030D01*
X137089789Y-91180429D01*
X137102193Y-91190837D01*
X137102195Y-91190838D01*
X137108226Y-91194805D01*
X137108170Y-91194890D01*
X137113847Y-91198507D01*
X137113901Y-91198421D01*
X137120040Y-91202208D01*
X137120043Y-91202209D01*
X137120044Y-91202210D01*
X137173599Y-91227183D01*
X137183155Y-91232158D01*
X137209011Y-91247086D01*
X137211089Y-91248286D01*
X137214292Y-91249245D01*
X137234381Y-91257224D01*
X137253176Y-91266664D01*
X137253178Y-91266664D01*
X137259962Y-91269133D01*
X137259926Y-91269230D01*
X137266285Y-91271440D01*
X137266318Y-91271343D01*
X137273161Y-91273610D01*
X137273169Y-91273614D01*
X137322129Y-91283723D01*
X137383802Y-91316555D01*
X137417935Y-91377520D01*
X137421055Y-91405161D01*
X137421055Y-91505756D01*
X137425233Y-91544623D01*
X137425233Y-91571128D01*
X137421054Y-91610000D01*
X137421054Y-92155748D01*
X137421055Y-92155754D01*
X137427462Y-92215361D01*
X137477756Y-92350206D01*
X137477760Y-92350213D01*
X137564006Y-92465422D01*
X137564009Y-92465425D01*
X137679218Y-92551671D01*
X137679225Y-92551675D01*
X137814071Y-92601969D01*
X137814070Y-92601969D01*
X137820998Y-92602713D01*
X137873681Y-92608378D01*
X139719426Y-92608377D01*
X139779037Y-92601969D01*
X139913885Y-92551674D01*
X140029100Y-92465424D01*
X140115350Y-92350209D01*
X140165645Y-92215361D01*
X140172054Y-92155751D01*
X140172053Y-91610006D01*
X140172053Y-91610005D01*
X140172052Y-91609989D01*
X140167874Y-91571131D01*
X140167874Y-91544623D01*
X140172054Y-91505751D01*
X140172053Y-91210659D01*
X140191737Y-91143622D01*
X140244541Y-91097867D01*
X140313700Y-91087923D01*
X140377255Y-91116948D01*
X140395007Y-91135934D01*
X140436258Y-91190560D01*
X140586554Y-91327572D01*
X140586556Y-91327574D01*
X140759466Y-91434635D01*
X140759468Y-91434636D01*
X140759470Y-91434637D01*
X140949115Y-91508106D01*
X141149030Y-91545477D01*
X141149032Y-91545477D01*
X141352406Y-91545477D01*
X141352408Y-91545477D01*
X141552323Y-91508106D01*
X141741968Y-91434637D01*
X141914883Y-91327573D01*
X141961962Y-91284655D01*
X142024766Y-91254038D01*
X142094153Y-91262235D01*
X142148093Y-91306645D01*
X142169461Y-91373167D01*
X142169500Y-91376292D01*
X142169500Y-92222870D01*
X142169501Y-92222876D01*
X142175908Y-92282481D01*
X142188659Y-92316669D01*
X142193642Y-92386361D01*
X142188659Y-92403331D01*
X142175908Y-92437518D01*
X142172908Y-92465425D01*
X142169501Y-92497123D01*
X142169500Y-92497135D01*
X142169500Y-93492870D01*
X142169501Y-93492876D01*
X142175908Y-93552481D01*
X142188659Y-93586669D01*
X142193642Y-93656361D01*
X142188659Y-93673331D01*
X142175908Y-93707518D01*
X142169501Y-93767116D01*
X142169501Y-93767123D01*
X142169500Y-93767135D01*
X142169500Y-94762870D01*
X142169501Y-94762876D01*
X142175908Y-94822481D01*
X142188659Y-94856669D01*
X142193642Y-94926361D01*
X142188659Y-94943331D01*
X142175908Y-94977518D01*
X142169501Y-95037116D01*
X142169501Y-95037123D01*
X142169500Y-95037135D01*
X142169500Y-96032870D01*
X142169501Y-96032876D01*
X142175908Y-96092481D01*
X142188659Y-96126669D01*
X142193642Y-96196361D01*
X142188659Y-96213331D01*
X142175908Y-96247518D01*
X142169501Y-96307116D01*
X142169501Y-96307123D01*
X142169500Y-96307135D01*
X142169501Y-97302864D01*
X142169501Y-97302876D01*
X142175908Y-97362481D01*
X142188659Y-97396669D01*
X142193642Y-97466361D01*
X142188659Y-97483331D01*
X142175908Y-97517518D01*
X142170265Y-97570008D01*
X142169501Y-97577123D01*
X142169500Y-97577135D01*
X142169500Y-98572870D01*
X142169501Y-98572876D01*
X142175908Y-98632483D01*
X142226202Y-98767328D01*
X142226206Y-98767335D01*
X142312452Y-98882544D01*
X142312455Y-98882547D01*
X142427664Y-98968793D01*
X142427671Y-98968797D01*
X142562517Y-99019091D01*
X142562516Y-99019091D01*
X142569444Y-99019835D01*
X142622127Y-99025500D01*
X144217872Y-99025499D01*
X144277483Y-99019091D01*
X144412331Y-98968796D01*
X144527546Y-98882546D01*
X144613796Y-98767331D01*
X144664091Y-98632483D01*
X144670500Y-98572873D01*
X144670499Y-97600641D01*
X144690183Y-97533603D01*
X144742987Y-97487848D01*
X144812146Y-97477904D01*
X144839285Y-97485013D01*
X144962217Y-97532637D01*
X145162132Y-97570008D01*
X145162134Y-97570008D01*
X145365508Y-97570008D01*
X145365510Y-97570008D01*
X145565425Y-97532637D01*
X145755070Y-97459168D01*
X145927985Y-97352104D01*
X146078283Y-97215089D01*
X146200846Y-97052789D01*
X146291500Y-96870733D01*
X146347157Y-96675119D01*
X146365922Y-96472608D01*
X146347157Y-96270097D01*
X146291500Y-96074483D01*
X146231393Y-95953773D01*
X146200849Y-95892432D01*
X146200844Y-95892424D01*
X146144838Y-95818260D01*
X146078283Y-95730127D01*
X146078280Y-95730124D01*
X146078275Y-95730119D01*
X146058781Y-95712347D01*
X146022501Y-95652635D01*
X146018321Y-95620712D01*
X146018321Y-89155000D01*
X148890000Y-89155000D01*
X148890000Y-91052844D01*
X148896401Y-91112372D01*
X148896403Y-91112379D01*
X148946645Y-91247086D01*
X148946649Y-91247093D01*
X149032809Y-91362187D01*
X149032812Y-91362190D01*
X149147906Y-91448350D01*
X149147913Y-91448354D01*
X149282620Y-91498596D01*
X149282627Y-91498598D01*
X149342155Y-91504999D01*
X149342172Y-91505000D01*
X151240000Y-91505000D01*
X151740000Y-91505000D01*
X153637828Y-91505000D01*
X153637844Y-91504999D01*
X153697372Y-91498598D01*
X153697379Y-91498596D01*
X153832086Y-91448354D01*
X153832093Y-91448350D01*
X153947187Y-91362190D01*
X153947190Y-91362187D01*
X154033350Y-91247093D01*
X154033354Y-91247086D01*
X154083596Y-91112379D01*
X154083598Y-91112372D01*
X154089999Y-91052844D01*
X154090000Y-91052827D01*
X154090000Y-89155000D01*
X153265000Y-89155000D01*
X153265000Y-89563947D01*
X153280872Y-89579819D01*
X153314357Y-89641142D01*
X153309373Y-89710834D01*
X153280872Y-89755181D01*
X153265000Y-89771052D01*
X153265000Y-90556000D01*
X153245315Y-90623039D01*
X153192511Y-90668794D01*
X153141000Y-90680000D01*
X152356052Y-90680000D01*
X152340181Y-90695872D01*
X152278858Y-90729357D01*
X152209166Y-90724373D01*
X152164819Y-90695872D01*
X152148947Y-90680000D01*
X151740000Y-90680000D01*
X151740000Y-91505000D01*
X151240000Y-91505000D01*
X151240000Y-90680000D01*
X150831052Y-90680000D01*
X150815181Y-90695872D01*
X150753858Y-90729357D01*
X150684166Y-90724373D01*
X150639819Y-90695872D01*
X150623947Y-90680000D01*
X149839000Y-90680000D01*
X149771961Y-90660315D01*
X149726206Y-90607511D01*
X149715000Y-90556000D01*
X149715000Y-90430000D01*
X150569724Y-90430000D01*
X150590862Y-90508888D01*
X150648612Y-90566638D01*
X150707437Y-90582400D01*
X150747563Y-90582400D01*
X150806388Y-90566638D01*
X150864138Y-90508888D01*
X150885276Y-90430000D01*
X152094724Y-90430000D01*
X152115862Y-90508888D01*
X152173612Y-90566638D01*
X152232437Y-90582400D01*
X152272563Y-90582400D01*
X152331388Y-90566638D01*
X152389138Y-90508888D01*
X152410276Y-90430000D01*
X152389138Y-90351112D01*
X152331388Y-90293362D01*
X152272563Y-90277600D01*
X152232437Y-90277600D01*
X152173612Y-90293362D01*
X152115862Y-90351112D01*
X152094724Y-90430000D01*
X150885276Y-90430000D01*
X150864138Y-90351112D01*
X150806388Y-90293362D01*
X150747563Y-90277600D01*
X150707437Y-90277600D01*
X150648612Y-90293362D01*
X150590862Y-90351112D01*
X150569724Y-90430000D01*
X149715000Y-90430000D01*
X149715000Y-89771053D01*
X149699128Y-89755181D01*
X149665643Y-89693858D01*
X149667528Y-89667500D01*
X149807224Y-89667500D01*
X149828362Y-89746388D01*
X149886112Y-89804138D01*
X149944937Y-89819900D01*
X149985063Y-89819900D01*
X150043888Y-89804138D01*
X150101638Y-89746388D01*
X150122776Y-89667500D01*
X150318553Y-89667500D01*
X150727500Y-90076447D01*
X151136447Y-89667500D01*
X151332224Y-89667500D01*
X151353362Y-89746388D01*
X151411112Y-89804138D01*
X151469937Y-89819900D01*
X151510063Y-89819900D01*
X151568888Y-89804138D01*
X151626638Y-89746388D01*
X151647776Y-89667500D01*
X151843553Y-89667500D01*
X152252500Y-90076447D01*
X152661447Y-89667500D01*
X152857224Y-89667500D01*
X152878362Y-89746388D01*
X152936112Y-89804138D01*
X152994937Y-89819900D01*
X153035063Y-89819900D01*
X153093888Y-89804138D01*
X153151638Y-89746388D01*
X153172776Y-89667500D01*
X153151638Y-89588612D01*
X153093888Y-89530862D01*
X153035063Y-89515100D01*
X152994937Y-89515100D01*
X152936112Y-89530862D01*
X152878362Y-89588612D01*
X152857224Y-89667500D01*
X152661447Y-89667500D01*
X152252500Y-89258553D01*
X151843553Y-89667500D01*
X151647776Y-89667500D01*
X151626638Y-89588612D01*
X151568888Y-89530862D01*
X151510063Y-89515100D01*
X151469937Y-89515100D01*
X151411112Y-89530862D01*
X151353362Y-89588612D01*
X151332224Y-89667500D01*
X151136447Y-89667500D01*
X150727500Y-89258553D01*
X150318553Y-89667500D01*
X150122776Y-89667500D01*
X150101638Y-89588612D01*
X150043888Y-89530862D01*
X149985063Y-89515100D01*
X149944937Y-89515100D01*
X149886112Y-89530862D01*
X149828362Y-89588612D01*
X149807224Y-89667500D01*
X149667528Y-89667500D01*
X149670627Y-89624166D01*
X149699128Y-89579819D01*
X149714999Y-89563947D01*
X149715000Y-89563946D01*
X149715000Y-89155000D01*
X148890000Y-89155000D01*
X146018321Y-89155000D01*
X146018321Y-88905000D01*
X150569724Y-88905000D01*
X150590862Y-88983888D01*
X150648612Y-89041638D01*
X150707437Y-89057400D01*
X150747563Y-89057400D01*
X150806388Y-89041638D01*
X150864138Y-88983888D01*
X150885276Y-88905000D01*
X152094724Y-88905000D01*
X152115862Y-88983888D01*
X152173612Y-89041638D01*
X152232437Y-89057400D01*
X152272563Y-89057400D01*
X152331388Y-89041638D01*
X152389138Y-88983888D01*
X152410276Y-88905000D01*
X152389138Y-88826112D01*
X152331388Y-88768362D01*
X152272563Y-88752600D01*
X152232437Y-88752600D01*
X152173612Y-88768362D01*
X152115862Y-88826112D01*
X152094724Y-88905000D01*
X150885276Y-88905000D01*
X150864138Y-88826112D01*
X150806388Y-88768362D01*
X150747563Y-88752600D01*
X150707437Y-88752600D01*
X150648612Y-88768362D01*
X150590862Y-88826112D01*
X150569724Y-88905000D01*
X146018321Y-88905000D01*
X146018321Y-88655000D01*
X148890000Y-88655000D01*
X149715000Y-88655000D01*
X149715000Y-88246053D01*
X149699128Y-88230181D01*
X149665643Y-88168858D01*
X149667528Y-88142500D01*
X149807224Y-88142500D01*
X149828362Y-88221388D01*
X149886112Y-88279138D01*
X149944937Y-88294900D01*
X149985063Y-88294900D01*
X150043888Y-88279138D01*
X150101638Y-88221388D01*
X150122776Y-88142500D01*
X150318553Y-88142500D01*
X150727500Y-88551447D01*
X151136447Y-88142500D01*
X151332224Y-88142500D01*
X151353362Y-88221388D01*
X151411112Y-88279138D01*
X151469937Y-88294900D01*
X151510063Y-88294900D01*
X151568888Y-88279138D01*
X151626638Y-88221388D01*
X151647776Y-88142500D01*
X151843553Y-88142500D01*
X152252500Y-88551447D01*
X152661447Y-88142500D01*
X152857224Y-88142500D01*
X152878362Y-88221388D01*
X152936112Y-88279138D01*
X152994937Y-88294900D01*
X153035063Y-88294900D01*
X153093888Y-88279138D01*
X153151638Y-88221388D01*
X153172776Y-88142500D01*
X153151638Y-88063612D01*
X153093888Y-88005862D01*
X153035063Y-87990100D01*
X152994937Y-87990100D01*
X152936112Y-88005862D01*
X152878362Y-88063612D01*
X152857224Y-88142500D01*
X152661447Y-88142500D01*
X152252500Y-87733553D01*
X151843553Y-88142500D01*
X151647776Y-88142500D01*
X151626638Y-88063612D01*
X151568888Y-88005862D01*
X151510063Y-87990100D01*
X151469937Y-87990100D01*
X151411112Y-88005862D01*
X151353362Y-88063612D01*
X151332224Y-88142500D01*
X151136447Y-88142500D01*
X150727500Y-87733553D01*
X150318553Y-88142500D01*
X150122776Y-88142500D01*
X150101638Y-88063612D01*
X150043888Y-88005862D01*
X149985063Y-87990100D01*
X149944937Y-87990100D01*
X149886112Y-88005862D01*
X149828362Y-88063612D01*
X149807224Y-88142500D01*
X149667528Y-88142500D01*
X149670627Y-88099166D01*
X149699128Y-88054819D01*
X149714999Y-88038947D01*
X149715000Y-88038946D01*
X149715000Y-87380000D01*
X150569724Y-87380000D01*
X150590862Y-87458888D01*
X150648612Y-87516638D01*
X150707437Y-87532400D01*
X150747563Y-87532400D01*
X150806388Y-87516638D01*
X150864138Y-87458888D01*
X150885276Y-87380000D01*
X152094724Y-87380000D01*
X152115862Y-87458888D01*
X152173612Y-87516638D01*
X152232437Y-87532400D01*
X152272563Y-87532400D01*
X152331388Y-87516638D01*
X152389138Y-87458888D01*
X152410276Y-87380000D01*
X152389138Y-87301112D01*
X152331388Y-87243362D01*
X152272563Y-87227600D01*
X152232437Y-87227600D01*
X152173612Y-87243362D01*
X152115862Y-87301112D01*
X152094724Y-87380000D01*
X150885276Y-87380000D01*
X150864138Y-87301112D01*
X150806388Y-87243362D01*
X150747563Y-87227600D01*
X150707437Y-87227600D01*
X150648612Y-87243362D01*
X150590862Y-87301112D01*
X150569724Y-87380000D01*
X149715000Y-87380000D01*
X149715000Y-87254000D01*
X149734685Y-87186961D01*
X149787489Y-87141206D01*
X149839000Y-87130000D01*
X150623947Y-87130000D01*
X150623947Y-87129999D01*
X150639819Y-87114128D01*
X150701142Y-87080643D01*
X150770834Y-87085627D01*
X150815181Y-87114128D01*
X150831053Y-87130000D01*
X151240000Y-87130000D01*
X151240000Y-86305000D01*
X151740000Y-86305000D01*
X151740000Y-87130000D01*
X152148947Y-87130000D01*
X152148947Y-87129999D01*
X152164819Y-87114128D01*
X152226142Y-87080643D01*
X152295834Y-87085627D01*
X152340181Y-87114128D01*
X152356053Y-87130000D01*
X153141000Y-87130000D01*
X153208039Y-87149685D01*
X153253794Y-87202489D01*
X153265000Y-87254000D01*
X153265000Y-88038947D01*
X153280872Y-88054819D01*
X153314357Y-88116142D01*
X153309373Y-88185834D01*
X153280872Y-88230181D01*
X153265000Y-88246052D01*
X153265000Y-88655000D01*
X154090000Y-88655000D01*
X154090000Y-86757172D01*
X154089999Y-86757152D01*
X154083598Y-86697627D01*
X154083596Y-86697620D01*
X154033354Y-86562913D01*
X154033350Y-86562906D01*
X153947190Y-86447812D01*
X153947187Y-86447809D01*
X153832093Y-86361649D01*
X153832086Y-86361645D01*
X153697379Y-86311403D01*
X153697372Y-86311401D01*
X153637844Y-86305000D01*
X151740000Y-86305000D01*
X151240000Y-86305000D01*
X149342155Y-86305000D01*
X149282627Y-86311401D01*
X149282620Y-86311403D01*
X149147913Y-86361645D01*
X149147906Y-86361649D01*
X149032812Y-86447809D01*
X149032809Y-86447812D01*
X148946649Y-86562906D01*
X148946645Y-86562913D01*
X148896403Y-86697620D01*
X148896401Y-86697627D01*
X148890001Y-86757152D01*
X148890000Y-86757172D01*
X148890000Y-88655000D01*
X146018321Y-88655000D01*
X146018321Y-83484820D01*
X146019630Y-83466850D01*
X146019851Y-83465337D01*
X146023136Y-83442915D01*
X146021714Y-83426666D01*
X146018793Y-83393273D01*
X146018321Y-83382465D01*
X146018321Y-83376887D01*
X146018321Y-83376880D01*
X146014700Y-83345903D01*
X146014336Y-83342331D01*
X146007764Y-83267209D01*
X146007762Y-83267204D01*
X146006304Y-83260140D01*
X146006358Y-83260128D01*
X146004702Y-83252658D01*
X146004648Y-83252671D01*
X146002981Y-83245643D01*
X146002981Y-83245637D01*
X145977190Y-83174778D01*
X145976007Y-83171373D01*
X145970868Y-83155865D01*
X145952285Y-83099785D01*
X145952282Y-83099781D01*
X145949233Y-83093240D01*
X145949282Y-83093216D01*
X145945949Y-83086330D01*
X145945900Y-83086355D01*
X145942656Y-83079896D01*
X145901197Y-83016859D01*
X145899290Y-83013867D01*
X145859691Y-82949667D01*
X145859688Y-82949664D01*
X145855213Y-82944004D01*
X145855255Y-82943970D01*
X145850418Y-82938032D01*
X145850377Y-82938067D01*
X145845733Y-82932533D01*
X145790882Y-82880784D01*
X145788294Y-82878270D01*
X145256766Y-82346742D01*
X145244984Y-82333109D01*
X145240953Y-82327694D01*
X145230539Y-82313706D01*
X145230537Y-82313704D01*
X145230538Y-82313704D01*
X145192367Y-82281676D01*
X145184384Y-82274360D01*
X145180444Y-82270419D01*
X145155987Y-82251081D01*
X145153191Y-82248803D01*
X145095427Y-82200333D01*
X145089394Y-82196365D01*
X145089422Y-82196321D01*
X145082961Y-82192204D01*
X145082934Y-82192250D01*
X145076790Y-82188460D01*
X145008442Y-82156589D01*
X145005196Y-82155017D01*
X144937815Y-82121177D01*
X144931031Y-82118708D01*
X144931049Y-82118658D01*
X144923807Y-82116141D01*
X144923791Y-82116191D01*
X144916938Y-82113920D01*
X144843088Y-82098671D01*
X144839567Y-82097891D01*
X144765404Y-82080314D01*
X144704711Y-82045699D01*
X144672367Y-81983767D01*
X144670000Y-81959656D01*
X144670000Y-81815000D01*
X142650992Y-81815000D01*
X142598588Y-81803382D01*
X142564339Y-81787411D01*
X142561096Y-81785841D01*
X142496629Y-81753464D01*
X142489842Y-81750994D01*
X142489876Y-81750899D01*
X142483524Y-81748690D01*
X142483493Y-81748786D01*
X142476635Y-81746513D01*
X142405955Y-81731919D01*
X142402437Y-81731139D01*
X142332224Y-81714499D01*
X142325052Y-81713661D01*
X142325063Y-81713560D01*
X142318374Y-81712876D01*
X142318366Y-81712978D01*
X142311175Y-81712348D01*
X142239032Y-81714448D01*
X142235426Y-81714500D01*
X137909368Y-81714500D01*
X137891396Y-81713191D01*
X137889245Y-81712876D01*
X137868846Y-81709888D01*
X137868843Y-81709887D01*
X137821528Y-81714028D01*
X137810719Y-81714500D01*
X137805581Y-81714500D01*
X137775977Y-81717960D01*
X137772393Y-81718326D01*
X137700537Y-81724613D01*
X137693463Y-81726074D01*
X137693442Y-81725975D01*
X137686877Y-81727430D01*
X137686900Y-81727527D01*
X137679873Y-81729192D01*
X137612022Y-81753886D01*
X137608622Y-81755068D01*
X137540156Y-81777757D01*
X137533609Y-81780810D01*
X137533566Y-81780719D01*
X137527514Y-81783649D01*
X137527559Y-81783738D01*
X137521104Y-81786979D01*
X137460811Y-81826634D01*
X137457772Y-81828570D01*
X137396358Y-81866451D01*
X137390693Y-81870931D01*
X137390631Y-81870853D01*
X137385417Y-81875101D01*
X137385480Y-81875176D01*
X137379952Y-81879815D01*
X137330428Y-81932307D01*
X137327915Y-81934893D01*
X137031863Y-82230945D01*
X137018236Y-82242723D01*
X136999943Y-82256342D01*
X136999942Y-82256343D01*
X136969405Y-82292736D01*
X136962112Y-82300696D01*
X136958478Y-82304330D01*
X136940004Y-82327694D01*
X136937729Y-82330487D01*
X136891344Y-82385766D01*
X136887378Y-82391797D01*
X136887295Y-82391742D01*
X136883674Y-82397426D01*
X136883759Y-82397479D01*
X136879970Y-82403620D01*
X136849473Y-82469021D01*
X136847903Y-82472264D01*
X136815515Y-82536755D01*
X136813046Y-82543540D01*
X136812952Y-82543505D01*
X136810744Y-82549857D01*
X136810839Y-82549889D01*
X136808568Y-82556742D01*
X136793973Y-82627422D01*
X136793193Y-82630939D01*
X136776553Y-82701153D01*
X136775715Y-82708326D01*
X136775614Y-82708314D01*
X136774931Y-82715005D01*
X136775032Y-82715014D01*
X136774402Y-82722203D01*
X136776502Y-82794345D01*
X136776554Y-82797951D01*
X136776554Y-90518444D01*
X136775245Y-90536413D01*
X136771941Y-90558967D01*
X132972053Y-90558967D01*
X132972053Y-90310006D01*
X132972053Y-90310005D01*
X132972052Y-90309989D01*
X132967874Y-90271131D01*
X132967874Y-90244623D01*
X132972054Y-90205751D01*
X132972053Y-89660006D01*
X132972053Y-89660005D01*
X132972052Y-89659989D01*
X132967874Y-89621131D01*
X132967874Y-89594623D01*
X132972054Y-89555751D01*
X132972053Y-89010006D01*
X132972053Y-89010005D01*
X132972052Y-89009989D01*
X132967874Y-88971131D01*
X132967874Y-88944623D01*
X132972054Y-88905751D01*
X132972053Y-88360006D01*
X132972053Y-88360005D01*
X132972052Y-88359989D01*
X132967874Y-88321131D01*
X132967874Y-88294623D01*
X132972054Y-88255751D01*
X132972053Y-87710006D01*
X132972053Y-87710005D01*
X132972052Y-87709989D01*
X132967874Y-87671131D01*
X132967874Y-87644623D01*
X132972054Y-87605751D01*
X132972053Y-87060006D01*
X132972053Y-87060005D01*
X132972052Y-87059989D01*
X132967874Y-87021131D01*
X132967874Y-86994623D01*
X132972054Y-86955751D01*
X132972053Y-86410006D01*
X132972052Y-86409989D01*
X132967874Y-86371131D01*
X132967874Y-86344625D01*
X132972054Y-86305751D01*
X132972053Y-85760006D01*
X132972052Y-85759989D01*
X132967874Y-85721131D01*
X132967874Y-85694625D01*
X132972054Y-85655751D01*
X132972053Y-85110006D01*
X132972053Y-85110005D01*
X132972052Y-85109989D01*
X132967874Y-85071131D01*
X132967874Y-85044623D01*
X132972054Y-85005751D01*
X132972053Y-84460006D01*
X132972053Y-84460005D01*
X132972052Y-84459989D01*
X132967874Y-84421131D01*
X132967874Y-84394623D01*
X132972054Y-84355751D01*
X132972053Y-83810006D01*
X132972052Y-83809989D01*
X132967874Y-83771131D01*
X132967874Y-83744625D01*
X132972054Y-83705751D01*
X132972053Y-83160006D01*
X132972053Y-83160000D01*
X132965645Y-83100394D01*
X132915351Y-82965549D01*
X132915347Y-82965542D01*
X132829101Y-82850333D01*
X132829098Y-82850330D01*
X132713889Y-82764084D01*
X132713882Y-82764080D01*
X132579036Y-82713786D01*
X132579037Y-82713786D01*
X132519437Y-82707379D01*
X132519435Y-82707378D01*
X132519427Y-82707378D01*
X132519418Y-82707378D01*
X130673683Y-82707378D01*
X130673677Y-82707379D01*
X130614070Y-82713786D01*
X130479225Y-82764080D01*
X130479221Y-82764082D01*
X130461566Y-82777299D01*
X130457099Y-82780643D01*
X130391637Y-82805062D01*
X130382788Y-82805378D01*
X129716168Y-82805378D01*
X129700520Y-82803650D01*
X129700494Y-82803932D01*
X129692726Y-82803197D01*
X129625296Y-82805317D01*
X129621401Y-82805378D01*
X129593720Y-82805378D01*
X129589702Y-82805885D01*
X129578075Y-82806800D01*
X129534259Y-82808177D01*
X129534255Y-82808178D01*
X129514923Y-82813794D01*
X129495883Y-82817737D01*
X129475913Y-82820260D01*
X129475909Y-82820261D01*
X129435154Y-82836397D01*
X129424106Y-82840179D01*
X129382013Y-82852408D01*
X129382006Y-82852411D01*
X129364681Y-82862657D01*
X129347211Y-82871215D01*
X129328499Y-82878623D01*
X129293027Y-82904394D01*
X129283267Y-82910805D01*
X129245547Y-82933112D01*
X129231307Y-82947352D01*
X129216521Y-82959980D01*
X129200234Y-82971814D01*
X129172291Y-83005590D01*
X129164430Y-83014228D01*
X129022793Y-83155865D01*
X128961470Y-83189350D01*
X128912328Y-83190072D01*
X128885340Y-83185028D01*
X128681962Y-83185028D01*
X128482047Y-83222399D01*
X128482044Y-83222399D01*
X128482044Y-83222400D01*
X128292407Y-83295865D01*
X128292398Y-83295869D01*
X128119488Y-83402930D01*
X128119486Y-83402932D01*
X127969190Y-83539944D01*
X127846627Y-83702244D01*
X127846622Y-83702252D01*
X127755973Y-83884301D01*
X127755970Y-83884307D01*
X127700315Y-84079915D01*
X127700314Y-84079917D01*
X127681550Y-84282427D01*
X127681550Y-84282428D01*
X127700314Y-84484938D01*
X127700315Y-84484940D01*
X127755970Y-84680548D01*
X127755971Y-84680550D01*
X127755972Y-84680553D01*
X127780213Y-84729235D01*
X127846622Y-84862603D01*
X127846627Y-84862611D01*
X127969190Y-85024911D01*
X128119486Y-85161923D01*
X128119488Y-85161925D01*
X128142141Y-85175951D01*
X128188777Y-85227978D01*
X128199881Y-85296960D01*
X128171928Y-85360994D01*
X128113793Y-85399751D01*
X128076864Y-85405378D01*
X126442128Y-85405378D01*
X126375089Y-85385693D01*
X126354447Y-85369059D01*
X126067156Y-85081768D01*
X126033671Y-85020445D01*
X126031366Y-84982651D01*
X126044202Y-84844132D01*
X126025437Y-84641621D01*
X125969780Y-84446007D01*
X125888326Y-84282426D01*
X125879129Y-84263956D01*
X125879124Y-84263948D01*
X125756561Y-84101648D01*
X125606265Y-83964636D01*
X125606263Y-83964634D01*
X125433353Y-83857573D01*
X125433344Y-83857569D01*
X125291116Y-83802470D01*
X125243705Y-83784103D01*
X125043790Y-83746732D01*
X124840412Y-83746732D01*
X124640497Y-83784103D01*
X124640494Y-83784103D01*
X124640494Y-83784104D01*
X124450857Y-83857569D01*
X124450848Y-83857573D01*
X124277938Y-83964634D01*
X124277936Y-83964636D01*
X124127640Y-84101648D01*
X124005077Y-84263948D01*
X124005072Y-84263956D01*
X123914423Y-84446005D01*
X123914420Y-84446011D01*
X123858765Y-84641619D01*
X123858764Y-84641621D01*
X123840000Y-84844131D01*
X123840000Y-84844132D01*
X123391080Y-84844132D01*
X123391080Y-81315000D01*
X142170000Y-81315000D01*
X143170000Y-81315000D01*
X143170000Y-80615000D01*
X143670000Y-80615000D01*
X143670000Y-81315000D01*
X144670000Y-81315000D01*
X144670000Y-81067172D01*
X144669999Y-81067155D01*
X144663598Y-81007627D01*
X144663596Y-81007620D01*
X144613354Y-80872913D01*
X144613350Y-80872906D01*
X144527190Y-80757812D01*
X144527187Y-80757809D01*
X144412093Y-80671649D01*
X144412086Y-80671645D01*
X144277379Y-80621403D01*
X144277372Y-80621401D01*
X144217844Y-80615000D01*
X143670000Y-80615000D01*
X143170000Y-80615000D01*
X142622155Y-80615000D01*
X142562627Y-80621401D01*
X142562620Y-80621403D01*
X142427913Y-80671645D01*
X142427906Y-80671649D01*
X142312812Y-80757809D01*
X142312809Y-80757812D01*
X142226649Y-80872906D01*
X142226645Y-80872913D01*
X142176403Y-81007620D01*
X142176401Y-81007627D01*
X142170000Y-81067155D01*
X142170000Y-81315000D01*
X123391080Y-81315000D01*
X123391080Y-59075000D01*
X128170000Y-59075000D01*
X128170000Y-80015000D01*
X159457743Y-80015000D01*
X159524782Y-80034685D01*
X159570537Y-80087489D01*
X159580481Y-80156647D01*
X159551456Y-80220203D01*
X159530627Y-80239319D01*
X159502840Y-80259507D01*
X159493080Y-80265918D01*
X159455346Y-80288234D01*
X159441106Y-80302474D01*
X159426320Y-80315102D01*
X159410033Y-80326936D01*
X159382090Y-80360712D01*
X159374229Y-80369350D01*
X154964953Y-84778626D01*
X154952669Y-84788469D01*
X154952849Y-84788687D01*
X154946837Y-84793660D01*
X154900646Y-84842847D01*
X154897941Y-84845638D01*
X154878379Y-84865200D01*
X154878375Y-84865205D01*
X154875895Y-84868403D01*
X154868317Y-84877274D01*
X154838308Y-84909230D01*
X154838305Y-84909234D01*
X154828606Y-84926877D01*
X154817928Y-84943133D01*
X154805594Y-84959034D01*
X154805589Y-84959042D01*
X154788185Y-84999262D01*
X154783046Y-85009752D01*
X154761927Y-85048167D01*
X154756920Y-85067668D01*
X154750621Y-85086064D01*
X154743893Y-85101612D01*
X154742625Y-85104544D01*
X154742624Y-85104546D01*
X154735769Y-85147831D01*
X154733401Y-85159267D01*
X154722500Y-85201723D01*
X154722500Y-85221858D01*
X154720973Y-85241257D01*
X154717825Y-85261131D01*
X154721950Y-85304767D01*
X154722500Y-85316437D01*
X154722500Y-97952003D01*
X154702815Y-98019042D01*
X154650011Y-98064797D01*
X154585250Y-98075293D01*
X154582315Y-98074977D01*
X154577873Y-98074500D01*
X154577871Y-98074500D01*
X153582129Y-98074500D01*
X153582123Y-98074501D01*
X153522518Y-98080908D01*
X153488331Y-98093659D01*
X153418639Y-98098642D01*
X153401669Y-98093659D01*
X153371698Y-98082481D01*
X153367483Y-98080909D01*
X153367482Y-98080908D01*
X153307883Y-98074501D01*
X153307881Y-98074500D01*
X153307873Y-98074500D01*
X153307864Y-98074500D01*
X152312129Y-98074500D01*
X152312123Y-98074501D01*
X152252518Y-98080908D01*
X152218331Y-98093659D01*
X152148639Y-98098642D01*
X152131669Y-98093659D01*
X152101698Y-98082481D01*
X152097483Y-98080909D01*
X152097482Y-98080908D01*
X152037883Y-98074501D01*
X152037881Y-98074500D01*
X152037873Y-98074500D01*
X152037864Y-98074500D01*
X151042129Y-98074500D01*
X151042123Y-98074501D01*
X150982518Y-98080908D01*
X150948331Y-98093659D01*
X150878639Y-98098642D01*
X150861669Y-98093659D01*
X150831698Y-98082481D01*
X150827483Y-98080909D01*
X150827482Y-98080908D01*
X150767883Y-98074501D01*
X150767881Y-98074500D01*
X150767873Y-98074500D01*
X150767864Y-98074500D01*
X149772129Y-98074500D01*
X149772123Y-98074501D01*
X149712518Y-98080908D01*
X149678331Y-98093659D01*
X149608639Y-98098642D01*
X149591669Y-98093659D01*
X149561698Y-98082481D01*
X149557483Y-98080909D01*
X149557482Y-98080908D01*
X149497883Y-98074501D01*
X149497881Y-98074500D01*
X149497873Y-98074500D01*
X149497864Y-98074500D01*
X148502129Y-98074500D01*
X148502123Y-98074501D01*
X148442518Y-98080908D01*
X148408331Y-98093659D01*
X148338639Y-98098642D01*
X148321669Y-98093659D01*
X148291698Y-98082481D01*
X148287483Y-98080909D01*
X148287482Y-98080908D01*
X148227883Y-98074501D01*
X148227881Y-98074500D01*
X148227873Y-98074500D01*
X148227864Y-98074500D01*
X147232129Y-98074500D01*
X147232123Y-98074501D01*
X147172520Y-98080908D01*
X147172517Y-98080908D01*
X147172517Y-98080909D01*
X147137620Y-98093925D01*
X147137617Y-98093926D01*
X147067925Y-98098909D01*
X147050952Y-98093925D01*
X147017379Y-98081403D01*
X147017372Y-98081401D01*
X146957844Y-98075000D01*
X146710000Y-98075000D01*
X146710000Y-100575000D01*
X146957828Y-100575000D01*
X146957844Y-100574999D01*
X147017372Y-100568598D01*
X147017375Y-100568597D01*
X147050949Y-100556075D01*
X147120640Y-100551089D01*
X147137619Y-100556075D01*
X147172511Y-100569089D01*
X147172512Y-100569089D01*
X147172517Y-100569091D01*
X147232127Y-100575500D01*
X148227872Y-100575499D01*
X148287483Y-100569091D01*
X148321667Y-100556340D01*
X148391358Y-100551357D01*
X148408327Y-100556338D01*
X148442517Y-100569091D01*
X148502127Y-100575500D01*
X149497872Y-100575499D01*
X149557483Y-100569091D01*
X149591667Y-100556340D01*
X149661358Y-100551357D01*
X149678327Y-100556338D01*
X149712517Y-100569091D01*
X149772127Y-100575500D01*
X150767872Y-100575499D01*
X150827483Y-100569091D01*
X150861667Y-100556340D01*
X150931358Y-100551357D01*
X150948327Y-100556338D01*
X150982517Y-100569091D01*
X151042127Y-100575500D01*
X152037872Y-100575499D01*
X152097483Y-100569091D01*
X152131667Y-100556340D01*
X152201358Y-100551357D01*
X152218327Y-100556338D01*
X152252517Y-100569091D01*
X152312127Y-100575500D01*
X153307872Y-100575499D01*
X153367483Y-100569091D01*
X153401667Y-100556340D01*
X153471358Y-100551357D01*
X153488327Y-100556338D01*
X153516462Y-100566832D01*
X153522511Y-100569089D01*
X153522517Y-100569091D01*
X153582127Y-100575500D01*
X153681915Y-100575499D01*
X153748953Y-100595183D01*
X153769596Y-100611818D01*
X155782021Y-102624243D01*
X155815506Y-102685566D01*
X155817811Y-102723364D01*
X155804977Y-102861879D01*
X155804977Y-102861881D01*
X155823741Y-103064391D01*
X155823742Y-103064393D01*
X155879397Y-103260001D01*
X155879398Y-103260003D01*
X155879399Y-103260006D01*
X155902889Y-103307180D01*
X155970049Y-103442056D01*
X155970054Y-103442064D01*
X156092617Y-103604364D01*
X156242913Y-103741376D01*
X156242915Y-103741378D01*
X156415825Y-103848439D01*
X156415827Y-103848440D01*
X156415829Y-103848441D01*
X156605474Y-103921910D01*
X156805389Y-103959281D01*
X156805391Y-103959281D01*
X157008765Y-103959281D01*
X157008767Y-103959281D01*
X157208682Y-103921910D01*
X157398327Y-103848441D01*
X157571242Y-103741377D01*
X157721540Y-103604362D01*
X157844103Y-103442062D01*
X157934757Y-103260006D01*
X157990414Y-103064392D01*
X158009179Y-102861881D01*
X157990414Y-102659370D01*
X157934757Y-102463756D01*
X157855662Y-102304913D01*
X157844106Y-102281705D01*
X157844101Y-102281697D01*
X157721538Y-102119397D01*
X157571242Y-101982385D01*
X157571240Y-101982383D01*
X157398330Y-101875322D01*
X157398321Y-101875318D01*
X157255618Y-101820035D01*
X157208682Y-101801852D01*
X157008767Y-101764481D01*
X156805389Y-101764481D01*
X156778398Y-101769526D01*
X156708883Y-101762494D01*
X156667934Y-101735318D01*
X155719796Y-100787180D01*
X155686311Y-100725857D01*
X155691295Y-100656165D01*
X155733167Y-100600232D01*
X155798631Y-100575815D01*
X155807477Y-100575499D01*
X155847871Y-100575499D01*
X155847872Y-100575499D01*
X155907483Y-100569091D01*
X155941667Y-100556340D01*
X156011358Y-100551357D01*
X156028327Y-100556338D01*
X156062517Y-100569091D01*
X156122127Y-100575500D01*
X157117872Y-100575499D01*
X157177483Y-100569091D01*
X157211667Y-100556340D01*
X157281358Y-100551357D01*
X157298327Y-100556338D01*
X157332517Y-100569091D01*
X157392127Y-100575500D01*
X158387872Y-100575499D01*
X158447483Y-100569091D01*
X158582331Y-100518796D01*
X158697546Y-100432546D01*
X158783796Y-100317331D01*
X158834091Y-100182483D01*
X158840500Y-100122873D01*
X158840499Y-99277712D01*
X158860183Y-99210674D01*
X158912987Y-99164919D01*
X158982146Y-99154975D01*
X159045702Y-99184000D01*
X159052180Y-99190032D01*
X159099191Y-99237043D01*
X159109038Y-99249333D01*
X159109256Y-99249154D01*
X159114224Y-99255159D01*
X159163413Y-99301351D01*
X159166210Y-99304062D01*
X159185774Y-99323626D01*
X159188952Y-99326090D01*
X159197846Y-99333685D01*
X159216109Y-99350836D01*
X159229802Y-99363695D01*
X159229804Y-99363696D01*
X159247435Y-99373388D01*
X159263704Y-99384074D01*
X159279604Y-99396407D01*
X159279605Y-99396408D01*
X159319829Y-99413815D01*
X159330321Y-99418955D01*
X159368728Y-99440070D01*
X159368731Y-99440071D01*
X159368733Y-99440072D01*
X159388226Y-99445076D01*
X159406634Y-99451379D01*
X159425108Y-99459374D01*
X159468411Y-99466231D01*
X159479838Y-99468598D01*
X159522295Y-99479500D01*
X159531719Y-99479500D01*
X159598758Y-99499185D01*
X159619400Y-99515819D01*
X172066165Y-111962584D01*
X172076012Y-111974874D01*
X172076230Y-111974695D01*
X172081198Y-111980700D01*
X172081200Y-111980702D01*
X172081201Y-111980703D01*
X172130387Y-112026892D01*
X172133184Y-112029603D01*
X172152748Y-112049167D01*
X172155926Y-112051631D01*
X172164822Y-112059228D01*
X172196776Y-112089236D01*
X172196778Y-112089237D01*
X172214408Y-112098928D01*
X172230676Y-112109613D01*
X172246579Y-112121949D01*
X172286803Y-112139355D01*
X172297295Y-112144495D01*
X172335699Y-112165609D01*
X172335701Y-112165610D01*
X172335707Y-112165613D01*
X172354781Y-112170510D01*
X172355201Y-112170618D01*
X172373605Y-112176918D01*
X172392083Y-112184915D01*
X172435392Y-112191774D01*
X172446799Y-112194136D01*
X172489269Y-112205041D01*
X172509399Y-112205041D01*
X172528798Y-112206568D01*
X172548674Y-112209716D01*
X172588469Y-112205954D01*
X172592311Y-112205591D01*
X172603980Y-112205041D01*
X180520216Y-112205041D01*
X180587255Y-112224726D01*
X180625806Y-112264027D01*
X180723030Y-112421929D01*
X180882155Y-112602729D01*
X181069743Y-112754197D01*
X181109535Y-112811628D01*
X181111961Y-112881455D01*
X181076251Y-112941510D01*
X181061280Y-112953408D01*
X180972954Y-113013106D01*
X180799129Y-113179704D01*
X180799128Y-113179705D01*
X180655964Y-113373274D01*
X180655959Y-113373282D01*
X180547571Y-113588261D01*
X180547570Y-113588264D01*
X180477067Y-113818477D01*
X180477066Y-113818484D01*
X180470784Y-113867541D01*
X181578250Y-113867541D01*
X181539035Y-113962215D01*
X181518586Y-114117541D01*
X181539035Y-114272867D01*
X181578250Y-114367541D01*
X180471724Y-114367541D01*
X180507428Y-114533206D01*
X180597197Y-114756608D01*
X180723432Y-114961626D01*
X180883101Y-115143047D01*
X180912615Y-115206377D01*
X180903205Y-115275610D01*
X180857859Y-115328765D01*
X180855114Y-115330508D01*
X180736771Y-115403503D01*
X180736767Y-115403506D01*
X180610685Y-115529588D01*
X180610682Y-115529592D01*
X180517082Y-115681340D01*
X180517077Y-115681351D01*
X180460992Y-115850605D01*
X180460991Y-115850612D01*
X180450320Y-115955060D01*
X180450320Y-116407541D01*
X181578250Y-116407541D01*
X181539035Y-116502215D01*
X181518586Y-116657541D01*
X181539035Y-116812867D01*
X181578250Y-116907541D01*
X180450321Y-116907541D01*
X180450321Y-117360023D01*
X180460991Y-117464475D01*
X180460992Y-117464478D01*
X180517077Y-117633730D01*
X180517082Y-117633741D01*
X180610682Y-117785489D01*
X180610685Y-117785493D01*
X180736767Y-117911575D01*
X180736771Y-117911578D01*
X180888519Y-118005178D01*
X180888530Y-118005183D01*
X181057784Y-118061268D01*
X181057791Y-118061269D01*
X181162245Y-118071940D01*
X181916146Y-118071940D01*
X181983185Y-118091624D01*
X182028940Y-118144428D01*
X182038884Y-118213587D01*
X182009859Y-118277143D01*
X182003827Y-118283621D01*
X180513170Y-119774281D01*
X180451847Y-119807766D01*
X180425489Y-119810600D01*
X147869478Y-119810600D01*
X147802439Y-119790915D01*
X147763750Y-119751390D01*
X147714468Y-119670968D01*
X147559443Y-119489457D01*
X147377932Y-119334432D01*
X147174405Y-119209711D01*
X147174404Y-119209710D01*
X147174400Y-119209708D01*
X146953868Y-119118361D01*
X146721762Y-119062638D01*
X146721763Y-119062638D01*
X146483800Y-119043911D01*
X146245836Y-119062638D01*
X146013729Y-119118361D01*
X145939752Y-119149004D01*
X145870283Y-119156473D01*
X145807804Y-119125198D01*
X145772152Y-119065108D01*
X145768300Y-119034443D01*
X145768300Y-115040600D01*
X160330010Y-115040600D01*
X160349154Y-115381503D01*
X160349156Y-115381515D01*
X160406348Y-115718126D01*
X160406350Y-115718135D01*
X160500871Y-116046224D01*
X160631538Y-116361683D01*
X160796703Y-116660526D01*
X160994288Y-116938997D01*
X161054959Y-117006886D01*
X161808113Y-116253732D01*
X161873684Y-116341324D01*
X162074076Y-116541716D01*
X162161666Y-116607285D01*
X161408512Y-117360439D01*
X161476405Y-117421113D01*
X161476410Y-117421117D01*
X161754873Y-117618696D01*
X162053716Y-117783861D01*
X162369175Y-117914528D01*
X162697264Y-118009049D01*
X162697273Y-118009051D01*
X163033884Y-118066243D01*
X163033896Y-118066245D01*
X163374800Y-118085389D01*
X163715703Y-118066245D01*
X163715715Y-118066243D01*
X164052326Y-118009051D01*
X164052335Y-118009049D01*
X164380424Y-117914528D01*
X164695883Y-117783861D01*
X164994726Y-117618696D01*
X165273196Y-117421112D01*
X165273207Y-117421103D01*
X165341087Y-117360440D01*
X165341087Y-117360439D01*
X164587933Y-116607285D01*
X164675524Y-116541716D01*
X164875916Y-116341324D01*
X164941485Y-116253733D01*
X165694639Y-117006887D01*
X165694640Y-117006887D01*
X165755303Y-116939007D01*
X165755312Y-116938996D01*
X165952896Y-116660526D01*
X166118061Y-116361683D01*
X166248728Y-116046224D01*
X166343249Y-115718135D01*
X166343251Y-115718126D01*
X166400443Y-115381515D01*
X166400445Y-115381503D01*
X166419589Y-115040600D01*
X166400445Y-114699696D01*
X166400443Y-114699684D01*
X166343251Y-114363073D01*
X166343249Y-114363064D01*
X166248728Y-114034975D01*
X166118061Y-113719516D01*
X165952896Y-113420673D01*
X165755317Y-113142210D01*
X165755313Y-113142205D01*
X165694639Y-113074312D01*
X164941485Y-113827466D01*
X164875916Y-113739876D01*
X164675524Y-113539484D01*
X164587932Y-113473913D01*
X165341086Y-112720759D01*
X165273197Y-112660088D01*
X164994726Y-112462503D01*
X164695883Y-112297338D01*
X164380424Y-112166671D01*
X164052335Y-112072150D01*
X164052326Y-112072148D01*
X163715715Y-112014956D01*
X163715703Y-112014954D01*
X163374800Y-111995810D01*
X163033896Y-112014954D01*
X163033884Y-112014956D01*
X162697273Y-112072148D01*
X162697264Y-112072150D01*
X162369175Y-112166671D01*
X162053716Y-112297338D01*
X161754873Y-112462503D01*
X161476399Y-112660091D01*
X161408512Y-112720759D01*
X162161667Y-113473914D01*
X162074076Y-113539484D01*
X161873684Y-113739876D01*
X161808114Y-113827467D01*
X161054959Y-113074312D01*
X160994291Y-113142199D01*
X160796703Y-113420673D01*
X160631538Y-113719516D01*
X160500871Y-114034975D01*
X160406350Y-114363064D01*
X160406348Y-114363073D01*
X160349156Y-114699684D01*
X160349154Y-114699696D01*
X160330010Y-115040600D01*
X145768300Y-115040600D01*
X145768300Y-111170380D01*
X145787985Y-111103341D01*
X145804610Y-111082708D01*
X145892659Y-110994659D01*
X145953977Y-110961177D01*
X146009284Y-110961769D01*
X146013719Y-110962833D01*
X146013727Y-110962837D01*
X146245834Y-111018561D01*
X146483800Y-111037289D01*
X146721766Y-111018561D01*
X146953873Y-110962837D01*
X147174405Y-110871489D01*
X147377932Y-110746768D01*
X147559443Y-110591743D01*
X147714468Y-110410232D01*
X147839189Y-110206705D01*
X147930537Y-109986173D01*
X147986261Y-109754066D01*
X148004989Y-109516100D01*
X147986261Y-109278134D01*
X147930537Y-109046027D01*
X147839189Y-108825495D01*
X147714468Y-108621968D01*
X147559443Y-108440457D01*
X147377932Y-108285432D01*
X147174405Y-108160711D01*
X147174404Y-108160710D01*
X147174400Y-108160708D01*
X146953868Y-108069361D01*
X146721762Y-108013638D01*
X146721763Y-108013638D01*
X146483800Y-107994911D01*
X146245836Y-108013638D01*
X146013731Y-108069361D01*
X145793199Y-108160708D01*
X145589667Y-108285432D01*
X145408157Y-108440457D01*
X145253132Y-108621967D01*
X145128408Y-108825499D01*
X145037061Y-109046031D01*
X144981338Y-109278136D01*
X144962611Y-109516100D01*
X144981338Y-109754063D01*
X145038129Y-109990615D01*
X145034638Y-110060397D01*
X145005236Y-110107243D01*
X144755753Y-110356726D01*
X144743469Y-110366569D01*
X144743649Y-110366787D01*
X144737637Y-110371760D01*
X144691446Y-110420947D01*
X144688741Y-110423738D01*
X144669179Y-110443300D01*
X144669175Y-110443305D01*
X144666695Y-110446503D01*
X144659117Y-110455374D01*
X144629108Y-110487330D01*
X144629105Y-110487334D01*
X144619406Y-110504977D01*
X144608728Y-110521233D01*
X144596394Y-110537134D01*
X144596389Y-110537142D01*
X144578985Y-110577362D01*
X144573846Y-110587852D01*
X144552727Y-110626267D01*
X144547720Y-110645768D01*
X144541421Y-110664164D01*
X144534693Y-110679712D01*
X144533425Y-110682644D01*
X144533424Y-110682646D01*
X144526569Y-110725931D01*
X144524201Y-110737367D01*
X144513300Y-110779823D01*
X144513300Y-110799958D01*
X144511773Y-110819357D01*
X144509609Y-110833022D01*
X144508625Y-110839233D01*
X144512655Y-110881867D01*
X144512750Y-110882867D01*
X144513300Y-110894537D01*
X144513300Y-121066175D01*
X144511572Y-121081824D01*
X144511854Y-121081851D01*
X144511119Y-121089618D01*
X144513239Y-121157060D01*
X144513300Y-121160954D01*
X144513300Y-121188619D01*
X144513806Y-121192628D01*
X144514721Y-121204259D01*
X144516098Y-121248085D01*
X144521716Y-121267418D01*
X144525662Y-121286472D01*
X144528183Y-121306430D01*
X144528186Y-121306442D01*
X144544319Y-121347191D01*
X144548102Y-121358241D01*
X144560330Y-121400330D01*
X144560330Y-121400331D01*
X144570577Y-121417658D01*
X144579135Y-121435128D01*
X144586545Y-121453844D01*
X144612311Y-121489307D01*
X144618725Y-121499072D01*
X144641034Y-121536795D01*
X144641040Y-121536803D01*
X144655269Y-121551031D01*
X144667906Y-121565827D01*
X144679737Y-121582110D01*
X144713517Y-121610055D01*
X144722146Y-121617908D01*
X145479046Y-122374808D01*
X145488893Y-122387098D01*
X145489111Y-122386919D01*
X145494079Y-122392924D01*
X145494081Y-122392926D01*
X145494082Y-122392927D01*
X145519780Y-122417059D01*
X145543268Y-122439116D01*
X145546065Y-122441827D01*
X145565629Y-122461391D01*
X145568807Y-122463855D01*
X145577703Y-122471452D01*
X145609657Y-122501460D01*
X145609659Y-122501461D01*
X145627290Y-122511153D01*
X145643559Y-122521839D01*
X145659459Y-122534172D01*
X145659460Y-122534173D01*
X145699684Y-122551580D01*
X145710176Y-122556720D01*
X145748583Y-122577835D01*
X145748586Y-122577836D01*
X145748588Y-122577837D01*
X145768081Y-122582841D01*
X145786489Y-122589144D01*
X145804963Y-122597139D01*
X145848266Y-122603996D01*
X145859693Y-122606363D01*
X145902150Y-122617265D01*
X145922280Y-122617265D01*
X145941677Y-122618791D01*
X145961555Y-122621940D01*
X146001350Y-122618178D01*
X146005192Y-122617815D01*
X146016861Y-122617265D01*
X180103401Y-122617265D01*
X180119049Y-122618992D01*
X180119076Y-122618711D01*
X180126843Y-122619445D01*
X180126844Y-122619444D01*
X180126845Y-122619445D01*
X180194287Y-122617326D01*
X180198181Y-122617265D01*
X180225840Y-122617265D01*
X180225844Y-122617265D01*
X180229842Y-122616759D01*
X180241482Y-122615842D01*
X180285311Y-122614466D01*
X180304640Y-122608849D01*
X180323696Y-122604902D01*
X180343661Y-122602381D01*
X180384423Y-122586241D01*
X180395460Y-122582463D01*
X180437559Y-122570233D01*
X180454883Y-122559986D01*
X180472351Y-122551428D01*
X180491071Y-122544018D01*
X180526545Y-122518243D01*
X180536283Y-122511846D01*
X180574024Y-122489528D01*
X180588265Y-122475285D01*
X180603046Y-122462662D01*
X180619335Y-122450828D01*
X180647272Y-122417055D01*
X180655124Y-122408426D01*
X185588612Y-117474938D01*
X185600894Y-117465101D01*
X185600713Y-117464882D01*
X185606726Y-117459906D01*
X185606731Y-117459904D01*
X185652953Y-117410680D01*
X185655602Y-117407948D01*
X185675192Y-117388360D01*
X185677665Y-117385170D01*
X185685251Y-117376286D01*
X185715262Y-117344331D01*
X185724958Y-117326692D01*
X185735642Y-117310425D01*
X185747977Y-117294526D01*
X185765388Y-117254289D01*
X185770511Y-117243829D01*
X185791641Y-117205398D01*
X185796647Y-117185898D01*
X185802945Y-117167500D01*
X185810943Y-117149022D01*
X185817801Y-117105715D01*
X185820165Y-117094300D01*
X185831069Y-117051836D01*
X185831069Y-117031705D01*
X185832596Y-117012305D01*
X185833454Y-117006887D01*
X185835744Y-116992431D01*
X185831619Y-116948794D01*
X185831069Y-116937125D01*
X185831069Y-91220439D01*
X185832797Y-91204789D01*
X185832515Y-91204763D01*
X185833249Y-91197000D01*
X185832322Y-91167517D01*
X185831130Y-91129570D01*
X185831069Y-91125675D01*
X185831069Y-91098003D01*
X185831069Y-91097999D01*
X185830561Y-91093984D01*
X185829645Y-91082338D01*
X185829642Y-91082228D01*
X185828269Y-91038532D01*
X185822651Y-91019195D01*
X185818707Y-91000149D01*
X185816185Y-90980182D01*
X185800047Y-90939423D01*
X185796268Y-90928384D01*
X185784036Y-90886280D01*
X185773792Y-90868959D01*
X185765230Y-90851482D01*
X185757822Y-90832773D01*
X185757821Y-90832771D01*
X185746225Y-90816811D01*
X185732055Y-90797308D01*
X185725643Y-90787545D01*
X185703333Y-90749821D01*
X185703328Y-90749814D01*
X185689100Y-90735587D01*
X185676465Y-90720795D01*
X185664632Y-90704508D01*
X185664629Y-90704506D01*
X185664629Y-90704505D01*
X185664627Y-90704503D01*
X185630856Y-90676565D01*
X185622216Y-90668703D01*
X176483047Y-81529534D01*
X176473202Y-81517245D01*
X176472984Y-81517426D01*
X176468011Y-81511415D01*
X176418824Y-81465225D01*
X176416025Y-81462512D01*
X176396468Y-81442954D01*
X176393278Y-81440480D01*
X176384387Y-81432887D01*
X176352439Y-81402885D01*
X176352434Y-81402881D01*
X176334793Y-81393183D01*
X176318528Y-81382499D01*
X176302634Y-81370170D01*
X176302633Y-81370169D01*
X176273333Y-81357489D01*
X176262406Y-81352761D01*
X176251918Y-81347622D01*
X176213509Y-81326506D01*
X176213499Y-81326503D01*
X176194005Y-81321497D01*
X176175604Y-81315197D01*
X176157130Y-81307203D01*
X176157123Y-81307201D01*
X176113844Y-81300347D01*
X176102404Y-81297978D01*
X176059950Y-81287077D01*
X176059943Y-81287077D01*
X176039813Y-81287077D01*
X176020414Y-81285550D01*
X176000539Y-81282402D01*
X176000538Y-81282402D01*
X175956901Y-81286527D01*
X175945232Y-81287077D01*
X167514706Y-81287077D01*
X167499058Y-81285349D01*
X167499032Y-81285631D01*
X167491264Y-81284896D01*
X167423834Y-81287016D01*
X167419939Y-81287077D01*
X167392258Y-81287077D01*
X167388240Y-81287584D01*
X167376613Y-81288499D01*
X167332797Y-81289876D01*
X167332793Y-81289877D01*
X167313461Y-81295493D01*
X167294421Y-81299436D01*
X167274451Y-81301959D01*
X167274447Y-81301960D01*
X167233692Y-81318096D01*
X167222644Y-81321878D01*
X167180551Y-81334107D01*
X167180544Y-81334110D01*
X167163219Y-81344356D01*
X167145749Y-81352914D01*
X167127037Y-81360322D01*
X167091565Y-81386093D01*
X167081805Y-81392504D01*
X167044085Y-81414811D01*
X167029845Y-81429051D01*
X167015059Y-81441679D01*
X166998772Y-81453513D01*
X166970829Y-81487289D01*
X166962968Y-81495927D01*
X166734137Y-81724758D01*
X166672814Y-81758243D01*
X166646456Y-81761077D01*
X165584737Y-81761077D01*
X165584719Y-81761078D01*
X165481942Y-81771577D01*
X165481939Y-81771578D01*
X165315407Y-81826762D01*
X165315402Y-81826764D01*
X165166081Y-81918866D01*
X165042028Y-82042919D01*
X164949926Y-82192240D01*
X164949924Y-82192245D01*
X164931409Y-82248121D01*
X164894740Y-82358780D01*
X164894740Y-82358781D01*
X164894739Y-82358781D01*
X164884239Y-82461560D01*
X164884239Y-83261578D01*
X164884240Y-83261596D01*
X164894739Y-83364373D01*
X164894740Y-83364376D01*
X164949924Y-83530908D01*
X164949926Y-83530913D01*
X164960168Y-83547518D01*
X165042027Y-83680233D01*
X165166083Y-83804289D01*
X165315405Y-83896391D01*
X165481942Y-83951576D01*
X165584730Y-83962077D01*
X167384747Y-83962076D01*
X167487536Y-83951576D01*
X167654073Y-83896391D01*
X167702409Y-83866577D01*
X169084739Y-83866577D01*
X169084739Y-84891577D01*
X170859739Y-84891577D01*
X170859739Y-83866577D01*
X171359739Y-83866577D01*
X171359739Y-84891577D01*
X174209739Y-84891577D01*
X174209739Y-83866577D01*
X174709739Y-83866577D01*
X174709739Y-84891577D01*
X176484738Y-84891577D01*
X176484738Y-84797690D01*
X176484739Y-84797669D01*
X176484739Y-83866577D01*
X174709739Y-83866577D01*
X174209739Y-83866577D01*
X171359739Y-83866577D01*
X170859739Y-83866577D01*
X169084739Y-83866577D01*
X167702409Y-83866577D01*
X167803395Y-83804289D01*
X167927451Y-83680233D01*
X168019553Y-83530911D01*
X168074738Y-83364374D01*
X168085239Y-83261586D01*
X168085238Y-82666076D01*
X168104922Y-82599038D01*
X168157726Y-82553283D01*
X168209238Y-82542077D01*
X168960739Y-82542077D01*
X169027778Y-82561762D01*
X169073533Y-82614566D01*
X169084739Y-82666077D01*
X169084739Y-83366577D01*
X176493890Y-83366577D01*
X176560929Y-83386262D01*
X176581571Y-83402896D01*
X184539750Y-91361075D01*
X184573235Y-91422398D01*
X184576069Y-91448756D01*
X184576069Y-96712411D01*
X184556384Y-96779450D01*
X184503580Y-96825205D01*
X184434422Y-96835149D01*
X184378337Y-96812108D01*
X184357312Y-96796559D01*
X184357309Y-96796557D01*
X184357305Y-96796554D01*
X184268344Y-96751701D01*
X184142243Y-96688122D01*
X183980918Y-96638717D01*
X183911948Y-96617595D01*
X183911946Y-96617594D01*
X183911947Y-96617594D01*
X183673041Y-96587001D01*
X183432419Y-96597224D01*
X183432410Y-96597225D01*
X183196966Y-96647967D01*
X183196965Y-96647967D01*
X182973486Y-96737768D01*
X182768391Y-96864049D01*
X182587008Y-97023687D01*
X182523678Y-97053202D01*
X182454445Y-97043793D01*
X182401289Y-96998447D01*
X182399546Y-96995701D01*
X182326817Y-96877790D01*
X182326814Y-96877786D01*
X182200732Y-96751704D01*
X182200728Y-96751701D01*
X182048980Y-96658101D01*
X182048969Y-96658096D01*
X181879715Y-96602011D01*
X181879708Y-96602010D01*
X181775260Y-96591339D01*
X181322780Y-96591339D01*
X181322780Y-97719269D01*
X181228106Y-97680054D01*
X181111777Y-97664739D01*
X181033783Y-97664739D01*
X180917454Y-97680054D01*
X180822780Y-97719269D01*
X180822780Y-96591339D01*
X180370314Y-96591339D01*
X180370296Y-96591340D01*
X180265845Y-96602010D01*
X180265842Y-96602011D01*
X180096590Y-96658096D01*
X180096579Y-96658101D01*
X179944831Y-96751701D01*
X179944827Y-96751704D01*
X179818745Y-96877786D01*
X179818742Y-96877790D01*
X179725142Y-97029538D01*
X179725137Y-97029549D01*
X179669052Y-97198803D01*
X179669051Y-97198810D01*
X179658380Y-97303258D01*
X179658380Y-98009739D01*
X180532310Y-98009739D01*
X180493095Y-98104413D01*
X180472646Y-98259739D01*
X180493095Y-98415065D01*
X180532310Y-98509739D01*
X179658381Y-98509739D01*
X179658381Y-99216221D01*
X179669051Y-99320673D01*
X179669052Y-99320676D01*
X179725137Y-99489928D01*
X179725142Y-99489939D01*
X179818742Y-99641687D01*
X179818745Y-99641691D01*
X179944827Y-99767773D01*
X179944831Y-99767776D01*
X180096579Y-99861376D01*
X180096590Y-99861381D01*
X180265844Y-99917466D01*
X180265851Y-99917467D01*
X180370305Y-99928138D01*
X180822779Y-99928138D01*
X180822780Y-99928137D01*
X180822780Y-98800208D01*
X180917454Y-98839424D01*
X181033783Y-98854739D01*
X181111777Y-98854739D01*
X181228106Y-98839424D01*
X181322780Y-98800208D01*
X181322780Y-99928138D01*
X181775246Y-99928138D01*
X181775262Y-99928137D01*
X181879714Y-99917467D01*
X181879717Y-99917466D01*
X182048969Y-99861381D01*
X182048980Y-99861376D01*
X182200728Y-99767776D01*
X182200732Y-99767773D01*
X182326813Y-99641692D01*
X182402113Y-99519613D01*
X182454061Y-99472889D01*
X182523024Y-99461666D01*
X182587106Y-99489510D01*
X182597174Y-99498909D01*
X182674611Y-99579706D01*
X182868255Y-99722924D01*
X182868257Y-99722925D01*
X182918445Y-99748229D01*
X182969444Y-99795987D01*
X182986620Y-99858952D01*
X182986620Y-102498501D01*
X182966935Y-102565540D01*
X182914131Y-102611295D01*
X182844973Y-102621239D01*
X182821311Y-102615418D01*
X182730540Y-102583347D01*
X182730526Y-102583343D01*
X182493155Y-102542641D01*
X182493146Y-102542641D01*
X181822207Y-102542641D01*
X181755168Y-102522956D01*
X181734526Y-102506322D01*
X180265625Y-101037422D01*
X180253843Y-101023789D01*
X180250463Y-101019249D01*
X180239398Y-101004386D01*
X180239396Y-101004384D01*
X180239397Y-101004384D01*
X180201226Y-100972356D01*
X180193243Y-100965040D01*
X180189303Y-100961099D01*
X180164846Y-100941761D01*
X180162050Y-100939483D01*
X180104286Y-100891013D01*
X180098253Y-100887045D01*
X180098281Y-100887001D01*
X180091820Y-100882884D01*
X180091793Y-100882930D01*
X180085649Y-100879140D01*
X180017301Y-100847269D01*
X180014055Y-100845697D01*
X179946674Y-100811857D01*
X179939890Y-100809388D01*
X179939908Y-100809338D01*
X179932666Y-100806821D01*
X179932650Y-100806871D01*
X179925797Y-100804600D01*
X179851947Y-100789351D01*
X179848426Y-100788571D01*
X179839776Y-100786521D01*
X179825532Y-100783145D01*
X179775040Y-100771178D01*
X179767873Y-100770341D01*
X179767879Y-100770287D01*
X179760264Y-100769509D01*
X179760260Y-100769563D01*
X179753069Y-100768933D01*
X179677663Y-100771128D01*
X179674057Y-100771180D01*
X173113493Y-100771180D01*
X173095521Y-100769871D01*
X173071592Y-100766366D01*
X173071588Y-100766365D01*
X173021962Y-100770708D01*
X173011154Y-100771180D01*
X173005552Y-100771180D01*
X172974579Y-100774800D01*
X172970994Y-100775166D01*
X172895890Y-100781737D01*
X172888816Y-100783198D01*
X172888805Y-100783145D01*
X172881324Y-100784804D01*
X172881337Y-100784856D01*
X172874310Y-100786521D01*
X172816406Y-100807595D01*
X172746677Y-100812025D01*
X172685623Y-100778053D01*
X172652627Y-100716465D01*
X172649999Y-100691072D01*
X172649999Y-98080869D01*
X172669684Y-98013830D01*
X172686318Y-97993188D01*
X172719834Y-97959672D01*
X172758231Y-97921275D01*
X172760271Y-97917966D01*
X172762264Y-97916174D01*
X172762712Y-97915608D01*
X172762808Y-97915684D01*
X172812213Y-97871242D01*
X172881175Y-97860014D01*
X172945259Y-97887853D01*
X172971348Y-97917958D01*
X172973200Y-97920960D01*
X172973202Y-97920963D01*
X173097173Y-98044934D01*
X173246394Y-98136975D01*
X173246399Y-98136977D01*
X173412821Y-98192124D01*
X173412828Y-98192125D01*
X173515538Y-98202618D01*
X173653018Y-98202618D01*
X173653019Y-98202617D01*
X173653019Y-97227619D01*
X174153019Y-97227619D01*
X174153019Y-98202618D01*
X174290491Y-98202618D01*
X174290505Y-98202617D01*
X174393216Y-98192124D01*
X174559638Y-98136977D01*
X174559643Y-98136975D01*
X174708864Y-98044934D01*
X174832834Y-97920964D01*
X174924875Y-97771743D01*
X174924877Y-97771738D01*
X174980024Y-97605316D01*
X174980025Y-97605309D01*
X174990518Y-97502605D01*
X174990519Y-97502592D01*
X174990519Y-97227619D01*
X174153019Y-97227619D01*
X173653019Y-97227619D01*
X173653019Y-95752619D01*
X174153019Y-95752619D01*
X174153019Y-96727619D01*
X174990518Y-96727619D01*
X174990518Y-96452647D01*
X174990517Y-96452632D01*
X174980024Y-96349921D01*
X174924877Y-96183499D01*
X174924875Y-96183494D01*
X174832834Y-96034273D01*
X174708864Y-95910303D01*
X174559643Y-95818262D01*
X174559638Y-95818260D01*
X174393216Y-95763113D01*
X174393209Y-95763112D01*
X174290505Y-95752619D01*
X174153019Y-95752619D01*
X173653019Y-95752619D01*
X173515546Y-95752619D01*
X173515531Y-95752620D01*
X173412821Y-95763113D01*
X173246399Y-95818260D01*
X173246394Y-95818262D01*
X173097173Y-95910303D01*
X172973202Y-96034274D01*
X172973198Y-96034279D01*
X172971345Y-96037284D01*
X172969537Y-96038909D01*
X172968721Y-96039942D01*
X172968544Y-96039802D01*
X172919393Y-96084004D01*
X172850430Y-96095220D01*
X172786350Y-96067371D01*
X172760272Y-96037272D01*
X172760256Y-96037247D01*
X172758231Y-96033963D01*
X172634175Y-95909907D01*
X172634173Y-95909905D01*
X172629603Y-95906291D01*
X172589229Y-95849267D01*
X172582519Y-95809029D01*
X172582519Y-93087332D01*
X172602204Y-93020293D01*
X172648130Y-92980178D01*
X172647406Y-92979003D01*
X172653551Y-92975212D01*
X172653553Y-92975212D01*
X172802875Y-92883110D01*
X172926931Y-92759054D01*
X172928971Y-92755745D01*
X172930964Y-92753953D01*
X172931412Y-92753387D01*
X172931508Y-92753463D01*
X172980913Y-92709021D01*
X173049875Y-92697793D01*
X173113959Y-92725632D01*
X173140048Y-92755737D01*
X173141900Y-92758739D01*
X173141902Y-92758742D01*
X173265873Y-92882713D01*
X173415094Y-92974754D01*
X173415099Y-92974756D01*
X173581521Y-93029903D01*
X173581528Y-93029904D01*
X173684238Y-93040397D01*
X173821718Y-93040397D01*
X173821719Y-93040396D01*
X173821719Y-92065398D01*
X174321719Y-92065398D01*
X174321719Y-93040397D01*
X174459191Y-93040397D01*
X174459205Y-93040396D01*
X174561916Y-93029903D01*
X174728338Y-92974756D01*
X174728343Y-92974754D01*
X174877564Y-92882713D01*
X175001534Y-92758743D01*
X175093575Y-92609522D01*
X175093577Y-92609517D01*
X175148724Y-92443095D01*
X175148725Y-92443088D01*
X175159218Y-92340384D01*
X175159219Y-92340371D01*
X175159219Y-92065398D01*
X174321719Y-92065398D01*
X173821719Y-92065398D01*
X173821719Y-90590398D01*
X174321719Y-90590398D01*
X174321719Y-91565398D01*
X175159218Y-91565398D01*
X175159218Y-91290426D01*
X175159217Y-91290411D01*
X175148724Y-91187700D01*
X175093577Y-91021278D01*
X175093575Y-91021273D01*
X175001534Y-90872052D01*
X174877564Y-90748082D01*
X174728343Y-90656041D01*
X174728338Y-90656039D01*
X174561916Y-90600892D01*
X174561909Y-90600891D01*
X174459205Y-90590398D01*
X174321719Y-90590398D01*
X173821719Y-90590398D01*
X173684246Y-90590398D01*
X173684231Y-90590399D01*
X173581521Y-90600892D01*
X173415099Y-90656039D01*
X173415094Y-90656041D01*
X173265873Y-90748082D01*
X173141902Y-90872053D01*
X173141898Y-90872058D01*
X173140045Y-90875063D01*
X173138237Y-90876688D01*
X173137421Y-90877721D01*
X173137244Y-90877581D01*
X173088093Y-90921783D01*
X173019130Y-90932999D01*
X172955050Y-90905150D01*
X172928972Y-90875051D01*
X172928956Y-90875026D01*
X172926931Y-90871742D01*
X172802875Y-90747686D01*
X172674970Y-90668794D01*
X172653555Y-90655585D01*
X172653550Y-90655583D01*
X172627087Y-90646814D01*
X172487016Y-90600399D01*
X172487014Y-90600398D01*
X172384229Y-90589898D01*
X171609217Y-90589898D01*
X171609199Y-90589899D01*
X171506422Y-90600398D01*
X171506419Y-90600399D01*
X171339887Y-90655583D01*
X171339882Y-90655585D01*
X171190564Y-90747685D01*
X171121898Y-90816351D01*
X171060574Y-90849835D01*
X170990883Y-90844850D01*
X170946536Y-90816350D01*
X168114533Y-87984347D01*
X168081048Y-87923024D01*
X168078856Y-87884063D01*
X168085238Y-87821593D01*
X168085239Y-87821586D01*
X168085238Y-87021569D01*
X168083839Y-87007878D01*
X168074738Y-86918780D01*
X168074737Y-86918777D01*
X168074008Y-86916577D01*
X169084740Y-86916577D01*
X169084740Y-87841565D01*
X169095233Y-87944276D01*
X169150379Y-88110697D01*
X169150381Y-88110702D01*
X169242422Y-88259923D01*
X169366392Y-88383893D01*
X169515613Y-88475934D01*
X169515618Y-88475936D01*
X169682041Y-88531083D01*
X169682039Y-88531083D01*
X169740873Y-88537093D01*
X169751863Y-88541577D01*
X169778440Y-88541577D01*
X169791043Y-88542219D01*
X169798200Y-88542950D01*
X169806158Y-88541577D01*
X169836114Y-88541577D01*
X169836123Y-88541576D01*
X170859739Y-88541576D01*
X170859739Y-86916577D01*
X171359739Y-86916577D01*
X171359739Y-88541576D01*
X172534739Y-88541576D01*
X172534739Y-86916577D01*
X173034739Y-86916577D01*
X173034739Y-88541576D01*
X174209738Y-88541576D01*
X174209739Y-88541575D01*
X174209739Y-86916577D01*
X174709739Y-86916577D01*
X174709739Y-88541576D01*
X175784713Y-88541576D01*
X175784727Y-88541575D01*
X175887438Y-88531082D01*
X176053859Y-88475936D01*
X176053864Y-88475934D01*
X176203085Y-88383893D01*
X176327055Y-88259923D01*
X176419096Y-88110702D01*
X176419098Y-88110697D01*
X176474244Y-87944275D01*
X176484738Y-87841565D01*
X176484739Y-87841552D01*
X176484739Y-86916577D01*
X174709739Y-86916577D01*
X174209739Y-86916577D01*
X173034739Y-86916577D01*
X172534739Y-86916577D01*
X171359739Y-86916577D01*
X170859739Y-86916577D01*
X169084740Y-86916577D01*
X168074008Y-86916577D01*
X168021186Y-86757172D01*
X168019553Y-86752243D01*
X167927451Y-86602921D01*
X167803395Y-86478865D01*
X167710627Y-86421646D01*
X167654075Y-86386764D01*
X167654070Y-86386762D01*
X167652601Y-86386275D01*
X167487536Y-86331578D01*
X167487534Y-86331577D01*
X167384749Y-86321077D01*
X165584737Y-86321077D01*
X165584720Y-86321078D01*
X165481942Y-86331577D01*
X165481939Y-86331578D01*
X165315407Y-86386762D01*
X165315402Y-86386764D01*
X165166081Y-86478866D01*
X165042028Y-86602919D01*
X164949926Y-86752240D01*
X164949924Y-86752245D01*
X164939277Y-86784377D01*
X164894740Y-86918780D01*
X164894740Y-86918781D01*
X164894739Y-86918781D01*
X164884239Y-87021560D01*
X164884239Y-87821578D01*
X164884240Y-87821596D01*
X164894739Y-87924373D01*
X164894740Y-87924376D01*
X164949924Y-88090908D01*
X164949926Y-88090913D01*
X164981745Y-88142500D01*
X165042027Y-88240233D01*
X165166083Y-88364289D01*
X165315405Y-88456391D01*
X165481942Y-88511576D01*
X165584730Y-88522077D01*
X165606236Y-88522076D01*
X165673274Y-88541758D01*
X165719031Y-88594560D01*
X165730239Y-88646076D01*
X165730239Y-98820041D01*
X165710554Y-98887080D01*
X165657750Y-98932835D01*
X165651045Y-98935663D01*
X165649531Y-98936249D01*
X165649516Y-98936256D01*
X165476606Y-99043317D01*
X165476604Y-99043319D01*
X165326308Y-99180331D01*
X165203745Y-99342631D01*
X165203740Y-99342639D01*
X165113091Y-99524688D01*
X165113088Y-99524694D01*
X165057433Y-99720302D01*
X165057432Y-99720304D01*
X165038668Y-99922814D01*
X165038668Y-99922815D01*
X165057432Y-100125325D01*
X165057433Y-100125327D01*
X165113088Y-100320935D01*
X165113089Y-100320937D01*
X165113090Y-100320940D01*
X165143143Y-100381294D01*
X165203740Y-100502990D01*
X165203745Y-100502998D01*
X165326308Y-100665298D01*
X165476604Y-100802310D01*
X165476606Y-100802312D01*
X165649516Y-100909373D01*
X165649518Y-100909374D01*
X165649520Y-100909375D01*
X165839165Y-100982844D01*
X166039080Y-101020215D01*
X166039082Y-101020215D01*
X166242456Y-101020215D01*
X166242458Y-101020215D01*
X166442373Y-100982844D01*
X166632018Y-100909375D01*
X166804933Y-100802311D01*
X166955231Y-100665296D01*
X167077794Y-100502996D01*
X167168448Y-100320940D01*
X167224105Y-100125326D01*
X167242870Y-99922815D01*
X167242374Y-99917467D01*
X167228504Y-99767776D01*
X167226686Y-99748158D01*
X167229499Y-99708125D01*
X167239239Y-99667033D01*
X167239239Y-99667030D01*
X167239240Y-99667026D01*
X167240078Y-99659859D01*
X167240131Y-99659865D01*
X167240909Y-99652250D01*
X167240856Y-99652246D01*
X167241485Y-99645055D01*
X167239291Y-99569649D01*
X167239239Y-99566043D01*
X167239239Y-89542463D01*
X167258924Y-89475424D01*
X167311728Y-89429669D01*
X167380886Y-89419725D01*
X167444442Y-89448750D01*
X167450920Y-89454782D01*
X170299794Y-92303656D01*
X170311575Y-92317288D01*
X170326021Y-92336692D01*
X170364198Y-92368726D01*
X170372174Y-92376036D01*
X170376114Y-92379977D01*
X170400570Y-92399314D01*
X170403367Y-92401593D01*
X170461132Y-92450065D01*
X170467169Y-92454035D01*
X170467139Y-92454080D01*
X170473598Y-92458194D01*
X170473627Y-92458148D01*
X170479767Y-92461935D01*
X170479769Y-92461937D01*
X170548117Y-92493808D01*
X170551335Y-92495366D01*
X170618747Y-92529221D01*
X170618749Y-92529222D01*
X170618751Y-92529222D01*
X170625539Y-92531693D01*
X170625520Y-92531745D01*
X170632748Y-92534257D01*
X170632766Y-92534206D01*
X170639615Y-92536475D01*
X170639616Y-92536475D01*
X170639620Y-92536477D01*
X170713532Y-92551737D01*
X170716979Y-92552502D01*
X170790372Y-92569898D01*
X170790373Y-92569898D01*
X170790377Y-92569899D01*
X170797545Y-92570737D01*
X170797538Y-92570790D01*
X170805154Y-92571568D01*
X170805159Y-92571515D01*
X170812348Y-92572143D01*
X170812353Y-92572144D01*
X170877210Y-92570256D01*
X170944793Y-92587982D01*
X170986354Y-92629105D01*
X171055058Y-92740493D01*
X171073519Y-92805588D01*
X171073519Y-95809029D01*
X171053834Y-95876068D01*
X171026435Y-95906291D01*
X171021864Y-95909905D01*
X170897808Y-96033961D01*
X170805706Y-96183282D01*
X170805704Y-96183287D01*
X170805634Y-96183499D01*
X170750520Y-96349822D01*
X170750520Y-96349823D01*
X170750519Y-96349823D01*
X170740019Y-96452602D01*
X170740019Y-97502620D01*
X170740020Y-97502638D01*
X170750519Y-97605415D01*
X170750520Y-97605418D01*
X170805704Y-97771950D01*
X170805706Y-97771955D01*
X170840588Y-97828507D01*
X170897807Y-97921275D01*
X171021863Y-98045331D01*
X171082097Y-98082483D01*
X171128820Y-98134428D01*
X171140999Y-98188020D01*
X171140999Y-101528189D01*
X171121314Y-101595228D01*
X171082099Y-101633726D01*
X171076842Y-101636968D01*
X170952788Y-101761022D01*
X170860686Y-101910343D01*
X170860685Y-101910346D01*
X170805500Y-102076883D01*
X170805500Y-102076884D01*
X170805499Y-102076884D01*
X170794999Y-102179663D01*
X170794999Y-103179681D01*
X170795000Y-103179699D01*
X170805499Y-103282476D01*
X170805500Y-103282479D01*
X170860684Y-103449011D01*
X170860686Y-103449016D01*
X170952788Y-103598337D01*
X171076843Y-103722392D01*
X171183315Y-103788064D01*
X171230040Y-103840012D01*
X171242219Y-103893603D01*
X171242219Y-106690409D01*
X171222534Y-106757448D01*
X171183319Y-106795946D01*
X171178062Y-106799188D01*
X171054008Y-106923242D01*
X170961906Y-107072563D01*
X170961904Y-107072568D01*
X170948128Y-107114141D01*
X170906720Y-107239103D01*
X170906720Y-107239104D01*
X170906719Y-107239104D01*
X170896219Y-107341883D01*
X170896219Y-107803485D01*
X170876534Y-107870524D01*
X170823730Y-107916279D01*
X170754572Y-107926223D01*
X170691016Y-107897198D01*
X170684538Y-107891166D01*
X164613407Y-101820035D01*
X164579922Y-101758712D01*
X164577088Y-101732354D01*
X164577088Y-98075593D01*
X164596773Y-98008554D01*
X164617550Y-97983956D01*
X164764048Y-97850405D01*
X164775395Y-97835380D01*
X164886613Y-97688103D01*
X164977267Y-97506047D01*
X165032924Y-97310433D01*
X165051689Y-97107922D01*
X165046580Y-97052791D01*
X165032924Y-96905411D01*
X165032923Y-96905409D01*
X165023057Y-96870734D01*
X164977267Y-96709797D01*
X164894033Y-96542642D01*
X164886616Y-96527746D01*
X164886611Y-96527738D01*
X164764048Y-96365438D01*
X164613752Y-96228426D01*
X164613750Y-96228424D01*
X164440840Y-96121363D01*
X164440831Y-96121359D01*
X164298603Y-96066260D01*
X164251192Y-96047893D01*
X164051277Y-96010522D01*
X163847899Y-96010522D01*
X163647984Y-96047893D01*
X163647981Y-96047893D01*
X163647981Y-96047894D01*
X163458344Y-96121359D01*
X163458335Y-96121363D01*
X163285425Y-96228424D01*
X163285423Y-96228426D01*
X163135127Y-96365438D01*
X163012564Y-96527738D01*
X163012559Y-96527746D01*
X162921910Y-96709795D01*
X162921907Y-96709801D01*
X162866252Y-96905409D01*
X162866251Y-96905411D01*
X162847487Y-97107921D01*
X162847487Y-97107922D01*
X162866251Y-97310432D01*
X162866252Y-97310434D01*
X162921907Y-97506042D01*
X162921908Y-97506044D01*
X162921909Y-97506047D01*
X162951962Y-97566401D01*
X163012559Y-97688097D01*
X163012564Y-97688105D01*
X163135127Y-97850405D01*
X163281626Y-97983956D01*
X163317908Y-98043667D01*
X163322088Y-98075593D01*
X163322088Y-101144306D01*
X163302403Y-101211345D01*
X163249599Y-101257100D01*
X163180441Y-101267044D01*
X163116885Y-101238019D01*
X163110407Y-101231987D01*
X161115599Y-99237180D01*
X161082114Y-99175857D01*
X161087098Y-99106165D01*
X161128970Y-99050232D01*
X161194434Y-99025815D01*
X161203280Y-99025499D01*
X161717871Y-99025499D01*
X161717872Y-99025499D01*
X161777483Y-99019091D01*
X161912331Y-98968796D01*
X162027546Y-98882546D01*
X162113796Y-98767331D01*
X162164091Y-98632483D01*
X162170500Y-98572873D01*
X162170499Y-97577128D01*
X162164091Y-97517517D01*
X162151340Y-97483332D01*
X162146357Y-97413642D01*
X162151340Y-97396669D01*
X162164091Y-97362483D01*
X162170500Y-97302873D01*
X162170499Y-96307128D01*
X162164091Y-96247517D01*
X162151340Y-96213332D01*
X162146357Y-96143642D01*
X162151340Y-96126669D01*
X162164091Y-96092483D01*
X162170500Y-96032873D01*
X162170499Y-95037128D01*
X162164091Y-94977517D01*
X162151340Y-94943332D01*
X162146357Y-94873642D01*
X162151340Y-94856669D01*
X162164091Y-94822483D01*
X162170500Y-94762873D01*
X162170499Y-93767128D01*
X162164091Y-93707517D01*
X162151340Y-93673332D01*
X162146357Y-93603642D01*
X162151340Y-93586669D01*
X162164091Y-93552483D01*
X162170500Y-93492873D01*
X162170499Y-92497128D01*
X162164091Y-92437517D01*
X162151340Y-92403332D01*
X162146357Y-92333642D01*
X162151340Y-92316669D01*
X162164091Y-92282483D01*
X162170500Y-92222873D01*
X162170499Y-91227128D01*
X162164091Y-91167517D01*
X162151340Y-91133332D01*
X162146357Y-91063642D01*
X162151340Y-91046669D01*
X162164091Y-91012483D01*
X162170500Y-90952873D01*
X162170499Y-89957128D01*
X162164091Y-89897517D01*
X162151340Y-89863332D01*
X162146357Y-89793642D01*
X162151340Y-89776669D01*
X162164091Y-89742483D01*
X162170500Y-89682873D01*
X162170499Y-88687128D01*
X162164091Y-88627517D01*
X162151340Y-88593332D01*
X162146357Y-88523642D01*
X162151340Y-88506669D01*
X162164091Y-88472483D01*
X162170500Y-88412873D01*
X162170499Y-87417128D01*
X162164091Y-87357517D01*
X162151340Y-87323332D01*
X162146357Y-87253642D01*
X162151340Y-87236669D01*
X162164091Y-87202483D01*
X162170500Y-87142873D01*
X162170499Y-86147128D01*
X162164091Y-86087517D01*
X162151340Y-86053332D01*
X162146357Y-85983642D01*
X162151340Y-85966669D01*
X162164091Y-85932483D01*
X162170500Y-85872873D01*
X162170500Y-85391577D01*
X169084739Y-85391577D01*
X169084739Y-86416576D01*
X169084741Y-86416577D01*
X170859739Y-86416577D01*
X170859739Y-85391577D01*
X171359739Y-85391577D01*
X171359739Y-86416577D01*
X172534739Y-86416577D01*
X172534739Y-85391577D01*
X173034739Y-85391577D01*
X173034739Y-86416577D01*
X174209739Y-86416577D01*
X174209739Y-85391577D01*
X174709739Y-85391577D01*
X174709739Y-86416577D01*
X176484738Y-86416577D01*
X176484738Y-85391577D01*
X174709739Y-85391577D01*
X174209739Y-85391577D01*
X173034739Y-85391577D01*
X172534739Y-85391577D01*
X171359739Y-85391577D01*
X170859739Y-85391577D01*
X169084739Y-85391577D01*
X162170500Y-85391577D01*
X162170499Y-84877128D01*
X162164091Y-84817517D01*
X162151340Y-84783332D01*
X162146357Y-84713642D01*
X162151340Y-84696669D01*
X162164091Y-84662483D01*
X162170500Y-84602873D01*
X162170499Y-83607128D01*
X162164091Y-83547517D01*
X162151340Y-83513332D01*
X162146357Y-83443642D01*
X162151338Y-83426672D01*
X162164091Y-83392483D01*
X162170500Y-83332873D01*
X162170499Y-82337128D01*
X162164091Y-82277517D01*
X162151073Y-82242616D01*
X162146090Y-82172926D01*
X162151075Y-82155949D01*
X162163597Y-82122375D01*
X162163598Y-82122372D01*
X162169999Y-82062844D01*
X162170000Y-82062827D01*
X162170000Y-81662616D01*
X162189685Y-81595577D01*
X162242489Y-81549822D01*
X162294000Y-81538616D01*
X162938632Y-81538616D01*
X163005671Y-81558301D01*
X163037586Y-81587890D01*
X163087203Y-81653594D01*
X163087205Y-81653597D01*
X163197892Y-81754501D01*
X163232270Y-81785841D01*
X163237503Y-81790611D01*
X163237505Y-81790613D01*
X163410415Y-81897674D01*
X163410417Y-81897675D01*
X163410419Y-81897676D01*
X163600064Y-81971145D01*
X163799979Y-82008516D01*
X163799981Y-82008516D01*
X164003355Y-82008516D01*
X164003357Y-82008516D01*
X164203272Y-81971145D01*
X164392917Y-81897676D01*
X164565832Y-81790612D01*
X164716130Y-81653597D01*
X164838693Y-81491297D01*
X164929347Y-81309241D01*
X164985004Y-81113627D01*
X165003769Y-80911116D01*
X164985004Y-80708605D01*
X164929347Y-80512991D01*
X164855760Y-80365210D01*
X164838696Y-80330940D01*
X164838691Y-80330932D01*
X164750182Y-80213727D01*
X164725490Y-80148365D01*
X164740055Y-80080031D01*
X164789253Y-80030418D01*
X164849136Y-80015000D01*
X176170000Y-80015000D01*
X176170000Y-59075000D01*
X128170000Y-59075000D01*
X123391080Y-59075000D01*
X123391080Y-57127198D01*
X123410765Y-57060159D01*
X123463569Y-57014404D01*
X123515080Y-57003198D01*
X186637132Y-57003198D01*
X186704171Y-57022883D01*
G37*
%TD.AperFunction*%
%TD*%
%TA.AperFunction,NonConductor*%
G36*
X130164093Y-84080063D02*
G01*
X130209848Y-84132867D01*
X130221054Y-84184377D01*
X130221054Y-84355746D01*
X130221055Y-84355756D01*
X130225233Y-84394623D01*
X130225233Y-84421128D01*
X130221054Y-84460000D01*
X130221054Y-85005747D01*
X130221055Y-85005756D01*
X130225233Y-85044623D01*
X130225233Y-85071128D01*
X130221054Y-85110000D01*
X130221054Y-85110005D01*
X130221054Y-85242258D01*
X130221055Y-85281377D01*
X130201371Y-85348417D01*
X130148567Y-85394172D01*
X130097055Y-85405378D01*
X129490438Y-85405378D01*
X129423399Y-85385693D01*
X129377644Y-85332889D01*
X129367700Y-85263731D01*
X129396725Y-85200175D01*
X129425161Y-85175951D01*
X129447813Y-85161925D01*
X129447812Y-85161925D01*
X129447815Y-85161924D01*
X129576488Y-85044623D01*
X129598111Y-85024911D01*
X129612577Y-85005756D01*
X129720676Y-84862609D01*
X129811330Y-84680553D01*
X129866987Y-84484939D01*
X129885752Y-84282428D01*
X129884441Y-84268279D01*
X129877727Y-84195819D01*
X129891142Y-84127249D01*
X129939499Y-84076817D01*
X130001198Y-84060378D01*
X130097054Y-84060378D01*
X130164093Y-84080063D01*
G37*
%TD.AperFunction*%
%TA.AperFunction,NonConductor*%
G36*
X163021240Y-80034685D02*
G01*
X163066995Y-80087489D01*
X163076939Y-80156647D01*
X163053154Y-80213728D01*
X163037585Y-80234344D01*
X162981475Y-80275979D01*
X162938632Y-80283616D01*
X162413901Y-80283616D01*
X162354173Y-80268283D01*
X162351131Y-80266611D01*
X162334857Y-80255922D01*
X162312797Y-80238810D01*
X162314304Y-80236867D01*
X162274898Y-80194667D01*
X162262392Y-80125926D01*
X162289036Y-80061335D01*
X162346370Y-80021403D01*
X162385701Y-80015000D01*
X162954201Y-80015000D01*
X163021240Y-80034685D01*
G37*
%TD.AperFunction*%
%TA.AperFunction,NonConductor*%
G36*
X159588833Y-84152097D02*
G01*
X159644767Y-84193968D01*
X159669184Y-84259432D01*
X159669500Y-84268279D01*
X159669500Y-84541285D01*
X159649815Y-84608324D01*
X159597011Y-84654079D01*
X159527853Y-84664023D01*
X159500713Y-84656913D01*
X159474232Y-84646655D01*
X159474227Y-84646654D01*
X159474221Y-84646652D01*
X159444958Y-84641182D01*
X159382677Y-84609514D01*
X159347405Y-84549201D01*
X159344273Y-84507856D01*
X159360651Y-84331109D01*
X159360651Y-84331108D01*
X159360651Y-84329129D01*
X159360919Y-84328216D01*
X159361180Y-84325400D01*
X159361730Y-84325451D01*
X159380336Y-84262090D01*
X159396964Y-84241453D01*
X159457823Y-84180595D01*
X159519141Y-84147113D01*
X159588833Y-84152097D01*
G37*
%TD.AperFunction*%
%TA.AperFunction,NonConductor*%
G36*
X157114847Y-84506083D02*
G01*
X157170781Y-84547955D01*
X157190780Y-84588330D01*
X157221605Y-84696669D01*
X157230871Y-84729234D01*
X157236232Y-84740000D01*
X157321521Y-84911284D01*
X157321526Y-84911292D01*
X157444089Y-85073592D01*
X157594385Y-85210604D01*
X157594387Y-85210606D01*
X157767297Y-85317667D01*
X157767299Y-85317668D01*
X157767301Y-85317669D01*
X157956946Y-85391138D01*
X157986219Y-85396610D01*
X158048498Y-85428277D01*
X158083772Y-85488589D01*
X158086904Y-85529939D01*
X158070527Y-85706682D01*
X158070527Y-85706685D01*
X158071585Y-85718103D01*
X158058170Y-85786673D01*
X158009813Y-85837105D01*
X157941867Y-85853387D01*
X157875904Y-85830349D01*
X157864576Y-85821182D01*
X157840145Y-85798910D01*
X157840142Y-85798908D01*
X157840141Y-85798907D01*
X157667233Y-85691847D01*
X157667224Y-85691843D01*
X157524996Y-85636744D01*
X157477585Y-85618377D01*
X157277670Y-85581006D01*
X157074292Y-85581006D01*
X156874377Y-85618377D01*
X156874374Y-85618377D01*
X156874374Y-85618378D01*
X156684737Y-85691843D01*
X156684728Y-85691847D01*
X156511818Y-85798908D01*
X156511816Y-85798910D01*
X156361520Y-85935922D01*
X156238957Y-86098222D01*
X156238952Y-86098230D01*
X156212500Y-86151354D01*
X156164997Y-86202591D01*
X156097334Y-86220012D01*
X156030993Y-86198086D01*
X155987039Y-86143774D01*
X155977500Y-86096082D01*
X155977500Y-85592280D01*
X155997185Y-85525241D01*
X156013814Y-85504603D01*
X156983835Y-84534582D01*
X157045156Y-84501099D01*
X157114847Y-84506083D01*
G37*
%TD.AperFunction*%
%TA.AperFunction,NonConductor*%
G36*
X156182703Y-87167016D02*
G01*
X156212500Y-87205457D01*
X156238952Y-87258581D01*
X156238957Y-87258589D01*
X156361520Y-87420889D01*
X156511816Y-87557901D01*
X156511818Y-87557903D01*
X156684728Y-87664964D01*
X156684730Y-87664965D01*
X156684732Y-87664966D01*
X156684735Y-87664967D01*
X156684737Y-87664968D01*
X156697997Y-87670104D01*
X156874377Y-87738435D01*
X157074292Y-87775806D01*
X157074294Y-87775806D01*
X157277668Y-87775806D01*
X157277670Y-87775806D01*
X157477585Y-87738435D01*
X157667230Y-87664966D01*
X157840145Y-87557902D01*
X157990443Y-87420887D01*
X158065290Y-87321771D01*
X158121397Y-87280138D01*
X158164243Y-87272500D01*
X159547004Y-87272500D01*
X159614043Y-87292185D01*
X159659798Y-87344989D01*
X159670292Y-87409757D01*
X159669500Y-87417127D01*
X159669500Y-87417131D01*
X159669500Y-88412870D01*
X159669501Y-88412876D01*
X159675908Y-88472481D01*
X159688659Y-88506669D01*
X159693642Y-88576361D01*
X159688659Y-88593331D01*
X159675908Y-88627518D01*
X159672954Y-88655000D01*
X159669501Y-88687123D01*
X159669500Y-88687135D01*
X159669500Y-89682870D01*
X159669501Y-89682876D01*
X159675908Y-89742481D01*
X159688659Y-89776669D01*
X159693642Y-89846361D01*
X159688659Y-89863331D01*
X159675908Y-89897518D01*
X159669501Y-89957116D01*
X159669501Y-89957123D01*
X159669500Y-89957135D01*
X159669500Y-90952870D01*
X159669501Y-90952876D01*
X159675908Y-91012481D01*
X159688659Y-91046669D01*
X159693642Y-91116361D01*
X159688659Y-91133331D01*
X159675908Y-91167518D01*
X159671270Y-91210661D01*
X159669501Y-91227123D01*
X159669500Y-91227135D01*
X159669500Y-92222870D01*
X159669501Y-92222876D01*
X159675908Y-92282481D01*
X159688659Y-92316669D01*
X159693642Y-92386361D01*
X159688659Y-92403331D01*
X159675908Y-92437518D01*
X159672908Y-92465425D01*
X159669501Y-92497123D01*
X159669500Y-92497135D01*
X159669500Y-93492870D01*
X159669501Y-93492876D01*
X159675908Y-93552481D01*
X159688659Y-93586669D01*
X159693642Y-93656361D01*
X159688659Y-93673331D01*
X159675908Y-93707518D01*
X159669501Y-93767116D01*
X159669501Y-93767123D01*
X159669500Y-93767135D01*
X159669500Y-94762870D01*
X159669501Y-94762876D01*
X159675908Y-94822481D01*
X159688659Y-94856669D01*
X159693642Y-94926361D01*
X159688659Y-94943331D01*
X159675908Y-94977518D01*
X159669501Y-95037116D01*
X159669501Y-95037123D01*
X159669500Y-95037135D01*
X159669500Y-96032870D01*
X159669501Y-96032876D01*
X159675908Y-96092481D01*
X159688659Y-96126669D01*
X159693642Y-96196361D01*
X159688659Y-96213331D01*
X159675908Y-96247518D01*
X159674342Y-96262090D01*
X159647603Y-96326641D01*
X159590210Y-96366488D01*
X159520385Y-96368981D01*
X159463372Y-96336514D01*
X158093384Y-94966526D01*
X158059899Y-94905203D01*
X158057594Y-94867409D01*
X158070430Y-94728890D01*
X158051665Y-94526379D01*
X157996008Y-94330765D01*
X157935901Y-94210055D01*
X157905357Y-94148714D01*
X157905352Y-94148706D01*
X157782789Y-93986406D01*
X157632493Y-93849394D01*
X157632491Y-93849392D01*
X157459581Y-93742331D01*
X157459572Y-93742327D01*
X157281471Y-93673331D01*
X157269933Y-93668861D01*
X157070018Y-93631490D01*
X156866640Y-93631490D01*
X156666725Y-93668861D01*
X156666722Y-93668861D01*
X156666722Y-93668862D01*
X156477085Y-93742327D01*
X156477076Y-93742331D01*
X156304166Y-93849392D01*
X156304164Y-93849394D01*
X156185038Y-93957992D01*
X156122234Y-93988609D01*
X156052847Y-93980411D01*
X155998907Y-93936002D01*
X155977539Y-93869479D01*
X155977500Y-93866355D01*
X155977500Y-87260729D01*
X155997185Y-87193690D01*
X156049989Y-87147935D01*
X156119147Y-87137991D01*
X156182703Y-87167016D01*
G37*
%TD.AperFunction*%
%TA.AperFunction,NonConductor*%
G36*
X156182703Y-95497711D02*
G01*
X156184991Y-95499744D01*
X156304165Y-95608386D01*
X156304167Y-95608387D01*
X156304168Y-95608388D01*
X156477076Y-95715448D01*
X156477078Y-95715449D01*
X156477080Y-95715450D01*
X156666725Y-95788919D01*
X156866640Y-95826290D01*
X156866642Y-95826290D01*
X157070018Y-95826290D01*
X157097004Y-95821245D01*
X157166518Y-95828274D01*
X157207472Y-95855452D01*
X157594990Y-96242970D01*
X157628475Y-96304293D01*
X157623491Y-96373985D01*
X157581619Y-96429918D01*
X157572587Y-96436078D01*
X157466599Y-96501703D01*
X157316304Y-96638714D01*
X157193741Y-96801014D01*
X157193736Y-96801022D01*
X157103087Y-96983071D01*
X157103084Y-96983077D01*
X157047429Y-97178685D01*
X157047428Y-97178687D01*
X157028664Y-97381197D01*
X157028664Y-97381198D01*
X157047428Y-97583708D01*
X157047429Y-97583710D01*
X157103084Y-97779318D01*
X157103089Y-97779329D01*
X157160800Y-97895229D01*
X157173061Y-97964014D01*
X157146188Y-98028509D01*
X157088712Y-98068236D01*
X157049800Y-98074500D01*
X156122129Y-98074500D01*
X156122105Y-98074502D01*
X156114746Y-98075293D01*
X156045987Y-98062883D01*
X155994854Y-98015269D01*
X155977500Y-97952003D01*
X155977500Y-95591424D01*
X155997185Y-95524385D01*
X156049989Y-95478630D01*
X156119147Y-95468686D01*
X156182703Y-95497711D01*
G37*
%TD.AperFunction*%
%TA.AperFunction,NonConductor*%
G36*
X179390012Y-102299865D02*
G01*
X179410654Y-102316499D01*
X180488559Y-103394404D01*
X180522044Y-103455727D01*
X180519443Y-103518394D01*
X180476574Y-103658379D01*
X180473510Y-103682306D01*
X180445470Y-103746302D01*
X180387281Y-103784979D01*
X180317420Y-103786057D01*
X180262834Y-103754236D01*
X179000459Y-102491861D01*
X178966974Y-102430538D01*
X178971958Y-102360846D01*
X179013830Y-102304913D01*
X179079294Y-102280496D01*
X179088140Y-102280180D01*
X179322973Y-102280180D01*
X179390012Y-102299865D01*
G37*
%TD.AperFunction*%
%TA.AperFunction,NonConductor*%
G36*
X178056617Y-103326865D02*
G01*
X178077259Y-103343499D01*
X180392120Y-105658360D01*
X180425605Y-105719683D01*
X180420621Y-105789375D01*
X180378749Y-105845308D01*
X180313285Y-105869725D01*
X180304439Y-105870041D01*
X177561967Y-105870041D01*
X177494928Y-105850356D01*
X177474286Y-105833722D01*
X177104112Y-105463548D01*
X177070627Y-105402225D01*
X177068322Y-105364431D01*
X177081158Y-105225912D01*
X177062393Y-105023401D01*
X177006736Y-104827787D01*
X176946629Y-104707077D01*
X176916085Y-104645736D01*
X176916080Y-104645728D01*
X176793517Y-104483428D01*
X176643221Y-104346416D01*
X176643219Y-104346414D01*
X176470309Y-104239353D01*
X176470300Y-104239349D01*
X176328072Y-104184250D01*
X176280661Y-104165883D01*
X176080746Y-104128512D01*
X175877368Y-104128512D01*
X175677453Y-104165883D01*
X175677450Y-104165883D01*
X175677450Y-104165884D01*
X175487813Y-104239349D01*
X175487804Y-104239353D01*
X175314894Y-104346414D01*
X175314892Y-104346416D01*
X175164596Y-104483428D01*
X175042033Y-104645728D01*
X175042028Y-104645736D01*
X174951379Y-104827785D01*
X174951376Y-104827791D01*
X174895721Y-105023399D01*
X174895720Y-105023401D01*
X174876956Y-105225911D01*
X174876956Y-105225912D01*
X174895720Y-105428422D01*
X174895721Y-105428424D01*
X174951376Y-105624032D01*
X174951377Y-105624034D01*
X174951378Y-105624037D01*
X174968469Y-105658360D01*
X175042028Y-105806087D01*
X175042033Y-105806095D01*
X175164596Y-105968395D01*
X175314892Y-106105407D01*
X175314894Y-106105409D01*
X175487804Y-106212470D01*
X175487806Y-106212471D01*
X175487808Y-106212472D01*
X175677453Y-106285941D01*
X175877368Y-106323312D01*
X175877370Y-106323312D01*
X176080746Y-106323312D01*
X176107732Y-106318267D01*
X176177246Y-106325296D01*
X176218200Y-106352474D01*
X176748310Y-106882584D01*
X176758157Y-106894874D01*
X176758375Y-106894695D01*
X176763343Y-106900700D01*
X176763345Y-106900702D01*
X176763346Y-106900703D01*
X176787350Y-106923244D01*
X176812532Y-106946892D01*
X176815329Y-106949603D01*
X176834893Y-106969167D01*
X176838071Y-106971631D01*
X176846967Y-106979228D01*
X176878921Y-107009236D01*
X176878923Y-107009237D01*
X176896553Y-107018928D01*
X176912821Y-107029613D01*
X176928724Y-107041949D01*
X176968948Y-107059355D01*
X176979440Y-107064495D01*
X177017844Y-107085609D01*
X177017846Y-107085610D01*
X177017852Y-107085613D01*
X177036926Y-107090510D01*
X177037346Y-107090618D01*
X177055750Y-107096918D01*
X177074228Y-107104915D01*
X177117537Y-107111774D01*
X177128944Y-107114136D01*
X177171414Y-107125041D01*
X177191544Y-107125041D01*
X177210943Y-107126568D01*
X177230819Y-107129716D01*
X177270614Y-107125954D01*
X177274456Y-107125591D01*
X177286125Y-107125041D01*
X180520216Y-107125041D01*
X180587255Y-107144726D01*
X180625806Y-107184027D01*
X180723030Y-107341929D01*
X180882155Y-107522729D01*
X181069337Y-107673869D01*
X181109129Y-107731300D01*
X181111555Y-107801127D01*
X181075845Y-107861182D01*
X181060876Y-107873079D01*
X180996961Y-107916279D01*
X180972637Y-107932719D01*
X180798752Y-108099372D01*
X180655537Y-108293013D01*
X180655531Y-108293022D01*
X180630904Y-108341867D01*
X180583146Y-108392866D01*
X180520182Y-108410041D01*
X175503641Y-108410041D01*
X175436602Y-108390356D01*
X175415960Y-108373722D01*
X175133537Y-108091299D01*
X175100052Y-108029976D01*
X175097218Y-108003618D01*
X175097218Y-107341898D01*
X175097217Y-107341881D01*
X175086718Y-107239103D01*
X175086717Y-107239100D01*
X175031533Y-107072566D01*
X174939431Y-106923244D01*
X174815375Y-106799188D01*
X174666053Y-106707086D01*
X174499516Y-106651901D01*
X174499514Y-106651900D01*
X174396729Y-106641400D01*
X173596717Y-106641400D01*
X173596699Y-106641401D01*
X173493922Y-106651900D01*
X173493919Y-106651901D01*
X173327387Y-106707085D01*
X173327382Y-106707087D01*
X173178061Y-106799189D01*
X173084400Y-106892851D01*
X173023077Y-106926336D01*
X172953385Y-106921352D01*
X172909038Y-106892851D01*
X172815375Y-106799188D01*
X172810119Y-106795946D01*
X172763396Y-106743997D01*
X172751219Y-106690409D01*
X172751219Y-103736690D01*
X172770904Y-103669651D01*
X172787538Y-103649009D01*
X172807818Y-103628729D01*
X172869141Y-103595244D01*
X172938833Y-103600228D01*
X172983180Y-103628729D01*
X173076843Y-103722392D01*
X173226165Y-103814494D01*
X173392702Y-103869679D01*
X173495490Y-103880180D01*
X174295507Y-103880179D01*
X174295515Y-103880178D01*
X174295518Y-103880178D01*
X174351801Y-103874428D01*
X174398296Y-103869679D01*
X174564833Y-103814494D01*
X174714155Y-103722392D01*
X174838211Y-103598336D01*
X174930313Y-103449014D01*
X174949147Y-103392175D01*
X174988920Y-103334731D01*
X175053436Y-103307908D01*
X175066853Y-103307180D01*
X177989578Y-103307180D01*
X178056617Y-103326865D01*
G37*
%TD.AperFunction*%
%TA.AperFunction,NonConductor*%
G36*
X173040053Y-108762448D02*
G01*
X173084400Y-108790949D01*
X173178063Y-108884612D01*
X173310315Y-108966185D01*
X173357040Y-109018133D01*
X173369219Y-109071724D01*
X173369219Y-109789867D01*
X173349534Y-109856906D01*
X173296730Y-109902661D01*
X173245219Y-109913867D01*
X172758601Y-109913867D01*
X172691562Y-109894182D01*
X172670920Y-109877548D01*
X172047452Y-109254080D01*
X172013967Y-109192757D01*
X172018951Y-109123065D01*
X172060823Y-109067132D01*
X172126287Y-109042715D01*
X172135133Y-109042399D01*
X172396721Y-109042399D01*
X172396727Y-109042399D01*
X172499516Y-109031899D01*
X172666053Y-108976714D01*
X172815375Y-108884612D01*
X172909038Y-108790949D01*
X172970361Y-108757464D01*
X173040053Y-108762448D01*
G37*
%TD.AperFunction*%
%TA.AperFunction,NonConductor*%
G36*
X174813233Y-109546414D02*
G01*
X174813751Y-109545474D01*
X174838227Y-109558928D01*
X174854495Y-109569613D01*
X174870398Y-109581949D01*
X174870399Y-109581949D01*
X174870400Y-109581950D01*
X174884155Y-109587902D01*
X174910622Y-109599355D01*
X174921114Y-109604495D01*
X174959518Y-109625609D01*
X174959520Y-109625610D01*
X174959526Y-109625613D01*
X174978600Y-109630510D01*
X174979020Y-109630618D01*
X174997424Y-109636918D01*
X175015902Y-109644915D01*
X175059211Y-109651774D01*
X175070618Y-109654136D01*
X175113088Y-109665041D01*
X175133218Y-109665041D01*
X175152617Y-109666568D01*
X175172493Y-109669716D01*
X175212288Y-109665954D01*
X175216130Y-109665591D01*
X175227799Y-109665041D01*
X180520216Y-109665041D01*
X180587255Y-109684726D01*
X180625806Y-109724027D01*
X180723030Y-109881929D01*
X180882155Y-110062729D01*
X181069337Y-110213869D01*
X181109129Y-110271300D01*
X181111555Y-110341127D01*
X181075845Y-110401182D01*
X181060876Y-110413079D01*
X180998300Y-110455374D01*
X180972637Y-110472719D01*
X180798752Y-110639372D01*
X180655537Y-110833013D01*
X180655531Y-110833022D01*
X180630904Y-110881867D01*
X180583146Y-110932866D01*
X180520182Y-110950041D01*
X174535302Y-110950041D01*
X174468263Y-110930356D01*
X174422508Y-110877552D01*
X174412564Y-110808394D01*
X174441589Y-110744838D01*
X174444883Y-110741186D01*
X174446068Y-110739923D01*
X174448752Y-110737153D01*
X174468342Y-110717565D01*
X174470815Y-110714375D01*
X174478401Y-110705491D01*
X174508412Y-110673536D01*
X174518108Y-110655897D01*
X174528792Y-110639630D01*
X174541127Y-110623731D01*
X174558538Y-110583494D01*
X174563661Y-110573034D01*
X174584791Y-110534603D01*
X174589797Y-110515103D01*
X174596095Y-110496705D01*
X174604093Y-110478227D01*
X174610951Y-110434920D01*
X174613315Y-110423505D01*
X174624219Y-110381041D01*
X174624219Y-110360910D01*
X174625746Y-110341510D01*
X174626326Y-110337847D01*
X174628894Y-110321636D01*
X174624769Y-110277999D01*
X174624219Y-110266330D01*
X174624219Y-109649923D01*
X174643904Y-109582884D01*
X174696708Y-109537129D01*
X174765866Y-109527185D01*
X174813233Y-109546414D01*
G37*
%TD.AperFunction*%
M02*
