M48
INCH,TZ
T1C0.0120
T2C0.0230
T3C0.0469
T4C0.0550
T5C0.1560
%
G90
G05
T1
X59041Y-34702
X59041Y-35302
X59342Y-34402
X59342Y-35002
X59342Y-35602
X59642Y-34702
X59642Y-35302
X59942Y-34402
X59942Y-35002
X59942Y-35602
X60242Y-34702
X60242Y-35302
T2
X49190Y-33403
X50702Y-33182
X55611Y-35609
X57190Y-37981
X61774Y-40497
X61799Y-37295
X61880Y-34125
X62256Y-38339
X62307Y-33201
X62666Y-33743
X64528Y-31855
X64547Y-38231
X65410Y-39340
X69283Y-41428
T3
X71288Y-38685
X71700Y-40928
X71700Y-41928
X71700Y-42928
X71700Y-43928
X71700Y-44928
X71700Y-45928
X72288Y-38685
T4
X57671Y-43117
X57671Y-47467
T5
X52441Y-45292
X64321Y-45292
M30
