%TF.GenerationSoftware,KiCad,Pcbnew,7.0.10*%
%TF.CreationDate,2024-03-05T16:05:14-06:00*%
%TF.ProjectId,smart_helmet,736d6172-745f-4686-956c-6d65742e6b69,rev?*%
%TF.SameCoordinates,Original*%
%TF.FileFunction,Paste,Top*%
%TF.FilePolarity,Positive*%
%FSLAX46Y46*%
G04 Gerber Fmt 4.6, Leading zero omitted, Abs format (unit mm)*
G04 Created by KiCad (PCBNEW 7.0.10) date 2024-03-05 16:05:14*
%MOMM*%
%LPD*%
G01*
G04 APERTURE LIST*
G04 Aperture macros list*
%AMRoundRect*
0 Rectangle with rounded corners*
0 $1 Rounding radius*
0 $2 $3 $4 $5 $6 $7 $8 $9 X,Y pos of 4 corners*
0 Add a 4 corners polygon primitive as box body*
4,1,4,$2,$3,$4,$5,$6,$7,$8,$9,$2,$3,0*
0 Add four circle primitives for the rounded corners*
1,1,$1+$1,$2,$3*
1,1,$1+$1,$4,$5*
1,1,$1+$1,$6,$7*
1,1,$1+$1,$8,$9*
0 Add four rect primitives between the rounded corners*
20,1,$1+$1,$2,$3,$4,$5,0*
20,1,$1+$1,$4,$5,$6,$7,0*
20,1,$1+$1,$6,$7,$8,$9,0*
20,1,$1+$1,$8,$9,$2,$3,0*%
G04 Aperture macros list end*
%ADD10R,1.050000X1.050000*%
%ADD11R,1.500000X0.900000*%
%ADD12R,0.900000X1.500000*%
%ADD13RoundRect,0.250000X-1.275000X-1.125000X1.275000X-1.125000X1.275000X1.125000X-1.275000X1.125000X0*%
%ADD14RoundRect,0.250000X-0.850000X-0.350000X0.850000X-0.350000X0.850000X0.350000X-0.850000X0.350000X0*%
%ADD15R,1.750000X0.450000*%
%ADD16RoundRect,0.250000X-0.350000X-0.450000X0.350000X-0.450000X0.350000X0.450000X-0.350000X0.450000X0*%
%ADD17RoundRect,0.250000X-0.337500X-0.475000X0.337500X-0.475000X0.337500X0.475000X-0.337500X0.475000X0*%
G04 APERTURE END LIST*
D10*
%TO.C,U5*%
X151490000Y-88905000D03*
X151490000Y-87380000D03*
X153015000Y-87380000D03*
X149965000Y-90430000D03*
X149965000Y-88905000D03*
X153015000Y-88905000D03*
X151490000Y-90430000D03*
X153015000Y-90430000D03*
X149965000Y-87380000D03*
D11*
X160920000Y-81565000D03*
X160920000Y-82835000D03*
X160920000Y-84105000D03*
X160920000Y-85375000D03*
X160920000Y-86645000D03*
X160920000Y-87915000D03*
X160920000Y-89185000D03*
X160920000Y-90455000D03*
X160920000Y-91725000D03*
X160920000Y-92995000D03*
X160920000Y-94265000D03*
X160920000Y-95535000D03*
X160920000Y-96805000D03*
X160920000Y-98075000D03*
D12*
X157890000Y-99325000D03*
X156620000Y-99325000D03*
X155350000Y-99325000D03*
X154080000Y-99325000D03*
X152810000Y-99325000D03*
X151540000Y-99325000D03*
X150270000Y-99325000D03*
X149000000Y-99325000D03*
X147730000Y-99325000D03*
X146460000Y-99325000D03*
D11*
X143420000Y-98075000D03*
X143420000Y-96805000D03*
X143420000Y-95535000D03*
X143420000Y-94265000D03*
X143420000Y-92995000D03*
X143420000Y-91725000D03*
X143420000Y-90455000D03*
X143420000Y-89185000D03*
X143420000Y-87915000D03*
X143420000Y-86645000D03*
X143420000Y-85375000D03*
X143420000Y-84105000D03*
X143420000Y-82835000D03*
X143420000Y-81565000D03*
%TD*%
D13*
%TO.C,U4*%
X171109739Y-86666577D03*
X174459739Y-83616577D03*
X171109739Y-83616577D03*
X174459739Y-86666577D03*
D14*
X166484739Y-87421577D03*
X166484739Y-82861577D03*
%TD*%
D15*
%TO.C,U1*%
X138796554Y-83432878D03*
X138796554Y-84082878D03*
X138796554Y-84732878D03*
X138796554Y-85382878D03*
X138796554Y-86032878D03*
X138796554Y-86682878D03*
X138796554Y-87332878D03*
X138796554Y-87982878D03*
X138796554Y-88632878D03*
X138796554Y-89282878D03*
X138796554Y-89932878D03*
X138796554Y-90582878D03*
X138796554Y-91232878D03*
X138796554Y-91882878D03*
X131596554Y-91882878D03*
X131596554Y-91232878D03*
X131596554Y-90582878D03*
X131596554Y-89932878D03*
X131596554Y-89282878D03*
X131596554Y-88632878D03*
X131596554Y-87982878D03*
X131596554Y-87332878D03*
X131596554Y-86682878D03*
X131596554Y-86032878D03*
X131596554Y-85382878D03*
X131596554Y-84732878D03*
X131596554Y-84082878D03*
X131596554Y-83432878D03*
%TD*%
D16*
%TO.C,R2*%
X171895499Y-102679680D03*
X173895499Y-102679680D03*
%TD*%
%TO.C,R1*%
X171996719Y-107841900D03*
X173996719Y-107841900D03*
%TD*%
D17*
%TO.C,C2*%
X171828019Y-96977619D03*
X173903019Y-96977619D03*
%TD*%
%TO.C,C1*%
X174071719Y-91815398D03*
X171996719Y-91815398D03*
%TD*%
M02*
