%TF.GenerationSoftware,KiCad,Pcbnew,7.0.10*%
%TF.CreationDate,2024-03-05T16:05:14-06:00*%
%TF.ProjectId,smart_helmet,736d6172-745f-4686-956c-6d65742e6b69,rev?*%
%TF.SameCoordinates,Original*%
%TF.FileFunction,Legend,Top*%
%TF.FilePolarity,Positive*%
%FSLAX46Y46*%
G04 Gerber Fmt 4.6, Leading zero omitted, Abs format (unit mm)*
G04 Created by KiCad (PCBNEW 7.0.10) date 2024-03-05 16:05:14*
%MOMM*%
%LPD*%
G01*
G04 APERTURE LIST*
%ADD10C,0.150000*%
%ADD11C,0.120000*%
%ADD12C,0.152400*%
%ADD13C,0.939800*%
G04 APERTURE END LIST*
D10*
X145100047Y-81118305D02*
X145433380Y-81118305D01*
X145576237Y-81642115D02*
X145100047Y-81642115D01*
X145100047Y-81642115D02*
X145100047Y-80642115D01*
X145100047Y-80642115D02*
X145576237Y-80642115D01*
X145957190Y-81594496D02*
X146100047Y-81642115D01*
X146100047Y-81642115D02*
X146338142Y-81642115D01*
X146338142Y-81642115D02*
X146433380Y-81594496D01*
X146433380Y-81594496D02*
X146480999Y-81546876D01*
X146480999Y-81546876D02*
X146528618Y-81451638D01*
X146528618Y-81451638D02*
X146528618Y-81356400D01*
X146528618Y-81356400D02*
X146480999Y-81261162D01*
X146480999Y-81261162D02*
X146433380Y-81213543D01*
X146433380Y-81213543D02*
X146338142Y-81165924D01*
X146338142Y-81165924D02*
X146147666Y-81118305D01*
X146147666Y-81118305D02*
X146052428Y-81070686D01*
X146052428Y-81070686D02*
X146004809Y-81023067D01*
X146004809Y-81023067D02*
X145957190Y-80927829D01*
X145957190Y-80927829D02*
X145957190Y-80832591D01*
X145957190Y-80832591D02*
X146004809Y-80737353D01*
X146004809Y-80737353D02*
X146052428Y-80689734D01*
X146052428Y-80689734D02*
X146147666Y-80642115D01*
X146147666Y-80642115D02*
X146385761Y-80642115D01*
X146385761Y-80642115D02*
X146528618Y-80689734D01*
X146957190Y-81642115D02*
X146957190Y-80642115D01*
X146957190Y-80642115D02*
X147338142Y-80642115D01*
X147338142Y-80642115D02*
X147433380Y-80689734D01*
X147433380Y-80689734D02*
X147480999Y-80737353D01*
X147480999Y-80737353D02*
X147528618Y-80832591D01*
X147528618Y-80832591D02*
X147528618Y-80975448D01*
X147528618Y-80975448D02*
X147480999Y-81070686D01*
X147480999Y-81070686D02*
X147433380Y-81118305D01*
X147433380Y-81118305D02*
X147338142Y-81165924D01*
X147338142Y-81165924D02*
X146957190Y-81165924D01*
X147861952Y-80642115D02*
X148480999Y-80642115D01*
X148480999Y-80642115D02*
X148147666Y-81023067D01*
X148147666Y-81023067D02*
X148290523Y-81023067D01*
X148290523Y-81023067D02*
X148385761Y-81070686D01*
X148385761Y-81070686D02*
X148433380Y-81118305D01*
X148433380Y-81118305D02*
X148480999Y-81213543D01*
X148480999Y-81213543D02*
X148480999Y-81451638D01*
X148480999Y-81451638D02*
X148433380Y-81546876D01*
X148433380Y-81546876D02*
X148385761Y-81594496D01*
X148385761Y-81594496D02*
X148290523Y-81642115D01*
X148290523Y-81642115D02*
X148004809Y-81642115D01*
X148004809Y-81642115D02*
X147909571Y-81594496D01*
X147909571Y-81594496D02*
X147861952Y-81546876D01*
X148861952Y-80737353D02*
X148909571Y-80689734D01*
X148909571Y-80689734D02*
X149004809Y-80642115D01*
X149004809Y-80642115D02*
X149242904Y-80642115D01*
X149242904Y-80642115D02*
X149338142Y-80689734D01*
X149338142Y-80689734D02*
X149385761Y-80737353D01*
X149385761Y-80737353D02*
X149433380Y-80832591D01*
X149433380Y-80832591D02*
X149433380Y-80927829D01*
X149433380Y-80927829D02*
X149385761Y-81070686D01*
X149385761Y-81070686D02*
X148814333Y-81642115D01*
X148814333Y-81642115D02*
X149433380Y-81642115D01*
X149861952Y-81261162D02*
X150623857Y-81261162D01*
X151004809Y-80642115D02*
X151242904Y-81642115D01*
X151242904Y-81642115D02*
X151433380Y-80927829D01*
X151433380Y-80927829D02*
X151623856Y-81642115D01*
X151623856Y-81642115D02*
X151861952Y-80642115D01*
X152814332Y-81642115D02*
X152480999Y-81165924D01*
X152242904Y-81642115D02*
X152242904Y-80642115D01*
X152242904Y-80642115D02*
X152623856Y-80642115D01*
X152623856Y-80642115D02*
X152719094Y-80689734D01*
X152719094Y-80689734D02*
X152766713Y-80737353D01*
X152766713Y-80737353D02*
X152814332Y-80832591D01*
X152814332Y-80832591D02*
X152814332Y-80975448D01*
X152814332Y-80975448D02*
X152766713Y-81070686D01*
X152766713Y-81070686D02*
X152719094Y-81118305D01*
X152719094Y-81118305D02*
X152623856Y-81165924D01*
X152623856Y-81165924D02*
X152242904Y-81165924D01*
X153433380Y-80642115D02*
X153623856Y-80642115D01*
X153623856Y-80642115D02*
X153719094Y-80689734D01*
X153719094Y-80689734D02*
X153814332Y-80784972D01*
X153814332Y-80784972D02*
X153861951Y-80975448D01*
X153861951Y-80975448D02*
X153861951Y-81308781D01*
X153861951Y-81308781D02*
X153814332Y-81499257D01*
X153814332Y-81499257D02*
X153719094Y-81594496D01*
X153719094Y-81594496D02*
X153623856Y-81642115D01*
X153623856Y-81642115D02*
X153433380Y-81642115D01*
X153433380Y-81642115D02*
X153338142Y-81594496D01*
X153338142Y-81594496D02*
X153242904Y-81499257D01*
X153242904Y-81499257D02*
X153195285Y-81308781D01*
X153195285Y-81308781D02*
X153195285Y-80975448D01*
X153195285Y-80975448D02*
X153242904Y-80784972D01*
X153242904Y-80784972D02*
X153338142Y-80689734D01*
X153338142Y-80689734D02*
X153433380Y-80642115D01*
X154480999Y-80642115D02*
X154671475Y-80642115D01*
X154671475Y-80642115D02*
X154766713Y-80689734D01*
X154766713Y-80689734D02*
X154861951Y-80784972D01*
X154861951Y-80784972D02*
X154909570Y-80975448D01*
X154909570Y-80975448D02*
X154909570Y-81308781D01*
X154909570Y-81308781D02*
X154861951Y-81499257D01*
X154861951Y-81499257D02*
X154766713Y-81594496D01*
X154766713Y-81594496D02*
X154671475Y-81642115D01*
X154671475Y-81642115D02*
X154480999Y-81642115D01*
X154480999Y-81642115D02*
X154385761Y-81594496D01*
X154385761Y-81594496D02*
X154290523Y-81499257D01*
X154290523Y-81499257D02*
X154242904Y-81308781D01*
X154242904Y-81308781D02*
X154242904Y-80975448D01*
X154242904Y-80975448D02*
X154290523Y-80784972D01*
X154290523Y-80784972D02*
X154385761Y-80689734D01*
X154385761Y-80689734D02*
X154480999Y-80642115D01*
X155338142Y-81642115D02*
X155338142Y-80642115D01*
X155338142Y-80642115D02*
X155671475Y-81356400D01*
X155671475Y-81356400D02*
X156004808Y-80642115D01*
X156004808Y-80642115D02*
X156004808Y-81642115D01*
X156480999Y-81261162D02*
X157242904Y-81261162D01*
X157623856Y-80642115D02*
X158242903Y-80642115D01*
X158242903Y-80642115D02*
X157909570Y-81023067D01*
X157909570Y-81023067D02*
X158052427Y-81023067D01*
X158052427Y-81023067D02*
X158147665Y-81070686D01*
X158147665Y-81070686D02*
X158195284Y-81118305D01*
X158195284Y-81118305D02*
X158242903Y-81213543D01*
X158242903Y-81213543D02*
X158242903Y-81451638D01*
X158242903Y-81451638D02*
X158195284Y-81546876D01*
X158195284Y-81546876D02*
X158147665Y-81594496D01*
X158147665Y-81594496D02*
X158052427Y-81642115D01*
X158052427Y-81642115D02*
X157766713Y-81642115D01*
X157766713Y-81642115D02*
X157671475Y-81594496D01*
X157671475Y-81594496D02*
X157623856Y-81546876D01*
X158623856Y-80737353D02*
X158671475Y-80689734D01*
X158671475Y-80689734D02*
X158766713Y-80642115D01*
X158766713Y-80642115D02*
X159004808Y-80642115D01*
X159004808Y-80642115D02*
X159100046Y-80689734D01*
X159100046Y-80689734D02*
X159147665Y-80737353D01*
X159147665Y-80737353D02*
X159195284Y-80832591D01*
X159195284Y-80832591D02*
X159195284Y-80927829D01*
X159195284Y-80927829D02*
X159147665Y-81070686D01*
X159147665Y-81070686D02*
X158576237Y-81642115D01*
X158576237Y-81642115D02*
X159195284Y-81642115D01*
X163994330Y-81338455D02*
X163518140Y-81338455D01*
X163518140Y-81338455D02*
X163518140Y-80338455D01*
X164327664Y-81338455D02*
X164327664Y-80338455D01*
X164327664Y-80338455D02*
X164708616Y-80338455D01*
X164708616Y-80338455D02*
X164803854Y-80386074D01*
X164803854Y-80386074D02*
X164851473Y-80433693D01*
X164851473Y-80433693D02*
X164899092Y-80528931D01*
X164899092Y-80528931D02*
X164899092Y-80671788D01*
X164899092Y-80671788D02*
X164851473Y-80767026D01*
X164851473Y-80767026D02*
X164803854Y-80814645D01*
X164803854Y-80814645D02*
X164708616Y-80862264D01*
X164708616Y-80862264D02*
X164327664Y-80862264D01*
X165280045Y-80433693D02*
X165327664Y-80386074D01*
X165327664Y-80386074D02*
X165422902Y-80338455D01*
X165422902Y-80338455D02*
X165660997Y-80338455D01*
X165660997Y-80338455D02*
X165756235Y-80386074D01*
X165756235Y-80386074D02*
X165803854Y-80433693D01*
X165803854Y-80433693D02*
X165851473Y-80528931D01*
X165851473Y-80528931D02*
X165851473Y-80624169D01*
X165851473Y-80624169D02*
X165803854Y-80767026D01*
X165803854Y-80767026D02*
X165232426Y-81338455D01*
X165232426Y-81338455D02*
X165851473Y-81338455D01*
X166327664Y-81338455D02*
X166518140Y-81338455D01*
X166518140Y-81338455D02*
X166613378Y-81290836D01*
X166613378Y-81290836D02*
X166660997Y-81243216D01*
X166660997Y-81243216D02*
X166756235Y-81100359D01*
X166756235Y-81100359D02*
X166803854Y-80909883D01*
X166803854Y-80909883D02*
X166803854Y-80528931D01*
X166803854Y-80528931D02*
X166756235Y-80433693D01*
X166756235Y-80433693D02*
X166708616Y-80386074D01*
X166708616Y-80386074D02*
X166613378Y-80338455D01*
X166613378Y-80338455D02*
X166422902Y-80338455D01*
X166422902Y-80338455D02*
X166327664Y-80386074D01*
X166327664Y-80386074D02*
X166280045Y-80433693D01*
X166280045Y-80433693D02*
X166232426Y-80528931D01*
X166232426Y-80528931D02*
X166232426Y-80767026D01*
X166232426Y-80767026D02*
X166280045Y-80862264D01*
X166280045Y-80862264D02*
X166327664Y-80909883D01*
X166327664Y-80909883D02*
X166422902Y-80957502D01*
X166422902Y-80957502D02*
X166613378Y-80957502D01*
X166613378Y-80957502D02*
X166708616Y-80909883D01*
X166708616Y-80909883D02*
X166756235Y-80862264D01*
X166756235Y-80862264D02*
X166803854Y-80767026D01*
X167708616Y-80338455D02*
X167232426Y-80338455D01*
X167232426Y-80338455D02*
X167184807Y-80814645D01*
X167184807Y-80814645D02*
X167232426Y-80767026D01*
X167232426Y-80767026D02*
X167327664Y-80719407D01*
X167327664Y-80719407D02*
X167565759Y-80719407D01*
X167565759Y-80719407D02*
X167660997Y-80767026D01*
X167660997Y-80767026D02*
X167708616Y-80814645D01*
X167708616Y-80814645D02*
X167756235Y-80909883D01*
X167756235Y-80909883D02*
X167756235Y-81147978D01*
X167756235Y-81147978D02*
X167708616Y-81243216D01*
X167708616Y-81243216D02*
X167660997Y-81290836D01*
X167660997Y-81290836D02*
X167565759Y-81338455D01*
X167565759Y-81338455D02*
X167327664Y-81338455D01*
X167327664Y-81338455D02*
X167232426Y-81290836D01*
X167232426Y-81290836D02*
X167184807Y-81243216D01*
X168375283Y-80338455D02*
X168470521Y-80338455D01*
X168470521Y-80338455D02*
X168565759Y-80386074D01*
X168565759Y-80386074D02*
X168613378Y-80433693D01*
X168613378Y-80433693D02*
X168660997Y-80528931D01*
X168660997Y-80528931D02*
X168708616Y-80719407D01*
X168708616Y-80719407D02*
X168708616Y-80957502D01*
X168708616Y-80957502D02*
X168660997Y-81147978D01*
X168660997Y-81147978D02*
X168613378Y-81243216D01*
X168613378Y-81243216D02*
X168565759Y-81290836D01*
X168565759Y-81290836D02*
X168470521Y-81338455D01*
X168470521Y-81338455D02*
X168375283Y-81338455D01*
X168375283Y-81338455D02*
X168280045Y-81290836D01*
X168280045Y-81290836D02*
X168232426Y-81243216D01*
X168232426Y-81243216D02*
X168184807Y-81147978D01*
X168184807Y-81147978D02*
X168137188Y-80957502D01*
X168137188Y-80957502D02*
X168137188Y-80719407D01*
X168137188Y-80719407D02*
X168184807Y-80528931D01*
X168184807Y-80528931D02*
X168232426Y-80433693D01*
X168232426Y-80433693D02*
X168280045Y-80386074D01*
X168280045Y-80386074D02*
X168375283Y-80338455D01*
X169137188Y-80957502D02*
X169899093Y-80957502D01*
X170280045Y-80338455D02*
X170899092Y-80338455D01*
X170899092Y-80338455D02*
X170565759Y-80719407D01*
X170565759Y-80719407D02*
X170708616Y-80719407D01*
X170708616Y-80719407D02*
X170803854Y-80767026D01*
X170803854Y-80767026D02*
X170851473Y-80814645D01*
X170851473Y-80814645D02*
X170899092Y-80909883D01*
X170899092Y-80909883D02*
X170899092Y-81147978D01*
X170899092Y-81147978D02*
X170851473Y-81243216D01*
X170851473Y-81243216D02*
X170803854Y-81290836D01*
X170803854Y-81290836D02*
X170708616Y-81338455D01*
X170708616Y-81338455D02*
X170422902Y-81338455D01*
X170422902Y-81338455D02*
X170327664Y-81290836D01*
X170327664Y-81290836D02*
X170280045Y-81243216D01*
X171327664Y-81243216D02*
X171375283Y-81290836D01*
X171375283Y-81290836D02*
X171327664Y-81338455D01*
X171327664Y-81338455D02*
X171280045Y-81290836D01*
X171280045Y-81290836D02*
X171327664Y-81243216D01*
X171327664Y-81243216D02*
X171327664Y-81338455D01*
X171708616Y-80338455D02*
X172327663Y-80338455D01*
X172327663Y-80338455D02*
X171994330Y-80719407D01*
X171994330Y-80719407D02*
X172137187Y-80719407D01*
X172137187Y-80719407D02*
X172232425Y-80767026D01*
X172232425Y-80767026D02*
X172280044Y-80814645D01*
X172280044Y-80814645D02*
X172327663Y-80909883D01*
X172327663Y-80909883D02*
X172327663Y-81147978D01*
X172327663Y-81147978D02*
X172280044Y-81243216D01*
X172280044Y-81243216D02*
X172232425Y-81290836D01*
X172232425Y-81290836D02*
X172137187Y-81338455D01*
X172137187Y-81338455D02*
X171851473Y-81338455D01*
X171851473Y-81338455D02*
X171756235Y-81290836D01*
X171756235Y-81290836D02*
X171708616Y-81243216D01*
X172518140Y-81433693D02*
X173280044Y-81433693D01*
X173375283Y-80338455D02*
X173946711Y-80338455D01*
X173660997Y-81338455D02*
X173660997Y-80338455D01*
X174470521Y-80338455D02*
X174660997Y-80338455D01*
X174660997Y-80338455D02*
X174756235Y-80386074D01*
X174756235Y-80386074D02*
X174851473Y-80481312D01*
X174851473Y-80481312D02*
X174899092Y-80671788D01*
X174899092Y-80671788D02*
X174899092Y-81005121D01*
X174899092Y-81005121D02*
X174851473Y-81195597D01*
X174851473Y-81195597D02*
X174756235Y-81290836D01*
X174756235Y-81290836D02*
X174660997Y-81338455D01*
X174660997Y-81338455D02*
X174470521Y-81338455D01*
X174470521Y-81338455D02*
X174375283Y-81290836D01*
X174375283Y-81290836D02*
X174280045Y-81195597D01*
X174280045Y-81195597D02*
X174232426Y-81005121D01*
X174232426Y-81005121D02*
X174232426Y-80671788D01*
X174232426Y-80671788D02*
X174280045Y-80481312D01*
X174280045Y-80481312D02*
X174375283Y-80386074D01*
X174375283Y-80386074D02*
X174470521Y-80338455D01*
X175280045Y-80433693D02*
X175327664Y-80386074D01*
X175327664Y-80386074D02*
X175422902Y-80338455D01*
X175422902Y-80338455D02*
X175660997Y-80338455D01*
X175660997Y-80338455D02*
X175756235Y-80386074D01*
X175756235Y-80386074D02*
X175803854Y-80433693D01*
X175803854Y-80433693D02*
X175851473Y-80528931D01*
X175851473Y-80528931D02*
X175851473Y-80624169D01*
X175851473Y-80624169D02*
X175803854Y-80767026D01*
X175803854Y-80767026D02*
X175232426Y-81338455D01*
X175232426Y-81338455D02*
X175851473Y-81338455D01*
X176756235Y-80338455D02*
X176280045Y-80338455D01*
X176280045Y-80338455D02*
X176232426Y-80814645D01*
X176232426Y-80814645D02*
X176280045Y-80767026D01*
X176280045Y-80767026D02*
X176375283Y-80719407D01*
X176375283Y-80719407D02*
X176613378Y-80719407D01*
X176613378Y-80719407D02*
X176708616Y-80767026D01*
X176708616Y-80767026D02*
X176756235Y-80814645D01*
X176756235Y-80814645D02*
X176803854Y-80909883D01*
X176803854Y-80909883D02*
X176803854Y-81147978D01*
X176803854Y-81147978D02*
X176756235Y-81243216D01*
X176756235Y-81243216D02*
X176708616Y-81290836D01*
X176708616Y-81290836D02*
X176613378Y-81338455D01*
X176613378Y-81338455D02*
X176375283Y-81338455D01*
X176375283Y-81338455D02*
X176280045Y-81290836D01*
X176280045Y-81290836D02*
X176232426Y-81243216D01*
X177184807Y-80433693D02*
X177232426Y-80386074D01*
X177232426Y-80386074D02*
X177327664Y-80338455D01*
X177327664Y-80338455D02*
X177565759Y-80338455D01*
X177565759Y-80338455D02*
X177660997Y-80386074D01*
X177660997Y-80386074D02*
X177708616Y-80433693D01*
X177708616Y-80433693D02*
X177756235Y-80528931D01*
X177756235Y-80528931D02*
X177756235Y-80624169D01*
X177756235Y-80624169D02*
X177708616Y-80767026D01*
X177708616Y-80767026D02*
X177137188Y-81338455D01*
X177137188Y-81338455D02*
X177756235Y-81338455D01*
X141715771Y-115495419D02*
X141239581Y-115495419D01*
X141239581Y-115495419D02*
X141239581Y-114495419D01*
X142049105Y-115495419D02*
X142049105Y-114495419D01*
X142049105Y-114495419D02*
X142382438Y-115209704D01*
X142382438Y-115209704D02*
X142715771Y-114495419D01*
X142715771Y-114495419D02*
X142715771Y-115495419D01*
X143096724Y-114495419D02*
X143715771Y-114495419D01*
X143715771Y-114495419D02*
X143382438Y-114876371D01*
X143382438Y-114876371D02*
X143525295Y-114876371D01*
X143525295Y-114876371D02*
X143620533Y-114923990D01*
X143620533Y-114923990D02*
X143668152Y-114971609D01*
X143668152Y-114971609D02*
X143715771Y-115066847D01*
X143715771Y-115066847D02*
X143715771Y-115304942D01*
X143715771Y-115304942D02*
X143668152Y-115400180D01*
X143668152Y-115400180D02*
X143620533Y-115447800D01*
X143620533Y-115447800D02*
X143525295Y-115495419D01*
X143525295Y-115495419D02*
X143239581Y-115495419D01*
X143239581Y-115495419D02*
X143144343Y-115447800D01*
X143144343Y-115447800D02*
X143096724Y-115400180D01*
X144572914Y-114828752D02*
X144572914Y-115495419D01*
X144334819Y-114447800D02*
X144096724Y-115162085D01*
X144096724Y-115162085D02*
X144715771Y-115162085D01*
X145287200Y-114495419D02*
X145382438Y-114495419D01*
X145382438Y-114495419D02*
X145477676Y-114543038D01*
X145477676Y-114543038D02*
X145525295Y-114590657D01*
X145525295Y-114590657D02*
X145572914Y-114685895D01*
X145572914Y-114685895D02*
X145620533Y-114876371D01*
X145620533Y-114876371D02*
X145620533Y-115114466D01*
X145620533Y-115114466D02*
X145572914Y-115304942D01*
X145572914Y-115304942D02*
X145525295Y-115400180D01*
X145525295Y-115400180D02*
X145477676Y-115447800D01*
X145477676Y-115447800D02*
X145382438Y-115495419D01*
X145382438Y-115495419D02*
X145287200Y-115495419D01*
X145287200Y-115495419D02*
X145191962Y-115447800D01*
X145191962Y-115447800D02*
X145144343Y-115400180D01*
X145144343Y-115400180D02*
X145096724Y-115304942D01*
X145096724Y-115304942D02*
X145049105Y-115114466D01*
X145049105Y-115114466D02*
X145049105Y-114876371D01*
X145049105Y-114876371D02*
X145096724Y-114685895D01*
X145096724Y-114685895D02*
X145144343Y-114590657D01*
X145144343Y-114590657D02*
X145191962Y-114543038D01*
X145191962Y-114543038D02*
X145287200Y-114495419D01*
X146049105Y-115495419D02*
X146049105Y-114495419D01*
X146620533Y-115495419D02*
X146191962Y-114923990D01*
X146620533Y-114495419D02*
X146049105Y-115066847D01*
X147049105Y-115114466D02*
X147811010Y-115114466D01*
X148763390Y-114495419D02*
X148287200Y-114495419D01*
X148287200Y-114495419D02*
X148239581Y-114971609D01*
X148239581Y-114971609D02*
X148287200Y-114923990D01*
X148287200Y-114923990D02*
X148382438Y-114876371D01*
X148382438Y-114876371D02*
X148620533Y-114876371D01*
X148620533Y-114876371D02*
X148715771Y-114923990D01*
X148715771Y-114923990D02*
X148763390Y-114971609D01*
X148763390Y-114971609D02*
X148811009Y-115066847D01*
X148811009Y-115066847D02*
X148811009Y-115304942D01*
X148811009Y-115304942D02*
X148763390Y-115400180D01*
X148763390Y-115400180D02*
X148715771Y-115447800D01*
X148715771Y-115447800D02*
X148620533Y-115495419D01*
X148620533Y-115495419D02*
X148382438Y-115495419D01*
X148382438Y-115495419D02*
X148287200Y-115447800D01*
X148287200Y-115447800D02*
X148239581Y-115400180D01*
X149239581Y-115400180D02*
X149287200Y-115447800D01*
X149287200Y-115447800D02*
X149239581Y-115495419D01*
X149239581Y-115495419D02*
X149191962Y-115447800D01*
X149191962Y-115447800D02*
X149239581Y-115400180D01*
X149239581Y-115400180D02*
X149239581Y-115495419D01*
X149906247Y-114495419D02*
X150001485Y-114495419D01*
X150001485Y-114495419D02*
X150096723Y-114543038D01*
X150096723Y-114543038D02*
X150144342Y-114590657D01*
X150144342Y-114590657D02*
X150191961Y-114685895D01*
X150191961Y-114685895D02*
X150239580Y-114876371D01*
X150239580Y-114876371D02*
X150239580Y-115114466D01*
X150239580Y-115114466D02*
X150191961Y-115304942D01*
X150191961Y-115304942D02*
X150144342Y-115400180D01*
X150144342Y-115400180D02*
X150096723Y-115447800D01*
X150096723Y-115447800D02*
X150001485Y-115495419D01*
X150001485Y-115495419D02*
X149906247Y-115495419D01*
X149906247Y-115495419D02*
X149811009Y-115447800D01*
X149811009Y-115447800D02*
X149763390Y-115400180D01*
X149763390Y-115400180D02*
X149715771Y-115304942D01*
X149715771Y-115304942D02*
X149668152Y-115114466D01*
X149668152Y-115114466D02*
X149668152Y-114876371D01*
X149668152Y-114876371D02*
X149715771Y-114685895D01*
X149715771Y-114685895D02*
X149763390Y-114590657D01*
X149763390Y-114590657D02*
X149811009Y-114543038D01*
X149811009Y-114543038D02*
X149906247Y-114495419D01*
X151382437Y-114447800D02*
X150525295Y-115733514D01*
X151715771Y-115495419D02*
X151715771Y-114495419D01*
X151715771Y-114495419D02*
X152287199Y-115495419D01*
X152287199Y-115495419D02*
X152287199Y-114495419D01*
X152953866Y-114495419D02*
X153144342Y-114495419D01*
X153144342Y-114495419D02*
X153239580Y-114543038D01*
X153239580Y-114543038D02*
X153334818Y-114638276D01*
X153334818Y-114638276D02*
X153382437Y-114828752D01*
X153382437Y-114828752D02*
X153382437Y-115162085D01*
X153382437Y-115162085D02*
X153334818Y-115352561D01*
X153334818Y-115352561D02*
X153239580Y-115447800D01*
X153239580Y-115447800D02*
X153144342Y-115495419D01*
X153144342Y-115495419D02*
X152953866Y-115495419D01*
X152953866Y-115495419D02*
X152858628Y-115447800D01*
X152858628Y-115447800D02*
X152763390Y-115352561D01*
X152763390Y-115352561D02*
X152715771Y-115162085D01*
X152715771Y-115162085D02*
X152715771Y-114828752D01*
X152715771Y-114828752D02*
X152763390Y-114638276D01*
X152763390Y-114638276D02*
X152858628Y-114543038D01*
X152858628Y-114543038D02*
X152953866Y-114495419D01*
X153811009Y-115495419D02*
X153811009Y-114495419D01*
X153811009Y-114495419D02*
X154191961Y-114495419D01*
X154191961Y-114495419D02*
X154287199Y-114543038D01*
X154287199Y-114543038D02*
X154334818Y-114590657D01*
X154334818Y-114590657D02*
X154382437Y-114685895D01*
X154382437Y-114685895D02*
X154382437Y-114828752D01*
X154382437Y-114828752D02*
X154334818Y-114923990D01*
X154334818Y-114923990D02*
X154287199Y-114971609D01*
X154287199Y-114971609D02*
X154191961Y-115019228D01*
X154191961Y-115019228D02*
X153811009Y-115019228D01*
X155144342Y-114971609D02*
X155287199Y-115019228D01*
X155287199Y-115019228D02*
X155334818Y-115066847D01*
X155334818Y-115066847D02*
X155382437Y-115162085D01*
X155382437Y-115162085D02*
X155382437Y-115304942D01*
X155382437Y-115304942D02*
X155334818Y-115400180D01*
X155334818Y-115400180D02*
X155287199Y-115447800D01*
X155287199Y-115447800D02*
X155191961Y-115495419D01*
X155191961Y-115495419D02*
X154811009Y-115495419D01*
X154811009Y-115495419D02*
X154811009Y-114495419D01*
X154811009Y-114495419D02*
X155144342Y-114495419D01*
X155144342Y-114495419D02*
X155239580Y-114543038D01*
X155239580Y-114543038D02*
X155287199Y-114590657D01*
X155287199Y-114590657D02*
X155334818Y-114685895D01*
X155334818Y-114685895D02*
X155334818Y-114781133D01*
X155334818Y-114781133D02*
X155287199Y-114876371D01*
X155287199Y-114876371D02*
X155239580Y-114923990D01*
X155239580Y-114923990D02*
X155144342Y-114971609D01*
X155144342Y-114971609D02*
X154811009Y-114971609D01*
X132625125Y-93838887D02*
X132291792Y-93838887D01*
X132291792Y-94362697D02*
X132291792Y-93362697D01*
X132291792Y-93362697D02*
X132767982Y-93362697D01*
X133006078Y-93362697D02*
X133577506Y-93362697D01*
X133291792Y-94362697D02*
X133291792Y-93362697D01*
X133863221Y-93457935D02*
X133910840Y-93410316D01*
X133910840Y-93410316D02*
X134006078Y-93362697D01*
X134006078Y-93362697D02*
X134244173Y-93362697D01*
X134244173Y-93362697D02*
X134339411Y-93410316D01*
X134339411Y-93410316D02*
X134387030Y-93457935D01*
X134387030Y-93457935D02*
X134434649Y-93553173D01*
X134434649Y-93553173D02*
X134434649Y-93648411D01*
X134434649Y-93648411D02*
X134387030Y-93791268D01*
X134387030Y-93791268D02*
X133815602Y-94362697D01*
X133815602Y-94362697D02*
X134434649Y-94362697D01*
X134767983Y-93362697D02*
X135387030Y-93362697D01*
X135387030Y-93362697D02*
X135053697Y-93743649D01*
X135053697Y-93743649D02*
X135196554Y-93743649D01*
X135196554Y-93743649D02*
X135291792Y-93791268D01*
X135291792Y-93791268D02*
X135339411Y-93838887D01*
X135339411Y-93838887D02*
X135387030Y-93934125D01*
X135387030Y-93934125D02*
X135387030Y-94172220D01*
X135387030Y-94172220D02*
X135339411Y-94267458D01*
X135339411Y-94267458D02*
X135291792Y-94315078D01*
X135291792Y-94315078D02*
X135196554Y-94362697D01*
X135196554Y-94362697D02*
X134910840Y-94362697D01*
X134910840Y-94362697D02*
X134815602Y-94315078D01*
X134815602Y-94315078D02*
X134767983Y-94267458D01*
X135767983Y-93457935D02*
X135815602Y-93410316D01*
X135815602Y-93410316D02*
X135910840Y-93362697D01*
X135910840Y-93362697D02*
X136148935Y-93362697D01*
X136148935Y-93362697D02*
X136244173Y-93410316D01*
X136244173Y-93410316D02*
X136291792Y-93457935D01*
X136291792Y-93457935D02*
X136339411Y-93553173D01*
X136339411Y-93553173D02*
X136339411Y-93648411D01*
X136339411Y-93648411D02*
X136291792Y-93791268D01*
X136291792Y-93791268D02*
X135720364Y-94362697D01*
X135720364Y-94362697D02*
X136339411Y-94362697D01*
X137339411Y-94362697D02*
X137006078Y-93886506D01*
X136767983Y-94362697D02*
X136767983Y-93362697D01*
X136767983Y-93362697D02*
X137148935Y-93362697D01*
X137148935Y-93362697D02*
X137244173Y-93410316D01*
X137244173Y-93410316D02*
X137291792Y-93457935D01*
X137291792Y-93457935D02*
X137339411Y-93553173D01*
X137339411Y-93553173D02*
X137339411Y-93696030D01*
X137339411Y-93696030D02*
X137291792Y-93791268D01*
X137291792Y-93791268D02*
X137244173Y-93838887D01*
X137244173Y-93838887D02*
X137148935Y-93886506D01*
X137148935Y-93886506D02*
X136767983Y-93886506D01*
X138244173Y-94362697D02*
X137767983Y-94362697D01*
X137767983Y-94362697D02*
X137767983Y-93362697D01*
X178405920Y-114974207D02*
X178453539Y-114831350D01*
X178453539Y-114831350D02*
X178453539Y-114593255D01*
X178453539Y-114593255D02*
X178405920Y-114498017D01*
X178405920Y-114498017D02*
X178358300Y-114450398D01*
X178358300Y-114450398D02*
X178263062Y-114402779D01*
X178263062Y-114402779D02*
X178167824Y-114402779D01*
X178167824Y-114402779D02*
X178072586Y-114450398D01*
X178072586Y-114450398D02*
X178024967Y-114498017D01*
X178024967Y-114498017D02*
X177977348Y-114593255D01*
X177977348Y-114593255D02*
X177929729Y-114783731D01*
X177929729Y-114783731D02*
X177882110Y-114878969D01*
X177882110Y-114878969D02*
X177834491Y-114926588D01*
X177834491Y-114926588D02*
X177739253Y-114974207D01*
X177739253Y-114974207D02*
X177644015Y-114974207D01*
X177644015Y-114974207D02*
X177548777Y-114926588D01*
X177548777Y-114926588D02*
X177501158Y-114878969D01*
X177501158Y-114878969D02*
X177453539Y-114783731D01*
X177453539Y-114783731D02*
X177453539Y-114545636D01*
X177453539Y-114545636D02*
X177501158Y-114402779D01*
X178405920Y-113593255D02*
X178453539Y-113688493D01*
X178453539Y-113688493D02*
X178453539Y-113878969D01*
X178453539Y-113878969D02*
X178405920Y-113974207D01*
X178405920Y-113974207D02*
X178310681Y-114021826D01*
X178310681Y-114021826D02*
X177929729Y-114021826D01*
X177929729Y-114021826D02*
X177834491Y-113974207D01*
X177834491Y-113974207D02*
X177786872Y-113878969D01*
X177786872Y-113878969D02*
X177786872Y-113688493D01*
X177786872Y-113688493D02*
X177834491Y-113593255D01*
X177834491Y-113593255D02*
X177929729Y-113545636D01*
X177929729Y-113545636D02*
X178024967Y-113545636D01*
X178024967Y-113545636D02*
X178120205Y-114021826D01*
X177786872Y-113117064D02*
X178453539Y-113117064D01*
X177882110Y-113117064D02*
X177834491Y-113069445D01*
X177834491Y-113069445D02*
X177786872Y-112974207D01*
X177786872Y-112974207D02*
X177786872Y-112831350D01*
X177786872Y-112831350D02*
X177834491Y-112736112D01*
X177834491Y-112736112D02*
X177929729Y-112688493D01*
X177929729Y-112688493D02*
X178453539Y-112688493D01*
X178405920Y-112259921D02*
X178453539Y-112164683D01*
X178453539Y-112164683D02*
X178453539Y-111974207D01*
X178453539Y-111974207D02*
X178405920Y-111878969D01*
X178405920Y-111878969D02*
X178310681Y-111831350D01*
X178310681Y-111831350D02*
X178263062Y-111831350D01*
X178263062Y-111831350D02*
X178167824Y-111878969D01*
X178167824Y-111878969D02*
X178120205Y-111974207D01*
X178120205Y-111974207D02*
X178120205Y-112117064D01*
X178120205Y-112117064D02*
X178072586Y-112212302D01*
X178072586Y-112212302D02*
X177977348Y-112259921D01*
X177977348Y-112259921D02*
X177929729Y-112259921D01*
X177929729Y-112259921D02*
X177834491Y-112212302D01*
X177834491Y-112212302D02*
X177786872Y-112117064D01*
X177786872Y-112117064D02*
X177786872Y-111974207D01*
X177786872Y-111974207D02*
X177834491Y-111878969D01*
X178453539Y-111259921D02*
X178405920Y-111355159D01*
X178405920Y-111355159D02*
X178358300Y-111402778D01*
X178358300Y-111402778D02*
X178263062Y-111450397D01*
X178263062Y-111450397D02*
X177977348Y-111450397D01*
X177977348Y-111450397D02*
X177882110Y-111402778D01*
X177882110Y-111402778D02*
X177834491Y-111355159D01*
X177834491Y-111355159D02*
X177786872Y-111259921D01*
X177786872Y-111259921D02*
X177786872Y-111117064D01*
X177786872Y-111117064D02*
X177834491Y-111021826D01*
X177834491Y-111021826D02*
X177882110Y-110974207D01*
X177882110Y-110974207D02*
X177977348Y-110926588D01*
X177977348Y-110926588D02*
X178263062Y-110926588D01*
X178263062Y-110926588D02*
X178358300Y-110974207D01*
X178358300Y-110974207D02*
X178405920Y-111021826D01*
X178405920Y-111021826D02*
X178453539Y-111117064D01*
X178453539Y-111117064D02*
X178453539Y-111259921D01*
X178453539Y-110498016D02*
X177786872Y-110498016D01*
X177977348Y-110498016D02*
X177882110Y-110450397D01*
X177882110Y-110450397D02*
X177834491Y-110402778D01*
X177834491Y-110402778D02*
X177786872Y-110307540D01*
X177786872Y-110307540D02*
X177786872Y-110212302D01*
X178358300Y-109307540D02*
X178405920Y-109355159D01*
X178405920Y-109355159D02*
X178453539Y-109498016D01*
X178453539Y-109498016D02*
X178453539Y-109593254D01*
X178453539Y-109593254D02*
X178405920Y-109736111D01*
X178405920Y-109736111D02*
X178310681Y-109831349D01*
X178310681Y-109831349D02*
X178215443Y-109878968D01*
X178215443Y-109878968D02*
X178024967Y-109926587D01*
X178024967Y-109926587D02*
X177882110Y-109926587D01*
X177882110Y-109926587D02*
X177691634Y-109878968D01*
X177691634Y-109878968D02*
X177596396Y-109831349D01*
X177596396Y-109831349D02*
X177501158Y-109736111D01*
X177501158Y-109736111D02*
X177453539Y-109593254D01*
X177453539Y-109593254D02*
X177453539Y-109498016D01*
X177453539Y-109498016D02*
X177501158Y-109355159D01*
X177501158Y-109355159D02*
X177548777Y-109307540D01*
X178453539Y-108736111D02*
X178405920Y-108831349D01*
X178405920Y-108831349D02*
X178358300Y-108878968D01*
X178358300Y-108878968D02*
X178263062Y-108926587D01*
X178263062Y-108926587D02*
X177977348Y-108926587D01*
X177977348Y-108926587D02*
X177882110Y-108878968D01*
X177882110Y-108878968D02*
X177834491Y-108831349D01*
X177834491Y-108831349D02*
X177786872Y-108736111D01*
X177786872Y-108736111D02*
X177786872Y-108593254D01*
X177786872Y-108593254D02*
X177834491Y-108498016D01*
X177834491Y-108498016D02*
X177882110Y-108450397D01*
X177882110Y-108450397D02*
X177977348Y-108402778D01*
X177977348Y-108402778D02*
X178263062Y-108402778D01*
X178263062Y-108402778D02*
X178358300Y-108450397D01*
X178358300Y-108450397D02*
X178405920Y-108498016D01*
X178405920Y-108498016D02*
X178453539Y-108593254D01*
X178453539Y-108593254D02*
X178453539Y-108736111D01*
X177786872Y-107974206D02*
X178453539Y-107974206D01*
X177882110Y-107974206D02*
X177834491Y-107926587D01*
X177834491Y-107926587D02*
X177786872Y-107831349D01*
X177786872Y-107831349D02*
X177786872Y-107688492D01*
X177786872Y-107688492D02*
X177834491Y-107593254D01*
X177834491Y-107593254D02*
X177929729Y-107545635D01*
X177929729Y-107545635D02*
X178453539Y-107545635D01*
X177786872Y-107069444D02*
X178453539Y-107069444D01*
X177882110Y-107069444D02*
X177834491Y-107021825D01*
X177834491Y-107021825D02*
X177786872Y-106926587D01*
X177786872Y-106926587D02*
X177786872Y-106783730D01*
X177786872Y-106783730D02*
X177834491Y-106688492D01*
X177834491Y-106688492D02*
X177929729Y-106640873D01*
X177929729Y-106640873D02*
X178453539Y-106640873D01*
X178453539Y-105640873D02*
X178453539Y-106212301D01*
X178453539Y-105926587D02*
X177453539Y-105926587D01*
X177453539Y-105926587D02*
X177596396Y-106021825D01*
X177596396Y-106021825D02*
X177691634Y-106117063D01*
X177691634Y-106117063D02*
X177739253Y-106212301D01*
X172728832Y-101484499D02*
X172395499Y-101008308D01*
X172157404Y-101484499D02*
X172157404Y-100484499D01*
X172157404Y-100484499D02*
X172538356Y-100484499D01*
X172538356Y-100484499D02*
X172633594Y-100532118D01*
X172633594Y-100532118D02*
X172681213Y-100579737D01*
X172681213Y-100579737D02*
X172728832Y-100674975D01*
X172728832Y-100674975D02*
X172728832Y-100817832D01*
X172728832Y-100817832D02*
X172681213Y-100913070D01*
X172681213Y-100913070D02*
X172633594Y-100960689D01*
X172633594Y-100960689D02*
X172538356Y-101008308D01*
X172538356Y-101008308D02*
X172157404Y-101008308D01*
X173109785Y-100579737D02*
X173157404Y-100532118D01*
X173157404Y-100532118D02*
X173252642Y-100484499D01*
X173252642Y-100484499D02*
X173490737Y-100484499D01*
X173490737Y-100484499D02*
X173585975Y-100532118D01*
X173585975Y-100532118D02*
X173633594Y-100579737D01*
X173633594Y-100579737D02*
X173681213Y-100674975D01*
X173681213Y-100674975D02*
X173681213Y-100770213D01*
X173681213Y-100770213D02*
X173633594Y-100913070D01*
X173633594Y-100913070D02*
X173062166Y-101484499D01*
X173062166Y-101484499D02*
X173681213Y-101484499D01*
X172830052Y-106646719D02*
X172496719Y-106170528D01*
X172258624Y-106646719D02*
X172258624Y-105646719D01*
X172258624Y-105646719D02*
X172639576Y-105646719D01*
X172639576Y-105646719D02*
X172734814Y-105694338D01*
X172734814Y-105694338D02*
X172782433Y-105741957D01*
X172782433Y-105741957D02*
X172830052Y-105837195D01*
X172830052Y-105837195D02*
X172830052Y-105980052D01*
X172830052Y-105980052D02*
X172782433Y-106075290D01*
X172782433Y-106075290D02*
X172734814Y-106122909D01*
X172734814Y-106122909D02*
X172639576Y-106170528D01*
X172639576Y-106170528D02*
X172258624Y-106170528D01*
X173782433Y-106646719D02*
X173211005Y-106646719D01*
X173496719Y-106646719D02*
X173496719Y-105646719D01*
X173496719Y-105646719D02*
X173401481Y-105789576D01*
X173401481Y-105789576D02*
X173306243Y-105884814D01*
X173306243Y-105884814D02*
X173211005Y-105932433D01*
X172698852Y-95657199D02*
X172651233Y-95704819D01*
X172651233Y-95704819D02*
X172508376Y-95752438D01*
X172508376Y-95752438D02*
X172413138Y-95752438D01*
X172413138Y-95752438D02*
X172270281Y-95704819D01*
X172270281Y-95704819D02*
X172175043Y-95609580D01*
X172175043Y-95609580D02*
X172127424Y-95514342D01*
X172127424Y-95514342D02*
X172079805Y-95323866D01*
X172079805Y-95323866D02*
X172079805Y-95181009D01*
X172079805Y-95181009D02*
X172127424Y-94990533D01*
X172127424Y-94990533D02*
X172175043Y-94895295D01*
X172175043Y-94895295D02*
X172270281Y-94800057D01*
X172270281Y-94800057D02*
X172413138Y-94752438D01*
X172413138Y-94752438D02*
X172508376Y-94752438D01*
X172508376Y-94752438D02*
X172651233Y-94800057D01*
X172651233Y-94800057D02*
X172698852Y-94847676D01*
X173079805Y-94847676D02*
X173127424Y-94800057D01*
X173127424Y-94800057D02*
X173222662Y-94752438D01*
X173222662Y-94752438D02*
X173460757Y-94752438D01*
X173460757Y-94752438D02*
X173555995Y-94800057D01*
X173555995Y-94800057D02*
X173603614Y-94847676D01*
X173603614Y-94847676D02*
X173651233Y-94942914D01*
X173651233Y-94942914D02*
X173651233Y-95038152D01*
X173651233Y-95038152D02*
X173603614Y-95181009D01*
X173603614Y-95181009D02*
X173032186Y-95752438D01*
X173032186Y-95752438D02*
X173651233Y-95752438D01*
X172867552Y-90494978D02*
X172819933Y-90542598D01*
X172819933Y-90542598D02*
X172677076Y-90590217D01*
X172677076Y-90590217D02*
X172581838Y-90590217D01*
X172581838Y-90590217D02*
X172438981Y-90542598D01*
X172438981Y-90542598D02*
X172343743Y-90447359D01*
X172343743Y-90447359D02*
X172296124Y-90352121D01*
X172296124Y-90352121D02*
X172248505Y-90161645D01*
X172248505Y-90161645D02*
X172248505Y-90018788D01*
X172248505Y-90018788D02*
X172296124Y-89828312D01*
X172296124Y-89828312D02*
X172343743Y-89733074D01*
X172343743Y-89733074D02*
X172438981Y-89637836D01*
X172438981Y-89637836D02*
X172581838Y-89590217D01*
X172581838Y-89590217D02*
X172677076Y-89590217D01*
X172677076Y-89590217D02*
X172819933Y-89637836D01*
X172819933Y-89637836D02*
X172867552Y-89685455D01*
X173819933Y-90590217D02*
X173248505Y-90590217D01*
X173534219Y-90590217D02*
X173534219Y-89590217D01*
X173534219Y-89590217D02*
X173438981Y-89733074D01*
X173438981Y-89733074D02*
X173343743Y-89828312D01*
X173343743Y-89828312D02*
X173248505Y-89875931D01*
X177080874Y-94213605D02*
X177842779Y-94213605D01*
X177461826Y-94594558D02*
X177461826Y-93832653D01*
X178842778Y-94594558D02*
X178271350Y-94594558D01*
X178557064Y-94594558D02*
X178557064Y-93594558D01*
X178557064Y-93594558D02*
X178461826Y-93737415D01*
X178461826Y-93737415D02*
X178366588Y-93832653D01*
X178366588Y-93832653D02*
X178271350Y-93880272D01*
X179223731Y-93689796D02*
X179271350Y-93642177D01*
X179271350Y-93642177D02*
X179366588Y-93594558D01*
X179366588Y-93594558D02*
X179604683Y-93594558D01*
X179604683Y-93594558D02*
X179699921Y-93642177D01*
X179699921Y-93642177D02*
X179747540Y-93689796D01*
X179747540Y-93689796D02*
X179795159Y-93785034D01*
X179795159Y-93785034D02*
X179795159Y-93880272D01*
X179795159Y-93880272D02*
X179747540Y-94023129D01*
X179747540Y-94023129D02*
X179176112Y-94594558D01*
X179176112Y-94594558D02*
X179795159Y-94594558D01*
X180080874Y-93594558D02*
X180414207Y-94594558D01*
X180414207Y-94594558D02*
X180747540Y-93594558D01*
X180842779Y-94689796D02*
X181604683Y-94689796D01*
X182176112Y-94070748D02*
X182318969Y-94118367D01*
X182318969Y-94118367D02*
X182366588Y-94165986D01*
X182366588Y-94165986D02*
X182414207Y-94261224D01*
X182414207Y-94261224D02*
X182414207Y-94404081D01*
X182414207Y-94404081D02*
X182366588Y-94499319D01*
X182366588Y-94499319D02*
X182318969Y-94546939D01*
X182318969Y-94546939D02*
X182223731Y-94594558D01*
X182223731Y-94594558D02*
X181842779Y-94594558D01*
X181842779Y-94594558D02*
X181842779Y-93594558D01*
X181842779Y-93594558D02*
X182176112Y-93594558D01*
X182176112Y-93594558D02*
X182271350Y-93642177D01*
X182271350Y-93642177D02*
X182318969Y-93689796D01*
X182318969Y-93689796D02*
X182366588Y-93785034D01*
X182366588Y-93785034D02*
X182366588Y-93880272D01*
X182366588Y-93880272D02*
X182318969Y-93975510D01*
X182318969Y-93975510D02*
X182271350Y-94023129D01*
X182271350Y-94023129D02*
X182176112Y-94070748D01*
X182176112Y-94070748D02*
X181842779Y-94070748D01*
X183271350Y-94594558D02*
X183271350Y-94070748D01*
X183271350Y-94070748D02*
X183223731Y-93975510D01*
X183223731Y-93975510D02*
X183128493Y-93927891D01*
X183128493Y-93927891D02*
X182938017Y-93927891D01*
X182938017Y-93927891D02*
X182842779Y-93975510D01*
X183271350Y-94546939D02*
X183176112Y-94594558D01*
X183176112Y-94594558D02*
X182938017Y-94594558D01*
X182938017Y-94594558D02*
X182842779Y-94546939D01*
X182842779Y-94546939D02*
X182795160Y-94451700D01*
X182795160Y-94451700D02*
X182795160Y-94356462D01*
X182795160Y-94356462D02*
X182842779Y-94261224D01*
X182842779Y-94261224D02*
X182938017Y-94213605D01*
X182938017Y-94213605D02*
X183176112Y-94213605D01*
X183176112Y-94213605D02*
X183271350Y-94165986D01*
X183604684Y-93927891D02*
X183985636Y-93927891D01*
X183747541Y-93594558D02*
X183747541Y-94451700D01*
X183747541Y-94451700D02*
X183795160Y-94546939D01*
X183795160Y-94546939D02*
X183890398Y-94594558D01*
X183890398Y-94594558D02*
X183985636Y-94594558D01*
X184176113Y-93927891D02*
X184557065Y-93927891D01*
X184318970Y-93594558D02*
X184318970Y-94451700D01*
X184318970Y-94451700D02*
X184366589Y-94546939D01*
X184366589Y-94546939D02*
X184461827Y-94594558D01*
X184461827Y-94594558D02*
X184557065Y-94594558D01*
X185271351Y-94546939D02*
X185176113Y-94594558D01*
X185176113Y-94594558D02*
X184985637Y-94594558D01*
X184985637Y-94594558D02*
X184890399Y-94546939D01*
X184890399Y-94546939D02*
X184842780Y-94451700D01*
X184842780Y-94451700D02*
X184842780Y-94070748D01*
X184842780Y-94070748D02*
X184890399Y-93975510D01*
X184890399Y-93975510D02*
X184985637Y-93927891D01*
X184985637Y-93927891D02*
X185176113Y-93927891D01*
X185176113Y-93927891D02*
X185271351Y-93975510D01*
X185271351Y-93975510D02*
X185318970Y-94070748D01*
X185318970Y-94070748D02*
X185318970Y-94165986D01*
X185318970Y-94165986D02*
X184842780Y-94261224D01*
X185747542Y-94594558D02*
X185747542Y-93927891D01*
X185747542Y-94118367D02*
X185795161Y-94023129D01*
X185795161Y-94023129D02*
X185842780Y-93975510D01*
X185842780Y-93975510D02*
X185938018Y-93927891D01*
X185938018Y-93927891D02*
X186033256Y-93927891D01*
X186271352Y-93927891D02*
X186509447Y-94594558D01*
X186747542Y-93927891D02*
X186509447Y-94594558D01*
X186509447Y-94594558D02*
X186414209Y-94832653D01*
X186414209Y-94832653D02*
X186366590Y-94880272D01*
X186366590Y-94880272D02*
X186271352Y-94927891D01*
X187652304Y-94594558D02*
X187080876Y-94594558D01*
X187366590Y-94594558D02*
X187366590Y-93594558D01*
X187366590Y-93594558D02*
X187271352Y-93737415D01*
X187271352Y-93737415D02*
X187176114Y-93832653D01*
X187176114Y-93832653D02*
X187080876Y-93880272D01*
D11*
%TO.C,U5*%
X143050000Y-99695000D02*
X144050000Y-99695000D01*
X143050000Y-98915000D02*
X143050000Y-99695000D01*
X143050000Y-80370000D02*
X142670000Y-80370000D01*
X161290000Y-99695000D02*
X160290000Y-99695000D01*
X161290000Y-98915000D02*
X161290000Y-99695000D01*
X143050000Y-73955000D02*
X143050000Y-80370000D01*
X143050000Y-73955000D02*
X161290000Y-73955000D01*
X161290000Y-73955000D02*
X161290000Y-80370000D01*
%TO.C,U4*%
X168214739Y-88321577D02*
X167114739Y-88321577D01*
X168214739Y-88591577D02*
X168214739Y-88321577D01*
X174634739Y-88591577D02*
X168214739Y-88591577D01*
X168214739Y-81961577D02*
X165384739Y-81961577D01*
X168214739Y-81691577D02*
X168214739Y-81961577D01*
X174634739Y-81691577D02*
X168214739Y-81691577D01*
D12*
%TO.C,U3*%
X130354800Y-119028400D02*
X141708600Y-126927800D01*
X130100800Y-118825200D02*
X131015200Y-119434800D01*
X130405600Y-111052800D02*
X140819600Y-103940800D01*
X155831000Y-126242000D02*
X166575200Y-118698200D01*
X155272200Y-103610600D02*
X157304200Y-105007600D01*
X155729400Y-103940800D02*
X166245000Y-111154400D01*
X160736495Y-110261763D02*
G75*
G03*
X148287200Y-101705600I-12449295J-4778837D01*
G01*
X160608553Y-109554780D02*
G75*
G03*
X148287200Y-101553200I-12321353J-5485820D01*
G01*
X167208524Y-112085056D02*
G75*
G03*
X163425600Y-110240000I-3782924J-2955544D01*
G01*
X137463551Y-117145045D02*
G75*
G03*
X133148800Y-110240000I-4314751J2104445D01*
G01*
X161171855Y-110801922D02*
G75*
G03*
X158625000Y-115040600I2253745J-4238678D01*
G01*
X159844200Y-115040600D02*
G75*
G03*
X136730200Y-115040600I-11557000J0D01*
G01*
X136730200Y-115040600D02*
G75*
G03*
X159844200Y-115040600I11557000J0D01*
G01*
D10*
%TO.C,U1*%
X132321554Y-82332878D02*
X132321554Y-82907878D01*
X132321554Y-92982878D02*
X138071554Y-92982878D01*
X138071554Y-92982878D02*
X138071554Y-92332878D01*
X132321554Y-82907878D02*
X130721554Y-82907878D01*
X132321554Y-82332878D02*
X138071554Y-82332878D01*
X138071554Y-82332878D02*
X138071554Y-82982878D01*
X132321554Y-92982878D02*
X132321554Y-92332878D01*
D11*
%TO.C,SensorConn1*%
X179088720Y-117457541D02*
X179688720Y-117457541D01*
X179088720Y-102577541D02*
X179088720Y-118037541D01*
X179688720Y-104757541D02*
X179688720Y-103157541D01*
X184108720Y-103957541D02*
X185108720Y-103957541D01*
X185108720Y-104207541D02*
X184108720Y-104207541D01*
X179088720Y-114917541D02*
X179688720Y-114917541D01*
X179688720Y-113317541D02*
X179088720Y-113317541D01*
X183578720Y-116407541D02*
X183578720Y-104207541D01*
X179088720Y-109837541D02*
X179688720Y-109837541D01*
X184108720Y-116657541D02*
X183578720Y-116407541D01*
X179688720Y-115857541D02*
X179088720Y-115857541D01*
X179088720Y-104757541D02*
X179688720Y-104757541D01*
X179688720Y-117457541D02*
X179688720Y-115857541D01*
X179088720Y-118037541D02*
X185108720Y-118037541D01*
X179688720Y-109837541D02*
X179688720Y-108237541D01*
X185108720Y-116407541D02*
X184108720Y-116407541D01*
X179688720Y-108237541D02*
X179088720Y-108237541D01*
X179088720Y-107297541D02*
X179688720Y-107297541D01*
X185108720Y-102577541D02*
X179088720Y-102577541D01*
X179688720Y-103157541D02*
X179088720Y-103157541D01*
X179088720Y-112377541D02*
X179688720Y-112377541D01*
X179688720Y-105697541D02*
X179088720Y-105697541D01*
X179688720Y-107297541D02*
X179688720Y-105697541D01*
X180118720Y-118327541D02*
X184118720Y-118327541D01*
X184108720Y-116657541D02*
X184108720Y-103957541D01*
X179688720Y-114917541D02*
X179688720Y-113317541D01*
X183578720Y-104207541D02*
X184108720Y-103957541D01*
X185108720Y-118037541D02*
X185108720Y-102577541D01*
X185108720Y-116657541D02*
X184108720Y-116657541D01*
X179688720Y-110777541D02*
X179088720Y-110777541D01*
X179688720Y-112377541D02*
X179688720Y-110777541D01*
%TO.C,R2*%
X172668435Y-101944680D02*
X173122563Y-101944680D01*
X172668435Y-103414680D02*
X173122563Y-103414680D01*
%TO.C,R1*%
X172769655Y-107106900D02*
X173223783Y-107106900D01*
X172769655Y-108576900D02*
X173223783Y-108576900D01*
%TO.C,C2*%
X172604267Y-96242619D02*
X173126771Y-96242619D01*
X172604267Y-97712619D02*
X173126771Y-97712619D01*
%TO.C,C1*%
X172772967Y-92550398D02*
X173295471Y-92550398D01*
X172772967Y-91080398D02*
X173295471Y-91080398D01*
%TO.C,+12V_Battery1*%
X181322780Y-99719739D02*
X183362780Y-99719739D01*
X184412780Y-95829739D02*
X184412780Y-95229739D01*
X184992780Y-101249739D02*
X184992780Y-95229739D01*
X180272780Y-95229739D02*
X180272780Y-95829739D01*
X184992780Y-95229739D02*
X179692780Y-95229739D01*
X181072780Y-100249739D02*
X181322780Y-99719739D01*
X181322780Y-101249739D02*
X181322780Y-100249739D01*
X181072780Y-101249739D02*
X181072780Y-100249739D01*
X181072780Y-100249739D02*
X183612780Y-100249739D01*
X183362780Y-99719739D02*
X183612780Y-100249739D01*
X182812780Y-95829739D02*
X184412780Y-95829739D01*
X180272780Y-95829739D02*
X181872780Y-95829739D01*
X183362780Y-101249739D02*
X183362780Y-100249739D01*
X183612780Y-100249739D02*
X183612780Y-101249739D01*
X182812780Y-95229739D02*
X182812780Y-95829739D01*
X179692780Y-95229739D02*
X179692780Y-101249739D01*
X179402780Y-96259739D02*
X179402780Y-100259739D01*
X181872780Y-95829739D02*
X181872780Y-95229739D01*
X179692780Y-101249739D02*
X184992780Y-101249739D01*
%TD*%
D13*
%TO.C,U5*%
X150727500Y-88905000D03*
%TD*%
M02*
