%TF.GenerationSoftware,KiCad,Pcbnew,7.0.10*%
%TF.CreationDate,2024-03-05T16:05:14-06:00*%
%TF.ProjectId,smart_helmet,736d6172-745f-4686-956c-6d65742e6b69,rev?*%
%TF.SameCoordinates,Original*%
%TF.FileFunction,Copper,L2,Bot*%
%TF.FilePolarity,Positive*%
%FSLAX46Y46*%
G04 Gerber Fmt 4.6, Leading zero omitted, Abs format (unit mm)*
G04 Created by KiCad (PCBNEW 7.0.10) date 2024-03-05 16:05:14*
%MOMM*%
%LPD*%
G01*
G04 APERTURE LIST*
G04 Aperture macros list*
%AMRoundRect*
0 Rectangle with rounded corners*
0 $1 Rounding radius*
0 $2 $3 $4 $5 $6 $7 $8 $9 X,Y pos of 4 corners*
0 Add a 4 corners polygon primitive as box body*
4,1,4,$2,$3,$4,$5,$6,$7,$8,$9,$2,$3,0*
0 Add four circle primitives for the rounded corners*
1,1,$1+$1,$2,$3*
1,1,$1+$1,$4,$5*
1,1,$1+$1,$6,$7*
1,1,$1+$1,$8,$9*
0 Add four rect primitives between the rounded corners*
20,1,$1+$1,$2,$3,$4,$5,0*
20,1,$1+$1,$4,$5,$6,$7,0*
20,1,$1+$1,$6,$7,$8,$9,0*
20,1,$1+$1,$8,$9,$2,$3,0*%
G04 Aperture macros list end*
%TA.AperFunction,HeatsinkPad*%
%ADD10C,0.939800*%
%TD*%
%TA.AperFunction,ComponentPad*%
%ADD11C,2.032000*%
%TD*%
%TA.AperFunction,ComponentPad*%
%ADD12C,5.080000*%
%TD*%
%TA.AperFunction,ComponentPad*%
%ADD13O,2.336800X1.828800*%
%TD*%
%TA.AperFunction,ComponentPad*%
%ADD14RoundRect,0.262758X0.905642X-0.651642X0.905642X0.651642X-0.905642X0.651642X-0.905642X-0.651642X0*%
%TD*%
%TA.AperFunction,ComponentPad*%
%ADD15O,1.828800X2.336800*%
%TD*%
%TA.AperFunction,ComponentPad*%
%ADD16RoundRect,0.262758X-0.651642X-0.905642X0.651642X-0.905642X0.651642X0.905642X-0.651642X0.905642X0*%
%TD*%
%TA.AperFunction,ViaPad*%
%ADD17C,1.193800*%
%TD*%
%TA.AperFunction,Conductor*%
%ADD18C,0.254000*%
%TD*%
%TA.AperFunction,Conductor*%
%ADD19C,0.508000*%
%TD*%
G04 APERTURE END LIST*
D10*
%TO.P,U5,39,GND*%
%TO.N,GND*%
X151490000Y-88142500D03*
X153015000Y-89667500D03*
X150727500Y-88905000D03*
X152252500Y-88905000D03*
X151490000Y-89667500D03*
X153015000Y-88142500D03*
X150727500Y-87380000D03*
X150727500Y-90430000D03*
X149965000Y-89667500D03*
X152252500Y-87380000D03*
X152252500Y-90430000D03*
X149965000Y-88142500D03*
%TD*%
D11*
%TO.P,U3,1,IN*%
%TO.N,Net-(+12V_Battery1-Pin_2)*%
X146483800Y-120565100D03*
%TO.P,U3,2,OUT*%
%TO.N,Net-(U3-OUT)*%
X146483800Y-109516100D03*
D12*
%TO.P,U3,3,GND*%
%TO.N,GND*%
X163374800Y-115040600D03*
%TO.P,U3,4,4*%
%TO.N,unconnected-(U3-Pad4)*%
X133199600Y-115040600D03*
%TD*%
D13*
%TO.P,SensorConn1,6,Pin_6*%
%TO.N,/VDD*%
X182118720Y-103957541D03*
%TO.P,SensorConn1,5,Pin_5*%
%TO.N,/SDA*%
X182118720Y-106497541D03*
%TO.P,SensorConn1,4,Pin_4*%
%TO.N,/SCL*%
X182118720Y-109037541D03*
%TO.P,SensorConn1,3,Pin_3*%
%TO.N,/INT*%
X182118720Y-111577541D03*
%TO.P,SensorConn1,2,Pin_2*%
%TO.N,GND*%
X182118720Y-114117541D03*
D14*
%TO.P,SensorConn1,1,Pin_1*%
X182118720Y-116657541D03*
%TD*%
D15*
%TO.P,+12V_Battery1,2,Pin_2*%
%TO.N,Net-(+12V_Battery1-Pin_2)*%
X183612780Y-98259739D03*
D16*
%TO.P,+12V_Battery1,1,Pin_1*%
%TO.N,GND*%
X181072780Y-98259739D03*
%TD*%
D17*
%TO.N,/SCL*%
X163901668Y-80911116D03*
X163949588Y-97107922D03*
%TO.N,/VDD*%
X166140769Y-99922815D03*
X145263821Y-96472608D03*
%TO.N,Net-(U1-RXD)*%
X124942101Y-84844132D03*
X159172628Y-85706684D03*
%TO.N,Net-(U1-TXD)*%
X128783651Y-84282428D03*
X157175981Y-86678406D03*
%TO.N,Net-(U5-IO0)*%
X141250719Y-90448077D03*
X156968329Y-94728890D03*
%TO.N,/INT*%
X158258550Y-84331109D03*
X158130765Y-97381198D03*
%TO.N,/SDA*%
X156907078Y-102861881D03*
X175979057Y-105225912D03*
%TD*%
D18*
%TO.N,/SCL*%
X163949588Y-80959036D02*
X163901668Y-80911116D01*
X163949588Y-97107922D02*
X163949588Y-80959036D01*
D19*
%TO.N,/VDD*%
X148714028Y-99922815D02*
X145263821Y-96472608D01*
X166140769Y-99922815D02*
X148714028Y-99922815D01*
D18*
%TO.N,Net-(U1-RXD)*%
X124942101Y-81825201D02*
X124942101Y-84844132D01*
X125740760Y-81026542D02*
X124942101Y-81825201D01*
X159172628Y-85706684D02*
X159182450Y-85696862D01*
X159182450Y-85696862D02*
X159182450Y-83911536D01*
X159182450Y-83911536D02*
X156297456Y-81026542D01*
X156297456Y-81026542D02*
X125740760Y-81026542D01*
%TO.N,Net-(U1-TXD)*%
X154780003Y-84282428D02*
X128783651Y-84282428D01*
X157175981Y-86678406D02*
X154780003Y-84282428D01*
%TO.N,Net-(U5-IO0)*%
X156968329Y-94728890D02*
X145531532Y-94728890D01*
X145531532Y-94728890D02*
X141250719Y-90448077D01*
%TO.N,/INT*%
X158130765Y-97381198D02*
X158130765Y-84458894D01*
X158130765Y-84458894D02*
X158258550Y-84331109D01*
%TO.N,/SDA*%
X159271109Y-105225912D02*
X156907078Y-102861881D01*
X175979057Y-105225912D02*
X159271109Y-105225912D01*
%TD*%
%TA.AperFunction,Conductor*%
%TO.N,GND*%
G36*
X182368720Y-116117071D02*
G01*
X182274046Y-116077856D01*
X182157717Y-116062541D01*
X182079723Y-116062541D01*
X181963394Y-116077856D01*
X181868720Y-116117071D01*
X181868720Y-114658010D01*
X181963394Y-114697226D01*
X182079723Y-114712541D01*
X182157717Y-114712541D01*
X182274046Y-114697226D01*
X182368720Y-114658010D01*
X182368720Y-116117071D01*
G37*
%TD.AperFunction*%
%TA.AperFunction,Conductor*%
G36*
X186704171Y-57022883D02*
G01*
X186749926Y-57075687D01*
X186761132Y-57127198D01*
X186761132Y-130320641D01*
X186741447Y-130387680D01*
X186688643Y-130433435D01*
X186637132Y-130444641D01*
X123515080Y-130444641D01*
X123448041Y-130424956D01*
X123402286Y-130372152D01*
X123391080Y-130320641D01*
X123391080Y-120565100D01*
X144962611Y-120565100D01*
X144981338Y-120803063D01*
X145037061Y-121035168D01*
X145128408Y-121255700D01*
X145128410Y-121255704D01*
X145128411Y-121255705D01*
X145253132Y-121459232D01*
X145408157Y-121640743D01*
X145589668Y-121795768D01*
X145793195Y-121920489D01*
X145793197Y-121920489D01*
X145793199Y-121920491D01*
X145868871Y-121951835D01*
X146013727Y-122011837D01*
X146245834Y-122067561D01*
X146483800Y-122086289D01*
X146721766Y-122067561D01*
X146953873Y-122011837D01*
X147174405Y-121920489D01*
X147377932Y-121795768D01*
X147559443Y-121640743D01*
X147714468Y-121459232D01*
X147839189Y-121255705D01*
X147930537Y-121035173D01*
X147986261Y-120803066D01*
X148004989Y-120565100D01*
X147986261Y-120327134D01*
X147930537Y-120095027D01*
X147839189Y-119874495D01*
X147714468Y-119670968D01*
X147559443Y-119489457D01*
X147377932Y-119334432D01*
X147174405Y-119209711D01*
X147174404Y-119209710D01*
X147174400Y-119209708D01*
X146953868Y-119118361D01*
X146721762Y-119062638D01*
X146721763Y-119062638D01*
X146483800Y-119043911D01*
X146245836Y-119062638D01*
X146013731Y-119118361D01*
X145793199Y-119209708D01*
X145589667Y-119334432D01*
X145408157Y-119489457D01*
X145253132Y-119670967D01*
X145128408Y-119874499D01*
X145037061Y-120095031D01*
X144981338Y-120327136D01*
X144962611Y-120565100D01*
X123391080Y-120565100D01*
X123391080Y-115040600D01*
X130154309Y-115040600D01*
X130173456Y-115381559D01*
X130173458Y-115381571D01*
X130230660Y-115718237D01*
X130230662Y-115718246D01*
X130298892Y-115955075D01*
X130325201Y-116046396D01*
X130428821Y-116296556D01*
X130455887Y-116361900D01*
X130621080Y-116660796D01*
X130621083Y-116660801D01*
X130818475Y-116938997D01*
X130818696Y-116939308D01*
X131046254Y-117193946D01*
X131300892Y-117421504D01*
X131300895Y-117421506D01*
X131300896Y-117421507D01*
X131579398Y-117619116D01*
X131579403Y-117619119D01*
X131579406Y-117619120D01*
X131579408Y-117619122D01*
X131878298Y-117784312D01*
X132193804Y-117914999D01*
X132521959Y-118009539D01*
X132858636Y-118066743D01*
X133199600Y-118085891D01*
X133540564Y-118066743D01*
X133877241Y-118009539D01*
X134205396Y-117914999D01*
X134520902Y-117784312D01*
X134819792Y-117619122D01*
X134819797Y-117619118D01*
X134819801Y-117619116D01*
X134934910Y-117537440D01*
X135098308Y-117421504D01*
X135352946Y-117193946D01*
X135580504Y-116939308D01*
X135778122Y-116660792D01*
X135943312Y-116361902D01*
X136073999Y-116046396D01*
X136168539Y-115718241D01*
X136225743Y-115381564D01*
X136244891Y-115040600D01*
X160330010Y-115040600D01*
X160349154Y-115381503D01*
X160349156Y-115381515D01*
X160406348Y-115718126D01*
X160406350Y-115718135D01*
X160500871Y-116046224D01*
X160631538Y-116361683D01*
X160796703Y-116660526D01*
X160994288Y-116938997D01*
X161054959Y-117006886D01*
X161808113Y-116253732D01*
X161873684Y-116341324D01*
X162074076Y-116541716D01*
X162161666Y-116607285D01*
X161408512Y-117360439D01*
X161476405Y-117421113D01*
X161476410Y-117421117D01*
X161754873Y-117618696D01*
X162053716Y-117783861D01*
X162369175Y-117914528D01*
X162697264Y-118009049D01*
X162697273Y-118009051D01*
X163033884Y-118066243D01*
X163033896Y-118066245D01*
X163374800Y-118085389D01*
X163715703Y-118066245D01*
X163715715Y-118066243D01*
X164052326Y-118009051D01*
X164052335Y-118009049D01*
X164380424Y-117914528D01*
X164695883Y-117783861D01*
X164994726Y-117618696D01*
X165273196Y-117421112D01*
X165273207Y-117421103D01*
X165341087Y-117360440D01*
X165341087Y-117360439D01*
X164587933Y-116607285D01*
X164675524Y-116541716D01*
X164875916Y-116341324D01*
X164941485Y-116253733D01*
X165694639Y-117006887D01*
X165694640Y-117006887D01*
X165755303Y-116939007D01*
X165755312Y-116938996D01*
X165952896Y-116660526D01*
X166118061Y-116361683D01*
X166248728Y-116046224D01*
X166343249Y-115718135D01*
X166343251Y-115718126D01*
X166400443Y-115381515D01*
X166400445Y-115381503D01*
X166419589Y-115040600D01*
X166400445Y-114699696D01*
X166400443Y-114699684D01*
X166343251Y-114363073D01*
X166343249Y-114363064D01*
X166248728Y-114034975D01*
X166118061Y-113719516D01*
X165952896Y-113420673D01*
X165755317Y-113142210D01*
X165755313Y-113142205D01*
X165694639Y-113074312D01*
X164941485Y-113827466D01*
X164875916Y-113739876D01*
X164675524Y-113539484D01*
X164587932Y-113473913D01*
X165341086Y-112720759D01*
X165273197Y-112660088D01*
X164994726Y-112462503D01*
X164695883Y-112297338D01*
X164380424Y-112166671D01*
X164052335Y-112072150D01*
X164052326Y-112072148D01*
X163715715Y-112014956D01*
X163715703Y-112014954D01*
X163374800Y-111995810D01*
X163033896Y-112014954D01*
X163033884Y-112014956D01*
X162697273Y-112072148D01*
X162697264Y-112072150D01*
X162369175Y-112166671D01*
X162053716Y-112297338D01*
X161754873Y-112462503D01*
X161476399Y-112660091D01*
X161408512Y-112720759D01*
X162161667Y-113473914D01*
X162074076Y-113539484D01*
X161873684Y-113739876D01*
X161808114Y-113827467D01*
X161054959Y-113074312D01*
X160994291Y-113142199D01*
X160796703Y-113420673D01*
X160631538Y-113719516D01*
X160500871Y-114034975D01*
X160406350Y-114363064D01*
X160406348Y-114363073D01*
X160349156Y-114699684D01*
X160349154Y-114699696D01*
X160330010Y-115040600D01*
X136244891Y-115040600D01*
X136225743Y-114699636D01*
X136168539Y-114362959D01*
X136073999Y-114034804D01*
X135943312Y-113719298D01*
X135778122Y-113420408D01*
X135778120Y-113420406D01*
X135778119Y-113420403D01*
X135778116Y-113420398D01*
X135580507Y-113141896D01*
X135580506Y-113141895D01*
X135580504Y-113141892D01*
X135352946Y-112887254D01*
X135098308Y-112659696D01*
X135098305Y-112659694D01*
X135098303Y-112659692D01*
X134819801Y-112462083D01*
X134819796Y-112462080D01*
X134520900Y-112296887D01*
X134327644Y-112216838D01*
X134205396Y-112166201D01*
X134121048Y-112141900D01*
X133877246Y-112071662D01*
X133877237Y-112071660D01*
X133540571Y-112014458D01*
X133540559Y-112014456D01*
X133199600Y-111995309D01*
X132858640Y-112014456D01*
X132858628Y-112014458D01*
X132521962Y-112071660D01*
X132521953Y-112071662D01*
X132193807Y-112166200D01*
X132193804Y-112166201D01*
X132101396Y-112204477D01*
X131878299Y-112296887D01*
X131579403Y-112462080D01*
X131579398Y-112462083D01*
X131300896Y-112659692D01*
X131046254Y-112887254D01*
X130818692Y-113141896D01*
X130621083Y-113420398D01*
X130621080Y-113420403D01*
X130455887Y-113719299D01*
X130325200Y-114034807D01*
X130230662Y-114362953D01*
X130230660Y-114362962D01*
X130173458Y-114699628D01*
X130173456Y-114699640D01*
X130154309Y-115040600D01*
X123391080Y-115040600D01*
X123391080Y-111517274D01*
X180445983Y-111517274D01*
X180456205Y-111757901D01*
X180456206Y-111757910D01*
X180506948Y-111993354D01*
X180506948Y-111993355D01*
X180596749Y-112216834D01*
X180723030Y-112421929D01*
X180882155Y-112602729D01*
X181069743Y-112754197D01*
X181109535Y-112811628D01*
X181111961Y-112881455D01*
X181076251Y-112941510D01*
X181061280Y-112953408D01*
X180972954Y-113013106D01*
X180799129Y-113179704D01*
X180799128Y-113179705D01*
X180655964Y-113373274D01*
X180655959Y-113373282D01*
X180547571Y-113588261D01*
X180547570Y-113588264D01*
X180477067Y-113818477D01*
X180477066Y-113818484D01*
X180470784Y-113867541D01*
X181578250Y-113867541D01*
X181539035Y-113962215D01*
X181518586Y-114117541D01*
X181539035Y-114272867D01*
X181578250Y-114367541D01*
X180471724Y-114367541D01*
X180507428Y-114533206D01*
X180597197Y-114756608D01*
X180723432Y-114961626D01*
X180883101Y-115143047D01*
X180912615Y-115206377D01*
X180903205Y-115275610D01*
X180857859Y-115328765D01*
X180855114Y-115330508D01*
X180736771Y-115403503D01*
X180736767Y-115403506D01*
X180610685Y-115529588D01*
X180610682Y-115529592D01*
X180517082Y-115681340D01*
X180517077Y-115681351D01*
X180460992Y-115850605D01*
X180460991Y-115850612D01*
X180450320Y-115955060D01*
X180450320Y-116407541D01*
X181578250Y-116407541D01*
X181539035Y-116502215D01*
X181518586Y-116657541D01*
X181539035Y-116812867D01*
X181578250Y-116907541D01*
X180450321Y-116907541D01*
X180450321Y-117360023D01*
X180460991Y-117464475D01*
X180460992Y-117464478D01*
X180517077Y-117633730D01*
X180517082Y-117633741D01*
X180610682Y-117785489D01*
X180610685Y-117785493D01*
X180736767Y-117911575D01*
X180736771Y-117911578D01*
X180888519Y-118005178D01*
X180888530Y-118005183D01*
X181057784Y-118061268D01*
X181057791Y-118061269D01*
X181162245Y-118071940D01*
X181868719Y-118071940D01*
X181868720Y-118071939D01*
X181868720Y-117198010D01*
X181963394Y-117237226D01*
X182079723Y-117252541D01*
X182157717Y-117252541D01*
X182274046Y-117237226D01*
X182368720Y-117198010D01*
X182368720Y-118071940D01*
X183075186Y-118071940D01*
X183075202Y-118071939D01*
X183179654Y-118061269D01*
X183179657Y-118061268D01*
X183348909Y-118005183D01*
X183348920Y-118005178D01*
X183500668Y-117911578D01*
X183500672Y-117911575D01*
X183626754Y-117785493D01*
X183626757Y-117785489D01*
X183720357Y-117633741D01*
X183720362Y-117633730D01*
X183776447Y-117464476D01*
X183776448Y-117464469D01*
X183787119Y-117360021D01*
X183787120Y-117360008D01*
X183787120Y-116907541D01*
X182659190Y-116907541D01*
X182698405Y-116812867D01*
X182718854Y-116657541D01*
X182698405Y-116502215D01*
X182659190Y-116407541D01*
X183787119Y-116407541D01*
X183787119Y-115955075D01*
X183787118Y-115955058D01*
X183776448Y-115850606D01*
X183776447Y-115850603D01*
X183720362Y-115681351D01*
X183720357Y-115681340D01*
X183626757Y-115529592D01*
X183626754Y-115529588D01*
X183500672Y-115403506D01*
X183500668Y-115403503D01*
X183378154Y-115327935D01*
X183331429Y-115275987D01*
X183320208Y-115207025D01*
X183348051Y-115142943D01*
X183357451Y-115132874D01*
X183438310Y-115055376D01*
X183438311Y-115055376D01*
X183581475Y-114861807D01*
X183581480Y-114861799D01*
X183689868Y-114646820D01*
X183689869Y-114646817D01*
X183760372Y-114416604D01*
X183760373Y-114416597D01*
X183766656Y-114367541D01*
X182659190Y-114367541D01*
X182698405Y-114272867D01*
X182718854Y-114117541D01*
X182698405Y-113962215D01*
X182659190Y-113867541D01*
X183765716Y-113867541D01*
X183765715Y-113867540D01*
X183730011Y-113701875D01*
X183640242Y-113478473D01*
X183514007Y-113273455D01*
X183354936Y-113092713D01*
X183167669Y-112941505D01*
X183127877Y-112884074D01*
X183125450Y-112814247D01*
X183161161Y-112754192D01*
X183176125Y-112742299D01*
X183264802Y-112682364D01*
X183438687Y-112515710D01*
X183581905Y-112322066D01*
X183690337Y-112107003D01*
X183760864Y-111876709D01*
X183791457Y-111637808D01*
X183781234Y-111397174D01*
X183730492Y-111161728D01*
X183640689Y-110938244D01*
X183514409Y-110733152D01*
X183355284Y-110552352D01*
X183168100Y-110401211D01*
X183128309Y-110343783D01*
X183125882Y-110273955D01*
X183161593Y-110213901D01*
X183176557Y-110202007D01*
X183264802Y-110142364D01*
X183438687Y-109975710D01*
X183581905Y-109782066D01*
X183690337Y-109567003D01*
X183760864Y-109336709D01*
X183791457Y-109097808D01*
X183781234Y-108857174D01*
X183730492Y-108621728D01*
X183640689Y-108398244D01*
X183514409Y-108193152D01*
X183355284Y-108012352D01*
X183168100Y-107861211D01*
X183128309Y-107803783D01*
X183125882Y-107733955D01*
X183161593Y-107673901D01*
X183176557Y-107662007D01*
X183264802Y-107602364D01*
X183438687Y-107435710D01*
X183581905Y-107242066D01*
X183690337Y-107027003D01*
X183760864Y-106796709D01*
X183791457Y-106557808D01*
X183781234Y-106317174D01*
X183730492Y-106081728D01*
X183640689Y-105858244D01*
X183514409Y-105653152D01*
X183355284Y-105472352D01*
X183168100Y-105321211D01*
X183128309Y-105263783D01*
X183125882Y-105193955D01*
X183161593Y-105133901D01*
X183176557Y-105122007D01*
X183264802Y-105062364D01*
X183438687Y-104895710D01*
X183581905Y-104702066D01*
X183690337Y-104487003D01*
X183760864Y-104256709D01*
X183791457Y-104017808D01*
X183790209Y-103988443D01*
X183784262Y-103848441D01*
X183781234Y-103777174D01*
X183730492Y-103541728D01*
X183640689Y-103318244D01*
X183514409Y-103113152D01*
X183355284Y-102932352D01*
X183355283Y-102932351D01*
X183355279Y-102932347D01*
X183167899Y-102781048D01*
X183167893Y-102781043D01*
X182957629Y-102663583D01*
X182730536Y-102583346D01*
X182730526Y-102583343D01*
X182493155Y-102542641D01*
X182493146Y-102542641D01*
X181804612Y-102542641D01*
X181804593Y-102542641D01*
X181624742Y-102557949D01*
X181624739Y-102557950D01*
X181391656Y-102618639D01*
X181172190Y-102717843D01*
X181172182Y-102717848D01*
X180972639Y-102852717D01*
X180798752Y-103019372D01*
X180655537Y-103213013D01*
X180655534Y-103213017D01*
X180547103Y-103428077D01*
X180476575Y-103658375D01*
X180445983Y-103897274D01*
X180456205Y-104137901D01*
X180456206Y-104137910D01*
X180506948Y-104373354D01*
X180506948Y-104373355D01*
X180596749Y-104596834D01*
X180596751Y-104596838D01*
X180626854Y-104645728D01*
X180723030Y-104801929D01*
X180882155Y-104982729D01*
X181069337Y-105133869D01*
X181109129Y-105191300D01*
X181111555Y-105261127D01*
X181075845Y-105321182D01*
X181060875Y-105333080D01*
X180972637Y-105392719D01*
X180798752Y-105559372D01*
X180655537Y-105753013D01*
X180655534Y-105753017D01*
X180547103Y-105968077D01*
X180476575Y-106198375D01*
X180445983Y-106437274D01*
X180456205Y-106677901D01*
X180456206Y-106677910D01*
X180506948Y-106913354D01*
X180506948Y-106913355D01*
X180596749Y-107136834D01*
X180723030Y-107341929D01*
X180882155Y-107522729D01*
X181069337Y-107673869D01*
X181109129Y-107731300D01*
X181111555Y-107801127D01*
X181075845Y-107861182D01*
X181060875Y-107873080D01*
X180972637Y-107932719D01*
X180798752Y-108099372D01*
X180655537Y-108293013D01*
X180655534Y-108293017D01*
X180547103Y-108508077D01*
X180476575Y-108738375D01*
X180445983Y-108977274D01*
X180456205Y-109217901D01*
X180456206Y-109217910D01*
X180506948Y-109453354D01*
X180506948Y-109453355D01*
X180596749Y-109676834D01*
X180723030Y-109881929D01*
X180882155Y-110062729D01*
X181069337Y-110213869D01*
X181109129Y-110271300D01*
X181111555Y-110341127D01*
X181075845Y-110401182D01*
X181060875Y-110413080D01*
X180972637Y-110472719D01*
X180798752Y-110639372D01*
X180655537Y-110833013D01*
X180655534Y-110833017D01*
X180547103Y-111048077D01*
X180476575Y-111278375D01*
X180445983Y-111517274D01*
X123391080Y-111517274D01*
X123391080Y-109516100D01*
X144962611Y-109516100D01*
X144981338Y-109754063D01*
X145037061Y-109986168D01*
X145128408Y-110206700D01*
X145128410Y-110206704D01*
X145128411Y-110206705D01*
X145253132Y-110410232D01*
X145408157Y-110591743D01*
X145589668Y-110746768D01*
X145793195Y-110871489D01*
X145793197Y-110871489D01*
X145793199Y-110871491D01*
X145868871Y-110902835D01*
X146013727Y-110962837D01*
X146245834Y-111018561D01*
X146483800Y-111037289D01*
X146721766Y-111018561D01*
X146953873Y-110962837D01*
X147174405Y-110871489D01*
X147377932Y-110746768D01*
X147559443Y-110591743D01*
X147714468Y-110410232D01*
X147839189Y-110206705D01*
X147930537Y-109986173D01*
X147986261Y-109754066D01*
X148004989Y-109516100D01*
X147986261Y-109278134D01*
X147930537Y-109046027D01*
X147870535Y-108901171D01*
X147839191Y-108825499D01*
X147785800Y-108738373D01*
X147714468Y-108621968D01*
X147559443Y-108440457D01*
X147377932Y-108285432D01*
X147174405Y-108160711D01*
X147174404Y-108160710D01*
X147174400Y-108160708D01*
X146953868Y-108069361D01*
X146721762Y-108013638D01*
X146721763Y-108013638D01*
X146483800Y-107994911D01*
X146245836Y-108013638D01*
X146013731Y-108069361D01*
X145793199Y-108160708D01*
X145589667Y-108285432D01*
X145408157Y-108440457D01*
X145253132Y-108621967D01*
X145128408Y-108825499D01*
X145037061Y-109046031D01*
X144981338Y-109278136D01*
X144962611Y-109516100D01*
X123391080Y-109516100D01*
X123391080Y-102861881D01*
X155804977Y-102861881D01*
X155823741Y-103064391D01*
X155823742Y-103064393D01*
X155879397Y-103260001D01*
X155879398Y-103260003D01*
X155879399Y-103260006D01*
X155908398Y-103318244D01*
X155970049Y-103442056D01*
X155970054Y-103442064D01*
X156092617Y-103604364D01*
X156242913Y-103741376D01*
X156242915Y-103741378D01*
X156415825Y-103848439D01*
X156415827Y-103848440D01*
X156415829Y-103848441D01*
X156605474Y-103921910D01*
X156805389Y-103959281D01*
X156805391Y-103959281D01*
X157008767Y-103959281D01*
X157035753Y-103954236D01*
X157105267Y-103961265D01*
X157146221Y-103988443D01*
X158768733Y-105610955D01*
X158778580Y-105623245D01*
X158778798Y-105623066D01*
X158783766Y-105629071D01*
X158832955Y-105675263D01*
X158835752Y-105677974D01*
X158855316Y-105697538D01*
X158858494Y-105700002D01*
X158867390Y-105707599D01*
X158899344Y-105737607D01*
X158899346Y-105737608D01*
X158916976Y-105747299D01*
X158933244Y-105757984D01*
X158949147Y-105770320D01*
X158989371Y-105787726D01*
X158999863Y-105792866D01*
X159038267Y-105813980D01*
X159038269Y-105813981D01*
X159038275Y-105813984D01*
X159057349Y-105818881D01*
X159057769Y-105818989D01*
X159076173Y-105825289D01*
X159094651Y-105833286D01*
X159137960Y-105840145D01*
X159149367Y-105842507D01*
X159191837Y-105853412D01*
X159211967Y-105853412D01*
X159231366Y-105854939D01*
X159251242Y-105858087D01*
X159291037Y-105854325D01*
X159294879Y-105853962D01*
X159306548Y-105853412D01*
X175016021Y-105853412D01*
X175083060Y-105873097D01*
X175114975Y-105902686D01*
X175164592Y-105968390D01*
X175164594Y-105968393D01*
X175314892Y-106105407D01*
X175314894Y-106105409D01*
X175487804Y-106212470D01*
X175487806Y-106212471D01*
X175487808Y-106212472D01*
X175677453Y-106285941D01*
X175877368Y-106323312D01*
X175877370Y-106323312D01*
X176080744Y-106323312D01*
X176080746Y-106323312D01*
X176280661Y-106285941D01*
X176470306Y-106212472D01*
X176643221Y-106105408D01*
X176793519Y-105968393D01*
X176916082Y-105806093D01*
X177006736Y-105624037D01*
X177062393Y-105428423D01*
X177081158Y-105225912D01*
X177062393Y-105023401D01*
X177006736Y-104827787D01*
X176944133Y-104702064D01*
X176916085Y-104645736D01*
X176916080Y-104645728D01*
X176793517Y-104483428D01*
X176643221Y-104346416D01*
X176643219Y-104346414D01*
X176470309Y-104239353D01*
X176470300Y-104239349D01*
X176328072Y-104184250D01*
X176280661Y-104165883D01*
X176080746Y-104128512D01*
X175877368Y-104128512D01*
X175677453Y-104165883D01*
X175677450Y-104165883D01*
X175677450Y-104165884D01*
X175487813Y-104239349D01*
X175487804Y-104239353D01*
X175314894Y-104346414D01*
X175314892Y-104346416D01*
X175164594Y-104483430D01*
X175164592Y-104483433D01*
X175114975Y-104549138D01*
X175058867Y-104590775D01*
X175016021Y-104598412D01*
X159582390Y-104598412D01*
X159515351Y-104578727D01*
X159494709Y-104562093D01*
X158032133Y-103099517D01*
X157998648Y-103038194D01*
X157996343Y-103000400D01*
X158009179Y-102861881D01*
X157990414Y-102659370D01*
X157934757Y-102463756D01*
X157874650Y-102343046D01*
X157844106Y-102281705D01*
X157844101Y-102281697D01*
X157721538Y-102119397D01*
X157571242Y-101982385D01*
X157571240Y-101982383D01*
X157398330Y-101875322D01*
X157398321Y-101875318D01*
X157256093Y-101820219D01*
X157208682Y-101801852D01*
X157008767Y-101764481D01*
X156805389Y-101764481D01*
X156605474Y-101801852D01*
X156605471Y-101801852D01*
X156605471Y-101801853D01*
X156415834Y-101875318D01*
X156415825Y-101875322D01*
X156242915Y-101982383D01*
X156242913Y-101982385D01*
X156092617Y-102119397D01*
X155970054Y-102281697D01*
X155970049Y-102281705D01*
X155879400Y-102463754D01*
X155879397Y-102463760D01*
X155823742Y-102659368D01*
X155823741Y-102659370D01*
X155804977Y-102861880D01*
X155804977Y-102861881D01*
X123391080Y-102861881D01*
X123391080Y-88905000D01*
X149556053Y-88905000D01*
X149965000Y-89313947D01*
X150373947Y-88905000D01*
X150569724Y-88905000D01*
X150590862Y-88983888D01*
X150648612Y-89041638D01*
X150707437Y-89057400D01*
X150747563Y-89057400D01*
X150806388Y-89041638D01*
X150864138Y-88983888D01*
X150885276Y-88905000D01*
X151081053Y-88905000D01*
X151490000Y-89313947D01*
X151898947Y-88905000D01*
X152094724Y-88905000D01*
X152115862Y-88983888D01*
X152173612Y-89041638D01*
X152232437Y-89057400D01*
X152272563Y-89057400D01*
X152331388Y-89041638D01*
X152389138Y-88983888D01*
X152410276Y-88905000D01*
X152606053Y-88905000D01*
X153015000Y-89313947D01*
X153423947Y-88905000D01*
X153015000Y-88496053D01*
X152606053Y-88905000D01*
X152410276Y-88905000D01*
X152389138Y-88826112D01*
X152331388Y-88768362D01*
X152272563Y-88752600D01*
X152232437Y-88752600D01*
X152173612Y-88768362D01*
X152115862Y-88826112D01*
X152094724Y-88905000D01*
X151898947Y-88905000D01*
X151490000Y-88496053D01*
X151081053Y-88905000D01*
X150885276Y-88905000D01*
X150864138Y-88826112D01*
X150806388Y-88768362D01*
X150747563Y-88752600D01*
X150707437Y-88752600D01*
X150648612Y-88768362D01*
X150590862Y-88826112D01*
X150569724Y-88905000D01*
X150373947Y-88905000D01*
X149965000Y-88496053D01*
X149556053Y-88905000D01*
X123391080Y-88905000D01*
X123391080Y-88142500D01*
X148990407Y-88142500D01*
X149009133Y-88332632D01*
X149064594Y-88515463D01*
X149125164Y-88628781D01*
X149125165Y-88628781D01*
X149611447Y-88142500D01*
X149807224Y-88142500D01*
X149828362Y-88221388D01*
X149886112Y-88279138D01*
X149944937Y-88294900D01*
X149985063Y-88294900D01*
X150043888Y-88279138D01*
X150101638Y-88221388D01*
X150122776Y-88142500D01*
X150318553Y-88142500D01*
X150727500Y-88551447D01*
X151136447Y-88142500D01*
X151332224Y-88142500D01*
X151353362Y-88221388D01*
X151411112Y-88279138D01*
X151469937Y-88294900D01*
X151510063Y-88294900D01*
X151568888Y-88279138D01*
X151626638Y-88221388D01*
X151647776Y-88142500D01*
X151843553Y-88142500D01*
X152252500Y-88551447D01*
X152661447Y-88142500D01*
X152857224Y-88142500D01*
X152878362Y-88221388D01*
X152936112Y-88279138D01*
X152994937Y-88294900D01*
X153035063Y-88294900D01*
X153093888Y-88279138D01*
X153151638Y-88221388D01*
X153172776Y-88142501D01*
X153368553Y-88142501D01*
X153854833Y-88628781D01*
X153854834Y-88628780D01*
X153915405Y-88515463D01*
X153970866Y-88332632D01*
X153989592Y-88142500D01*
X153970866Y-87952367D01*
X153915406Y-87769538D01*
X153854833Y-87656218D01*
X153854833Y-87656217D01*
X153368553Y-88142499D01*
X153368553Y-88142501D01*
X153172776Y-88142501D01*
X153172776Y-88142500D01*
X153151638Y-88063612D01*
X153093888Y-88005862D01*
X153035063Y-87990100D01*
X152994937Y-87990100D01*
X152936112Y-88005862D01*
X152878362Y-88063612D01*
X152857224Y-88142500D01*
X152661447Y-88142500D01*
X152252500Y-87733553D01*
X151843553Y-88142500D01*
X151647776Y-88142500D01*
X151626638Y-88063612D01*
X151568888Y-88005862D01*
X151510063Y-87990100D01*
X151469937Y-87990100D01*
X151411112Y-88005862D01*
X151353362Y-88063612D01*
X151332224Y-88142500D01*
X151136447Y-88142500D01*
X150727500Y-87733553D01*
X150318553Y-88142500D01*
X150122776Y-88142500D01*
X150101638Y-88063612D01*
X150043888Y-88005862D01*
X149985063Y-87990100D01*
X149944937Y-87990100D01*
X149886112Y-88005862D01*
X149828362Y-88063612D01*
X149807224Y-88142500D01*
X149611447Y-88142500D01*
X149125164Y-87656217D01*
X149064594Y-87769535D01*
X149009133Y-87952367D01*
X148990407Y-88142500D01*
X123391080Y-88142500D01*
X123391080Y-87302664D01*
X149478717Y-87302664D01*
X149965000Y-87788947D01*
X150373947Y-87380000D01*
X150569724Y-87380000D01*
X150590862Y-87458888D01*
X150648612Y-87516638D01*
X150707437Y-87532400D01*
X150747563Y-87532400D01*
X150806388Y-87516638D01*
X150864138Y-87458888D01*
X150885276Y-87380000D01*
X151081053Y-87380000D01*
X151490000Y-87788947D01*
X151898947Y-87380000D01*
X152094724Y-87380000D01*
X152115862Y-87458888D01*
X152173612Y-87516638D01*
X152232437Y-87532400D01*
X152272563Y-87532400D01*
X152331388Y-87516638D01*
X152389138Y-87458888D01*
X152410276Y-87380000D01*
X152606053Y-87380000D01*
X153015000Y-87788947D01*
X153015001Y-87788947D01*
X153501281Y-87302665D01*
X153501281Y-87302664D01*
X153387960Y-87242092D01*
X153271038Y-87206624D01*
X153212600Y-87168327D01*
X153188373Y-87123959D01*
X153152903Y-87007031D01*
X153092334Y-86893718D01*
X153092333Y-86893717D01*
X152606053Y-87379999D01*
X152606053Y-87380000D01*
X152410276Y-87380000D01*
X152389138Y-87301112D01*
X152331388Y-87243362D01*
X152272563Y-87227600D01*
X152232437Y-87227600D01*
X152173612Y-87243362D01*
X152115862Y-87301112D01*
X152094724Y-87380000D01*
X151898947Y-87380000D01*
X151490000Y-86971053D01*
X151081053Y-87380000D01*
X150885276Y-87380000D01*
X150864138Y-87301112D01*
X150806388Y-87243362D01*
X150747563Y-87227600D01*
X150707437Y-87227600D01*
X150648612Y-87243362D01*
X150590862Y-87301112D01*
X150569724Y-87380000D01*
X150373947Y-87380000D01*
X149887664Y-86893717D01*
X149827094Y-87007036D01*
X149791626Y-87123960D01*
X149753328Y-87182399D01*
X149708960Y-87206626D01*
X149592036Y-87242094D01*
X149478717Y-87302664D01*
X123391080Y-87302664D01*
X123391080Y-86540164D01*
X150241217Y-86540164D01*
X150727500Y-87026447D01*
X150727501Y-87026447D01*
X151213781Y-86540165D01*
X151213781Y-86540164D01*
X151766217Y-86540164D01*
X152252500Y-87026447D01*
X152252501Y-87026447D01*
X152738781Y-86540165D01*
X152738781Y-86540164D01*
X152625463Y-86479594D01*
X152442630Y-86424133D01*
X152442634Y-86424133D01*
X152252500Y-86405407D01*
X152062367Y-86424133D01*
X151879535Y-86479594D01*
X151766217Y-86540164D01*
X151213781Y-86540164D01*
X151100463Y-86479594D01*
X150917630Y-86424133D01*
X150917634Y-86424133D01*
X150727500Y-86405407D01*
X150537367Y-86424133D01*
X150354535Y-86479594D01*
X150241217Y-86540164D01*
X123391080Y-86540164D01*
X123391080Y-84844132D01*
X123840000Y-84844132D01*
X123858764Y-85046642D01*
X123858765Y-85046644D01*
X123914420Y-85242252D01*
X123914421Y-85242254D01*
X123914422Y-85242257D01*
X123927732Y-85268986D01*
X124005072Y-85424307D01*
X124005077Y-85424315D01*
X124127640Y-85586615D01*
X124277936Y-85723627D01*
X124277938Y-85723629D01*
X124450848Y-85830690D01*
X124450850Y-85830691D01*
X124450852Y-85830692D01*
X124640497Y-85904161D01*
X124840412Y-85941532D01*
X124840414Y-85941532D01*
X125043788Y-85941532D01*
X125043790Y-85941532D01*
X125243705Y-85904161D01*
X125433350Y-85830692D01*
X125606265Y-85723628D01*
X125756563Y-85586613D01*
X125879126Y-85424313D01*
X125969780Y-85242257D01*
X126025437Y-85046643D01*
X126044202Y-84844132D01*
X126025437Y-84641621D01*
X125969780Y-84446007D01*
X125888326Y-84282427D01*
X125879129Y-84263956D01*
X125879124Y-84263948D01*
X125756563Y-84101651D01*
X125610062Y-83968097D01*
X125573781Y-83908385D01*
X125569601Y-83876460D01*
X125569601Y-82136482D01*
X125589286Y-82069443D01*
X125605920Y-82048801D01*
X125964360Y-81690361D01*
X126025683Y-81656876D01*
X126052041Y-81654042D01*
X155986175Y-81654042D01*
X156053214Y-81673727D01*
X156073856Y-81690361D01*
X157632358Y-83248864D01*
X157665843Y-83310187D01*
X157660859Y-83379879D01*
X157618987Y-83435812D01*
X157609959Y-83441969D01*
X157594389Y-83451610D01*
X157594385Y-83451613D01*
X157444089Y-83588625D01*
X157321526Y-83750925D01*
X157321521Y-83750933D01*
X157230872Y-83932982D01*
X157230869Y-83932988D01*
X157175214Y-84128596D01*
X157175213Y-84128598D01*
X157156449Y-84331108D01*
X157156449Y-84331109D01*
X157175213Y-84533619D01*
X157175214Y-84533621D01*
X157230869Y-84729229D01*
X157230870Y-84729231D01*
X157230871Y-84729234D01*
X157260924Y-84789588D01*
X157321521Y-84911284D01*
X157321526Y-84911292D01*
X157444089Y-85073591D01*
X157462802Y-85090650D01*
X157499084Y-85150361D01*
X157503265Y-85182288D01*
X157503265Y-85473849D01*
X157483580Y-85540888D01*
X157430776Y-85586643D01*
X157361618Y-85596587D01*
X157356481Y-85595738D01*
X157299409Y-85585069D01*
X157277670Y-85581006D01*
X157074292Y-85581006D01*
X157047301Y-85586051D01*
X156977786Y-85579019D01*
X156936837Y-85551843D01*
X155282379Y-83897385D01*
X155272534Y-83885096D01*
X155272316Y-83885277D01*
X155267343Y-83879266D01*
X155218156Y-83833076D01*
X155215357Y-83830363D01*
X155195800Y-83810805D01*
X155192610Y-83808331D01*
X155183719Y-83800738D01*
X155151771Y-83770736D01*
X155151766Y-83770732D01*
X155134125Y-83761034D01*
X155117860Y-83750350D01*
X155101966Y-83738021D01*
X155101965Y-83738020D01*
X155061738Y-83720612D01*
X155051250Y-83715473D01*
X155012841Y-83694357D01*
X155012831Y-83694354D01*
X154993337Y-83689348D01*
X154974936Y-83683048D01*
X154956462Y-83675054D01*
X154956455Y-83675052D01*
X154913176Y-83668198D01*
X154901736Y-83665829D01*
X154859282Y-83654928D01*
X154859275Y-83654928D01*
X154839145Y-83654928D01*
X154819746Y-83653401D01*
X154799871Y-83650253D01*
X154799870Y-83650253D01*
X154756233Y-83654378D01*
X154744564Y-83654928D01*
X129746687Y-83654928D01*
X129679648Y-83635243D01*
X129647733Y-83605654D01*
X129598115Y-83539949D01*
X129598113Y-83539946D01*
X129447815Y-83402932D01*
X129447813Y-83402930D01*
X129274903Y-83295869D01*
X129274894Y-83295865D01*
X129132666Y-83240766D01*
X129085255Y-83222399D01*
X128885340Y-83185028D01*
X128681962Y-83185028D01*
X128482047Y-83222399D01*
X128482044Y-83222399D01*
X128482044Y-83222400D01*
X128292407Y-83295865D01*
X128292398Y-83295869D01*
X128119488Y-83402930D01*
X128119486Y-83402932D01*
X127969190Y-83539944D01*
X127846627Y-83702244D01*
X127846622Y-83702252D01*
X127755973Y-83884301D01*
X127755970Y-83884307D01*
X127700315Y-84079915D01*
X127700314Y-84079917D01*
X127681550Y-84282427D01*
X127681550Y-84282428D01*
X127700314Y-84484938D01*
X127700315Y-84484940D01*
X127755970Y-84680548D01*
X127755971Y-84680550D01*
X127755972Y-84680553D01*
X127780213Y-84729235D01*
X127846622Y-84862603D01*
X127846627Y-84862611D01*
X127969190Y-85024911D01*
X128119486Y-85161923D01*
X128119488Y-85161925D01*
X128292398Y-85268986D01*
X128292400Y-85268987D01*
X128292402Y-85268988D01*
X128482047Y-85342457D01*
X128681962Y-85379828D01*
X128681964Y-85379828D01*
X128885338Y-85379828D01*
X128885340Y-85379828D01*
X129085255Y-85342457D01*
X129274900Y-85268988D01*
X129447815Y-85161924D01*
X129598113Y-85024909D01*
X129643956Y-84964203D01*
X129647733Y-84959202D01*
X129703841Y-84917565D01*
X129746687Y-84909928D01*
X154468722Y-84909928D01*
X154535761Y-84929613D01*
X154556403Y-84946247D01*
X156050924Y-86440768D01*
X156084409Y-86502091D01*
X156086714Y-86539889D01*
X156073880Y-86678404D01*
X156073880Y-86678406D01*
X156092644Y-86880916D01*
X156092645Y-86880918D01*
X156148300Y-87076526D01*
X156148301Y-87076528D01*
X156148302Y-87076531D01*
X156171919Y-87123959D01*
X156238952Y-87258581D01*
X156238957Y-87258589D01*
X156361520Y-87420889D01*
X156511816Y-87557901D01*
X156511818Y-87557903D01*
X156684728Y-87664964D01*
X156684730Y-87664965D01*
X156684732Y-87664966D01*
X156874377Y-87738435D01*
X157074292Y-87775806D01*
X157074294Y-87775806D01*
X157277667Y-87775806D01*
X157277670Y-87775806D01*
X157356482Y-87761073D01*
X157425994Y-87768104D01*
X157480673Y-87811601D01*
X157503156Y-87877755D01*
X157503265Y-87882962D01*
X157503265Y-93578237D01*
X157483580Y-93645276D01*
X157430776Y-93691031D01*
X157361618Y-93700975D01*
X157334477Y-93693865D01*
X157269933Y-93668861D01*
X157070018Y-93631490D01*
X156866640Y-93631490D01*
X156666725Y-93668861D01*
X156666722Y-93668861D01*
X156666722Y-93668862D01*
X156477085Y-93742327D01*
X156477076Y-93742331D01*
X156304166Y-93849392D01*
X156304164Y-93849394D01*
X156153866Y-93986408D01*
X156153864Y-93986411D01*
X156104247Y-94052116D01*
X156048139Y-94093753D01*
X156005293Y-94101390D01*
X145842813Y-94101390D01*
X145775774Y-94081705D01*
X145755132Y-94065071D01*
X142959894Y-91269833D01*
X150241217Y-91269833D01*
X150354538Y-91330406D01*
X150537369Y-91385866D01*
X150537365Y-91385866D01*
X150727500Y-91404592D01*
X150917632Y-91385866D01*
X151100463Y-91330405D01*
X151213780Y-91269834D01*
X151213781Y-91269833D01*
X151766217Y-91269833D01*
X151879538Y-91330406D01*
X152062369Y-91385866D01*
X152062365Y-91385866D01*
X152252500Y-91404592D01*
X152442632Y-91385866D01*
X152625463Y-91330405D01*
X152738780Y-91269834D01*
X152738781Y-91269833D01*
X152252501Y-90783553D01*
X152252500Y-90783553D01*
X151766217Y-91269833D01*
X151213781Y-91269833D01*
X150727501Y-90783553D01*
X150727500Y-90783553D01*
X150241217Y-91269833D01*
X142959894Y-91269833D01*
X142375774Y-90685713D01*
X142342289Y-90624390D01*
X142339984Y-90586596D01*
X142347329Y-90507333D01*
X149478717Y-90507333D01*
X149478718Y-90507334D01*
X149592031Y-90567903D01*
X149708959Y-90603373D01*
X149767398Y-90641671D01*
X149791624Y-90686038D01*
X149827092Y-90802960D01*
X149887664Y-90916281D01*
X149887665Y-90916281D01*
X150373947Y-90430000D01*
X150569724Y-90430000D01*
X150590862Y-90508888D01*
X150648612Y-90566638D01*
X150707437Y-90582400D01*
X150747563Y-90582400D01*
X150806388Y-90566638D01*
X150864138Y-90508888D01*
X150885276Y-90430000D01*
X151081053Y-90430000D01*
X151490000Y-90838947D01*
X151898947Y-90430000D01*
X152094724Y-90430000D01*
X152115862Y-90508888D01*
X152173612Y-90566638D01*
X152232437Y-90582400D01*
X152272563Y-90582400D01*
X152331388Y-90566638D01*
X152389138Y-90508888D01*
X152410276Y-90430000D01*
X152606053Y-90430000D01*
X153092333Y-90916281D01*
X153092334Y-90916280D01*
X153152904Y-90802966D01*
X153152906Y-90802959D01*
X153188373Y-90686040D01*
X153226670Y-90627601D01*
X153271040Y-90603373D01*
X153387959Y-90567906D01*
X153387966Y-90567904D01*
X153501280Y-90507334D01*
X153501281Y-90507333D01*
X153015000Y-90021053D01*
X152606053Y-90430000D01*
X152410276Y-90430000D01*
X152389138Y-90351112D01*
X152331388Y-90293362D01*
X152272563Y-90277600D01*
X152232437Y-90277600D01*
X152173612Y-90293362D01*
X152115862Y-90351112D01*
X152094724Y-90430000D01*
X151898947Y-90430000D01*
X151490000Y-90021053D01*
X151081053Y-90430000D01*
X150885276Y-90430000D01*
X150864138Y-90351112D01*
X150806388Y-90293362D01*
X150747563Y-90277600D01*
X150707437Y-90277600D01*
X150648612Y-90293362D01*
X150590862Y-90351112D01*
X150569724Y-90430000D01*
X150373947Y-90430000D01*
X150373947Y-90429999D01*
X149965001Y-90021053D01*
X149965000Y-90021053D01*
X149478717Y-90507333D01*
X142347329Y-90507333D01*
X142352820Y-90448077D01*
X142334055Y-90245566D01*
X142278398Y-90049952D01*
X142218291Y-89929242D01*
X142187747Y-89867901D01*
X142187742Y-89867893D01*
X142065179Y-89705593D01*
X142023393Y-89667500D01*
X148990407Y-89667500D01*
X149009133Y-89857632D01*
X149064594Y-90040463D01*
X149125164Y-90153781D01*
X149125165Y-90153781D01*
X149611447Y-89667500D01*
X149807224Y-89667500D01*
X149828362Y-89746388D01*
X149886112Y-89804138D01*
X149944937Y-89819900D01*
X149985063Y-89819900D01*
X150043888Y-89804138D01*
X150101638Y-89746388D01*
X150122776Y-89667500D01*
X150318553Y-89667500D01*
X150727500Y-90076447D01*
X151136447Y-89667500D01*
X151332224Y-89667500D01*
X151353362Y-89746388D01*
X151411112Y-89804138D01*
X151469937Y-89819900D01*
X151510063Y-89819900D01*
X151568888Y-89804138D01*
X151626638Y-89746388D01*
X151647776Y-89667500D01*
X151843553Y-89667500D01*
X152252500Y-90076447D01*
X152661447Y-89667500D01*
X152857224Y-89667500D01*
X152878362Y-89746388D01*
X152936112Y-89804138D01*
X152994937Y-89819900D01*
X153035063Y-89819900D01*
X153093888Y-89804138D01*
X153151638Y-89746388D01*
X153172776Y-89667501D01*
X153368553Y-89667501D01*
X153854833Y-90153781D01*
X153854834Y-90153780D01*
X153915405Y-90040463D01*
X153970866Y-89857632D01*
X153989592Y-89667500D01*
X153970866Y-89477367D01*
X153915406Y-89294538D01*
X153854833Y-89181218D01*
X153854833Y-89181217D01*
X153368553Y-89667499D01*
X153368553Y-89667501D01*
X153172776Y-89667501D01*
X153172776Y-89667500D01*
X153151638Y-89588612D01*
X153093888Y-89530862D01*
X153035063Y-89515100D01*
X152994937Y-89515100D01*
X152936112Y-89530862D01*
X152878362Y-89588612D01*
X152857224Y-89667500D01*
X152661447Y-89667500D01*
X152252500Y-89258553D01*
X151843553Y-89667500D01*
X151647776Y-89667500D01*
X151626638Y-89588612D01*
X151568888Y-89530862D01*
X151510063Y-89515100D01*
X151469937Y-89515100D01*
X151411112Y-89530862D01*
X151353362Y-89588612D01*
X151332224Y-89667500D01*
X151136447Y-89667500D01*
X150727500Y-89258553D01*
X150318553Y-89667500D01*
X150122776Y-89667500D01*
X150101638Y-89588612D01*
X150043888Y-89530862D01*
X149985063Y-89515100D01*
X149944937Y-89515100D01*
X149886112Y-89530862D01*
X149828362Y-89588612D01*
X149807224Y-89667500D01*
X149611447Y-89667500D01*
X149125164Y-89181217D01*
X149064594Y-89294535D01*
X149009133Y-89477367D01*
X148990407Y-89667500D01*
X142023393Y-89667500D01*
X141914883Y-89568581D01*
X141914881Y-89568579D01*
X141741971Y-89461518D01*
X141741962Y-89461514D01*
X141599734Y-89406415D01*
X141552323Y-89388048D01*
X141352408Y-89350677D01*
X141149030Y-89350677D01*
X140949115Y-89388048D01*
X140949112Y-89388048D01*
X140949112Y-89388049D01*
X140759475Y-89461514D01*
X140759466Y-89461518D01*
X140586556Y-89568579D01*
X140586554Y-89568581D01*
X140436258Y-89705593D01*
X140313695Y-89867893D01*
X140313690Y-89867901D01*
X140223041Y-90049950D01*
X140223038Y-90049956D01*
X140167383Y-90245564D01*
X140167382Y-90245566D01*
X140148618Y-90448076D01*
X140148618Y-90448077D01*
X140167382Y-90650587D01*
X140167383Y-90650589D01*
X140223038Y-90846197D01*
X140223039Y-90846199D01*
X140223040Y-90846202D01*
X140253093Y-90906556D01*
X140313690Y-91028252D01*
X140313695Y-91028260D01*
X140436258Y-91190560D01*
X140586554Y-91327572D01*
X140586556Y-91327574D01*
X140759466Y-91434635D01*
X140759468Y-91434636D01*
X140759470Y-91434637D01*
X140949115Y-91508106D01*
X141149030Y-91545477D01*
X141149032Y-91545477D01*
X141352408Y-91545477D01*
X141379394Y-91540432D01*
X141448908Y-91547461D01*
X141489862Y-91574639D01*
X145029156Y-95113933D01*
X145039003Y-95126223D01*
X145039221Y-95126044D01*
X145044189Y-95132049D01*
X145093378Y-95178241D01*
X145096175Y-95180952D01*
X145103881Y-95188658D01*
X145137366Y-95249981D01*
X145132382Y-95319673D01*
X145090510Y-95375606D01*
X145038987Y-95398227D01*
X144962226Y-95412577D01*
X144962220Y-95412578D01*
X144962217Y-95412579D01*
X144962215Y-95412579D01*
X144962214Y-95412580D01*
X144772577Y-95486045D01*
X144772568Y-95486049D01*
X144599658Y-95593110D01*
X144599656Y-95593112D01*
X144449360Y-95730124D01*
X144326797Y-95892424D01*
X144326792Y-95892432D01*
X144236143Y-96074481D01*
X144236140Y-96074487D01*
X144180485Y-96270095D01*
X144180484Y-96270097D01*
X144161720Y-96472607D01*
X144161720Y-96472608D01*
X144180484Y-96675118D01*
X144180485Y-96675120D01*
X144236140Y-96870728D01*
X144236141Y-96870730D01*
X144236142Y-96870733D01*
X144239654Y-96877786D01*
X144326792Y-97052783D01*
X144326797Y-97052791D01*
X144449360Y-97215091D01*
X144599656Y-97352103D01*
X144599658Y-97352105D01*
X144772568Y-97459166D01*
X144772570Y-97459167D01*
X144772572Y-97459168D01*
X144962217Y-97532637D01*
X145162132Y-97570008D01*
X145242835Y-97570008D01*
X145309874Y-97589693D01*
X145330516Y-97606327D01*
X148135262Y-100411073D01*
X148147043Y-100424705D01*
X148161489Y-100444109D01*
X148199666Y-100476143D01*
X148207642Y-100483453D01*
X148211582Y-100487394D01*
X148236038Y-100506731D01*
X148238835Y-100509010D01*
X148296600Y-100557482D01*
X148302637Y-100561452D01*
X148302607Y-100561497D01*
X148309062Y-100565609D01*
X148309091Y-100565563D01*
X148315232Y-100569351D01*
X148315234Y-100569352D01*
X148315237Y-100569354D01*
X148383642Y-100601251D01*
X148386827Y-100602794D01*
X148454217Y-100636639D01*
X148454226Y-100636641D01*
X148461005Y-100639109D01*
X148460985Y-100639161D01*
X148468214Y-100641674D01*
X148468231Y-100641623D01*
X148475084Y-100643894D01*
X148475087Y-100643894D01*
X148475088Y-100643895D01*
X148549036Y-100659163D01*
X148552442Y-100659918D01*
X148625840Y-100677315D01*
X148625846Y-100677315D01*
X148633013Y-100678153D01*
X148633006Y-100678206D01*
X148640624Y-100678985D01*
X148640629Y-100678932D01*
X148647818Y-100679561D01*
X148647821Y-100679560D01*
X148647822Y-100679561D01*
X148723223Y-100677367D01*
X148726830Y-100677315D01*
X165291453Y-100677315D01*
X165358492Y-100697000D01*
X165374991Y-100709678D01*
X165476604Y-100802310D01*
X165476606Y-100802312D01*
X165649516Y-100909373D01*
X165649518Y-100909374D01*
X165649520Y-100909375D01*
X165839165Y-100982844D01*
X166039080Y-101020215D01*
X166039082Y-101020215D01*
X166242456Y-101020215D01*
X166242458Y-101020215D01*
X166442373Y-100982844D01*
X166632018Y-100909375D01*
X166804933Y-100802311D01*
X166940273Y-100678932D01*
X166955229Y-100665298D01*
X166959870Y-100659153D01*
X167077794Y-100502996D01*
X167168448Y-100320940D01*
X167224105Y-100125326D01*
X167242870Y-99922815D01*
X167242374Y-99917467D01*
X167224105Y-99720304D01*
X167224104Y-99720302D01*
X167201737Y-99641691D01*
X167168448Y-99524690D01*
X167108341Y-99403980D01*
X167077797Y-99342639D01*
X167077792Y-99342631D01*
X166955229Y-99180331D01*
X166804933Y-99043319D01*
X166804931Y-99043317D01*
X166632021Y-98936256D01*
X166632012Y-98936252D01*
X166465008Y-98871555D01*
X166442373Y-98862786D01*
X166242458Y-98825415D01*
X166039080Y-98825415D01*
X165839165Y-98862786D01*
X165839162Y-98862786D01*
X165839162Y-98862787D01*
X165649525Y-98936252D01*
X165649516Y-98936256D01*
X165476606Y-99043317D01*
X165476604Y-99043319D01*
X165374991Y-99135952D01*
X165312187Y-99166569D01*
X165291453Y-99168315D01*
X149077914Y-99168315D01*
X149010875Y-99148630D01*
X148990233Y-99131996D01*
X146401163Y-96542926D01*
X146367678Y-96481603D01*
X146365373Y-96466686D01*
X146363405Y-96445451D01*
X146347157Y-96270097D01*
X146291500Y-96074483D01*
X146231393Y-95953773D01*
X146200849Y-95892432D01*
X146200844Y-95892424D01*
X146078281Y-95730124D01*
X145927986Y-95593113D01*
X145927985Y-95593112D01*
X145916202Y-95585816D01*
X145869568Y-95533789D01*
X145858464Y-95464807D01*
X145886417Y-95400773D01*
X145944553Y-95362016D01*
X145981481Y-95356390D01*
X156005293Y-95356390D01*
X156072332Y-95376075D01*
X156104247Y-95405664D01*
X156153864Y-95471368D01*
X156153866Y-95471371D01*
X156304164Y-95608385D01*
X156304166Y-95608387D01*
X156477076Y-95715448D01*
X156477078Y-95715449D01*
X156477080Y-95715450D01*
X156666725Y-95788919D01*
X156866640Y-95826290D01*
X156866642Y-95826290D01*
X157070016Y-95826290D01*
X157070018Y-95826290D01*
X157269933Y-95788919D01*
X157334473Y-95763915D01*
X157404095Y-95758054D01*
X157465835Y-95790764D01*
X157500090Y-95851661D01*
X157503265Y-95879543D01*
X157503265Y-96413526D01*
X157483580Y-96480565D01*
X157462804Y-96505163D01*
X157316302Y-96638717D01*
X157193741Y-96801014D01*
X157193736Y-96801022D01*
X157103087Y-96983071D01*
X157103084Y-96983077D01*
X157047429Y-97178685D01*
X157047428Y-97178687D01*
X157028664Y-97381197D01*
X157028664Y-97381198D01*
X157047428Y-97583708D01*
X157047429Y-97583710D01*
X157103084Y-97779318D01*
X157103085Y-97779320D01*
X157103086Y-97779323D01*
X157130999Y-97835380D01*
X157193736Y-97961373D01*
X157193741Y-97961381D01*
X157316304Y-98123681D01*
X157405861Y-98205322D01*
X157465553Y-98259739D01*
X157466600Y-98260693D01*
X157466602Y-98260695D01*
X157639512Y-98367756D01*
X157639514Y-98367757D01*
X157639516Y-98367758D01*
X157829161Y-98441227D01*
X158029076Y-98478598D01*
X158029078Y-98478598D01*
X158232452Y-98478598D01*
X158232454Y-98478598D01*
X158432369Y-98441227D01*
X158622014Y-98367758D01*
X158794929Y-98260694D01*
X158945227Y-98123679D01*
X159067790Y-97961379D01*
X159158444Y-97779323D01*
X159214101Y-97583709D01*
X159232866Y-97381198D01*
X159214101Y-97178687D01*
X159158444Y-96983073D01*
X159098337Y-96862363D01*
X159067793Y-96801022D01*
X159067788Y-96801014D01*
X158945227Y-96638717D01*
X158798726Y-96505163D01*
X158762445Y-96445451D01*
X158758265Y-96413526D01*
X158758265Y-86894962D01*
X158777950Y-86827923D01*
X158830754Y-86782168D01*
X158899912Y-86772224D01*
X158905020Y-86773068D01*
X159070939Y-86804084D01*
X159070941Y-86804084D01*
X159274315Y-86804084D01*
X159274317Y-86804084D01*
X159474232Y-86766713D01*
X159663877Y-86693244D01*
X159836792Y-86586180D01*
X159987090Y-86449165D01*
X160109653Y-86286865D01*
X160200307Y-86104809D01*
X160255964Y-85909195D01*
X160274729Y-85706684D01*
X160263083Y-85581006D01*
X160255964Y-85504173D01*
X160255963Y-85504171D01*
X160209951Y-85342456D01*
X160200307Y-85308559D01*
X160110168Y-85127537D01*
X160109656Y-85126508D01*
X160109651Y-85126500D01*
X159987090Y-84964203D01*
X159850411Y-84839603D01*
X159814130Y-84779891D01*
X159809950Y-84747966D01*
X159809950Y-83994500D01*
X159811678Y-83978849D01*
X159811396Y-83978823D01*
X159812130Y-83971060D01*
X159810011Y-83903617D01*
X159809950Y-83899723D01*
X159809950Y-83872066D01*
X159809950Y-83872060D01*
X159809443Y-83868055D01*
X159808527Y-83856407D01*
X159807794Y-83833076D01*
X159807151Y-83812594D01*
X159801532Y-83793254D01*
X159797589Y-83774221D01*
X159795066Y-83754243D01*
X159778931Y-83713491D01*
X159775148Y-83702443D01*
X159770639Y-83686923D01*
X159762918Y-83660345D01*
X159752669Y-83643016D01*
X159744114Y-83625552D01*
X159736703Y-83606833D01*
X159736699Y-83606827D01*
X159710940Y-83571373D01*
X159704524Y-83561606D01*
X159682218Y-83523887D01*
X159682216Y-83523884D01*
X159682214Y-83523881D01*
X159667980Y-83509647D01*
X159655344Y-83494853D01*
X159643512Y-83478568D01*
X159643508Y-83478564D01*
X159609737Y-83450626D01*
X159601097Y-83442764D01*
X156799832Y-80641499D01*
X156789987Y-80629210D01*
X156789769Y-80629391D01*
X156784796Y-80623380D01*
X156735609Y-80577190D01*
X156732810Y-80574477D01*
X156713253Y-80554919D01*
X156710063Y-80552445D01*
X156701172Y-80544852D01*
X156669224Y-80514850D01*
X156669219Y-80514846D01*
X156651578Y-80505148D01*
X156635313Y-80494464D01*
X156619419Y-80482135D01*
X156619418Y-80482134D01*
X156590118Y-80469454D01*
X156579191Y-80464726D01*
X156568703Y-80459587D01*
X156530294Y-80438471D01*
X156530284Y-80438468D01*
X156510790Y-80433462D01*
X156492389Y-80427162D01*
X156473915Y-80419168D01*
X156473908Y-80419166D01*
X156430629Y-80412312D01*
X156419189Y-80409943D01*
X156376735Y-80399042D01*
X156376728Y-80399042D01*
X156356598Y-80399042D01*
X156337199Y-80397515D01*
X156317324Y-80394367D01*
X156317323Y-80394367D01*
X156273686Y-80398492D01*
X156262017Y-80399042D01*
X125823725Y-80399042D01*
X125808074Y-80397314D01*
X125808048Y-80397596D01*
X125800285Y-80396861D01*
X125732855Y-80398981D01*
X125728960Y-80399042D01*
X125701279Y-80399042D01*
X125697261Y-80399549D01*
X125685634Y-80400464D01*
X125641818Y-80401841D01*
X125641814Y-80401842D01*
X125622482Y-80407458D01*
X125603442Y-80411401D01*
X125583472Y-80413924D01*
X125583468Y-80413925D01*
X125542713Y-80430061D01*
X125531665Y-80433843D01*
X125489572Y-80446072D01*
X125489565Y-80446075D01*
X125472240Y-80456321D01*
X125454770Y-80464879D01*
X125436058Y-80472287D01*
X125400586Y-80498058D01*
X125390826Y-80504469D01*
X125353106Y-80526776D01*
X125338866Y-80541016D01*
X125324080Y-80553644D01*
X125307793Y-80565478D01*
X125279850Y-80599254D01*
X125271989Y-80607892D01*
X124557054Y-81322827D01*
X124544770Y-81332670D01*
X124544950Y-81332888D01*
X124538938Y-81337861D01*
X124492747Y-81387048D01*
X124490042Y-81389839D01*
X124470480Y-81409401D01*
X124470476Y-81409406D01*
X124467996Y-81412604D01*
X124460418Y-81421475D01*
X124430409Y-81453431D01*
X124430406Y-81453435D01*
X124420707Y-81471078D01*
X124410029Y-81487334D01*
X124397695Y-81503235D01*
X124397690Y-81503243D01*
X124380286Y-81543463D01*
X124375147Y-81553953D01*
X124354028Y-81592368D01*
X124349021Y-81611869D01*
X124342722Y-81630265D01*
X124335994Y-81645813D01*
X124334726Y-81648745D01*
X124334725Y-81648747D01*
X124327870Y-81692032D01*
X124325502Y-81703468D01*
X124314601Y-81745924D01*
X124314601Y-81766059D01*
X124313074Y-81785458D01*
X124309926Y-81805332D01*
X124314051Y-81848968D01*
X124314601Y-81860638D01*
X124314601Y-83876460D01*
X124294916Y-83943499D01*
X124274140Y-83968097D01*
X124127638Y-84101651D01*
X124005077Y-84263948D01*
X124005072Y-84263956D01*
X123914423Y-84446005D01*
X123914420Y-84446011D01*
X123858765Y-84641619D01*
X123858764Y-84641621D01*
X123840000Y-84844131D01*
X123840000Y-84844132D01*
X123391080Y-84844132D01*
X123391080Y-59075000D01*
X128170000Y-59075000D01*
X128170000Y-80015000D01*
X162954200Y-80015000D01*
X163021239Y-80034685D01*
X163066994Y-80087489D01*
X163076938Y-80156647D01*
X163053154Y-80213727D01*
X162964644Y-80330932D01*
X162964639Y-80330940D01*
X162873990Y-80512989D01*
X162873987Y-80512995D01*
X162818332Y-80708603D01*
X162818331Y-80708605D01*
X162799567Y-80911115D01*
X162799567Y-80911116D01*
X162818331Y-81113626D01*
X162818332Y-81113628D01*
X162873987Y-81309236D01*
X162873988Y-81309238D01*
X162873989Y-81309241D01*
X162885764Y-81332888D01*
X162964639Y-81491291D01*
X162964644Y-81491299D01*
X163087207Y-81653599D01*
X163165535Y-81725004D01*
X163237504Y-81790612D01*
X163263365Y-81806624D01*
X163310001Y-81858651D01*
X163322088Y-81912051D01*
X163322088Y-96140250D01*
X163302403Y-96207289D01*
X163281627Y-96231887D01*
X163135125Y-96365441D01*
X163012564Y-96527738D01*
X163012559Y-96527746D01*
X162921910Y-96709795D01*
X162921907Y-96709801D01*
X162866252Y-96905409D01*
X162866251Y-96905411D01*
X162847487Y-97107921D01*
X162847487Y-97107922D01*
X162866251Y-97310432D01*
X162866252Y-97310434D01*
X162921907Y-97506042D01*
X162921908Y-97506044D01*
X162921909Y-97506047D01*
X162951962Y-97566401D01*
X163012559Y-97688097D01*
X163012564Y-97688105D01*
X163135127Y-97850405D01*
X163285423Y-97987417D01*
X163285425Y-97987419D01*
X163458335Y-98094480D01*
X163458337Y-98094481D01*
X163458339Y-98094482D01*
X163647984Y-98167951D01*
X163847899Y-98205322D01*
X163847901Y-98205322D01*
X164051275Y-98205322D01*
X164051277Y-98205322D01*
X164251192Y-98167951D01*
X164440837Y-98094482D01*
X164577702Y-98009739D01*
X179658380Y-98009739D01*
X180532310Y-98009739D01*
X180493095Y-98104413D01*
X180472646Y-98259739D01*
X180493095Y-98415065D01*
X180532310Y-98509739D01*
X179658381Y-98509739D01*
X179658381Y-99216221D01*
X179669051Y-99320673D01*
X179669052Y-99320676D01*
X179725137Y-99489928D01*
X179725142Y-99489939D01*
X179818742Y-99641687D01*
X179818745Y-99641691D01*
X179944827Y-99767773D01*
X179944831Y-99767776D01*
X180096579Y-99861376D01*
X180096590Y-99861381D01*
X180265844Y-99917466D01*
X180265851Y-99917467D01*
X180370305Y-99928138D01*
X180822779Y-99928138D01*
X180822780Y-99928137D01*
X180822780Y-98800208D01*
X180917454Y-98839424D01*
X181033783Y-98854739D01*
X181111777Y-98854739D01*
X181228106Y-98839424D01*
X181322780Y-98800208D01*
X181322780Y-99928138D01*
X181775246Y-99928138D01*
X181775262Y-99928137D01*
X181879714Y-99917467D01*
X181879717Y-99917466D01*
X182048969Y-99861381D01*
X182048980Y-99861376D01*
X182200728Y-99767776D01*
X182200732Y-99767773D01*
X182326813Y-99641692D01*
X182402113Y-99519613D01*
X182454061Y-99472889D01*
X182523024Y-99461666D01*
X182587106Y-99489510D01*
X182597174Y-99498909D01*
X182674611Y-99579706D01*
X182868255Y-99722924D01*
X183083318Y-99831356D01*
X183313612Y-99901883D01*
X183552513Y-99932476D01*
X183793147Y-99922253D01*
X184028593Y-99871511D01*
X184252077Y-99781708D01*
X184457169Y-99655428D01*
X184637969Y-99496303D01*
X184789277Y-99308912D01*
X184906739Y-99098645D01*
X184986976Y-98871552D01*
X185007180Y-98753723D01*
X185027679Y-98634174D01*
X185027680Y-98634163D01*
X185027680Y-97945631D01*
X185027679Y-97945612D01*
X185012371Y-97765761D01*
X185012370Y-97765758D01*
X185012370Y-97765755D01*
X184951681Y-97532675D01*
X184918453Y-97459166D01*
X184852477Y-97313209D01*
X184852472Y-97313201D01*
X184845752Y-97303258D01*
X184717603Y-97113657D01*
X184550949Y-96939772D01*
X184357305Y-96796554D01*
X184268344Y-96751701D01*
X184142243Y-96688122D01*
X183980918Y-96638717D01*
X183911948Y-96617595D01*
X183911946Y-96617594D01*
X183911947Y-96617594D01*
X183673041Y-96587001D01*
X183432419Y-96597224D01*
X183432410Y-96597225D01*
X183196966Y-96647967D01*
X183196965Y-96647967D01*
X182973486Y-96737768D01*
X182768391Y-96864049D01*
X182587008Y-97023687D01*
X182523678Y-97053202D01*
X182454445Y-97043793D01*
X182401289Y-96998447D01*
X182399546Y-96995701D01*
X182326817Y-96877790D01*
X182326814Y-96877786D01*
X182200732Y-96751704D01*
X182200728Y-96751701D01*
X182048980Y-96658101D01*
X182048969Y-96658096D01*
X181879715Y-96602011D01*
X181879708Y-96602010D01*
X181775260Y-96591339D01*
X181322780Y-96591339D01*
X181322780Y-97719269D01*
X181228106Y-97680054D01*
X181111777Y-97664739D01*
X181033783Y-97664739D01*
X180917454Y-97680054D01*
X180822780Y-97719269D01*
X180822780Y-96591339D01*
X180370314Y-96591339D01*
X180370296Y-96591340D01*
X180265845Y-96602010D01*
X180265842Y-96602011D01*
X180096590Y-96658096D01*
X180096579Y-96658101D01*
X179944831Y-96751701D01*
X179944827Y-96751704D01*
X179818745Y-96877786D01*
X179818742Y-96877790D01*
X179725142Y-97029538D01*
X179725137Y-97029549D01*
X179669052Y-97198803D01*
X179669051Y-97198810D01*
X179658380Y-97303258D01*
X179658380Y-98009739D01*
X164577702Y-98009739D01*
X164613752Y-97987418D01*
X164764050Y-97850403D01*
X164886613Y-97688103D01*
X164977267Y-97506047D01*
X165032924Y-97310433D01*
X165051689Y-97107922D01*
X165046580Y-97052791D01*
X165032924Y-96905411D01*
X165032923Y-96905409D01*
X165023057Y-96870734D01*
X164977267Y-96709797D01*
X164916121Y-96587001D01*
X164886616Y-96527746D01*
X164886611Y-96527738D01*
X164764050Y-96365441D01*
X164617549Y-96231887D01*
X164581268Y-96172175D01*
X164577088Y-96140250D01*
X164577088Y-81835101D01*
X164596773Y-81768062D01*
X164617545Y-81743468D01*
X164716130Y-81653597D01*
X164838693Y-81491297D01*
X164929347Y-81309241D01*
X164985004Y-81113627D01*
X165003769Y-80911116D01*
X164985004Y-80708605D01*
X164929347Y-80512991D01*
X164869240Y-80392281D01*
X164838696Y-80330940D01*
X164838691Y-80330932D01*
X164750182Y-80213727D01*
X164725490Y-80148365D01*
X164740055Y-80080031D01*
X164789253Y-80030418D01*
X164849136Y-80015000D01*
X176170000Y-80015000D01*
X176170000Y-59075000D01*
X128170000Y-59075000D01*
X123391080Y-59075000D01*
X123391080Y-57127198D01*
X123410765Y-57060159D01*
X123463569Y-57014404D01*
X123515080Y-57003198D01*
X186637132Y-57003198D01*
X186704171Y-57022883D01*
G37*
%TD.AperFunction*%
%TD*%
M02*
