%TF.GenerationSoftware,KiCad,Pcbnew,7.0.10*%
%TF.CreationDate,2024-03-26T16:58:00-05:00*%
%TF.ProjectId,shematic for power and light system,7368656d-6174-4696-9320-666f7220706f,rev?*%
%TF.SameCoordinates,Original*%
%TF.FileFunction,Legend,Top*%
%TF.FilePolarity,Positive*%
%FSLAX46Y46*%
G04 Gerber Fmt 4.6, Leading zero omitted, Abs format (unit mm)*
G04 Created by KiCad (PCBNEW 7.0.10) date 2024-03-26 16:58:00*
%MOMM*%
%LPD*%
G01*
G04 APERTURE LIST*
%ADD10C,0.150000*%
%ADD11C,0.120000*%
%ADD12C,0.152400*%
G04 APERTURE END LIST*
D10*
X194194608Y-112441274D02*
X193718417Y-112774607D01*
X194194608Y-113012702D02*
X193194608Y-113012702D01*
X193194608Y-113012702D02*
X193194608Y-112631750D01*
X193194608Y-112631750D02*
X193242227Y-112536512D01*
X193242227Y-112536512D02*
X193289846Y-112488893D01*
X193289846Y-112488893D02*
X193385084Y-112441274D01*
X193385084Y-112441274D02*
X193527941Y-112441274D01*
X193527941Y-112441274D02*
X193623179Y-112488893D01*
X193623179Y-112488893D02*
X193670798Y-112536512D01*
X193670798Y-112536512D02*
X193718417Y-112631750D01*
X193718417Y-112631750D02*
X193718417Y-113012702D01*
X194194608Y-111965083D02*
X194194608Y-111774607D01*
X194194608Y-111774607D02*
X194146989Y-111679369D01*
X194146989Y-111679369D02*
X194099369Y-111631750D01*
X194099369Y-111631750D02*
X193956512Y-111536512D01*
X193956512Y-111536512D02*
X193766036Y-111488893D01*
X193766036Y-111488893D02*
X193385084Y-111488893D01*
X193385084Y-111488893D02*
X193289846Y-111536512D01*
X193289846Y-111536512D02*
X193242227Y-111584131D01*
X193242227Y-111584131D02*
X193194608Y-111679369D01*
X193194608Y-111679369D02*
X193194608Y-111869845D01*
X193194608Y-111869845D02*
X193242227Y-111965083D01*
X193242227Y-111965083D02*
X193289846Y-112012702D01*
X193289846Y-112012702D02*
X193385084Y-112060321D01*
X193385084Y-112060321D02*
X193623179Y-112060321D01*
X193623179Y-112060321D02*
X193718417Y-112012702D01*
X193718417Y-112012702D02*
X193766036Y-111965083D01*
X193766036Y-111965083D02*
X193813655Y-111869845D01*
X193813655Y-111869845D02*
X193813655Y-111679369D01*
X193813655Y-111679369D02*
X193766036Y-111584131D01*
X193766036Y-111584131D02*
X193718417Y-111536512D01*
X193718417Y-111536512D02*
X193623179Y-111488893D01*
X138426407Y-102579344D02*
X138474026Y-102436487D01*
X138474026Y-102436487D02*
X138521645Y-102388868D01*
X138521645Y-102388868D02*
X138616883Y-102341249D01*
X138616883Y-102341249D02*
X138759740Y-102341249D01*
X138759740Y-102341249D02*
X138854978Y-102388868D01*
X138854978Y-102388868D02*
X138902598Y-102436487D01*
X138902598Y-102436487D02*
X138950217Y-102531725D01*
X138950217Y-102531725D02*
X138950217Y-102912677D01*
X138950217Y-102912677D02*
X137950217Y-102912677D01*
X137950217Y-102912677D02*
X137950217Y-102579344D01*
X137950217Y-102579344D02*
X137997836Y-102484106D01*
X137997836Y-102484106D02*
X138045455Y-102436487D01*
X138045455Y-102436487D02*
X138140693Y-102388868D01*
X138140693Y-102388868D02*
X138235931Y-102388868D01*
X138235931Y-102388868D02*
X138331169Y-102436487D01*
X138331169Y-102436487D02*
X138378788Y-102484106D01*
X138378788Y-102484106D02*
X138426407Y-102579344D01*
X138426407Y-102579344D02*
X138426407Y-102912677D01*
X138950217Y-101769820D02*
X138902598Y-101865058D01*
X138902598Y-101865058D02*
X138807359Y-101912677D01*
X138807359Y-101912677D02*
X137950217Y-101912677D01*
X138283550Y-100960296D02*
X138950217Y-100960296D01*
X138283550Y-101388867D02*
X138807359Y-101388867D01*
X138807359Y-101388867D02*
X138902598Y-101341248D01*
X138902598Y-101341248D02*
X138950217Y-101246010D01*
X138950217Y-101246010D02*
X138950217Y-101103153D01*
X138950217Y-101103153D02*
X138902598Y-101007915D01*
X138902598Y-101007915D02*
X138854978Y-100960296D01*
X138902598Y-100103153D02*
X138950217Y-100198391D01*
X138950217Y-100198391D02*
X138950217Y-100388867D01*
X138950217Y-100388867D02*
X138902598Y-100484105D01*
X138902598Y-100484105D02*
X138807359Y-100531724D01*
X138807359Y-100531724D02*
X138426407Y-100531724D01*
X138426407Y-100531724D02*
X138331169Y-100484105D01*
X138331169Y-100484105D02*
X138283550Y-100388867D01*
X138283550Y-100388867D02*
X138283550Y-100198391D01*
X138283550Y-100198391D02*
X138331169Y-100103153D01*
X138331169Y-100103153D02*
X138426407Y-100055534D01*
X138426407Y-100055534D02*
X138521645Y-100055534D01*
X138521645Y-100055534D02*
X138616883Y-100531724D01*
X137950217Y-99769819D02*
X137950217Y-99198391D01*
X138950217Y-99484105D02*
X137950217Y-99484105D01*
X138950217Y-98722200D02*
X138902598Y-98817438D01*
X138902598Y-98817438D02*
X138854978Y-98865057D01*
X138854978Y-98865057D02*
X138759740Y-98912676D01*
X138759740Y-98912676D02*
X138474026Y-98912676D01*
X138474026Y-98912676D02*
X138378788Y-98865057D01*
X138378788Y-98865057D02*
X138331169Y-98817438D01*
X138331169Y-98817438D02*
X138283550Y-98722200D01*
X138283550Y-98722200D02*
X138283550Y-98579343D01*
X138283550Y-98579343D02*
X138331169Y-98484105D01*
X138331169Y-98484105D02*
X138378788Y-98436486D01*
X138378788Y-98436486D02*
X138474026Y-98388867D01*
X138474026Y-98388867D02*
X138759740Y-98388867D01*
X138759740Y-98388867D02*
X138854978Y-98436486D01*
X138854978Y-98436486D02*
X138902598Y-98484105D01*
X138902598Y-98484105D02*
X138950217Y-98579343D01*
X138950217Y-98579343D02*
X138950217Y-98722200D01*
X138950217Y-97817438D02*
X138902598Y-97912676D01*
X138902598Y-97912676D02*
X138854978Y-97960295D01*
X138854978Y-97960295D02*
X138759740Y-98007914D01*
X138759740Y-98007914D02*
X138474026Y-98007914D01*
X138474026Y-98007914D02*
X138378788Y-97960295D01*
X138378788Y-97960295D02*
X138331169Y-97912676D01*
X138331169Y-97912676D02*
X138283550Y-97817438D01*
X138283550Y-97817438D02*
X138283550Y-97674581D01*
X138283550Y-97674581D02*
X138331169Y-97579343D01*
X138331169Y-97579343D02*
X138378788Y-97531724D01*
X138378788Y-97531724D02*
X138474026Y-97484105D01*
X138474026Y-97484105D02*
X138759740Y-97484105D01*
X138759740Y-97484105D02*
X138854978Y-97531724D01*
X138854978Y-97531724D02*
X138902598Y-97579343D01*
X138902598Y-97579343D02*
X138950217Y-97674581D01*
X138950217Y-97674581D02*
X138950217Y-97817438D01*
X138283550Y-97198390D02*
X138283550Y-96817438D01*
X137950217Y-97055533D02*
X138807359Y-97055533D01*
X138807359Y-97055533D02*
X138902598Y-97007914D01*
X138902598Y-97007914D02*
X138950217Y-96912676D01*
X138950217Y-96912676D02*
X138950217Y-96817438D01*
X138950217Y-96484104D02*
X137950217Y-96484104D01*
X138950217Y-96055533D02*
X138426407Y-96055533D01*
X138426407Y-96055533D02*
X138331169Y-96103152D01*
X138331169Y-96103152D02*
X138283550Y-96198390D01*
X138283550Y-96198390D02*
X138283550Y-96341247D01*
X138283550Y-96341247D02*
X138331169Y-96436485D01*
X138331169Y-96436485D02*
X138378788Y-96484104D01*
X138950217Y-95055533D02*
X138950217Y-95626961D01*
X138950217Y-95341247D02*
X137950217Y-95341247D01*
X137950217Y-95341247D02*
X138093074Y-95436485D01*
X138093074Y-95436485D02*
X138188312Y-95531723D01*
X138188312Y-95531723D02*
X138235931Y-95626961D01*
X184551553Y-97773098D02*
X184218220Y-97296907D01*
X183980125Y-97773098D02*
X183980125Y-96773098D01*
X183980125Y-96773098D02*
X184361077Y-96773098D01*
X184361077Y-96773098D02*
X184456315Y-96820717D01*
X184456315Y-96820717D02*
X184503934Y-96868336D01*
X184503934Y-96868336D02*
X184551553Y-96963574D01*
X184551553Y-96963574D02*
X184551553Y-97106431D01*
X184551553Y-97106431D02*
X184503934Y-97201669D01*
X184503934Y-97201669D02*
X184456315Y-97249288D01*
X184456315Y-97249288D02*
X184361077Y-97296907D01*
X184361077Y-97296907D02*
X183980125Y-97296907D01*
X185408696Y-97106431D02*
X185408696Y-97773098D01*
X185170601Y-96725479D02*
X184932506Y-97439764D01*
X184932506Y-97439764D02*
X185551553Y-97439764D01*
X179805743Y-77408277D02*
X179805743Y-78217800D01*
X179805743Y-78217800D02*
X179853362Y-78313038D01*
X179853362Y-78313038D02*
X179900981Y-78360658D01*
X179900981Y-78360658D02*
X179996219Y-78408277D01*
X179996219Y-78408277D02*
X180186695Y-78408277D01*
X180186695Y-78408277D02*
X180281933Y-78360658D01*
X180281933Y-78360658D02*
X180329552Y-78313038D01*
X180329552Y-78313038D02*
X180377171Y-78217800D01*
X180377171Y-78217800D02*
X180377171Y-77408277D01*
X180805743Y-78360658D02*
X180948600Y-78408277D01*
X180948600Y-78408277D02*
X181186695Y-78408277D01*
X181186695Y-78408277D02*
X181281933Y-78360658D01*
X181281933Y-78360658D02*
X181329552Y-78313038D01*
X181329552Y-78313038D02*
X181377171Y-78217800D01*
X181377171Y-78217800D02*
X181377171Y-78122562D01*
X181377171Y-78122562D02*
X181329552Y-78027324D01*
X181329552Y-78027324D02*
X181281933Y-77979705D01*
X181281933Y-77979705D02*
X181186695Y-77932086D01*
X181186695Y-77932086D02*
X180996219Y-77884467D01*
X180996219Y-77884467D02*
X180900981Y-77836848D01*
X180900981Y-77836848D02*
X180853362Y-77789229D01*
X180853362Y-77789229D02*
X180805743Y-77693991D01*
X180805743Y-77693991D02*
X180805743Y-77598753D01*
X180805743Y-77598753D02*
X180853362Y-77503515D01*
X180853362Y-77503515D02*
X180900981Y-77455896D01*
X180900981Y-77455896D02*
X180996219Y-77408277D01*
X180996219Y-77408277D02*
X181234314Y-77408277D01*
X181234314Y-77408277D02*
X181377171Y-77455896D01*
X182139076Y-77884467D02*
X182281933Y-77932086D01*
X182281933Y-77932086D02*
X182329552Y-77979705D01*
X182329552Y-77979705D02*
X182377171Y-78074943D01*
X182377171Y-78074943D02*
X182377171Y-78217800D01*
X182377171Y-78217800D02*
X182329552Y-78313038D01*
X182329552Y-78313038D02*
X182281933Y-78360658D01*
X182281933Y-78360658D02*
X182186695Y-78408277D01*
X182186695Y-78408277D02*
X181805743Y-78408277D01*
X181805743Y-78408277D02*
X181805743Y-77408277D01*
X181805743Y-77408277D02*
X182139076Y-77408277D01*
X182139076Y-77408277D02*
X182234314Y-77455896D01*
X182234314Y-77455896D02*
X182281933Y-77503515D01*
X182281933Y-77503515D02*
X182329552Y-77598753D01*
X182329552Y-77598753D02*
X182329552Y-77693991D01*
X182329552Y-77693991D02*
X182281933Y-77789229D01*
X182281933Y-77789229D02*
X182234314Y-77836848D01*
X182234314Y-77836848D02*
X182139076Y-77884467D01*
X182139076Y-77884467D02*
X181805743Y-77884467D01*
X182567648Y-78503515D02*
X183329552Y-78503515D01*
X183900981Y-77884467D02*
X184043838Y-77932086D01*
X184043838Y-77932086D02*
X184091457Y-77979705D01*
X184091457Y-77979705D02*
X184139076Y-78074943D01*
X184139076Y-78074943D02*
X184139076Y-78217800D01*
X184139076Y-78217800D02*
X184091457Y-78313038D01*
X184091457Y-78313038D02*
X184043838Y-78360658D01*
X184043838Y-78360658D02*
X183948600Y-78408277D01*
X183948600Y-78408277D02*
X183567648Y-78408277D01*
X183567648Y-78408277D02*
X183567648Y-77408277D01*
X183567648Y-77408277D02*
X183900981Y-77408277D01*
X183900981Y-77408277D02*
X183996219Y-77455896D01*
X183996219Y-77455896D02*
X184043838Y-77503515D01*
X184043838Y-77503515D02*
X184091457Y-77598753D01*
X184091457Y-77598753D02*
X184091457Y-77693991D01*
X184091457Y-77693991D02*
X184043838Y-77789229D01*
X184043838Y-77789229D02*
X183996219Y-77836848D01*
X183996219Y-77836848D02*
X183900981Y-77884467D01*
X183900981Y-77884467D02*
X183567648Y-77884467D01*
X184329553Y-78503515D02*
X185091457Y-78503515D01*
X185329553Y-78408277D02*
X185329553Y-77408277D01*
X185329553Y-77408277D02*
X185662886Y-78122562D01*
X185662886Y-78122562D02*
X185996219Y-77408277D01*
X185996219Y-77408277D02*
X185996219Y-78408277D01*
X186472410Y-78408277D02*
X186472410Y-77741610D01*
X186472410Y-77408277D02*
X186424791Y-77455896D01*
X186424791Y-77455896D02*
X186472410Y-77503515D01*
X186472410Y-77503515D02*
X186520029Y-77455896D01*
X186520029Y-77455896D02*
X186472410Y-77408277D01*
X186472410Y-77408277D02*
X186472410Y-77503515D01*
X187377171Y-78360658D02*
X187281933Y-78408277D01*
X187281933Y-78408277D02*
X187091457Y-78408277D01*
X187091457Y-78408277D02*
X186996219Y-78360658D01*
X186996219Y-78360658D02*
X186948600Y-78313038D01*
X186948600Y-78313038D02*
X186900981Y-78217800D01*
X186900981Y-78217800D02*
X186900981Y-77932086D01*
X186900981Y-77932086D02*
X186948600Y-77836848D01*
X186948600Y-77836848D02*
X186996219Y-77789229D01*
X186996219Y-77789229D02*
X187091457Y-77741610D01*
X187091457Y-77741610D02*
X187281933Y-77741610D01*
X187281933Y-77741610D02*
X187377171Y-77789229D01*
X187805743Y-78408277D02*
X187805743Y-77741610D01*
X187805743Y-77932086D02*
X187853362Y-77836848D01*
X187853362Y-77836848D02*
X187900981Y-77789229D01*
X187900981Y-77789229D02*
X187996219Y-77741610D01*
X187996219Y-77741610D02*
X188091457Y-77741610D01*
X188567648Y-78408277D02*
X188472410Y-78360658D01*
X188472410Y-78360658D02*
X188424791Y-78313038D01*
X188424791Y-78313038D02*
X188377172Y-78217800D01*
X188377172Y-78217800D02*
X188377172Y-77932086D01*
X188377172Y-77932086D02*
X188424791Y-77836848D01*
X188424791Y-77836848D02*
X188472410Y-77789229D01*
X188472410Y-77789229D02*
X188567648Y-77741610D01*
X188567648Y-77741610D02*
X188710505Y-77741610D01*
X188710505Y-77741610D02*
X188805743Y-77789229D01*
X188805743Y-77789229D02*
X188853362Y-77836848D01*
X188853362Y-77836848D02*
X188900981Y-77932086D01*
X188900981Y-77932086D02*
X188900981Y-78217800D01*
X188900981Y-78217800D02*
X188853362Y-78313038D01*
X188853362Y-78313038D02*
X188805743Y-78360658D01*
X188805743Y-78360658D02*
X188710505Y-78408277D01*
X188710505Y-78408277D02*
X188567648Y-78408277D01*
X148601612Y-96147354D02*
X148268279Y-95671163D01*
X148030184Y-96147354D02*
X148030184Y-95147354D01*
X148030184Y-95147354D02*
X148411136Y-95147354D01*
X148411136Y-95147354D02*
X148506374Y-95194973D01*
X148506374Y-95194973D02*
X148553993Y-95242592D01*
X148553993Y-95242592D02*
X148601612Y-95337830D01*
X148601612Y-95337830D02*
X148601612Y-95480687D01*
X148601612Y-95480687D02*
X148553993Y-95575925D01*
X148553993Y-95575925D02*
X148506374Y-95623544D01*
X148506374Y-95623544D02*
X148411136Y-95671163D01*
X148411136Y-95671163D02*
X148030184Y-95671163D01*
X148982565Y-95242592D02*
X149030184Y-95194973D01*
X149030184Y-95194973D02*
X149125422Y-95147354D01*
X149125422Y-95147354D02*
X149363517Y-95147354D01*
X149363517Y-95147354D02*
X149458755Y-95194973D01*
X149458755Y-95194973D02*
X149506374Y-95242592D01*
X149506374Y-95242592D02*
X149553993Y-95337830D01*
X149553993Y-95337830D02*
X149553993Y-95433068D01*
X149553993Y-95433068D02*
X149506374Y-95575925D01*
X149506374Y-95575925D02*
X148934946Y-96147354D01*
X148934946Y-96147354D02*
X149553993Y-96147354D01*
X141589376Y-111617563D02*
X141589376Y-112093753D01*
X141589376Y-112093753D02*
X140589376Y-112093753D01*
X141065566Y-111284229D02*
X141065566Y-110950896D01*
X141589376Y-110808039D02*
X141589376Y-111284229D01*
X141589376Y-111284229D02*
X140589376Y-111284229D01*
X140589376Y-111284229D02*
X140589376Y-110808039D01*
X141589376Y-110379467D02*
X140589376Y-110379467D01*
X140589376Y-110379467D02*
X140589376Y-110141372D01*
X140589376Y-110141372D02*
X140636995Y-109998515D01*
X140636995Y-109998515D02*
X140732233Y-109903277D01*
X140732233Y-109903277D02*
X140827471Y-109855658D01*
X140827471Y-109855658D02*
X141017947Y-109808039D01*
X141017947Y-109808039D02*
X141160804Y-109808039D01*
X141160804Y-109808039D02*
X141351280Y-109855658D01*
X141351280Y-109855658D02*
X141446518Y-109903277D01*
X141446518Y-109903277D02*
X141541757Y-109998515D01*
X141541757Y-109998515D02*
X141589376Y-110141372D01*
X141589376Y-110141372D02*
X141589376Y-110379467D01*
X140684614Y-109427086D02*
X140636995Y-109379467D01*
X140636995Y-109379467D02*
X140589376Y-109284229D01*
X140589376Y-109284229D02*
X140589376Y-109046134D01*
X140589376Y-109046134D02*
X140636995Y-108950896D01*
X140636995Y-108950896D02*
X140684614Y-108903277D01*
X140684614Y-108903277D02*
X140779852Y-108855658D01*
X140779852Y-108855658D02*
X140875090Y-108855658D01*
X140875090Y-108855658D02*
X141017947Y-108903277D01*
X141017947Y-108903277D02*
X141589376Y-109474705D01*
X141589376Y-109474705D02*
X141589376Y-108855658D01*
X131673660Y-116000269D02*
X132673660Y-116000269D01*
X131673660Y-117047887D02*
X132149851Y-116714554D01*
X131673660Y-116476459D02*
X132673660Y-116476459D01*
X132673660Y-116476459D02*
X132673660Y-116857411D01*
X132673660Y-116857411D02*
X132626041Y-116952649D01*
X132626041Y-116952649D02*
X132578422Y-117000268D01*
X132578422Y-117000268D02*
X132483184Y-117047887D01*
X132483184Y-117047887D02*
X132340327Y-117047887D01*
X132340327Y-117047887D02*
X132245089Y-117000268D01*
X132245089Y-117000268D02*
X132197470Y-116952649D01*
X132197470Y-116952649D02*
X132149851Y-116857411D01*
X132149851Y-116857411D02*
X132149851Y-116476459D01*
X131673660Y-117952649D02*
X131673660Y-117476459D01*
X131673660Y-117476459D02*
X132673660Y-117476459D01*
X132673660Y-118190745D02*
X132673660Y-118857411D01*
X132673660Y-118857411D02*
X131673660Y-118190745D01*
X131673660Y-118190745D02*
X131673660Y-118857411D01*
X132340327Y-119666935D02*
X131673660Y-119666935D01*
X132721280Y-119428840D02*
X132006994Y-119190745D01*
X132006994Y-119190745D02*
X132006994Y-119809792D01*
X132340327Y-120619316D02*
X131673660Y-120619316D01*
X132721280Y-120381221D02*
X132006994Y-120143126D01*
X132006994Y-120143126D02*
X132006994Y-120762173D01*
X131673660Y-121143126D02*
X132673660Y-121143126D01*
X132673660Y-121143126D02*
X131673660Y-121714554D01*
X131673660Y-121714554D02*
X132673660Y-121714554D01*
X118402592Y-115932789D02*
X119402592Y-115932789D01*
X118402592Y-116980407D02*
X118878783Y-116647074D01*
X118402592Y-116408979D02*
X119402592Y-116408979D01*
X119402592Y-116408979D02*
X119402592Y-116789931D01*
X119402592Y-116789931D02*
X119354973Y-116885169D01*
X119354973Y-116885169D02*
X119307354Y-116932788D01*
X119307354Y-116932788D02*
X119212116Y-116980407D01*
X119212116Y-116980407D02*
X119069259Y-116980407D01*
X119069259Y-116980407D02*
X118974021Y-116932788D01*
X118974021Y-116932788D02*
X118926402Y-116885169D01*
X118926402Y-116885169D02*
X118878783Y-116789931D01*
X118878783Y-116789931D02*
X118878783Y-116408979D01*
X118402592Y-117885169D02*
X118402592Y-117408979D01*
X118402592Y-117408979D02*
X119402592Y-117408979D01*
X119402592Y-118123265D02*
X119402592Y-118789931D01*
X119402592Y-118789931D02*
X118402592Y-118123265D01*
X118402592Y-118123265D02*
X118402592Y-118789931D01*
X119069259Y-119599455D02*
X118402592Y-119599455D01*
X119450212Y-119361360D02*
X118735926Y-119123265D01*
X118735926Y-119123265D02*
X118735926Y-119742312D01*
X119069259Y-120551836D02*
X118402592Y-120551836D01*
X119450212Y-120313741D02*
X118735926Y-120075646D01*
X118735926Y-120075646D02*
X118735926Y-120694693D01*
X118402592Y-121075646D02*
X119402592Y-121075646D01*
X119402592Y-121075646D02*
X118402592Y-121647074D01*
X118402592Y-121647074D02*
X119402592Y-121647074D01*
X119661165Y-96101582D02*
X119184975Y-96101582D01*
X119184975Y-96101582D02*
X119184975Y-95101582D01*
X119994499Y-96101582D02*
X119994499Y-95101582D01*
X119994499Y-95101582D02*
X120375451Y-95101582D01*
X120375451Y-95101582D02*
X120470689Y-95149201D01*
X120470689Y-95149201D02*
X120518308Y-95196820D01*
X120518308Y-95196820D02*
X120565927Y-95292058D01*
X120565927Y-95292058D02*
X120565927Y-95434915D01*
X120565927Y-95434915D02*
X120518308Y-95530153D01*
X120518308Y-95530153D02*
X120470689Y-95577772D01*
X120470689Y-95577772D02*
X120375451Y-95625391D01*
X120375451Y-95625391D02*
X119994499Y-95625391D01*
X120946880Y-95196820D02*
X120994499Y-95149201D01*
X120994499Y-95149201D02*
X121089737Y-95101582D01*
X121089737Y-95101582D02*
X121327832Y-95101582D01*
X121327832Y-95101582D02*
X121423070Y-95149201D01*
X121423070Y-95149201D02*
X121470689Y-95196820D01*
X121470689Y-95196820D02*
X121518308Y-95292058D01*
X121518308Y-95292058D02*
X121518308Y-95387296D01*
X121518308Y-95387296D02*
X121470689Y-95530153D01*
X121470689Y-95530153D02*
X120899261Y-96101582D01*
X120899261Y-96101582D02*
X121518308Y-96101582D01*
X121994499Y-96101582D02*
X122184975Y-96101582D01*
X122184975Y-96101582D02*
X122280213Y-96053963D01*
X122280213Y-96053963D02*
X122327832Y-96006343D01*
X122327832Y-96006343D02*
X122423070Y-95863486D01*
X122423070Y-95863486D02*
X122470689Y-95673010D01*
X122470689Y-95673010D02*
X122470689Y-95292058D01*
X122470689Y-95292058D02*
X122423070Y-95196820D01*
X122423070Y-95196820D02*
X122375451Y-95149201D01*
X122375451Y-95149201D02*
X122280213Y-95101582D01*
X122280213Y-95101582D02*
X122089737Y-95101582D01*
X122089737Y-95101582D02*
X121994499Y-95149201D01*
X121994499Y-95149201D02*
X121946880Y-95196820D01*
X121946880Y-95196820D02*
X121899261Y-95292058D01*
X121899261Y-95292058D02*
X121899261Y-95530153D01*
X121899261Y-95530153D02*
X121946880Y-95625391D01*
X121946880Y-95625391D02*
X121994499Y-95673010D01*
X121994499Y-95673010D02*
X122089737Y-95720629D01*
X122089737Y-95720629D02*
X122280213Y-95720629D01*
X122280213Y-95720629D02*
X122375451Y-95673010D01*
X122375451Y-95673010D02*
X122423070Y-95625391D01*
X122423070Y-95625391D02*
X122470689Y-95530153D01*
X123375451Y-95101582D02*
X122899261Y-95101582D01*
X122899261Y-95101582D02*
X122851642Y-95577772D01*
X122851642Y-95577772D02*
X122899261Y-95530153D01*
X122899261Y-95530153D02*
X122994499Y-95482534D01*
X122994499Y-95482534D02*
X123232594Y-95482534D01*
X123232594Y-95482534D02*
X123327832Y-95530153D01*
X123327832Y-95530153D02*
X123375451Y-95577772D01*
X123375451Y-95577772D02*
X123423070Y-95673010D01*
X123423070Y-95673010D02*
X123423070Y-95911105D01*
X123423070Y-95911105D02*
X123375451Y-96006343D01*
X123375451Y-96006343D02*
X123327832Y-96053963D01*
X123327832Y-96053963D02*
X123232594Y-96101582D01*
X123232594Y-96101582D02*
X122994499Y-96101582D01*
X122994499Y-96101582D02*
X122899261Y-96053963D01*
X122899261Y-96053963D02*
X122851642Y-96006343D01*
X124042118Y-95101582D02*
X124137356Y-95101582D01*
X124137356Y-95101582D02*
X124232594Y-95149201D01*
X124232594Y-95149201D02*
X124280213Y-95196820D01*
X124280213Y-95196820D02*
X124327832Y-95292058D01*
X124327832Y-95292058D02*
X124375451Y-95482534D01*
X124375451Y-95482534D02*
X124375451Y-95720629D01*
X124375451Y-95720629D02*
X124327832Y-95911105D01*
X124327832Y-95911105D02*
X124280213Y-96006343D01*
X124280213Y-96006343D02*
X124232594Y-96053963D01*
X124232594Y-96053963D02*
X124137356Y-96101582D01*
X124137356Y-96101582D02*
X124042118Y-96101582D01*
X124042118Y-96101582D02*
X123946880Y-96053963D01*
X123946880Y-96053963D02*
X123899261Y-96006343D01*
X123899261Y-96006343D02*
X123851642Y-95911105D01*
X123851642Y-95911105D02*
X123804023Y-95720629D01*
X123804023Y-95720629D02*
X123804023Y-95482534D01*
X123804023Y-95482534D02*
X123851642Y-95292058D01*
X123851642Y-95292058D02*
X123899261Y-95196820D01*
X123899261Y-95196820D02*
X123946880Y-95149201D01*
X123946880Y-95149201D02*
X124042118Y-95101582D01*
X124804023Y-95720629D02*
X125565928Y-95720629D01*
X125946880Y-95101582D02*
X126565927Y-95101582D01*
X126565927Y-95101582D02*
X126232594Y-95482534D01*
X126232594Y-95482534D02*
X126375451Y-95482534D01*
X126375451Y-95482534D02*
X126470689Y-95530153D01*
X126470689Y-95530153D02*
X126518308Y-95577772D01*
X126518308Y-95577772D02*
X126565927Y-95673010D01*
X126565927Y-95673010D02*
X126565927Y-95911105D01*
X126565927Y-95911105D02*
X126518308Y-96006343D01*
X126518308Y-96006343D02*
X126470689Y-96053963D01*
X126470689Y-96053963D02*
X126375451Y-96101582D01*
X126375451Y-96101582D02*
X126089737Y-96101582D01*
X126089737Y-96101582D02*
X125994499Y-96053963D01*
X125994499Y-96053963D02*
X125946880Y-96006343D01*
X126994499Y-96006343D02*
X127042118Y-96053963D01*
X127042118Y-96053963D02*
X126994499Y-96101582D01*
X126994499Y-96101582D02*
X126946880Y-96053963D01*
X126946880Y-96053963D02*
X126994499Y-96006343D01*
X126994499Y-96006343D02*
X126994499Y-96101582D01*
X127375451Y-95101582D02*
X127994498Y-95101582D01*
X127994498Y-95101582D02*
X127661165Y-95482534D01*
X127661165Y-95482534D02*
X127804022Y-95482534D01*
X127804022Y-95482534D02*
X127899260Y-95530153D01*
X127899260Y-95530153D02*
X127946879Y-95577772D01*
X127946879Y-95577772D02*
X127994498Y-95673010D01*
X127994498Y-95673010D02*
X127994498Y-95911105D01*
X127994498Y-95911105D02*
X127946879Y-96006343D01*
X127946879Y-96006343D02*
X127899260Y-96053963D01*
X127899260Y-96053963D02*
X127804022Y-96101582D01*
X127804022Y-96101582D02*
X127518308Y-96101582D01*
X127518308Y-96101582D02*
X127423070Y-96053963D01*
X127423070Y-96053963D02*
X127375451Y-96006343D01*
X128184975Y-96196820D02*
X128946879Y-96196820D01*
X129042118Y-95101582D02*
X129613546Y-95101582D01*
X129327832Y-96101582D02*
X129327832Y-95101582D01*
X130137356Y-95101582D02*
X130327832Y-95101582D01*
X130327832Y-95101582D02*
X130423070Y-95149201D01*
X130423070Y-95149201D02*
X130518308Y-95244439D01*
X130518308Y-95244439D02*
X130565927Y-95434915D01*
X130565927Y-95434915D02*
X130565927Y-95768248D01*
X130565927Y-95768248D02*
X130518308Y-95958724D01*
X130518308Y-95958724D02*
X130423070Y-96053963D01*
X130423070Y-96053963D02*
X130327832Y-96101582D01*
X130327832Y-96101582D02*
X130137356Y-96101582D01*
X130137356Y-96101582D02*
X130042118Y-96053963D01*
X130042118Y-96053963D02*
X129946880Y-95958724D01*
X129946880Y-95958724D02*
X129899261Y-95768248D01*
X129899261Y-95768248D02*
X129899261Y-95434915D01*
X129899261Y-95434915D02*
X129946880Y-95244439D01*
X129946880Y-95244439D02*
X130042118Y-95149201D01*
X130042118Y-95149201D02*
X130137356Y-95101582D01*
X130946880Y-95196820D02*
X130994499Y-95149201D01*
X130994499Y-95149201D02*
X131089737Y-95101582D01*
X131089737Y-95101582D02*
X131327832Y-95101582D01*
X131327832Y-95101582D02*
X131423070Y-95149201D01*
X131423070Y-95149201D02*
X131470689Y-95196820D01*
X131470689Y-95196820D02*
X131518308Y-95292058D01*
X131518308Y-95292058D02*
X131518308Y-95387296D01*
X131518308Y-95387296D02*
X131470689Y-95530153D01*
X131470689Y-95530153D02*
X130899261Y-96101582D01*
X130899261Y-96101582D02*
X131518308Y-96101582D01*
X132423070Y-95101582D02*
X131946880Y-95101582D01*
X131946880Y-95101582D02*
X131899261Y-95577772D01*
X131899261Y-95577772D02*
X131946880Y-95530153D01*
X131946880Y-95530153D02*
X132042118Y-95482534D01*
X132042118Y-95482534D02*
X132280213Y-95482534D01*
X132280213Y-95482534D02*
X132375451Y-95530153D01*
X132375451Y-95530153D02*
X132423070Y-95577772D01*
X132423070Y-95577772D02*
X132470689Y-95673010D01*
X132470689Y-95673010D02*
X132470689Y-95911105D01*
X132470689Y-95911105D02*
X132423070Y-96006343D01*
X132423070Y-96006343D02*
X132375451Y-96053963D01*
X132375451Y-96053963D02*
X132280213Y-96101582D01*
X132280213Y-96101582D02*
X132042118Y-96101582D01*
X132042118Y-96101582D02*
X131946880Y-96053963D01*
X131946880Y-96053963D02*
X131899261Y-96006343D01*
X132851642Y-95196820D02*
X132899261Y-95149201D01*
X132899261Y-95149201D02*
X132994499Y-95101582D01*
X132994499Y-95101582D02*
X133232594Y-95101582D01*
X133232594Y-95101582D02*
X133327832Y-95149201D01*
X133327832Y-95149201D02*
X133375451Y-95196820D01*
X133375451Y-95196820D02*
X133423070Y-95292058D01*
X133423070Y-95292058D02*
X133423070Y-95387296D01*
X133423070Y-95387296D02*
X133375451Y-95530153D01*
X133375451Y-95530153D02*
X132804023Y-96101582D01*
X132804023Y-96101582D02*
X133423070Y-96101582D01*
X153027238Y-111675544D02*
X153027238Y-112151734D01*
X153027238Y-112151734D02*
X152027238Y-112151734D01*
X152503428Y-111342210D02*
X152503428Y-111008877D01*
X153027238Y-110866020D02*
X153027238Y-111342210D01*
X153027238Y-111342210D02*
X152027238Y-111342210D01*
X152027238Y-111342210D02*
X152027238Y-110866020D01*
X153027238Y-110437448D02*
X152027238Y-110437448D01*
X152027238Y-110437448D02*
X152027238Y-110199353D01*
X152027238Y-110199353D02*
X152074857Y-110056496D01*
X152074857Y-110056496D02*
X152170095Y-109961258D01*
X152170095Y-109961258D02*
X152265333Y-109913639D01*
X152265333Y-109913639D02*
X152455809Y-109866020D01*
X152455809Y-109866020D02*
X152598666Y-109866020D01*
X152598666Y-109866020D02*
X152789142Y-109913639D01*
X152789142Y-109913639D02*
X152884380Y-109961258D01*
X152884380Y-109961258D02*
X152979619Y-110056496D01*
X152979619Y-110056496D02*
X153027238Y-110199353D01*
X153027238Y-110199353D02*
X153027238Y-110437448D01*
X152027238Y-109532686D02*
X152027238Y-108913639D01*
X152027238Y-108913639D02*
X152408190Y-109246972D01*
X152408190Y-109246972D02*
X152408190Y-109104115D01*
X152408190Y-109104115D02*
X152455809Y-109008877D01*
X152455809Y-109008877D02*
X152503428Y-108961258D01*
X152503428Y-108961258D02*
X152598666Y-108913639D01*
X152598666Y-108913639D02*
X152836761Y-108913639D01*
X152836761Y-108913639D02*
X152931999Y-108961258D01*
X152931999Y-108961258D02*
X152979619Y-109008877D01*
X152979619Y-109008877D02*
X153027238Y-109104115D01*
X153027238Y-109104115D02*
X153027238Y-109389829D01*
X153027238Y-109389829D02*
X152979619Y-109485067D01*
X152979619Y-109485067D02*
X152931999Y-109532686D01*
X149773670Y-78924682D02*
X149821290Y-78972301D01*
X149821290Y-78972301D02*
X149868909Y-79115158D01*
X149868909Y-79115158D02*
X149868909Y-79210396D01*
X149868909Y-79210396D02*
X149821290Y-79353253D01*
X149821290Y-79353253D02*
X149726051Y-79448491D01*
X149726051Y-79448491D02*
X149630813Y-79496110D01*
X149630813Y-79496110D02*
X149440337Y-79543729D01*
X149440337Y-79543729D02*
X149297480Y-79543729D01*
X149297480Y-79543729D02*
X149107004Y-79496110D01*
X149107004Y-79496110D02*
X149011766Y-79448491D01*
X149011766Y-79448491D02*
X148916528Y-79353253D01*
X148916528Y-79353253D02*
X148868909Y-79210396D01*
X148868909Y-79210396D02*
X148868909Y-79115158D01*
X148868909Y-79115158D02*
X148916528Y-78972301D01*
X148916528Y-78972301D02*
X148964147Y-78924682D01*
X149202242Y-78067539D02*
X149868909Y-78067539D01*
X148821290Y-78305634D02*
X149535575Y-78543729D01*
X149535575Y-78543729D02*
X149535575Y-77924682D01*
X128130046Y-115658577D02*
X127796713Y-115182386D01*
X127558618Y-115658577D02*
X127558618Y-114658577D01*
X127558618Y-114658577D02*
X127939570Y-114658577D01*
X127939570Y-114658577D02*
X128034808Y-114706196D01*
X128034808Y-114706196D02*
X128082427Y-114753815D01*
X128082427Y-114753815D02*
X128130046Y-114849053D01*
X128130046Y-114849053D02*
X128130046Y-114991910D01*
X128130046Y-114991910D02*
X128082427Y-115087148D01*
X128082427Y-115087148D02*
X128034808Y-115134767D01*
X128034808Y-115134767D02*
X127939570Y-115182386D01*
X127939570Y-115182386D02*
X127558618Y-115182386D01*
X129082427Y-115658577D02*
X128510999Y-115658577D01*
X128796713Y-115658577D02*
X128796713Y-114658577D01*
X128796713Y-114658577D02*
X128701475Y-114801434D01*
X128701475Y-114801434D02*
X128606237Y-114896672D01*
X128606237Y-114896672D02*
X128510999Y-114944291D01*
X130034808Y-115658577D02*
X129463380Y-115658577D01*
X129749094Y-115658577D02*
X129749094Y-114658577D01*
X129749094Y-114658577D02*
X129653856Y-114801434D01*
X129653856Y-114801434D02*
X129558618Y-114896672D01*
X129558618Y-114896672D02*
X129463380Y-114944291D01*
X155069674Y-78695975D02*
X155117294Y-78743594D01*
X155117294Y-78743594D02*
X155164913Y-78886451D01*
X155164913Y-78886451D02*
X155164913Y-78981689D01*
X155164913Y-78981689D02*
X155117294Y-79124546D01*
X155117294Y-79124546D02*
X155022055Y-79219784D01*
X155022055Y-79219784D02*
X154926817Y-79267403D01*
X154926817Y-79267403D02*
X154736341Y-79315022D01*
X154736341Y-79315022D02*
X154593484Y-79315022D01*
X154593484Y-79315022D02*
X154403008Y-79267403D01*
X154403008Y-79267403D02*
X154307770Y-79219784D01*
X154307770Y-79219784D02*
X154212532Y-79124546D01*
X154212532Y-79124546D02*
X154164913Y-78981689D01*
X154164913Y-78981689D02*
X154164913Y-78886451D01*
X154164913Y-78886451D02*
X154212532Y-78743594D01*
X154212532Y-78743594D02*
X154260151Y-78695975D01*
X154164913Y-77791213D02*
X154164913Y-78267403D01*
X154164913Y-78267403D02*
X154641103Y-78315022D01*
X154641103Y-78315022D02*
X154593484Y-78267403D01*
X154593484Y-78267403D02*
X154545865Y-78172165D01*
X154545865Y-78172165D02*
X154545865Y-77934070D01*
X154545865Y-77934070D02*
X154593484Y-77838832D01*
X154593484Y-77838832D02*
X154641103Y-77791213D01*
X154641103Y-77791213D02*
X154736341Y-77743594D01*
X154736341Y-77743594D02*
X154974436Y-77743594D01*
X154974436Y-77743594D02*
X155069674Y-77791213D01*
X155069674Y-77791213D02*
X155117294Y-77838832D01*
X155117294Y-77838832D02*
X155164913Y-77934070D01*
X155164913Y-77934070D02*
X155164913Y-78172165D01*
X155164913Y-78172165D02*
X155117294Y-78267403D01*
X155117294Y-78267403D02*
X155069674Y-78315022D01*
X156816077Y-77828655D02*
X157149410Y-77828655D01*
X157292267Y-78352465D02*
X156816077Y-78352465D01*
X156816077Y-78352465D02*
X156816077Y-77352465D01*
X156816077Y-77352465D02*
X157292267Y-77352465D01*
X157673220Y-78304846D02*
X157816077Y-78352465D01*
X157816077Y-78352465D02*
X158054172Y-78352465D01*
X158054172Y-78352465D02*
X158149410Y-78304846D01*
X158149410Y-78304846D02*
X158197029Y-78257226D01*
X158197029Y-78257226D02*
X158244648Y-78161988D01*
X158244648Y-78161988D02*
X158244648Y-78066750D01*
X158244648Y-78066750D02*
X158197029Y-77971512D01*
X158197029Y-77971512D02*
X158149410Y-77923893D01*
X158149410Y-77923893D02*
X158054172Y-77876274D01*
X158054172Y-77876274D02*
X157863696Y-77828655D01*
X157863696Y-77828655D02*
X157768458Y-77781036D01*
X157768458Y-77781036D02*
X157720839Y-77733417D01*
X157720839Y-77733417D02*
X157673220Y-77638179D01*
X157673220Y-77638179D02*
X157673220Y-77542941D01*
X157673220Y-77542941D02*
X157720839Y-77447703D01*
X157720839Y-77447703D02*
X157768458Y-77400084D01*
X157768458Y-77400084D02*
X157863696Y-77352465D01*
X157863696Y-77352465D02*
X158101791Y-77352465D01*
X158101791Y-77352465D02*
X158244648Y-77400084D01*
X158673220Y-78352465D02*
X158673220Y-77352465D01*
X158673220Y-77352465D02*
X159054172Y-77352465D01*
X159054172Y-77352465D02*
X159149410Y-77400084D01*
X159149410Y-77400084D02*
X159197029Y-77447703D01*
X159197029Y-77447703D02*
X159244648Y-77542941D01*
X159244648Y-77542941D02*
X159244648Y-77685798D01*
X159244648Y-77685798D02*
X159197029Y-77781036D01*
X159197029Y-77781036D02*
X159149410Y-77828655D01*
X159149410Y-77828655D02*
X159054172Y-77876274D01*
X159054172Y-77876274D02*
X158673220Y-77876274D01*
X159577982Y-77352465D02*
X160197029Y-77352465D01*
X160197029Y-77352465D02*
X159863696Y-77733417D01*
X159863696Y-77733417D02*
X160006553Y-77733417D01*
X160006553Y-77733417D02*
X160101791Y-77781036D01*
X160101791Y-77781036D02*
X160149410Y-77828655D01*
X160149410Y-77828655D02*
X160197029Y-77923893D01*
X160197029Y-77923893D02*
X160197029Y-78161988D01*
X160197029Y-78161988D02*
X160149410Y-78257226D01*
X160149410Y-78257226D02*
X160101791Y-78304846D01*
X160101791Y-78304846D02*
X160006553Y-78352465D01*
X160006553Y-78352465D02*
X159720839Y-78352465D01*
X159720839Y-78352465D02*
X159625601Y-78304846D01*
X159625601Y-78304846D02*
X159577982Y-78257226D01*
X160577982Y-77447703D02*
X160625601Y-77400084D01*
X160625601Y-77400084D02*
X160720839Y-77352465D01*
X160720839Y-77352465D02*
X160958934Y-77352465D01*
X160958934Y-77352465D02*
X161054172Y-77400084D01*
X161054172Y-77400084D02*
X161101791Y-77447703D01*
X161101791Y-77447703D02*
X161149410Y-77542941D01*
X161149410Y-77542941D02*
X161149410Y-77638179D01*
X161149410Y-77638179D02*
X161101791Y-77781036D01*
X161101791Y-77781036D02*
X160530363Y-78352465D01*
X160530363Y-78352465D02*
X161149410Y-78352465D01*
X161577982Y-77971512D02*
X162339887Y-77971512D01*
X162768458Y-78304846D02*
X162911315Y-78352465D01*
X162911315Y-78352465D02*
X163149410Y-78352465D01*
X163149410Y-78352465D02*
X163244648Y-78304846D01*
X163244648Y-78304846D02*
X163292267Y-78257226D01*
X163292267Y-78257226D02*
X163339886Y-78161988D01*
X163339886Y-78161988D02*
X163339886Y-78066750D01*
X163339886Y-78066750D02*
X163292267Y-77971512D01*
X163292267Y-77971512D02*
X163244648Y-77923893D01*
X163244648Y-77923893D02*
X163149410Y-77876274D01*
X163149410Y-77876274D02*
X162958934Y-77828655D01*
X162958934Y-77828655D02*
X162863696Y-77781036D01*
X162863696Y-77781036D02*
X162816077Y-77733417D01*
X162816077Y-77733417D02*
X162768458Y-77638179D01*
X162768458Y-77638179D02*
X162768458Y-77542941D01*
X162768458Y-77542941D02*
X162816077Y-77447703D01*
X162816077Y-77447703D02*
X162863696Y-77400084D01*
X162863696Y-77400084D02*
X162958934Y-77352465D01*
X162958934Y-77352465D02*
X163197029Y-77352465D01*
X163197029Y-77352465D02*
X163339886Y-77400084D01*
X163673220Y-77352465D02*
X164292267Y-77352465D01*
X164292267Y-77352465D02*
X163958934Y-77733417D01*
X163958934Y-77733417D02*
X164101791Y-77733417D01*
X164101791Y-77733417D02*
X164197029Y-77781036D01*
X164197029Y-77781036D02*
X164244648Y-77828655D01*
X164244648Y-77828655D02*
X164292267Y-77923893D01*
X164292267Y-77923893D02*
X164292267Y-78161988D01*
X164292267Y-78161988D02*
X164244648Y-78257226D01*
X164244648Y-78257226D02*
X164197029Y-78304846D01*
X164197029Y-78304846D02*
X164101791Y-78352465D01*
X164101791Y-78352465D02*
X163816077Y-78352465D01*
X163816077Y-78352465D02*
X163720839Y-78304846D01*
X163720839Y-78304846D02*
X163673220Y-78257226D01*
X164720839Y-77971512D02*
X165482744Y-77971512D01*
X165863696Y-77352465D02*
X166101791Y-78352465D01*
X166101791Y-78352465D02*
X166292267Y-77638179D01*
X166292267Y-77638179D02*
X166482743Y-78352465D01*
X166482743Y-78352465D02*
X166720839Y-77352465D01*
X167673219Y-78352465D02*
X167339886Y-77876274D01*
X167101791Y-78352465D02*
X167101791Y-77352465D01*
X167101791Y-77352465D02*
X167482743Y-77352465D01*
X167482743Y-77352465D02*
X167577981Y-77400084D01*
X167577981Y-77400084D02*
X167625600Y-77447703D01*
X167625600Y-77447703D02*
X167673219Y-77542941D01*
X167673219Y-77542941D02*
X167673219Y-77685798D01*
X167673219Y-77685798D02*
X167625600Y-77781036D01*
X167625600Y-77781036D02*
X167577981Y-77828655D01*
X167577981Y-77828655D02*
X167482743Y-77876274D01*
X167482743Y-77876274D02*
X167101791Y-77876274D01*
X168292267Y-77352465D02*
X168482743Y-77352465D01*
X168482743Y-77352465D02*
X168577981Y-77400084D01*
X168577981Y-77400084D02*
X168673219Y-77495322D01*
X168673219Y-77495322D02*
X168720838Y-77685798D01*
X168720838Y-77685798D02*
X168720838Y-78019131D01*
X168720838Y-78019131D02*
X168673219Y-78209607D01*
X168673219Y-78209607D02*
X168577981Y-78304846D01*
X168577981Y-78304846D02*
X168482743Y-78352465D01*
X168482743Y-78352465D02*
X168292267Y-78352465D01*
X168292267Y-78352465D02*
X168197029Y-78304846D01*
X168197029Y-78304846D02*
X168101791Y-78209607D01*
X168101791Y-78209607D02*
X168054172Y-78019131D01*
X168054172Y-78019131D02*
X168054172Y-77685798D01*
X168054172Y-77685798D02*
X168101791Y-77495322D01*
X168101791Y-77495322D02*
X168197029Y-77400084D01*
X168197029Y-77400084D02*
X168292267Y-77352465D01*
X169339886Y-77352465D02*
X169530362Y-77352465D01*
X169530362Y-77352465D02*
X169625600Y-77400084D01*
X169625600Y-77400084D02*
X169720838Y-77495322D01*
X169720838Y-77495322D02*
X169768457Y-77685798D01*
X169768457Y-77685798D02*
X169768457Y-78019131D01*
X169768457Y-78019131D02*
X169720838Y-78209607D01*
X169720838Y-78209607D02*
X169625600Y-78304846D01*
X169625600Y-78304846D02*
X169530362Y-78352465D01*
X169530362Y-78352465D02*
X169339886Y-78352465D01*
X169339886Y-78352465D02*
X169244648Y-78304846D01*
X169244648Y-78304846D02*
X169149410Y-78209607D01*
X169149410Y-78209607D02*
X169101791Y-78019131D01*
X169101791Y-78019131D02*
X169101791Y-77685798D01*
X169101791Y-77685798D02*
X169149410Y-77495322D01*
X169149410Y-77495322D02*
X169244648Y-77400084D01*
X169244648Y-77400084D02*
X169339886Y-77352465D01*
X170197029Y-78352465D02*
X170197029Y-77352465D01*
X170197029Y-77352465D02*
X170530362Y-78066750D01*
X170530362Y-78066750D02*
X170863695Y-77352465D01*
X170863695Y-77352465D02*
X170863695Y-78352465D01*
X171339886Y-77971512D02*
X172101791Y-77971512D01*
X173101790Y-78352465D02*
X172530362Y-78352465D01*
X172816076Y-78352465D02*
X172816076Y-77352465D01*
X172816076Y-77352465D02*
X172720838Y-77495322D01*
X172720838Y-77495322D02*
X172625600Y-77590560D01*
X172625600Y-77590560D02*
X172530362Y-77638179D01*
X173530362Y-77971512D02*
X174292267Y-77971512D01*
X174768457Y-78352465D02*
X174768457Y-77352465D01*
X174768457Y-77352465D02*
X175339885Y-78352465D01*
X175339885Y-78352465D02*
X175339885Y-77352465D01*
X176339885Y-78352465D02*
X175768457Y-78352465D01*
X176054171Y-78352465D02*
X176054171Y-77352465D01*
X176054171Y-77352465D02*
X175958933Y-77495322D01*
X175958933Y-77495322D02*
X175863695Y-77590560D01*
X175863695Y-77590560D02*
X175768457Y-77638179D01*
X177197028Y-77352465D02*
X177006552Y-77352465D01*
X177006552Y-77352465D02*
X176911314Y-77400084D01*
X176911314Y-77400084D02*
X176863695Y-77447703D01*
X176863695Y-77447703D02*
X176768457Y-77590560D01*
X176768457Y-77590560D02*
X176720838Y-77781036D01*
X176720838Y-77781036D02*
X176720838Y-78161988D01*
X176720838Y-78161988D02*
X176768457Y-78257226D01*
X176768457Y-78257226D02*
X176816076Y-78304846D01*
X176816076Y-78304846D02*
X176911314Y-78352465D01*
X176911314Y-78352465D02*
X177101790Y-78352465D01*
X177101790Y-78352465D02*
X177197028Y-78304846D01*
X177197028Y-78304846D02*
X177244647Y-78257226D01*
X177244647Y-78257226D02*
X177292266Y-78161988D01*
X177292266Y-78161988D02*
X177292266Y-77923893D01*
X177292266Y-77923893D02*
X177244647Y-77828655D01*
X177244647Y-77828655D02*
X177197028Y-77781036D01*
X177197028Y-77781036D02*
X177101790Y-77733417D01*
X177101790Y-77733417D02*
X176911314Y-77733417D01*
X176911314Y-77733417D02*
X176816076Y-77781036D01*
X176816076Y-77781036D02*
X176768457Y-77828655D01*
X176768457Y-77828655D02*
X176720838Y-77923893D01*
X178292266Y-78352465D02*
X177958933Y-77876274D01*
X177720838Y-78352465D02*
X177720838Y-77352465D01*
X177720838Y-77352465D02*
X178101790Y-77352465D01*
X178101790Y-77352465D02*
X178197028Y-77400084D01*
X178197028Y-77400084D02*
X178244647Y-77447703D01*
X178244647Y-77447703D02*
X178292266Y-77542941D01*
X178292266Y-77542941D02*
X178292266Y-77685798D01*
X178292266Y-77685798D02*
X178244647Y-77781036D01*
X178244647Y-77781036D02*
X178197028Y-77828655D01*
X178197028Y-77828655D02*
X178101790Y-77876274D01*
X178101790Y-77876274D02*
X177720838Y-77876274D01*
X178673219Y-77447703D02*
X178720838Y-77400084D01*
X178720838Y-77400084D02*
X178816076Y-77352465D01*
X178816076Y-77352465D02*
X179054171Y-77352465D01*
X179054171Y-77352465D02*
X179149409Y-77400084D01*
X179149409Y-77400084D02*
X179197028Y-77447703D01*
X179197028Y-77447703D02*
X179244647Y-77542941D01*
X179244647Y-77542941D02*
X179244647Y-77638179D01*
X179244647Y-77638179D02*
X179197028Y-77781036D01*
X179197028Y-77781036D02*
X178625600Y-78352465D01*
X178625600Y-78352465D02*
X179244647Y-78352465D01*
X124380943Y-88560194D02*
X124523800Y-88607813D01*
X124523800Y-88607813D02*
X124761895Y-88607813D01*
X124761895Y-88607813D02*
X124857133Y-88560194D01*
X124857133Y-88560194D02*
X124904752Y-88512574D01*
X124904752Y-88512574D02*
X124952371Y-88417336D01*
X124952371Y-88417336D02*
X124952371Y-88322098D01*
X124952371Y-88322098D02*
X124904752Y-88226860D01*
X124904752Y-88226860D02*
X124857133Y-88179241D01*
X124857133Y-88179241D02*
X124761895Y-88131622D01*
X124761895Y-88131622D02*
X124571419Y-88084003D01*
X124571419Y-88084003D02*
X124476181Y-88036384D01*
X124476181Y-88036384D02*
X124428562Y-87988765D01*
X124428562Y-87988765D02*
X124380943Y-87893527D01*
X124380943Y-87893527D02*
X124380943Y-87798289D01*
X124380943Y-87798289D02*
X124428562Y-87703051D01*
X124428562Y-87703051D02*
X124476181Y-87655432D01*
X124476181Y-87655432D02*
X124571419Y-87607813D01*
X124571419Y-87607813D02*
X124809514Y-87607813D01*
X124809514Y-87607813D02*
X124952371Y-87655432D01*
X125285705Y-87607813D02*
X125523800Y-88607813D01*
X125523800Y-88607813D02*
X125714276Y-87893527D01*
X125714276Y-87893527D02*
X125904752Y-88607813D01*
X125904752Y-88607813D02*
X126142848Y-87607813D01*
X127047609Y-88607813D02*
X126476181Y-88607813D01*
X126761895Y-88607813D02*
X126761895Y-87607813D01*
X126761895Y-87607813D02*
X126666657Y-87750670D01*
X126666657Y-87750670D02*
X126571419Y-87845908D01*
X126571419Y-87845908D02*
X126476181Y-87893527D01*
X196927336Y-116272342D02*
X196879717Y-116319962D01*
X196879717Y-116319962D02*
X196736860Y-116367581D01*
X196736860Y-116367581D02*
X196641622Y-116367581D01*
X196641622Y-116367581D02*
X196498765Y-116319962D01*
X196498765Y-116319962D02*
X196403527Y-116224723D01*
X196403527Y-116224723D02*
X196355908Y-116129485D01*
X196355908Y-116129485D02*
X196308289Y-115939009D01*
X196308289Y-115939009D02*
X196308289Y-115796152D01*
X196308289Y-115796152D02*
X196355908Y-115605676D01*
X196355908Y-115605676D02*
X196403527Y-115510438D01*
X196403527Y-115510438D02*
X196498765Y-115415200D01*
X196498765Y-115415200D02*
X196641622Y-115367581D01*
X196641622Y-115367581D02*
X196736860Y-115367581D01*
X196736860Y-115367581D02*
X196879717Y-115415200D01*
X196879717Y-115415200D02*
X196927336Y-115462819D01*
X197308289Y-115462819D02*
X197355908Y-115415200D01*
X197355908Y-115415200D02*
X197451146Y-115367581D01*
X197451146Y-115367581D02*
X197689241Y-115367581D01*
X197689241Y-115367581D02*
X197784479Y-115415200D01*
X197784479Y-115415200D02*
X197832098Y-115462819D01*
X197832098Y-115462819D02*
X197879717Y-115558057D01*
X197879717Y-115558057D02*
X197879717Y-115653295D01*
X197879717Y-115653295D02*
X197832098Y-115796152D01*
X197832098Y-115796152D02*
X197260670Y-116367581D01*
X197260670Y-116367581D02*
X197879717Y-116367581D01*
X117371369Y-79479869D02*
X118133274Y-79479869D01*
X117752321Y-79860822D02*
X117752321Y-79098917D01*
X119133273Y-79860822D02*
X118561845Y-79860822D01*
X118847559Y-79860822D02*
X118847559Y-78860822D01*
X118847559Y-78860822D02*
X118752321Y-79003679D01*
X118752321Y-79003679D02*
X118657083Y-79098917D01*
X118657083Y-79098917D02*
X118561845Y-79146536D01*
X119514226Y-78956060D02*
X119561845Y-78908441D01*
X119561845Y-78908441D02*
X119657083Y-78860822D01*
X119657083Y-78860822D02*
X119895178Y-78860822D01*
X119895178Y-78860822D02*
X119990416Y-78908441D01*
X119990416Y-78908441D02*
X120038035Y-78956060D01*
X120038035Y-78956060D02*
X120085654Y-79051298D01*
X120085654Y-79051298D02*
X120085654Y-79146536D01*
X120085654Y-79146536D02*
X120038035Y-79289393D01*
X120038035Y-79289393D02*
X119466607Y-79860822D01*
X119466607Y-79860822D02*
X120085654Y-79860822D01*
X120371369Y-78860822D02*
X120704702Y-79860822D01*
X120704702Y-79860822D02*
X121038035Y-78860822D01*
X121895178Y-79860822D02*
X121323750Y-79860822D01*
X121609464Y-79860822D02*
X121609464Y-78860822D01*
X121609464Y-78860822D02*
X121514226Y-79003679D01*
X121514226Y-79003679D02*
X121418988Y-79098917D01*
X121418988Y-79098917D02*
X121323750Y-79146536D01*
X144247436Y-116607589D02*
X145247436Y-116607589D01*
X144247436Y-117655207D02*
X144723627Y-117321874D01*
X144247436Y-117083779D02*
X145247436Y-117083779D01*
X145247436Y-117083779D02*
X145247436Y-117464731D01*
X145247436Y-117464731D02*
X145199817Y-117559969D01*
X145199817Y-117559969D02*
X145152198Y-117607588D01*
X145152198Y-117607588D02*
X145056960Y-117655207D01*
X145056960Y-117655207D02*
X144914103Y-117655207D01*
X144914103Y-117655207D02*
X144818865Y-117607588D01*
X144818865Y-117607588D02*
X144771246Y-117559969D01*
X144771246Y-117559969D02*
X144723627Y-117464731D01*
X144723627Y-117464731D02*
X144723627Y-117083779D01*
X144247436Y-118559969D02*
X144247436Y-118083779D01*
X144247436Y-118083779D02*
X145247436Y-118083779D01*
X145247436Y-118798065D02*
X145247436Y-119464731D01*
X145247436Y-119464731D02*
X144247436Y-118798065D01*
X144247436Y-118798065D02*
X144247436Y-119464731D01*
X144914103Y-120274255D02*
X144247436Y-120274255D01*
X145295056Y-120036160D02*
X144580770Y-119798065D01*
X144580770Y-119798065D02*
X144580770Y-120417112D01*
X144914103Y-121226636D02*
X144247436Y-121226636D01*
X145295056Y-120988541D02*
X144580770Y-120750446D01*
X144580770Y-120750446D02*
X144580770Y-121369493D01*
X144247436Y-121750446D02*
X145247436Y-121750446D01*
X145247436Y-121750446D02*
X144247436Y-122321874D01*
X144247436Y-122321874D02*
X145247436Y-122321874D01*
X128160854Y-111347643D02*
X128160854Y-111823833D01*
X128160854Y-111823833D02*
X127160854Y-111823833D01*
X127637044Y-111014309D02*
X127637044Y-110680976D01*
X128160854Y-110538119D02*
X128160854Y-111014309D01*
X128160854Y-111014309D02*
X127160854Y-111014309D01*
X127160854Y-111014309D02*
X127160854Y-110538119D01*
X128160854Y-110109547D02*
X127160854Y-110109547D01*
X127160854Y-110109547D02*
X127160854Y-109871452D01*
X127160854Y-109871452D02*
X127208473Y-109728595D01*
X127208473Y-109728595D02*
X127303711Y-109633357D01*
X127303711Y-109633357D02*
X127398949Y-109585738D01*
X127398949Y-109585738D02*
X127589425Y-109538119D01*
X127589425Y-109538119D02*
X127732282Y-109538119D01*
X127732282Y-109538119D02*
X127922758Y-109585738D01*
X127922758Y-109585738D02*
X128017996Y-109633357D01*
X128017996Y-109633357D02*
X128113235Y-109728595D01*
X128113235Y-109728595D02*
X128160854Y-109871452D01*
X128160854Y-109871452D02*
X128160854Y-110109547D01*
X128160854Y-108585738D02*
X128160854Y-109157166D01*
X128160854Y-108871452D02*
X127160854Y-108871452D01*
X127160854Y-108871452D02*
X127303711Y-108966690D01*
X127303711Y-108966690D02*
X127398949Y-109061928D01*
X127398949Y-109061928D02*
X127446568Y-109157166D01*
X195395925Y-106174359D02*
X195062592Y-105698168D01*
X194824497Y-106174359D02*
X194824497Y-105174359D01*
X194824497Y-105174359D02*
X195205449Y-105174359D01*
X195205449Y-105174359D02*
X195300687Y-105221978D01*
X195300687Y-105221978D02*
X195348306Y-105269597D01*
X195348306Y-105269597D02*
X195395925Y-105364835D01*
X195395925Y-105364835D02*
X195395925Y-105507692D01*
X195395925Y-105507692D02*
X195348306Y-105602930D01*
X195348306Y-105602930D02*
X195300687Y-105650549D01*
X195300687Y-105650549D02*
X195205449Y-105698168D01*
X195205449Y-105698168D02*
X194824497Y-105698168D01*
X195967354Y-105602930D02*
X195872116Y-105555311D01*
X195872116Y-105555311D02*
X195824497Y-105507692D01*
X195824497Y-105507692D02*
X195776878Y-105412454D01*
X195776878Y-105412454D02*
X195776878Y-105364835D01*
X195776878Y-105364835D02*
X195824497Y-105269597D01*
X195824497Y-105269597D02*
X195872116Y-105221978D01*
X195872116Y-105221978D02*
X195967354Y-105174359D01*
X195967354Y-105174359D02*
X196157830Y-105174359D01*
X196157830Y-105174359D02*
X196253068Y-105221978D01*
X196253068Y-105221978D02*
X196300687Y-105269597D01*
X196300687Y-105269597D02*
X196348306Y-105364835D01*
X196348306Y-105364835D02*
X196348306Y-105412454D01*
X196348306Y-105412454D02*
X196300687Y-105507692D01*
X196300687Y-105507692D02*
X196253068Y-105555311D01*
X196253068Y-105555311D02*
X196157830Y-105602930D01*
X196157830Y-105602930D02*
X195967354Y-105602930D01*
X195967354Y-105602930D02*
X195872116Y-105650549D01*
X195872116Y-105650549D02*
X195824497Y-105698168D01*
X195824497Y-105698168D02*
X195776878Y-105793406D01*
X195776878Y-105793406D02*
X195776878Y-105983882D01*
X195776878Y-105983882D02*
X195824497Y-106079120D01*
X195824497Y-106079120D02*
X195872116Y-106126740D01*
X195872116Y-106126740D02*
X195967354Y-106174359D01*
X195967354Y-106174359D02*
X196157830Y-106174359D01*
X196157830Y-106174359D02*
X196253068Y-106126740D01*
X196253068Y-106126740D02*
X196300687Y-106079120D01*
X196300687Y-106079120D02*
X196348306Y-105983882D01*
X196348306Y-105983882D02*
X196348306Y-105793406D01*
X196348306Y-105793406D02*
X196300687Y-105698168D01*
X196300687Y-105698168D02*
X196253068Y-105650549D01*
X196253068Y-105650549D02*
X196157830Y-105602930D01*
X175766386Y-115957435D02*
X175718767Y-116005055D01*
X175718767Y-116005055D02*
X175575910Y-116052674D01*
X175575910Y-116052674D02*
X175480672Y-116052674D01*
X175480672Y-116052674D02*
X175337815Y-116005055D01*
X175337815Y-116005055D02*
X175242577Y-115909816D01*
X175242577Y-115909816D02*
X175194958Y-115814578D01*
X175194958Y-115814578D02*
X175147339Y-115624102D01*
X175147339Y-115624102D02*
X175147339Y-115481245D01*
X175147339Y-115481245D02*
X175194958Y-115290769D01*
X175194958Y-115290769D02*
X175242577Y-115195531D01*
X175242577Y-115195531D02*
X175337815Y-115100293D01*
X175337815Y-115100293D02*
X175480672Y-115052674D01*
X175480672Y-115052674D02*
X175575910Y-115052674D01*
X175575910Y-115052674D02*
X175718767Y-115100293D01*
X175718767Y-115100293D02*
X175766386Y-115147912D01*
X176099720Y-115052674D02*
X176718767Y-115052674D01*
X176718767Y-115052674D02*
X176385434Y-115433626D01*
X176385434Y-115433626D02*
X176528291Y-115433626D01*
X176528291Y-115433626D02*
X176623529Y-115481245D01*
X176623529Y-115481245D02*
X176671148Y-115528864D01*
X176671148Y-115528864D02*
X176718767Y-115624102D01*
X176718767Y-115624102D02*
X176718767Y-115862197D01*
X176718767Y-115862197D02*
X176671148Y-115957435D01*
X176671148Y-115957435D02*
X176623529Y-116005055D01*
X176623529Y-116005055D02*
X176528291Y-116052674D01*
X176528291Y-116052674D02*
X176242577Y-116052674D01*
X176242577Y-116052674D02*
X176147339Y-116005055D01*
X176147339Y-116005055D02*
X176099720Y-115957435D01*
X166985628Y-114786439D02*
X167128485Y-114834058D01*
X167128485Y-114834058D02*
X167366580Y-114834058D01*
X167366580Y-114834058D02*
X167461818Y-114786439D01*
X167461818Y-114786439D02*
X167509437Y-114738819D01*
X167509437Y-114738819D02*
X167557056Y-114643581D01*
X167557056Y-114643581D02*
X167557056Y-114548343D01*
X167557056Y-114548343D02*
X167509437Y-114453105D01*
X167509437Y-114453105D02*
X167461818Y-114405486D01*
X167461818Y-114405486D02*
X167366580Y-114357867D01*
X167366580Y-114357867D02*
X167176104Y-114310248D01*
X167176104Y-114310248D02*
X167080866Y-114262629D01*
X167080866Y-114262629D02*
X167033247Y-114215010D01*
X167033247Y-114215010D02*
X166985628Y-114119772D01*
X166985628Y-114119772D02*
X166985628Y-114024534D01*
X166985628Y-114024534D02*
X167033247Y-113929296D01*
X167033247Y-113929296D02*
X167080866Y-113881677D01*
X167080866Y-113881677D02*
X167176104Y-113834058D01*
X167176104Y-113834058D02*
X167414199Y-113834058D01*
X167414199Y-113834058D02*
X167557056Y-113881677D01*
X167890390Y-113834058D02*
X168128485Y-114834058D01*
X168128485Y-114834058D02*
X168318961Y-114119772D01*
X168318961Y-114119772D02*
X168509437Y-114834058D01*
X168509437Y-114834058D02*
X168747533Y-113834058D01*
X169033247Y-113834058D02*
X169652294Y-113834058D01*
X169652294Y-113834058D02*
X169318961Y-114215010D01*
X169318961Y-114215010D02*
X169461818Y-114215010D01*
X169461818Y-114215010D02*
X169557056Y-114262629D01*
X169557056Y-114262629D02*
X169604675Y-114310248D01*
X169604675Y-114310248D02*
X169652294Y-114405486D01*
X169652294Y-114405486D02*
X169652294Y-114643581D01*
X169652294Y-114643581D02*
X169604675Y-114738819D01*
X169604675Y-114738819D02*
X169557056Y-114786439D01*
X169557056Y-114786439D02*
X169461818Y-114834058D01*
X169461818Y-114834058D02*
X169176104Y-114834058D01*
X169176104Y-114834058D02*
X169080866Y-114786439D01*
X169080866Y-114786439D02*
X169033247Y-114738819D01*
X160647347Y-126740924D02*
X160694966Y-126598067D01*
X160694966Y-126598067D02*
X160694966Y-126359972D01*
X160694966Y-126359972D02*
X160647347Y-126264734D01*
X160647347Y-126264734D02*
X160599727Y-126217115D01*
X160599727Y-126217115D02*
X160504489Y-126169496D01*
X160504489Y-126169496D02*
X160409251Y-126169496D01*
X160409251Y-126169496D02*
X160314013Y-126217115D01*
X160314013Y-126217115D02*
X160266394Y-126264734D01*
X160266394Y-126264734D02*
X160218775Y-126359972D01*
X160218775Y-126359972D02*
X160171156Y-126550448D01*
X160171156Y-126550448D02*
X160123537Y-126645686D01*
X160123537Y-126645686D02*
X160075918Y-126693305D01*
X160075918Y-126693305D02*
X159980680Y-126740924D01*
X159980680Y-126740924D02*
X159885442Y-126740924D01*
X159885442Y-126740924D02*
X159790204Y-126693305D01*
X159790204Y-126693305D02*
X159742585Y-126645686D01*
X159742585Y-126645686D02*
X159694966Y-126550448D01*
X159694966Y-126550448D02*
X159694966Y-126312353D01*
X159694966Y-126312353D02*
X159742585Y-126169496D01*
X160694966Y-125598067D02*
X160647347Y-125693305D01*
X160647347Y-125693305D02*
X160599727Y-125740924D01*
X160599727Y-125740924D02*
X160504489Y-125788543D01*
X160504489Y-125788543D02*
X160218775Y-125788543D01*
X160218775Y-125788543D02*
X160123537Y-125740924D01*
X160123537Y-125740924D02*
X160075918Y-125693305D01*
X160075918Y-125693305D02*
X160028299Y-125598067D01*
X160028299Y-125598067D02*
X160028299Y-125455210D01*
X160028299Y-125455210D02*
X160075918Y-125359972D01*
X160075918Y-125359972D02*
X160123537Y-125312353D01*
X160123537Y-125312353D02*
X160218775Y-125264734D01*
X160218775Y-125264734D02*
X160504489Y-125264734D01*
X160504489Y-125264734D02*
X160599727Y-125312353D01*
X160599727Y-125312353D02*
X160647347Y-125359972D01*
X160647347Y-125359972D02*
X160694966Y-125455210D01*
X160694966Y-125455210D02*
X160694966Y-125598067D01*
X160694966Y-124693305D02*
X160647347Y-124788543D01*
X160647347Y-124788543D02*
X160552108Y-124836162D01*
X160552108Y-124836162D02*
X159694966Y-124836162D01*
X160694966Y-123883781D02*
X159694966Y-123883781D01*
X160647347Y-123883781D02*
X160694966Y-123979019D01*
X160694966Y-123979019D02*
X160694966Y-124169495D01*
X160694966Y-124169495D02*
X160647347Y-124264733D01*
X160647347Y-124264733D02*
X160599727Y-124312352D01*
X160599727Y-124312352D02*
X160504489Y-124359971D01*
X160504489Y-124359971D02*
X160218775Y-124359971D01*
X160218775Y-124359971D02*
X160123537Y-124312352D01*
X160123537Y-124312352D02*
X160075918Y-124264733D01*
X160075918Y-124264733D02*
X160028299Y-124169495D01*
X160028299Y-124169495D02*
X160028299Y-123979019D01*
X160028299Y-123979019D02*
X160075918Y-123883781D01*
X160647347Y-123026638D02*
X160694966Y-123121876D01*
X160694966Y-123121876D02*
X160694966Y-123312352D01*
X160694966Y-123312352D02*
X160647347Y-123407590D01*
X160647347Y-123407590D02*
X160552108Y-123455209D01*
X160552108Y-123455209D02*
X160171156Y-123455209D01*
X160171156Y-123455209D02*
X160075918Y-123407590D01*
X160075918Y-123407590D02*
X160028299Y-123312352D01*
X160028299Y-123312352D02*
X160028299Y-123121876D01*
X160028299Y-123121876D02*
X160075918Y-123026638D01*
X160075918Y-123026638D02*
X160171156Y-122979019D01*
X160171156Y-122979019D02*
X160266394Y-122979019D01*
X160266394Y-122979019D02*
X160361632Y-123455209D01*
X160694966Y-122550447D02*
X160028299Y-122550447D01*
X160218775Y-122550447D02*
X160123537Y-122502828D01*
X160123537Y-122502828D02*
X160075918Y-122455209D01*
X160075918Y-122455209D02*
X160028299Y-122359971D01*
X160028299Y-122359971D02*
X160028299Y-122264733D01*
X159694966Y-121645685D02*
X160409251Y-121645685D01*
X160409251Y-121645685D02*
X160552108Y-121693304D01*
X160552108Y-121693304D02*
X160647347Y-121788542D01*
X160647347Y-121788542D02*
X160694966Y-121931399D01*
X160694966Y-121931399D02*
X160694966Y-122026637D01*
X160028299Y-120740923D02*
X160694966Y-120740923D01*
X160028299Y-121169494D02*
X160552108Y-121169494D01*
X160552108Y-121169494D02*
X160647347Y-121121875D01*
X160647347Y-121121875D02*
X160694966Y-121026637D01*
X160694966Y-121026637D02*
X160694966Y-120883780D01*
X160694966Y-120883780D02*
X160647347Y-120788542D01*
X160647347Y-120788542D02*
X160599727Y-120740923D01*
X160694966Y-120264732D02*
X160028299Y-120264732D01*
X160123537Y-120264732D02*
X160075918Y-120217113D01*
X160075918Y-120217113D02*
X160028299Y-120121875D01*
X160028299Y-120121875D02*
X160028299Y-119979018D01*
X160028299Y-119979018D02*
X160075918Y-119883780D01*
X160075918Y-119883780D02*
X160171156Y-119836161D01*
X160171156Y-119836161D02*
X160694966Y-119836161D01*
X160171156Y-119836161D02*
X160075918Y-119788542D01*
X160075918Y-119788542D02*
X160028299Y-119693304D01*
X160028299Y-119693304D02*
X160028299Y-119550447D01*
X160028299Y-119550447D02*
X160075918Y-119455208D01*
X160075918Y-119455208D02*
X160171156Y-119407589D01*
X160171156Y-119407589D02*
X160694966Y-119407589D01*
X160028299Y-118931399D02*
X161028299Y-118931399D01*
X160075918Y-118931399D02*
X160028299Y-118836161D01*
X160028299Y-118836161D02*
X160028299Y-118645685D01*
X160028299Y-118645685D02*
X160075918Y-118550447D01*
X160075918Y-118550447D02*
X160123537Y-118502828D01*
X160123537Y-118502828D02*
X160218775Y-118455209D01*
X160218775Y-118455209D02*
X160504489Y-118455209D01*
X160504489Y-118455209D02*
X160599727Y-118502828D01*
X160599727Y-118502828D02*
X160647347Y-118550447D01*
X160647347Y-118550447D02*
X160694966Y-118645685D01*
X160694966Y-118645685D02*
X160694966Y-118836161D01*
X160694966Y-118836161D02*
X160647347Y-118931399D01*
X160647347Y-117645685D02*
X160694966Y-117740923D01*
X160694966Y-117740923D02*
X160694966Y-117931399D01*
X160694966Y-117931399D02*
X160647347Y-118026637D01*
X160647347Y-118026637D02*
X160552108Y-118074256D01*
X160552108Y-118074256D02*
X160171156Y-118074256D01*
X160171156Y-118074256D02*
X160075918Y-118026637D01*
X160075918Y-118026637D02*
X160028299Y-117931399D01*
X160028299Y-117931399D02*
X160028299Y-117740923D01*
X160028299Y-117740923D02*
X160075918Y-117645685D01*
X160075918Y-117645685D02*
X160171156Y-117598066D01*
X160171156Y-117598066D02*
X160266394Y-117598066D01*
X160266394Y-117598066D02*
X160361632Y-118074256D01*
X160694966Y-117169494D02*
X160028299Y-117169494D01*
X160218775Y-117169494D02*
X160123537Y-117121875D01*
X160123537Y-117121875D02*
X160075918Y-117074256D01*
X160075918Y-117074256D02*
X160028299Y-116979018D01*
X160028299Y-116979018D02*
X160028299Y-116883780D01*
X160790204Y-116788542D02*
X160790204Y-116026637D01*
X159694966Y-115883779D02*
X159694966Y-115264732D01*
X159694966Y-115264732D02*
X160075918Y-115598065D01*
X160075918Y-115598065D02*
X160075918Y-115455208D01*
X160075918Y-115455208D02*
X160123537Y-115359970D01*
X160123537Y-115359970D02*
X160171156Y-115312351D01*
X160171156Y-115312351D02*
X160266394Y-115264732D01*
X160266394Y-115264732D02*
X160504489Y-115264732D01*
X160504489Y-115264732D02*
X160599727Y-115312351D01*
X160599727Y-115312351D02*
X160647347Y-115359970D01*
X160647347Y-115359970D02*
X160694966Y-115455208D01*
X160694966Y-115455208D02*
X160694966Y-115740922D01*
X160694966Y-115740922D02*
X160647347Y-115836160D01*
X160647347Y-115836160D02*
X160599727Y-115883779D01*
X160790204Y-115074256D02*
X160790204Y-114312351D01*
X159694966Y-113883779D02*
X159694966Y-113693303D01*
X159694966Y-113693303D02*
X159742585Y-113598065D01*
X159742585Y-113598065D02*
X159837823Y-113502827D01*
X159837823Y-113502827D02*
X160028299Y-113455208D01*
X160028299Y-113455208D02*
X160361632Y-113455208D01*
X160361632Y-113455208D02*
X160552108Y-113502827D01*
X160552108Y-113502827D02*
X160647347Y-113598065D01*
X160647347Y-113598065D02*
X160694966Y-113693303D01*
X160694966Y-113693303D02*
X160694966Y-113883779D01*
X160694966Y-113883779D02*
X160647347Y-113979017D01*
X160647347Y-113979017D02*
X160552108Y-114074255D01*
X160552108Y-114074255D02*
X160361632Y-114121874D01*
X160361632Y-114121874D02*
X160028299Y-114121874D01*
X160028299Y-114121874D02*
X159837823Y-114074255D01*
X159837823Y-114074255D02*
X159742585Y-113979017D01*
X159742585Y-113979017D02*
X159694966Y-113883779D01*
X160028299Y-113026636D02*
X161028299Y-113026636D01*
X160075918Y-113026636D02*
X160028299Y-112931398D01*
X160028299Y-112931398D02*
X160028299Y-112740922D01*
X160028299Y-112740922D02*
X160075918Y-112645684D01*
X160075918Y-112645684D02*
X160123537Y-112598065D01*
X160123537Y-112598065D02*
X160218775Y-112550446D01*
X160218775Y-112550446D02*
X160504489Y-112550446D01*
X160504489Y-112550446D02*
X160599727Y-112598065D01*
X160599727Y-112598065D02*
X160647347Y-112645684D01*
X160647347Y-112645684D02*
X160694966Y-112740922D01*
X160694966Y-112740922D02*
X160694966Y-112931398D01*
X160694966Y-112931398D02*
X160647347Y-113026636D01*
X160647347Y-111740922D02*
X160694966Y-111836160D01*
X160694966Y-111836160D02*
X160694966Y-112026636D01*
X160694966Y-112026636D02*
X160647347Y-112121874D01*
X160647347Y-112121874D02*
X160552108Y-112169493D01*
X160552108Y-112169493D02*
X160171156Y-112169493D01*
X160171156Y-112169493D02*
X160075918Y-112121874D01*
X160075918Y-112121874D02*
X160028299Y-112026636D01*
X160028299Y-112026636D02*
X160028299Y-111836160D01*
X160028299Y-111836160D02*
X160075918Y-111740922D01*
X160075918Y-111740922D02*
X160171156Y-111693303D01*
X160171156Y-111693303D02*
X160266394Y-111693303D01*
X160266394Y-111693303D02*
X160361632Y-112169493D01*
X160028299Y-111264731D02*
X160694966Y-111264731D01*
X160123537Y-111264731D02*
X160075918Y-111217112D01*
X160075918Y-111217112D02*
X160028299Y-111121874D01*
X160028299Y-111121874D02*
X160028299Y-110979017D01*
X160028299Y-110979017D02*
X160075918Y-110883779D01*
X160075918Y-110883779D02*
X160171156Y-110836160D01*
X160171156Y-110836160D02*
X160694966Y-110836160D01*
X140613848Y-115219957D02*
X140280515Y-114743766D01*
X140042420Y-115219957D02*
X140042420Y-114219957D01*
X140042420Y-114219957D02*
X140423372Y-114219957D01*
X140423372Y-114219957D02*
X140518610Y-114267576D01*
X140518610Y-114267576D02*
X140566229Y-114315195D01*
X140566229Y-114315195D02*
X140613848Y-114410433D01*
X140613848Y-114410433D02*
X140613848Y-114553290D01*
X140613848Y-114553290D02*
X140566229Y-114648528D01*
X140566229Y-114648528D02*
X140518610Y-114696147D01*
X140518610Y-114696147D02*
X140423372Y-114743766D01*
X140423372Y-114743766D02*
X140042420Y-114743766D01*
X141566229Y-115219957D02*
X140994801Y-115219957D01*
X141280515Y-115219957D02*
X141280515Y-114219957D01*
X141280515Y-114219957D02*
X141185277Y-114362814D01*
X141185277Y-114362814D02*
X141090039Y-114458052D01*
X141090039Y-114458052D02*
X140994801Y-114505671D01*
X141947182Y-114315195D02*
X141994801Y-114267576D01*
X141994801Y-114267576D02*
X142090039Y-114219957D01*
X142090039Y-114219957D02*
X142328134Y-114219957D01*
X142328134Y-114219957D02*
X142423372Y-114267576D01*
X142423372Y-114267576D02*
X142470991Y-114315195D01*
X142470991Y-114315195D02*
X142518610Y-114410433D01*
X142518610Y-114410433D02*
X142518610Y-114505671D01*
X142518610Y-114505671D02*
X142470991Y-114648528D01*
X142470991Y-114648528D02*
X141899563Y-115219957D01*
X141899563Y-115219957D02*
X142518610Y-115219957D01*
X132371348Y-78679082D02*
X132514205Y-78726701D01*
X132514205Y-78726701D02*
X132561824Y-78774320D01*
X132561824Y-78774320D02*
X132609443Y-78869558D01*
X132609443Y-78869558D02*
X132609443Y-79012415D01*
X132609443Y-79012415D02*
X132561824Y-79107653D01*
X132561824Y-79107653D02*
X132514205Y-79155273D01*
X132514205Y-79155273D02*
X132418967Y-79202892D01*
X132418967Y-79202892D02*
X132038015Y-79202892D01*
X132038015Y-79202892D02*
X132038015Y-78202892D01*
X132038015Y-78202892D02*
X132371348Y-78202892D01*
X132371348Y-78202892D02*
X132466586Y-78250511D01*
X132466586Y-78250511D02*
X132514205Y-78298130D01*
X132514205Y-78298130D02*
X132561824Y-78393368D01*
X132561824Y-78393368D02*
X132561824Y-78488606D01*
X132561824Y-78488606D02*
X132514205Y-78583844D01*
X132514205Y-78583844D02*
X132466586Y-78631463D01*
X132466586Y-78631463D02*
X132371348Y-78679082D01*
X132371348Y-78679082D02*
X132038015Y-78679082D01*
X133466586Y-78536225D02*
X133466586Y-79202892D01*
X133038015Y-78536225D02*
X133038015Y-79060034D01*
X133038015Y-79060034D02*
X133085634Y-79155273D01*
X133085634Y-79155273D02*
X133180872Y-79202892D01*
X133180872Y-79202892D02*
X133323729Y-79202892D01*
X133323729Y-79202892D02*
X133418967Y-79155273D01*
X133418967Y-79155273D02*
X133466586Y-79107653D01*
X134371348Y-79155273D02*
X134276110Y-79202892D01*
X134276110Y-79202892D02*
X134085634Y-79202892D01*
X134085634Y-79202892D02*
X133990396Y-79155273D01*
X133990396Y-79155273D02*
X133942777Y-79107653D01*
X133942777Y-79107653D02*
X133895158Y-79012415D01*
X133895158Y-79012415D02*
X133895158Y-78726701D01*
X133895158Y-78726701D02*
X133942777Y-78631463D01*
X133942777Y-78631463D02*
X133990396Y-78583844D01*
X133990396Y-78583844D02*
X134085634Y-78536225D01*
X134085634Y-78536225D02*
X134276110Y-78536225D01*
X134276110Y-78536225D02*
X134371348Y-78583844D01*
X134799920Y-79202892D02*
X134799920Y-78202892D01*
X134895158Y-78821939D02*
X135180872Y-79202892D01*
X135180872Y-78536225D02*
X134799920Y-78917177D01*
X135371349Y-79298130D02*
X136133253Y-79298130D01*
X136942777Y-79107653D02*
X136895158Y-79155273D01*
X136895158Y-79155273D02*
X136752301Y-79202892D01*
X136752301Y-79202892D02*
X136657063Y-79202892D01*
X136657063Y-79202892D02*
X136514206Y-79155273D01*
X136514206Y-79155273D02*
X136418968Y-79060034D01*
X136418968Y-79060034D02*
X136371349Y-78964796D01*
X136371349Y-78964796D02*
X136323730Y-78774320D01*
X136323730Y-78774320D02*
X136323730Y-78631463D01*
X136323730Y-78631463D02*
X136371349Y-78440987D01*
X136371349Y-78440987D02*
X136418968Y-78345749D01*
X136418968Y-78345749D02*
X136514206Y-78250511D01*
X136514206Y-78250511D02*
X136657063Y-78202892D01*
X136657063Y-78202892D02*
X136752301Y-78202892D01*
X136752301Y-78202892D02*
X136895158Y-78250511D01*
X136895158Y-78250511D02*
X136942777Y-78298130D01*
X137514206Y-79202892D02*
X137418968Y-79155273D01*
X137418968Y-79155273D02*
X137371349Y-79107653D01*
X137371349Y-79107653D02*
X137323730Y-79012415D01*
X137323730Y-79012415D02*
X137323730Y-78726701D01*
X137323730Y-78726701D02*
X137371349Y-78631463D01*
X137371349Y-78631463D02*
X137418968Y-78583844D01*
X137418968Y-78583844D02*
X137514206Y-78536225D01*
X137514206Y-78536225D02*
X137657063Y-78536225D01*
X137657063Y-78536225D02*
X137752301Y-78583844D01*
X137752301Y-78583844D02*
X137799920Y-78631463D01*
X137799920Y-78631463D02*
X137847539Y-78726701D01*
X137847539Y-78726701D02*
X137847539Y-79012415D01*
X137847539Y-79012415D02*
X137799920Y-79107653D01*
X137799920Y-79107653D02*
X137752301Y-79155273D01*
X137752301Y-79155273D02*
X137657063Y-79202892D01*
X137657063Y-79202892D02*
X137514206Y-79202892D01*
X138276111Y-78536225D02*
X138276111Y-79202892D01*
X138276111Y-78631463D02*
X138323730Y-78583844D01*
X138323730Y-78583844D02*
X138418968Y-78536225D01*
X138418968Y-78536225D02*
X138561825Y-78536225D01*
X138561825Y-78536225D02*
X138657063Y-78583844D01*
X138657063Y-78583844D02*
X138704682Y-78679082D01*
X138704682Y-78679082D02*
X138704682Y-79202892D01*
X139085635Y-78536225D02*
X139323730Y-79202892D01*
X139323730Y-79202892D02*
X139561825Y-78536225D01*
X140323730Y-79155273D02*
X140228492Y-79202892D01*
X140228492Y-79202892D02*
X140038016Y-79202892D01*
X140038016Y-79202892D02*
X139942778Y-79155273D01*
X139942778Y-79155273D02*
X139895159Y-79060034D01*
X139895159Y-79060034D02*
X139895159Y-78679082D01*
X139895159Y-78679082D02*
X139942778Y-78583844D01*
X139942778Y-78583844D02*
X140038016Y-78536225D01*
X140038016Y-78536225D02*
X140228492Y-78536225D01*
X140228492Y-78536225D02*
X140323730Y-78583844D01*
X140323730Y-78583844D02*
X140371349Y-78679082D01*
X140371349Y-78679082D02*
X140371349Y-78774320D01*
X140371349Y-78774320D02*
X139895159Y-78869558D01*
X140799921Y-79202892D02*
X140799921Y-78536225D01*
X140799921Y-78726701D02*
X140847540Y-78631463D01*
X140847540Y-78631463D02*
X140895159Y-78583844D01*
X140895159Y-78583844D02*
X140990397Y-78536225D01*
X140990397Y-78536225D02*
X141085635Y-78536225D01*
X141276112Y-78536225D02*
X141657064Y-78536225D01*
X141418969Y-78202892D02*
X141418969Y-79060034D01*
X141418969Y-79060034D02*
X141466588Y-79155273D01*
X141466588Y-79155273D02*
X141561826Y-79202892D01*
X141561826Y-79202892D02*
X141657064Y-79202892D01*
X142371350Y-79155273D02*
X142276112Y-79202892D01*
X142276112Y-79202892D02*
X142085636Y-79202892D01*
X142085636Y-79202892D02*
X141990398Y-79155273D01*
X141990398Y-79155273D02*
X141942779Y-79060034D01*
X141942779Y-79060034D02*
X141942779Y-78679082D01*
X141942779Y-78679082D02*
X141990398Y-78583844D01*
X141990398Y-78583844D02*
X142085636Y-78536225D01*
X142085636Y-78536225D02*
X142276112Y-78536225D01*
X142276112Y-78536225D02*
X142371350Y-78583844D01*
X142371350Y-78583844D02*
X142418969Y-78679082D01*
X142418969Y-78679082D02*
X142418969Y-78774320D01*
X142418969Y-78774320D02*
X141942779Y-78869558D01*
X142847541Y-79202892D02*
X142847541Y-78536225D01*
X142847541Y-78726701D02*
X142895160Y-78631463D01*
X142895160Y-78631463D02*
X142942779Y-78583844D01*
X142942779Y-78583844D02*
X143038017Y-78536225D01*
X143038017Y-78536225D02*
X143133255Y-78536225D01*
X143990398Y-79202892D02*
X143418970Y-79202892D01*
X143704684Y-79202892D02*
X143704684Y-78202892D01*
X143704684Y-78202892D02*
X143609446Y-78345749D01*
X143609446Y-78345749D02*
X143514208Y-78440987D01*
X143514208Y-78440987D02*
X143418970Y-78488606D01*
X189320972Y-105204347D02*
X189225734Y-105156728D01*
X189225734Y-105156728D02*
X189130496Y-105061490D01*
X189130496Y-105061490D02*
X188987639Y-104918632D01*
X188987639Y-104918632D02*
X188892401Y-104871013D01*
X188892401Y-104871013D02*
X188797163Y-104871013D01*
X188844782Y-105109109D02*
X188749544Y-105061490D01*
X188749544Y-105061490D02*
X188654306Y-104966251D01*
X188654306Y-104966251D02*
X188606687Y-104775775D01*
X188606687Y-104775775D02*
X188606687Y-104442442D01*
X188606687Y-104442442D02*
X188654306Y-104251966D01*
X188654306Y-104251966D02*
X188749544Y-104156728D01*
X188749544Y-104156728D02*
X188844782Y-104109109D01*
X188844782Y-104109109D02*
X189035258Y-104109109D01*
X189035258Y-104109109D02*
X189130496Y-104156728D01*
X189130496Y-104156728D02*
X189225734Y-104251966D01*
X189225734Y-104251966D02*
X189273353Y-104442442D01*
X189273353Y-104442442D02*
X189273353Y-104775775D01*
X189273353Y-104775775D02*
X189225734Y-104966251D01*
X189225734Y-104966251D02*
X189130496Y-105061490D01*
X189130496Y-105061490D02*
X189035258Y-105109109D01*
X189035258Y-105109109D02*
X188844782Y-105109109D01*
X189606687Y-104109109D02*
X190225734Y-104109109D01*
X190225734Y-104109109D02*
X189892401Y-104490061D01*
X189892401Y-104490061D02*
X190035258Y-104490061D01*
X190035258Y-104490061D02*
X190130496Y-104537680D01*
X190130496Y-104537680D02*
X190178115Y-104585299D01*
X190178115Y-104585299D02*
X190225734Y-104680537D01*
X190225734Y-104680537D02*
X190225734Y-104918632D01*
X190225734Y-104918632D02*
X190178115Y-105013870D01*
X190178115Y-105013870D02*
X190130496Y-105061490D01*
X190130496Y-105061490D02*
X190035258Y-105109109D01*
X190035258Y-105109109D02*
X189749544Y-105109109D01*
X189749544Y-105109109D02*
X189654306Y-105061490D01*
X189654306Y-105061490D02*
X189606687Y-105013870D01*
X183806234Y-104909109D02*
X183472901Y-104432918D01*
X183234806Y-104909109D02*
X183234806Y-103909109D01*
X183234806Y-103909109D02*
X183615758Y-103909109D01*
X183615758Y-103909109D02*
X183710996Y-103956728D01*
X183710996Y-103956728D02*
X183758615Y-104004347D01*
X183758615Y-104004347D02*
X183806234Y-104099585D01*
X183806234Y-104099585D02*
X183806234Y-104242442D01*
X183806234Y-104242442D02*
X183758615Y-104337680D01*
X183758615Y-104337680D02*
X183710996Y-104385299D01*
X183710996Y-104385299D02*
X183615758Y-104432918D01*
X183615758Y-104432918D02*
X183234806Y-104432918D01*
X184710996Y-103909109D02*
X184234806Y-103909109D01*
X184234806Y-103909109D02*
X184187187Y-104385299D01*
X184187187Y-104385299D02*
X184234806Y-104337680D01*
X184234806Y-104337680D02*
X184330044Y-104290061D01*
X184330044Y-104290061D02*
X184568139Y-104290061D01*
X184568139Y-104290061D02*
X184663377Y-104337680D01*
X184663377Y-104337680D02*
X184710996Y-104385299D01*
X184710996Y-104385299D02*
X184758615Y-104480537D01*
X184758615Y-104480537D02*
X184758615Y-104718632D01*
X184758615Y-104718632D02*
X184710996Y-104813870D01*
X184710996Y-104813870D02*
X184663377Y-104861490D01*
X184663377Y-104861490D02*
X184568139Y-104909109D01*
X184568139Y-104909109D02*
X184330044Y-104909109D01*
X184330044Y-104909109D02*
X184234806Y-104861490D01*
X184234806Y-104861490D02*
X184187187Y-104813870D01*
X183327875Y-86640874D02*
X183327875Y-85640874D01*
X183327875Y-85640874D02*
X183565970Y-85640874D01*
X183565970Y-85640874D02*
X183708827Y-85688493D01*
X183708827Y-85688493D02*
X183804065Y-85783731D01*
X183804065Y-85783731D02*
X183851684Y-85878969D01*
X183851684Y-85878969D02*
X183899303Y-86069445D01*
X183899303Y-86069445D02*
X183899303Y-86212302D01*
X183899303Y-86212302D02*
X183851684Y-86402778D01*
X183851684Y-86402778D02*
X183804065Y-86498016D01*
X183804065Y-86498016D02*
X183708827Y-86593255D01*
X183708827Y-86593255D02*
X183565970Y-86640874D01*
X183565970Y-86640874D02*
X183327875Y-86640874D01*
X184851684Y-86640874D02*
X184280256Y-86640874D01*
X184565970Y-86640874D02*
X184565970Y-85640874D01*
X184565970Y-85640874D02*
X184470732Y-85783731D01*
X184470732Y-85783731D02*
X184375494Y-85878969D01*
X184375494Y-85878969D02*
X184280256Y-85926588D01*
X195092265Y-96102968D02*
X194758932Y-95626777D01*
X194520837Y-96102968D02*
X194520837Y-95102968D01*
X194520837Y-95102968D02*
X194901789Y-95102968D01*
X194901789Y-95102968D02*
X194997027Y-95150587D01*
X194997027Y-95150587D02*
X195044646Y-95198206D01*
X195044646Y-95198206D02*
X195092265Y-95293444D01*
X195092265Y-95293444D02*
X195092265Y-95436301D01*
X195092265Y-95436301D02*
X195044646Y-95531539D01*
X195044646Y-95531539D02*
X194997027Y-95579158D01*
X194997027Y-95579158D02*
X194901789Y-95626777D01*
X194901789Y-95626777D02*
X194520837Y-95626777D01*
X195425599Y-95102968D02*
X196092265Y-95102968D01*
X196092265Y-95102968D02*
X195663694Y-96102968D01*
X187735731Y-114381559D02*
X187878588Y-114429178D01*
X187878588Y-114429178D02*
X188116683Y-114429178D01*
X188116683Y-114429178D02*
X188211921Y-114381559D01*
X188211921Y-114381559D02*
X188259540Y-114333939D01*
X188259540Y-114333939D02*
X188307159Y-114238701D01*
X188307159Y-114238701D02*
X188307159Y-114143463D01*
X188307159Y-114143463D02*
X188259540Y-114048225D01*
X188259540Y-114048225D02*
X188211921Y-114000606D01*
X188211921Y-114000606D02*
X188116683Y-113952987D01*
X188116683Y-113952987D02*
X187926207Y-113905368D01*
X187926207Y-113905368D02*
X187830969Y-113857749D01*
X187830969Y-113857749D02*
X187783350Y-113810130D01*
X187783350Y-113810130D02*
X187735731Y-113714892D01*
X187735731Y-113714892D02*
X187735731Y-113619654D01*
X187735731Y-113619654D02*
X187783350Y-113524416D01*
X187783350Y-113524416D02*
X187830969Y-113476797D01*
X187830969Y-113476797D02*
X187926207Y-113429178D01*
X187926207Y-113429178D02*
X188164302Y-113429178D01*
X188164302Y-113429178D02*
X188307159Y-113476797D01*
X188640493Y-113429178D02*
X188878588Y-114429178D01*
X188878588Y-114429178D02*
X189069064Y-113714892D01*
X189069064Y-113714892D02*
X189259540Y-114429178D01*
X189259540Y-114429178D02*
X189497636Y-113429178D01*
X189830969Y-113524416D02*
X189878588Y-113476797D01*
X189878588Y-113476797D02*
X189973826Y-113429178D01*
X189973826Y-113429178D02*
X190211921Y-113429178D01*
X190211921Y-113429178D02*
X190307159Y-113476797D01*
X190307159Y-113476797D02*
X190354778Y-113524416D01*
X190354778Y-113524416D02*
X190402397Y-113619654D01*
X190402397Y-113619654D02*
X190402397Y-113714892D01*
X190402397Y-113714892D02*
X190354778Y-113857749D01*
X190354778Y-113857749D02*
X189783350Y-114429178D01*
X189783350Y-114429178D02*
X190402397Y-114429178D01*
X164215029Y-110106944D02*
X163881696Y-109630753D01*
X163643601Y-110106944D02*
X163643601Y-109106944D01*
X163643601Y-109106944D02*
X164024553Y-109106944D01*
X164024553Y-109106944D02*
X164119791Y-109154563D01*
X164119791Y-109154563D02*
X164167410Y-109202182D01*
X164167410Y-109202182D02*
X164215029Y-109297420D01*
X164215029Y-109297420D02*
X164215029Y-109440277D01*
X164215029Y-109440277D02*
X164167410Y-109535515D01*
X164167410Y-109535515D02*
X164119791Y-109583134D01*
X164119791Y-109583134D02*
X164024553Y-109630753D01*
X164024553Y-109630753D02*
X163643601Y-109630753D01*
X164548363Y-109106944D02*
X165167410Y-109106944D01*
X165167410Y-109106944D02*
X164834077Y-109487896D01*
X164834077Y-109487896D02*
X164976934Y-109487896D01*
X164976934Y-109487896D02*
X165072172Y-109535515D01*
X165072172Y-109535515D02*
X165119791Y-109583134D01*
X165119791Y-109583134D02*
X165167410Y-109678372D01*
X165167410Y-109678372D02*
X165167410Y-109916467D01*
X165167410Y-109916467D02*
X165119791Y-110011705D01*
X165119791Y-110011705D02*
X165072172Y-110059325D01*
X165072172Y-110059325D02*
X164976934Y-110106944D01*
X164976934Y-110106944D02*
X164691220Y-110106944D01*
X164691220Y-110106944D02*
X164595982Y-110059325D01*
X164595982Y-110059325D02*
X164548363Y-110011705D01*
X189539091Y-97573826D02*
X189443853Y-97526207D01*
X189443853Y-97526207D02*
X189348615Y-97430969D01*
X189348615Y-97430969D02*
X189205758Y-97288111D01*
X189205758Y-97288111D02*
X189110520Y-97240492D01*
X189110520Y-97240492D02*
X189015282Y-97240492D01*
X189062901Y-97478588D02*
X188967663Y-97430969D01*
X188967663Y-97430969D02*
X188872425Y-97335730D01*
X188872425Y-97335730D02*
X188824806Y-97145254D01*
X188824806Y-97145254D02*
X188824806Y-96811921D01*
X188824806Y-96811921D02*
X188872425Y-96621445D01*
X188872425Y-96621445D02*
X188967663Y-96526207D01*
X188967663Y-96526207D02*
X189062901Y-96478588D01*
X189062901Y-96478588D02*
X189253377Y-96478588D01*
X189253377Y-96478588D02*
X189348615Y-96526207D01*
X189348615Y-96526207D02*
X189443853Y-96621445D01*
X189443853Y-96621445D02*
X189491472Y-96811921D01*
X189491472Y-96811921D02*
X189491472Y-97145254D01*
X189491472Y-97145254D02*
X189443853Y-97335730D01*
X189443853Y-97335730D02*
X189348615Y-97430969D01*
X189348615Y-97430969D02*
X189253377Y-97478588D01*
X189253377Y-97478588D02*
X189062901Y-97478588D01*
X189872425Y-96573826D02*
X189920044Y-96526207D01*
X189920044Y-96526207D02*
X190015282Y-96478588D01*
X190015282Y-96478588D02*
X190253377Y-96478588D01*
X190253377Y-96478588D02*
X190348615Y-96526207D01*
X190348615Y-96526207D02*
X190396234Y-96573826D01*
X190396234Y-96573826D02*
X190443853Y-96669064D01*
X190443853Y-96669064D02*
X190443853Y-96764302D01*
X190443853Y-96764302D02*
X190396234Y-96907159D01*
X190396234Y-96907159D02*
X189824806Y-97478588D01*
X189824806Y-97478588D02*
X190443853Y-97478588D01*
X176170925Y-112827491D02*
X175694734Y-113160824D01*
X176170925Y-113398919D02*
X175170925Y-113398919D01*
X175170925Y-113398919D02*
X175170925Y-113017967D01*
X175170925Y-113017967D02*
X175218544Y-112922729D01*
X175218544Y-112922729D02*
X175266163Y-112875110D01*
X175266163Y-112875110D02*
X175361401Y-112827491D01*
X175361401Y-112827491D02*
X175504258Y-112827491D01*
X175504258Y-112827491D02*
X175599496Y-112875110D01*
X175599496Y-112875110D02*
X175647115Y-112922729D01*
X175647115Y-112922729D02*
X175694734Y-113017967D01*
X175694734Y-113017967D02*
X175694734Y-113398919D01*
X176170925Y-111875110D02*
X176170925Y-112446538D01*
X176170925Y-112160824D02*
X175170925Y-112160824D01*
X175170925Y-112160824D02*
X175313782Y-112256062D01*
X175313782Y-112256062D02*
X175409020Y-112351300D01*
X175409020Y-112351300D02*
X175456639Y-112446538D01*
X175170925Y-111256062D02*
X175170925Y-111160824D01*
X175170925Y-111160824D02*
X175218544Y-111065586D01*
X175218544Y-111065586D02*
X175266163Y-111017967D01*
X175266163Y-111017967D02*
X175361401Y-110970348D01*
X175361401Y-110970348D02*
X175551877Y-110922729D01*
X175551877Y-110922729D02*
X175789972Y-110922729D01*
X175789972Y-110922729D02*
X175980448Y-110970348D01*
X175980448Y-110970348D02*
X176075686Y-111017967D01*
X176075686Y-111017967D02*
X176123306Y-111065586D01*
X176123306Y-111065586D02*
X176170925Y-111160824D01*
X176170925Y-111160824D02*
X176170925Y-111256062D01*
X176170925Y-111256062D02*
X176123306Y-111351300D01*
X176123306Y-111351300D02*
X176075686Y-111398919D01*
X176075686Y-111398919D02*
X175980448Y-111446538D01*
X175980448Y-111446538D02*
X175789972Y-111494157D01*
X175789972Y-111494157D02*
X175551877Y-111494157D01*
X175551877Y-111494157D02*
X175361401Y-111446538D01*
X175361401Y-111446538D02*
X175266163Y-111398919D01*
X175266163Y-111398919D02*
X175218544Y-111351300D01*
X175218544Y-111351300D02*
X175170925Y-111256062D01*
X115085834Y-115321177D02*
X114752501Y-114844986D01*
X114514406Y-115321177D02*
X114514406Y-114321177D01*
X114514406Y-114321177D02*
X114895358Y-114321177D01*
X114895358Y-114321177D02*
X114990596Y-114368796D01*
X114990596Y-114368796D02*
X115038215Y-114416415D01*
X115038215Y-114416415D02*
X115085834Y-114511653D01*
X115085834Y-114511653D02*
X115085834Y-114654510D01*
X115085834Y-114654510D02*
X115038215Y-114749748D01*
X115038215Y-114749748D02*
X114990596Y-114797367D01*
X114990596Y-114797367D02*
X114895358Y-114844986D01*
X114895358Y-114844986D02*
X114514406Y-114844986D01*
X116038215Y-115321177D02*
X115466787Y-115321177D01*
X115752501Y-115321177D02*
X115752501Y-114321177D01*
X115752501Y-114321177D02*
X115657263Y-114464034D01*
X115657263Y-114464034D02*
X115562025Y-114559272D01*
X115562025Y-114559272D02*
X115466787Y-114606891D01*
X153148307Y-121233648D02*
X152814974Y-120757457D01*
X152576879Y-121233648D02*
X152576879Y-120233648D01*
X152576879Y-120233648D02*
X152957831Y-120233648D01*
X152957831Y-120233648D02*
X153053069Y-120281267D01*
X153053069Y-120281267D02*
X153100688Y-120328886D01*
X153100688Y-120328886D02*
X153148307Y-120424124D01*
X153148307Y-120424124D02*
X153148307Y-120566981D01*
X153148307Y-120566981D02*
X153100688Y-120662219D01*
X153100688Y-120662219D02*
X153053069Y-120709838D01*
X153053069Y-120709838D02*
X152957831Y-120757457D01*
X152957831Y-120757457D02*
X152576879Y-120757457D01*
X154005450Y-120233648D02*
X153814974Y-120233648D01*
X153814974Y-120233648D02*
X153719736Y-120281267D01*
X153719736Y-120281267D02*
X153672117Y-120328886D01*
X153672117Y-120328886D02*
X153576879Y-120471743D01*
X153576879Y-120471743D02*
X153529260Y-120662219D01*
X153529260Y-120662219D02*
X153529260Y-121043171D01*
X153529260Y-121043171D02*
X153576879Y-121138409D01*
X153576879Y-121138409D02*
X153624498Y-121186029D01*
X153624498Y-121186029D02*
X153719736Y-121233648D01*
X153719736Y-121233648D02*
X153910212Y-121233648D01*
X153910212Y-121233648D02*
X154005450Y-121186029D01*
X154005450Y-121186029D02*
X154053069Y-121138409D01*
X154053069Y-121138409D02*
X154100688Y-121043171D01*
X154100688Y-121043171D02*
X154100688Y-120805076D01*
X154100688Y-120805076D02*
X154053069Y-120709838D01*
X154053069Y-120709838D02*
X154005450Y-120662219D01*
X154005450Y-120662219D02*
X153910212Y-120614600D01*
X153910212Y-120614600D02*
X153719736Y-120614600D01*
X153719736Y-120614600D02*
X153624498Y-120662219D01*
X153624498Y-120662219D02*
X153576879Y-120709838D01*
X153576879Y-120709838D02*
X153529260Y-120805076D01*
D11*
%TO.C,R9*%
X194654789Y-112501672D02*
X194654789Y-112047544D01*
X196124789Y-112501672D02*
X196124789Y-112047544D01*
%TO.C,BlueTooth1*%
X140615398Y-101947915D02*
X144615398Y-101947915D01*
X139585398Y-101657915D02*
X145605398Y-101657915D01*
X145605398Y-101657915D02*
X145605398Y-96357915D01*
X139585398Y-101077915D02*
X140185398Y-101077915D01*
X140185398Y-101077915D02*
X140185398Y-99477915D01*
X144605398Y-100277915D02*
X144075398Y-100027915D01*
X144605398Y-100277915D02*
X144605398Y-97737915D01*
X145605398Y-100277915D02*
X144605398Y-100277915D01*
X144075398Y-100027915D02*
X144075398Y-97987915D01*
X145605398Y-100027915D02*
X144605398Y-100027915D01*
X140185398Y-99477915D02*
X139585398Y-99477915D01*
X139585398Y-98537915D02*
X140185398Y-98537915D01*
X140185398Y-98537915D02*
X140185398Y-96937915D01*
X144075398Y-97987915D02*
X144605398Y-97737915D01*
X145605398Y-97987915D02*
X144605398Y-97987915D01*
X144605398Y-97737915D02*
X145605398Y-97737915D01*
X140185398Y-96937915D02*
X139585398Y-96937915D01*
X139585398Y-96357915D02*
X139585398Y-101657915D01*
X145605398Y-96357915D02*
X139585398Y-96357915D01*
%TO.C,R4*%
X184491156Y-98233279D02*
X184945284Y-98233279D01*
X184491156Y-99703279D02*
X184945284Y-99703279D01*
%TO.C,J1*%
X188089553Y-84363458D02*
X187669553Y-84363458D01*
X188089553Y-82383458D02*
X188089553Y-84363458D01*
X188089553Y-80013458D02*
X188089553Y-80413458D01*
X186089553Y-84593458D02*
X186089553Y-85043458D01*
X185639553Y-85043458D02*
X186089553Y-85043458D01*
X180569553Y-84363458D02*
X180989553Y-84363458D01*
X180569553Y-82383458D02*
X180569553Y-84363458D01*
X180569553Y-80413458D02*
X180569553Y-80013458D01*
%TO.C,R2*%
X148541215Y-96607535D02*
X148995343Y-96607535D01*
X148541215Y-98077535D02*
X148995343Y-98077535D01*
%TO.C,LED2*%
X139014557Y-107558516D02*
X135014557Y-107558516D01*
X140044557Y-107848516D02*
X134024557Y-107848516D01*
X134024557Y-107848516D02*
X134024557Y-113148516D01*
X140044557Y-108428516D02*
X139444557Y-108428516D01*
X139444557Y-108428516D02*
X139444557Y-110028516D01*
X135024557Y-109228516D02*
X135554557Y-109478516D01*
X135024557Y-109228516D02*
X135024557Y-111768516D01*
X134024557Y-109228516D02*
X135024557Y-109228516D01*
X135554557Y-109478516D02*
X135554557Y-111518516D01*
X134024557Y-109478516D02*
X135024557Y-109478516D01*
X139444557Y-110028516D02*
X140044557Y-110028516D01*
X140044557Y-110968516D02*
X139444557Y-110968516D01*
X139444557Y-110968516D02*
X139444557Y-112568516D01*
X135554557Y-111518516D02*
X135024557Y-111768516D01*
X134024557Y-111518516D02*
X135024557Y-111518516D01*
X135024557Y-111768516D02*
X134024557Y-111768516D01*
X139444557Y-112568516D02*
X140044557Y-112568516D01*
X140044557Y-113148516D02*
X140044557Y-107848516D01*
X134024557Y-113148516D02*
X140044557Y-113148516D01*
D12*
%TO.C,Q4*%
X137936557Y-114068654D02*
X133288357Y-114068654D01*
X133288357Y-114068654D02*
X133288357Y-124533454D01*
X136666557Y-114195654D02*
X136666557Y-124406454D01*
X137936557Y-124533454D02*
X137936557Y-114068654D01*
X133288357Y-124533454D02*
X137936557Y-124533454D01*
X135193357Y-112290654D02*
G75*
G03*
X134786957Y-112290654I-203200J0D01*
G01*
X134786957Y-112290654D02*
G75*
G03*
X135193357Y-112290654I203200J0D01*
G01*
%TO.C,Q1*%
X124744215Y-113764994D02*
X120096015Y-113764994D01*
X120096015Y-113764994D02*
X120096015Y-124229794D01*
X123474215Y-113891994D02*
X123474215Y-124102794D01*
X124744215Y-124229794D02*
X124744215Y-113764994D01*
X120096015Y-124229794D02*
X124744215Y-124229794D01*
X122001015Y-111986994D02*
G75*
G03*
X121594615Y-111986994I-203200J0D01*
G01*
X121594615Y-111986994D02*
G75*
G03*
X122001015Y-111986994I203200J0D01*
G01*
%TO.C,U2*%
X124166370Y-101334485D02*
X128293382Y-101334485D01*
X128960376Y-99619985D02*
G75*
G03*
X124065709Y-101284921I-2730500J0D01*
G01*
X128394040Y-101284925D02*
G75*
G03*
X128960376Y-99619986I-2164164J1664940D01*
G01*
D11*
%TO.C,LED3*%
X150452419Y-107616497D02*
X146452419Y-107616497D01*
X151482419Y-107906497D02*
X145462419Y-107906497D01*
X145462419Y-107906497D02*
X145462419Y-113206497D01*
X151482419Y-108486497D02*
X150882419Y-108486497D01*
X150882419Y-108486497D02*
X150882419Y-110086497D01*
X146462419Y-109286497D02*
X146992419Y-109536497D01*
X146462419Y-109286497D02*
X146462419Y-111826497D01*
X145462419Y-109286497D02*
X146462419Y-109286497D01*
X146992419Y-109536497D02*
X146992419Y-111576497D01*
X145462419Y-109536497D02*
X146462419Y-109536497D01*
X150882419Y-110086497D02*
X151482419Y-110086497D01*
X151482419Y-111026497D02*
X150882419Y-111026497D01*
X150882419Y-111026497D02*
X150882419Y-112626497D01*
X146992419Y-111576497D02*
X146462419Y-111826497D01*
X145462419Y-111576497D02*
X146462419Y-111576497D01*
X146462419Y-111826497D02*
X145462419Y-111826497D01*
X150882419Y-112626497D02*
X151482419Y-112626497D01*
X151482419Y-113206497D02*
X151482419Y-107906497D01*
X145462419Y-113206497D02*
X151482419Y-113206497D01*
%TO.C,C4*%
X148469090Y-78496764D02*
X148469090Y-79019268D01*
X146999090Y-78496764D02*
X146999090Y-79019268D01*
%TO.C,R11*%
X128545840Y-116118758D02*
X128999968Y-116118758D01*
X128545840Y-117588758D02*
X128999968Y-117588758D01*
%TO.C,C5*%
X153765094Y-78268057D02*
X153765094Y-78790561D01*
X152295094Y-78268057D02*
X152295094Y-78790561D01*
D12*
%TO.C,U1*%
X158931395Y-79102857D02*
X177193995Y-79102857D01*
X158931395Y-85943417D02*
X158931395Y-79102857D01*
X158931395Y-104858457D02*
X158931395Y-104007897D01*
X160300455Y-104858457D02*
X158931395Y-104858457D01*
X177193995Y-79102857D02*
X177193995Y-85943417D01*
X177193995Y-104007897D02*
X177193995Y-104858457D01*
X177193995Y-104858457D02*
X175824935Y-104858457D01*
D11*
%TO.C,SW1*%
X120524276Y-88912994D02*
X120524276Y-90295994D01*
X120524276Y-88912994D02*
X121908276Y-88912994D01*
X120764276Y-89152994D02*
X120764276Y-93992994D01*
X120764276Y-89152994D02*
X130664276Y-89152994D01*
X120764276Y-93992994D02*
X130664276Y-93992994D01*
X123684276Y-90937994D02*
X123684276Y-92207994D01*
X123684276Y-91057994D02*
X125037609Y-91057994D01*
X123684276Y-91177994D02*
X125037609Y-91177994D01*
X123684276Y-91297994D02*
X125037609Y-91297994D01*
X123684276Y-91417994D02*
X125037609Y-91417994D01*
X123684276Y-91537994D02*
X125037609Y-91537994D01*
X123684276Y-91657994D02*
X125037609Y-91657994D01*
X123684276Y-91777994D02*
X125037609Y-91777994D01*
X123684276Y-91897994D02*
X125037609Y-91897994D01*
X123684276Y-92017994D02*
X125037609Y-92017994D01*
X123684276Y-92137994D02*
X125037609Y-92137994D01*
X123684276Y-92207994D02*
X127744276Y-92207994D01*
X125037609Y-90937994D02*
X125037609Y-92207994D01*
X127744276Y-90937994D02*
X123684276Y-90937994D01*
X127744276Y-92207994D02*
X127744276Y-90937994D01*
X130664276Y-89152994D02*
X130664276Y-93992994D01*
%TO.C,C2*%
X196832751Y-116857762D02*
X197355255Y-116857762D01*
X196832751Y-118327762D02*
X197355255Y-118327762D01*
%TO.C,+12V1*%
X116669464Y-81526003D02*
X116669464Y-85526003D01*
X116959464Y-80496003D02*
X116959464Y-86516003D01*
X116959464Y-86516003D02*
X122259464Y-86516003D01*
X117539464Y-80496003D02*
X117539464Y-81096003D01*
X117539464Y-81096003D02*
X119139464Y-81096003D01*
X118339464Y-85516003D02*
X118589464Y-84986003D01*
X118339464Y-85516003D02*
X120879464Y-85516003D01*
X118339464Y-86516003D02*
X118339464Y-85516003D01*
X118589464Y-84986003D02*
X120629464Y-84986003D01*
X118589464Y-86516003D02*
X118589464Y-85516003D01*
X119139464Y-81096003D02*
X119139464Y-80496003D01*
X120079464Y-80496003D02*
X120079464Y-81096003D01*
X120079464Y-81096003D02*
X121679464Y-81096003D01*
X120629464Y-84986003D02*
X120879464Y-85516003D01*
X120629464Y-86516003D02*
X120629464Y-85516003D01*
X120879464Y-85516003D02*
X120879464Y-86516003D01*
X121679464Y-81096003D02*
X121679464Y-80496003D01*
X122259464Y-80496003D02*
X116959464Y-80496003D01*
X122259464Y-86516003D02*
X122259464Y-80496003D01*
D12*
%TO.C,Q5*%
X150447875Y-114611443D02*
X145799675Y-114611443D01*
X145799675Y-114611443D02*
X145799675Y-125076243D01*
X149177875Y-114738443D02*
X149177875Y-124949243D01*
X150447875Y-125076243D02*
X150447875Y-114611443D01*
X145799675Y-125076243D02*
X150447875Y-125076243D01*
X147704675Y-112833443D02*
G75*
G03*
X147298275Y-112833443I-203200J0D01*
G01*
X147298275Y-112833443D02*
G75*
G03*
X147704675Y-112833443I203200J0D01*
G01*
D11*
%TO.C,LED1*%
X125586035Y-107288596D02*
X121586035Y-107288596D01*
X126616035Y-107578596D02*
X120596035Y-107578596D01*
X120596035Y-107578596D02*
X120596035Y-112878596D01*
X126616035Y-108158596D02*
X126016035Y-108158596D01*
X126016035Y-108158596D02*
X126016035Y-109758596D01*
X121596035Y-108958596D02*
X122126035Y-109208596D01*
X121596035Y-108958596D02*
X121596035Y-111498596D01*
X120596035Y-108958596D02*
X121596035Y-108958596D01*
X122126035Y-109208596D02*
X122126035Y-111248596D01*
X120596035Y-109208596D02*
X121596035Y-109208596D01*
X126016035Y-109758596D02*
X126616035Y-109758596D01*
X126616035Y-110698596D02*
X126016035Y-110698596D01*
X126016035Y-110698596D02*
X126016035Y-112298596D01*
X122126035Y-111248596D02*
X121596035Y-111498596D01*
X120596035Y-111248596D02*
X121596035Y-111248596D01*
X121596035Y-111498596D02*
X120596035Y-111498596D01*
X126016035Y-112298596D02*
X126616035Y-112298596D01*
X126616035Y-112878596D02*
X126616035Y-107578596D01*
X120596035Y-112878596D02*
X126616035Y-112878596D01*
%TO.C,R8*%
X195335528Y-106634540D02*
X195789656Y-106634540D01*
X195335528Y-108104540D02*
X195789656Y-108104540D01*
%TO.C,C3*%
X175671801Y-116542855D02*
X176194305Y-116542855D01*
X175671801Y-118012855D02*
X176194305Y-118012855D01*
%TO.C,SW3*%
X165168961Y-115429239D02*
X171468961Y-115429239D01*
X165168961Y-115679239D02*
X165168961Y-115429239D01*
X165168961Y-120179239D02*
X165168961Y-117579239D01*
X165168961Y-122329239D02*
X165168961Y-122079239D01*
X171468961Y-115429239D02*
X171468961Y-115679239D01*
X171468961Y-117579239D02*
X171468961Y-120179239D01*
X171468961Y-122079239D02*
X171468961Y-122329239D01*
X171468961Y-122329239D02*
X165168961Y-122329239D01*
%TO.C,JP1*%
X157315147Y-122239733D02*
X157315147Y-116739733D01*
X159265147Y-122239733D02*
X157315147Y-122239733D01*
X159815147Y-121189733D02*
X159815147Y-120589733D01*
X159515147Y-120889733D02*
X159815147Y-121189733D01*
X159815147Y-120589733D02*
X159515147Y-120889733D01*
X157315147Y-116739733D02*
X159265147Y-116739733D01*
X159265147Y-116739733D02*
X159265147Y-122239733D01*
%TO.C,R12*%
X141029642Y-115680138D02*
X141483770Y-115680138D01*
X141029642Y-117150138D02*
X141483770Y-117150138D01*
%TO.C,Buck_Converter1*%
X132510397Y-80868073D02*
X132510397Y-84868073D01*
X132800397Y-79838073D02*
X132800397Y-85858073D01*
X132800397Y-85858073D02*
X143180397Y-85858073D01*
X133380397Y-79838073D02*
X133380397Y-80438073D01*
X133380397Y-80438073D02*
X134980397Y-80438073D01*
X134180397Y-84858073D02*
X134430397Y-84328073D01*
X134180397Y-84858073D02*
X141800397Y-84858073D01*
X134180397Y-85858073D02*
X134180397Y-84858073D01*
X134430397Y-84328073D02*
X141550397Y-84328073D01*
X134430397Y-85858073D02*
X134430397Y-84858073D01*
X134980397Y-80438073D02*
X134980397Y-79838073D01*
X135920397Y-79838073D02*
X135920397Y-80438073D01*
X135920397Y-80438073D02*
X137520397Y-80438073D01*
X137520397Y-80438073D02*
X137520397Y-79838073D01*
X138460397Y-79838073D02*
X138460397Y-80438073D01*
X138460397Y-80438073D02*
X140060397Y-80438073D01*
X140060397Y-80438073D02*
X140060397Y-79838073D01*
X141000397Y-79838073D02*
X141000397Y-80438073D01*
X141000397Y-80438073D02*
X142600397Y-80438073D01*
X141550397Y-84328073D02*
X141800397Y-84858073D01*
X141550397Y-85858073D02*
X141550397Y-84858073D01*
X141800397Y-84858073D02*
X141800397Y-85858073D01*
X142600397Y-80438073D02*
X142600397Y-79838073D01*
X143180397Y-79838073D02*
X132800397Y-79838073D01*
X143180397Y-85858073D02*
X143180397Y-79838073D01*
%TO.C,Q3*%
X189416211Y-105494290D02*
X187741211Y-105494290D01*
X189416211Y-105494290D02*
X190066211Y-105494290D01*
X189416211Y-108614290D02*
X188766211Y-108614290D01*
X189416211Y-108614290D02*
X190066211Y-108614290D01*
%TO.C,R5*%
X183745837Y-105369290D02*
X184199965Y-105369290D01*
X183745837Y-106839290D02*
X184199965Y-106839290D01*
%TO.C,D1*%
X183395970Y-90126055D02*
X184695970Y-90126055D01*
X184695970Y-87006055D02*
X182695970Y-87006055D01*
%TO.C,R7*%
X195031868Y-96563149D02*
X195485996Y-96563149D01*
X195031868Y-98033149D02*
X195485996Y-98033149D01*
%TO.C,SW2*%
X185919064Y-115024359D02*
X192219064Y-115024359D01*
X185919064Y-115274359D02*
X185919064Y-115024359D01*
X185919064Y-119774359D02*
X185919064Y-117174359D01*
X185919064Y-121924359D02*
X185919064Y-121674359D01*
X192219064Y-115024359D02*
X192219064Y-115274359D01*
X192219064Y-117174359D02*
X192219064Y-119774359D01*
X192219064Y-121674359D02*
X192219064Y-121924359D01*
X192219064Y-121924359D02*
X185919064Y-121924359D01*
%TO.C,R3*%
X164154632Y-110567125D02*
X164608760Y-110567125D01*
X164154632Y-112037125D02*
X164608760Y-112037125D01*
%TO.C,Q2*%
X189634330Y-97863769D02*
X187959330Y-97863769D01*
X189634330Y-97863769D02*
X190284330Y-97863769D01*
X189634330Y-100983769D02*
X188984330Y-100983769D01*
X189634330Y-100983769D02*
X190284330Y-100983769D01*
%TO.C,R10*%
X174801106Y-111957570D02*
X174801106Y-112411698D01*
X173331106Y-111957570D02*
X173331106Y-112411698D01*
%TO.C,R1*%
X115025437Y-115781358D02*
X115479565Y-115781358D01*
X115025437Y-117251358D02*
X115479565Y-117251358D01*
%TO.C,R6*%
X153087910Y-121693829D02*
X153542038Y-121693829D01*
X153087910Y-123163829D02*
X153542038Y-123163829D01*
%TD*%
M02*
