M48
; DRILL file {KiCad 7.0.10} date Tue Mar 26 16:58:27 2024
; FORMAT={-:-/ absolute / inch / decimal}
; #@! TF.CreationDate,2024-03-26T16:58:27-05:00
; #@! TF.GenerationSoftware,Kicad,Pcbnew,7.0.10
; #@! TF.FileFunction,MixedPlating,1,2
FMAT,2
INCH
; #@! TA.AperFunction,Plated,PTH,ViaDrill
T1C0.0157
; #@! TA.AperFunction,Plated,PTH,ComponentDrill
T2C0.0197
; #@! TA.AperFunction,Plated,PTH,ComponentDrill
T3C0.0217
; #@! TA.AperFunction,Plated,PTH,ComponentDrill
T4C0.0300
; #@! TA.AperFunction,Plated,PTH,ComponentDrill
T5C0.0315
; #@! TA.AperFunction,Plated,PTH,ComponentDrill
T6C0.0440
; #@! TA.AperFunction,Plated,PTH,ComponentDrill
T7C0.0469
%
G90
G05
T1
X4.5583Y-4.2108
X5.1295Y-4.4534
X5.1419Y-4.0257
X5.6121Y-4.4527
X5.9779Y-4.1355
X5.9977Y-4.7433
X6.0496Y-4.1727
X6.0958Y-3.5121
X6.1284Y-4.1284
X6.2116Y-4.2597
X6.3484Y-4.1942
X6.4291Y-3.9805
X6.5501Y-3.9557
X6.9502Y-4.4773
X7.0529Y-4.139
X7.0708Y-3.9545
X7.101Y-3.8613
X7.1381Y-4.0229
X7.2482Y-3.6171
X7.4578Y-3.6715
X7.6611Y-4.0808
X8.0Y-4.0
T4
X4.9197Y-3.922
X4.9697Y-3.922
X5.0197Y-3.922
T5
X4.7994Y-3.6052
X5.0994Y-3.6052
T6
X4.7952Y-4.5849
X4.7952Y-4.6849
X4.7952Y-4.7849
X5.3146Y-4.5969
X5.3146Y-4.6969
X5.3146Y-4.7969
X5.8071Y-4.6183
X5.8071Y-4.7183
X5.8071Y-4.8183
T7
X4.659Y-3.2884
X4.759Y-3.2884
X4.8656Y-4.2897
X4.8656Y-4.3897
X5.2827Y-3.2625
X5.3827Y-3.2625
X5.3943Y-4.3003
X5.3943Y-4.4003
X5.4827Y-3.2625
X5.5827Y-3.2625
X5.6148Y-3.8479
X5.6148Y-3.9479
X5.8446Y-4.3026
X5.8446Y-4.4026
T2
G00X7.1193Y-3.2177
M15
G01X7.1193Y-3.1921
M16
G05
G00X7.3949Y-3.2177
M15
G01X7.3949Y-3.1921
M16
G05
T3
G00X7.1645Y-3.3112
M15
G01X7.1527Y-3.3112
M16
G05
G00X7.3614Y-3.3112
M15
G01X7.3496Y-3.3112
M16
G05
M30
