M48
; DRILL file {KiCad 7.0.10} date Tue Mar 26 17:39:15 2024
; FORMAT={-:-/ absolute / inch / decimal}
; #@! TF.CreationDate,2024-03-26T17:39:15-05:00
; #@! TF.GenerationSoftware,Kicad,Pcbnew,7.0.10
; #@! TF.FileFunction,MixedPlating,1,2
FMAT,2
INCH
; #@! TA.AperFunction,Plated,PTH,ComponentDrill
T1C0.0130
; #@! TA.AperFunction,Plated,PTH,ViaDrill
T2C0.0157
; #@! TA.AperFunction,Plated,PTH,ComponentDrill
T3C0.0160
; #@! TA.AperFunction,Plated,PTH,ComponentDrill
T4C0.0185
; #@! TA.AperFunction,Plated,PTH,ComponentDrill
T5C0.0430
%
G90
G05
T2
X5.5407Y-3.8718
X5.5427Y-4.1251
X5.5773Y-4.2771
X6.1014Y-4.2599
X6.14Y-3.86
X6.6349Y-4.2553
X6.66Y-3.06
X6.7677Y-4.3062
X6.7775Y-4.0559
X6.7824Y-4.1583
X7.1568Y-3.2803
X7.1615Y-3.6889
X7.1639Y-3.5129
X7.2116Y-3.1263
X7.2693Y-3.4873
X7.3109Y-3.2367
X7.4164Y-4.2944
X7.5543Y-3.6476
X7.5659Y-2.829
X7.67Y-4.49
X8.0654Y-3.7469
X8.134Y-3.6806
X8.2177Y-3.9051
X8.2523Y-3.1059
X8.2794Y-3.5894
X8.2995Y-3.1639
X8.4733Y-3.4893
X8.6052Y-3.5336
X8.7198Y-3.7758
T4
X6.1052Y-2.9778
X6.1552Y-2.9778
X6.2052Y-2.9778
T5
X5.3245Y-2.31
X5.3245Y-2.41
X5.3265Y-3.9717
X5.3265Y-4.0717
X5.3265Y-4.1717
X5.3265Y-4.2717
X5.3265Y-4.3717
X5.3265Y-4.4717
X5.8491Y-3.9604
X5.8491Y-4.0604
X5.8491Y-4.1604
X5.8491Y-4.2604
X5.8491Y-4.3604
X5.8491Y-4.4604
X6.1196Y-2.3522
X6.2196Y-2.3522
X6.3196Y-2.3522
X6.403Y-3.954
X6.403Y-4.054
X6.403Y-4.154
X6.403Y-4.254
X6.403Y-4.354
X6.403Y-4.454
X6.4196Y-2.3522
T1
G00X8.4582Y-2.3006
M15
G01X8.4462Y-2.3006
M16
G05
G00X8.655Y-2.3006
M15
G01X8.643Y-2.3006
M16
G05
T3
G00X8.4128Y-2.2063
M15
G01X8.4128Y-2.1823
M16
G05
G00X8.6884Y-2.2063
M15
G01X8.6884Y-2.1823
M16
G05
M30
